<?xml version="1.0" encoding="UTF-8"?><svg id="Ebene_1" xmlns="http://www.w3.org/2000/svg" width="85" height="24" viewBox="0 0 85 24"><path d="M20.69,21c-.32,0-.6-.05-.86-.17s-.46-.27-.63-.47c-.16-.21-.27-.45-.31-.73l.75-.11c.06.26.2.46.4.6.2.14.43.21.69.21.16,0,.3-.02.44-.07.14-.05.25-.12.33-.21.08-.09.13-.21.13-.34,0-.06,0-.12-.03-.17-.02-.05-.05-.1-.09-.14s-.09-.08-.15-.11-.13-.06-.21-.09l-1.12-.33c-.1-.03-.2-.07-.31-.11-.11-.05-.22-.11-.32-.2-.1-.08-.18-.19-.24-.32-.06-.13-.09-.29-.09-.48,0-.28.07-.51.21-.7.14-.19.33-.33.57-.43.24-.09.51-.14.8-.14.3,0,.56.05.79.15.23.1.43.24.58.43s.27.42.33.68l-.78.13c-.03-.15-.09-.28-.19-.39-.09-.11-.2-.19-.33-.25-.13-.06-.27-.09-.42-.09-.14,0-.28.02-.4.07-.12.04-.22.11-.3.19-.08.08-.11.18-.11.3,0,.11.03.19.1.26s.14.12.24.16.19.07.29.1l.78.22c.11.03.23.07.36.11.13.05.26.12.38.2.12.09.22.2.3.34s.12.32.12.54-.05.42-.14.59c-.09.17-.22.31-.38.42-.16.11-.34.2-.54.25-.2.06-.42.08-.64.08Z" fill="#f2f2f2"/><path d="M24.09,20.91v-3.66h-1.4v-.68h3.53v.68h-1.4v3.66h-.73Z" fill="#f2f2f2"/><path d="M28.45,21c-.35,0-.65-.07-.91-.21-.26-.14-.47-.34-.61-.59s-.22-.55-.22-.9v-2.72h.73s0,2.7,0,2.7c0,.16.03.31.08.44.05.13.13.24.22.33.09.09.2.16.33.2.12.05.25.07.38.07s.26-.02.38-.07.23-.12.32-.21c.09-.09.17-.2.22-.33.05-.13.08-.27.08-.43v-2.71h.73v2.72c0,.34-.07.64-.22.9s-.35.45-.61.59c-.26.14-.57.21-.91.21Z" fill="#f2f2f2"/><path d="M31.04,20.91v-4.34h1.38s.11,0,.21,0,.21,0,.31.02c.34.04.63.17.87.37.24.2.42.45.54.76.12.31.18.65.18,1.01s-.06.71-.18,1.01c-.12.31-.3.56-.54.76-.24.2-.53.32-.87.37-.1.01-.2.02-.31.02s-.18,0-.22,0h-1.38ZM31.77,20.23h.64c.06,0,.14,0,.23,0,.09,0,.18-.01.25-.03.21-.04.37-.13.5-.27.13-.14.22-.32.28-.53.06-.21.09-.42.09-.65s-.03-.46-.09-.66c-.06-.21-.16-.38-.29-.52-.13-.14-.29-.23-.5-.27-.07-.02-.16-.03-.25-.03-.09,0-.17,0-.23,0h-.64v2.97Z" fill="#f2f2f2"/><path d="M35.32,20.91v-4.34h.73v4.34h-.73Z" fill="#f2f2f2"/><path d="M38.78,21c-.43,0-.8-.09-1.11-.28-.31-.19-.55-.45-.71-.79-.17-.34-.25-.73-.25-1.18s.08-.84.25-1.18c.17-.34.4-.6.71-.79.31-.19.68-.29,1.11-.29s.81.1,1.12.29c.31.19.55.45.71.79.17.34.25.73.25,1.18s-.08.84-.25,1.18c-.17.34-.4.6-.71.79-.31.19-.68.28-1.12.28ZM38.78,20.32c.29,0,.53-.06.73-.19s.34-.31.44-.55c.1-.24.15-.51.15-.83s-.05-.59-.15-.83c-.1-.23-.24-.42-.44-.55-.19-.13-.44-.2-.73-.2-.29,0-.53.06-.73.19-.19.13-.34.31-.43.55-.1.24-.15.51-.15.83s.05.59.14.83c.1.23.24.42.44.55.19.13.44.2.73.2Z" fill="#f2f2f2"/><path d="M42.66,20.91v-4.34h1.79s.1,0,.16,0c.07,0,.13,0,.18.02.25.04.46.12.62.25.16.13.29.29.37.49.08.2.12.41.12.65s-.04.45-.12.65c-.08.2-.2.36-.37.49-.16.13-.37.21-.62.25-.06,0-.12.01-.19.02s-.12,0-.16,0h-1.07v1.51h-.73ZM43.39,18.72h1.04s.09,0,.14,0,.1-.01.14-.02c.12-.03.21-.08.28-.16s.12-.16.15-.26c.03-.1.04-.19.04-.28s-.01-.19-.04-.28c-.03-.1-.08-.18-.15-.26s-.16-.13-.28-.16c-.04-.01-.09-.02-.14-.02s-.1,0-.14,0h-1.04v1.46Z" fill="#f2f2f2"/><path d="M46.57,20.91v-4.34h.73v3.66h1.92v.68h-2.64Z" fill="#f2f2f2"/><path d="M49.72,20.91v-4.34h2.8v.68h-2.07v1.07h1.71v.68h-1.71v1.23h2.07v.68h-2.8Z" fill="#f2f2f2"/><path d="M53.3,20.91v-4.34h.73v4.34h-.73Z" fill="#f2f2f2"/><path d="M54.93,20.91v-4.34h.73l2.01,3.06v-3.06h.73v4.34h-.73l-2.01-3.06v3.06h-.73Z" fill="#f2f2f2"/><path d="M59.26,20.91v-4.34h2.8v.68h-2.07v1.07h1.71v.68h-1.71v1.23h2.07v.68h-2.8Z" fill="#f2f2f2"/><path d="M62.78,20.91v-4.34h1.79s.1,0,.16,0c.07,0,.13,0,.18.02.25.04.46.12.62.25.16.13.29.29.37.49.08.2.12.41.12.65,0,.35-.09.66-.27.91s-.45.41-.82.47l-.31.03h-1.12v1.51h-.73ZM63.5,18.72h1.04s.09,0,.14,0,.1-.01.14-.02c.12-.03.21-.08.28-.16s.12-.16.15-.26c.03-.1.04-.19.04-.28s-.01-.19-.04-.28c-.03-.1-.08-.18-.15-.26s-.16-.13-.28-.16c-.04-.01-.09-.02-.14-.02s-.1,0-.14,0h-1.04v1.46ZM65.27,20.91l-.85-1.76.74-.16.94,1.93h-.82Z" fill="#f2f2f2"/><polygon points="42.49 1.09 37.5 3.72 37.5 6.23 40 7.55 37.5 8.92 37.5 11.42 42.49 8.84 42.49 6.35 39.89 4.97 42.49 3.62 42.49 1.09" fill="#f2f2f2"/><polygon points="40.25 15.21 40.25 12.67 42.49 11.55 42.49 14.06 40.25 15.21" fill="#f2f2f2"/><polygon points="42.49 11.42 42.49 8.94 45.05 7.6 42.49 6.25 42.49 3.72 47.5 6.25 47.5 8.86 42.61 11.42 42.49 11.42" fill="#f2f2f2"/></svg>