<?xml version="1.0" encoding="UTF-8"?><svg id="Ebene_1" xmlns="http://www.w3.org/2000/svg" width="250" height="100" viewBox="0 0 250 100"><path d="M74.99,30.49c0,9.15-7.42,16.56-16.56,16.56s-16.56-7.42-16.56-16.56,7.42-16.56,16.56-16.56,16.56,7.42,16.56,16.56ZM67.29,32.53c-.26,1.11-1.37,1.81-2.48,1.55l-13.7-3.15c-1.11-.26-1.81-1.37-1.55-2.48.26-1.11,1.37-1.81,2.48-1.55l13.7,3.15c1.11.26,1.81,1.37,1.55,2.48Z" fill="#f2f2f2" fill-rule="evenodd"/><path d="M22.77,20.64c-1.34-3.17-5.82-3.49-7.62-.54L1.06,43.15c-1.62,2.66.19,6.05,3.36,6.28l24.57,1.75c3.17.23,5.47-2.87,4.26-5.74l-10.48-24.8Z" fill="#f2f2f2"/><path d="M61.29,76.78c6.22-2.9,8.91-10.29,6.01-16.51-2.9-6.22-10.29-8.91-16.51-6.01l-22.52,10.5c-6.22,2.9-8.91,10.29-6.01,16.51,2.9,6.22,10.29,8.91,16.51,6.01l22.52-10.5ZM50.03,77.46l9.52-4.44c4.15-1.93,5.94-6.86,4.01-11.01-1.93-4.15-6.86-5.94-11.01-4.01l-9.52,4.44,7,15.01Z" fill="#f2f2f2" fill-rule="evenodd"/><path d="M102.38,40.95h4.67v1.87c.9-.94,1.67-1.58,2.3-1.91.68-.35,1.53-.52,2.55-.52,2.28,0,4.09,1,5.42,2.99,1.47-1.99,3.45-2.99,5.96-2.99,4.55,0,6.83,2.76,6.83,8.28v12.49h-4.69v-11.23c0-1.94-.24-3.31-.71-4.11-.48-.82-1.28-1.22-2.39-1.22-1.29,0-2.22.48-2.81,1.45-.59.97-.88,2.53-.88,4.67v10.44h-4.69v-11.17c0-3.6-1.04-5.4-3.11-5.4-1.31,0-2.27.49-2.87,1.47-.6.98-.9,2.53-.9,4.65v10.44h-4.67v-20.21Z" fill="#f2f2f2"/><path d="M154.41,52.16h-14.49c.12,1.66.66,2.98,1.62,3.96.96.97,2.18,1.45,3.67,1.45,1.16,0,2.12-.28,2.88-.83.75-.55,1.6-1.58,2.55-3.07l3.94,2.2c-.61,1.04-1.25,1.93-1.93,2.67s-1.4,1.35-2.18,1.83c-.78.48-1.61.83-2.51,1.05-.9.22-1.88.33-2.93.33-3.02,0-5.44-.97-7.26-2.91-1.83-1.95-2.74-4.54-2.74-7.76s.89-5.78,2.66-7.76c1.79-1.95,4.15-2.93,7.1-2.93s5.33.95,7.06,2.84c1.72,1.88,2.57,4.49,2.57,7.82l-.02,1.1ZM149.62,48.34c-.65-2.49-2.22-3.74-4.71-3.74-.57,0-1.1.09-1.6.26-.5.17-.95.42-1.36.75s-.76.72-1.05,1.17c-.29.46-.51.98-.66,1.56h9.38Z" fill="#f2f2f2"/><path d="M174.42,26.11h4.69v35.05h-4.69v-2.12c-1.84,1.8-3.92,2.7-6.25,2.7-2.77,0-5.06-1.01-6.89-3.03-1.81-2.06-2.72-4.63-2.72-7.72s.91-5.53,2.72-7.55c1.8-2.03,4.06-3.05,6.79-3.05,2.37,0,4.48.97,6.35,2.91v-17.18ZM163.33,51c0,1.94.52,3.51,1.56,4.73,1.07,1.23,2.41,1.85,4.03,1.85,1.73,0,3.13-.59,4.19-1.78,1.06-1.23,1.6-2.79,1.6-4.69s-.53-3.46-1.6-4.69c-1.07-1.2-2.45-1.81-4.15-1.81-1.6,0-2.95.61-4.03,1.83-1.07,1.23-1.6,2.75-1.6,4.57Z" fill="#f2f2f2"/><path d="M199.9,26.11h4.69v35.05h-4.69v-2.12c-1.84,1.8-3.92,2.7-6.25,2.7-2.77,0-5.06-1.01-6.89-3.03-1.81-2.06-2.72-4.63-2.72-7.72s.91-5.53,2.72-7.55c1.8-2.03,4.06-3.05,6.79-3.05,2.37,0,4.48.97,6.35,2.91v-17.18ZM188.82,51c0,1.94.52,3.51,1.56,4.73,1.07,1.23,2.41,1.85,4.03,1.85,1.73,0,3.13-.59,4.19-1.78,1.06-1.23,1.6-2.79,1.6-4.69s-.53-3.46-1.6-4.69c-1.07-1.2-2.45-1.81-4.15-1.81-1.6,0-2.95.61-4.03,1.83-1.07,1.23-1.6,2.75-1.6,4.57Z" fill="#f2f2f2"/><path d="M209.78,32.55c0-.82.3-1.52.89-2.12.59-.59,1.31-.89,2.14-.89s1.56.3,2.16.89c.59.58.89,1.29.89,2.14s-.3,1.56-.89,2.16c-.58.6-1.29.89-2.14.89s-1.56-.3-2.16-.89c-.59-.59-.89-1.32-.89-2.18ZM215.16,40.95v20.21h-4.67v-20.21h4.67Z" fill="#f2f2f2"/><path d="M236.8,41.82v6.21c-1.07-1.3-2.02-2.19-2.86-2.68-.83-.5-1.81-.75-2.93-.75-1.76,0-3.22.62-4.38,1.85s-1.74,2.77-1.74,4.63.56,3.45,1.68,4.67c1.13,1.22,2.58,1.83,4.34,1.83,1.12,0,2.11-.24,2.97-.73.83-.47,1.81-1.38,2.93-2.74v6.16c-1.9.98-3.79,1.47-5.69,1.47-3.13,0-5.74-1.01-7.85-3.03-2.1-2.03-3.15-4.56-3.15-7.58s1.07-5.56,3.2-7.64c2.13-2.08,4.75-3.11,7.84-3.11,1.99,0,3.87.48,5.65,1.43Z" fill="#f2f2f2"/><path d="M246.14,45.31v15.86h-4.67v-15.86h-1.99v-4.36h1.99v-7.41h4.67v7.41h3.63v4.36h-3.63Z" fill="#f2f2f2"/><path d="M102.38,40.95h4.67v1.87c.9-.94,1.67-1.58,2.3-1.91.68-.35,1.53-.52,2.55-.52,2.28,0,4.09,1,5.42,2.99,1.47-1.99,3.45-2.99,5.96-2.99,4.55,0,6.83,2.76,6.83,8.28v12.49h-4.69v-11.23c0-1.94-.24-3.31-.71-4.11-.48-.82-1.28-1.22-2.39-1.22-1.29,0-2.22.48-2.81,1.45-.59.97-.88,2.53-.88,4.67v10.44h-4.69v-11.17c0-3.6-1.04-5.4-3.11-5.4-1.31,0-2.27.49-2.87,1.47-.6.98-.9,2.53-.9,4.65v10.44h-4.67v-20.21Z" fill="#f2f2f2" stroke="#f2f2f2" stroke-width=".25"/><path d="M154.41,52.16h-14.49c.12,1.66.66,2.98,1.62,3.96.96.97,2.18,1.45,3.67,1.45,1.16,0,2.12-.28,2.88-.83.75-.55,1.6-1.58,2.55-3.07l3.94,2.2c-.61,1.04-1.25,1.93-1.93,2.67s-1.4,1.35-2.18,1.83c-.78.48-1.61.83-2.51,1.05-.9.22-1.88.33-2.93.33-3.02,0-5.44-.97-7.26-2.91-1.83-1.95-2.74-4.54-2.74-7.76s.89-5.78,2.66-7.76c1.79-1.95,4.15-2.93,7.1-2.93s5.33.95,7.06,2.84c1.72,1.88,2.57,4.49,2.57,7.82l-.02,1.1ZM149.62,48.34c-.65-2.49-2.22-3.74-4.71-3.74-.57,0-1.1.09-1.6.26-.5.17-.95.42-1.36.75s-.76.72-1.05,1.17c-.29.46-.51.98-.66,1.56h9.38Z" fill="#f2f2f2" stroke="#f2f2f2" stroke-width=".25"/><path d="M174.42,26.11h4.69v35.05h-4.69v-2.12c-1.84,1.8-3.92,2.7-6.25,2.7-2.77,0-5.06-1.01-6.89-3.03-1.81-2.06-2.72-4.63-2.72-7.72s.91-5.53,2.72-7.55c1.8-2.03,4.06-3.05,6.79-3.05,2.37,0,4.48.97,6.35,2.91v-17.18ZM163.33,51c0,1.94.52,3.51,1.56,4.73,1.07,1.23,2.41,1.85,4.03,1.85,1.73,0,3.13-.59,4.19-1.78,1.06-1.23,1.6-2.79,1.6-4.69s-.53-3.46-1.6-4.69c-1.07-1.2-2.45-1.81-4.15-1.81-1.6,0-2.95.61-4.03,1.83-1.07,1.23-1.6,2.75-1.6,4.57Z" fill="#f2f2f2" stroke="#f2f2f2" stroke-width=".25"/><path d="M199.9,26.11h4.69v35.05h-4.69v-2.12c-1.84,1.8-3.92,2.7-6.25,2.7-2.77,0-5.06-1.01-6.89-3.03-1.81-2.06-2.72-4.63-2.72-7.72s.91-5.53,2.72-7.55c1.8-2.03,4.06-3.05,6.79-3.05,2.37,0,4.48.97,6.35,2.91v-17.18ZM188.82,51c0,1.94.52,3.51,1.56,4.73,1.07,1.23,2.41,1.85,4.03,1.85,1.73,0,3.13-.59,4.19-1.78,1.06-1.23,1.6-2.79,1.6-4.69s-.53-3.46-1.6-4.69c-1.07-1.2-2.45-1.81-4.15-1.81-1.6,0-2.95.61-4.03,1.83-1.07,1.23-1.6,2.75-1.6,4.57Z" fill="#f2f2f2" stroke="#f2f2f2" stroke-width=".25"/><path d="M209.78,32.55c0-.82.3-1.52.89-2.12.59-.59,1.31-.89,2.14-.89s1.56.3,2.16.89c.59.58.89,1.29.89,2.14s-.3,1.56-.89,2.16c-.58.6-1.29.89-2.14.89s-1.56-.3-2.16-.89c-.59-.59-.89-1.32-.89-2.18ZM215.16,40.95v20.21h-4.67v-20.21h4.67Z" fill="#f2f2f2" stroke="#f2f2f2" stroke-width=".25"/><path d="M236.8,41.82v6.21c-1.07-1.3-2.02-2.19-2.86-2.68-.83-.5-1.81-.75-2.93-.75-1.76,0-3.22.62-4.38,1.85s-1.74,2.77-1.74,4.63.56,3.45,1.68,4.67c1.13,1.22,2.58,1.83,4.34,1.83,1.12,0,2.11-.24,2.97-.73.83-.47,1.81-1.38,2.93-2.74v6.16c-1.9.98-3.79,1.47-5.69,1.47-3.13,0-5.74-1.01-7.85-3.03-2.1-2.03-3.15-4.56-3.15-7.58s1.07-5.56,3.2-7.64c2.13-2.08,4.75-3.11,7.84-3.11,1.99,0,3.87.48,5.65,1.43Z" fill="#f2f2f2" stroke="#f2f2f2" stroke-width=".25"/><path d="M246.14,45.31v15.86h-4.67v-15.86h-1.99v-4.36h1.99v-7.41h4.67v7.41h3.63v4.36h-3.63Z" fill="#f2f2f2" stroke="#f2f2f2" stroke-width=".25"/></svg>