<?xml version="1.0" encoding="UTF-8"?><svg id="Ebene_2" xmlns="http://www.w3.org/2000/svg" width="511.02" height="510.77" viewBox="0 0 511.02 510.77"><g id="_02"><polygon points="438.12 265.82 440.36 255.56 255.28 215.05 333.05 91.3 324.15 85.71 216.72 256.65 66.79 134.75 60.16 142.9 211.09 265.61 107.08 431.11 115.98 436.7 219.31 272.29 376.7 400.25 383.32 392.1 224.94 263.33 249.33 224.5 438.12 265.82" fill="#1700f9" stroke="#000" stroke-miterlimit="10"/><circle cx="232.09" cy="258.54" r="114.26" transform="translate(-114.84 239.83) rotate(-45)" fill="#f7d00a" stroke="#000" stroke-miterlimit="10"/><path d="M278.39,142.72c.73,3.39-6.1,8.06-17.79,12.81-11.9,4.93-28.85,9.99-47.91,13.98-19.08,4.03-36.59,6.22-49.47,6.56-12.61.33-20.8-1.2-21.5-4.57-.6-2.83,5.79-8.23,15.74-11.68l-.33-1-5.72-17.68-19.23-59.37c-1.43-4.41,1.24-9.12,5.78-10.17l98.16-22.61c4.34-1,8.65,1.86,9.39,6.26l10.82,63.27,3.12,18.23.11.71c9.23.23,18.24,2.45,18.81,5.26Z" stroke="#000" stroke-miterlimit="10"/><path d="M256.35,118.52l3.12,18.23c-15.05,4.33-31.12,8.46-48.17,12.2-18.99,4.17-37.1,7.39-54.16,9.88-1.91-5.89-3.81-11.79-5.72-17.68,16.77-2.04,35-4.99,54.39-9.22,18.3-3.99,35.18-8.59,50.54-13.41Z" fill="#00966f" stroke="#000" stroke-miterlimit="10"/><path d="M171.5,169.61c-7.34,1.43-15.71,1.76-22.44-2.01-1.19-.67-2.34,1.13-1.13,1.81,7.24,4.06,16.11,3.84,24.03,2.29,1.35-.26.9-2.35-.45-2.08Z" fill="#fff"/><line x1="238.21" y1="61.92" x2="246.88" y2="114.92" fill="none" stroke="#fff" stroke-linecap="round" stroke-miterlimit="10"/><ellipse cx="234.11" cy="258.5" rx="8.91" ry="10.11" fill="#ff1f4c" stroke="#000" stroke-miterlimit="10"/><path d="M249.89,270.96c4.8-1.69,10.17,1.16,10.69,5.71,2.01,17.65,2.83,53.95-23.87,56.15-26.88,2.21-28.69-36.98-28.01-55.91.17-4.68,5.52-7.7,10.52-5.99,4.28,1.46,9.41,2.7,15.28,2.74,6.1.04,11.2-1.21,15.4-2.69Z" fill="#ff47fc" stroke="#000" stroke-miterlimit="10"/><path d="M252.7,275.97c1.29-.48,2.66.39,2.75,1.74.68,10.83,1.68,49.71-19.02,50.38-23.68.76-22.65-38.55-21.94-49.2.09-1.31,1.39-2.2,2.66-1.81,4.01,1.24,10.35,2.66,18.27,2.35,7.45-.29,13.41-2.01,17.28-3.46Z" fill="#fff" stroke="#000" stroke-miterlimit="10"/><polyline points="243.54 325.97 243.2 302.18 242.88 278.63" fill="none" stroke="#000" stroke-miterlimit="10"/><polyline points="229.01 326.78 228.44 302.65 227.87 279.21" fill="none" stroke="#000" stroke-miterlimit="10"/><polyline points="215.38 303.09 228.44 302.65 243.2 302.18 254.76 301.8 254.78 301.8" fill="none" stroke="#000" stroke-miterlimit="10"/><path d="M255.19,265.1c7.62-3.05,17.4-4.78,28.03-4.53,1.61.03,3.18.1,4.72.25,7.94.59,15.22,2.27,21.21,4.71,2.24-7.9,3.42-16.95,3.25-26.55-.08-3.71-.35-7.29-.82-10.78-1.2-9.28-3.69-17.71-7.1-24.61-5.82-11.82-14.31-19.21-23.64-19.02-.26,0-.49.03-.75.05-11.57.75-21.28,13.07-25.86,30.66-.02.02-.03.05-.03.07-1.82,7.11-2.85,15.13-2.76,23.58,0,.43,0,.89,0,1.34.14,8.96,1.51,17.4,3.74,24.82Z" fill="#fff" stroke="#000" stroke-miterlimit="10"/><path d="M311.94,189.03s.91,10.48-7.45,14.57" fill="none" stroke="#000" stroke-miterlimit="10"/><path d="M320.65,200.44s-1.81,11.41-11.88,12.76" fill="none" stroke="#000" stroke-miterlimit="10"/><path d="M323.84,216.71s-2.18,9.94-12.24,11.5" fill="none" stroke="#000" stroke-miterlimit="10"/><path d="M254.2,215.36s.01-.05.03-.07c4.58-17.6,14.3-29.91,25.86-30.66,6.6,5.6,11.16,14.69,11.79,25.17.31,5.18-.39,10.12-1.87,14.58l-14.74-4.11,10.61,12.56c-4.46,6.54-11.03,10.87-18.58,11.33-5.78.35-11.27-1.62-15.88-5.22-.09-8.45.94-16.47,2.76-23.58Z" stroke="#000" stroke-miterlimit="10"/><path d="M257.28,214.72c14.57,3.35,9.62,5.49,10.58,21.86,3.24-16.08.02-18.35,14.92-19.62-14.57-3.35-11.09-4.82-12.05-21.2-3.24,16.08,1.45,17.69-13.45,18.96Z" fill="#fff"/><path d="M159.15,269.53c.03.09.04.18.09.25,0,.07.04.14.07.2.07.25.16.5.26.75,1.09-.55,2.22-1.05,3.41-1.53.63-.27,1.28-.54,1.96-.79h.02c5.89-2.23,12.73-3.83,20.09-4.54,2.92-.3,5.78-.42,8.56-.4.4,0,.77,0,1.15.01,6.88.13,13.21,1.13,18.58,2.82,1.68-7.56,2.43-16.09,1.92-25.04-1.66-30.36-16.65-54.25-33.46-53.36-9.32.5-17.24,8.52-22.16,20.71,0,0,0,.02-.02.03-.74,1.84-1.4,3.82-1.98,5.86-.05.21-.13.41-.18.62-.09.29-.18.58-.27.87-.11.36-.21.74-.32,1.13-.18.6-.33,1.2-.46,1.82-.2.81-.39,1.62-.54,2.46-.18.86-.33,1.71-.46,2.57-.4,2.28-.69,4.67-.88,7.14-.07.8-.13,1.62-.17,2.45-.02.05-.01.1-.01.14-.06,1.13-.11,2.28-.12,3.45-.02.8-.01,1.61,0,2.43,0,.61.02,1.21.03,1.82,0,.16,0,.3,0,.47.01.86.05,1.77.11,2.65.5,9.09,2.2,17.6,4.79,25.02Z" fill="#fff" stroke="#000" stroke-miterlimit="10"/><path d="M151.11,194.64s-.12,10.52,8.51,13.98" fill="none" stroke="#000" stroke-miterlimit="10"/><path d="M143.26,206.67s2.66,11.24,12.8,11.84" fill="none" stroke="#000" stroke-miterlimit="10"/><path d="M141.3,223.13s2.91,9.75,13.06,10.56" fill="none" stroke="#000" stroke-miterlimit="10"/><path d="M156.78,219.35s.01-.05.03-.07c4.24-17.68,13.72-30.18,25.27-31.15,6.7,5.47,11.44,14.47,12.28,24.94.41,5.17-.2,10.12-1.59,14.61l-14.32-3.22,10.36,11.75c-4.33,6.63-10.81,11.08-18.36,11.69-5.77.46-11.3-1.4-15.97-4.92-.25-8.44.62-16.48,2.31-23.63Z" stroke="#000" stroke-miterlimit="10"/><path d="M160,216.7c14.57,3.35,9.62,5.49,10.58,21.86,3.24-16.08.02-18.35,14.92-19.62-14.57-3.35-11.09-4.82-12.05-21.2-3.24,16.08,1.45,17.69-13.45,18.96Z" fill="#fff"/><circle cx="417.73" cy="420.19" r="64.57" fill="#3bae90" stroke="#000" stroke-miterlimit="10"/><path d="M426.8,412.82c.06-12.12,3.49-22.65,8.42-27.66,1.92-1.95,4.06-3.06,6.33-3.1,8.06-.15,14.54,13.38,14.46,30.22-.08,16.84-6.68,30.61-14.75,30.76-2.15.04-4.18-.89-5.99-2.58-5.04-4.69-8.52-15.27-8.46-27.65Z" fill="#fff" stroke="#000" stroke-miterlimit="10"/><path d="M435.27,440.47c7.62-1.09,13.69-13.22,13.76-27.89,0-.48,0-.96-.01-1.43l-12.22-.51,11.57-6.55c-1.78-10.72-6.94-18.51-13.14-18.92-4.92,5.01-8.36,15.54-8.42,27.66-.06,12.37,3.42,22.96,8.46,27.65Z" stroke="#000" stroke-miterlimit="10"/><line x1="459.69" y1="391.15" x2="452.99" y2="392.44" fill="none" stroke="#000" stroke-miterlimit="10"/><line x1="457.48" y1="385.42" x2="451.79" y2="389.11" fill="#fff" stroke="#000" stroke-miterlimit="10"/><path d="M374.09,411.48c.2-12.15,3.75-22.73,8.72-27.81,1.94-1.98,4.09-3.11,6.35-3.17,8.05-.23,14.35,13.26,14.08,30.14-.27,16.88-7.02,30.75-15.07,30.98-2.14.06-4.16-.84-5.95-2.52-4.98-4.65-8.33-15.22-8.13-27.62Z" fill="#fff" stroke="#000" stroke-miterlimit="10"/><path d="M382.22,439.1c7.61-1.18,13.82-13.39,14.06-28.09,0-.48,0-.96,0-1.44l-12.19-.39,11.62-6.68c-1.65-10.73-6.71-18.48-12.9-18.83-4.97,5.07-8.52,15.66-8.72,27.81-.2,12.4,3.15,22.97,8.13,27.62Z" stroke="#000" stroke-miterlimit="10"/><line x1="370.76" y1="390.28" x2="377.15" y2="392.21" fill="none" stroke="#000" stroke-miterlimit="10"/><line x1="373.96" y1="384.79" x2="378.93" y2="389.02" fill="none" stroke="#000" stroke-miterlimit="10"/><path d="M401.2,443.42c3.25,5.47,9.2,8.73,15.45,8.46,9.03-.39,13.65-7.91,13.98-8.46" fill="none" stroke="#000" stroke-miterlimit="10"/><circle cx="99.16" cy="445.71" r="64.57" fill="#ff7b21" stroke="#000" stroke-miterlimit="10"/><path d="M93.6,440.09c.05,14.12-3.68,26.34-9.12,32.09-2.13,2.24-4.5,3.49-7.03,3.5-8.99.03-16.34-15.85-16.41-35.48-.07-19.63,7.16-35.56,16.15-35.6,2.39,0,4.67,1.11,6.71,3.11,5.67,5.55,9.65,17.95,9.7,32.37Z" fill="#fff" stroke="#000" stroke-miterlimit="10"/><path d="M83.9,407.72c-8.48,1.14-15.14,15.17-15.08,32.26,0,.56.01,1.12.03,1.67l13.63.81-12.84,7.43c2.08,12.53,7.91,21.7,14.84,22.29,5.44-5.76,9.17-17.97,9.12-32.09-.05-14.42-4.03-26.81-9.7-32.37Z" stroke="#000" stroke-miterlimit="10"/><path d="M152.84,439.88c.05,14.12-3.68,26.34-9.12,32.09-2.13,2.24-4.5,3.5-7.03,3.5-8.99.03-16.34-15.85-16.41-35.48-.07-19.63,7.16-35.56,16.15-35.6,2.39,0,4.67,1.11,6.71,3.11,5.67,5.55,9.65,17.95,9.7,32.37Z" fill="#fff" stroke="#000" stroke-miterlimit="10"/><path d="M143.14,407.51c-8.48,1.14-15.14,15.17-15.08,32.26,0,.56.01,1.12.03,1.67l13.63.81-12.84,7.43c2.08,12.53,7.91,21.7,14.84,22.29,5.44-5.76,9.17-17.97,9.12-32.09-.05-14.42-4.03-26.81-9.7-32.37Z" stroke="#000" stroke-miterlimit="10"/><path d="M107.81,479.09h-11.82c-.55,0-1-.45-1-1s.45-1,1-1h11.82c.55,0,1,.45,1,1s-.45,1-1,1Z"/><circle cx="44.85" cy="123.8" r="44.35" transform="translate(-84.53 148.24) rotate(-80.78)" fill="#ff47fc" stroke="#000" stroke-miterlimit="10"/><path d="M66.48,99.4c4.51-.13,8.44,6.27,9.38,14.76l-6.39,3.75,6.46,3.31c-.73,7.87-4.15,13.8-8.42,13.92-5.01.14-9.29-7.74-9.57-17.61-.28-9.87,3.55-17.98,8.55-18.13Z" stroke="#000" stroke-miterlimit="10"/><path d="M28.09,99.58c-4.51.05-8.18,6.6-8.78,15.12l6.54,3.49-6.32,3.56c1.05,7.83,4.69,13.62,8.97,13.57,5.01-.06,8.98-8.1,8.86-17.98-.11-9.87-4.26-17.83-9.27-17.77Z" stroke="#000" stroke-miterlimit="10"/><path d="M38.99,133.11c.56,1.23,2.11,9.01,9.9,8.81,6.61-.17,8.56-7.98,9.07-9.28" fill="none" stroke="#000" stroke-miterlimit="10"/><path d="M36.96,130.51c1.31,1.04,4.29,3.73,4.46,7.64.18,4.16-2.92,7.23-4.17,8.34" fill="#ff47fc" stroke="#000" stroke-miterlimit="10"/><path d="M58.79,129.65c-1.21,1.15-3.94,4.09-3.77,8,.18,4.16,3.54,6.95,4.88,7.95" fill="#ff47fc" stroke="#000" stroke-miterlimit="10"/><circle cx="466.16" cy="259.6" r="44.35" fill="#8b80fc" stroke="#000" stroke-miterlimit="10"/><path d="M447.3,237.7c-4.66-.15-8.79,7.36-9.74,15.68l4.47,1.94-4.76,3.12c.78,7.72,4.65,14.15,9.07,14.29,5.17.17,9.58-7.54,9.84-17.21.26-9.67-3.72-17.65-8.89-17.82Z" stroke="#000" stroke-miterlimit="10"/><path d="M437.45,235.92c.35.89.93,2.1,1.87,3.3.74.95,1.48,1.61,2.07,2.05" fill="none" stroke="#000" stroke-miterlimit="10"/><path d="M442.93,232.35c.09.83.27,1.85.58,2.96.35,1.23.77,2.23,1.16,2.98" fill="none" stroke="#000" stroke-miterlimit="10"/><path d="M449.26,231.96c-.17.77-.32,1.73-.38,2.82-.07,1.27-.01,2.38.09,3.25" fill="none" stroke="#000" stroke-miterlimit="10"/><path d="M452.84,255.5c-6.17.77-4.21,1.86-5.3,8.6-.66-6.79.76-7.59-5.34-8.74,6.17-.77,4.79-1.53,5.88-8.26.66,6.79-1.34,7.25,4.76,8.41Z" fill="#fff"/><path d="M482.79,237.57c4.66.19,8.27,7.99,8.64,16.36l-4.59,1.6,4.54,3.47c-1.31,7.64-5.61,13.77-10.02,13.59-5.17-.21-9.04-8.22-8.65-17.89.4-9.67,4.91-17.33,10.08-17.12Z" stroke="#000" stroke-miterlimit="10"/><path d="M492.73,236.52c-.41.86-1.08,2.03-2.09,3.15-.8.89-1.59,1.49-2.21,1.9" fill="none" stroke="#000" stroke-miterlimit="10"/><path d="M487.51,232.56c-.15.82-.39,1.82-.78,2.91-.43,1.2-.92,2.16-1.36,2.89" fill="none" stroke="#000" stroke-miterlimit="10"/><path d="M481.22,231.71c.11.78.2,1.74.19,2.84-.01,1.27-.15,2.37-.31,3.24" fill="none" stroke="#000" stroke-miterlimit="10"/><path d="M486.33,256.65c-6.17.77-4.21,1.86-5.3,8.6-.66-6.79.76-7.59-5.34-8.74,6.17-.77,4.79-1.53,5.88-8.26.66,6.79-1.34,7.25,4.76,8.41Z" fill="#fff"/><path d="M473.12,274.91c-.24,7.03-3.94,12.6-8.27,12.45-4.32-.14-7.62-5.98-7.38-12.99.03-.83.1-1.5.22-2.28h0c.32.27.66.42,1.02.66,1.74,1.23,3.91,2.1,6.57,2.19.44.03.87.03,1.33,0,2.78-.17,4.91-.71,6.48-1.94.01-.01-.01.01,0,0,.07.72.06,1.13.04,1.91Z" fill="#ff47fc" stroke="#000" stroke-miterlimit="10"/><line x1="465.27" y1="274.93" x2="465.04" y2="281.8" fill="none" stroke="#000" stroke-miterlimit="10"/><path d="M452.38,263.88s1.45,4.8,5.32,8.08c.32.27.65.53,1,.77,1.74,1.23,3.91,2.1,6.57,2.19.44.03.87.03,1.33,0,2.78-.17,4.85-1.04,6.43-2.27t.02-.02c4.48-3.47,4.76-9.68,4.76-9.68" fill="none" stroke="#000" stroke-miterlimit="10"/><circle cx="356.95" cy="56.58" r="56.08" transform="translate(64.54 268.98) rotate(-45)" fill="#ff355e" stroke="#000" stroke-miterlimit="10"/><path d="M360.33,49.62c-.92,4.5.45,8.08,1.88,12.3,1.23,3.64-.1,8-.03,11.34,5.77-1.43,12.01-2.33,17.05.85.65-3.59-.43-6.94-.06-10.9.56-6.08,5.66-10.03,3.28-16.74-.93-2.63-2.2-4.78-2.64-7.65-.69-4.45,1.55-8.54,1.3-13.08-.26-4.82-2.71-10.49-10.03-9.26-5.57.94-7.86,5.63-8.4,10.5-.48,4.32,1.55,7.33,2.01,11.35.47,4.07-3.56,7.37-4.36,11.29Z" stroke="#000" stroke-miterlimit="10"/><path d="M377.93,25.9c.25,4.53-1.99,8.64-1.3,13.08.44,2.86,1.71,5.02,2.64,7.64,2.38,6.72-2.72,10.67-3.28,16.75-.3,3.32.51,6.05.37,9.15,1.03.46,1.89.84,2.85,1.44.66-3.59-.4-6.79-.04-10.75.56-6.07,5.66-10.03,3.28-16.75-.93-2.62-2.2-4.78-2.64-7.64-.7-4.44,1.55-8.55,1.3-13.08-.27-4.82-2.71-10.5-10.03-9.26-.07.02-.15.02-.22.05,5.04.55,6.84,5.27,7.07,9.37Z" fill="#fff" stroke="#000" stroke-miterlimit="10"/><path d="M318.02,51.16c-.92,4.5.45,8.08,1.88,12.3,1.06,3.14.67,4.82.48,7.6,4.96-2.44,10.92-1.81,16.65-.11-.14-2.31-.39-3.81-.17-6.2.56-6.08,5.66-10.03,3.28-16.74-.93-2.63-2.2-4.78-2.64-7.65-.69-4.45,1.55-8.54,1.3-13.08-.26-4.82-2.71-10.49-10.03-9.26-5.57.94-7.86,5.63-8.4,10.51-.48,4.32,1.55,7.33,2.01,11.35.47,4.07-3.56,7.37-4.36,11.29Z" stroke="#000" stroke-miterlimit="10"/><path d="M335.62,27.44c.25,4.53-1.99,8.64-1.3,13.08.44,2.86,1.71,5.02,2.64,7.64,2.38,6.72-2.72,10.67-3.28,16.75-.19,2.06.08,3.16.23,5.16,1.1.23,2.01.27,3.07.59-.14-2.31-.35-3.51-.13-5.91.56-6.07,5.66-10.03,3.28-16.75-.93-2.62-2.2-4.78-2.64-7.64-.7-4.44,1.55-8.55,1.3-13.08-.27-4.82-2.71-10.5-10.03-9.26-.07.02-.15.02-.22.05,5.04.55,6.84,5.27,7.07,9.37Z" fill="#fff" stroke="#000" stroke-miterlimit="10"/><ellipse cx="348.15" cy="80.54" rx="7.14" ry="11.19" fill="#f7d00a" stroke="#000" stroke-miterlimit="10"/><ellipse cx="348.12" cy="80.34" rx="2.32" ry="4.04" stroke="#000" stroke-miterlimit="10"/><path d="M462.71,147.21c-15.3-2.33-17.57-1-24.73,14.4,3-16.72,1.91-19.1-11.95-26,15.3,2.33,17.57,1,24.72-14.4-3,16.72-1.91,19.1,11.95,26Z" fill="#ffb0fe" stroke="#000" stroke-miterlimit="10"/><path d="M113.75,36.46c-10.11,4.6-10.96,6.28-9.22,18.34-4.74-11.23-6.34-12.23-17.37-10.94,10.11-4.6,10.95-6.28,9.22-18.34,4.74,11.23,6.34,12.23,17.37,10.94Z" fill="#ffb0fe" stroke="#000" stroke-miterlimit="10"/><path d="M69.97,276.83c-11.56,5.26-12.53,7.18-10.54,20.98-5.43-12.84-7.25-13.99-19.87-12.52,11.56-5.26,12.53-7.18,10.54-20.98,5.43,12.84,7.25,13.99,19.87,12.52Z" fill="#ffb0fe" stroke="#000" stroke-miterlimit="10"/><path d="M395.31,316.8c-8.95,0-10.13.95-12.89,10.38.27-9.82-.57-11.09-9.09-13.83,8.95,0,10.13-.95,12.89-10.38-.27,9.82.57,11.09,9.09,13.83Z" fill="#ffb0fe" stroke="#000" stroke-miterlimit="10"/><path d="M281.18,448.75c-14.35,6.53-15.55,8.91-13.09,26.04-6.73-15.93-8.99-17.36-24.65-15.53,14.35-6.53,15.55-8.91,13.08-26.04,6.73,15.93,9,17.36,24.65,15.53Z" fill="#ffb0fe" stroke="#000" stroke-miterlimit="10"/></g></svg>