<?xml version="1.0" encoding="UTF-8"?><svg id="Ebene_2" xmlns="http://www.w3.org/2000/svg" width="463.96" height="511.88" viewBox="0 0 463.96 511.88"><g id="_01"><path d="M26.87,226.39l-1.32,4.13h.03s-9.98,31.33-9.98,31.33c-1.39-1.18-3.17-2-5.18-2.22-4.97-.54-9.39,2.67-9.88,7.17-.49,4.5,3.14,8.59,8.11,9.12,4.97.54,8.25-2.12,9.88-7.17,0-.01,3.08-9.52,4.5-13.99,1.38-4.35,2.74-8.69,4.11-13.04.91-2.91,1.82-5.82,2.73-8.73.1-.33.21-.67.31-1l8.26,2.63,1.32-4.13-12.88-4.11Z" fill="#ff7b21" stroke="#000" stroke-miterlimit="10"/><path d="M63.62,64.17c-.21-1.33-11.9-43.19-11.9-43.19h-.02s-.02-.07-.02-.07l-30.32,7.89,1.06,4.07h.03s8.04,30.91,8.04,30.91c-.95-.13-1.93-.16-2.94,0-5.04.81-8.53,5.16-7.8,9.73.73,4.57,5.41,7.61,10.45,6.81s8.53-5.16,7.8-9.73c-.24-1.51-11.02-38.91-11.02-38.91l21.26-5.53,8.13,31.25c-1.02-.16-2.09-.2-3.18-.03-5.04.81-8.53,5.16-7.8,9.73.73,4.57,5.41,7.61,10.45,6.81,5.04-.81,8.53-5.16,7.8-9.73Z" fill="#ff7b21" stroke="#000" stroke-miterlimit="10"/><path d="M462.02,266.96c.31-1.69,1.42-48.95,1.42-48.95h-.03s0-.09,0-.09l-33.56-1.52-.2,4.5h.03s-1.49,32.77-1.49,32.77c-1.04-.57-2.18-1.02-3.44-1.25-5.65-1.02-10.97,2.3-11.9,7.41-.93,5.12,2.9,10.09,8.55,11.11,5.65,1.02,10.97-2.3,11.9-7.41.27-1.46.94-32.62.94-32.62l23.53,1.06-1.13,25c-.98-.51-2.03-.91-3.18-1.12-5.65-1.02-10.97,2.3-11.9,7.41-.93,5.12,2.9,10.09,8.55,11.11,5.65,1.02,10.97-2.3,11.9-7.41ZM434.46,226.49l.24-5.36,23.53,1.07-.24,5.35-23.53-1.06Z" fill="#ff7b21" stroke="#000" stroke-miterlimit="10"/><path d="M163.87,450.22c3.18.39,6.36.79,9.55,1.17,9.13,1.09,24.06,6.39,32.82,3.15,9.78-3.62,9.55-24.12,9.84-32.34.24-6.62.08-13.24-.17-19.87,6.33.11,12.66.43,18.99.67.38,10.17.54,20.35-.63,30.47-1.39,12.13-3.41,26.52-13.54,34.67-9.87,7.94-23.12,5.85-34.67,4.04-8.64-1.35-17.33-2.5-26.03-3.54,1.22-6.15,2.48-12.29,3.84-18.41Z" stroke="#000" stroke-miterlimit="10"/><path d="M165.38,472.45l5.87-25.45-40.46-9.37-17.84,70.11,9.42,2.7s19.33-.59,24.57-42.94l18.44,4.95Z" fill="#00966f" stroke="#000" stroke-miterlimit="10"/><path d="M141.33,490.96c-7.66,19.1-18.96,19.47-18.96,19.47l-9.42-2.7,7.18-28.23c7.6,2.73,14.75,6.36,21.19,11.45Z" fill="#fff" stroke="#000" stroke-miterlimit="10"/><polygon points="140.92 439.98 122.37 510.43 112.95 507.73 130.79 437.63 140.92 439.98" stroke="#000" stroke-miterlimit="10"/><line x1="158.55" y1="470.5" x2="162.44" y2="456.17" fill="none" stroke="#000" stroke-miterlimit="10"/><line x1="151.26" y1="469.05" x2="155.15" y2="454.72" fill="none" stroke="#000" stroke-miterlimit="10"/><path d="M290.78,399.44c6.3-.48,12.61-.74,18.94-.64,2.17,26.46,4.08,52.92,2.88,79.42h-18.99c1.19-26.28-.68-52.52-2.83-78.77Z" stroke="#000" stroke-miterlimit="10"/><path d="M317.5,468.62l-26.44.72,1.11,42.03,73.25-.34.25-9.91s-5.5-18.8-48.33-13.16l.16-19.34Z" fill="#00966f" stroke="#000" stroke-miterlimit="10"/><path d="M341.76,487.48c20.67,2.65,23.91,13.63,23.91,13.63l-.25,9.91-29.5.14c.74-8.14,2.48-16.07,5.84-23.68Z" fill="#fff" stroke="#000" stroke-miterlimit="10"/><polygon points="291.9 500.85 365.67 501.12 365.42 511.03 292.17 511.37 291.9 500.85" stroke="#000" stroke-miterlimit="10"/><line x1="317.33" y1="475.81" x2="302.3" y2="475.64" fill="none" stroke="#000" stroke-miterlimit="10"/><line x1="317.77" y1="483.32" x2="302.73" y2="483.16" fill="none" stroke="#000" stroke-miterlimit="10"/><polygon points="104.53 110.71 333.59 84.31 373.75 400.4 136.03 427.48 104.53 110.71" fill="#786bfc" stroke="#000" stroke-miterlimit="10"/><polygon points="83.24 115.82 104.53 110.71 136.03 427.48 114.74 409.6 83.24 115.82" fill="#786bfc" stroke="#000" stroke-miterlimit="10"/><circle cx="256.24" cy="359.26" r="42.59" fill="#6454fb" stroke="#000" stroke-miterlimit="10"/><path d="M245.2,341.37l17.33-1.33c1.6-.12,2.44-1.96,1.49-3.25l-9.59-13.01c-.89-1.21-2.73-1.08-3.44.24l-7.74,14.35c-.77,1.42.34,3.13,1.95,3.01Z" fill="#5a4afb" stroke="#000" stroke-miterlimit="10"/><path d="M266.01,377.49l-17.33,1.33c-1.6.12-2.44,1.96-1.49,3.25l9.59,13.01c.89,1.21,2.73,1.08,3.44-.24l7.74-14.35c.77-1.42-.34-3.13-1.95-3.01Z" fill="#5a4afb" stroke="#000" stroke-miterlimit="10"/><path d="M237.54,369.84l-1.33-17.33c-.12-1.6-1.96-2.44-3.25-1.49l-13.01,9.59c-1.21.89-1.08,2.73.24,3.44l14.35,7.74c1.42.77,3.13-.34,3.01-1.95Z" fill="#5a4afb" stroke="#000" stroke-miterlimit="10"/><path d="M273.66,349.03l1.33,17.33c.12,1.6,1.96,2.44,3.25,1.49l13.01-9.59c1.21-.89,1.08-2.73-.24-3.44l-14.35-7.74c-1.42-.77-3.13.34-3.01,1.95Z" fill="#5a4afb" stroke="#000" stroke-miterlimit="10"/><circle cx="174.73" cy="357.64" r="11.35" transform="translate(-213.59 445.07) rotate(-76.65)" fill="#ff47fc" stroke="#000" stroke-miterlimit="10"/><circle cx="326.56" cy="344.16" r="11.35" transform="translate(-83.15 583.38) rotate(-76.78)" fill="#ff47fc" stroke="#000" stroke-miterlimit="10"/><polygon points="162.74 187.57 300.04 169.23 316.14 294.35 175.47 310.55 162.74 187.57" fill="#fff" stroke="#000" stroke-miterlimit="10"/><polygon points="153.74 180.74 306.54 160.23 324.47 300.34 167.93 318.46 153.74 180.74" fill="none" stroke="#000" stroke-miterlimit="10"/><path d="M276.93,264.62c-.17-2.08-14.02-68.32-14.02-68.32h-.04s-.02-.12-.02-.12l-53.06,7.68,1.21,6.43h.06s9.22,48.82,9.22,48.82c-1.61-.34-3.28-.53-5.03-.43-8.74.5-15.36,6.69-14.79,13.84.58,7.14,8.14,12.53,16.88,12.03,8.74-.5,15.36-6.69,14.78-13.84-.19-2.37-13.14-61.58-13.14-61.58l37.2-5.38,9.31,49.35c-1.73-.4-3.55-.62-5.44-.51-8.74.5-15.36,6.69-14.79,13.84.58,7.14,8.14,12.53,16.88,12.03,8.74-.5,15.36-6.69,14.78-13.84Z" fill="#ff47fc" stroke="#000" stroke-miterlimit="10"/><path d="M103.45,117.06s9.22-83.55,110.87-91.54c112.54-8.85,124.14,73.47,124.14,73.47l25.51-6.38S340.64-6.37,213.42,2.54C86.2,11.44,74.75,117.04,74.75,117.04l28.7.02Z" fill="#f7d00a" stroke="#000" stroke-miterlimit="10"/><path d="M113.21,190.95c-9.14,11.54-22.65,18.84-37.69,18.84-27.66,0-50.1-24.64-50.1-55.03s22.43-55.05,50.1-55.05c11.11,0,21.37,3.97,29.69,10.72l8,80.53Z" fill="#f7d00a" stroke="#000" stroke-miterlimit="10"/><path d="M333.95,84.53c8.94-11.7,22.32-19.22,37.36-19.48,27.66-.48,50.51,23.77,51.04,54.16.52,30.39-21.48,55.43-49.14,55.9-11.11.19-21.44-3.6-29.87-10.2l-9.39-80.38Z" fill="#f7d00a" stroke="#000" stroke-miterlimit="10"/><path d="M245.52,150.6c-3.61,6.44-9.22,11.34-17.88,12.41-8.41,1.05-14.8-2.19-19.63-7.42v-.02c-12.67-13.68-14.72-40.99-14.72-40.99l18.51-2.03,23.16-2.53,16.09-1.76s3.6,26.12-5.53,42.34Z" stroke="#000" stroke-miterlimit="10"/><path d="M245.44,149.56c-3.57,6.99-9.15,12.28-17.8,13.38-8.41,1.08-14.82-2.48-19.69-8.2v-.02c-.69-9.22,7.24-17.32,17.69-18.1,9.53-.72,17.91,4.92,19.81,12.94Z" fill="#ff1f4c" stroke="#000" stroke-miterlimit="10"/><path d="M127.22,68.92c-4.89-2.88-10.75-6.74-16.88-11.73-6.51-5.3-11.49-10.39-15.17-14.6" fill="none" stroke="#000" stroke-miterlimit="10"/><path d="M125.89,72.99c-5.59-1.29-12.26-3.16-19.66-5.91-7.41-2.76-13.78-5.74-18.99-8.47" fill="none" stroke="#000" stroke-miterlimit="10"/><path d="M123.39,79.03c-3.55.97-8.77,1.97-15.48,1.88-8.17-.11-15.15-1.8-19.66-3.19" fill="none" stroke="#000" stroke-miterlimit="10"/><path d="M200.46,88.25c2.19,21.64-5.1,41.37-17.5,51.65-4.85,4-10.45,6.56-16.6,7.25-21.88,2.46-42.09-19.94-45.14-50.01-3.05-30.07,12.22-56.45,34.1-58.91,5.82-.65,11.52.45,16.79,2.97,14.61,7,26.12,24.94,28.36,47.04Z" fill="#786bfc" stroke="#000" stroke-miterlimit="10"/><path d="M200.88,95.48c-9.16-4.57-23.36-9.81-38.25-8.78-18.61,1.28-32.45,10.74-40.93,18.25" fill="none" stroke="#000" stroke-miterlimit="10"/><path d="M310.78,46.98c4.35-3.64,9.5-8.4,14.74-14.33,5.55-6.29,9.64-12.13,12.58-16.87" fill="none" stroke="#000" stroke-miterlimit="10"/><path d="M312.76,50.77c5.31-2.19,11.58-5.12,18.43-9.04,6.86-3.93,12.66-7.91,17.36-11.45" fill="none" stroke="#000" stroke-miterlimit="10"/><path d="M316.2,56.32c3.66.38,8.98.51,15.58-.67,8.04-1.45,14.66-4.25,18.88-6.35" fill="none" stroke="#000" stroke-miterlimit="10"/><path d="M318.2,72.29c1.61,21.71-6.19,41.36-18.85,51.49-4.94,3.94-10.6,6.43-16.76,7.04-21.91,2.16-41.49-20.54-43.73-50.7-2.24-30.16,13.7-56.36,35.61-58.52,5.83-.57,11.49.61,16.68,3.21,14.4,7.21,25.4,25.34,27.05,47.5Z" fill="#786bfc" stroke="#000" stroke-miterlimit="10"/><path d="M318.43,79.53c-9.02-4.7-23.06-10.14-37.94-9.32-18.62,1.03-32.68,10.31-41.34,17.72" fill="none" stroke="#000" stroke-miterlimit="10"/><circle cx="223.71" cy="95.33" r="10.5" transform="translate(93.88 300.94) rotate(-80.81)" fill="#ff7b21" stroke="#000" stroke-miterlimit="10"/><path d="M436.05,128.58c-1.04,28.02-1.52,60.96-22.98,82.03-18.71,18.37-46.01,10.86-64.04-4.72l-4.97-39.14c.09.12.17.24.26.37,9.83,14.6,29.88,46.49,51.86,31.93,13.08-8.66,16.83-29.69,18.42-44.07,2.44-22.15,1.8-44.22-.3-66.24-.79-8.22-1.77-16.42-2.88-24.63-.11-.84-.13-1.62-.08-2.36.17-1.95.9-3.55,1.99-4.8.98-1.1,2.24-1.92,3.65-2.44,1.69-.63,3.58-.84,5.43-.6,4.24.53,8.23,3.39,8.96,8.76.99,7.32,1.93,14.65,2.71,21.99,1.57,14.59,2.51,29.21,1.97,43.92Z"/><path d="M390.17,5.09c1.67-.36,3.21.04,4.6.98,6.89,4.64,13.09,23.87,13.09,23.87l16.86-2.2s.31-32.72,15.03-26.44c10.13,4.31,3.98,39.69,3.98,39.69,8.77,21.84-2.1,27.25-2.1,27.25,5.49.5,6.9,4.32,7.08,5.92.31,2.95-3.07,5.75-8.26,8.12-4.99,2.25-11.64,4.11-18.26,5.32-11.25,2.08-22.42,2.31-25.16-.54-7.57-7.9,5.28-12.13,5.28-12.13-5.29-.56-10.37-3.07-14.84-6.55-1.11-.83-2.16-1.74-3.18-2.69-9.97-9.27-15.9-22.62-12.39-26.37,5.58-6,15.49,2.19,21.3,6.8.11.08.19.14.27.19.66.38.67-.34.37-1.48,0,0,.02-.02,0-.03-.47-1.91-1.72-5.02-2.23-6.65-4.27-13.93-9.71-31.21-1.43-33.06Z" fill="#fff" stroke="#000" stroke-miterlimit="10"/><path d="M393.45,46.31s19.4-1.77,22.87,19.73" fill="#fff" stroke="#000" stroke-miterlimit="10"/><path d="M425.63,32.49c1.18,9.77,1.58,21.65-5.89,22.31-7.78.68-10.68-10.4-11.86-20.16-1.18-9.77,3.8-12.62,7.98-12.98,3.83-.33,8.59,1.07,9.77,10.83Z" fill="#fff" stroke="#000" stroke-miterlimit="10"/><line x1="441.6" y1="68.24" x2="435.62" y2="70.56" fill="none" stroke="#000" stroke-miterlimit="10"/><line x1="411.1" y1="74.73" x2="402.29" y2="74.92" fill="none" stroke="#000" stroke-miterlimit="10"/><path d="M393.45,46.31s19.4-1.77,22.87,19.73" fill="#fff" stroke="#000" stroke-miterlimit="10"/><path d="M141.64,348.55c-11.56,4.4-23.23,9.33-35.09,13.45-14.61,5.1-29.54,8.99-45.02,9.27-18.88.34-40.37-6.79-44.65-27.62-4.54-22.09,14.25-46.1,28.58-60.78,15.11-15.51,32.47-28.21,51.9-37.57l2.49,22.26c-11.62,6.24-22.91,14.03-32.78,22.93-11.64,10.49-28.49,27.99-30.15,44.47-2.57,25.47,38.07,15.64,68.01,5.38,13.47-4.59,24.76-9.29,28.99-10.92,12.42-4.74,20.15,14.4,7.73,19.14Z"/><path d="M195.69,300.59c.55,1.65.32,3.25-.48,4.76-3.92,7.48-21.46,12.85-23.16,13.36-.08.02-.13.04-.13.04,0,0,.07.03.18.07.02-.02.03,0,.03,0,1.11.42,6.28,2.63,7.55,8.97,1.34,6.68-2.94,11.13-3.58,11.73l-.02.02c-.05.05-.06.07-.06.07,0,0,33.73-4.9,29.02,10.68-3.23,10.72-39.67,8.45-39.67,8.45-21.1,11.3-27.77.91-27.77.91.1,5.6-3.6,7.46-5.19,7.81-2.95.64-6.15-2.46-9.13-7.44-2.83-4.8-5.45-11.31-7.42-17.86-3.36-11.14-4.83-22.4-2.26-25.49,7.14-8.53,12.85,3.98,12.85,3.98-.03-5.41,1.94-10.83,4.96-15.73.72-1.21,1.52-2.38,2.36-3.51,8.25-11.11,21.09-18.6,25.28-15.46,6.69,4.97-.49,15.9-4.5,22.29-.07.12-.12.2-.16.29-.31.71.42.64,1.54.21,0,0,.02.02.03,0,1.88-.68,4.88-2.3,6.47-2.99,13.6-5.87,30.46-13.3,33.26-5.13Z" fill="#fff" stroke="#000" stroke-miterlimit="10"/><line x1="176.19" y1="339.51" x2="167.94" y2="340.37" fill="none" stroke="#000" stroke-miterlimit="10"/><line x1="172.2" y1="318.78" x2="162.92" y2="321.28" fill="none" stroke="#000" stroke-miterlimit="10"/><line x1="137.6" y1="359.63" x2="134.59" y2="353.84" fill="none" stroke="#000" stroke-miterlimit="10"/><line x1="127.64" y1="329.53" x2="126.46" y2="320.64" fill="none" stroke="#000" stroke-miterlimit="10"/></g></svg>