<?xml version="1.0" encoding="UTF-8"?><svg id="Ebene_2" xmlns="http://www.w3.org/2000/svg" width="510.59" height="511.89" viewBox="0 0 510.59 511.89"><g id="_01"><path d="M479.05,14.76c-8.6,2.52-9.46,3.76-9.45,13.59-2.51-9.5-3.66-10.49-12.62-10.72,8.6-2.52,9.46-3.76,9.45-13.59,2.51,9.5,3.66,10.49,12.62,10.72Z" fill="#f8d614"/><path d="M470.1,32.23l-.99-3.74c-2.44-9.25-3.46-10.12-12.15-10.35l-3.19-.08,3.06-.9c8.34-2.44,9.1-3.55,9.09-13.11V.17s.98,3.74.98,3.74c2.44,9.25,3.46,10.12,12.15,10.35l3.19.08-3.06.9c-8.34,2.44-9.1,3.55-9.09,13.11v3.87ZM459.83,17.26c5.72.41,7.5,1.85,9.32,7.7.27-6.11,1.62-7.96,7.04-9.83-5.72-.41-7.5-1.85-9.32-7.7-.27,6.12-1.62,7.96-7.04,9.83Z"/><path d="M179.59,25.29c-8.6,2.52-9.46,3.76-9.45,13.59-2.51-9.5-3.66-10.49-12.62-10.72,8.6-2.52,9.46-3.76,9.45-13.59,2.51,9.5,3.66,10.49,12.62,10.72Z" fill="#f8d614"/><path d="M170.64,42.76l-.99-3.74c-2.44-9.25-3.46-10.12-12.15-10.35l-3.19-.08,3.06-.9c8.34-2.44,9.1-3.55,9.09-13.11v-3.87s.98,3.74.98,3.74c2.44,9.25,3.46,10.12,12.15,10.35l3.19.08-3.06.9c-8.34,2.44-9.1,3.55-9.09,13.11v3.87ZM160.37,27.79c5.72.41,7.5,1.85,9.32,7.7.27-6.11,1.62-7.96,7.04-9.83-5.72-.41-7.49-1.85-9.32-7.7-.27,6.12-1.62,7.96-7.04,9.83Z"/><path d="M394.78,213.4c-8.6,2.52-9.46,3.76-9.45,13.59-2.51-9.5-3.66-10.49-12.62-10.72,8.6-2.52,9.46-3.76,9.45-13.59,2.51,9.5,3.66,10.49,12.62,10.72Z" fill="#f8d614"/><path d="M385.83,230.87l-.99-3.75c-2.44-9.25-3.46-10.12-12.15-10.35l-3.19-.08,3.06-.9c8.34-2.44,9.1-3.55,9.09-13.11v-3.87s.98,3.74.98,3.74c2.44,9.25,3.46,10.12,12.15,10.35l3.19.08-3.06.9c-8.34,2.44-9.1,3.55-9.09,13.11v3.87ZM375.56,215.9c5.72.41,7.5,1.85,9.32,7.69.27-6.11,1.62-7.96,7.04-9.82-5.72-.41-7.49-1.85-9.32-7.7-.27,6.12-1.62,7.96-7.04,9.83Z"/><path d="M93.6,68.44c-8.6,2.52-9.46,3.76-9.45,13.59-2.51-9.5-3.66-10.49-12.62-10.72,8.6-2.52,9.46-3.76,9.45-13.59,2.51,9.5,3.66,10.49,12.62,10.72Z" fill="#f8d614"/><path d="M84.65,85.91l-.99-3.74c-2.44-9.25-3.46-10.12-12.15-10.35l-3.19-.08,3.06-.9c8.34-2.44,9.1-3.55,9.09-13.11v-3.87s.98,3.74.98,3.74c2.44,9.25,3.46,10.12,12.15,10.35l3.19.08-3.06.9c-8.34,2.44-9.1,3.55-9.09,13.11v3.87ZM74.38,70.94c5.72.41,7.49,1.85,9.32,7.7.27-6.11,1.62-7.96,7.04-9.83-5.72-.41-7.49-1.85-9.32-7.7-.27,6.12-1.62,7.96-7.04,9.83Z"/><path d="M298.8,30.15c-11.1-.69-12.64.4-16.77,11.87,1.09-12.15.15-13.79-10.2-17.84,11.1.69,12.64-.4,16.77-11.87-1.09,12.15-.15,13.79,10.2,17.84Z" fill="#f8d614"/><path d="M281.19,45.84l.34-3.86c1.07-11.91.23-13.37-9.89-17.33l-2.97-1.16,3.18.2c10.85.67,12.22-.3,16.27-11.55l1.31-3.64-.34,3.86c-1.07,11.91-.23,13.37,9.89,17.33l2.97,1.16-3.18-.2c-10.85-.68-12.22.3-16.27,11.55l-1.31,3.64ZM274.71,24.82c7.11,3.07,8.54,5.46,8.08,13.76,3.08-7.73,5.38-9.29,13.13-9.07-7.11-3.07-8.54-5.46-8.08-13.76-3.08,7.73-5.39,9.29-13.13,9.07Z"/><path d="M44.58,24.05c-15.77,5.99-17.21,8.46-15.75,26.91-6.1-17.47-8.42-19.15-25.27-18.27,15.77-5.99,17.21-8.46,15.75-26.91,6.1,17.47,8.42,19.15,25.27,18.27Z" fill="#f8d614"/><path d="M29.64,54.78l-1.28-3.65c-6.04-17.3-8.13-18.81-24.77-17.94l-3.19.17,2.98-1.13c15.58-5.92,16.88-8.14,15.43-26.4l-.31-3.86,1.28,3.65c6.04,17.3,8.12,18.81,24.77,17.94l3.19-.17-2.98,1.13c-15.58,5.92-16.88,8.14-15.43,26.4l.31,3.86ZM9.45,32.01c10.98,0,13.99,2.81,18.62,15.35-.89-14.45,1.08-17.69,13.51-22.67-13.38.45-16.49-1.72-21.5-15.3.89,14.45-1.08,17.69-13.51,22.67,1.02-.03,1.98-.05,2.88-.05Z"/><path d="M507.36,161.66c-17.08,2.75-19.04,4.93-21.39,23.78-2.51-18.82-4.5-20.98-21.6-23.59,17.08-2.75,19.04-4.93,21.39-23.78,2.52,18.82,4.5,20.98,21.6,23.59Z" fill="#f8d614"/><path d="M485.98,189.34l-.51-3.84c-2.49-18.64-4.27-20.58-21.18-23.16l-3.15-.48,3.15-.51c16.89-2.72,18.65-4.69,20.98-23.34l.48-3.84.51,3.84c2.49,18.64,4.27,20.58,21.18,23.16l3.15.48-3.15.51c-16.89,2.72-18.65,4.69-20.98,23.34l-.48,3.84ZM467.43,161.83c13.62,2.32,16.28,5.14,18.51,19.91,2.1-14.79,4.74-17.63,18.34-20.07-13.62-2.32-16.28-5.14-18.51-19.91-2.1,14.79-4.74,17.63-18.34,20.07Z"/><rect x="420.52" y="177.41" width="45.32" height="1" transform="translate(-34.37 179.23) rotate(-22.03)"/><rect x="429.27" y="192.42" width="44.77" height="1" transform="translate(-37.35 238.63) rotate(-28.47)"/><path d="M9.63,106.64c0,2.4-1.94,4.34-4.34,4.34s-4.34-1.94-4.34-4.34,1.94-4.34,4.34-4.34,4.34,1.94,4.34,4.34Z" fill="#f8d614"/><path d="M5.28,111.48c-2.67,0-4.84-2.17-4.84-4.84s2.17-4.84,4.84-4.84,4.84,2.17,4.84,4.84-2.17,4.84-4.84,4.84ZM5.28,102.8c-2.12,0-3.84,1.72-3.84,3.84s1.72,3.84,3.84,3.84,3.84-1.72,3.84-3.84-1.72-3.84-3.84-3.84Z"/><circle cx="101.37" cy="3.88" r="3.38" transform="translate(-.07 2.8) rotate(-1.58)" fill="#f8d614"/><path d="M101.37,7.76c-2.14,0-3.88-1.74-3.88-3.88s1.74-3.88,3.88-3.88,3.88,1.74,3.88,3.88-1.74,3.88-3.88,3.88ZM101.37,1c-1.59,0-2.88,1.29-2.88,2.88s1.29,2.88,2.88,2.88,2.88-1.29,2.88-2.88-1.29-2.88-2.88-2.88Z"/><path d="M234.52,52.45c0,1.87-1.51,3.38-3.38,3.38s-3.38-1.51-3.38-3.38,1.51-3.38,3.38-3.38,3.38,1.51,3.38,3.38Z" fill="#f8d614"/><path d="M231.14,56.33c-2.14,0-3.88-1.74-3.88-3.88s1.74-3.88,3.88-3.88,3.88,1.74,3.88,3.88-1.74,3.88-3.88,3.88ZM231.14,49.57c-1.59,0-2.88,1.29-2.88,2.88s1.29,2.88,2.88,2.88,2.88-1.29,2.88-2.88-1.29-2.88-2.88-2.88Z"/><path d="M484.93,88.57c0,1.87-1.51,3.38-3.38,3.38s-3.38-1.51-3.38-3.38,1.51-3.38,3.38-3.38,3.38,1.51,3.38,3.38Z" fill="#f8d614"/><path d="M481.55,92.45c-2.14,0-3.88-1.74-3.88-3.88s1.74-3.88,3.88-3.88,3.88,1.74,3.88,3.88-1.74,3.88-3.88,3.88ZM481.55,85.69c-1.59,0-2.88,1.29-2.88,2.88s1.29,2.88,2.88,2.88,2.88-1.29,2.88-2.88-1.29-2.88-2.88-2.88Z"/><path d="M470.48,233.27c0,1.87-1.51,3.38-3.38,3.38s-3.38-1.51-3.38-3.38,1.51-3.38,3.38-3.38,3.38,1.51,3.38,3.38Z" fill="#f8d614"/><path d="M467.1,237.15c-2.14,0-3.88-1.74-3.88-3.88s1.74-3.88,3.88-3.88,3.88,1.74,3.88,3.88-1.74,3.88-3.88,3.88ZM467.1,230.39c-1.59,0-2.88,1.29-2.88,2.88s1.29,2.88,2.88,2.88,2.88-1.29,2.88-2.88-1.29-2.88-2.88-2.88Z"/><path d="M225.78,462.9s-12.99-14.62,17.13-10.64c32.3,4.27,9.85,14.46,9.85,14.46l4.39,3.5s39.04-21.77,47.68,7.4-29.48,27.88-52.45,24.66c-22.97-3.23-48.39-1.92-26.59-39.38Z" fill="#eb551b"/><path d="M273.56,504.42c-7.15,0-14.57-.71-21.26-1.65-2.25-.32-4.55-.59-6.77-.86-12.08-1.45-23.49-2.82-27.28-10.41-2.99-6-.73-15.34,6.91-28.55-.89-1.09-3.85-5.11-2.18-8.26,1.83-3.45,8.56-4.44,19.98-2.93,11.5,1.52,17.34,3.91,17.84,7.32.52,3.51-5.08,6.7-7.13,7.74l3.51,2.8c1.24-.66,6.22-3.22,12.49-5.19,6.71-2.11,16.31-3.96,24-.83,5.66,2.31,9.57,6.98,11.61,13.87,2.27,7.68,1.48,13.83-2.36,18.29-5.66,6.57-17.13,8.66-29.39,8.66ZM233.84,452.08c-6.67,0-9.15,1.55-9.96,3.09-1.59,3,2.24,7.36,2.28,7.4l.24.27-.18.31c-7.6,13.06-9.91,22.19-7.06,27.91,3.54,7.11,14.69,8.45,26.5,9.86,2.23.27,4.53.54,6.79.86,14.66,2.06,40.61,3.93,49.75-6.67,3.6-4.18,4.33-10.02,2.15-17.35-1.95-6.59-5.66-11.04-11.03-13.23-14.23-5.8-35.71,6.01-35.92,6.13l-.29.16-5.29-4.22.74-.34c2.17-.99,7.7-4.17,7.28-7.04-.29-1.97-3.48-4.69-16.98-6.47-3.63-.48-6.59-.68-9-.68Z"/><path d="M225.78,462.9s4.63,3.43,12.77,3.98"/><path d="M238.51,467.38c-8.19-.56-12.84-3.94-13.03-4.08l.59-.8s4.63,3.35,12.51,3.89l-.07,1Z"/><path d="M247.22,467.46s1.75.45,5.53-.73"/><path d="M248.23,468.04c-.73,0-1.1-.09-1.13-.1l.25-.97s1.71.39,5.26-.72l.3.95c-2.19.69-3.73.84-4.68.84Z"/><path d="M257.17,470.27c-.81.97-1.7,1.79-2.64,2.57-.93.79-1.91,1.49-2.9,2.17-1.01.66-2.03,1.3-3.11,1.86-1.07.57-2.18,1.09-3.38,1.47l-.06-.08,5.99-4.08,6.04-4,.06.08Z"/><path d="M257.19,470.24c.11,1.06.06,2.07-.05,3.08-.1,1.01-.3,1.99-.52,2.96-.25.97-.52,1.94-.88,2.88-.35.94-.77,1.88-1.34,2.77l-.1-.02,1.35-5.85,1.45-5.83.1.02Z"/><path d="M289.21,467.76c1.15.36,2.21.93,3.25,1.56.52.31.98.71,1.48,1.06.47.38.92.79,1.39,1.19,1.77,1.69,3.12,3.84,4,6.16.24.58.36,1.19.49,1.79.12.61.3,1.21.31,1.83l.14,1.84c-.01.61-.08,1.23-.15,1.83l-.1.91-.21.89-.43,1.76c-.17.58-.45,1.12-.67,1.67-.23.55-.48,1.1-.74,1.63l-.09-.03c.33-1.13.72-2.24.99-3.39l.3-1.74.14-.87.03-.88.06-1.76-.18-1.75c-.02-.59-.21-1.15-.34-1.72-.14-.57-.26-1.14-.5-1.68-.77-2.21-2.03-4.25-3.63-5.97-1.61-1.71-3.49-3.18-5.58-4.25l.04-.09Z" fill="#fff"/><path d="M248.28,345.51l-22.91,1.98c10.66,10.27,15.82,28.59,17.57,41.7,1.94,14.48.92,29.49-2.89,43.59-1.25,4.62-3.05,9.07-4.97,13.45-1.81,4.14-4.96,11.26.18,14.35,2.88,1.73,5.85,1.65,8.62.51,5.35-2.2,9.94-8.33,11.65-12.93,2.65-7.1,4.57-14.46,5.85-21.92,2.51-14.65,2.62-29.82-.09-44.45-2.12-11.48-6.25-24.95-13.01-36.27Z"/><path d="M239.92,462.42c-1.71,0-3.36-.47-4.93-1.42-5.49-3.31-2.18-10.87-.4-14.93,1.73-3.96,3.66-8.61,4.97-13.42,3.8-14.05,4.8-29.05,2.88-43.39-.89-6.63-4.76-29.2-17.42-41.4l-.79-.76,24.32-2.1.16.27c5.92,9.91,10.56,22.85,13.08,36.44,2.66,14.4,2.69,29.41.09,44.63-1.32,7.68-3.29,15.09-5.87,22.01-1.82,4.88-6.5,10.98-11.93,13.22-1.42.58-2.8.87-4.14.87ZM226.48,347.89c12.28,12.58,16.07,34.65,16.95,41.23,1.93,14.47.93,29.62-2.91,43.79-1.32,4.87-3.27,9.57-5,13.52-1.79,4.09-4.76,10.86-.02,13.72,2.51,1.51,5.26,1.67,8.18.48,5.11-2.1,9.68-8.08,11.38-12.64,2.56-6.86,4.52-14.21,5.83-21.83,2.59-15.1,2.56-29.99-.08-44.28-2.47-13.35-7.01-26.07-12.79-35.84l-21.52,1.86Z"/><path d="M110.96,470.32s-12.98-14.63,17.14-10.62c32.29,4.3,9.84,14.47,9.84,14.47l4.39,3.5s39.06-21.73,47.67,7.44c8.61,29.17-29.51,27.85-52.48,24.6-22.97-3.25-48.39-1.97-26.55-39.4Z" fill="#eb551b"/><path d="M158.81,511.89c-7.18,0-14.64-.72-21.36-1.67-2.25-.32-4.55-.6-6.77-.86-12.08-1.46-23.49-2.84-27.26-10.44-2.98-6-.71-15.34,6.94-28.55-.89-1.09-3.84-5.11-2.17-8.26,1.84-3.45,8.56-4.43,19.98-2.91,11.5,1.53,17.33,3.93,17.84,7.33.52,3.51-5.08,6.69-7.13,7.74l3.51,2.8c1.24-.66,6.22-3.21,12.5-5.18,6.71-2.1,16.31-3.95,24-.8,5.66,2.31,9.56,6.99,11.6,13.89,2.27,7.68,1.47,13.83-2.37,18.28-5.66,6.55-17.07,8.63-29.29,8.63ZM118.99,459.5c-6.64,0-9.11,1.54-9.92,3.08-1.59,2.99,2.23,7.36,2.27,7.41l.24.27-.18.31c-7.61,13.05-9.93,22.18-7.09,27.9,3.53,7.11,14.68,8.46,26.49,9.89,2.23.27,4.53.55,6.79.87,14.66,2.07,40.61,3.97,49.75-6.62,3.61-4.18,4.34-10.01,2.17-17.35-1.95-6.59-5.65-11.05-11.02-13.24-14.23-5.82-35.71,5.97-35.93,6.09l-.29.16-5.28-4.22.74-.34c2.17-.98,7.71-4.16,7.28-7.03-.29-1.97-3.47-4.69-16.98-6.49-3.65-.49-6.63-.69-9.05-.69Z"/><path d="M110.96,470.32s4.63,3.43,12.76,4"/><path d="M123.7,474.81c-8.19-.57-12.83-3.95-13.03-4.09l.6-.8s4.62,3.35,12.5,3.9l-.07,1Z"/><path d="M132.41,474.9s1.75.45,5.54-.73"/><path d="M133.42,475.48c-.73,0-1.11-.09-1.14-.1l.25-.97s1.71.39,5.26-.72l.3.96c-2.18.68-3.73.83-4.67.83Z"/><path d="M142.35,477.72c-.81.97-1.71,1.79-2.64,2.57-.93.78-1.91,1.49-2.91,2.17-1.01.66-2.04,1.3-3.11,1.86-1.07.57-2.18,1.09-3.38,1.47l-.06-.08,5.99-4.08,6.05-3.99.06.08Z"/><path d="M142.38,477.69c.11,1.06.06,2.07-.06,3.08-.1,1.01-.3,1.99-.52,2.96-.25.97-.52,1.93-.89,2.88-.36.94-.77,1.87-1.35,2.77l-.1-.02,1.36-5.85,1.45-5.83.1.02Z"/><path d="M174.39,475.24c1.15.36,2.21.93,3.25,1.56.52.31.98.71,1.47,1.06.47.38.92.79,1.38,1.2,1.77,1.69,3.12,3.85,4,6.17.24.58.36,1.19.49,1.79.12.61.3,1.21.31,1.83l.14,1.84c-.01.61-.08,1.23-.15,1.83l-.1.91-.21.89-.43,1.76c-.17.58-.46,1.12-.68,1.67-.23.55-.48,1.1-.74,1.63l-.09-.03c.33-1.13.72-2.24.99-3.39l.3-1.74.15-.87.03-.88.06-1.76-.18-1.75c-.02-.59-.2-1.15-.34-1.72-.13-.57-.26-1.14-.5-1.68-.77-2.21-2.03-4.25-3.63-5.97-1.6-1.71-3.49-3.18-5.58-4.26l.04-.09Z" fill="#fff"/><path d="M125.26,440.2c3.83-14.1,4.86-29.1,2.94-43.59-1.56-11.79-5.87-27.79-14.45-38.38,2.44.12,4.89.24,7.35.42,5.51.4,10.83.98,16.2,1.17,4.59,9.66,7.57,20.18,9.26,29.41,2.69,14.63,2.56,29.81.04,44.45-1.29,7.46-3.22,14.82-5.87,21.91-1.72,4.6-6.32,10.72-11.67,12.92-2.77,1.14-5.75,1.22-8.62-.52-5.13-3.1-1.98-10.21-.17-14.35,1.93-4.38,3.73-8.82,4.99-13.45Z"/><path d="M125.12,469.85c-1.72,0-3.37-.47-4.94-1.42-5.49-3.31-2.17-10.87-.38-14.93,1.74-3.96,3.67-8.61,4.98-13.42h0c3.82-14.04,4.83-29.05,2.93-43.39-.97-7.35-4.32-25.77-14.35-38.13l-.71-.87,2.1.11c2.09.11,4.25.22,6.38.37,1.87.13,3.72.29,5.55.45,3.65.31,7.09.6,10.63.73h.3s.13.28.13.28c5.22,10.97,7.94,22.11,9.3,29.53,2.65,14.4,2.66,29.42.04,44.63-1.32,7.68-3.31,15.09-5.9,22-1.82,4.88-6.51,10.98-11.95,13.21-1.41.58-2.79.87-4.13.87ZM114.82,358.79c9.65,12.54,12.91,30.5,13.87,37.76,1.92,14.48.9,29.62-2.95,43.79h0c-1.33,4.88-3.28,9.57-5.01,13.52-1.8,4.09-4.77,10.86-.03,13.72,2.51,1.52,5.26,1.68,8.18.48,5.11-2.1,9.68-8.07,11.39-12.63,2.57-6.86,4.53-14.2,5.85-21.82,2.6-15.09,2.59-29.99-.04-44.28-1.34-7.3-4.01-18.23-9.09-29.01-3.46-.13-6.82-.42-10.38-.72-1.83-.15-3.68-.31-5.54-.44-2.09-.15-4.17-.26-6.24-.36Z"/><path d="M310.57,284.93c-.42,1.07-.84,2.15-1.29,3.21-18.76,45.14-55.75,77.2-98.88,91.18-35.06,11.34-74.23,10.73-110.92-4.51-3.52-1.46-6.92-3.02-10.24-4.69C30.82,340.97-2.83,279.99.77,217.32c.95-16.5,4.48-33.13,10.85-49.32v-.02c.39-1.01.78-1.99,1.2-2.96,20.22-48.66,61.6-82.1,109.04-94.07,5.31-1.37,10.68-2.43,16.12-3.22,3.18-.45,6.36-.83,9.56-1.08,11.24-.98,22.66-.77,34.08.71,13.78,1.77,27.58,5.39,41,10.99,1.89.78,3.74,1.6,5.56,2.45,9.18,4.2,17.77,9.17,25.73,14.82,2.4,1.71,4.75,3.46,7.05,5.29,3.91,3.09,7.68,6.38,11.21,9.8,28.3,27.13,45.64,63.78,48.87,102.54,1.99,23.67-1.26,48.12-10.46,71.68Z" fill="#6688d4"/><path d="M161.1,387.6c-21.05,0-42.07-4.12-61.8-12.32-3.47-1.44-6.93-3.03-10.27-4.7C31.41,341.83-3.43,281.66.27,217.29c.97-16.93,4.63-33.57,10.88-49.47.38-1.02.78-2,1.21-3,9.92-23.87,24.87-44.38,44.45-60.98,18.68-15.83,41.13-27.37,64.93-33.37,5.2-1.34,10.64-2.43,16.17-3.23,3.49-.5,6.63-.85,9.59-1.08,11.34-.99,22.84-.75,34.18.71,14.07,1.8,27.91,5.51,41.13,11.02,1.89.78,3.76,1.61,5.58,2.46,9.04,4.13,17.73,9.13,25.81,14.86,2.61,1.86,4.93,3.59,7.07,5.31,3.98,3.14,7.76,6.45,11.25,9.83,28.35,27.18,45.76,63.71,49.02,102.86,2.07,24.58-1.46,48.77-10.49,71.9h0s-.47-.18-.47-.18l.46.21c-.42,1.07-.84,2.14-1.28,3.2-18.1,43.56-54.25,76.9-99.18,91.47-16.08,5.2-32.79,7.79-49.47,7.79ZM161.27,66.56c-4.58,0-9.15.2-13.69.6-2.95.23-6.06.58-9.53,1.08-5.49.79-10.9,1.87-16.07,3.2-23.65,5.97-45.97,17.43-64.53,33.17-19.45,16.49-34.32,36.88-44.17,60.61-.43,1-.82,1.96-1.19,2.95-6.22,15.83-9.86,32.37-10.82,49.19-3.67,63.97,30.95,123.76,88.21,152.33,3.32,1.67,6.76,3.24,10.21,4.67,35.14,14.6,74.41,16.2,110.58,4.5,44.65-14.47,80.58-47.6,98.57-90.9.44-1.06.86-2.12,1.27-3.18l.47.16-.47-.18c8.97-22.98,12.48-47.02,10.43-71.45-3.24-38.9-20.55-75.21-48.72-102.22-3.46-3.36-7.22-6.65-11.17-9.77-2.13-1.7-4.43-3.43-7.03-5.27-8.03-5.69-16.66-10.66-25.65-14.77-1.8-.85-3.67-1.68-5.54-2.45-13.14-5.48-26.89-9.16-40.87-10.95-6.72-.87-13.51-1.3-20.28-1.3Z"/><path d="M198.86,142.55c-7.08,0-14.27-1.36-21.19-4.24-13.5-5.59-24.09-16.11-29.83-29.63-5.72-13.48-6-28.47-.77-42.2l.11-.29.31-.03c11.35-.99,22.85-.75,34.19.71,14.07,1.8,27.91,5.51,41.13,11.02,1.89.78,3.76,1.61,5.58,2.46,9.04,4.13,17.73,9.13,25.81,14.86l.26.18-.05.31c-.69,4.06-1.87,8.09-3.49,11.96-9.03,21.72-30.04,34.88-52.04,34.88ZM147.89,67.13c-5.02,13.41-4.72,28.02.87,41.16,5.63,13.27,16.04,23.6,29.29,29.09,27.93,11.61,60.2-1.9,71.93-30.1h0c1.56-3.71,2.69-7.55,3.38-11.43-7.95-5.62-16.5-10.52-25.39-14.59-1.8-.85-3.67-1.68-5.54-2.45-13.14-5.48-26.89-9.16-40.87-10.95-11.16-1.44-22.49-1.69-33.66-.73Z"/><path d="M161.08,387.6c-21.05,0-42.06-4.12-61.79-12.32-3.59-1.49-7.04-3.08-10.26-4.71l-.22-.11-.05-.24c-2.29-12.23-.95-24.82,3.85-36.4,6.56-15.79,18.82-28.1,34.52-34.67,15.7-6.57,32.96-6.62,48.6-.12,31.28,12.99,46.72,48.34,35.15,80.46l-.08.23-.23.08c-16.09,5.21-32.8,7.8-49.48,7.8ZM89.69,369.79c3.13,1.58,6.49,3.12,9.97,4.57,35.08,14.57,74.25,16.19,110.35,4.56,11.23-31.56-3.96-66.21-34.68-78.97-15.39-6.39-32.38-6.35-47.83.12-15.46,6.47-27.52,18.59-33.98,34.14-4.7,11.32-6.03,23.62-3.84,35.59Z"/><path d="M288.32,289.3c-5.62,0-11.26-1.13-16.57-3.42-10.37-4.46-18.36-12.73-22.5-23.28-4.14-10.55-3.95-22.12.56-32.59,4.5-10.46,12.77-18.56,23.28-22.8,10.51-4.25,22.02-4.13,32.38.34,6.24,2.68,11.56,6.69,15.83,11.92l.1.12v.16c1.54,21.46-1.81,42.5-9.93,62.53l-.06.15-.13.09c-6.97,4.49-14.95,6.78-22.96,6.78ZM288.9,205.11c-5.22,0-10.44,1.01-15.44,3.03-10.27,4.14-18.34,12.05-22.74,22.27-4.4,10.22-4.59,21.52-.55,31.83,4.05,10.3,11.85,18.37,21.97,22.73,12.52,5.39,26.89,4.19,38.46-3.2,8-19.8,11.31-40.58,9.83-61.78-4.15-5.04-9.32-8.92-15.35-11.51-5.19-2.24-10.68-3.35-16.17-3.35Z"/><path d="M56.38,285.48c-1.35,0-2.7-.27-3.98-.8-2.56-1.06-4.55-3.06-5.61-5.62-1.06-2.56-1.06-5.38,0-7.94s3.06-4.55,5.62-5.61c2.56-1.06,5.38-1.05,7.94,0,2.56,1.06,4.55,3.06,5.61,5.62,1.06,2.56,1.05,5.38,0,7.94-1.06,2.56-3.06,4.55-5.62,5.61-1.28.53-2.62.79-3.96.79ZM56.39,265.73c-3.68,0-7.17,2.18-8.67,5.78-.96,2.31-.96,4.86,0,7.17.96,2.31,2.76,4.12,5.07,5.08,2.31.96,4.86.96,7.17,0,2.31-.96,4.12-2.76,5.08-5.07,1.98-4.77-.29-10.27-5.06-12.25-1.17-.49-2.39-.72-3.58-.72Z"/><path d="M253.79,333.39c-2.29,0-4.62-.44-6.86-1.37-4.43-1.84-7.88-5.3-9.71-9.73-1.83-4.43-1.83-9.31.01-13.75,3.8-9.14,14.33-13.49,23.47-9.7,9.14,3.8,13.49,14.33,9.7,23.47h0c-2.87,6.9-9.57,11.07-16.61,11.07ZM253.84,298.47c-6.65,0-12.98,3.94-15.68,10.45-1.74,4.18-1.74,8.79-.01,12.98,1.73,4.19,4.99,7.45,9.17,9.19,8.63,3.59,18.58-.52,22.17-9.16h0c3.59-8.64-.52-18.58-9.16-22.17-2.12-.88-4.32-1.3-6.48-1.3Z"/><path d="M74.81,138.46c-2.33,0-4.67-.46-6.89-1.38-4.43-1.84-7.88-5.29-9.71-9.73-1.83-4.43-1.83-9.31.01-13.74,3.8-9.14,14.33-13.49,23.47-9.7,9.14,3.8,13.49,14.33,9.7,23.47h0c-1.84,4.43-5.29,7.88-9.73,9.71-2.21.91-4.53,1.37-6.86,1.37ZM74.83,103.53c-6.65,0-12.98,3.94-15.68,10.45-3.59,8.64.52,18.58,9.16,22.17,4.18,1.74,8.79,1.74,12.98.01,4.19-1.73,7.45-4.99,9.19-9.17h0c3.59-8.64-.52-18.58-9.16-22.17-2.12-.88-4.32-1.3-6.48-1.3Z"/><path d="M28.17,227.93c-3.98,0-8.01-.76-11.89-2.38-6.57-2.73-12.05-7.69-15.44-13.96l-.07-.12v-.14c.8-13.75,3.77-27.24,8.83-40.09l.05-.13.12-.1c8.86-6.62,20.66-8.12,30.79-3.91,15.97,6.63,23.52,25.14,16.83,41.25-5.07,12.2-16.86,19.59-29.21,19.59ZM1.78,211.25c3.28,6.01,8.56,10.76,14.87,13.39,15.46,6.42,33.32-1.05,39.8-16.67,6.48-15.6-.82-33.52-16.29-39.95-9.76-4.06-21.12-2.63-29.69,3.71-4.98,12.69-7.9,25.98-8.7,39.52Z"/><path d="M221.89,198.06c-.89,0-1.77-.17-2.62-.52-3.47-1.44-5.12-5.44-3.68-8.91.7-1.68,2.01-2.99,3.69-3.69,1.68-.7,3.54-.69,5.22,0,1.68.7,2.99,2.01,3.69,3.69s.69,3.54,0,5.22c-.7,1.68-2.01,2.99-3.69,3.69-.84.35-1.72.52-2.6.52ZM221.89,185.41c-.75,0-1.5.15-2.22.44-1.44.59-2.56,1.71-3.15,3.15-1.23,2.96.18,6.37,3.14,7.61,1.44.6,3.02.6,4.45,0,1.44-.59,2.56-1.71,3.15-3.15h0c1.23-2.96-.18-6.37-3.14-7.6-.72-.3-1.48-.45-2.23-.45Z"/><path d="M74.28,180.28c1.74-7.72,7.69-29.61,26.21-39.52,16.89-9.04,34.68-3.01,41.62-.17" fill="#6688d4"/><path d="M74.77,180.39l-.98-.22c2.46-10.91,9.17-30.6,26.46-39.85,16.01-8.57,33.22-3.8,42.05-.2l-.38.93c-8.67-3.54-25.55-8.22-41.2.15-16.94,9.07-23.53,28.45-25.96,39.19Z"/><path d="M74.08,180.21c.4-8.53,2.69-16.93,6.6-24.4,1.89-3.8,4.39-7.18,7.16-10.29,2.83-3.03,6.02-5.69,9.52-7.74l1.32-.76c.45-.24.91-.43,1.36-.65l1.37-.63c.46-.21.91-.43,1.38-.58l2.82-1.01c.95-.28,1.92-.53,2.88-.74.24-.05.48-.12.72-.16l.73-.11,1.46-.22c.97-.17,1.95-.23,2.93-.3l1.47-.11c.49,0,.98-.02,1.47,0,.98.02,1.96.04,2.93.15.97.1,1.95.15,2.91.32.96.15,1.93.26,2.88.52.95.23,1.9.43,2.84.72.94.28,1.88.52,2.79.87,3.68,1.34,7.24,3.01,10.53,5.27l-.13.44c-3.51-1.39-7.11-2.48-10.74-3.23-3.63-.77-7.31-1.2-10.97-1.19-7.31,0-14.62,1.73-20.97,5.58-3.23,1.8-6.17,4.2-8.85,6.9-1.37,1.32-2.58,2.83-3.8,4.32l-1.72,2.36c-.56.8-1.06,1.65-1.6,2.47-2.06,3.35-3.81,6.95-5.28,10.7-1.5,3.74-2.7,7.64-3.64,11.63l-.4-.13Z"/><path d="M91.8,205.05l-.53-.85c12.79-7.99,26.68-13.9,41.3-17.56,14.29-3.58,29-4.94,43.71-4.05l-.06,1c-14.61-.89-29.21.47-43.4,4.02-14.52,3.64-28.31,9.5-41.01,17.44Z"/><path d="M114.65,229l-.74-.67c8.63-9.6,18.57-17.91,29.54-24.68,10.27-6.34,21.35-11.27,32.93-14.67l.28.96c-11.5,3.37-22.5,8.27-32.69,14.56-10.89,6.72-20.76,14.96-29.32,24.5Z"/><path d="M199.82,231.68c-12.67,3.18-22.94-1.01-34.62,1.76-6.56,1.55-12.61,4.36-11.27,11.68,2.44,13.41,14.54,20.35,28.08,23.32,17.49,3.83,36.57.7,50.31-10.41,16.61-13.44,21.9-29.08,17.7-36.4-3.72-6.49-9.24-6.7-15.77-5.04-11.63,2.95-22.83,12.19-34.42,15.1Z" fill="#fff"/><path d="M196.36,270.5c-4.77,0-9.63-.52-14.46-1.58-20.78-4.56-26.95-15.41-28.47-23.72-1.49-8.16,5.94-10.9,11.65-12.25,5.72-1.36,10.98-1.07,16.54-.77,5.71.31,11.61.63,18.07-.99l.12.48-.12-.48c5.74-1.44,11.52-4.52,17.11-7.5,5.63-3,11.45-6.11,17.31-7.59,5.74-1.46,12.16-1.97,16.33,5.28,4.36,7.59-1.11,23.52-17.82,37.04-9.75,7.89-22.67,12.09-36.26,12.09ZM174.71,232.94c-3.09,0-6.18.23-9.39.99-8.57,2.03-11.93,5.45-10.9,11.1,2.65,14.51,16.52,20.47,27.7,22.92,18.3,4.01,36.94.16,49.88-10.31,16.29-13.18,21.73-28.53,17.58-35.76-3.82-6.65-9.57-6.24-15.21-4.81-5.75,1.46-11.51,4.53-17.09,7.51-5.64,3.01-11.47,6.12-17.34,7.59h0c-6.61,1.66-12.59,1.33-18.37,1.02-2.32-.13-4.59-.25-6.86-.25Z"/><path d="M239.61,251.72l-1-.06c.8-13.79-5.11-25.74-10.2-33.34l.83-.56c5.18,7.72,11.18,19.88,10.36,33.95Z"/><path d="M216.98,266.15l-1-.03c.18-6.7-.6-13.39-2.32-19.87-1.52-5.74-3.78-11.3-6.7-16.53l.87-.49c2.97,5.3,5.25,10.94,6.79,16.76,1.74,6.58,2.53,13.36,2.35,20.15Z"/><path d="M188.36,269.34l-1-.08c.29-3.6.57-10.77-.86-18.29-1.2-6.31-3.33-12.43-6.31-18.19l.89-.46c3.03,5.84,5.19,12.05,6.41,18.46,1.45,7.64,1.17,14.9.87,18.56Z"/><path d="M220.05,202.78c1.29,5.69-3.51,11.63-10.72,13.26-7.21,1.63-14.09-1.67-15.38-7.36-1.29-5.69,3.51-11.63,10.72-13.26,7.21-1.63,14.09,1.67,15.38,7.36Z" fill="#f8d614"/><path d="M205.63,216.96c-2.29,0-4.49-.47-6.43-1.4-3.04-1.46-5.08-3.86-5.74-6.77-.66-2.91.15-5.95,2.27-8.58,2.09-2.59,5.23-4.47,8.82-5.28,7.46-1.69,14.63,1.79,15.98,7.74h0c1.35,5.96-3.63,12.17-11.1,13.86-1.27.29-2.55.43-3.81.43ZM208.35,195.5c-1.16,0-2.36.13-3.57.4-3.38.76-6.31,2.51-8.27,4.93-1.93,2.38-2.66,5.13-2.08,7.73.59,2.6,2.43,4.76,5.2,6.09,2.8,1.34,6.21,1.66,9.58.9,6.93-1.56,11.56-7.24,10.34-12.66-1.01-4.47-5.71-7.39-11.21-7.39Z"/><path d="M203.81,202.61c.31,1.38-.52,2.74-1.87,3.04s-2.68-.57-2.99-1.94c-.31-1.38.52-2.74,1.87-3.04,1.34-.3,2.68.57,2.99,1.94Z" fill="#fdf5c4"/><polygon points="422.71 511.33 413.72 511.33 338.17 166.38 346.75 164.5 422.71 511.33" fill="#5e4fa0"/><path d="M423.33,511.83h-10.01l-.09-.39-75.66-345.44,9.56-2.09.11.49,76.09,347.44ZM414.12,510.83h7.97l-75.72-345.73-7.6,1.67,75.36,344.07Z"/><polygon points="318.61 167.36 271.53 511.33 262.66 511.33 309.9 166.17 318.61 167.36" fill="#5e4fa0"/><path d="M271.96,511.83h-9.88l.08-.57,47.31-345.66,9.7,1.33-.07.5-47.14,344.4ZM263.23,510.83h7.86l46.95-343.04-7.72-1.05-47.09,344.1Z"/><path d="M373.64,6.34l-209.79,166.33c-.83,2.78-1.96,8.05-.46,14.33,2.24,9.44,8.9,14.95,11.24,16.71,81.54-16.2,181.02-39.72,262.57-55.91L373.64,6.34Z" fill="#5e4fa0"/><path d="M174.51,204.26l-.18-.14c-3.36-2.54-9.32-8.13-11.43-17-1.13-4.75-.96-9.79.47-14.59l.04-.15.12-.1L373.83,5.55l.26.59,63.82,142.04-.62.12c-40.77,8.1-86.78,18.19-131.28,27.96-44.5,9.76-90.51,19.86-131.29,27.96l-.22.04ZM164.29,172.97c-1.34,4.59-1.49,9.4-.41,13.92,2,8.41,7.6,13.78,10.88,16.3,40.71-8.09,86.63-18.17,131.05-27.91,44.28-9.72,90.06-19.76,130.69-27.84L373.45,7.14l-209.16,165.84Z"/><path d="M450.96,61.43c14.85,40.49,7.81,79.61-15.71,87.38s-54.64-18.76-69.49-59.25c-14.85-40.49-7.81-79.61,15.71-87.38,23.53-7.77,54.64,18.76,69.49,59.25Z" fill="#5e4fa0"/><path d="M426.75,150.64c-22.26,0-48.3-25.02-61.46-60.91-9.65-26.3-10.37-53.54-1.9-71.07,4.15-8.59,10.35-14.45,17.93-16.95,23.75-7.84,55.2,18.87,70.12,59.55,9.65,26.3,10.37,53.54,1.9,71.07-4.15,8.59-10.35,14.45-17.93,16.95-2.79.92-5.69,1.37-8.65,1.37ZM390.02,1.33c-2.88,0-5.69.43-8.39,1.32-7.31,2.42-13.31,8.1-17.34,16.44-8.36,17.3-7.62,44.23,1.94,70.29,14.73,40.17,45.63,66.61,68.86,58.94,7.31-2.42,13.31-8.1,17.34-16.44,8.36-17.3,7.62-44.23-1.94-70.29-13.02-35.49-38.65-60.27-60.47-60.27Z"/><path d="M447.2,61.9c14.01,37.42,8.14,73.33-13.11,80.21s-49.84-17.88-63.85-55.3c-14.01-37.42-8.14-73.33,13.11-80.21,21.25-6.88,49.84,17.88,63.85,55.3Z" fill="#5cd269"/><path d="M426.72,143.75c-20.29,0-44.47-23.4-56.96-56.77-9.23-24.65-10.15-49.92-2.41-65.96,3.66-7.58,9.14-12.73,15.84-14.9,21.48-6.95,50.4,18,64.48,55.6,9.23,24.65,10.15,49.92,2.41,65.96-3.66,7.58-9.14,12.73-15.84,14.9-2.42.78-4.94,1.16-7.52,1.16ZM390.76,5.95c-2.5,0-4.93.37-7.27,1.12-6.44,2.08-11.71,7.06-15.25,14.38-7.63,15.8-6.69,40.77,2.45,65.17,13.9,37.11,42.26,61.79,63.23,55,6.44-2.08,11.71-7.06,15.25-14.38,7.63-15.8,6.69-40.77-2.45-65.18-12.35-32.97-36.11-56.13-55.97-56.13Z"/><path d="M191.19,200.62c-3.46-4.64-6.32-9.6-8.5-14.76-3.24-7.73-5.03-15.9-5.3-24.3l1-.03c.27,8.27,2.03,16.32,5.23,23.94,2.15,5.08,4.97,9.97,8.38,14.54l-.8.6Z"/><path d="M442.28,100.14c0,.09.04.18.02.26.02.07.02.14.03.21.04.26.06.52.09.78-1.13-.11-2.26-.17-3.44-.19-.63-.02-1.28-.04-1.94-.03h-.02c-5.78.06-12.09,1.04-18.48,3.02-2.54.77-4.96,1.68-7.26,2.69-.33.15-.64.27-.95.42-5.66,2.58-10.51,5.77-14.28,9.25-4.43-6.35-8.47-13.93-11.64-22.33-10.81-28.51-7.97-55.83,6.33-61.03,7.93-2.88,17.72,1.67,26.69,11.11,0,0,0,.02.03.02,1.35,1.43,2.69,3.01,3.99,4.68.13.18.27.33.4.51.19.23.38.47.57.7.23.29.47.61.71.92.39.49.76.98,1.11,1.51.5.67.97,1.36,1.44,2.07.49.73.96,1.46,1.41,2.19,1.24,1.95,2.44,4.05,3.59,6.25.38.71.76,1.45,1.12,2.19.04.04.05.08.07.13.5,1.02,1.01,2.05,1.48,3.12.34.73.66,1.48.98,2.23.24.56.47,1.12.71,1.68.07.15.12.28.19.43.34.8.67,1.65.98,2.48,3.24,8.53,5.24,16.97,6.07,24.72Z" fill="#fff"/><path d="M395.96,117.32l-.33-.47c-4.61-6.62-8.66-14.38-11.7-22.44-7.51-19.82-8.72-39.67-3.16-51.81,2.3-5.02,5.6-8.34,9.79-9.87,7.77-2.82,17.61,1.2,27.03,11.03h.01s.21.22.21.22c1.3,1.38,2.66,2.96,4.02,4.72.07.1.13.17.19.25.07.09.15.18.22.28l.55.67c.22.27.44.56.66.85l.06.08c.41.52.78,1.02,1.13,1.53.51.7.99,1.38,1.44,2.07.49.72.97,1.46,1.42,2.21,1.23,1.94,2.45,4.06,3.61,6.28.37.7.75,1.42,1.1,2.15.07.09.09.18.11.23.51,1.03,1,2.02,1.47,3.08.33.72.66,1.48.98,2.24l.71,1.69c.03.06.06.14.1.22.03.06.05.12.08.18.35.83.69,1.68,1,2.52,3.13,8.25,5.24,16.84,6.1,24.84h0s-.5.05-.5.05h.51c0,.06.02.13.02.22.02.08.02.16.02.22.04.22.06.49.09.76l.05.6-.6-.06c-1.09-.11-2.2-.17-3.4-.19-.61-.02-1.22-.04-1.85-.03h-.1c-5.86.06-12.2,1.1-18.34,3-2.45.75-4.88,1.65-7.21,2.67-.15.07-.31.14-.46.2-.16.07-.32.14-.47.21-5.47,2.5-10.36,5.66-14.15,9.16l-.42.39ZM395.71,32.85c-1.68,0-3.28.27-4.8.82-3.93,1.43-7.03,4.57-9.22,9.34-5.46,11.9-4.24,31.46,3.18,51.04,2.94,7.8,6.83,15.31,11.26,21.76,3.81-3.42,8.63-6.5,13.98-8.95.16-.08.33-.15.5-.22.15-.06.3-.13.45-.2,2.38-1.05,4.84-1.96,7.33-2.72,6.2-1.92,12.61-2.97,18.55-3.04h.09c.67-.02,1.33,0,1.97.02,1,.02,1.94.06,2.87.14,0-.05-.01-.1-.02-.15l-.06-.28.04-.13-.03-.09c-.85-7.91-2.94-16.42-6.04-24.59-.3-.83-.63-1.67-.97-2.46-.03-.06-.06-.13-.09-.21-.03-.06-.05-.12-.08-.19l-.72-1.71c-.32-.75-.64-1.5-.97-2.22-.46-1.05-.94-2.03-1.48-3.11l-.07-.13c-.36-.74-.74-1.47-1.12-2.18-1.15-2.2-2.35-4.29-3.57-6.21-.45-.74-.92-1.46-1.41-2.18-.45-.68-.91-1.35-1.42-2.05-.34-.5-.7-.99-1.1-1.49l-.07-.09c-.22-.29-.43-.57-.65-.83l-.57-.7c-.08-.11-.14-.18-.2-.26-.07-.09-.15-.18-.21-.28-1.26-1.62-2.52-3.1-3.74-4.4l-.16.05-.14-.36c-7.29-7.66-14.79-11.74-21.29-11.74Z"/><path d="M417.82,44.66l-.74-.68c5.48-5.95,1.4-15.26,1.36-15.35l.91-.41c.18.41,4.39,10-1.53,16.44Z"/><path d="M424.6,52.58l-.45-.89c7.74-3.96,5.62-14.81,5.6-14.92l.98-.2c.02.12,2.29,11.7-6.12,16.01Z"/><path d="M432.11,65.92l-.47-.88c7.7-4.16,6.35-13.77,6.34-13.87l.99-.15c.02.1,1.46,10.41-6.85,14.89Z"/><path d="M442.51,101.3s-4.82-.13-5.48-.12h-.02c-5.78.06-12.09,1.04-18.48,3.02-2.54.77-4.96,1.68-7.26,2.69-3.26-5.72-6.22-12.34-8.66-19.46-.47-1.37-.9-2.72-1.31-4.06l17.44-10.8-20.33-1.95-.21-.03c-1.53-8.56-1.7-16.1-.5-21.66,1.13-5.49,3.6-9.07,7.3-9.84,4.74-.95,10.68,2.9,16.46,9.9.31.39.65.8.97,1.21.23.29.47.61.71.92.39.49.76.98,1.11,1.51.5.67.97,1.36,1.44,2.07.49.73.96,1.46,1.41,2.19,1.24,1.95,2.44,4.05,3.59,6.25.38.71.76,1.45,1.12,2.19.04.04.05.08.07.13.5,1.02,1.01,2.05,1.48,3.12.34.73.66,1.48.98,2.23.24.56.47,1.12.71,1.68.07.15.12.28.19.43.34.8.67,1.65.98,2.48,3.24,8.53,5.05,18.21,6.31,25.88Z"/><path d="M411.05,107.54l-.22-.39c-3.33-5.85-6.26-12.42-8.7-19.54-.47-1.37-.91-2.73-1.32-4.07l-.11-.37,16.5-10.22-19.44-1.89-.06-.35c-1.55-8.63-1.72-16.19-.49-21.85,1.22-5.89,3.87-9.43,7.68-10.22,4.77-.95,10.79,2.62,16.94,10.08l.36.45c.2.25.41.51.62.77.21.26.43.55.65.84l.06.08c.41.52.78,1.02,1.13,1.53.51.7.99,1.38,1.44,2.07.49.72.97,1.46,1.42,2.21,1.23,1.94,2.45,4.06,3.61,6.28.37.7.75,1.42,1.1,2.15.07.09.09.18.11.23.51,1.03,1,2.02,1.47,3.08.33.72.66,1.48.98,2.24l.71,1.69c.03.06.06.14.1.22.03.06.05.12.08.18.35.83.69,1.68,1,2.52,3.2,8.43,5,17.86,6.33,25.97l.04.23-.15.18c-.16.19-.15.19-1.38.15-1.34-.04-3.76-.13-4.4-.1h-.1c-5.86.06-12.2,1.1-18.34,3-2.45.75-4.88,1.65-7.21,2.67l-.41.18ZM401.88,83.61c.37,1.21.77,2.44,1.2,3.68,2.37,6.9,5.19,13.28,8.4,18.98,2.24-.97,4.56-1.82,6.9-2.53,6.2-1.92,12.61-2.97,18.55-3.04h.09c.48-.01,3.01.05,4.52.09.14,0,.26,0,.38,0-1.32-7.92-3.09-17.03-6.19-25.19-.3-.83-.63-1.67-.97-2.46-.03-.06-.06-.13-.09-.21-.03-.06-.05-.12-.08-.19l-.72-1.71c-.32-.75-.64-1.5-.97-2.22-.46-1.05-.94-2.03-1.48-3.11l-.07-.13c-.36-.74-.74-1.47-1.12-2.18-1.15-2.2-2.35-4.29-3.57-6.21-.45-.74-.92-1.46-1.41-2.18-.45-.68-.91-1.35-1.42-2.05-.34-.5-.7-.99-1.1-1.49l-.07-.09c-.22-.29-.43-.57-.65-.83-.2-.26-.41-.51-.61-.76l-.36-.45c-5.9-7.15-11.58-10.61-15.97-9.73-4.28.89-6.12,5.63-6.91,9.45-1.18,5.46-1.03,12.75.44,21.11l21.63,2.07-18.37,11.38Z"/><path d="M303.1,210.39c-5.06-2.96-10.49-.79-13.68,3.59-21.38,29.31-41.55,60.19-68.71,84.63-12.37,11.12-28.05,22.45-45.06,24.04-8.65.81-16.62.13-24.57-3.48-7.94-3.6-14.77-8.64-21.19-14.5-14.71-13.4-25.45-30.25-37.13-46.19-3.19-4.35-8.68-6.51-13.68-3.59-4.29,2.51-6.8,9.3-3.59,13.68,22.4,30.57,48.01,72.76,90.61,74.36,41.89,1.57,74.95-32.92,99.26-63.05,14.55-18.03,27.7-37.11,41.34-55.82,3.18-4.37.74-11.15-3.59-13.68Z"/><path d="M347.08,150.63c-1.47-.46-2.45.29-2.45.29-6.71-14.6-17.12-7.28-17.12-7.28-2.96-7.19-7.23-8.3-10.67-7.69-3.19.57-4.74,3.48-5.65,6.59-6.15,21.04-25.19,40.52-25.19,40.52,0,0-12.89-24.16-22.7-10.68-4.57,6.28,3.2,23.36,13.35,31.94,0,0-14.01,2.76-8.24,12.36,4.99,8.29,45.7,28.15,55.02,17.52,5.95-6.79-2.58-13-2.58-13,42.13-26.37,35.66-67.65,26.23-70.57Z" fill="#fff"/><path d="M314.47,237.76c-.85,0-1.75-.04-2.7-.13-16.09-1.44-40.06-14.49-43.79-20.69-1.55-2.58-1.87-4.95-.95-7.03,1.6-3.61,6.47-5.28,8.56-5.84-11.35-10.09-16.79-26.35-12.69-31.98,2.21-3.04,4.75-4.48,7.61-4.28,7.28.51,14.03,11.64,15.61,14.42,2.95-3.15,19.1-20.97,24.6-39.82,1.22-4.17,3.19-6.44,6.04-6.95,3.29-.58,7.83.26,10.99,7.45,1.25-.72,4.58-2.29,8.38-1.26,3.51.95,6.45,3.84,8.73,8.59.5-.21,1.34-.4,2.37-.08,3.34,1.03,6.08,6.23,7,13.25,2.17,16.64-5.26,40.52-32.51,57.85,1.2,1.02,3.9,3.68,4.28,7.11.24,2.17-.5,4.25-2.19,6.18-1.88,2.14-5.02,3.23-9.34,3.23ZM270,168.79c-2.31,0-4.42,1.3-6.3,3.88-4.22,5.8,2.85,22.45,13.27,31.27l.79.67-1.02.2c-.07.01-7,1.43-8.81,5.5-.78,1.77-.48,3.82.9,6.11,3.62,6.01,27.69,18.84,43.02,20.21,5.4.48,9.17-.45,11.2-2.76,1.5-1.71,2.16-3.53,1.95-5.41-.43-3.89-4.4-6.83-4.44-6.86l-.6-.44.63-.39c27.34-17.11,34.79-40.79,32.65-57.25-.85-6.53-3.38-11.52-6.3-12.42h0c-1.19-.37-1.97.19-2.01.22l-.49.36-.26-.55c-2.19-4.76-4.98-7.62-8.31-8.52-4.3-1.16-8.03,1.41-8.07,1.44l-.51.36-.24-.58c-2.34-5.68-5.74-8.17-10.12-7.39-2.47.44-4.14,2.42-5.25,6.24-6.11,20.92-25.12,40.53-25.31,40.73l-.48.49-.32-.6c-.07-.14-7.54-13.96-15.13-14.49-.14-.01-.29-.02-.43-.02Z"/><path d="M313.41,178.77l-.69-.73c.13-.13,13.29-12.84,14.29-34.43l1,.05c-1.02,22.01-14.47,34.98-14.6,35.11Z"/><path d="M329.48,188.26l-.73-.69c.12-.13,12.49-13.49,15.38-36.71l.99.12c-2.93,23.56-15.52,37.14-15.64,37.28Z"/><rect x="281.55" y="200.91" width="1" height="14.17" transform="translate(-41.47 342.72) rotate(-59.02)"/><line x1="310.57" y1="218.4" x2="320.86" y2="221.2" fill="#fff"/><rect x="315.21" y="214.47" width="1" height="10.66" transform="translate(20.76 466.76) rotate(-74.78)"/></g></svg>