<?xml version="1.0" encoding="UTF-8"?><svg id="Ebene_2" xmlns="http://www.w3.org/2000/svg" width="207.72" height="207.72" viewBox="0 0 207.72 207.72"><g id="OBJECTS"><polygon points="103.86 162.43 56.43 207.72 62.22 142.96 0 133.74 51.93 99.22 20.57 46.26 80.75 64.15 96.52 0 126.97 64.15 190.44 43.99 155.79 99.22 207.72 133.74 145.51 142.96 150.08 203.89 103.86 162.43" fill="#fff"/><path d="M174.05,22.35c-9.1,19.87-20.98,37.46-34.57,54.52-3,3.76,2.58,8.76,5.59,4.99,13.98-17.55,26.3-35.67,35.66-56.12,2-4.37-4.68-7.77-6.69-3.39Z"/><path d="M171.1,23.29s-6.37,2.35,1.15,6.62c7.52,4.28,11.33,5.19,9.52-.24,0,0,7.17,3.04,13.81-16.29.34-1,.55-2.28-.19-3.03-1.03-1.05-3.79.08-8.43,6.65,0,0,7.69-11.82,3.99-13.31-.7-.28-1.51.02-2.1.5-1.22.97-4.88,6.14-6.96,10.18,0,0,3.64-7.81,3.82-10.81.18-3-1.83-4.75-4.82-.1-.77,1.2-1.44,2.46-2.04,3.76l-2.8,6.12s-.11-7.8-3.59-7.55c-2.18.15-6.67,11.9-1.35,17.5Z" fill="#fff"/><path d="M180.67,33.65c-1.58,0-4.27-1.14-8.52-3.56-2.61-1.48-3.88-2.93-3.76-4.28.12-1.43,1.72-2.29,2.37-2.59-3.12-3.53-2.8-9.53-1.06-13.98.67-1.72,1.74-3.57,2.74-3.64.65-.04,1.23.17,1.73.63,1.51,1.39,1.92,4.72,2.03,6.29l2.46-5.37c.64-1.4,1.31-2.64,2.05-3.78,1.92-2.98,3.26-3.08,3.89-2.88.89.29,1.4,1.51,1.31,3.11-.1,1.71-1.29,4.9-2.32,7.39,1.94-3.14,4.19-6.19,5.12-6.93.76-.61,1.62-.8,2.31-.53.5.2.83.57,1,1.11.67,2.1-1.4,6.44-3.06,9.41,2.19-2.64,4.06-4.11,5.4-4.22.47-.04.88.1,1.17.4.83.84.59,2.23.24,3.24-3.81,11.1-7.83,14.86-10.52,16.06-1.49.66-2.61.58-3.17.46.51,1.69.45,2.78-.2,3.31-.29.24-.68.36-1.2.36ZM172.61,5.99s-.1,0-.14,0c-.53.04-1.5,1.11-2.39,3.39-1.29,3.3-2.49,9.92,1.17,13.77l.21.22-.29.11s-2.26.85-2.38,2.36c-.1,1.17,1.14,2.52,3.56,3.9,3.35,1.9,7.95,4.31,9.26,3.24.54-.44.53-1.53-.04-3.23l-.14-.42.41.17s1.3.52,3.26-.36c2.62-1.18,6.52-4.87,10.28-15.81.31-.9.54-2.13-.15-2.82-.21-.21-.49-.31-.85-.28-.76.06-2.99.86-7.27,6.9l-.34-.23c.06-.09,5.84-9.03,4.85-12.15-.13-.42-.39-.71-.77-.86-.55-.22-1.26-.05-1.9.47-1.24.99-4.87,6.17-6.9,10.11l-.36-.18c.04-.08,3.62-7.81,3.8-10.73.08-1.38-.33-2.47-1.03-2.7-.88-.29-2.13.7-3.42,2.71-.73,1.13-1.39,2.35-2.02,3.73l-3.18,6.94v-.9c-.01-.05-.11-5.15-1.95-6.84-.38-.35-.81-.53-1.29-.53Z"/><path d="M189.17,18.93s-.07,0-.1-.03l-9.72-5.64c-.1-.06-.13-.18-.07-.28.06-.1.18-.13.28-.07l9.72,5.64c.1.06.13.18.07.28-.04.06-.11.1-.18.1Z"/><path d="M179.04,23.23s-.06,0-.09-.02c-.1-.05-.14-.17-.09-.27,1.13-2.2.97-4.26-.49-6.13-1.1-1.41-2.57-2.18-2.59-2.19-.1-.05-.14-.17-.09-.27.05-.1.17-.14.27-.09.06.03,6.15,3.24,3.26,8.86-.04.07-.11.11-.18.11Z"/><path d="M175.19,26.05s-.03,0-.05,0c-.83-.21-1.62-.56-2.35-1.01-.62-.39-1.19-.86-1.69-1.4-.08-.08-.07-.21.01-.29.08-.08.21-.07.29.01.47.52,1.01.96,1.6,1.34.69.43,1.44.76,2.23.96.11.03.17.14.15.25-.02.09-.11.15-.2.15Z"/><path d="M181.77,29.88s-.06,0-.09-.02l-2.66-1.39c-.1-.05-.14-.17-.09-.27.05-.1.17-.14.27-.09l2.66,1.39c.1.05.14.17.09.27-.04.07-.11.11-.18.11Z"/><path d="M33.36,22.64c8.51,20.12,19.86,38.06,32.94,55.51,2.88,3.85-2.84,8.68-5.73,4.82-13.46-17.96-25.24-36.43-33.99-57.14-1.87-4.43,4.91-7.63,6.78-3.19Z"/><path d="M36.27,23.67s6.3,2.53-1.34,6.59c-7.64,4.05-11.48,4.86-9.51-.52,0,0-7.25,2.83-13.32-16.69-.31-1.01-.48-2.29.28-3.02,1.07-1.02,3.78.19,8.23,6.9,0,0-7.34-12.04-3.59-13.42.71-.26,1.51.07,2.09.56,1.19,1.01,4.7,6.28,6.65,10.38,0,0-3.41-7.91-3.5-10.91-.1-3,1.97-4.69,4.82.04.74,1.22,1.37,2.5,1.92,3.82l2.62,6.2s.34-7.79,3.81-7.45c2.18.22,6.31,12.09.83,17.53Z" fill="#fff"/><path d="M26.5,33.74c-.56,0-.99-.13-1.29-.39-.63-.55-.67-1.64-.1-3.32-.56.1-1.69.15-3.15-.55-2.66-1.28-6.56-5.15-10.04-16.36-.32-1.02-.52-2.41.33-3.23.3-.29.71-.42,1.18-.36,1.33.15,3.16,1.67,5.27,4.38-1.57-3.02-3.51-7.42-2.78-9.5.19-.53.54-.9,1.04-1.08.69-.25,1.55-.03,2.29.59.91.77,3.07,3.88,4.92,7.08-.95-2.52-2.04-5.74-2.1-7.46-.05-1.6.5-2.8,1.4-3.07.64-.19,1.97-.05,3.8,2.99.71,1.17,1.34,2.43,1.94,3.84l2.3,5.44c.16-1.57.66-4.88,2.21-6.23.51-.45,1.1-.64,1.75-.57,1,.1,2.01,1.99,2.63,3.72,1.6,4.5,1.75,10.51-1.47,13.95.65.31,2.22,1.23,2.29,2.66.07,1.36-1.24,2.76-3.89,4.17-4.23,2.24-6.94,3.3-8.52,3.3ZM25.77,29.39l-.15.42c-.62,1.68-.66,2.77-.14,3.23,1.28,1.11,5.95-1.16,9.36-2.96,2.47-1.31,3.74-2.62,3.67-3.79-.08-1.51-2.29-2.42-2.31-2.43l-.28-.11.22-.22c3.77-3.74,2.77-10.39,1.58-13.73-.82-2.3-1.76-3.4-2.29-3.45-.54-.05-1.01.1-1.45.48-1.89,1.63-2.14,6.72-2.14,6.78l-.04.89-2.97-7.03c-.59-1.4-1.22-2.64-1.91-3.79-1.24-2.05-2.45-3.07-3.34-2.81-.71.21-1.15,1.28-1.11,2.67.09,2.93,3.45,10.76,3.49,10.84l-.37.17c-1.91-4-5.39-9.29-6.6-10.31-.63-.53-1.33-.73-1.89-.52-.39.14-.65.42-.8.84-1.08,3.09,4.44,12.2,4.49,12.29l-.34.22c-4.1-6.17-6.31-7.03-7.07-7.11-.35-.04-.64.05-.86.25-.7.68-.51,1.91-.23,2.82,3.44,11.07,7.25,14.87,9.83,16.12,1.93.93,3.21.45,3.22.44l.42-.16Z"/><path d="M18.34,18.78c-.07,0-.14-.04-.18-.11-.05-.1-.02-.22.08-.27l9.88-5.35c.1-.05.22-.02.27.08.05.1.02.22-.08.27l-9.88,5.35s-.06.02-.1.02Z"/><path d="M28.34,23.38c-.08,0-.15-.04-.18-.11-2.72-5.69,3.45-8.73,3.51-8.76.1-.05.22,0,.27.09.05.1,0,.22-.09.27-.02,0-1.51.73-2.65,2.11-1.51,1.82-1.74,3.88-.67,6.11.05.1,0,.22-.1.27-.03.01-.06.02-.09.02Z"/><path d="M32.11,26.3c-.09,0-.18-.06-.2-.16-.02-.11.04-.22.15-.24.8-.18,1.56-.48,2.26-.9.6-.35,1.15-.79,1.64-1.29.08-.08.21-.08.29,0,.08.08.08.21,0,.29-.51.53-1.09.98-1.73,1.35-.74.44-1.54.75-2.38.94-.01,0-.03,0-.05,0Z"/><path d="M25.42,29.94c-.07,0-.15-.04-.18-.11-.05-.1,0-.22.09-.27l2.7-1.31c.1-.05.22,0,.27.09.05.1,0,.22-.09.27l-2.7,1.31s-.06.02-.09.02Z"/><path d="M73.47,136.57c-9.04,18.76-15.12,37.77-20.13,57.93-1.5,6.02,7.81,8.59,9.31,2.56,4.81-19.34,10.48-37.63,19.16-55.63,2.68-5.56-5.64-10.45-8.34-4.86Z"/><path d="M66.63,192.29l.03,10.01-23.55.79-10.66.36s-1.56-11.34,10.15-13.05c1.15-.17,2.43-.24,3.85-.2-.2-.38-.83-1.67-.51-3.32.06-.32.42-1.97,1.68-2.84,1.65-1.15,6.11-.8,8.25,1.3l4.01-.04s6.13-2.76,8.3.73c1.83,3.38-1.55,6.26-1.55,6.26Z" fill="#9eff9a"/><path d="M32.27,203.67l-.02-.18c-.02-.12-1.45-11.56,10.32-13.28,1.09-.16,2.29-.23,3.55-.21-.31-.68-.64-1.81-.38-3.15.09-.47.49-2.09,1.77-2.97,1.77-1.23,6.24-.82,8.44,1.27l3.88-.04c.26-.11,1.68-.71,3.35-.94,2.44-.35,4.23.27,5.16,1.77,1.74,3.21-1.03,6-1.52,6.46l.03,10.12-34.59,1.16ZM45.7,190.4c-1.09,0-2.13.07-3.08.21-10.71,1.56-10.15,11.15-10,12.64l33.83-1.14-.03-9.91.07-.06c.13-.11,3.23-2.82,1.5-6.01-2.05-3.29-7.98-.67-8.04-.64l-.08.02-4.09.04-.06-.06c-2.02-1.98-6.36-2.42-7.99-1.28-1.15.79-1.51,2.28-1.6,2.71-.28,1.45.18,2.62.49,3.19l.16.31h-.35c-.25-.02-.49-.02-.73-.02Z"/><path d="M32.44,203.46c-.14.13-.73.72-.79,1.67-.07,1.14.68,1.87.79,1.98h34.36c.2-.22.88-1.05.91-2.31.03-1.37-.73-2.29-.91-2.49-11.45.38-22.91.77-34.36,1.15Z" fill="#fff"/><path d="M66.89,207.31h-34.53l-.06-.06c-.15-.15-.92-.95-.85-2.14.06-.96.61-1.58.85-1.81l.06-.05h.08s34.45-1.16,34.45-1.16l.06.07c.3.34.99,1.28.96,2.63-.03,1.25-.68,2.12-.96,2.44l-.06.07ZM32.53,206.91h34.18c.27-.33.77-1.07.8-2.11.03-1.12-.51-1.93-.8-2.28l-34.18,1.15c-.22.23-.62.74-.67,1.48-.06.91.47,1.55.67,1.77Z"/><path d="M43.11,203.1l-10.66.36s-1.56-11.34,10.15-13.05c1.2,2.11,2.31,6.05.51,12.69Z" fill="#fff"/><path d="M32.27,203.67l-.02-.18c-.02-.12-1.45-11.56,10.32-13.28l.14-.02.07.12c1.24,2.18,2.34,6.18.53,12.85l-.04.14-11,.37ZM42.49,190.63c-4.7.72-7.78,3.08-9.17,7.01-.89,2.54-.76,4.94-.69,5.61l10.33-.35c1.69-6.33.7-10.15-.46-12.27ZM43.11,203.1h0,0Z"/><path d="M64.21,193.72c-.09,0-.17-.06-.19-.15-.03-.11.03-.22.14-.25.44-.12.86-.29,1.27-.5.38-.2.75-.43,1.09-.69.09-.07.22-.05.28.03.07.09.05.22-.03.28-.36.28-.74.53-1.15.73-.43.22-.88.4-1.34.53-.02,0-.04,0-.06,0Z"/><path d="M53.62,192.39s-.04,0-.05,0l-7.18-1.99c-.11-.03-.17-.14-.14-.25.03-.11.14-.17.25-.14l7.18,1.99c.11.03.17.14.14.25-.02.09-.11.15-.19.15Z"/><path d="M51.46,195.83s-.09-.01-.13-.04l-6.84-5.39c-.09-.07-.1-.2-.03-.28.07-.09.2-.1.28-.03l6.84,5.39c.09.07.1.2.03.28-.04.05-.1.08-.16.08Z"/><path d="M55.08,192.36c0,.43-.35.78-.78.78s-.78-.35-.78-.78.35-.78.78-.78.78.35.78.78Z" fill="#fff"/><path d="M54.3,193.34c-.54,0-.98-.44-.98-.98s.44-.98.98-.98.98.44.98.98-.44.98-.98.98ZM54.3,191.78c-.32,0-.58.26-.58.58s.26.58.58.58.58-.26.58-.58-.26-.58-.58-.58Z"/><path d="M52.8,196.07c0,.43-.35.78-.78.78s-.78-.35-.78-.78.35-.78.78-.78.78.35.78.78Z" fill="#fff"/><path d="M52.02,197.05c-.54,0-.98-.44-.98-.98s.44-.98.98-.98.98.44.98.98-.44.98-.98.98ZM52.02,195.49c-.32,0-.58.26-.58.58s.26.58.58.58.58-.26.58-.58-.26-.58-.58-.58Z"/><path d="M131.53,136c4.56,20.31,6.18,40.2,6.5,60.97.09,6.2-9.55,6.6-9.65.4-.3-19.92-1.69-39.02-6.07-58.51-1.35-6.02,7.86-8.91,9.22-2.86Z"/><path d="M125.23,192.29l-.03,10.01,23.55.79,10.66.36s1.56-11.34-10.15-13.05c-1.15-.17-2.43-.24-3.85-.2.2-.38.83-1.67.51-3.32-.06-.32-.42-1.97-1.68-2.84-1.65-1.15-6.11-.8-8.25,1.3l-4.01-.04s-6.13-2.76-8.3.73c-1.83,3.38,1.55,6.26,1.55,6.26Z" fill="#9eff9a"/><path d="M159.59,203.67l-10.85-.37-23.74-.8.03-10.12c-.49-.46-3.26-3.25-1.52-6.45.94-1.51,2.73-2.12,5.17-1.78,1.67.24,3.09.83,3.35.94l3.88.04c2.21-2.09,6.67-2.5,8.45-1.27,1.27.88,1.67,2.49,1.77,2.97.26,1.35-.07,2.47-.38,3.15,1.27-.02,2.46.05,3.55.21,11.77,1.72,10.34,13.16,10.32,13.28l-.02.18ZM125.41,202.11l33.83,1.14c.15-1.49.71-11.08-10-12.64-1.16-.17-2.45-.24-3.81-.2h-.35s.16-.3.16-.3c.3-.57.77-1.74.49-3.19-.08-.44-.45-1.92-1.6-2.71-1.64-1.14-5.97-.7-7.99,1.28l-.06.06-4.17-.06c-.06-.03-5.99-2.65-8.04.65-1.73,3.18,1.47,5.97,1.51,6l.07.06-.03,9.91Z"/><path d="M159.42,203.46c.14.13.73.72.79,1.67.07,1.14-.68,1.87-.79,1.98h-34.36c-.2-.22-.88-1.05-.91-2.31-.03-1.37.73-2.29.91-2.49,11.45.38,22.91.77,34.36,1.15Z" fill="#fff"/><path d="M159.5,207.31h-34.53l-.06-.07c-.28-.32-.93-1.19-.96-2.44-.03-1.35.66-2.29.96-2.63l.06-.07,34.53,1.16.06.05c.24.22.79.85.85,1.81.07,1.19-.69,1.99-.85,2.14l-.06.06ZM125.16,206.91h34.18c.2-.21.72-.86.67-1.77-.05-.75-.45-1.26-.67-1.48l-34.18-1.15c-.29.35-.83,1.16-.8,2.28.03,1.04.53,1.79.8,2.11Z"/><path d="M148.76,203.1l10.66.36s1.56-11.34-10.15-13.05c-1.2,2.11-2.31,6.05-.51,12.69Z" fill="#fff"/><path d="M159.59,203.67l-11-.37-.04-.14c-1.81-6.67-.71-10.67.53-12.85l.07-.12.14.02c11.77,1.72,10.34,13.16,10.32,13.28l-.02.18ZM148.91,202.9l10.33.35c.15-1.49.7-11-9.86-12.62-1.17,2.12-2.15,5.95-.46,12.27Z"/><path d="M127.66,193.72s-.04,0-.06,0c-.46-.13-.91-.31-1.34-.53-.41-.21-.79-.46-1.15-.73-.09-.07-.1-.2-.03-.28.07-.09.2-.1.28-.03.34.26.7.5,1.09.69.4.21.83.37,1.27.5.11.03.17.14.14.25-.02.09-.11.15-.19.15Z"/><path d="M138.24,192.39c-.09,0-.17-.06-.19-.15-.03-.11.03-.22.14-.25l7.18-1.99c.11-.03.22.03.25.14.03.11-.03.22-.14.25l-7.18,1.99s-.04,0-.05,0Z"/><path d="M140.4,195.83c-.06,0-.12-.03-.16-.08-.07-.09-.05-.21.03-.28l6.84-5.39c.09-.07.22-.05.28.03.07.09.05.21-.03.28l-6.84,5.39s-.08.04-.13.04Z"/><path d="M136.78,192.36c0,.43.35.78.78.78s.78-.35.78-.78-.35-.78-.78-.78-.78.35-.78.78Z" fill="#fff"/><path d="M137.57,193.34c-.54,0-.98-.44-.98-.98s.44-.98.98-.98.98.44.98.98-.44.98-.98.98ZM137.57,191.78c-.32,0-.58.26-.58.58s.26.58.58.58.58-.26.58-.58-.26-.58-.58-.58Z"/><path d="M139.06,196.07c0,.43.35.78.78.78s.78-.35.78-.78-.35-.78-.78-.78-.78.35-.78.78Z" fill="#fff"/><path d="M139.84,197.05c-.54,0-.98-.44-.98-.98s.44-.98.98-.98.98.44.98.98-.44.98-.98.98ZM139.84,195.49c-.32,0-.58.26-.58.58s.26.58.58.58.58-.26.58-.58-.26-.58-.58-.58Z"/><polygon points="148.81 20.36 142.78 14.96 56.19 14.96 56.19 148.7 142.78 148.7 147.74 142.15 148.81 20.36" fill="#ffce00"/><path d="M142.88,148.9H55.99V14.76h86.87l6.15,5.52-1.06,121.95-5.06,6.68ZM56.4,148.49h86.28l4.86-6.41,1.06-121.63-5.9-5.29H56.4v133.33Z"/><path d="M142.7,148.91c-.11,0-.2-.09-.2-.2l-.26-133.9c0-.11.09-.2.2-.2h0c.11,0,.2.09.2.2l.26,133.9c0,.11-.09.2-.2.2h0Z"/><path d="M142.66,141.95H56.17c-.11-.01-.2-.11-.2-.22s.09-.2.2-.2h86.32s5.06-4.94,5.06-4.94c.08-.08.21-.08.29,0,.08.08.08.21,0,.29l-5.18,5.07Z"/><rect x="66.58" y="29.55" width="66.24" height="54.36"/><path d="M133.02,84.12h-66.64V29.35h66.64v54.77ZM66.79,83.72h65.83V29.76h-65.83v53.96Z"/><path d="M130.4,81.15h-61.44v-49.04h61.44v49.04ZM69.37,80.74h60.63v-48.23h-60.63v48.23Z" fill="#fff"/><path d="M87.66,72.34h-11.09c-.11,0-.2-.09-.2-.2s.09-.2.2-.2h11.09c.11,0,.2.09.2.2s-.09.2-.2.2Z" fill="#fff"/><path d="M82.12,71.93c-.11,0-.2-.09-.2-.2v-5.45c0-.11.09-.2.2-.2s.2.09.2.2v5.45c0,.11-.09.2-.2.2Z" fill="#fff"/><path d="M82.31,64.19c-.11,0-.2-.09-.2-.2v-1.09c0-.11.09-.2.2-.2s.2.09.2.2v1.09c0,.11-.09.2-.2.2Z" fill="#fff"/><path d="M82.31,60.8c-.11,0-.2-.09-.2-.2v-1.09c0-.11.09-.2.2-.2s.2.09.2.2v1.09c0,.11-.09.2-.2.2Z" fill="#fff"/><path d="M122.5,72.44c-.11,0-.2-.09-.2-.2v-11.07c0-.11.09-.2.2-.2s.2.09.2.2v11.07c0,.11-.09.2-.2.2Z" fill="#fff"/><path d="M122.1,66.9h-5.46c-.11,0-.2-.09-.2-.2s.09-.2.2-.2h5.46c.11,0,.2.09.2.2s-.09.2-.2.2Z" fill="#fff"/><path d="M114.14,66.94h-1.09c-.11,0-.2-.09-.2-.2s.09-.2.2-.2h1.09c.11,0,.2.09.2.2s-.09.2-.2.2Z" fill="#fff"/><path d="M110.23,66.94h-1.09c-.11,0-.2-.09-.2-.2s.09-.2.2-.2h1.09c.11,0,.2.09.2.2s-.09.2-.2.2Z" fill="#fff"/><path d="M106.45,66.94h-1.09c-.11,0-.2-.09-.2-.2s.09-.2.2-.2h1.09c.11,0,.2.09.2.2s-.09.2-.2.2Z" fill="#fff"/><path d="M102.54,66.94h-1.09c-.11,0-.2-.09-.2-.2s.09-.2.2-.2h1.09c.11,0,.2.09.2.2s-.09.2-.2.2Z" fill="#fff"/><ellipse cx="80.46" cy="111.59" rx="16.7" ry="17.25" fill="#c36bff"/><path d="M80.46,129.04c-9.32,0-16.9-7.83-16.9-17.45s7.58-17.45,16.9-17.45,16.9,7.83,16.9,17.45-7.58,17.45-16.9,17.45ZM80.46,94.55c-9.1,0-16.5,7.65-16.5,17.05s7.4,17.05,16.5,17.05,16.5-7.65,16.5-17.05-7.4-17.05-16.5-17.05Z"/><polygon points="93.87 108.65 92.82 108.28 83.01 108.28 83.01 97.51 81.96 96.85 77.73 96.85 77.73 108.28 66.87 108.28 66.87 113.83 77.73 113.83 77.73 125.25 81.77 125.25 83.08 124.01 83.01 113.83 92.65 113.83 93.87 113.39 93.87 108.65" fill="#fff"/><path d="M81.85,125.46h-4.32v-11.42h-10.86v-5.96h10.86v-11.42h4.49l1.2.75v10.67h9.67s1.18.43,1.18.43v5.03l-1.42.5h-9.43l.07,10.07-1.43,1.36ZM77.93,125.05h3.76l1.19-1.12-.07-10.3h9.81l1.05-.38v-4.46l-.88-.31h-9.97v-10.85l-.91-.57h-3.97v11.42h-10.86v5.15h10.86v11.42Z"/><polygon points="92.66 108.28 81.81 108.28 81.81 96.85 76.52 96.85 76.52 108.28 65.67 108.28 65.67 113.83 76.52 113.83 76.52 125.25 81.81 125.25 81.81 113.83 92.66 113.83 92.66 108.28" fill="#fff"/><path d="M82.01,125.46h-5.69v-11.42h-10.86v-5.96h10.86v-11.42h5.69v11.42h10.86v5.96h-10.86v11.42ZM76.73,125.05h4.88v-11.42h10.86v-5.15h-10.86v-11.42h-4.88v11.42h-10.86v5.15h10.86v11.42Z"/><path d="M133.04,100.19c0,2.73-2.22,4.94-4.95,4.94s-4.95-2.21-4.95-4.94,2.22-4.94,4.95-4.94,4.95,2.21,4.95,4.94Z" fill="#10d4ad"/><path d="M128.09,105.33c-2.84,0-5.15-2.31-5.15-5.14s2.31-5.14,5.15-5.14,5.15,2.31,5.15,5.14-2.31,5.14-5.15,5.14ZM128.09,95.45c-2.62,0-4.75,2.13-4.75,4.74s2.13,4.74,4.75,4.74,4.75-2.13,4.75-4.74-2.13-4.74-4.75-4.74Z"/><path d="M116.03,110.99c0,2.73-2.22,4.94-4.95,4.94s-4.95-2.21-4.95-4.94,2.22-4.94,4.95-4.94,4.95,2.21,4.95,4.94Z" fill="#9eff9a"/><path d="M111.08,116.14c-2.84,0-5.15-2.31-5.15-5.14s2.31-5.14,5.15-5.14,5.15,2.31,5.15,5.14-2.31,5.14-5.15,5.14ZM111.08,106.26c-2.62,0-4.75,2.12-4.75,4.74s2.13,4.74,4.75,4.74,4.75-2.12,4.75-4.74-2.13-4.74-4.75-4.74Z"/><ellipse cx="127.88" cy="123.41" rx="4.95" ry="4.94" fill="#fd4e55"/><path d="M127.88,128.55c-2.84,0-5.15-2.31-5.15-5.14s2.31-5.14,5.15-5.14,5.15,2.31,5.15,5.14-2.31,5.14-5.15,5.14ZM127.88,118.67c-2.62,0-4.75,2.12-4.75,4.74s2.13,4.74,4.75,4.74,4.75-2.12,4.75-4.74-2.13-4.74-4.75-4.74Z"/><path d="M132.04,99.94c0,2.73-2.22,4.94-4.95,4.94s-4.95-2.21-4.95-4.94,2.22-4.94,4.95-4.94,4.95,2.21,4.95,4.94Z" fill="#10d4ad"/><path d="M127.09,105.08c-2.84,0-5.15-2.31-5.15-5.14s2.31-5.14,5.15-5.14,5.15,2.31,5.15,5.14-2.31,5.14-5.15,5.14ZM127.09,95.21c-2.62,0-4.75,2.12-4.75,4.74s2.13,4.74,4.75,4.74,4.75-2.12,4.75-4.74-2.13-4.74-4.75-4.74Z"/><ellipse cx="110.08" cy="110.75" rx="4.95" ry="4.94" fill="#9eff9a"/><path d="M110.08,115.89c-2.84,0-5.15-2.31-5.15-5.14s2.31-5.14,5.15-5.14,5.15,2.31,5.15,5.14-2.31,5.14-5.15,5.14ZM110.08,106.01c-2.62,0-4.75,2.12-4.75,4.74s2.13,4.74,4.75,4.74,4.75-2.12,4.75-4.74-2.13-4.74-4.75-4.74Z"/><path d="M131.84,123.16c0,2.73-2.22,4.94-4.95,4.94s-4.95-2.21-4.95-4.94,2.22-4.94,4.95-4.94,4.95,2.21,4.95,4.94Z" fill="#fd4e55"/><path d="M126.89,128.3c-2.84,0-5.15-2.31-5.15-5.14s2.31-5.14,5.15-5.14,5.15,2.31,5.15,5.14-2.31,5.14-5.15,5.14ZM126.89,118.42c-2.62,0-4.75,2.12-4.75,4.74s2.13,4.74,4.75,4.74,4.75-2.12,4.75-4.74-2.13-4.74-4.75-4.74Z"/><path d="M106.73,30.52c0,3.09-2.51,5.6-5.61,5.6s-5.61-2.51-5.61-5.6,2.51-5.6,5.61-5.6,5.61,2.51,5.61,5.6Z" fill="#f69f08"/><path d="M101.11,36.32c-3.21,0-5.82-2.6-5.82-5.8s2.61-5.8,5.82-5.8,5.82,2.6,5.82,5.8-2.61,5.8-5.82,5.8ZM101.11,25.12c-2.98,0-5.41,2.42-5.41,5.4s2.43,5.4,5.41,5.4,5.41-2.42,5.41-5.4-2.43-5.4-5.41-5.4Z"/><path d="M107.7,22.64c1.13,10.15,9.72,17.66,19.77,17.82.88.02,1.79-.03,2.69-.13,11.17-1.28,19.22-11.27,17.99-22.32-1.23-11.04-11.29-18.95-22.45-17.67-.9.1-1.79.26-2.65.48-9.76,2.43-16.47,11.68-15.34,21.82Z" fill="#fff"/><path d="M155.1,12.13c-1.82.29-3.61.77-5.33,1.41-.73.27-1.44.57-2.15.9-.76-2.56-2.02-4.92-3.72-6.98.53-.66,1.1-1.29,1.71-1.9,2.06-2.04,3.06-2.56,4.58-3.33l.12-.06c.1-.05.13-.17.09-.26-.05-.1-.17-.13-.26-.08l-.12.06c-1.55.8-2.58,1.32-4.68,3.41-.59.59-1.16,1.22-1.69,1.87-.83-.97-1.77-1.87-2.79-2.69-4.3-3.42-9.69-4.96-15.19-4.33h-.04c-.93.11-1.82.27-2.64.49-9.95,2.48-16.61,11.95-15.49,22.03,1.13,10.09,9.71,17.82,19.96,17.99.86.02,1.77-.02,2.72-.13h.03c9.54-1.11,16.83-8.55,18.06-17.58.92-.05,1.83-.04,2.74,0,1.69.09,3.38.34,5.02.74.02,0,.05,0,.07,0,.08,0,.15-.06.17-.14.03-.1-.04-.21-.14-.24-1.67-.4-3.38-.66-5.09-.75-.9-.05-1.81-.05-2.71,0,.17-1.48.18-3.01,0-4.56-.12-1.08-.32-2.14-.61-3.16.71-.34,1.44-.65,2.18-.92,1.7-.63,3.47-1.1,5.26-1.39.1-.02.18-.11.16-.22-.02-.1-.11-.17-.22-.16ZM147.95,18.02c.17,1.54.16,3.06-.02,4.54-.02.13-.03.26-.05.39-1.23,8.82-8.38,16.09-17.71,17.17h-.03c-.93.11-1.82.15-2.67.13-10.05-.16-18.47-7.74-19.58-17.64-1.1-9.89,5.43-19.18,15.2-21.61.81-.21,1.7-.37,2.62-.48,5.39-.62,10.69.89,14.9,4.25,1.03.82,1.96,1.72,2.79,2.7.09.1.17.2.25.3,1.65,2.02,2.88,4.34,3.61,6.84.04.12.07.25.11.38.27.98.46,2,.58,3.03Z"/><path d="M125.64,4.23c8.47-1.17,16.27,4.44,17.87,12.63l-14.91,2.72,14.52,4.89c-1.77,5.78-6.79,10.32-13.22,11.21-8.79,1.21-16.86-4.85-18.04-13.53-1.17-8.68,5-16.71,13.78-17.91Z"/><path d="M129.56,35.91c-4.22.49-8.37-.64-11.74-3.2-3.4-2.59-5.59-6.33-6.16-10.55-1.19-8.78,5.07-16.91,13.95-18.13h0c8.5-1.17,16.46,4.44,18.08,12.78l.04.19-14.37,2.62,13.99,4.71-.06.18c-1.85,6.03-7.1,10.48-13.38,11.34-.12.02-.24.03-.35.05ZM125.66,4.42c-8.67,1.19-14.78,9.13-13.62,17.7.56,4.11,2.69,7.77,6.01,10.29,3.38,2.57,7.57,3.67,11.81,3.08,6.07-.84,11.16-5.1,13.01-10.89l-15.05-5.07,15.45-2.82c-1.67-8.03-9.36-13.43-17.61-12.28h0ZM125.64,4.23h0s0,0,0,0Z"/><path d="M54.06,18.84c-.81,10.19,6.19,19.16,16.01,21.18.86.19,1.76.3,2.66.37,11.2.81,20.99-7.51,21.88-18.6.88-11.08-7.48-20.72-18.68-21.54-.9-.07-1.81-.08-2.69-.02-10.03.58-18.37,8.42-19.19,18.61Z" fill="#fff"/><path d="M90.02,7.12C86.45,2.97,81.45.46,75.95.06c-.95-.07-1.86-.08-2.72-.02-6.09.35-11.5,3.35-15.05,7.84-.3-.35-.61-.69-.93-1.02-2.05-2.11-3.06-2.64-4.59-3.46l-.12-.06c-.1-.05-.21-.01-.26.08-.05.09-.01.21.08.26l.12.06c1.5.79,2.49,1.32,4.49,3.38.33.34.65.7.97,1.06-1.69,2.22-2.94,4.8-3.6,7.6-.56-.27-1.13-.51-1.71-.73-1.7-.66-3.48-1.16-5.3-1.46-.1-.02-.2.05-.22.16-.02.1.05.2.16.22,1.78.31,3.54.79,5.22,1.44.6.23,1.18.48,1.76.75-.18.86-.32,1.75-.39,2.64-.14,1.8-.04,3.57.28,5.28h0c-1-.07-2-.08-3-.04-1.71.07-3.43.3-5.1.69-.11.02-.17.13-.14.23.02.1.14.18.23.14,1.65-.38,3.35-.62,5.03-.69,1.02-.04,2.04-.03,3.06.05,1.61,7.72,7.7,14.05,15.81,15.71.84.18,1.74.3,2.69.37,1.33.1,2.63.07,3.91-.08,9.58-1.11,17.39-8.84,18.18-18.7.43-5.37-1.27-10.59-4.79-14.68ZM94.42,21.77c-.88,10.97-10.59,19.23-21.67,18.43-.93-.07-1.82-.19-2.64-.36-7.91-1.62-13.87-7.78-15.49-15.3-.03-.13-.05-.26-.08-.4-.09-.48-.17-.96-.22-1.44-.15-1.25-.17-2.53-.07-3.83.07-.85.19-1.69.36-2.5.03-.13.06-.26.09-.38.63-2.75,1.84-5.28,3.49-7.47.08-.11.16-.21.24-.32,3.26-4.15,8.12-7.01,13.64-7.65.39-.05.78-.08,1.18-.1.84-.05,1.73-.05,2.66.02,5.4.39,10.31,2.85,13.8,6.93,3.45,4.02,5.11,9.13,4.7,14.4Z"/><path d="M72.24,19l-13.68-2.15c1.68-7.45,8.58-12.87,16.54-12.47,8.85.44,15.62,7.9,15.13,16.65-.49,8.76-8.07,15.5-16.92,15.05-7.27-.36-13.13-5.46-14.72-12.12l13.65-4.97Z"/><path d="M76.02,36.19c-.89.1-1.8.13-2.72.09-7.13-.36-13.26-5.4-14.9-12.27l-.04-.17,13.11-4.77-13.14-2.06.05-.2c1.74-7.71,8.78-13.02,16.74-12.62,4.36.22,8.36,2.11,11.26,5.33,2.85,3.17,4.29,7.27,4.05,11.52-.45,7.93-6.67,14.25-14.4,15.15ZM58.81,24.09c1.66,6.62,7.6,11.46,14.5,11.81,8.73.43,16.23-6.24,16.72-14.87.23-4.15-1.17-8.14-3.96-11.24-2.83-3.14-6.73-4.99-10.99-5.21-7.7-.38-14.52,4.7-16.29,12.12l14.22,2.23-14.19,5.17Z"/><path d="M101.06,42.23c-5.79.02-10.21-3.09-15.53-3.14-2.99-.03-5.89.56-6.09,4.06-.37,6.4,4.1,10.94,9.61,13.82,7.12,3.73,15.67,4.45,22.76.93,8.58-4.26,12.49-9.74,11.49-14.62-.71-3.44-3.26-4.1-6.25-4.09-5.32.03-10.68,3.02-15.98,3.04Z" fill="#fff"/><path d="M123.49,43.23c-.77-3.75-3.66-4.26-6.39-4.25-.02,0-.04,0-.06,0-2.68.02-5.41.79-8.04,1.53-2.61.74-5.31,1.5-7.94,1.51h0c-2.96.01-5.59-.81-8.13-1.61-.97-.3-1.92-.6-2.87-.85-.02-.01-.05-.02-.08-.02h0c-1.45-.38-2.9-.65-4.45-.66-2.59-.03-6.07.38-6.3,4.26-.23,3.96,1.27,9.6,9.72,14.03,4.14,2.17,8.58,3.25,12.88,3.24,3.54-.01,6.98-.78,10.06-2.31,8.32-4.13,12.66-9.69,11.6-14.86ZM100.76,42.44l-.21,17.5c-3.62-.17-7.31-1.13-10.8-2.86l.42-17.05c.88.24,1.75.51,2.65.79,2.48.78,5.05,1.58,7.94,1.62ZM79.64,43.16c.15-2.65,1.89-3.84,5.63-3.86.09,0,.17,0,.26,0,1.47.02,2.86.27,4.24.62l-.42,16.96c-.07-.04-.15-.07-.22-.11-4.56-2.38-9.9-6.68-9.5-13.62ZM101.02,59.95l.21-17.51c2.63-.04,5.3-.79,7.88-1.52.66-.19,1.33-.38,2.01-.55l.15,17.54s0,0,0,0c-3.14,1.47-6.65,2.14-10.25,2.04ZM111.72,57.7s0,0-.01,0l-.15-17.46c1.83-.47,3.67-.84,5.48-.85.02,0,.04,0,.05,0,2.58,0,5.29.46,6,3.92,1.02,4.96-3.23,10.34-11.38,14.38Z"/></g></svg>