<?xml version="1.0" encoding="UTF-8"?><svg id="Ebene_2" xmlns="http://www.w3.org/2000/svg" width="473.94" height="437.01" viewBox="0 0 473.94 437.01"><g id="PREVIEW"><rect x="255.46" y="8.93" width="29.47" height="5.74" transform="translate(57.86 179.3) rotate(-40.77)" fill="#ff1f33"/><rect x="285.46" y="73.02" width="27.12" height="5.73" transform="translate(-2.67 11.45) rotate(-2.18)" fill="#ff1f33"/><rect x="273.87" y="38.52" width="31.64" height="5.74" transform="translate(12.07 133.89) rotate(-26.56)" fill="#ff1f33"/><path d="M206.15,217.42c9.64,21.51,15.29,44.36,13.97,68.94-.49,9.17,13.73,8.75,14.22-.32,1.38-25.7-4.71-52.12-14.71-74.91l-13.48,6.29Z" stroke="#000" stroke-miterlimit="10" stroke-width=".5"/><path d="M241.09,270.03l-33.89,10.74,11.6,41.33,63.67-18.59s-4-25.49-35.82-13.02l-5.56-20.46Z" fill="#a986fc" stroke="#000" stroke-miterlimit="10" stroke-width=".5"/><path d="M277.48,301.87s-.01,0-.02,0c-.51.14-1.03-.16-1.18-.67h0c-.12-.42-2.97-10.15-14.01-9.02-.53.05-1-.33-1.05-.85-.05-.53.33-1,.85-1.05,12.68-1.3,16.02,10.3,16.05,10.41.14.5-.15,1.02-.65,1.17Z" fill="#fff"/><path d="M108.96,214.17c-7.25,20.86-18.03,40.14-34.4,56.45-6.51,6.48,4.34,15.7,10.78,9.28,16.84-16.78,28.26-36.77,36.08-58.35-4.19-2.4-8.36-4.84-12.46-7.38Z" stroke="#000" stroke-miterlimit="10" stroke-width=".5"/><path d="M111.21,267.24l-32.71-13.94-18.13,38.91,60.41,27.39s13.57-21.94-18.68-33.22l9.12-19.14Z" fill="#a986fc" stroke="#000" stroke-miterlimit="10" stroke-width=".5"/><path d="M117.84,316.55s-.01,0-.02,0c-.48-.23-.68-.79-.46-1.27h0c.18-.39,4.36-9.64-4.75-15.97-.43-.3-.54-.9-.24-1.33.3-.43.9-.54,1.33-.24,10.46,7.27,5.44,18.25,5.39,18.36-.22.47-.78.68-1.25.47Z" fill="#fff"/><polygon points="55.28 59.45 246.24 41.15 266.13 217.79 76.76 236.89 55.28 59.45" fill="#38990c" stroke="#000" stroke-miterlimit="10" stroke-width=".5"/><polygon points="69.33 70.06 234.84 54.19 252.08 207.29 87.95 223.84 69.33 70.06" fill="none" stroke="#000" stroke-miterlimit="10" stroke-width=".5"/><polygon points="128.94 147.37 143.35 184.22 203.16 97.18 211.7 102.52 148.16 200.77 135.88 200.77 118.99 151.12 128.94 147.37" fill="#ffcf06" stroke="#000" stroke-miterlimit="10" stroke-width=".5"/><path d="M156.87,83.54c-8.43.98-14.7-2.58-22.47-1.79-4.36.45-8.49,1.74-8.25,6.58.45,8.85,7.66,14.35,16.14,17.4,10.95,3.95,23.52,3.53,33.31-2.47,11.84-7.26,16.57-16.9,14.48-21.97-1.85-4.5-5.39-5.1-9.74-4.58-7.75.92-15.75,5.93-23.47,6.83Z" fill="#fff" stroke="#000" stroke-miterlimit="10" stroke-width=".5"/><path d="M176.73,77.19c3.43,6.91,5.25,14.88,3.79,22.56" fill="none" stroke="#000" stroke-miterlimit="10" stroke-width=".5"/><path d="M161.94,82.76c1.15,2.87,2.35,6.7,2.95,11.3.69,5.3.34,9.81-.18,13.1" fill="none" stroke="#000" stroke-miterlimit="10" stroke-width=".5"/><path d="M144.43,82.48c1.09,2.99,2.26,7.21,2.56,12.35.27,4.64-.37,9.04-1,11.95" fill="none" stroke="#000" stroke-miterlimit="10" stroke-width=".5"/><path d="M136.45,49.58c.13.5.69,3.55.79,4.57,1.45,14.34-6.63,27.84-19.55,33.49-2.19.97-4.51,1.71-6.94,2.18-17.89,3.51-35.25-8.14-38.76-26.03-3.53-17.89,8.14-35.25,26.03-38.76,1.41-.28,2.82-.46,4.22-.56,10.31-.69,20.09,3.52,26.71,10.88h0c.21.24.43.49.64.72,3.21,3.8,5.62,8.37,6.86,13.5Z" fill="#fff" stroke="#000" stroke-miterlimit="10" stroke-width=".5"/><path d="M136.39,49.6c2.5,10.79-.49,22.71-8.31,30.82-.81.84-1.67,1.64-2.57,2.39-2.36,1.97-5,3.6-7.82,4.84-3.52-2.34-.56-6.91-3.35-9.7-2.33-2.31-5.51-2.65-6.21-6.1-.58-2.77,1.61-5.55,2.4-8.33,1.57-5.48-2.37-5.5-5.89-9.59-2.25-2.59-2.04-4.69-.78-7.93,1.47-3.75,2.33-3.82-.76-6.5-1.85-1.61-4.95-2.77-6.03-4.89-1.53-3.05-.12-6.94,3.49-9.15.55-.34,1.12-.66,1.67-.97,10.31-.69,20.09,3.52,26.71,10.9.14.27.35.48.64.7,1.31,1,2.37,3.09,3.19,4.49,1.68,2.83,2.88,5.88,3.61,9.03Z" stroke="#000" stroke-miterlimit="10" stroke-width=".5"/><line x1="119.99" y1="13.63" x2="115" y2="26.68" fill="none" stroke="#000" stroke-miterlimit="10" stroke-width=".5"/><line x1="90.95" y1="13.49" x2="95.06" y2="25.69" fill="none" stroke="#000" stroke-miterlimit="10" stroke-width=".5"/><line x1="67.46" y1="29.2" x2="78.04" y2="38.04" fill="none" stroke="#000" stroke-miterlimit="10" stroke-width=".5"/><path d="M232.22,38.91c.1.5.51,3.58.55,4.6.72,14.4-8.04,27.46-21.22,32.46-2.24.86-4.59,1.48-7.04,1.83-18.05,2.6-34.79-9.92-37.39-27.97-2.61-18.05,9.92-34.79,27.97-37.39,1.42-.21,2.84-.32,4.24-.34,10.34-.16,19.89,4.54,26.12,12.22v.02c.2.24.41.49.61.73,3.02,3.96,5.19,8.65,6.16,13.83Z" fill="#fff" stroke="#000" stroke-miterlimit="10" stroke-width=".5"/><path d="M232.16,38.92c1.95,10.9-1.64,22.66-9.86,30.36-.85.8-1.75,1.55-2.69,2.26-2.46,1.85-5.18,3.34-8.05,4.43-3.4-2.52-.21-6.93-2.86-9.86-2.21-2.43-5.37-2.93-5.89-6.41-.43-2.8,1.89-5.46,2.82-8.2,1.84-5.39-2.08-5.61-5.39-9.87-2.12-2.71-1.79-4.79-.37-7.96,1.66-3.67,2.53-3.7-.43-6.53-1.77-1.7-4.8-3.02-5.78-5.19-1.37-3.12.23-6.94,3.95-8.96.57-.31,1.15-.6,1.72-.88,10.34-.16,19.89,4.54,26.12,12.24.13.27.32.5.6.73,1.26,1.07,2.21,3.2,2.96,4.64,1.53,2.91,2.57,6.02,3.14,9.2Z" stroke="#000" stroke-miterlimit="10" stroke-width=".5"/><line x1="217.61" y1="2.16" x2="211.96" y2="14.95" fill="none" stroke="#000" stroke-miterlimit="10" stroke-width=".5"/><line x1="188.62" y1=".55" x2="192.11" y2="12.95" fill="none" stroke="#000" stroke-miterlimit="10" stroke-width=".5"/><line x1="164.36" y1="15.04" x2="174.47" y2="24.41" fill="none" stroke="#000" stroke-miterlimit="10" stroke-width=".5"/><path d="M165.35,64.11c0,5.55-4.5,10.06-10.06,10.06s-10.06-4.5-10.06-10.06,4.5-10.06,10.06-10.06,10.06,4.5,10.06,10.06Z" fill="#ff9ed7" stroke="#000" stroke-miterlimit="10" stroke-width=".5"/><path d="M66.57,152.7c-2.04.77-4.15,1.33-6.33,1.66-12.47,1.88-24.63-3.46-31.14-14.16-10.99-18.07-11.26-42.77-10.54-63.81.06-1.86.14-3.69.21-5.49.02-.44.03-1.14.05-2.03,0-.15,0-.31.01-.47.12-5.12.57-15.39,3.63-19.78.47-.68,1-1.21,1.6-1.57.62-.36,1.3-.54,2.06-.5,1.08.07,2.31.58,3.74,1.66.2.15.4.31.6.48.01,0,.03.02.04.03.08.07.17.14.24.22,3.92,3.76,1.22,13.12,1.01,17.77-.16,3.42-.29,6.86-.36,10.29-.15,7.13-.04,14.27.52,21.38,1.03,13.05,1.59,29.35,11.54,39.14,6.48,6.38,14.28,5.37,21.46,1.58l1.65,13.61Z" stroke="#000" stroke-miterlimit="10" stroke-width=".5"/><path d="M26.86,32.18S25.48-.06,35.74,1.98c7.95,1.58,4.47,32.51,4.47,32.51,0,0,18,10.83,1.37,29.8,0,0,.39,7.16-1.54,9.29-1.82,2.01-15.5,7.11-24.69,1.22-1.03-.66-1.65-1.81-1.68-3.03l-.14-4.95s-8.9-1.54-8.71-11.22c0,0-13.03-20.29,4.97-22.58.09-1.01.46-3.51,2.39-5.73.41-.47,3.72-4.15,8.08-3.29,3.49.69,6.27,4.02,6.6,8.17Z" fill="#fff" stroke="#000" stroke-miterlimit="10" stroke-width=".5"/><path d="M9.78,33.02c.05,4.45.94,9.8,3.95,13.24,1.65,1.88,3.93,2.82,6.43,2.67,3.15-.19,6.12-1.28,7.09-4.49,1.36-4.5.26-10.11-.98-14.53" fill="#fff" stroke="#000" stroke-miterlimit="10" stroke-width=".5"/><path d="M4.32,54.75c.48.4,2.46,1.66,4.7,1.8.56.03,2.45.09,4.22-1.07,3.38-2.2,3.17-6.71,3.16-6.92" fill="#fff" stroke="#000" stroke-miterlimit="10" stroke-width=".5"/><path d="M40.21,34.49c-2.65-.7-5.39-1.17-8.12-1.44-5.54-.55-14.94-1.44-16.14,5.8-1.18,7.1,9.66,8.96,17.18,9.74,0,0-10.5-.06-10.65,11.67" fill="#fff" stroke="#000" stroke-miterlimit="10" stroke-width=".5"/><path d="M13.52,66.82s1.34,2.06,7.33,2.15" fill="#fff" stroke="#000" stroke-miterlimit="10" stroke-width=".5"/><path d="M32.53,68.4s4.13-.12,9.05-4.1" fill="#fff" stroke="#000" stroke-miterlimit="10" stroke-width=".5"/><path d="M366.92,341.41l.79,77.6s23.13-2.06,25.24,17.62l-54.73.13-4.12-92.71s32.84-2.64,32.82-2.65Z" stroke="#000" stroke-miterlimit="10" stroke-width=".5"/><path d="M246.01,348.81l-1.51,70.25s-23.13-2.02-25.21,17.66l54.73.04,2.6-86.01s-30.62-1.94-30.6-1.95Z" stroke="#000" stroke-miterlimit="10" stroke-width=".5"/><circle cx="307.91" cy="265.96" r="116.98" transform="translate(-97.88 295.62) rotate(-45)" fill="#d2042d" stroke="#000" stroke-miterlimit="10" stroke-width=".5"/><polygon points="371.48 335.42 325.49 297.19 371.9 260.14 353.47 244.82 307.05 281.87 261.05 243.65 242.45 258.5 288.44 296.72 242.02 333.77 260.46 349.1 306.88 312.05 352.87 350.27 371.48 335.42" fill="#fff" stroke="#000" stroke-miterlimit="10" stroke-width=".5"/><path d="M288.82,230.79c4.07-3.97,10.4-7.01,19.57-7.37,9.27-.37,16.36,2.9,20.96,7.42,7.72,7.59,8.47,18.69.83,22.05-12.2,5.37-20.61-6.78-20.61-6.78,0,0-14.4,14.45-24.46,4.46-3.56-3.54-3.26-13.03,3.7-19.79Z" fill="#ff9ed7" stroke="#000" stroke-miterlimit="10" stroke-width=".5"/><path d="M324.25,242.74c-2.15-2.57-8-8.85-16-8.67-8.18.19-13.73,7.04-15.69,9.73" fill="none" stroke="#000" stroke-miterlimit="10" stroke-width=".5"/><path d="M304.17,211.51c-.12,3.47,2.6,6.38,6.07,6.49,3.47.12,6.38-2.6,6.49-6.07.12-3.47-2.6-6.38-6.07-6.49-3.47-.12-6.38,2.6-6.49,6.07Z" fill="#2563ff" stroke="#000" stroke-miterlimit="10" stroke-width=".5"/><path d="M255.88,228.49c-.95,1.73-4.49,5-7.53,5.05-2.57.05-5.19-1.5-6.07-3.95-.24-.66.05-3.09-.39-3.53-2.38-2.42-8.01,2.64-8.14-3.52-.06-3.05,3.56-6.75,6.66-6.56l15.46,12.5Z" fill="#13b6e2" stroke="#000" stroke-miterlimit="10" stroke-width=".5"/><path d="M249.84,230.72c-.22-.39-.69-.56-1.1-.35-.04.02-.08.04-.12.06-.07.02-.14.04-.21.05-.08.02-.15.02-.23.03,0,0,0,0-.01,0-.04,0-.09,0-.13,0-.09,0-.17,0-.26-.01-.05,0-.1-.01-.15-.02h0s0,0,.02,0c0,0-.02,0-.02,0-.04,0-.09-.03-.1-.03-.14-.04-.28-.07-.41-.12-.04-.02-.08-.03-.12-.05,0,0,0,0,0,0-.07-.04-.14-.08-.21-.12-.08-.05-.15-.11-.23-.16-.03-.03-.05-.05-.08-.08-.05-.06-.1-.12-.15-.18-.02-.04-.05-.08-.07-.12-.02-.03-.03-.06-.04-.09-.02-.09-.05-.17-.06-.26-.06-.42-.57-.73-.97-.62-.45.12-.69.52-.62.97.31,2.1,3.18,3.09,4.93,2.2.38-.19.57-.72.35-1.1Z" fill="#fff"/><path d="M247.64,230.48c-.08-.03-.11-.03-.1-.03.03,0,.07.02.1.03,0,0,0,0,0,0Z" fill="#fff"/><path d="M287.43,215.7c-4.18,9.38-10.86,15.89-20.09,16.62-6.26.49-12.32-1.71-17.54-6.15-8.09-6.85-14.2-19.05-16.03-34.81,7.7-.68,16.41-1.91,25.83-4.08,12.73-2.93,23.65-6.86,32.58-10.74,1.61,13.87.07,28.4-4.75,39.15Z" fill="#fff" stroke="#000" stroke-miterlimit="10" stroke-width=".5"/><path d="M287.56,215.27c-4.18,9.38-10.86,15.89-20.09,16.62-6.26.49-12.32-1.71-17.54-6.15-1.86-3.56-2.82-7.74-2.59-12.16.63-12.25,10.14-21.71,21.25-21.14,10.99.57,19.43,10.76,18.97,22.83Z" stroke="#000" stroke-miterlimit="10" stroke-width=".5"/><path d="M260.86,206.42c-.22,4.25-3.85,7.53-8.1,7.31-4.25-.22-7.53-3.85-7.31-8.1.22-4.25,3.85-7.53,8.1-7.31,4.25.22,7.53,3.85,7.31,8.1Z" fill="#fff" stroke="#fff" stroke-miterlimit="10" stroke-width=".5"/><path d="M270.7,215.41c-.14,2.65-2.4,4.7-5.05,4.56-2.65-.14-4.7-2.4-4.56-5.05.14-2.65,2.4-4.7,5.05-4.56,2.65.14,4.7,2.4,4.56,5.05Z" fill="#fff" stroke="#fff" stroke-miterlimit="10" stroke-width=".5"/><path d="M227.62,190.61c6-.85,11.82-1.67,17.59-2.73,5.76-1.05,11.44-2.36,17.09-3.81,5.64-1.47,11.25-3.1,16.85-4.9,5.6-1.8,11.17-3.77,16.95-5.62l.16.29-3.93,2.14-4,2.02-4.07,1.87-4.13,1.75c-5.54,2.24-11.21,4.15-17,5.66-5.79,1.48-11.68,2.58-17.62,3.22l-4.46.4-4.48.22h-4.48s-4.48-.18-4.48-.18l.02-.33Z"/><path d="M378.54,221.04c1.53,1.26,3.36,3.12,2.84,6.11-.44,2.54-2.45,4.81-5.02,5.22-.69.11-3.02-.63-3.54-.28-2.83,1.88,1.09,8.36-4.98,7.33-3-.51-5.96-4.77-5.19-7.77l15.89-10.61Z" fill="#13b6e2" stroke="#000" stroke-miterlimit="10" stroke-width=".5"/><path d="M378.89,225.16c-.42.14-.68.57-.55,1.01.01.04.02.08.03.13,0,.07.01.14.01.21,0,.08,0,.15,0,.23,0,0,0,0,0,.01,0,.04-.01.08-.02.13-.02.09-.04.17-.06.25-.01.05-.03.1-.05.15h0s0,0,0-.02c0,0,0,.02-.01.02-.02.04-.04.09-.05.09-.06.13-.12.26-.2.38-.02.04-.05.07-.07.11,0,0,0,0,0,0-.05.06-.1.13-.16.19-.06.07-.13.13-.2.19-.03.02-.06.04-.09.06-.07.04-.14.08-.2.12-.04.01-.08.03-.13.04-.03,0-.07.02-.1.03-.09,0-.18.01-.27,0-.43-.02-.82.42-.79.84.03.47.38.77.84.79,2.12.09,3.63-2.55,3.08-4.44-.12-.41-.6-.69-1.01-.55Z" fill="#fff"/><path d="M378.25,227.28c-.04.07-.05.1-.05.1.01-.03.03-.06.05-.09,0,0,0,0,0,0Z" fill="#fff"/><path d="M389.09,196.33c-2.95,13.24-8.75,23.57-15.85,30.01-1.2,1.1-2.44,2.08-3.71,2.95-5.65,3.87-11.91,5.43-18.08,4.29-9.1-1.69-15.06-8.86-18.25-18.62-.04-.12-.07-.23-.11-.35-3.56-11.15-3.55-25.59-.54-39.08,8.48,4.78,18.93,9.83,31.28,14.07,9.14,3.14,17.68,5.26,25.27,6.74Z" fill="#fff" stroke="#000" stroke-miterlimit="10" stroke-width=".5"/><path d="M375.2,217.27c-.1,3.23-.79,6.3-1.96,9.06-1.2,1.1-2.44,2.08-3.71,2.95-5.65,3.87-11.91,5.43-18.08,4.29-9.1-1.69-15.06-8.86-18.25-18.62-.04-.12-.07-.23-.11-.35,1-12.17,10.48-21.57,21.7-21.24,11.65.35,20.8,11.05,20.42,23.91Z" stroke="#000" stroke-miterlimit="10" stroke-width=".5"/><path d="M333.1,198.65c.11,4.26,3.66,7.62,7.91,7.51,4.26-.11,7.62-3.66,7.51-7.91-.11-4.26-3.66-7.62-7.91-7.51-4.26.11-7.62,3.66-7.51,7.91Z" fill="#fff" stroke="#fff" stroke-miterlimit="10" stroke-width=".5"/><path d="M346.69,210.47c.07,2.61,2.24,4.67,4.85,4.6,2.61-.07,4.67-2.24,4.6-4.85-.07-2.61-2.24-4.67-4.85-4.6-2.61.07-4.67,2.24-4.6,4.85Z" fill="#fff" stroke="#fff" stroke-miterlimit="10" stroke-width=".5"/><path d="M395.26,196.54c-6.03.88-12.18.64-18.2-.25-6.03-.9-11.97-2.44-17.68-4.59-5.71-2.13-11.19-4.85-16.36-8.04-5.16-3.19-10.03-6.88-14.26-11.25l.19-.27,3.73,2.46,3.8,2.35,3.86,2.25,3.92,2.13c5.27,2.76,10.71,5.2,16.29,7.27,5.57,2.1,11.27,3.83,17.08,5.12l4.37.88,4.41.71,4.43.55,4.45.36-.02.33Z"/><path d="M456.56,313.59c.15,10.07-15.52,10.43-15.65.31-.02-1.77-.11-3.53-.26-5.26-1.36-16.46-7.94-31.96-15.81-46.56-.47-15-3.8-29.31-9.46-42.4,5.7,6.08,10.46,12.82,14.98,20.47,11.99,20.29,23.44,42.23,25.77,65.93.24,2.49.39,5,.42,7.52Z"/><path d="M435.61,311.38c.11,1.05-2.28,2.05-3.26,2.52-6.38,3.06-9.92,10.81-10.95,15.58-.41,1.93-2.01,8.37.27,11.21,4.87,6.08,12.29-5.32,14.74-8.82.23,1.94.3,2.41.36,2.92.11.97.21,1.94.29,2.91.15,1.73.24,3.46.28,5.2.09,4.08-.26,8.15-.12,12.22.09,2.73.21,6.93,2.91,8.51,1.81,1.06,4.04.01,5.68-.88.04-.02.08-.05.13-.07,0,0,4.98,6.64,10.4-1.5.68.62,1.36,1.43,2.32,1.53,3.48.35,6.64-4.79,8.06-7.29,3.61-6.34,6.23-14.36,6.87-21.66.53-6.06-.97-11.93-4.41-16.96-.67-.98-1.39-1.92-2.16-2.82-.65-.76-2.32-1.91-2.65-2.81,0-.02,1.1-.89,1.16-.96.84-.81,1.56-1.78,2-2.87,1.02-2.54.53-5.61-1.71-7.33-3.38-2.6-7.94-2.01-11.89-1.61-4.74.48-9.5.51-14.27.73-14.31.66-7.67,9.52-6.25,10.58,2.11,1.58,2.16,1.09,2.22,1.66Z" fill="#fff" stroke="#000" stroke-miterlimit="10" stroke-width=".5"/><path d="M448.63,335.89s1.42,16.56-2.71,26.8" fill="none" stroke="#000" stroke-miterlimit="10" stroke-width=".5"/><path d="M456.53,361.47s4.56-14.26,4.13-24.1" fill="none" stroke="#000" stroke-miterlimit="10" stroke-width=".5"/><line x1="435.57" y1="311.81" x2="441.03" y2="311.6" fill="none" stroke="#000" stroke-miterlimit="10" stroke-width=".5"/><line x1="459.43" y1="311.61" x2="464.33" y2="311.08" fill="none" stroke="#000" stroke-miterlimit="10" stroke-width=".5"/><path d="M222.83,314.04c-4.82,4.31-9.76,8.62-14.93,12.63-8.71,6.74-18.06,12.6-28.56,16.03-13.27,4.35-32.93,3.13-40.03-10.96-5.73-11.36-2.13-25.86,1.88-37.17,11.46-32.26,35.17-58.08,60.96-79.74.26-.22.54-.42.81-.59-4.03,8.16-7.14,16.87-9.18,25.98-6.96,6.76-13.52,13.91-19.4,21.64-8.54,11.23-15.82,23.57-20.55,36.91-1.74,4.9-3.16,9.86-3.74,14.52-.61,5.01-.71,9.5,1.54,13.23.04,0,.73.93.8,1,.19.21.3.34.36.43.09.07.22.15.39.28.89.66,1.85,1.16,2.87,1.59,2.56,1.08,5.17,1.68,7.92,1.84,6.24.34,12.36-1.59,17.94-4.23,7.09-3.37,13.54-7.82,19.66-12.7,4.24-3.39,8.33-6.99,12.36-10.59,6.4-5.71,15.3,4.18,8.91,9.9Z"/><path d="M197.86,305.95c.89-.57.18-3.06-.07-4.13-1.59-6.9,2.24-14.51,5.33-18.29,1.25-1.53,5.29-6.8,8.93-6.8,7.79,0,3.52,12.93,2.32,17.03,1.66-1.03,2.07-1.28,2.5-1.55.82-.52,1.64-1.05,2.45-1.59,1.44-.96,2.86-1.97,4.24-3.03,3.24-2.48,6.21-5.3,9.48-7.74,2.2-1.64,5.55-4.17,8.47-3.05,1.96.75,2.53,3.14,2.86,4.99,0,.05.02.09.02.14,0,0,8.3-.26,5.33,9.07.91.14,1.97.16,2.65.86,2.45,2.5.41,8.18-.66,10.86-2.7,6.78-7.33,13.84-12.63,18.91-4.41,4.2-9.93,6.7-16.01,7.16-1.18.09-2.37.11-3.55.07-1-.03-2.95-.62-3.85-.31-.02,0-.01,1.41-.02,1.51-.11,1.17-.42,2.33-1,3.35-1.35,2.38-4.05,3.92-6.8,3.25-4.14-1.02-6.53-4.95-8.69-8.29-2.59-4.01-5.54-7.75-8.35-11.61-8.43-11.6,2.64-11.95,4.36-11.5,2.55.66,2.2,1,2.68.69Z" fill="#fff" stroke="#000" stroke-miterlimit="10" stroke-width=".5"/><path d="M225.15,300.81s13.83-9.24,19.25-18.86" fill="none" stroke="#000" stroke-miterlimit="10" stroke-width=".5"/><path d="M250.07,290.99s-8.3,12.47-16.25,18.29" fill="none" stroke="#000" stroke-miterlimit="10" stroke-width=".5"/><line x1="198.17" y1="305.65" x2="201.42" y2="310.05" fill="none" stroke="#000" stroke-miterlimit="10" stroke-width=".5"/><line x1="212.93" y1="324.42" x2="215.57" y2="328.58" fill="none" stroke="#000" stroke-miterlimit="10" stroke-width=".5"/><path d="M355.32,156.73c.58-2.67.91-5.42,1-8.25.86-26.14-19.63-47.99-45.74-48.85-26.14-.86-47.99,19.6-48.85,45.74-.09,2.83.06,5.6.46,8.3-7.62,1.53-12.19,3.65-12.27,6.07-.1,2.9,6.26,5.78,16.62,8.02,10.58,2.3,25.3,4.01,41.65,4.55,16.35.54,31.18-.2,41.86-1.82,10.48-1.54,16.99-3.99,17.08-6.89.08-2.42-4.34-4.83-11.82-6.86Z" stroke="#000" stroke-miterlimit="10" stroke-width=".5"/><path d="M282.39,155.36c.68.09,1.35.18,2.03.27,9.54,1.22,19.15,1.73,28.77,1.87,4.87.07,9.75-.02,14.61-.38,9.52-.7,18.9-2.46,28.21-4.48.16-1.36.27-2.74.32-4.15.05-1.63.02-3.24-.08-4.83-17.01,2.86-34.31,3.87-51.54,3.28-13.94-.48-28.95-.85-42.72-4.54-.09.99-.22,1.98-.25,2.99-.06,1.87.03,3.7.18,5.51.1,1.12,7.29,2.14,8.29,2.35,4.03.86,8.1,1.56,12.19,2.12Z" fill="#2563ff" stroke="#000" stroke-miterlimit="10" stroke-width=".5"/><path d="M322.61,109.36c11.52,2.31,20.52,12.06,23.02,23.38.31,1.4,2.41.62,2.1-.77-2.66-12.06-12.49-22.36-24.7-24.81-1.42-.28-1.83,1.92-.42,2.2h0Z" fill="#fff"/><path d="M315.6,107.37c1.44-.12,1.25-2.35-.18-2.23-1.44.12-1.25,2.35.18,2.23h0Z" fill="#fff"/><path d="M274.58,164.15c-6.28-.3-13.16-1.7-17.9-6.13-.84-.78-2.13.46-1.29,1.25,5.1,4.76,12.37,6.35,19.14,6.67,1.15.06,1.2-1.74.05-1.79Z" fill="#fff"/></g></svg>