<?xml version="1.0" encoding="UTF-8"?><svg id="Ebene_2" xmlns="http://www.w3.org/2000/svg" width="208.64" height="208" viewBox="0 0 208.64 208"><g id="OBJECTS"><polygon points="207.71 20.33 198.19 27.78 199.95 31.28 197.38 36.7 204.35 31.17 202.42 27.96 207.71 20.33" fill="#ffc22f"/><path d="M196.83,37.41l2.9-6.13-1.8-3.56,10.71-8.38-5.97,8.62,1.95,3.25-7.8,6.19ZM198.44,27.84l1.74,3.44-2.24,4.73,6.15-4.88-1.91-3.17,4.59-6.63-8.33,6.52Z"/><polygon points="177.23 17.74 177.05 29.81 180.88 30.64 183.49 36.05 183.56 27.16 179.85 26.64 177.23 17.74" fill="#ffc22f"/><path d="M183.69,36.92l-2.95-6.1-3.9-.84.2-13.58,2.96,10.06,3.76.53-.08,9.94ZM177.25,29.65l3.77.81,2.27,4.71.06-7.84-3.67-.51-2.28-7.74-.16,10.57Z"/><polygon points="192 12.38 187.35 23.53 190.61 25.71 191.03 31.7 194.39 23.46 191.13 21.61 192 12.38" fill="#ffc22f"/><path d="M190.89,32.58l-.47-6.76-3.31-2.22,5.22-12.54-.98,10.44,3.3,1.88-3.76,9.21ZM187.6,23.45l3.2,2.15.37,5.21,2.96-7.26-3.22-1.83.75-8.03-4.06,9.76Z"/><polygon points=".93 12.51 10.45 19.96 8.68 23.46 11.25 28.88 4.28 23.35 6.21 20.14 .93 12.51" fill="#ffc22f"/><path d="M11.81,29.59l-7.8-6.19,1.95-3.25L0,11.52l10.71,8.38-1.8,3.56,2.9,6.13ZM4.55,23.3l6.15,4.88-2.24-4.72,1.74-3.44L1.86,13.5l4.59,6.63-1.91,3.17Z"/><polygon points="31.41 9.92 31.59 22 27.75 22.82 25.15 28.23 25.07 19.34 28.79 18.82 31.41 9.92" fill="#ffc22f"/><path d="M24.95,29.11l-.08-9.94,3.76-.53,2.96-10.06.21,13.58-3.9.84-2.95,6.1ZM25.28,19.52l.06,7.84,2.27-4.71,3.77-.81-.16-10.57-2.28,7.74-3.67.51Z"/><polygon points="16.64 4.56 21.29 15.71 18.03 17.89 17.61 23.88 14.25 15.64 17.5 13.79 16.64 4.56" fill="#ffc22f"/><path d="M17.75,24.76l-3.76-9.21,3.3-1.88-.98-10.44,5.22,12.54-3.31,2.22-.47,6.76ZM14.5,15.73l2.96,7.26.37-5.21,3.2-2.15-4.06-9.76.75,8.03-3.22,1.83Z"/><path d="M123.43,144.97l-.27,53.75s16.87-.84,17.78,9.08h-28.67s-.96-62.48-.96-62.48c0,0,12.14-.35,12.13-.35Z"/><path d="M141.16,208h-29.1s0-.21,0-.21l-.97-62.66h.2c.12,0,11.96-.35,12.13-.36v.19s.21.01.21.01l-.27,53.54c1.98-.05,16.92-.11,17.77,9.27l.02.22ZM112.47,207.58h28.25c-1.11-9.37-17.38-8.67-17.54-8.66h-.21s0-.2,0-.2l.27-53.55c-.29.02-.8.04-1.69.06l-10.03.29.96,62.06Z"/><path d="M84.15,144.97l.27,53.75s-16.87-.84-17.78,9.08h28.67s.96-62.48.96-62.48c0,0-12.14-.35-12.13-.35Z"/><path d="M66.42,208l.02-.22c.86-9.38,15.79-9.32,17.77-9.27l-.27-53.54h.2s.01-.2.01-.2c.16,0,12.01.35,12.13.35h.2s0,.21,0,.21l-.97,62.66h-29.1ZM83.56,198.9c-3.38,0-15.73.56-16.69,8.69h28.25s.96-62.08.96-62.08l-10.03-.29c-.89-.03-1.39-.04-1.69-.06l.27,53.77h-.21s-.33-.02-.85-.02ZM84.15,144.97h0,0Z"/><path d="M133,21.53c-3.87,14.83-1.11,29.97,6.18,33.82,7.29,3.85,16.34-5.05,20.21-19.87s1.11-29.97-6.18-33.82-16.34,5.05-20.21,19.87Z"/><path d="M142.74,56.44c-1.26,0-2.49-.31-3.65-.92-7.35-3.89-10.17-19.16-6.28-34.05l.2.05-.2-.05c2.6-9.96,7.68-17.68,13.26-20.12,2.51-1.1,5.01-1.06,7.24.12,7.35,3.89,10.17,19.16,6.28,34.05-2.6,9.96-7.68,17.68-13.26,20.12-1.21.53-2.42.8-3.59.8ZM149.66.95c-1.12,0-2.26.26-3.43.77-5.46,2.4-10.46,10.01-13.03,19.85h0c-3.84,14.72-1.12,29.78,6.08,33.59,2.15,1.13,4.47,1.17,6.89.11,5.46-2.4,10.46-10.01,13.03-19.85,3.84-14.72,1.12-29.78-6.08-33.59-1.11-.59-2.26-.88-3.46-.88Z"/><path d="M74.16,17.67C69.84,3.78,60.46-3.28,53.22,1.9c-7.24,5.18-9.6,20.63-5.27,34.52s13.71,20.94,20.95,15.77c7.24-5.18,9.6-20.63,5.27-34.52Z"/><path d="M63.81,54.09c-.97,0-1.96-.17-2.96-.5-5.43-1.82-10.33-8.21-13.1-17.11-4.35-13.94-1.95-29.53,5.35-34.75C55.57-.03,58.39-.46,61.25.5c5.43,1.82,10.33,8.21,13.1,17.11h0c4.35,13.94,1.95,29.53-5.35,34.75-1.61,1.15-3.37,1.74-5.2,1.74ZM58.3.41c-1.74,0-3.42.56-4.96,1.66-7.16,5.12-9.49,20.51-5.2,34.29,2.73,8.77,7.54,15.06,12.84,16.84,2.74.92,5.43.51,7.79-1.18,7.16-5.12,9.49-20.51,5.2-34.29-2.73-8.77-7.54-15.06-12.85-16.84-.95-.32-1.9-.48-2.83-.48Z"/><path d="M91.53,162.97c33.39,4.77,64.41-8.56,71.58-49.11.61-3.42,1.01-6.84,1.23-10.25,1.43-22.31-5.25-43.95-17.34-59.65-7.97-10.33-18.28-18.09-30.18-21.74-24.56-7.55-48.9,4.49-62.57,28.1-4.54,7.86-7.91,17-9.7,27.13-1.09,6.19-1.64,12.35-1.66,18.38-.09,33.44,16.38,62.52,48.65,67.14Z" fill="#c07169"/><path d="M104.19,164.1c-4.1,0-8.34-.31-12.69-.93h0c-15.31-2.19-27.97-10.09-36.6-22.84-8.04-11.88-12.27-27.27-12.22-44.49.01-6.05.57-12.25,1.66-18.41,1.75-9.92,5.02-19.07,9.72-27.19,14.18-24.5,38.83-35.56,62.81-28.19,11.54,3.54,22.01,11.08,30.29,21.81,12.45,16.15,18.79,37.94,17.39,59.78-.22,3.45-.63,6.91-1.23,10.27-3.39,19.21-12.16,33.24-26.05,41.69-9.26,5.64-20.53,8.52-33.07,8.52ZM91.56,162.77c17.55,2.5,33.27-.1,45.49-7.53,13.79-8.39,22.49-22.32,25.86-41.41.59-3.35,1-6.79,1.22-10.23,1.39-21.75-4.91-43.44-17.3-59.51-8.22-10.66-18.62-18.15-30.08-21.67-23.79-7.31-48.25,3.68-62.33,28.01-4.67,8.09-7.93,17.19-9.67,27.06-1.08,6.14-1.64,12.31-1.65,18.34-.05,17.14,4.16,32.45,12.15,44.27,8.57,12.66,21.13,20.5,36.32,22.67h0Z"/><path d="M82.69,160.98c2.8.88,5.75,1.54,8.84,1.98,11.64,1.66,23,1.13,33.16-2.01l-5.91-31.25-14.71,5.5-13.82-6.41-7.56,32.18Z" fill="#b3e8fb"/><path d="M104.21,164.1c-4.11,0-8.35-.31-12.71-.93-3.06-.44-6.05-1.11-8.87-1.99l-.18-.06,7.66-32.61,13.97,6.48,14.85-5.55,5.99,31.66-.17.05c-6.36,1.96-13.23,2.95-20.54,2.95ZM82.93,160.85c2.75.85,5.65,1.5,8.63,1.92,11.99,1.71,23.06,1.06,32.9-1.95l-5.83-30.83-14.56,5.44-.08-.04-13.6-6.31-7.46,31.76Z"/><path d="M113.59,163.32c24.15-3.01,43.97-18.09,49.52-49.46.61-3.42,1.01-6.84,1.23-10.25l-51.66,23.12.92,36.59Z" fill="#fff"/><path d="M113.4,163.55v-.22s-.92-36.72-.92-36.72l.12-.06,51.97-23.26-.02.34c-.22,3.45-.63,6.91-1.23,10.27-5.06,28.64-22.71,46.26-49.69,49.63l-.22.03ZM112.89,126.86l.91,36.23c26.67-3.41,44.1-20.9,49.12-49.26.57-3.24.98-6.56,1.2-9.89l-51.23,22.93Z"/><path d="M94.57,163.35c-1.01-.11-2.02-.24-3.04-.38-32.27-4.61-48.74-33.69-48.65-67.14l53.2,31.17-1.51,36.35Z" fill="#fff"/><path d="M94.77,163.58l-.22-.02c-1.01-.11-2.04-.24-3.05-.39-15.31-2.19-27.97-10.09-36.6-22.84-8.04-11.88-12.27-27.27-12.22-44.49v-.35s53.61,31.41,53.61,31.41v.12s-1.52,36.57-1.52,36.57ZM43.09,96.18c.01,17,4.21,32.18,12.15,43.91,8.57,12.66,21.13,20.5,36.32,22.67.93.13,1.88.25,2.82.36l1.5-36.01-52.79-30.93Z"/><path d="M113.6,163.31c2.86-.35,5.41-.82,8.14-1.52l15.74-16.06-8.68-8.72,25.96-10.4-10.18-14.16-31.9,14.28.92,36.58Z" fill="#fff"/><path d="M113.4,163.54v-.22s-.93-36.71-.93-36.71l.12-.06,32.05-14.35,10.43,14.5-25.91,10.38,8.6,8.65-15.92,16.24h-.06c-2.73.71-5.25,1.18-8.16,1.54l-.22.03ZM112.88,126.87l.91,36.22c2.78-.35,5.21-.81,7.84-1.48l15.56-15.88-8.75-8.8,26-10.42-9.94-13.81-31.62,14.16Z"/><path d="M79.9,135.81l-8.96,7.81,15.87,18.47h0c1.53.35,3.1.65,4.71.87.99.14,2.05.28,3.04.39l1.51-36.35-30.48-17.81-11.27,13.55,25.57,13.07Z" fill="#fff"/><path d="M94.77,163.58l-.22-.02c-1.07-.12-2.19-.27-3.05-.39-1.55-.22-3.13-.51-4.69-.87h-.07s-.08-.07-.08-.07l-16.01-18.63,8.89-7.74-25.53-13.05,11.54-13.88.15.09,30.58,17.87v.12s-1.52,36.57-1.52,36.57ZM86.93,161.91c1.55.35,3.1.64,4.63.86.8.11,1.82.25,2.82.36l1.5-36.01-30.22-17.66-11,13.23,25.61,13.09-9.03,7.87,15.7,18.27Z"/><path d="M140.73,64.15c-.31-11.04-3.79-20.48-8.55-24.82-1.86-1.69-3.91-2.6-6.06-2.53-7.64.24-13.48,12.86-13.05,28.2s6.98,27.59,14.61,27.35c2.03-.06,3.94-1,5.62-2.62,4.68-4.51,7.74-14.31,7.43-25.58Z" fill="#fff"/><path d="M127.46,92.56c-2.13,0-4.2-.93-6.15-2.76-4.91-4.62-8.15-14.12-8.45-24.8-.43-15.43,5.51-28.17,13.24-28.41,2.16-.06,4.24.8,6.2,2.59,4.94,4.49,8.32,14.29,8.62,24.96h0c.31,10.95-2.63,21.05-7.49,25.73-1.78,1.72-3.72,2.62-5.76,2.68-.08,0-.15,0-.23,0ZM126.34,37c-.07,0-.14,0-.22,0-7.51.23-13.28,12.79-12.85,28,.3,10.57,3.49,19.96,8.32,24.51,1.93,1.82,3.98,2.71,6.08,2.64,1.94-.06,3.78-.92,5.49-2.57,4.78-4.61,7.67-14.59,7.37-25.43h0c-.3-10.57-3.63-20.25-8.49-24.67-1.82-1.65-3.74-2.48-5.7-2.48Z"/><path d="M133.31,89.73c-7.23-.65-13.24-11.41-13.62-24.78-.01-.44-.02-.87-.02-1.31l11.56-1.03-11.09-5.43c1.46-9.85,6.18-17.19,12.04-17.85,4.77,4.34,8.24,13.78,8.55,24.82.32,11.27-2.75,21.07-7.43,25.58Z"/><path d="M133.38,89.94h-.09c-7.36-.67-13.43-11.63-13.8-24.98-.01-.44-.02-.88-.02-1.31v-.19l11.02-.98-10.57-5.18.02-.15c1.5-10.12,6.41-17.37,12.22-18.02h.09s.07.05.07.05c4.94,4.49,8.32,14.29,8.62,24.96.31,10.95-2.63,21.05-7.49,25.73l-.07.06ZM119.87,63.83c0,.37,0,.74.02,1.12.37,13.09,6.22,23.85,13.34,24.57,4.74-4.63,7.6-14.57,7.3-25.36-.3-10.52-3.6-20.16-8.42-24.61-5.56.7-10.26,7.71-11.75,17.52l11.61,5.69-12.1,1.08Z"/><path d="M129.27,95.78c-.08,0-.16-.05-.19-.13-.04-.11.02-.22.12-.26,14.98-5.47,13.31-22.4,13.29-22.57-.01-.11.07-.21.18-.22.11-.01.21.07.22.18.02.17,1.72,17.42-13.56,23-.02,0-.05.01-.07.01Z"/><path d="M110.59,61.43c-.1,0-.18-.07-.2-.16-.03-.17-3.04-16.81,9.44-25.28.09-.06.22-.04.28.05.06.09.04.22-.05.28-12.27,8.33-9.3,24.71-9.27,24.87.02.11-.05.22-.16.24-.01,0-.03,0-.04,0Z"/><path d="M95.61,65.52c-.31-11.04-3.79-20.48-8.56-24.82-1.86-1.69-3.91-2.6-6.06-2.53-7.64.24-13.48,12.86-13.05,28.2.43,15.34,6.98,27.59,14.61,27.35,2.03-.06,3.94-1,5.62-2.62,4.68-4.51,7.74-14.31,7.43-25.58Z" fill="#fff"/><path d="M82.34,93.93c-2.13,0-4.2-.93-6.15-2.76-4.91-4.62-8.15-14.12-8.45-24.8-.44-15.43,5.51-28.17,13.24-28.41,2.16-.07,4.24.8,6.2,2.59,4.94,4.49,8.32,14.29,8.62,24.96h0c.31,10.95-2.63,21.05-7.49,25.73-1.78,1.72-3.72,2.62-5.76,2.68-.08,0-.15,0-.23,0ZM81.22,38.37c-.07,0-.14,0-.21,0-7.51.23-13.28,12.79-12.85,28,.3,10.57,3.49,19.96,8.32,24.51,1.93,1.82,3.98,2.71,6.08,2.64,1.94-.06,3.78-.92,5.49-2.57,4.78-4.61,7.67-14.59,7.37-25.43-.3-10.57-3.63-20.25-8.49-24.67-1.82-1.65-3.74-2.48-5.7-2.48Z"/><path d="M88.18,91.1c-7.23-.65-13.24-11.41-13.62-24.78-.01-.44-.02-.87-.02-1.31l11.56-1.03-11.09-5.43c1.46-9.85,6.18-17.19,12.04-17.85,4.77,4.34,8.24,13.78,8.56,24.82.32,11.27-2.75,21.07-7.43,25.58Z"/><path d="M88.26,91.31h-.09c-7.36-.67-13.43-11.63-13.8-24.98-.01-.44-.02-.88-.02-1.31v-.19l11.02-.98-10.57-5.18.02-.15c1.5-10.12,6.41-17.37,12.22-18.02h.09s.07.05.07.05c4.94,4.49,8.32,14.29,8.62,24.96.31,10.95-2.63,21.05-7.49,25.73l-.07.06ZM74.75,65.2c0,.37,0,.74.02,1.12.37,13.09,6.22,23.85,13.34,24.57,4.74-4.63,7.6-14.57,7.3-25.36-.3-10.52-3.6-20.16-8.42-24.61-5.56.7-10.26,7.71-11.75,17.52l11.61,5.69-12.1,1.08Z"/><path d="M81.16,96.95s-.04,0-.06,0c-15.6-4.5-14.99-21.83-14.98-22.01,0-.11.1-.21.21-.19.11,0,.2.1.19.21,0,.17-.6,17.18,14.68,21.6.11.03.17.14.14.25-.03.09-.11.15-.2.15Z"/><path d="M97.1,61.09s0,0-.01,0c-.11,0-.2-.11-.19-.22.01-.18,1.12-17.96-11.46-23.82-.1-.05-.15-.17-.1-.27.05-.1.17-.15.27-.1,12.83,5.98,11.7,24.03,11.69,24.21,0,.11-.1.19-.2.19Z"/><path d="M99.32,79.59c.1,3.04,2.44,5.42,5.24,5.33,2.8-.1,4.98-2.64,4.89-5.68-.1-3.04-2.44-5.42-5.24-5.33-2.8.1-4.98,2.64-4.89,5.68Z" fill="#ffc22f"/><path d="M104.39,85.12c-1.26,0-2.48-.49-3.44-1.39-1.11-1.04-1.78-2.55-1.83-4.14-.1-3.15,2.18-5.79,5.08-5.89,1.32-.04,2.61.44,3.61,1.38,1.11,1.04,1.78,2.55,1.83,4.14.1,3.15-2.18,5.79-5.08,5.89-.06,0-.11,0-.17,0ZM104.37,74.11c-.05,0-.1,0-.16,0-2.68.09-4.78,2.55-4.69,5.47.05,1.48.67,2.89,1.7,3.85.93.86,2.1,1.31,3.32,1.27,2.68-.09,4.78-2.55,4.69-5.47-.05-1.48-.67-2.89-1.7-3.85-.89-.83-2-1.28-3.17-1.28Z"/><path d="M116.68,99.22c.13,3.99-4.98,7.4-11.4,7.62-1.55.05-3.02-.08-4.39-.38-4.3-.92-7.39-3.4-7.48-6.43,0-.27,0-.52.05-.78.51-3.64,5.36-6.63,11.37-6.84,6.43-.22,11.73,2.82,11.86,6.81Z"/><path d="M104.62,107.06c-1.29,0-2.56-.13-3.77-.39-4.55-.97-7.55-3.57-7.64-6.62,0-.29,0-.56.05-.82.53-3.78,5.5-6.8,11.56-7.01,4.11-.13,7.89,1.02,10.14,3.12,1.22,1.14,1.89,2.48,1.93,3.89h0c.13,4.09-5.07,7.6-11.6,7.83-.22,0-.44.01-.66.01ZM105.49,92.6c-.22,0-.44,0-.66.01-5.87.2-10.67,3.07-11.17,6.67-.04.24-.05.48-.05.74.09,2.86,2.96,5.31,7.32,6.24,1.39.3,2.85.43,4.34.37,6.3-.22,11.33-3.54,11.21-7.41h0c-.04-1.29-.66-2.54-1.8-3.6-2.05-1.91-5.45-3.02-9.19-3.02Z"/><path d="M101.83,103.32c.04,1.16-.31,2.25-.93,3.14-4.3-.92-7.39-3.4-7.48-6.43,0-.27,0-.52.05-.78.82-.6,1.82-.95,2.91-.99,2.92-.1,5.37,2.16,5.47,5.06Z" fill="#ff5a47"/><path d="M100.98,106.69l-.13-.03c-4.55-.97-7.55-3.57-7.64-6.62,0-.29,0-.56.05-.82v-.08s.08-.05.08-.05c.87-.64,1.92-.99,3.02-1.03,1.48-.05,2.88.47,3.96,1.48,1.06.99,1.67,2.33,1.72,3.78h0c.04,1.17-.3,2.3-.97,3.26l-.08.11ZM93.64,99.37c-.03.2-.04.42-.03.66.09,2.83,2.91,5.26,7.19,6.21.57-.87.86-1.87.82-2.91h0c-.04-1.34-.61-2.58-1.59-3.5-1-.93-2.3-1.42-3.67-1.37-.99.03-1.93.35-2.72.9Z"/><path d="M90.55,89.96c4.27,1.79,6.74,6.88,6.01,11.54-.56,3.56-2.93,6.48-6.04,7.54" fill="#c07169"/><path d="M90.52,109.24c-.08,0-.16-.05-.19-.14-.04-.11.02-.22.13-.26,3.04-1.03,5.36-3.93,5.9-7.38.74-4.74-1.79-9.61-5.89-11.33-.1-.04-.15-.16-.11-.27.04-.1.16-.15.27-.11,4.27,1.79,6.9,6.85,6.13,11.76-.56,3.6-2.99,6.62-6.17,7.7-.02,0-.04.01-.07.01Z"/><path d="M119.75,89.82c-4.03,2.32-5.91,7.7-4.66,12.23.96,3.47,3.64,6.06,6.84,6.71" fill="#c07169"/><path d="M121.93,108.96s-.03,0-.04,0c-3.29-.66-6.03-3.35-7-6.85-1.32-4.78.73-10.14,4.76-12.46.1-.06.22-.02.28.07.06.1.02.22-.07.28-3.88,2.23-5.84,7.39-4.57,12,.92,3.35,3.55,5.93,6.69,6.56.11.02.18.13.16.24-.02.1-.1.16-.2.16Z"/><path d="M12.98,78.66c.25,7.15.47,14.32,1.34,21.43.62,5.14,1.48,11.04,6.54,13.67,5.02,2.6,10.98.89,15.86-1.18,2.3-.97,4.75-2.16,7.03-3.2-.45-3.56-.64-6.1-.82-9.61-1.43.65-14.16,7.7-17.48,5.99-2.69-1.39-2.43-9.81-2.65-12.46-.44-5.35-.61-10.72-.8-16.09-.2-5.84-9.22-4.36-9.02,1.45Z" fill="#fff"/><path d="M26.58,115.28c-1.98,0-3.96-.37-5.81-1.34-5.31-2.76-6.08-9.15-6.65-13.83-.84-6.92-1.09-14-1.32-20.85l-.02-.6c-.06-1.87.81-3.51,2.41-4.5,1.59-.99,3.63-1.14,5.06-.38,1.21.64,1.9,1.86,1.95,3.42l.03.94c.17,4.97.35,10.11.76,15.14.04.47.06,1.13.09,1.89.13,3.48.34,9.31,2.45,10.4,2.79,1.44,12.87-3.73,16.18-5.43.54-.28.93-.48,1.13-.57l.27-.12.02.3c.18,3.42.37,5.96.82,9.6l.02.15-.14.06c-.72.33-1.46.67-2.2,1.02-1.6.75-3.26,1.52-4.83,2.18-2.82,1.2-6.51,2.51-10.22,2.51ZM18.17,73.71c-.93,0-1.92.27-2.77.8-1.47.92-2.28,2.43-2.22,4.15l.02.6c.23,6.84.48,13.91,1.32,20.82.56,4.58,1.32,10.86,6.43,13.51,5.2,2.69,11.44.61,15.69-1.19,1.57-.66,3.22-1.43,4.82-2.18.7-.33,1.39-.65,2.07-.96-.43-3.46-.61-5.94-.79-9.17-.21.1-.49.25-.84.43-5.83,2.99-13.89,6.8-16.55,5.43-2.32-1.2-2.54-7.18-2.67-10.75-.03-.76-.05-1.41-.09-1.87-.42-5.05-.59-10.19-.76-15.16l-.03-.94c-.06-1.81-.98-2.68-1.74-3.08-.55-.29-1.21-.44-1.89-.44Z"/><path d="M162.85,115.43c2.31,1.46,4.64,2.89,6.99,4.28,4.57,2.69,10.26,5.16,15.57,3.23,5.37-1.95,6.98-7.69,8.27-12.7,1.79-6.94,2.95-14.01,4.12-21.07.96-5.73-7.79-8.38-8.75-2.61-.88,5.29-1.75,10.6-2.89,15.85-.56,2.59-1.4,10.97-4.25,12-3.51,1.27-16.14-7.8-17.73-8.8-.29,2.5-1.15,9.09-1.34,9.82Z" fill="#fff"/><path d="M181.41,123.83c-4.35,0-8.59-2.13-11.67-3.95-2.59-1.52-5.1-3.09-6.99-4.28l-.12-.08.04-.14c.18-.72,1.05-7.32,1.33-9.79l.04-.32.27.17c.2.13.59.39,1.11.74,3.33,2.25,13.47,9.11,16.44,8.04,2.23-.81,3.2-6.56,3.78-9.99.13-.75.24-1.4.34-1.86,1.07-4.94,1.92-10.01,2.73-14.91l.15-.93c.26-1.55,1.1-2.66,2.38-3.14,1.53-.57,3.52-.15,4.97,1.03,1.45,1.19,2.11,2.94,1.8,4.78l-.1.58c-1.13,6.76-2.29,13.75-4.03,20.51-1.17,4.56-2.78,10.8-8.4,12.84-1.35.49-2.71.7-4.07.7ZM163.08,115.34c1.88,1.18,4.33,2.71,6.86,4.2,3.98,2.34,9.9,5.21,15.4,3.22,5.42-1.97,6.99-8.09,8.14-12.56,1.74-6.74,2.9-13.72,4.02-20.47l.1-.58c.28-1.7-.32-3.3-1.66-4.4-1.34-1.1-3.18-1.49-4.57-.97-.8.3-1.83,1.03-2.12,2.83l-.15.93c-.82,4.91-1.66,9.98-2.74,14.93-.1.46-.21,1.1-.33,1.85-.6,3.52-1.59,9.42-4.04,10.31-2.84,1.02-10.95-4.12-16.81-8.08-.34-.23-.61-.41-.82-.55-.31,2.6-1.05,8.21-1.27,9.37Z"/><path d="M145.26,161.86c-1.88,2.83-3.54,5.64-6.87,6.91-3.87,1.48-8.41,1.32-11.91-1-3.03-2.01-5-5.37-5.51-8.95-.3-2.08-.69-6.08,1.75-7.06,4.51-1.82,4.18,7.53,4.03,9.71-.39,5.65-4.4,10.68-10.2,11.41-7.38.93-14.19-4.26-17.31-10.6-.88-1.79-1.54-3.72-1.88-5.69-.28-1.62-.44-3.39.28-4.93.5-1.06,1.49-1.9,2.73-1.59,1.52.38,2.64,2.03,3.22,3.39,1.35,3.12.98,6.87-.13,10-1.19,3.37-3.54,5.98-6.58,7.84-6.49,3.99-14.97,2.75-20.21-2.66-2.49-2.56-4.23-5.74-5.88-8.88-.88-1.67-1.69-3.41-2.2-5.24-.38-1.38-.85-3.36-.12-4.7.57-1.03,1.75-1.23,2.81-.89,1.4.45,2.25,1.64,2.77,2.95,1.28,3.22.74,7.22-.33,10.43-1.04,3.14-3.06,5.77-6.01,7.35-3.45,1.85-7.62,2.49-11.46,1.79-4.19-.77-8.09-3.08-11.44-5.63-3.27-2.48-5.79-5.94-7.23-9.78-1.16-3.08-1.86-6.86-.95-10.09.81-2.86,3.46-4.58,6.33-3.29,2.74,1.23,3.26,4.44,1.39,6.69-2.21,2.65-6.03,3.34-9.28,2.82-8.13-1.3-14.46-8.33-15.96-16.26-.75-3.98.29-8.12,3.37-10.93,1.17-1.07,2.87-1.51,4.42-1.56,1.35-.05,3.18.19,3.76,1.62,1.45,3.6-4.51,3.64-6.49,3.04-3.35-1.03-6.02-3.9-7.18-7.15-2.45-6.86,3.24-14.22,10.28-14.63,1.5-.09,3.49.03,4.66,1.1.97.88.94,2.33.01,3.25-1.77,1.76-5.44,1.42-7.67,1.07-6.43-1-9.43-8.62-9.6-14.38-.14-4.81,1.11-9.54,1.21-14.33.02-.73,1.16-.7,1.14.03-.14,6.88-2.53,13.76.06,20.45.98,2.53,2.58,5.05,5.04,6.36,1.96,1.04,4.6,1.14,6.76.82.92-.13,2.43-.4,2.6-1.53.26-1.71-3-1.77-4.09-1.72-3.05.13-5.94,1.78-7.77,4.19-1.86,2.44-2.58,5.63-1.67,8.59.91,2.96,3.31,5.65,6.26,6.68,1.42.49,3.08.62,4.51.08.77-.28,1.38-1.12.66-1.86-.54-.55-1.64-.57-2.35-.56-1.57.02-3.15.52-4.19,1.72-1.29,1.47-2.35,3.26-2.74,5.19-.65,3.24.62,6.95,2.11,9.78,1.55,2.94,3.75,5.52,6.57,7.3,2.9,1.83,6.73,3.22,10.19,2.52,2.37-.48,6.01-2.37,5.32-5.34-.64-2.75-4.6-3.07-5.99-.83-1.5,2.41-.98,5.93-.34,8.54,1.69,6.96,6.91,11.84,13.12,15,5.77,2.94,13.72,3.17,18.64-1.63,2.05-2,3.08-4.75,3.58-7.52.47-2.58.85-6.98-1.54-8.82-1-.78-2.35-.82-2.48.68-.14,1.56.37,3.19.92,4.63,1,2.63,2.44,5.14,3.88,7.54,1.59,2.66,3.6,5.16,6.22,6.87,2.72,1.78,5.89,2.46,9.11,2.26,6.2-.37,11.77-4.65,13.35-10.69.71-2.73.88-6-.56-8.53-.62-1.08-2.26-3.11-3.37-1.44-.85,1.28-.63,3.09-.38,4.51,1.13,6.44,5.5,12.43,11.76,14.67,5.32,1.9,11.17.46,14-4.67,1.77-3.2,1.85-7.46,1.12-10.98-.22-1.05-1.09-3.7-2.61-2.27-.85.8-.81,2.48-.8,3.55.02,1.24.17,2.47.51,3.67.85,2.99,2.84,5.64,5.62,7.1,3.32,1.74,7.69,1.59,10.99-.15,2.45-1.29,3.77-3.76,5.25-5.98.41-.61,1.38,0,.97.6h0Z"/><rect x="13.73" y="80.26" width="4.98" height="5.14" transform="translate(29.98 166.11) rotate(-178.31)" fill="#00c3fc"/><path d="M18.83,85.69l-5.38-.16.16-5.54,5.38.16-.16,5.54ZM13.86,85.13l4.57.14.14-4.73-4.57-.14-.14,4.73Z"/><path d="M16.86,31.09h.24c8.84,0,16.01,7.18,16.01,16.01v19.91c0,8.84-7.18,16.02-16.02,16.02h-.24c-8.84,0-16.01-7.18-16.01-16.01v-19.91c0-8.84,7.18-16.02,16.02-16.02Z" transform="translate(34.3 114.01) rotate(179.66)" fill="#00c3fc"/><path d="M16.94,83.23c-4.3,0-8.35-1.66-11.41-4.68-3.08-3.04-4.8-7.1-4.82-11.43l-.12-19.94c-.03-4.33,1.64-8.41,4.69-11.48,3.05-3.08,7.11-4.79,11.45-4.81h.2c4.33,0,8.42,1.63,11.51,4.68,3.08,3.04,4.8,7.1,4.82,11.43l.12,19.94c.05,8.93-7.19,16.24-16.14,16.3h-.2s-.07,0-.1,0ZM17.03,31.29s-.06,0-.1,0h-.2c-4.23.03-8.19,1.69-11.16,4.69-2.97,3-4.59,6.98-4.57,11.2l.12,19.94c.02,4.22,1.69,8.18,4.7,11.14,3.01,2.97,7,4.58,11.22,4.56h.2c8.73-.05,15.78-7.18,15.73-15.89l-.12-19.94c-.03-4.22-1.69-8.18-4.7-11.14-2.98-2.94-6.93-4.56-11.12-4.56Z"/><path d="M17.1,77.42h0c6.05-.04,10.92-4.95,10.89-10.98l-.11-18.89c-.04-6.03-4.97-10.89-11.02-10.85h0c-6.05.04-10.92,4.95-10.89,10.98l.11,18.89c.04,6.03,4.97,10.89,11.02,10.85Z" fill="#fff"/><path d="M17.04,77.62c-6.12,0-11.12-4.95-11.15-11.07l-.11-18.87c-.04-6.14,4.94-11.16,11.09-11.2h.07c6.12,0,11.12,4.95,11.15,11.07l.11,18.87c.04,6.14-4.94,11.16-11.09,11.2h-.07ZM17.1,77.22v.2s0-.2,0-.2c5.93-.03,10.72-4.88,10.69-10.79l-.11-18.87c-.03-5.89-4.85-10.66-10.75-10.66h-.06c-2.87.02-5.56,1.15-7.58,3.19-2.02,2.04-3.12,4.74-3.1,7.6l.11,18.87c.04,5.91,4.9,10.7,10.81,10.66Z"/><path d="M22.65,53.8s-.09-.01-.13-.04l-8.87-7.13c-.09-.07-.1-.2-.03-.29.07-.09.2-.1.29-.03l8.87,7.13c.09.07.1.2.03.29-.04.05-.1.08-.16.08Z"/><path d="M20.69,61.72s-.09-.01-.13-.04l-8.87-7.13c-.09-.07-.1-.2-.03-.29.07-.09.2-.1.29-.03l8.87,7.13c.09.07.1.2.03.29-.04.05-.1.08-.16.08Z"/><path d="M19.34,70.29s-.09-.01-.13-.04l-8.87-7.13c-.09-.07-.1-.2-.03-.29.07-.09.2-.1.29-.03l8.87,7.13c.09.07.1.2.03.29-.04.05-.1.08-.16.08Z"/><path d="M192.37,92.56c-.03,1.47-.56,3.33-.05,4.75.32.88,1.11.86,1.9,1.03.7.15,1.29.4,1.91.78,2.83,1.74,4.99,4.91,5.84,8.2.73,2.82.42,6.09-1.78,8.12-1.95,1.8-4.75,2.22-7.26,1.9-2.36-.3-5.7-1.36-6.76-3.85-1.46-3.47,2.74-4.8,5.2-4.49,2.76.35,5.88,1.66,7.79,3.85,1.99,2.29,2.83,5.48,2.83,8.52,0,3.04-.84,6.21-2.71,8.58-2.23,2.82-5.76,4.74-9.31,4.22-2.05-.3-5.08-1.16-6.08-3.28-.98-2.08.96-4.52,2.92-4.86,2.38-.41,4.79,1.26,6.52,2.76,2.13,1.84,3.64,3.98,4.2,6.85.69,3.49-.15,7-2.24,9.8-1.98,2.65-5.2,5.29-8.54,5.47-2.5.14-6.49-2.51-4.6-5.49,1.21-1.91,4.1-2.18,5.74-.77,1.67,1.44,2.28,3.97,2.63,6.1.42,2.55.52,5.16.45,7.75-.03.93-.08,1.86-.17,2.79-.08.86-1.38.87-1.3,0,.35-3.61.34-7.43-.38-10.98-.32-1.61-.82-3.67-2.16-4.7-.52-.4-1.14-.55-1.77-.48-2.3.25-2.83,2.46-.87,3.79,2.68,1.81,6.11-.43,8.15-2.31,2.24-2.06,3.9-4.83,4.02-8.01.19-4.81-2.97-9.14-7.21-10.85-.81-.33-1.77-.57-2.62-.28-.83.29-1.8,1.36-1.73,2.34.14,1.92,3.46,2.71,4.87,2.98,5.92,1.13,10.49-4.71,10.87-10.37.17-2.56-.27-5.25-1.59-7.45-1.34-2.23-3.64-3.49-6-4.21-1.2-.37-2.53-.64-3.77-.39-.55.11-1.11.32-1.53.72-1.05,1-.39,2.27.53,3.03,1.69,1.41,4.1,1.99,6.23,1.98,2.29-.02,4.78-.86,5.9-3.11,1.46-2.91.25-6.56-1.39-9.09-.86-1.33-1.97-2.55-3.27-3.42-1.16-.77-2.45-.65-3.62-1.29-2.05-1.13-1.11-4.73-1.07-6.62.02-.87,1.31-.87,1.3,0h0Z"/><rect x="189.72" y="88.52" width="4.98" height="5.14" transform="translate(384.42 182.18) rotate(180)" fill="#00c3fc"/><path d="M194.9,93.86h-5.38v-5.55h5.38v5.55ZM189.93,93.46h4.57v-4.73h-4.57v4.73Z"/><rect x="176.08" y="39.33" width="32.26" height="51.94" rx="16.01" ry="16.01" transform="translate(384.42 130.6) rotate(180)" fill="#00c3fc"/><path d="M192.31,91.47h-.2c-8.95,0-16.23-7.27-16.23-16.2v-19.94c0-8.93,7.28-16.2,16.23-16.2h.2c8.95,0,16.23,7.27,16.23,16.2v19.94c0,8.93-7.28,16.2-16.23,16.2ZM192.11,39.54c-8.73,0-15.83,7.09-15.83,15.8v19.94c0,8.71,7.1,15.8,15.83,15.8h.2c8.73,0,15.83-7.09,15.83-15.8v-19.94c0-8.71-7.1-15.8-15.83-15.8h-.2Z"/><path d="M192.21,85.66h0c6.05,0,10.95-4.89,10.95-10.92v-18.89c0-6.03-4.9-10.92-10.95-10.92h0c-6.05,0-10.95,4.89-10.95,10.92v18.89c0,6.03,4.9,10.92,10.95,10.92Z" fill="#fff"/><path d="M192.21,85.87c-6.15,0-11.16-4.99-11.16-11.13v-18.87c0-6.14,5-11.13,11.16-11.13s11.16,4.99,11.16,11.13v18.87c0,6.14-5,11.13-11.16,11.13ZM192.21,45.14c-5.93,0-10.75,4.81-10.75,10.73v18.87c0,5.92,4.82,10.73,10.75,10.73s10.75-4.81,10.75-10.73v-18.87c0-5.91-4.82-10.73-10.75-10.73Z"/><path d="M197.77,61.88s-.09-.01-.12-.04l-9.08-6.86c-.09-.07-.11-.2-.04-.28.07-.09.19-.11.28-.04l9.08,6.86c.09.07.11.2.04.28-.04.05-.1.08-.16.08Z"/><path d="M196.05,69.85s-.09-.01-.12-.04l-9.08-6.86c-.09-.07-.11-.2-.04-.28.07-.09.19-.11.28-.04l9.08,6.86c.09.07.11.19.04.28-.04.05-.1.08-.16.08Z"/><path d="M194.95,78.46s-.09-.01-.12-.04l-9.08-6.86c-.09-.07-.11-.2-.04-.28.07-.09.19-.11.28-.04l9.08,6.86c.09.07.11.2.04.28-.04.05-.1.08-.16.08Z"/><path d="M196.49,200.77h4.02c1.1,0,1.99.89,1.99,1.99v4.63h-8v-4.63c0-1.1.89-1.99,1.99-1.99Z" transform="translate(397 408.15) rotate(180)" fill="#007091"/><path d="M200.51,207.59h-4.02c-1.21,0-2.19-.98-2.19-2.19v-4.84h8.4v4.84c0,1.21-.98,2.19-2.19,2.19ZM194.7,200.97v4.43c0,.98.8,1.78,1.78,1.78h4.02c.98,0,1.78-.8,1.78-1.78v-4.43h-7.59Z"/><path d="M135.88,200.77h4.02c1.1,0,1.99.89,1.99,1.99v4.63h-8v-4.63c0-1.1.89-1.99,1.99-1.99Z" transform="translate(275.79 408.15) rotate(180)" fill="#007091"/><path d="M139.91,207.59h-4.02c-1.21,0-2.19-.98-2.19-2.19v-4.84h8.4v4.84c0,1.21-.98,2.19-2.19,2.19ZM134.1,200.97v4.43c0,.98.8,1.78,1.78,1.78h4.02c.98,0,1.78-.8,1.78-1.78v-4.43h-7.59Z"/><polygon points="200.51 154.8 138.21 154.8 129 201.66 207.97 201.66 200.51 154.8" fill="#fff"/><path d="M208.21,201.86h-79.45l.05-.24,9.25-47.03h62.64l7.52,47.27ZM129.25,201.46h78.48l-7.39-46.46h-61.96l-9.13,46.46Z"/><polygon points="196.23 161.14 157.94 161.14 158.16 194.54 200.41 194.32 196.23 161.14" fill="#b3e8fb"/><path d="M157.96,194.74l-.22-33.8h38.68l4.23,33.58-42.69.22ZM158.14,161.35l.22,32.99,41.82-.22-4.13-32.77h-37.91Z"/><path d="M168.39,189.51l-2.27-13.4h-8.18c-.11,0-.2-.09-.2-.2s.09-.2.2-.2h8.52l1.87,11.01,1.73-13.91,1.23,5.15h1.97l1.45-6.19,2.1,5.04h6.91l2.61,9.05,1.75-18.8,2.35,11.09h8.26c.11,0,.2.09.2.2s-.09.2-.2.2h-8.59l-1.86-8.79-1.7,18.27-3.13-10.82h-6.87l-1.72-4.13-1.23,5.28h-2.62l-.78-3.27-1.79,14.42Z"/><polygon points="153.14 160.93 141.14 160.78 136.34 194.25 155.74 194.54 153.14 160.93" fill="#fff"/><path d="M155.96,194.74l-19.85-.3,4.85-33.87,12.37.15,2.63,34.02ZM136.57,194.05l18.95.28-2.56-33.2-11.64-.14-4.74,33.06Z"/><path d="M141.49,168.96c0,2.87,2.33,5.2,5.21,5.2s5.21-2.33,5.21-5.2-2.33-5.2-5.21-5.2-5.21,2.33-5.21,5.2Z" fill="#ff5a47"/><path d="M146.7,174.36c-2.99,0-5.41-2.42-5.41-5.41s2.43-5.41,5.41-5.41,5.41,2.42,5.41,5.41-2.43,5.41-5.41,5.41ZM146.7,163.96c-2.76,0-5.01,2.24-5.01,5s2.25,5,5.01,5,5.01-2.24,5.01-5-2.25-5-5.01-5Z"/><path d="M147.85,171.92c-.08,0-.15-.05-.19-.12l-2.24-5.06c-.05-.1,0-.22.1-.27.1-.05.22,0,.27.1l2.24,5.06c.05.1,0,.22-.1.27-.03.01-.05.02-.08.02Z"/><rect x="147.99" y="176.86" width="3.94" height="3.34" rx=".85" ry=".85" transform="translate(299.92 357.07) rotate(180)" fill="#007091"/><path d="M151.08,180.41h-2.23c-.58,0-1.06-.47-1.06-1.05v-1.63c0-.58.47-1.06,1.06-1.06h2.23c.58,0,1.06.47,1.06,1.06v1.63c0,.58-.47,1.05-1.06,1.05ZM148.84,177.07c-.36,0-.65.29-.65.65v1.63c0,.36.29.65.65.65h2.23c.36,0,.65-.29.65-.65v-1.63c0-.36-.29-.65-.65-.65h-2.23Z"/><rect x="141" y="176.86" width="3.94" height="3.34" rx=".85" ry=".85" transform="translate(285.94 357.07) rotate(180)" fill="#007091"/><path d="M144.09,180.41h-2.23c-.58,0-1.06-.47-1.06-1.05v-1.63c0-.58.47-1.06,1.06-1.06h2.23c.58,0,1.06.47,1.06,1.06v1.63c0,.58-.47,1.05-1.06,1.05ZM141.85,177.07c-.36,0-.65.29-.65.65v1.63c0,.36.29.65.65.65h2.23c.36,0,.65-.29.65-.65v-1.63c0-.36-.29-.65-.65-.65h-2.23Z"/><rect x="147.99" y="182.65" width="3.94" height="3.34" rx=".85" ry=".85" transform="translate(299.92 368.63) rotate(180)" fill="#007091"/><path d="M151.08,186.19h-2.23c-.58,0-1.06-.47-1.06-1.05v-1.63c0-.58.47-1.06,1.06-1.06h2.23c.58,0,1.06.47,1.06,1.06v1.63c0,.58-.47,1.05-1.06,1.05ZM148.84,182.85c-.36,0-.65.29-.65.65v1.63c0,.36.29.65.65.65h2.23c.36,0,.65-.29.65-.65v-1.63c0-.36-.29-.65-.65-.65h-2.23Z"/><rect x="141" y="182.65" width="3.94" height="3.34" rx=".85" ry=".85" transform="translate(285.94 368.63) rotate(180)" fill="#007091"/><path d="M144.09,186.19h-2.23c-.58,0-1.06-.47-1.06-1.05v-1.63c0-.58.47-1.06,1.06-1.06h2.23c.58,0,1.06.47,1.06,1.06v1.63c0,.58-.47,1.05-1.06,1.05ZM141.85,182.85c-.36,0-.65.29-.65.65v1.63c0,.36.29.65.65.65h2.23c.36,0,.65-.29.65-.65v-1.63c0-.36-.29-.65-.65-.65h-2.23Z"/><rect x="147.99" y="188.13" width="3.94" height="3.34" rx=".85" ry=".85" transform="translate(299.92 379.6) rotate(180)" fill="#007091"/><path d="M151.08,191.67h-2.23c-.58,0-1.06-.47-1.06-1.06v-1.63c0-.58.47-1.06,1.06-1.06h2.23c.58,0,1.06.47,1.06,1.06v1.63c0,.58-.47,1.06-1.06,1.06ZM148.84,188.34c-.36,0-.65.29-.65.65v1.63c0,.36.29.65.65.65h2.23c.36,0,.65-.29.65-.65v-1.63c0-.36-.29-.65-.65-.65h-2.23Z"/><rect x="141" y="188.13" width="3.94" height="3.34" rx=".85" ry=".85" transform="translate(285.94 379.6) rotate(180)" fill="#007091"/><path d="M144.09,191.67h-2.23c-.58,0-1.06-.47-1.06-1.06v-1.63c0-.58.47-1.06,1.06-1.06h2.23c.58,0,1.06.47,1.06,1.06v1.63c0,.58-.47,1.06-1.06,1.06ZM141.85,188.34c-.36,0-.65.29-.65.65v1.63c0,.36.29.65.65.65h2.23c.36,0,.65-.29.65-.65v-1.63c0-.36-.29-.65-.65-.65h-2.23Z"/></g></svg>