<?xml version="1.0" encoding="UTF-8"?><svg id="_03" xmlns="http://www.w3.org/2000/svg" width="512" height="512" viewBox="0 0 512 512"><path d="M86.53,39.63c-24.94,5.37-27.66,8.74-29.68,36.7-5.14-27.56-8.22-30.6-33.61-33.13,24.94-5.37,27.66-8.74,29.68-36.7,5.14,27.56,8.22,30.6,33.61,33.13Z" fill="#fdb0b5"/><path d="M57.07,80.24l-.71-3.81c-5.12-27.45-7.91-30.2-33.17-32.72l-3.17-.32,3.11-.67c24.81-5.34,27.28-8.39,29.28-36.25l.28-3.87.71,3.81c5.12,27.45,7.91,30.21,33.17,32.72l3.17.32-3.11.67c-24.81,5.34-27.28,8.39-29.28,36.25l-.28,3.87ZM26.36,43.03c21.78,2.42,25.66,6.14,30.28,29.54,1.97-23.77,5.4-27.91,26.77-32.76-21.78-2.42-25.66-6.14-30.28-29.54-1.97,23.77-5.4,27.91-26.77,32.76Z"/><path d="M509.04,143.11c-22.2.54-25.08,2.98-31.33,26.57.07-24.41-2.08-27.51-23.38-33.8,22.2-.54,25.08-2.98,31.33-26.57-.07,24.41,2.08,27.51,23.38,33.8Z" fill="#fdb0b5"/><path d="M477.2,173.56v-3.88c.08-24.27-1.86-27.07-23.01-33.32l-3.06-.9,3.19-.08c22.04-.54,24.64-2.74,30.86-26.2l.99-3.75v3.88c-.08,24.27,1.86,27.07,23.01,33.32l3.05.9-3.18.08c-22.04.54-24.64,2.74-30.86,26.2l-.99,3.75ZM457.41,136.29c17.82,5.52,20.59,9.41,20.79,29.67,5.44-19.52,9.13-22.56,27.76-23.26-17.81-5.51-20.59-9.41-20.79-29.68-5.44,19.52-9.13,22.56-27.76,23.26Z"/><path d="M35.82,159.23c-12.94,2.79-14.35,4.53-15.4,19.04-2.67-14.3-4.27-15.88-17.44-17.19,12.94-2.79,14.35-4.53,15.4-19.04,2.67,14.3,4.27,15.88,17.44,17.19Z" fill="#fdb0b5"/><path d="M20.64,182.17l-.71-3.81c-2.63-14.08-4.06-15.49-17-16.78l-3.17-.32,3.11-.67c12.71-2.74,13.97-4.3,15.01-18.59l.28-3.87.71,3.81c2.63,14.08,4.06,15.49,17,16.78l3.17.32-3.11.67c-12.71,2.74-13.98,4.3-15.01,18.59l-.28,3.87ZM5.97,160.91c9.69,1.23,12.04,3.47,14.24,13.77,1.03-10.48,3.12-12.97,12.61-15.29-9.69-1.23-12.04-3.47-14.25-13.77-1.03,10.48-3.12,12.97-12.61,15.28Z"/><path d="M464.58,21.54c-12.94,2.79-14.35,4.53-15.4,19.04-2.67-14.3-4.27-15.88-17.44-17.19,12.94-2.79,14.35-4.53,15.4-19.04,2.67,14.3,4.27,15.88,17.44,17.19Z" fill="#fdb0b5"/><path d="M449.4,44.49l-.71-3.81c-2.63-14.08-4.06-15.49-17-16.78l-3.17-.32,3.11-.67c12.71-2.74,13.98-4.3,15.01-18.59l.28-3.87.71,3.81c2.63,14.08,4.06,15.49,17,16.78l3.17.32-3.11.67c-12.71,2.74-13.98,4.3-15,18.59l-.28,3.87ZM434.73,23.23c9.69,1.23,12.04,3.47,14.25,13.77,1.03-10.48,3.12-12.97,12.61-15.28-9.69-1.23-12.04-3.47-14.24-13.77-1.03,10.48-3.12,12.97-12.61,15.29Z"/><path d="M444.5,154.86c-15.37-51.5-83.5-88.51-131.65-67.27-25.21,11.12-40.82,26.71-76.07,15.81-35.05-10.83-70.25-29.09-106.86-11.26-27.31,13.3-49.88,38.28-58.12,69.5-11.47,43.42,4.44,91.43,40.12,119.72,3.42,39.74,8.19,73.57,11.28,100.19,12.81,110.46,39.68,130.81,54.44,129.43,11.36-1.06,15.88-15.92,18.34-24.1,9.84-32.79,10.6-59.49,21.71-92.23,4.93-14.52,18.89-45.03,35.29-48.66,27.89-6.17,49.19,46.52,82.29,71.29,40.29,30.15,133.21,53.37,140.43,12.82,2.85-16.01-46.11-29.56-70.82-69.93-13.76-22.48-15.74-46.84-14.96-64.94,51.77-28.33,70.14-88.23,54.58-140.38Z" fill="#fff"/><path d="M176.36,511.54c-10.62,0-39.91-11.34-53.67-129.93-.85-7.31-1.82-15.18-2.86-23.52-2.78-22.37-5.92-47.72-8.4-76.47-35.52-28.27-51.64-76.5-40.13-120.11,7.85-29.74,29.68-55.84,58.38-69.82,30.65-14.93,60.6-4.61,89.56,5.36,5.79,2,11.79,4.06,17.67,5.88,27.84,8.6,43.29.61,61.17-8.65,4.61-2.39,9.38-4.86,14.56-7.14,21.16-9.33,47.9-7.94,73.38,3.83,29,13.39,51.04,37.23,58.95,63.76,7.81,26.16,7.08,54.37-2.05,79.44-9.68,26.59-27.84,47.81-52.52,61.39-1.03,24.88,3.98,46.54,14.9,64.38,13.09,21.38,32.68,34.98,48.42,45.91,13.85,9.61,23.86,16.56,22.47,24.37-1.54,8.67-6.98,14.91-16.15,18.53-13.97,5.52-36,4.72-62.03-2.24-23.92-6.4-47.48-17.17-63.03-28.8-12.91-9.67-23.84-23.32-34.42-36.53-16.49-20.59-30.72-38.38-47.46-34.67-15.84,3.51-29.77,33.15-34.93,48.33-5.96,17.55-9,33.71-11.94,49.34-2.56,13.6-5.2,27.67-9.77,42.87-2.45,8.16-7.01,23.35-18.77,24.45-.4.04-.84.06-1.32.06ZM162.71,85.2c-10.78,0-21.64,2.07-32.57,7.39-28.45,13.85-50.07,39.71-57.85,69.18-11.43,43.3,4.62,91.2,39.95,119.2l.17.13.02.21c2.48,28.82,5.63,54.23,8.42,76.65,1.04,8.34,2.01,16.22,2.86,23.53,5.65,48.76,14.55,84.59,26.43,106.48,11.28,20.77,22.04,23.03,27.47,22.51,11.09-1.04,15.52-15.81,17.9-23.74,4.55-15.15,7.19-29.19,9.74-42.77,2.95-15.66,5.99-31.86,11.97-49.48,1.22-3.61,5.81-16.33,13.39-28.52,7.44-11.96,14.93-18.85,22.27-20.47,17.36-3.84,31.77,14.17,48.46,35.02,10.53,13.16,21.42,26.76,34.24,36.35,24.93,18.66,69.93,34.39,102.06,34.39,8.43,0,15.97-1.08,22.04-3.48,8.83-3.49,14.06-9.47,15.54-17.77,1.28-7.18-8.51-13.97-22.05-23.38-15.82-10.98-35.5-24.65-48.7-46.21-11.06-18.08-16.12-40.02-15.04-65.22v-.28s.26-.13.26-.13c24.59-13.45,42.68-34.54,52.31-60.99,9.06-24.86,9.78-52.85,2.03-78.81h0c-7.83-26.26-29.67-49.86-58.41-63.14-25.21-11.64-51.66-13.04-72.55-3.82-5.15,2.27-9.9,4.73-14.5,7.11-18.08,9.36-33.69,17.44-61.92,8.72-5.9-1.82-11.9-3.89-17.7-5.88-18.38-6.33-37.16-12.8-56.23-12.8Z"/><path d="M263.08,136.97s-35.59-.4-71.86-3.6c-120.92-10.68-112.01-114.91-20.88-127.34,21.12-2.88,53.41.69,83.52,19.44,0,0,148.69,81.15,136.75-21.13,0,0,112.01,136.86-127.54,132.63Z" fill="#a6eddf"/><path d="M273.81,137.57c-3.52,0-7.09-.03-10.74-.1-.37,0-36.03-.44-71.89-3.6-28.53-2.52-52.05-10.57-68.03-23.29-14.1-11.22-22.07-25.97-22.43-41.54-.62-25.93,20.89-56.87,69.56-63.51,10.11-1.38,46.02-4.05,83.85,19.51.85.46,87.56,47.3,122.29,23.86,11.62-7.84,16.23-22.82,13.7-44.51l-.2-1.7,1.08,1.32c.4.49,39.8,49.33,21.27,87.57-14.79,30.53-61.36,45.98-138.47,45.98ZM184.02,5.67c-6.14,0-10.84.47-13.6.85-48.06,6.56-69.3,36.99-68.7,62.49.36,15.26,8.2,29.75,22.06,40.78,15.82,12.59,39.16,20.57,67.49,23.08,35.83,3.17,71.46,3.6,71.82,3.6h0c83.13,1.47,133-13.78,148.29-45.31,5.26-10.85,8.9-29.62-3.62-57.47-6.06-13.47-13.67-24.01-16.45-27.65,2.13,21.15-2.69,35.85-14.33,43.7-10.18,6.87-31.48,11.95-75.13-2.91-26.02-8.86-48-20.79-48.22-20.91-27.23-16.96-53.43-20.24-69.61-20.24Z"/><path d="M274.01,88.1c35.45,4.48,70.8-2,99.19-24.76,12.93-10.37,19.13-28.56,18.07-45.98-2.14,81.94-137.41,8.11-137.41,8.11C223.75,6.72,191.47,3.15,170.35,6.03c-28.86,3.94-49.45,17.08-60.31,33.54,55.21,14.08,107.04,41.34,163.98,48.53Z" fill="#fff"/><path d="M294.71,89.93c-6.76,0-13.68-.44-20.76-1.34-34.41-4.35-67.48-16.2-99.46-27.66-21-7.52-42.71-15.3-64.58-20.88l-.68-.17.39-.59c11.91-18.06,33.46-30.05,60.66-33.76,10.11-1.38,46.02-4.04,83.85,19.51.82.44,84.54,45.67,120.4,25.02,10.36-5.97,15.83-16.98,16.24-32.73l1-.02c1.13,18.68-5.86,36.46-18.26,46.4-21.58,17.3-48.53,26.21-78.81,26.21ZM110.84,39.26c21.69,5.58,43.19,13.28,63.98,20.73,31.93,11.44,64.95,23.28,99.25,27.61,38.46,4.86,72.63-3.67,98.81-24.66,9.63-7.72,15.93-20.28,17.57-34.3-2.27,10.22-7.44,17.7-15.43,22.3-6.79,3.91-15.25,5.5-24.53,5.5-40.37,0-96.19-30.15-96.88-30.53C216.06,2.51,180.44,5.16,170.41,6.52c-26.62,3.63-47.74,15.25-59.57,32.74Z"/><path d="M412.4,55.62c-11.11,27.89-40.7,45.12-68.02,54.21-29.59,9.85-61.46,8.47-91.67,2.58-51.8-10.11-100.12-35.3-151.43-47.23-1.74,30.61,25.87,62.53,89.94,68.19,36.26,3.2,71.86,3.6,71.86,3.6,145.96,2.58,161.4-47.23,151.19-86.54-.57,1.75-1.18,3.49-1.86,5.19Z" fill="#00baac"/><path d="M273.75,137.56c-3.5,0-7.06-.03-10.68-.1-.35,0-36.03-.44-71.89-3.6-29.74-2.63-53.91-11.22-69.92-24.85-14.12-12.03-21.39-27.6-20.47-43.86l.03-.59.58.13c24.01,5.58,47.75,14.21,70.7,22.54,26.13,9.49,53.15,19.31,80.7,24.68,35.51,6.93,65.42,6.1,91.42-2.56,19.91-6.62,55.17-22.44,67.71-53.92h0c.64-1.59,1.24-3.28,1.85-5.16l.53-1.63.43,1.66c5.18,19.95,2.42,36.91-8.21,50.41-19.27,24.47-63.92,36.85-132.79,36.85ZM101.76,65.8c-.7,15.72,6.44,30.77,20.15,42.45,15.85,13.5,39.83,22.01,69.36,24.62,35.83,3.17,71.46,3.6,71.82,3.6,74.6,1.33,122.63-10.92,142.67-36.38,10.13-12.86,12.97-28.96,8.44-47.88-.44,1.27-.87,2.45-1.33,3.59h0c-12.69,31.86-48.26,47.83-68.33,54.5-26.17,8.71-56.24,9.56-91.93,2.59-27.63-5.39-54.69-15.22-80.85-24.73-22.74-8.26-46.25-16.8-70.01-22.37Z"/><path d="M276.72,200.12c.29,32.85,27.11,59.21,59.86,58.91,2.63-.03,5.28-.2,7.84-.58,2.44-.36,4.85-.84,7.17-1.49.91-.22,1.79-.49,2.66-.79.77-.25,1.55-.51,2.32-.8,5.64-2.08,10.88-4.99,15.55-8.62,14.29-10.96,23.42-28.3,23.25-47.72-.26-27.66-19.32-50.7-44.9-57.1-2.33-.61-4.71-1.05-7.15-1.35-.2-.03-.39-.05-.59-.06-2.38-.28-4.81-.4-7.24-.38-32.76.31-59.08,27.15-58.77,59.98Z" fill="#fdca4d"/><path d="M336.02,259.53c-15.77,0-30.62-6.08-41.89-17.17-11.41-11.22-17.77-26.22-17.91-42.24-.15-16.01,5.94-31.12,17.13-42.54,11.19-11.42,26.16-17.79,42.14-17.94,2.46-.03,4.91.11,7.3.38.2.01.4.03.62.07,2.46.3,4.89.75,7.19,1.36,26.4,6.6,45.02,30.27,45.27,57.57.17,19.02-8.37,36.56-23.44,48.12-4.73,3.67-10.01,6.6-15.68,8.69-.78.29-1.56.55-2.34.81-1.02.34-1.88.6-2.7.8-2.21.62-4.64,1.13-7.22,1.5-2.43.36-5.09.55-7.91.58-.19,0-.38,0-.57,0ZM336.04,140.64c-.18,0-.36,0-.54,0-15.71.15-30.43,6.41-41.43,17.64-11.01,11.23-16.99,26.09-16.85,41.83h0c.14,15.75,6.39,30.5,17.61,41.53,11.21,11.03,26.08,17.03,41.75,16.88,2.77-.03,5.38-.22,7.77-.57,2.54-.37,4.93-.87,7.11-1.48.81-.2,1.64-.44,2.63-.78.77-.25,1.54-.51,2.31-.79,5.58-2.06,10.77-4.94,15.42-8.55,14.82-11.37,23.22-28.62,23.05-47.32-.25-26.85-18.56-50.13-44.52-56.62-2.26-.59-4.64-1.04-7.08-1.34-.21-.03-.38-.05-.57-.06-2.19-.25-4.43-.38-6.66-.38Z"/><path d="M372.01,153.16l-.95-.3c1.77-5.6,4.24-10.95,7.34-15.91,4.59-7.33,7.15-9.5,11.04-12.77l.3-.26.64.76-.3.26c-3.81,3.22-6.33,5.34-10.83,12.54-3.06,4.89-5.49,10.16-7.23,15.68Z"/><path d="M384.76,166.37l-.69-.72c.11-.1.21-.21.31-.32.12-.12.24-.25.37-.37.77-.8,1.64-1.61,2.3-2.24,1.43-1.33,2.92-2.61,4.44-3.83,1.94-1.56,3.97-3.04,6.04-4.4,4.47-2.95,9.26-5.46,14.23-7.45l.37.93c-4.91,1.96-9.64,4.44-14.05,7.36-2.04,1.34-4.05,2.81-5.96,4.35-1.5,1.2-2.98,2.47-4.38,3.78-.66.61-1.51,1.42-2.28,2.21-.13.13-.25.25-.36.36-.11.12-.23.23-.34.35Z"/><path d="M393.12,184.39l-.35-.94c.14-.05.28-.11.41-.16.14-.06.29-.12.43-.17.47-.18.94-.35,1.43-.53,4.51-1.67,9.28-2.95,14.18-3.78,4.88-.83,9.91-1.21,14.98-1.11l-.02,1c-5-.09-9.97.28-14.79,1.1-4.84.83-9.55,2.09-14.01,3.74-.49.18-.95.35-1.42.52-.13.05-.27.1-.4.16-.15.06-.29.12-.44.17Z"/><path d="M328.33,197.85c.45,27.33,12.34,50.26,28.25,57.52,5.64-2.08,10.88-4.99,15.55-8.62,14.29-10.96,23.42-28.3,23.25-47.72-.26-27.66-19.32-50.7-44.9-57.1-13.44,9.55-22.56,31.07-22.15,55.91Z"/><path d="M356.56,255.91l-.19-.09c-16.62-7.59-28.09-30.88-28.54-57.97h0c-.4-24.28,8.37-46.39,22.36-56.33l.19-.13.22.06c26.41,6.6,45.03,30.28,45.28,57.58.17,19.02-8.37,36.56-23.44,48.12-4.73,3.67-10.01,6.6-15.68,8.69l-.19.07ZM350.58,142.48c-13.62,9.82-22.15,31.52-21.75,55.36h0c.44,26.19,11.84,49.58,27.77,56.99,5.5-2.05,10.63-4.91,15.22-8.48,14.82-11.37,23.22-28.62,23.05-47.32-.25-26.77-18.45-49.99-44.3-56.56Z"/><path d="M118.62,197.84c-1.2,32.83,24.4,60.38,57.14,61.56,2.63.09,5.29.04,7.86-.22,2.46-.25,4.88-.62,7.23-1.17.91-.18,1.81-.41,2.69-.67.79-.22,1.57-.44,2.36-.69,5.73-1.82,11.1-4.5,15.92-7.91,14.77-10.3,24.68-27.21,25.38-46.61.99-27.65-17.01-51.53-42.27-59.07-2.3-.72-4.66-1.27-7.08-1.67-.2-.04-.39-.07-.59-.09-2.36-.38-4.79-.62-7.22-.71-32.74-1.18-60.25,24.44-61.43,57.25Z" fill="#fdca4d"/><path d="M178.12,259.94c-.78,0-1.57-.01-2.38-.04-15.97-.58-30.76-7.35-41.64-19.07-10.89-11.73-16.56-27-15.98-43.01.57-16,7.34-30.82,19.04-41.72,11.7-10.9,26.95-16.59,42.91-16.01,2.45.09,4.9.33,7.28.71.2.02.4.05.61.1,2.45.41,4.86.98,7.12,1.68,26.07,7.79,43.6,32.28,42.62,59.57-.69,19.01-10.02,36.14-25.6,47.01-4.89,3.46-10.3,6.14-16.06,7.97-.79.26-1.58.48-2.38.7-1.06.3-1.92.52-2.73.68-2.24.52-4.7.92-7.28,1.17-1.74.18-3.6.27-5.54.27ZM177.86,141.05c-14.91,0-29.05,5.56-40.02,15.78-11.51,10.72-18.15,25.29-18.72,41.02h0c-.57,15.74,5,30.76,15.71,42.29,10.7,11.53,25.24,18.19,40.95,18.75,2.77.1,5.39.02,7.79-.22,2.54-.25,4.95-.64,7.17-1.16.79-.15,1.63-.36,2.67-.66.78-.22,1.56-.44,2.34-.69,5.67-1.8,10.98-4.44,15.79-7.84,15.32-10.69,24.49-27.53,25.17-46.22.96-26.83-16.27-50.92-41.92-58.57-2.23-.7-4.59-1.25-7.02-1.66-.21-.04-.38-.07-.57-.09-2.36-.38-4.77-.62-7.18-.7-.72-.03-1.45-.04-2.17-.04Z"/><path d="M142.81,151.6c-1.44-4.12-4.66-10.93-8.63-16.86-4.72-7.06-7.31-9.11-11.21-12.21l-.31-.24.62-.78.31.24c3.98,3.16,6.61,5.25,11.42,12.44,4.02,6,7.29,12.91,8.75,17.09l-.94.33Z"/><path d="M129.81,164.3c-.1-.09-.65-.56-1.31-1.13-.91-.79-2.04-1.75-2.53-2.18-1.45-1.27-2.96-2.49-4.49-3.64-1.96-1.49-4.01-2.89-6.09-4.17-4.5-2.78-9.3-5.11-14.27-6.92l.34-.94c5.03,1.84,9.89,4.2,14.45,7.01,2.11,1.29,4.18,2.71,6.17,4.22,1.55,1.16,3.08,2.4,4.55,3.69.48.42,1.61,1.39,2.52,2.17.67.58,1.23,1.06,1.33,1.15l-.67.74Z"/><path d="M121.22,182.08c-.15-.05-.3-.11-.45-.16-.13-.05-.27-.1-.4-.14l-.17-.06c-.41-.14-.83-.28-1.26-.42-4.51-1.52-9.25-2.63-14.12-3.31-4.84-.67-9.83-.89-14.82-.65l-.05-1c5.05-.25,10.1-.03,15.01.65,4.93.69,9.74,1.82,14.29,3.35.43.14.85.28,1.27.42l.17.06c.14.05.29.1.43.15.14.05.28.11.42.15l-.32.95Z"/><path d="M170.28,197.9c-.78,27.32,10.05,50.77,25.62,58.74,5.73-1.82,11.1-4.5,15.92-7.91,14.77-10.3,24.68-27.21,25.38-46.61.99-27.65-17.01-51.53-42.27-59.07-13.86,8.93-23.94,30.02-24.65,54.85Z"/><path d="M195.85,257.19l-.18-.09c-16.26-8.33-26.66-32.12-25.89-59.2h.5s-.5,0-.5,0c.69-24.27,10.46-45.96,24.88-55.25l.19-.12.22.07c26.08,7.79,43.61,32.29,42.63,59.57-.69,19.01-10.02,36.14-25.6,47.01-4.89,3.46-10.3,6.14-16.06,7.97l-.2.06ZM195.01,143.6c-14.05,9.19-23.55,30.48-24.23,54.32-.75,26.18,9.59,50.07,25.16,58.19,5.59-1.8,10.84-4.42,15.59-7.78,15.32-10.69,24.49-27.53,25.17-46.22.96-26.75-16.17-50.78-41.69-58.51Z"/><path d="M278.89,249.81s6.67,75.01-20.17,75.54c-30.55.6-25.05-74.65-25.05-74.65,3.96,1.95,12.24,5.36,23.17,5.05,10.43-.3,18.19-3.85,22.05-5.94Z" fill="#fff"/><path d="M258.36,325.86c-4.83,0-9.05-1.88-12.57-5.59-6.84-7.21-11.04-21.13-12.49-41.36-1.07-15.02-.14-28.11-.13-28.24l.05-.74.67.33c4.96,2.44,12.97,5.29,22.93,5,7.59-.22,15.14-2.25,21.83-5.88l.67-.36.07.76c.01.13,1.2,13.72.53,29.17-.89,20.81-4.53,34.91-10.81,41.92-2.91,3.24-6.4,4.92-10.38,5-.12,0-.25,0-.37,0ZM234.12,251.48c-.38,6.39-2.51,52.39,12.39,68.11,3.4,3.59,7.48,5.33,12.19,5.27,3.69-.07,6.94-1.64,9.66-4.67,13.69-15.26,10.59-62.98,10.09-69.57-6.66,3.48-14.11,5.42-21.6,5.64-9.74.29-17.64-2.37-22.73-4.78Z"/><polygon points="266.64 322.5 266.14 322.47 264.65 254.79 265.65 254.77 267.15 322.46 266.64 322.5"/><rect x="248.91" y="255.28" width="1" height="68.04" transform="translate(-8.49 7.54) rotate(-1.7)"/><rect x="234.85" y="288.15" width="43.95" height="1" transform="translate(-5.32 4.83) rotate(-1.07)"/><ellipse cx="258.46" cy="228.64" rx="8.66" ry="11.89" fill="#fd5877"/><path d="M258.46,241.02c-5.05,0-9.16-5.56-9.16-12.38s4.11-12.39,9.16-12.39,9.16,5.56,9.16,12.39-4.11,12.38-9.16,12.38ZM258.46,217.25c-4.5,0-8.16,5.11-8.16,11.39s3.66,11.38,8.16,11.38,8.16-5.11,8.16-11.38-3.66-11.39-8.16-11.39Z"/><path d="M131.67,346.51c-4.24.1-8.45.3-12.66.63-9.2.65-18.32,1.76-27.44,3.01-13.81,1.86-27.59,4.02-41.48,5.35-14.01,1.36-41.93,2.11-37.39-20.01,3.68-18.07,24.99-35.57,38.65-46.27,13.08-10.24,27.22-18.85,41.78-26.79,3.71,4.74,7.79,9.19,12.28,13.33-25.81,13.68-51.58,29.5-69.22,53.12-.2.28-6.92,8.94-6.97,8.94.33,1.83,14.39.68,16.07.55,10.48-.75,20.88-2.33,31.25-3.82,4.01-.58,8.05-1.15,12.06-1.71,4.26-.58,8.5-1.13,12.76-1.63,5.16-.6,10.35-1.13,15.54-1.53,4.91-.38,9.85-.65,14.79-.75,3.73-.08,6.22,1.76,7.47,4.29,2.61,5.15.1,13.1-7.47,13.28Z"/><path d="M163.35,342.11c-.69-.95-1.24-1.41-1.24-1.41,6.2-10.59-2.83-13.94-2.83-13.94,3.2-5,2.05-8.17.19-10.06-1.73-1.76-4.43-1.95-6.53-.67-12.87,7.82-34.75,2.13-34.75,2.13,0,0,1.12-23.64-9.95-20.83-4.88,1.24-7.63,13.81-8.6,23.94,0,0-7.08-4.43-10.01,2.36-2.92,6.79.05,35.5,10.67,36.76,6.02.71,7.85-3.97,7.85-3.97,34.53,14.99,61.5-5.63,55.2-14.3Z" fill="#fff"/><path d="M132.59,362.23c-7.35,0-15.56-1.49-24.2-5.17-.68,1.23-2.99,4.43-8.14,3.82-2.65-.31-4.99-2.2-6.96-5.62-5.26-9.12-6.4-26.52-4.11-31.84.86-2,2.16-3.29,3.85-3.82,2.43-.76,4.99.25,6.19.85,1.11-10.75,4.01-22.39,8.9-23.63,2.16-.55,4.05-.18,5.61,1.09,5.19,4.24,5.06,17.29,4.98,19.84,2.98.7,22.37,4.89,33.98-2.16,2.37-1.44,5.31-1.13,7.15.75,1.8,1.83,3.24,5.07.17,10.19,1.06.53,3.34,1.94,4.32,4.69.95,2.66.42,5.82-1.59,9.38.24.25.6.65,1.01,1.21h0c1.75,2.41,1.22,5.69-1.45,9.02-4.78,5.95-15.68,11.39-29.72,11.39ZM107.88,355.75l.48.21c24.85,10.79,46.06,3.14,53.18-5.74,2.36-2.95,2.88-5.79,1.42-7.81-.64-.88-1.15-1.32-1.16-1.33l-.32-.27.21-.36c2.01-3.43,2.59-6.42,1.71-8.88-1.12-3.13-4.25-4.33-4.28-4.34l-.58-.22.33-.52c2.49-3.9,2.58-7.08.26-9.44-1.52-1.54-3.95-1.79-5.92-.6-6.76,4.11-15.96,4.48-22.49,4.07-7.04-.44-12.59-1.87-12.64-1.88l-.39-.1.02-.41c0-.15.65-15.15-4.6-19.43-1.32-1.08-2.87-1.37-4.73-.89-4.51,1.14-7.25,13.38-8.23,23.51l-.08.8-.68-.43s-3.25-1.99-6.05-1.12c-1.4.44-2.49,1.53-3.23,3.25-2.16,5.03-.98,22.22,4.05,30.95,1.8,3.12,3.89,4.85,6.21,5.12,5.57.65,7.31-3.61,7.33-3.65l.19-.48Z"/><path d="M136.88,333.77c-3.39,0-5.5-.43-5.55-.44l.21-.98c.13.03,13.66,2.74,27.48-6.02l.54.84c-8.7,5.52-17.29,6.59-22.67,6.59Z"/><path d="M136.4,347.8c-2.53,0-4.01-.21-4.05-.22l.15-.99c.14.02,13.73,1.96,29.38-6.34l.47.88c-10.8,5.73-20.66,6.66-25.95,6.66Z"/><rect x="99.95" y="320.79" width="1" height="10.8" transform="translate(-55.84 22.77) rotate(-10.14)"/><rect x="106.31" y="348.5" width="1" height="8.14" transform="translate(-110.21 54.89) rotate(-19.24)"/><path d="M462.75,349.88c-16.79-1.61-33.41-4.42-50.1-6.48-4.61-.58-9.22-1.08-13.86-1.48-.88-.1-1.78-.18-2.66-.23-4.99-.4-9.98-.7-14.99-.8-11.25-.25-11.3-17.82,0-17.57,3.46.08,6.92.23,10.38.45,8.2.5,16.37,1.36,24.49,2.38,6.77.83,13.53,1.81,20.3,2.79,10.38,1.48,20.78,3.06,31.25,3.82,1.68.13,15.74,1.28,16.07-.55-.08,0-6.79-8.66-6.97-8.94-15.54-20.81-37.39-35.57-60.05-48.15,4.21-4.29,8.05-8.86,11.43-13.66,11.6,6.65,22.88,13.86,33.46,22.14,13.66,10.69,34.94,28.19,38.65,46.27,4.51,22.12-23.38,21.36-37.39,20.01Z"/><path d="M341.3,334.15c.69-.95,1.24-1.41,1.24-1.41-6.2-10.59,2.83-13.94,2.83-13.94-3.2-5-2.05-8.17-.19-10.06,1.73-1.76,4.43-1.95,6.53-.67,12.87,7.82,34.75,2.13,34.75,2.13,0,0-1.11-23.64,9.95-20.83,4.88,1.24,7.63,13.81,8.6,23.94,0,0,7.08-4.43,10.01,2.36,2.92,6.79-.05,35.5-10.67,36.76-6.02.71-7.85-3.97-7.85-3.97-34.53,14.99-61.5-5.63-55.2-14.3Z" fill="#fff"/><path d="M372.07,354.26c-14.04,0-24.95-5.44-29.72-11.39-2.67-3.33-3.19-6.61-1.45-9.02h0c.41-.56.77-.97,1.01-1.21-2.01-3.56-2.54-6.71-1.59-9.38.98-2.75,3.27-4.17,4.32-4.69-3.07-5.12-1.62-8.36.17-10.19,1.84-1.88,4.78-2.18,7.15-.75,11.61,7.05,30.99,2.87,33.98,2.16-.08-2.55-.21-15.6,4.98-19.84,1.56-1.27,3.44-1.64,5.61-1.09,4.89,1.24,7.79,12.88,8.9,23.63,1.2-.6,3.76-1.61,6.19-.85,1.69.53,2.99,1.81,3.85,3.82,2.29,5.32,1.15,22.72-4.11,31.84-1.97,3.41-4.31,5.3-6.96,5.62-5.16.62-7.46-2.59-8.14-3.82-8.64,3.68-16.85,5.17-24.2,5.17ZM348.8,307.73c-1.22,0-2.4.46-3.27,1.35-2.32,2.37-2.24,5.55.26,9.44l.33.52-.58.22s-3.18,1.22-4.29,4.35c-.87,2.46-.29,5.44,1.71,8.87l.21.36-.32.27s-.52.45-1.16,1.33h0c-1.46,2.01-.95,4.86,1.42,7.81,7.12,8.88,28.33,16.53,53.18,5.74l.47-.21.19.48c.07.18,1.76,4.3,7.33,3.65,2.32-.28,4.41-2,6.21-5.12,5.03-8.73,6.22-25.92,4.05-30.95-.74-1.72-1.83-2.82-3.23-3.26-2.81-.88-6.02,1.1-6.05,1.12l-.69.43-.08-.8c-.98-10.13-3.72-22.36-8.23-23.5-1.86-.47-3.41-.18-4.73.89-5.25,4.28-4.61,19.28-4.6,19.43l.02.41-.39.1c-.06.01-5.6,1.44-12.64,1.88-6.53.41-15.73.04-22.49-4.07-.83-.51-1.75-.75-2.64-.75Z"/><path d="M367.78,325.8c-5.38,0-13.97-1.07-22.67-6.59l.54-.84c13.84,8.77,27.35,6.05,27.48,6.02l.21.98c-.05.01-2.16.44-5.55.44Z"/><path d="M368.26,339.84c-5.29,0-15.15-.93-25.95-6.66l.47-.88c15.67,8.31,29.25,6.36,29.38,6.34l.15.99s-1.53.22-4.05.22Z"/><rect x="398.8" y="317.72" width="10.8" height="1" transform="translate(19.88 660.18) rotate(-79.87)"/><rect x="393.77" y="344.11" width="8.14" height="1" transform="translate(-58.82 606.31) rotate(-70.71)"/></svg>