<svg width="323" height="233" viewBox="0 0 323 233" fill="none" xmlns="http://www.w3.org/2000/svg">
<mask id="mask0_0_161" style="mask-type:alpha" maskUnits="userSpaceOnUse" x="0" y="0" width="323" height="233">
<path d="M193.437 21.626C259.18 56.501 298.642 62.69 315.996 109.123C333.35 155.556 316.944 213.347 254.813 227.584C192.682 241.822 190.996 218.217 97.223 221.973C3.45103 225.73 -29.867 104.493 33.183 49.165C96.233 -6.16299 127.694 -13.248 193.437 21.626Z" fill="white"/>
</mask>
<g mask="url(#mask0_0_161)">
<path fill-rule="evenodd" clip-rule="evenodd" d="M162.561 59.115C172.721 59.115 183.31 61.251 194.445 63.404C200.353 64.546 219.093 68.079 250.666 74.002C262.608 76.242 270.473 87.739 268.233 99.681C267.944 101.221 267.492 102.725 266.883 104.168L265.867 106.581L191.952 100.005L183.169 150.11H141.953L132.783 100.759L70.549 112.832L66.496 100.357C63.931 92.462 68.25 83.983 76.144 81.415C107.768 71.128 126.277 65.344 131.673 64.063C140.917 61.868 152.401 59.115 162.561 59.115Z" fill="#EDEEF2" stroke="#01133B" stroke-width="1.32" stroke-linecap="round" stroke-linejoin="round"/>
<path d="M178.333 60.603C185.609 61.885 190.878 68.799 194.141 81.343L187.416 94.656M147.062 61.043C139.786 62.325 134.516 69.238 131.253 81.783L137.979 95.096" stroke="#01133B" stroke-width="1.32" stroke-linecap="round" stroke-linejoin="round"/>
<path d="M250.843 104.485H72.712V209.723H250.843V104.485Z" fill="#DBE3FF"/>
<path d="M269.977 94.918H55.856V126.353H269.977V94.918Z" fill="#5578EC"/>
<path d="M88.758 108.13H82.491V113.597H88.758V108.13ZM104.425 108.13H98.158V113.597H104.425V108.13ZM232.897 108.13H127.404V113.597H232.897V108.13Z" fill="#DBE3FF"/>
<path d="M269.977 94.918H242.82V126.353H269.977V94.918Z" fill="#3553E5"/>
<path fill-rule="evenodd" clip-rule="evenodd" d="M55.856 94.918H72.568V126.353H55.856V94.918Z" fill="#3553E5"/>
<path d="M269.977 129.998H55.856V161.433H269.977V129.998Z" fill="#5578EC"/>
<path d="M88.758 143.21H82.491V148.677H88.758V143.21ZM104.425 143.21H98.158V148.677H104.425V143.21ZM232.897 143.21H127.404V148.677H232.897V143.21Z" fill="#DBE3FF"/>
<path d="M269.977 129.998H242.82V161.433H269.977V129.998Z" fill="#3553E5"/>
<path fill-rule="evenodd" clip-rule="evenodd" d="M55.856 129.998H72.568V161.433H55.856V129.998Z" fill="#3553E5"/>
<path d="M269.977 165.077H55.856V196.512H269.977V165.077Z" fill="#5578EC"/>
<path d="M88.758 178.289H82.491V183.756H88.758V178.289ZM104.425 178.289H98.158V183.756H104.425V178.289ZM232.897 178.289H127.404V183.756H232.897V178.289Z" fill="#DBE3FF"/>
<path d="M269.977 165.077H242.82V196.512H269.977V165.077Z" fill="#3553E5"/>
<path fill-rule="evenodd" clip-rule="evenodd" d="M55.856 165.077H72.568V196.512H55.856V165.077Z" fill="#3553E5"/>
<path d="M269.977 200.157H55.856V231.591H269.977V200.157Z" fill="#5578EC"/>
<path d="M88.758 213.369H82.491V218.836H88.758V213.369ZM104.425 213.369H98.158V218.836H104.425V213.369ZM232.897 213.369H127.404V218.836H232.897V213.369Z" fill="#DBE3FF"/>
<path d="M269.977 200.157H242.82V231.591H269.977V200.157Z" fill="#3553E5"/>
<path fill-rule="evenodd" clip-rule="evenodd" d="M55.856 200.157H72.568V231.591H55.856V200.157Z" fill="#3553E5"/>
<mask id="mask1_0_161" style="mask-type:alpha" maskUnits="userSpaceOnUse" x="88" y="60" width="143" height="122">
<path d="M159.92 60.634C171.338 59.941 175.495 70.646 176.107 85.81C176.719 100.975 194.623 99.649 201.6 113.597C208.576 127.545 198.684 139.931 213.682 151.944C223.681 159.952 229.445 169.819 230.976 181.544L88.888 180.037C88.418 166.858 93.054 157.666 102.797 152.462C117.411 144.656 105.577 122.686 117.411 107.888C129.244 93.09 134.289 93.09 138.453 80.554C142.618 68.017 148.502 61.328 159.92 60.634Z" fill="white"/>
</mask>
<g mask="url(#mask1_0_161)">
<path d="M159.92 60.634C171.338 59.941 175.495 70.646 176.107 85.81C176.719 100.975 194.623 99.649 201.6 113.597C208.576 127.545 198.684 139.931 213.682 151.944C223.681 159.952 229.445 169.819 230.976 181.544L88.888 180.037C88.418 166.858 93.054 157.666 102.797 152.462C117.411 144.656 105.577 122.686 117.411 107.888C129.244 93.09 134.289 93.09 138.453 80.554C142.618 68.017 148.502 61.328 159.92 60.634Z" fill="#01133B"/>
<path d="M144.956 119.998C145.248 119.998 145.528 119.882 145.734 119.676C145.94 119.469 146.056 119.19 146.056 118.898C146.056 118.606 145.94 118.326 145.734 118.12C145.528 117.914 145.248 117.798 144.956 117.798C144.664 117.798 144.385 117.914 144.178 118.12C143.972 118.326 143.856 118.606 143.856 118.898C143.856 119.19 143.972 119.469 144.178 119.676C144.385 119.882 144.664 119.998 144.956 119.998ZM137.476 137.158C137.621 137.158 137.764 137.129 137.897 137.074C138.03 137.019 138.152 136.938 138.254 136.836C138.356 136.734 138.437 136.612 138.492 136.479C138.548 136.345 138.576 136.202 138.576 136.058C138.576 135.913 138.548 135.77 138.492 135.637C138.437 135.504 138.356 135.382 138.254 135.28C138.152 135.178 138.03 135.097 137.897 135.042C137.764 134.986 137.621 134.958 137.476 134.958C137.184 134.958 136.905 135.074 136.698 135.28C136.492 135.486 136.376 135.766 136.376 136.058C136.376 136.35 136.492 136.629 136.698 136.836C136.905 137.042 137.184 137.158 137.476 137.158ZM174.876 126.158C175.021 126.158 175.164 126.129 175.297 126.074C175.43 126.019 175.552 125.938 175.654 125.836C175.756 125.734 175.837 125.612 175.892 125.479C175.948 125.345 175.976 125.202 175.976 125.058C175.976 124.913 175.948 124.77 175.892 124.637C175.837 124.504 175.756 124.382 175.654 124.28C175.552 124.178 175.43 124.097 175.297 124.042C175.164 123.986 175.021 123.958 174.876 123.958C174.584 123.958 174.305 124.074 174.098 124.28C173.892 124.486 173.776 124.766 173.776 125.058C173.776 125.35 173.892 125.629 174.098 125.836C174.305 126.042 174.584 126.158 174.876 126.158ZM170.476 161.358C170.768 161.358 171.048 161.242 171.254 161.036C171.46 160.829 171.576 160.55 171.576 160.258C171.576 159.966 171.46 159.686 171.254 159.48C171.048 159.274 170.768 159.158 170.476 159.158C170.184 159.158 169.905 159.274 169.698 159.48C169.492 159.686 169.376 159.966 169.376 160.258C169.376 160.55 169.492 160.829 169.698 161.036C169.905 161.242 170.184 161.358 170.476 161.358ZM129.336 135.519C129.601 135.519 129.856 135.414 130.043 135.226C130.231 135.039 130.336 134.784 130.336 134.519C130.336 134.254 130.231 133.999 130.043 133.812C129.856 133.624 129.601 133.519 129.336 133.519C129.071 133.519 128.816 133.624 128.629 133.812C128.441 133.999 128.336 134.254 128.336 134.519C128.336 134.784 128.441 135.039 128.629 135.226C128.816 135.414 129.071 135.519 129.336 135.519ZM164.096 105.599C164.361 105.599 164.616 105.494 164.803 105.306C164.991 105.119 165.096 104.864 165.096 104.599C165.096 104.334 164.991 104.079 164.803 103.892C164.616 103.704 164.361 103.599 164.096 103.599C163.831 103.599 163.576 103.704 163.389 103.892C163.201 104.079 163.096 104.334 163.096 104.599C163.096 104.864 163.201 105.119 163.389 105.306C163.576 105.494 163.831 105.599 164.096 105.599ZM152.656 150.918C152.921 150.918 153.176 150.813 153.363 150.625C153.551 150.438 153.656 150.183 153.656 149.918C153.656 149.653 153.551 149.398 153.363 149.211C153.176 149.023 152.921 148.918 152.656 148.918C152.391 148.918 152.136 149.023 151.949 149.211C151.761 149.398 151.656 149.653 151.656 149.918C151.656 150.183 151.761 150.438 151.949 150.625C152.136 150.813 152.391 150.918 152.656 150.918ZM187.856 155.318C188.121 155.318 188.376 155.213 188.563 155.025C188.751 154.838 188.856 154.583 188.856 154.318C188.856 154.053 188.751 153.798 188.563 153.611C188.376 153.423 188.121 153.318 187.856 153.318C187.591 153.318 187.336 153.423 187.149 153.611C186.961 153.798 186.856 154.053 186.856 154.318C186.856 154.583 186.961 154.838 187.149 155.025C187.336 155.213 187.591 155.318 187.856 155.318ZM129.776 164.118C130.041 164.118 130.296 164.013 130.483 163.825C130.671 163.638 130.776 163.383 130.776 163.118C130.776 162.853 130.671 162.598 130.483 162.411C130.296 162.223 130.041 162.118 129.776 162.118C129.511 162.118 129.256 162.223 129.069 162.411C128.881 162.598 128.776 162.853 128.776 163.118C128.776 163.383 128.881 163.638 129.069 163.825C129.256 164.013 129.511 164.118 129.776 164.118ZM147.376 93.718C147.641 93.718 147.896 93.6126 148.083 93.4251C148.271 93.2375 148.376 92.9832 148.376 92.718C148.376 92.4527 148.271 92.1984 148.083 92.0108C147.896 91.8233 147.641 91.718 147.376 91.718C147.111 91.718 146.856 91.8233 146.669 92.0108C146.481 92.1984 146.376 92.4527 146.376 92.718C146.376 92.9832 146.481 93.2375 146.669 93.4251C146.856 93.6126 147.111 93.718 147.376 93.718ZM129.776 116.599C130.041 116.599 130.296 116.494 130.483 116.306C130.671 116.119 130.776 115.864 130.776 115.599C130.776 115.334 130.671 115.079 130.483 114.892C130.296 114.704 130.041 114.599 129.776 114.599C129.511 114.599 129.256 114.704 129.069 114.892C128.881 115.079 128.776 115.334 128.776 115.599C128.776 115.864 128.881 116.119 129.069 116.306C129.256 116.494 129.511 116.599 129.776 116.599ZM151.336 153.559C151.601 153.559 151.856 153.454 152.043 153.266C152.231 153.079 152.336 152.824 152.336 152.559C152.336 152.294 152.231 152.039 152.043 151.852C151.856 151.664 151.601 151.559 151.336 151.559C151.071 151.559 150.816 151.664 150.629 151.852C150.441 152.039 150.336 152.294 150.336 152.559C150.336 152.824 150.441 153.079 150.629 153.266C150.816 153.454 151.071 153.559 151.336 153.559ZM173.336 163.678C173.601 163.678 173.856 163.573 174.043 163.385C174.231 163.198 174.336 162.943 174.336 162.678C174.336 162.413 174.231 162.158 174.043 161.971C173.856 161.783 173.601 161.678 173.336 161.678C173.071 161.678 172.816 161.783 172.629 161.971C172.441 162.158 172.336 162.413 172.336 162.678C172.336 162.943 172.441 163.198 172.629 163.385C172.816 163.573 173.071 163.678 173.336 163.678ZM173.996 142.338C174.261 142.338 174.516 142.233 174.703 142.045C174.891 141.858 174.996 141.603 174.996 141.338C174.996 141.073 174.891 140.818 174.703 140.631C174.516 140.443 174.261 140.338 173.996 140.338C173.731 140.338 173.476 140.443 173.289 140.631C173.101 140.818 172.996 141.073 172.996 141.338C172.996 141.603 173.101 141.858 173.289 142.045C173.476 142.233 173.731 142.338 173.996 142.338ZM173.556 118.138C173.821 118.138 174.076 118.033 174.263 117.845C174.451 117.658 174.556 117.403 174.556 117.138C174.556 116.873 174.451 116.618 174.263 116.431C174.076 116.243 173.821 116.138 173.556 116.138C173.291 116.138 173.036 116.243 172.849 116.431C172.661 116.618 172.556 116.873 172.556 117.138C172.556 117.403 172.661 117.658 172.849 117.845C173.036 118.033 173.291 118.138 173.556 118.138ZM153.756 130.019C154.021 130.019 154.276 129.914 154.463 129.726C154.651 129.539 154.756 129.284 154.756 129.019C154.756 128.754 154.651 128.499 154.463 128.312C154.276 128.124 154.021 128.019 153.756 128.019C153.491 128.019 153.236 128.124 153.049 128.312C152.861 128.499 152.756 128.754 152.756 129.019C152.756 129.284 152.861 129.539 153.049 129.726C153.236 129.914 153.491 130.019 153.756 130.019ZM187.856 130.238C188.121 130.238 188.376 130.133 188.563 129.945C188.751 129.758 188.856 129.503 188.856 129.238C188.856 128.973 188.751 128.718 188.563 128.531C188.376 128.343 188.121 128.238 187.856 128.238C187.591 128.238 187.336 128.343 187.149 128.531C186.961 128.718 186.856 128.973 186.856 129.238C186.856 129.503 186.961 129.758 187.149 129.945C187.336 130.133 187.591 130.238 187.856 130.238ZM168.298 112.005C168.657 114.041 167.616 116.131 165.655 117.004C165.064 117.267 164.424 117.402 163.777 117.398C163.13 117.395 162.491 117.254 161.903 116.985C161.704 116.895 161.722 116.633 161.9 116.521C162.841 115.927 163.86 115.167 165.032 114.244C166.143 113.369 167.12 112.567 167.851 111.881C168.027 111.715 168.26 111.789 168.298 112.005ZM161.896 108.563C162.721 108.197 163.636 108.083 164.526 108.234C165.415 108.386 166.241 108.796 166.898 109.415C166.929 109.441 166.959 109.469 166.988 109.495C168.911 108.091 170.276 107.267 170.436 107.464C170.682 107.769 167.955 110.399 164.344 113.338C160.733 116.278 157.606 118.413 157.359 118.109C157.203 117.916 158.231 116.799 159.916 115.263C159.884 115.211 159.842 115.145 159.798 115.069C159.72 114.932 159.649 114.792 159.585 114.649C158.547 112.318 159.582 109.593 161.896 108.563Z" fill="white"/>
</g>
<path fill-rule="evenodd" clip-rule="evenodd" d="M145.481 72.9C147.174 68.879 146.749 65.369 144.207 62.37C140.394 57.872 133.82 57.742 130.302 61.573C126.785 65.404 127.762 69.985 130.302 72.542C131.435 73.681 135.595 76.566 140.399 75.9C141.756 75.711 143.45 74.711 145.481 72.9Z" fill="#01133B"/>
<path d="M180.64 77.508C180.64 67.948 172.89 60.196 163.328 60.196C153.767 60.196 146.017 67.947 146.017 77.508C146.017 87.069 153.767 94.82 163.328 94.82C172.89 94.82 180.64 87.069 180.64 77.508Z" fill="white" stroke="#01133B" stroke-width="1.32" stroke-linecap="round" stroke-linejoin="round"/>
<mask id="mask2_0_161" style="mask-type:alpha" maskUnits="userSpaceOnUse" x="146" y="60" width="35" height="35">
<path d="M180.64 77.508C180.64 67.948 172.89 60.196 163.328 60.196C153.767 60.196 146.017 67.947 146.017 77.508C146.017 87.069 153.767 94.82 163.328 94.82C172.89 94.82 180.64 87.069 180.64 77.508Z" fill="white"/>
</mask>
<g mask="url(#mask2_0_161)">
<path d="M151.734 81.343C165.195 81.343 176.107 70.431 176.107 56.969C176.107 43.509 165.195 32.596 151.734 32.596C138.273 32.596 127.36 43.51 127.36 56.97C127.36 70.432 138.273 81.343 151.734 81.343Z" fill="#01133B"/>
<path d="M155.031 104.982C167.486 104.982 177.582 94.885 177.582 82.431C177.582 69.976 167.486 59.88 155.031 59.88C142.577 59.88 132.48 69.976 132.48 82.431C132.48 94.885 142.577 104.982 155.031 104.982Z" fill="#01133B"/>
</g>
<mask id="mask3_0_161" style="mask-type:alpha" maskUnits="userSpaceOnUse" x="202" y="71" width="70" height="110">
<path d="M239.332 71.858L210.188 138.101L212.991 143.211L202.811 166.496L234.623 180.917L247.646 155.715L256.396 143.207L270.116 101.444C273.68 90.593 267.774 78.908 256.924 75.345C256.062 75.062 255.183 74.8361 254.291 74.669L239.332 71.858Z" fill="white"/>
</mask>
<g mask="url(#mask3_0_161)">
<path d="M239.332 71.858L210.188 138.101L212.991 143.211L202.811 166.496L234.623 180.917L247.646 155.715L256.396 143.207L270.116 101.444C273.68 90.593 267.774 78.908 256.924 75.345C256.062 75.062 255.183 74.8361 254.291 74.669L239.332 71.858Z" fill="white"/>
<path fill-rule="evenodd" clip-rule="evenodd" d="M207.134 144.066L245.605 161.677L256.395 143.208L279.376 88.975L267.581 67.621L250.846 64.21L227.267 64.212L207.134 144.066Z" fill="#EDEEF2"/>
</g>
<path d="M230.394 93.986L209.785 138.54L213.949 140.034L206.006 159.697M244.327 162.522L251.153 146.267L256.395 143.208L269.818 101.87C273.42 90.775 267.348 78.862 256.254 75.261C255.395 74.9817 254.519 74.7583 253.631 74.592L208.948 66.202" stroke="#01133B" stroke-width="1.32" stroke-linecap="round" stroke-linejoin="round"/>
<path fill-rule="evenodd" clip-rule="evenodd" d="M245.172 160.636L230.426 195.372C230.2 195.929 229.866 196.435 229.443 196.861C229.019 197.288 228.515 197.625 227.96 197.855C227.405 198.084 226.81 198.201 226.209 198.198C225.608 198.196 225.014 198.073 224.461 197.838C223.908 197.604 223.407 197.261 222.987 196.831C222.568 196.401 222.239 195.891 222.018 195.333C221.797 194.774 221.69 194.177 221.703 193.576C221.715 192.975 221.847 192.383 222.091 191.834L229.464 174.466" fill="white"/>
<path d="M245.172 160.636L230.426 195.372C230.2 195.929 229.866 196.435 229.443 196.861C229.019 197.288 228.515 197.625 227.96 197.855C227.405 198.084 226.81 198.201 226.209 198.198C225.608 198.196 225.014 198.073 224.461 197.838C223.908 197.604 223.407 197.261 222.987 196.831C222.568 196.401 222.239 195.891 222.018 195.333C221.797 194.774 221.69 194.177 221.703 193.576C221.715 192.975 221.847 192.383 222.091 191.834L229.464 174.466" stroke="#01133B" stroke-width="1.32" stroke-linecap="round" stroke-linejoin="round"/>
<path fill-rule="evenodd" clip-rule="evenodd" d="M208.137 162.54L202.755 166.595C202.282 166.964 201.74 167.235 201.161 167.392C200.582 167.549 199.977 167.59 199.382 167.511C198.788 167.432 198.214 167.236 197.696 166.933C197.178 166.631 196.725 166.228 196.364 165.749C196.003 165.27 195.741 164.724 195.593 164.142C195.445 163.561 195.415 162.956 195.503 162.362C195.591 161.769 195.797 161.199 196.108 160.686C196.418 160.173 196.828 159.726 197.313 159.373L211.181 148.922" fill="white"/>
<path d="M208.137 162.54L202.755 166.595C202.282 166.964 201.74 167.235 201.161 167.392C200.582 167.549 199.977 167.59 199.382 167.511C198.788 167.432 198.214 167.236 197.696 166.933C197.178 166.631 196.725 166.228 196.364 165.749C196.003 165.27 195.741 164.724 195.593 164.142C195.445 163.561 195.415 162.956 195.503 162.362C195.591 161.769 195.797 161.199 196.108 160.686C196.418 160.173 196.828 159.726 197.313 159.373L211.181 148.922" stroke="#01133B" stroke-width="1.32" stroke-linecap="round" stroke-linejoin="round"/>
<path fill-rule="evenodd" clip-rule="evenodd" d="M229.463 174.465L222.09 191.833C221.864 192.39 221.53 192.896 221.107 193.322C220.683 193.749 220.179 194.086 219.624 194.316C219.069 194.545 218.473 194.662 217.873 194.659C217.272 194.657 216.678 194.534 216.125 194.299C215.572 194.065 215.071 193.722 214.651 193.292C214.232 192.862 213.903 192.352 213.682 191.794C213.461 191.235 213.354 190.638 213.367 190.037C213.379 189.436 213.511 188.844 213.755 188.295L221.127 170.927" fill="white"/>
<path d="M229.463 174.465L222.09 191.833C221.864 192.39 221.53 192.896 221.107 193.322C220.683 193.749 220.179 194.086 219.624 194.316C219.069 194.545 218.473 194.662 217.873 194.659C217.272 194.657 216.678 194.534 216.125 194.299C215.572 194.065 215.071 193.722 214.651 193.292C214.232 192.862 213.903 192.352 213.682 191.794C213.461 191.235 213.354 190.638 213.367 190.037C213.379 189.436 213.511 188.844 213.755 188.295L221.127 170.927" stroke="#01133B" stroke-width="1.32" stroke-linecap="round" stroke-linejoin="round"/>
<path fill-rule="evenodd" clip-rule="evenodd" d="M221.127 170.926L213.754 188.294C213.531 188.854 213.198 189.365 212.775 189.795C212.352 190.225 211.847 190.566 211.29 190.798C210.733 191.03 210.136 191.149 209.532 191.147C208.929 191.145 208.332 191.023 207.777 190.787C207.222 190.552 206.719 190.207 206.299 189.775C205.878 189.342 205.548 188.83 205.329 188.268C205.109 187.706 205.004 187.106 205.019 186.503C205.034 185.9 205.17 185.306 205.418 184.756L212.791 167.388" fill="white"/>
<path d="M221.127 170.926L213.754 188.294C213.531 188.854 213.198 189.365 212.775 189.795C212.352 190.225 211.847 190.566 211.29 190.798C210.733 191.03 210.136 191.149 209.532 191.147C208.929 191.145 208.332 191.023 207.777 190.787C207.222 190.552 206.719 190.207 206.299 189.775C205.878 189.342 205.548 188.83 205.329 188.268C205.109 187.706 205.004 187.106 205.019 186.503C205.034 185.9 205.17 185.306 205.418 184.756L212.791 167.388" stroke="#01133B" stroke-width="1.32" stroke-linecap="round" stroke-linejoin="round"/>
<path fill-rule="evenodd" clip-rule="evenodd" d="M212.79 167.388L205.417 184.756C204.948 185.861 204.059 186.735 202.945 187.185C201.832 187.635 200.585 187.624 199.48 187.155C198.371 186.684 197.492 185.795 197.035 184.68C196.578 183.565 196.579 182.314 197.038 181.2L212.347 144.063" fill="white"/>
<path d="M212.79 167.388L205.417 184.756C204.948 185.861 204.059 186.735 202.945 187.185C201.832 187.635 200.585 187.624 199.48 187.155C198.371 186.684 197.492 185.795 197.035 184.68C196.578 183.565 196.579 182.314 197.038 181.2L212.347 144.063" stroke="#01133B" stroke-width="1.32" stroke-linecap="round" stroke-linejoin="round"/>
<path fill-rule="evenodd" clip-rule="evenodd" d="M206.073 137.922L260.619 143.542L251.447 164.178L203.358 145.053L206.073 137.922Z" fill="#EDEEF2" stroke="#01133B" stroke-width="1.32" stroke-linecap="round" stroke-linejoin="round"/>
<mask id="mask4_0_161" style="mask-type:alpha" maskUnits="userSpaceOnUse" x="59" y="76" width="61" height="111">
<path d="M91.6 76.723L77.343 80.555C65.42 83.76 57.943 95.566 60.138 107.719L67.536 148.674L73.868 150.73L83.602 186.384L119.615 180.128L111.116 148.758L113.411 145.948L91.6 76.723Z" fill="white"/>
</mask>
<g mask="url(#mask4_0_161)">
<path d="M91.6 76.722L77.343 80.555C65.42 83.759 57.943 95.566 60.138 107.719L67.536 148.674L73.868 150.73L83.603 186.384L119.615 180.128L111.116 148.758L113.411 145.947L91.6 76.722Z" fill="white"/>
<path fill-rule="evenodd" clip-rule="evenodd" d="M75.825 167.391L114.861 154.878L92.301 69.642L47.801 73.935L47.452 127.778L75.825 167.391Z" fill="#EDEEF2"/>
</g>
<path d="M96.985 95.374L113.413 145.947L111.876 150.208L114.589 160.195M82.209 180.937L74.51 152.214L67.536 148.673L60.53 107.534C58.53 95.794 65.529 84.389 76.899 80.859L100.342 73.58" stroke="#01133B" stroke-width="1.32" stroke-linecap="round" stroke-linejoin="round"/>
<path fill-rule="evenodd" clip-rule="evenodd" d="M78.404 167.317L88.809 203.591C88.9728 204.162 89.2474 204.696 89.6174 205.161C89.9873 205.626 90.4453 206.014 90.9651 206.302C91.4849 206.591 92.0565 206.774 92.647 206.841C93.2376 206.908 93.8356 206.859 94.407 206.695C94.9784 206.531 95.5119 206.257 95.9771 205.887C96.4423 205.517 96.8301 205.059 97.1184 204.539C97.4066 204.019 97.5896 203.448 97.657 202.857C97.7244 202.266 97.6748 201.668 97.511 201.097L92.309 182.959" fill="white"/>
<path d="M78.404 167.317L88.809 203.591C88.9728 204.162 89.2474 204.696 89.6174 205.161C89.9873 205.626 90.4453 206.014 90.9651 206.302C91.4849 206.591 92.0565 206.774 92.647 206.841C93.2376 206.908 93.8356 206.859 94.407 206.695C94.9784 206.531 95.5119 206.257 95.9771 205.887C96.4423 205.517 96.8301 205.059 97.1184 204.539C97.4066 204.019 97.5896 203.448 97.657 202.857C97.7244 202.266 97.6748 201.668 97.511 201.097L92.309 182.959" stroke="#01133B" stroke-width="1.32" stroke-linecap="round" stroke-linejoin="round"/>
<path fill-rule="evenodd" clip-rule="evenodd" d="M114.932 173.72L119.78 178.402C120.206 178.82 120.71 179.149 121.264 179.371C121.818 179.593 122.41 179.703 123.007 179.695C123.604 179.686 124.193 179.56 124.74 179.324C125.288 179.087 125.783 178.744 126.198 178.315C126.612 177.885 126.937 177.378 127.155 176.823C127.373 176.267 127.478 175.674 127.465 175.078C127.453 174.481 127.322 173.893 127.081 173.348C126.84 172.802 126.493 172.309 126.061 171.898L113.569 159.834" fill="white"/>
<path d="M114.932 173.72L119.78 178.402C120.206 178.82 120.71 179.149 121.264 179.371C121.818 179.593 122.41 179.703 123.007 179.695C123.604 179.686 124.193 179.56 124.74 179.324C125.288 179.087 125.783 178.744 126.198 178.315C126.612 177.885 126.937 177.378 127.155 176.823C127.373 176.267 127.478 175.674 127.465 175.078C127.453 174.481 127.322 173.893 127.081 173.348C126.84 172.802 126.493 172.309 126.061 171.898L113.569 159.834" stroke="#01133B" stroke-width="1.32" stroke-linecap="round" stroke-linejoin="round"/>
<path fill-rule="evenodd" clip-rule="evenodd" d="M92.311 182.957L97.513 201.095C97.6683 201.676 97.9379 202.22 98.3059 202.696C98.6739 203.172 99.133 203.57 99.6564 203.866C100.18 204.162 100.757 204.351 101.354 204.422C101.952 204.493 102.557 204.444 103.135 204.278C103.713 204.113 104.253 203.833 104.722 203.457C105.191 203.08 105.58 202.614 105.867 202.086C106.154 201.557 106.333 200.976 106.393 200.378C106.453 199.78 106.393 199.175 106.217 198.6L101.014 180.462" fill="white"/>
<path d="M92.311 182.957L97.513 201.095C97.6683 201.676 97.9379 202.22 98.3059 202.696C98.6739 203.172 99.133 203.57 99.6564 203.866C100.18 204.162 100.757 204.351 101.354 204.422C101.952 204.493 102.557 204.444 103.135 204.278C103.713 204.113 104.253 203.833 104.722 203.457C105.191 203.08 105.58 202.614 105.867 202.086C106.154 201.557 106.333 200.976 106.393 200.378C106.453 199.78 106.393 199.175 106.217 198.6L101.014 180.462" stroke="#01133B" stroke-width="1.32" stroke-linecap="round" stroke-linejoin="round"/>
<path fill-rule="evenodd" clip-rule="evenodd" d="M101.016 180.461L106.219 198.599C106.383 199.17 106.658 199.704 107.028 200.169C107.398 200.635 107.856 201.022 108.376 201.311C108.896 201.599 109.467 201.782 110.058 201.849C110.648 201.916 111.247 201.867 111.818 201.703C112.389 201.539 112.923 201.264 113.388 200.894C113.854 200.524 114.241 200.066 114.53 199.546C114.818 199.026 115.001 198.455 115.068 197.864C115.135 197.274 115.086 196.675 114.922 196.104L109.72 177.966" fill="white"/>
<path d="M101.016 180.461L106.219 198.599C106.383 199.17 106.658 199.704 107.028 200.169C107.398 200.635 107.856 201.022 108.376 201.311C108.896 201.599 109.467 201.782 110.058 201.849C110.648 201.916 111.247 201.867 111.818 201.703C112.389 201.539 112.923 201.264 113.388 200.894C113.854 200.524 114.241 200.066 114.53 199.546C114.818 199.026 115.001 198.455 115.068 197.864C115.135 197.274 115.086 196.675 114.922 196.104L109.72 177.966" stroke="#01133B" stroke-width="1.32" stroke-linecap="round" stroke-linejoin="round"/>
<path fill-rule="evenodd" clip-rule="evenodd" d="M109.724 177.965L114.926 196.102C115.09 196.674 115.364 197.207 115.734 197.673C116.104 198.138 116.562 198.526 117.082 198.815C117.602 199.103 118.174 199.286 118.764 199.354C119.355 199.421 119.953 199.372 120.525 199.208C121.683 198.876 122.664 198.1 123.253 197.049C123.843 195.998 123.994 194.757 123.674 193.595L113.002 154.869" fill="white"/>
<path d="M109.724 177.965L114.926 196.102C115.09 196.674 115.364 197.207 115.734 197.673C116.104 198.138 116.562 198.526 117.082 198.815C117.602 199.103 118.174 199.286 118.764 199.354C119.355 199.421 119.953 199.372 120.525 199.208C121.683 198.876 122.664 198.1 123.253 197.049C123.843 195.998 123.994 194.757 123.674 193.595L113.002 154.869" stroke="#01133B" stroke-width="1.32" stroke-linecap="round" stroke-linejoin="round"/>
<path fill-rule="evenodd" clip-rule="evenodd" d="M59.484 147.499L116.549 145.772L118.524 154.731L67.689 168.818L59.484 147.499Z" fill="#EDEEF2" stroke="#01133B" stroke-width="1.32" stroke-linecap="round" stroke-linejoin="round"/>
<path fill-rule="evenodd" clip-rule="evenodd" d="M78.404 167.316L114.222 158.689L113.405 156.13L78.404 165.986V167.316ZM210.36 148.919L243.492 164.334L244.579 161.435L210.36 147.904V148.919Z" fill="#01133B"/>
</g>
</svg>
