<svg width="327" height="248" viewBox="0 0 327 248" fill="none" xmlns="http://www.w3.org/2000/svg">
<mask id="mask0_0_350" style="mask-type:alpha" maskUnits="userSpaceOnUse" x="38" y="0" width="237" height="233">
<path d="M219.504 0.285004L274.531 55.313L211.223 118.619L270.138 177.534L215.111 232.561L156.197 173.647L97.91 231.934L42.883 176.906L101.17 118.62L38.49 55.94L93.517 0.913004L156.197 63.593L219.504 0.285004Z" fill="white"/>
</mask>
<g mask="url(#mask0_0_350)">
<path d="M219.504 0.285034L274.531 55.313L211.223 118.619L270.138 177.534L215.111 232.561L156.197 173.647L97.91 231.934L42.883 176.906L101.17 118.62L38.49 55.94L93.517 0.913034L156.197 63.593L219.504 0.285034Z" fill="#3D66EE"/>
<mask id="mask1_0_350" style="mask-type:alpha" maskUnits="userSpaceOnUse" x="-50" y="-104" width="380" height="380">
<path d="M329.719 -103.215H-49.391V275.896H329.719V-103.215Z" fill="white"/>
</mask>
<g mask="url(#mask1_0_350)">
<path d="M329.719 -103.215H-49.391V275.896H329.719V-103.215Z" fill="#436FFF"/>
<path d="M101.955 -103.215C107.315 -33.607 132.255 8.53103 176.776 23.198C221.297 37.866 281.79 16.797 358.257 -40.008" stroke="white" stroke-width="1.333"/>
<path d="M128.3 -103.215C140.165 -21.381 113.516 20.899 48.353 23.625C-49.392 27.713 21.226 -46.517 54.572 -16.926C87.918 12.664 85.203 76.736 33.173 120.651C-1.51297 149.927 -41.034 164.565 -85.387 164.565M329.719 121.584C185.269 112.25 70.688 163.688 -14.022 275.896" stroke="white" stroke-width="1.333"/>
<path d="M-49.392 120.509C45.36 145.907 106.446 197.703 133.865 275.896" stroke="white" stroke-width="1.333"/>
<path d="M329.719 30.675C265.786 94.494 221.158 113.049 195.834 86.34C157.849 46.277 230.406 14.7301 241.108 50.5351C251.81 86.3401 194.593 114.757 118.415 127.395C67.629 135.821 7.53498 172.68 -61.869 237.974M188.506 275.896C179.11 220.115 191.398 190.194 225.369 186.134C259.341 182.074 297.113 197.034 338.685 231.015" stroke="white" stroke-width="1.333"/>
<path d="M329.719 72.142C269.201 131.144 243.231 202.675 251.81 286.736" stroke="white" stroke-width="1.333"/>
<path d="M-49.392 41.364C100.082 71.564 217.375 153.355 302.487 286.736M-49.392 198.202C-13.816 251.23 23.882 264.488 63.701 237.973C123.431 198.202 143.682 189.946 168.576 198.202C185.173 203.706 200.264 229.604 213.851 275.896" stroke="white" stroke-width="1.333"/>
</g>
</g>
<mask id="mask2_0_350" style="mask-type:alpha" maskUnits="userSpaceOnUse" x="245" y="208" width="41" height="23">
<path d="M285.31 208.87V230.183H245.525V208.87H285.31Z" fill="white"/>
</mask>
<g mask="url(#mask2_0_350)">
<path d="M285.31 208.87V230.183H245.525V208.87H285.31Z" fill="white" stroke="#01133B" stroke-width="1.333" stroke-linecap="round" stroke-linejoin="round"/>
<path d="M312.216 224.513C312.216 237.807 302.237 248.584 289.927 248.584C277.618 248.584 267.639 237.807 267.639 224.513C267.639 211.219 277.618 200.442 289.927 200.442C302.237 200.442 312.216 211.219 312.216 224.513Z" fill="#01133B"/>
</g>
<path fill-rule="evenodd" clip-rule="evenodd" d="M120.37 111.175C107.092 125.876 96.1991 137.066 87.691 144.745C68.371 162.185 62.182 174.244 53.475 181.556C47.719 186.389 29.857 181.6 17.355 181.6C1.57705 181.6 -16.59 185.945 -24.519 191.116C-35.935 198.562 -35.869 213.567 -24.319 236.132H81.252L185.586 126.99L167.462 109.536C154.414 96.97 133.651 97.361 121.085 110.409C120.843 110.661 120.605 110.916 120.37 111.175Z" fill="white" stroke="#01133B" stroke-width="1.333" stroke-linecap="round" stroke-linejoin="round"/>
<path d="M-24.3199 220.576C-15.3009 217.344 -2.64695 215.277 13.6441 214.375C38.0801 213.022 50.4001 222.531 63.3851 215.72C76.3691 208.91 84.8991 186.716 96.1641 173.9C107.429 161.084 112.032 160.815 122.524 148.879C126.812 144.001 130.904 139.291 134.799 134.75C138.468 130.472 144.911 129.979 149.188 133.648C149.385 133.817 149.576 133.994 149.76 134.178L164.461 148.879" stroke="#01133B" stroke-width="1.333" stroke-linecap="round" stroke-linejoin="round"/>
<path d="M153.547 170.721C144.498 161.774 142.647 147.838 149.046 136.837L149.701 135.709" stroke="#01133B" stroke-width="1.56" stroke-linecap="round" stroke-linejoin="round"/>
<path d="M150.695 173.889C140.192 163.488 138.074 147.29 145.549 134.536L146.534 132.857" stroke="#01133B" stroke-width="0.729" stroke-linecap="round" stroke-linejoin="round" stroke-dasharray="2.19 2.19"/>
<path d="M109.498 235.583V195.798H82.8311V235.583H109.498Z" fill="white"/>
<path fill-rule="evenodd" clip-rule="evenodd" d="M108.582 190.409H61.867C60.3661 190.409 58.9268 191.005 57.8655 192.066C56.8042 193.128 56.208 194.567 56.208 196.068C56.208 197.569 56.8042 199.008 57.8655 200.07C58.9268 201.131 60.3661 201.727 61.867 201.727H85.181" fill="white"/>
<path d="M108.582 190.409H61.867C60.3661 190.409 58.9268 191.005 57.8655 192.066C56.8042 193.128 56.208 194.567 56.208 196.068C56.208 197.569 56.8042 199.008 57.8655 200.07C58.9268 201.131 60.3661 201.727 61.867 201.727H85.181" stroke="#01133B" stroke-width="1.333" stroke-linecap="round" stroke-linejoin="round"/>
<path fill-rule="evenodd" clip-rule="evenodd" d="M88.547 231.781L81.268 235.972C80.6293 236.34 80.0693 236.83 79.62 237.414C79.1706 237.998 78.8408 238.665 78.6492 239.377C78.4576 240.088 78.4081 240.831 78.5035 241.562C78.5989 242.292 78.8372 242.997 79.205 243.636L79.211 243.647C79.9591 244.939 81.189 245.881 82.6309 246.268C84.0729 246.654 85.6093 246.453 86.903 245.708L105.649 234.913" fill="white"/>
<path d="M88.547 231.781L81.268 235.972C80.6293 236.34 80.0693 236.83 79.62 237.414C79.1706 237.998 78.8408 238.665 78.6492 239.377C78.4576 240.088 78.4081 240.831 78.5035 241.562C78.5989 242.292 78.8372 242.997 79.205 243.636L79.211 243.647C79.9591 244.939 81.189 245.881 82.6309 246.268C84.0729 246.654 85.6093 246.453 86.903 245.708L105.649 234.913" stroke="#01133B" stroke-width="1.333" stroke-linecap="round" stroke-linejoin="round"/>
<path fill-rule="evenodd" clip-rule="evenodd" d="M85.146 201.676H61.733C61.0012 201.666 60.2746 201.802 59.5956 202.075C58.9166 202.348 58.2986 202.754 57.7776 203.268C57.2566 203.782 56.8428 204.394 56.5605 205.07C56.2781 205.745 56.1327 206.47 56.1327 207.202C56.1327 207.933 56.2781 208.658 56.5605 209.333C56.8428 210.009 57.2566 210.621 57.7776 211.135C58.2986 211.649 58.9166 212.055 59.5956 212.328C60.2746 212.601 61.0012 212.737 61.733 212.727H85.146" fill="white"/>
<path d="M85.146 201.676H61.733C61.0012 201.666 60.2746 201.802 59.5956 202.075C58.9166 202.348 58.2986 202.754 57.7776 203.268C57.2566 203.782 56.8428 204.394 56.5605 205.07C56.2781 205.745 56.1327 206.47 56.1327 207.202C56.1327 207.933 56.2781 208.658 56.5605 209.333C56.8428 210.009 57.2566 210.621 57.7776 211.135C58.2986 211.649 58.9166 212.055 59.5956 212.328C60.2746 212.601 61.0012 212.737 61.733 212.727H85.146" stroke="#01133B" stroke-width="1.333" stroke-linecap="round" stroke-linejoin="round"/>
<path fill-rule="evenodd" clip-rule="evenodd" d="M85.334 212.727H61.734C60.2814 212.747 58.895 213.337 57.8747 214.371C56.8544 215.406 56.2823 216.8 56.2823 218.253C56.2823 219.705 56.8544 221.099 57.8747 222.134C58.895 223.168 60.2814 223.758 61.734 223.778H85.334" fill="white"/>
<path d="M85.334 212.727H61.734C60.2814 212.747 58.895 213.337 57.8747 214.371C56.8544 215.406 56.2823 216.8 56.2823 218.253C56.2823 219.705 56.8544 221.099 57.8747 222.134C58.895 223.168 60.2814 223.758 61.734 223.778H85.334" stroke="#01133B" stroke-width="1.333" stroke-linecap="round" stroke-linejoin="round"/>
<path fill-rule="evenodd" clip-rule="evenodd" d="M85.516 224.123H62.301C60.7321 224.123 59.2275 224.746 58.1181 225.856C57.0087 226.965 56.3855 228.47 56.3855 230.039C56.3855 231.607 57.0087 233.112 58.1181 234.221C59.2275 235.331 60.7321 235.954 62.301 235.954H112.032" fill="white"/>
<path d="M85.516 224.123H62.301C60.7321 224.123 59.2275 224.746 58.1181 225.856C57.0087 226.965 56.3855 228.47 56.3855 230.039C56.3855 231.607 57.0087 233.112 58.1181 234.221C59.2275 235.331 60.7321 235.954 62.301 235.954H112.032" stroke="#01133B" stroke-width="1.333" stroke-linecap="round" stroke-linejoin="round"/>
<path d="M303.482 199.435C313.88 199.435 322.309 207.864 322.309 218.262C322.309 228.66 313.88 237.089 303.482 237.089H295.128C284.73 237.089 276.301 228.66 276.301 218.262C276.301 207.864 284.73 199.435 295.128 199.435H303.482Z" fill="#01133B"/>
<path fill-rule="evenodd" clip-rule="evenodd" d="M316.623 205.045C318.792 201.305 316.735 199.436 310.452 199.436C304.169 199.436 299.334 199.771 295.945 200.442C294.984 201.292 294.64 201.865 294.911 202.162C298.693 206.307 304.504 207.356 309.058 208.663C314.101 210.111 316.623 208.905 316.623 205.045Z" fill="#01133B"/>
<path fill-rule="evenodd" clip-rule="evenodd" d="M295.568 201.688L295.873 199.706C295.968 199.086 295.92 198.453 295.732 197.854C295.544 197.256 295.222 196.709 294.789 196.255C294.356 195.801 293.825 195.452 293.236 195.236C292.647 195.02 292.017 194.941 291.393 195.007C289.835 195.171 288.363 195.802 287.17 196.817C285.977 197.831 285.117 199.183 284.705 200.694L284.434 201.688H295.568Z" fill="white" stroke="#01133B" stroke-width="1.333" stroke-linecap="round" stroke-linejoin="round"/>
<path d="M292.22 199.361H288.753M290.041 199.361L291.349 197.741" stroke="#01133B" stroke-width="1.333" stroke-linecap="round" stroke-linejoin="round"/>
<path fill-rule="evenodd" clip-rule="evenodd" d="M299.564 201.688H287.157C277.735 201.688 270.098 209.325 270.098 218.747C270.098 228.168 277.735 235.806 287.157 235.806H299.564C308.985 235.806 316.623 228.168 316.623 218.747C316.623 209.325 308.985 201.688 299.564 201.688Z" fill="white" stroke="#01133B" stroke-width="1.333" stroke-linecap="round" stroke-linejoin="round"/>
<path d="M283.75 226.406C279.446 222.392 279.21 215.648 283.224 211.344M290.775 219.733L286.402 220.436L285.99 218.035" stroke="#01133B" stroke-width="1.333" stroke-linecap="round" stroke-linejoin="round"/>
<path d="M292.085 228.31C292.085 226.455 292.949 224.95 294.015 224.95C295.081 224.95 295.945 226.455 295.945 228.31C295.945 230.166 295.081 231.67 294.015 231.67C292.949 231.67 292.085 230.166 292.085 228.31Z" stroke="#01133B" stroke-width="1.061" stroke-linecap="round" stroke-linejoin="round"/>
<path d="M292.085 228.31C292.085 227.197 292.949 226.294 294.015 226.294C295.081 226.294 295.945 227.197 295.945 228.31C295.945 229.424 295.081 230.326 294.015 230.326C292.949 230.326 292.085 229.424 292.085 228.31Z" fill="#01133B"/>
<path d="M292.085 209.7C292.085 207.845 292.949 206.34 294.015 206.34C295.081 206.34 295.945 207.845 295.945 209.7C295.945 211.556 295.081 213.061 294.015 213.061C292.949 213.061 292.085 211.556 292.085 209.7Z" stroke="#01133B" stroke-width="1.061" stroke-linecap="round" stroke-linejoin="round"/>
<path d="M292.085 209.7C292.085 208.587 292.949 207.684 294.015 207.684C295.081 207.684 295.945 208.587 295.945 209.7C295.945 210.814 295.081 211.716 294.015 211.716C292.949 211.716 292.085 210.814 292.085 209.7Z" fill="#01133B"/>
<path fill-rule="evenodd" clip-rule="evenodd" d="M318.356 226.398C321.47 213.876 320.892 204.433 316.623 198.069C310.218 188.524 292.585 196.96 298.348 217.992C302.191 232.013 308.86 234.815 318.356 226.398Z" fill="#01133B"/>
<path fill-rule="evenodd" clip-rule="evenodd" d="M314.707 234.357C319.84 233.043 328.332 217.775 325.711 209.752C323.964 204.403 317.901 205.955 307.523 214.407C308.891 228.583 311.286 235.232 314.707 234.357Z" fill="#01133B"/>
<path fill-rule="evenodd" clip-rule="evenodd" d="M319.919 229.319C324.439 232.095 324.439 234.224 319.919 235.708C315.4 237.192 307.102 237.527 295.025 236.712C298.889 233.262 303.486 230.734 308.469 229.319C313.513 227.872 317.329 227.872 319.919 229.319Z" fill="#01133B"/>
<path d="M109.396 190.131V235.583" stroke="#01133B" stroke-width="1.333" stroke-linecap="round" stroke-linejoin="round"/>
<path fill-rule="evenodd" clip-rule="evenodd" d="M164.461 105.531L263.464 206.198L258.384 219.338C256.443 224.358 253.029 228.674 248.59 231.717C244.151 234.76 238.894 236.389 233.512 236.389H109.498V190.671L145.763 190.146L138.986 184.052C135.633 181.037 133.397 176.977 132.642 172.532C131.886 168.086 132.655 163.516 134.824 159.562L164.461 105.531Z" fill="#E6E8EF" stroke="#01133B" stroke-width="1.333" stroke-linecap="round" stroke-linejoin="round"/>
<path d="M255.577 198.551C250.829 208.258 249.642 218.143 252.016 228.205M142.052 190.318H176.963" stroke="#01133B" stroke-width="1.333" stroke-linecap="round" stroke-linejoin="round"/>
<path fill-rule="evenodd" clip-rule="evenodd" d="M125.628 181.6V239.595L105.628 238.002V184.139L125.628 181.6Z" fill="#E6E8EF" stroke="#01133B" stroke-width="1.333" stroke-linecap="round" stroke-linejoin="round"/>
<path fill-rule="evenodd" clip-rule="evenodd" d="M127.383 190.409L129.101 235.954H125.627V190.409H127.383Z" fill="#01133B"/>
</svg>
