<?xml version="1.0" encoding="UTF-8"?><svg id="Ebene_1" xmlns="http://www.w3.org/2000/svg" width="132.9" height="119.23" viewBox="0 0 132.9 119.23"><g id="image_frame"><g id="Group_3746"><g id="Group_3745"><path id="Path_13775" d="M104.91,7.06c-2.72-4.17-7.27-6.8-12.24-7.06h-52.51c-4.97.27-9.52,2.89-12.25,7.06L1.69,52.51c-2.25,4.46-2.25,9.74,0,14.2l26.22,45.45c2.72,4.17,7.27,6.8,12.25,7.06h52.51c4.97-.27,9.52-2.89,12.25-7.06l26.3-45.45c2.25-4.46,2.25-9.74,0-14.2L104.91,7.06ZM102.13,107.36c-2.72,4.17-7.27,6.8-12.25,7.06h-46.88c-4.97-.27-9.52-2.89-12.25-7.06L7.32,66.79c-2.25-4.46-2.25-9.74,0-14.2L30.76,12.02c2.72-4.17,7.27-6.8,12.25-7.06h46.88c4.97.27,9.52,2.89,12.25,7.06l23.44,40.57c2.25,4.46,2.25,9.74,0,14.2l-23.44,40.57Z" fill="#99e1f6"/></g></g><path id="Subtraction_17" d="M88.88,113.24h-44.86c-5.16-.28-9.88-3-12.7-7.32l-22.51-38.94c-2.34-4.63-2.34-10.09,0-14.72L31.24,13.39c2.82-4.32,7.54-7.04,12.69-7.32h44.86c5.16.28,9.87,3,12.7,7.32l22.51,38.94c2.34,4.63,2.34,10.09,0,14.72l-22.43,38.87c-2.82,4.32-7.54,7.04-12.69,7.32ZM48.59,17.15c-4.09.22-7.83,2.38-10.07,5.81l-17.79,30.83c-1.86,3.67-1.86,8.01,0,11.68l17.85,30.89c2.24,3.43,5.98,5.59,10.07,5.81h35.59c4.09-.22,7.83-2.38,10.07-5.81l17.79-30.83c1.86-3.67,1.86-8.01,0-11.68l-17.85-30.89c-2.24-3.43-5.98-5.59-10.07-5.81h-35.59Z" fill="#99e1f6"/></g></svg>