<?xml version="1.0" encoding="UTF-8"?><svg id="_02" xmlns="http://www.w3.org/2000/svg" width="512" height="512" viewBox="0 0 512 512"><rect x="37.48" y="423.51" width="73.36" height="1"/><rect x="9.2" y="441.2" width="66.29" height="1"/><rect x="387.34" y="452.58" width="73.36" height="1"/><rect x="359.06" y="470.27" width="66.29" height="1"/><path d="M1.94,38.05h214.09s-14.03-45.39-62.36-15.53c0,0-10.91-44.19-72.23-3.58,0,0,4.16-41.8-79.5,19.11Z" fill="#fff"/><path d="M216.71,38.55H.41l1.24-.9C27.55,18.78,61.46-1.96,75.92,6.32c5.43,3.11,6.03,9.26,6.05,11.67C104.95,2.94,123.52-2,137.15,3.32c11.76,4.59,15.93,15.64,16.81,18.43,15.66-9.54,29.38-12.21,40.78-7.93,16,6,21.7,23.9,21.75,24.08l.2.65ZM3.48,37.55h211.85c-1.18-3.23-7.1-17.61-20.93-22.8-11.24-4.21-24.85-1.45-40.46,8.19l-.58.36-.17-.67c-.03-.13-3.45-13.34-16.41-18.39-13.48-5.25-32-.16-55.06,15.11l-.88.58.1-1.05c0-.08.72-8.13-5.53-11.7-7.66-4.38-26.36-2.62-71.94,30.36Z"/><path d="M7.19,209.78h135.29s-8.87-33.15-39.41-11.34c0,0-6.9-32.27-45.64-2.62,0,0,2.63-30.53-50.24,13.96Z" fill="#fff"/><path d="M143.13,210.28H5.82l1.05-.88c23.13-19.46,38.78-27.3,46.5-23.29,3.96,2.06,4.54,6.61,4.59,8.7,13.84-10.4,25.18-14.08,33.71-10.93,8.14,3,11.01,11.23,11.71,13.74,9.38-6.54,17.68-8.58,24.69-6.06,10.99,3.95,14.74,17.52,14.89,18.1l.17.63ZM8.57,209.28h133.24c-.88-2.72-4.89-13.49-14.08-16.79-6.83-2.45-15.03-.31-24.36,6.35l-.62.44-.16-.74c-.02-.1-2.34-10.45-11.27-13.74-8.36-3.08-19.66.76-33.58,11.42l-.9.69.09-1.13c0-.06.49-6.45-4.03-8.79-4.98-2.58-16.71-.76-44.34,22.29Z"/><path d="M337.03,174.69h173.91s-11.4-42.61-50.65-14.58c0,0-8.86-41.49-58.67-3.36,0,0,3.38-39.24-64.58,17.94Z" fill="#fff"/><path d="M511.59,175.19h-175.93l1.05-.88c29.69-24.98,49.75-35.05,59.62-29.92,5.21,2.71,5.81,8.84,5.82,11.33,17.85-13.47,32.46-18.25,43.43-14.2,10.48,3.87,14.2,14.84,15.02,17.77,12.09-8.47,22.77-11.13,31.78-7.89,14.06,5.05,19,22.99,19.05,23.17l.17.63ZM338.4,174.19h171.87c-1.01-3.18-6.15-17.52-18.24-21.86-8.83-3.16-19.41-.41-31.45,8.19l-.62.44-.16-.75c-.03-.13-3.02-13.51-14.58-17.77-10.8-3.98-25.36.97-43.3,14.69l-.9.69.1-1.13c0-.08.64-8.38-5.26-11.44-6.46-3.34-21.67-.99-57.45,28.92Z"/><path d="M351.06,42.85h135.29s-8.87-33.15-39.41-11.34c0,0-6.9-32.27-45.64-2.62,0,0,2.63-30.53-50.24,13.96Z" fill="#fff"/><path d="M487.01,43.35h-137.32l1.05-.88c23.13-19.46,38.77-27.3,46.5-23.29,3.96,2.06,4.54,6.61,4.59,8.7,13.84-10.4,25.18-14.08,33.71-10.93,8.14,3,11.01,11.23,11.71,13.74,9.38-6.54,17.68-8.58,24.69-6.06,10.99,3.95,14.74,17.52,14.89,18.1l.17.63ZM352.44,42.35h133.24c-.88-2.72-4.89-13.49-14.08-16.79-6.83-2.45-15.03-.31-24.36,6.35l-.62.44-.16-.74c-.02-.1-2.34-10.45-11.27-13.74-8.36-3.08-19.66.76-33.58,11.42l-.9.69.09-1.13c0-.06.49-6.45-4.03-8.79-4.98-2.58-16.71-.76-44.34,22.29Z"/><path d="M156.38,307.15c-30.24,56.57-40.27,121.99-28.83,185.07,1.13,6.26,8.69,9.82,14.44,8.26,6.57-1.79,9.39-8.18,8.25-14.45-10.26-56.6-.67-116.26,26.41-166.94,7.13-13.35-13.12-25.31-20.27-11.94Z"/><path d="M151.86,469.97s18.95-15.22-17.33-15.89c-35.48-.65-15.47,13.06-15.47,13.06l-6.12,2.93s-40.04-36.26-58.13-4.25c-18.09,32.01,27.12,40.86,55.04,43.31,27.92,2.44,57.49,10.9,42-39.16Z" fill="#ff8717"/><path d="M134.83,511.71c-5.19,0-10.94-.62-16.81-1.26-2.69-.29-5.47-.59-8.2-.83-39.91-3.49-53.37-13.87-57.62-21.96-3.29-6.26-2.56-13.69,2.19-22.09,4.26-7.54,10.11-11.96,17.37-13.14,9.88-1.6,20.65,3.19,27.95,7.49,6.94,4.08,12.15,8.51,13.33,9.55l5.07-2.43c-1.74-1.33-6.05-5.05-4.99-8.37,1.17-3.67,8.2-5.33,21.43-5.09,13.47.25,21.04,2.55,22.51,6.85,1.43,4.18-3.4,8.67-4.61,9.71,5.42,17.66,5.56,29.28.42,35.51-3.87,4.69-10.34,6.06-18.03,6.06ZM75.8,453.12c-1.31,0-2.61.1-3.9.3-6.94,1.12-12.55,5.38-16.65,12.64-4.57,8.08-5.3,15.19-2.17,21.13,3.39,6.44,15.28,17.79,56.83,21.43,2.74.24,5.53.54,8.22.83,14.31,1.55,27.82,3.01,33.96-4.44,4.94-5.99,4.71-17.41-.7-34.9l-.1-.32.26-.21c.06-.05,5.92-4.82,4.55-8.83-.91-2.65-5.39-5.87-21.58-6.17-15.67-.29-19.77,2.23-20.46,4.4-.89,2.77,3.51,6.53,5.29,7.75l.71.49-7.2,3.45-.25-.23c-.2-.19-19.35-17.32-36.81-17.32Z"/><path d="M141.67,472.17c-1.81,0-3.82-.14-6-.49l.16-.99c9.47,1.52,15.77-1.16,15.83-1.18l.4.92c-.21.09-4.09,1.74-10.39,1.74Z"/><path d="M125.36,470.01c-.27,0-2.54-.08-6.56-2.44l.51-.86c3.93,2.31,6.05,2.27,6.05,2.3l.02,1h-.03Z"/><rect x="118.43" y="467.71" width="1" height="17.52" transform="translate(-293.45 209.8) rotate(-43.1)"/><rect x="112.5" y="470.07" width="1" height="14.53" transform="translate(-4.01 .97) rotate(-.48)"/><path d="M75.89,458.56c-1.33.52-2.63,1.07-3.85,1.78-.63.31-1.21.7-1.82,1.04-.58.38-1.15.79-1.71,1.18-2.22,1.65-4.19,3.62-5.59,5.96-.43.54-.72,1.15-1.04,1.76-.31.61-.67,1.19-.86,1.86l-.69,1.94c-.15.67-.3,1.34-.47,2.01l-.25,1.01-.12,1.04-.23,2.09c-.13,1.4-.05,2.81-.15,4.26h-.1c-.09-1.41-.26-2.83-.27-4.26l.11-2.14.06-1.07.2-1.05c.13-.7.25-1.41.4-2.11l.68-2.04c.19-.7.55-1.32.86-1.96.31-.64.62-1.29,1.05-1.87,1.54-2.42,3.61-4.48,5.99-6.07,2.38-1.58,5.02-2.78,7.8-3.46l.02.1Z" fill="#fff"/><path d="M285.7,413.54c-11.93,4.01-23.87,8.05-36.05,11.25-6.32,1.66-13.27,3.92-19.82,4.01-3.81.05-4.7.52-5.41-2.45-.51-2.15,2.98-9.7,3.49-11.04,9.22-24.55,24.15-46.44,38.96-67.87,8.52-12.34-9.02-28.05-17.62-15.6-11.15,16.15-22.44,32.32-31.69,49.66-7.45,13.97-18.83,34.26-16.86,50.57,4.81,39.76,72.27,10.6,92.71,3.73,14.35-4.82,6.68-27.09-7.7-22.25Z"/><path d="M273.51,414.01s-18.34-12.11-9.07,20.77c9.94,35.25,17.66,8.63,17.66,8.63l4.6,4.32s-17.93,46.94,15.89,51.86c33.82,4.92,26.27-37.29,18.99-62.33-7.28-25.05-9.91-53.55-48.06-23.26Z" fill="#ff8717"/><path d="M307.69,500.5c-1.64,0-3.37-.13-5.19-.4-7.98-1.16-13.78-4.74-17.25-10.65-4.72-8.04-4.2-19.01-2.93-26.8,1.2-7.36,3.27-13.35,3.78-14.77l-3.78-3.55c-.79,2.36-3.43,9.23-7.42,9.23h-.01c-3.83-.01-7.41-6.11-10.94-18.63-3.51-12.45-3.5-20.07.02-22.64,3.24-2.37,8.2.34,9.5,1.12,13.46-10.63,23.48-14.65,30.61-12.3,9.02,2.98,12.37,15.44,15.92,28.64.65,2.43,1.33,4.95,2.04,7.4,5.75,19.78,10.48,45.8.35,57.43-3.44,3.95-8.37,5.93-14.71,5.93ZM281.84,442.49l5.44,5.11-.12.31c-.1.26-9.79,26.1-1.03,41.03,3.31,5.63,8.87,9.05,16.53,10.17,8.52,1.24,14.91-.51,19-5.2,4.44-5.1,10.27-19.23-.56-56.5-.71-2.46-1.39-4.98-2.05-7.41-3.48-12.93-6.76-25.14-15.27-27.95-6.84-2.26-16.64,1.78-29.96,12.35l-.28.23-.3-.2c-.06-.04-5.56-3.61-8.67-1.34-2.17,1.59-3.86,6.61.35,21.56,4.17,14.78,7.73,17.9,9.98,17.9h0c3.29,0,5.96-6.69,6.71-9.27l.23-.78Z"/><path d="M279.5,427.68c-1.87-8.72-6.3-13.28-6.35-13.32l.71-.7c.19.19,4.68,4.81,6.61,13.82l-.98.21Z"/><path d="M282.59,443.5l-.99-.16c.67-4.16-.04-5.99-.04-6.01l.92-.38c.03.08.83,2.06.11,6.55Z"/><rect x="282.07" y="439.9" width="16.29" height="1" transform="translate(-232.37 511.67) rotate(-64.38)"/><rect x="286.21" y="444.74" width="13.5" height="1" transform="translate(-143.76 139.72) rotate(-21.68)"/><path d="M289.19,483.76c.91.97,1.82,1.91,2.86,2.71.48.44,1.02.81,1.52,1.22.53.38,1.07.72,1.6,1.08,2.18,1.36,4.54,2.4,7.03,2.82,2.46.52,5.04.61,7.56.12l.96-.12.94-.24,1.89-.49c1.26-.35,2.46-.89,3.75-1.27l.05.09c-1.2.55-2.38,1.18-3.61,1.68l-1.89.63c-.32.1-.63.22-.95.31l-.98.19c-.65.12-1.31.26-1.96.36l-1.99.1c-.67.07-1.33-.04-1.99-.09-.66-.06-1.33-.1-1.97-.28-2.61-.52-5.1-1.63-7.27-3.16-2.17-1.54-4.1-3.42-5.62-5.6l.08-.05Z" fill="#fff"/><ellipse cx="256.27" cy="53.7" rx="49.28" ry="131.9" transform="translate(168.81 300.5) rotate(-82.32)" fill="#79cc9e"/><path d="M294.55,106.15c-14.35,0-29.49-1.03-44.92-3.11-72.35-9.75-128.24-39.82-124.58-67.02,1.79-13.27,17.17-23.85,43.32-29.79,25.99-5.91,59.56-6.57,94.53-1.85,72.35,9.75,128.24,39.82,124.57,67.02-1.79,13.27-17.17,23.85-43.32,29.79-14.53,3.3-31.43,4.97-49.62,4.97ZM217.99,2.26c-18.11,0-34.93,1.65-49.39,4.94-25.71,5.85-40.82,16.13-42.55,28.95-3.59,26.66,51.91,56.22,123.72,65.89,34.86,4.7,68.3,4.05,94.18-1.84,25.71-5.85,40.82-16.13,42.55-28.95h0c3.59-26.66-51.91-56.22-123.72-65.89-15.38-2.07-30.49-3.1-44.79-3.1Z"/><path d="M299.81,55.72c-.75,5.57-20.75,7.48-44.68,4.25-23.93-3.22-42.71-10.36-41.96-15.93.75-5.57,20.75-7.48,44.68-4.25,23.93,3.22,42.71,10.36,41.96,15.93Z"/><path d="M276.96,62.05c-6.65,0-14.15-.53-21.89-1.58-21.54-2.9-43.29-9.87-42.39-16.49.51-3.78,7.95-5.27,14.1-5.86,8.48-.81,19.54-.39,31.15,1.18,21.54,2.9,43.29,9.87,42.39,16.49-.51,3.78-7.95,5.27-14.1,5.86-2.82.27-5.93.4-9.25.4ZM236.02,38.72c-3.29,0-6.37.13-9.16.4-8.07.77-12.88,2.59-13.2,4.99-.62,4.63,15.92,11.91,41.54,15.37,11.53,1.55,22.52,1.97,30.92,1.17,8.07-.77,12.88-2.59,13.2-4.99.62-4.63-15.92-11.92-41.54-15.37-7.7-1.04-15.15-1.57-21.76-1.57Z"/><path d="M287.97,71.92c-10.51,0-22.15-.82-34.13-2.43-41.22-5.56-72.37-18.4-70.92-29.23.71-5.28,9.1-9.13,23.61-10.86,14.31-1.7,32.96-1.19,52.5,1.45,41.22,5.56,72.37,18.39,70.92,29.23-.71,5.28-9.1,9.13-23.61,10.86-5.54.66-11.73.99-18.38.99ZM224.92,29.41c-6.6,0-12.75.32-18.26.98-13.82,1.64-22.11,5.29-22.74,10-1.36,10.11,30.07,22.71,70.06,28.1,19.46,2.62,38.02,3.14,52.25,1.44,13.82-1.64,22.11-5.29,22.74-10,1.36-10.11-30.07-22.71-70.06-28.1-11.93-1.61-23.53-2.42-33.99-2.42Z"/><path d="M315.58,79.26l-.15-.99c18.71-2.79,30.02-8.7,31.03-16.2.5-3.7-1.44-7.63-5.75-11.69-12.89-12.15-44.5-23.13-80.53-27.99-15.07-2.03-30.14-2.87-43.59-2.42l-.03-1c13.5-.45,28.63.39,43.75,2.43,36.22,4.88,68.05,15.97,81.08,28.25,4.56,4.3,6.6,8.52,6.05,12.55-1.09,8.09-12.41,14.14-31.87,17.05Z"/><path d="M289.03,81.04c-11.6,0-23.83-.86-36.39-2.55-50.17-6.76-89.25-25.07-87.14-40.81.85-6.34,8.02-11.46,20.72-14.81l.25.97c-12.28,3.23-19.19,8.06-19.98,13.97-2.04,15.19,36.66,32.99,86.28,39.68,13.34,1.8,26.31,2.65,38.54,2.53v1c-.75,0-1.51.01-2.28.01Z"/><path d="M293.25,91.58c-12.74,0-26.37-.94-40.3-2.82-29.24-3.94-56.87-11.79-75.81-21.54l.46-.89c18.85,9.7,46.36,17.51,75.49,21.43,28.12,3.79,55.02,3.74,75.74-.14l.18.98c-10.54,1.98-22.68,2.97-35.76,2.97Z"/><path d="M343.55,91.76l-.23-.97c19.79-4.71,31.4-12.54,32.68-22.07,2.92-21.67-47.33-46.55-112-55.47l.14-.99c31.57,4.35,60.66,12.58,81.91,23.16,21.42,10.67,32.41,22.54,30.94,33.43-1.34,9.97-13.22,18.11-33.44,22.91Z"/><path d="M145.89,54.29c-5.87-6.01-8.46-11.95-7.7-17.63,2.35-17.45,36.95-28.54,86.09-27.59l-.02,1c-48.6-.95-82.81,9.81-85.09,26.73-.72,5.36,1.77,11.02,7.42,16.8l-.71.7Z"/><path d="M386.07,74.89c-4.95,15.32-30.29,91.53-50.3,170.65-.87,3.46-1.74,6.92-2.59,10.38-11.06,44.95-20.04,90.03-22.27,124.67l-11.39,3.82-14.53.43-13.72.4-8.45.25s7.47-59.08,20.87-125.52c.68-3.33,1.37-6.69,2.07-10.05,11.58-55.46,27.15-114.17,45.86-146.89.39-.06.78-.12,1.17-.18,2.72-.4,5.38-.78,7.9-1.43,15.88-4.07,38.81-8.98,45.39-26.53Z" fill="#078450"/><path d="M262.24,386.01l.07-.58c.08-.59,7.63-59.86,20.88-125.56.68-3.33,1.37-6.69,2.07-10.05,14.57-69.76,30.02-119.23,45.91-147.04l.12-.21,1.71-.26c2.64-.39,5.14-.76,7.55-1.38l2.6-.66c15.32-3.88,36.31-9.19,42.44-25.56l.94.33c-.4,1.24-.93,2.88-1.59,4.89-7.5,23.01-30.31,93.03-48.71,165.73-.87,3.46-1.74,6.92-2.59,10.38-12.8,52.01-20.29,93.92-22.26,124.58l-.02.33-11.85,3.95-37.29,1.1ZM331.92,103.49c-15.8,27.75-31.17,77.05-45.68,146.53-.7,3.36-1.39,6.72-2.07,10.05-12.54,62.18-19.98,118.6-20.79,124.9l36.04-1.06,11-3.69c2.01-30.69,9.5-72.55,22.27-124.42.85-3.46,1.72-6.92,2.59-10.38,18.14-71.72,40.59-140.82,48.4-164.81-8.44,12.57-26.59,17.17-40.28,20.63l-2.6.66c-2.46.63-4.98,1-7.65,1.4l-1.23.19Z"/><path d="M372.4,92.3c-14.02,37.35-76.45,208.79-72.89,292.12.07,1.6.17,3.18.28,4.72-4.21.5-9.08.98-14.54,1.26-4.27.23-8.89.36-13.82.31-18.23-.17-40.67-2.64-65.1-10.58-29.83-9.69-51.92-24.05-65.99-34.93,5-90.52,10-181.03,14.99-271.55h0c.23.12.46.25.69.39,1.46.83,2.97,1.65,4.53,2.47.5.26,1,.52,1.51.78,4.18,2.13,8.65,4.18,13.4,6.14,1.32.55,2.67,1.09,4.03,1.62,1.11.43,2.23.87,3.38,1.28,2.48.93,5.01,1.83,7.59,2.7.21.07.42.14.63.21.86.29,1.72.57,2.59.85.87.28,1.75.56,2.64.84,1.23.38,2.46.76,3.71,1.13.73.22,1.46.43,2.2.64.96.28,1.94.55,2.92.83,1.06.29,2.12.58,3.19.86.92.25,1.85.48,2.79.72,1.62.42,3.25.82,4.9,1.21.83.2,1.67.4,2.51.59.87.21,1.74.4,2.62.6,2.87.63,5.77,1.23,8.71,1.8,1.07.21,2.15.41,3.24.61.86.17,1.74.32,2.62.47,1.45.26,2.9.5,4.36.74,1.06.17,2.11.34,3.18.5.31.05.6.09.91.13,1.83.29,3.68.55,5.53.8,1.13.15,2.26.29,3.38.44.66.09,1.32.17,1.97.25.97.12,1.95.23,2.93.33,1.38.16,2.76.3,4.15.44,1.06.1,2.11.2,3.16.29,1.46.14,2.93.26,4.4.37.62.05,1.23.09,1.84.14,1.03.08,2.06.15,3.09.2,1.39.09,2.78.17,4.16.24,1.39.07,2.79.12,4.17.18,1.72.06,3.41.1,5.09.13,3.35.05,6.7.06,10.05.06.11,0,.23,0,.34,0,1.56-.02,3.09-.06,4.61-.09.06,0,.12,0,.17,0,10.11-.31,19.64-1.15,28.39-2.47,3.13-.48,6.16-1.02,9.08-1.61,5.95-1.22,11.45-2.68,16.43-4.38,6.37-2.18,11.89-4.74,16.39-7.65-.33.85-.69,1.82-1.1,2.91Z" fill="#078450"/><path d="M273.58,391.21c-.72,0-1.43,0-2.15-.01-22.28-.2-44.24-3.77-65.25-10.61-23.86-7.75-46.12-19.53-66.14-35.01l-.21-.16v-.26c5.02-90.52,10.01-181.03,15-271.55l.14-.68,1.3.66c1.37.78,2.84,1.58,4.51,2.46.5.26,1,.52,1.5.78,4.21,2.14,8.7,4.2,13.36,6.13,1.31.55,2.66,1.08,4.02,1.62,1.11.43,2.22.86,3.36,1.28,2.4.9,4.88,1.78,7.58,2.69l.78.25c.81.27,1.61.54,2.43.8.87.28,1.75.56,2.64.84l.12.04c1.19.36,2.38.73,3.58,1.09.71.21,1.43.42,2.15.62,1.01.3,1.99.57,2.97.84,1.06.29,2.12.58,3.19.86.92.24,1.85.48,2.78.72,1.62.42,3.24.82,4.89,1.2.83.2,1.67.4,2.51.59.61.15,1.21.28,1.82.42l.8.18c2.97.65,5.9,1.26,8.7,1.8,1.07.2,2.15.41,3.23.61.59.11,1.18.22,1.78.32l.84.15c1.44.26,2.89.5,4.35.74,1.04.17,2.09.33,3.14.49.34.06.63.1.93.14,1.83.29,3.68.55,5.53.8,1.1.15,2.2.29,3.29.42.75.1,1.4.18,2.05.26.97.12,1.95.23,2.92.33,1.38.16,2.76.3,4.14.44h.11c1.02.11,2.03.21,3.04.29,1.46.14,2.93.26,4.39.37.6.05,1.18.09,1.76.13,1.11.08,2.13.15,3.16.21,1.4.09,2.78.17,4.16.24,1.39.07,2.78.12,4.17.18,1.68.06,3.33.09,4.98.13h.1c3.27.05,6.54.06,9.81.06h.23s.32,0,.32,0c1.57-.02,3.1-.06,4.62-.1h.16c10.05-.32,19.58-1.15,28.35-2.47,3.04-.46,6.09-1,9.06-1.61,5.91-1.21,11.42-2.68,16.37-4.37,6.37-2.18,11.85-4.73,16.28-7.6l1.29-.83-.55,1.43c-.25.64-.51,1.35-.8,2.12l-.3.79c-12.79,34.08-76.43,208.32-72.86,291.92.06,1.46.15,3,.28,4.7l.04.48-.47.06c-5.05.6-9.81,1.01-14.57,1.26-3.88.21-7.8.32-11.71.32ZM140.86,344.95c19.88,15.33,41.96,27,65.63,34.69,20.92,6.8,42.77,10.35,64.95,10.56,4.58.05,9.22-.06,13.79-.31,4.59-.24,9.18-.63,14.03-1.2-.11-1.53-.19-2.93-.25-4.26-3.58-83.79,60.12-258.2,72.92-292.31h0s.3-.79.3-.79c.09-.25.19-.5.28-.73-4.26,2.59-9.37,4.91-15.23,6.91-4.99,1.7-10.54,3.18-16.49,4.4-2.99.61-6.05,1.15-9.1,1.62-8.8,1.33-18.38,2.16-28.45,2.48h-.17c-1.52.04-3.06.08-4.62.1h-.58c-3.28,0-6.55-.01-9.83-.06h-.11c-1.66-.04-3.32-.07-5-.13-1.39-.06-2.78-.11-4.18-.18-1.38-.06-2.77-.15-4.16-.24-1.04-.06-2.08-.13-3.11-.21-.66-.05-1.25-.09-1.84-.14-1.46-.11-2.93-.23-4.4-.37-1.01-.09-2.03-.19-3.05-.28h-.11c-1.39-.15-2.77-.29-4.15-.45-.97-.1-1.96-.21-2.94-.34-.66-.08-1.31-.16-1.98-.25-1.17-.15-2.28-.29-3.38-.44-1.86-.25-3.71-.51-5.54-.8-.3-.04-.61-.08-.92-.13-1.08-.17-2.13-.33-3.18-.5-1.46-.24-2.91-.48-4.36-.74l-.84-.15c-.6-.11-1.2-.21-1.79-.33-1.08-.2-2.16-.4-3.23-.61-2.81-.54-5.74-1.15-8.73-1.8l-.8-.18c-.61-.14-1.22-.27-1.83-.42-.84-.19-1.68-.39-2.51-.59-1.65-.38-3.29-.79-4.91-1.21-.93-.24-1.86-.47-2.79-.72-1.07-.29-2.13-.57-3.2-.87-.98-.27-1.97-.55-2.93-.83-.77-.22-1.49-.43-2.21-.64-1.21-.36-2.4-.72-3.59-1.09l-.12-.04c-.89-.28-1.78-.56-2.65-.84-.82-.26-1.63-.53-2.44-.8l-.77-.25c-2.72-.92-5.21-1.8-7.61-2.71-1.14-.42-2.27-.85-3.38-1.28-1.36-.54-2.72-1.08-4.04-1.63-4.68-1.94-9.2-4.01-13.43-6.16-.51-.26-1.01-.52-1.51-.78-1.68-.88-3.16-1.69-4.54-2.47-4.97,90.12-9.94,180.3-14.93,270.49Z"/><path d="M285.26,390.39c.02.42.05.83.08,1.25-4.02.49-8.63.92-13.78,1.22-20.12,1.14-48.25-.02-79.69-10.24-29.83-9.69-51.92-24.05-65.99-34.93,5.22-94.46,10.43-188.92,15.64-283.37.74.59,1.49,1.18,2.28,1.77.39.3.8.59,1.21.9.67.48,1.36.97,2.07,1.46.53.36,1.07.73,1.62,1.09.52.34,1.04.68,1.58,1.03.06.04.11.08.17.1.45.29.91.58,1.37.86.43.27.87.53,1.31.79.72.44,1.46.87,2.2,1.3.23.13.46.26.69.4,1.46.83,2.97,1.65,4.53,2.47.5.26,1,.52,1.51.78,4.18,2.13,8.65,4.18,13.4,6.14,1.32.55,2.67,1.09,4.03,1.62,1.11.43,2.23.87,3.38,1.28,2.48.93,5.01,1.83,7.59,2.7.21.07.42.14.63.21.86.29,1.72.57,2.59.85.87.28,1.75.56,2.64.84,1.23.38,2.46.76,3.71,1.13.73.22,1.46.43,2.2.64.96.28,1.94.55,2.92.83,1.06.29,2.12.58,3.19.86.92.25,1.85.48,2.79.72,1.62.42,3.25.82,4.9,1.21.83.2,1.67.4,2.51.59.87.21,1.74.4,2.62.6,2.87.63,5.77,1.23,8.71,1.8,1.07.21,2.15.41,3.24.61.86.17,1.74.32,2.62.47,1.45.26,2.9.5,4.36.74,1.06.17,2.11.34,3.18.5.31.05.6.09.91.13,1.83.29,3.68.55,5.53.8,1.13.15,2.26.29,3.38.44.66.09,1.32.17,1.97.25.97.12,1.95.23,2.93.33,1.38.16,2.76.3,4.15.44,1.06.1,2.11.2,3.16.29,1.46.14,2.93.26,4.4.37.62.05,1.23.09,1.84.14,1.03.08,2.06.15,3.09.2,1.39.09,2.78.17,4.16.24,1.39.07,2.79.12,4.17.18,1.72.06,3.41.1,5.09.13,3.35.05,6.7.06,10.05.06.11,0,.23,0,.34,0,1.56-.02,3.09-.06,4.61-.09.06,0,.12,0,.17,0,10.11-.31,19.64-1.15,28.39-2.47,3.13-.48,6.16-1.02,9.08-1.61,5.95-1.22,11.45-2.68,16.43-4.38-15.36,41.14-74.54,205.31-72.13,287.8.06,1.89.14,3.75.27,5.56Z" fill="#078450"/><path d="M258.92,393.72c-22.93,0-45.48-3.56-67.2-10.62-23.86-7.75-46.11-19.53-66.14-35.01l-.21-.16v-.26c5.24-94.46,10.45-188.92,15.66-283.37l.05-.97.76.61c.73.59,1.49,1.17,2.27,1.76l1.21.9c.66.48,1.35.96,2.06,1.45.52.36,1.06.73,1.61,1.08.52.34,1.04.68,1.57,1.03.05.03.08.06.12.08.5.32.96.6,1.41.88.43.27.86.53,1.3.79.72.44,1.45.87,2.2,1.29l.69.4c1.37.78,2.84,1.58,4.51,2.46.5.26,1,.52,1.5.78,4.21,2.14,8.7,4.2,13.36,6.13,1.31.55,2.66,1.08,4.02,1.62,1.11.43,2.22.86,3.36,1.28,2.4.9,4.88,1.78,7.58,2.69l.78.25c.81.27,1.61.54,2.43.8.87.28,1.75.56,2.64.84l.12.04c1.19.36,2.38.73,3.58,1.09.71.21,1.43.42,2.15.62,1.01.3,1.99.57,2.97.84,1.06.29,2.12.58,3.19.86.92.24,1.85.48,2.78.72,1.62.42,3.24.82,4.89,1.2.83.2,1.67.4,2.51.59.61.15,1.21.28,1.82.42l.8.18c2.97.65,5.9,1.26,8.7,1.8,1.07.2,2.15.41,3.23.61.59.11,1.18.22,1.78.32l.84.15c1.44.26,2.89.5,4.35.74,1.04.17,2.09.33,3.14.49.34.06.63.1.93.14,1.83.29,3.68.55,5.53.8,1.1.15,2.2.29,3.29.42.75.1,1.4.18,2.05.26.97.12,1.95.23,2.92.33,1.38.16,2.76.3,4.14.44h.11c1.02.11,2.03.21,3.04.29,1.46.14,2.93.26,4.39.37.6.05,1.18.09,1.76.13,1.11.08,2.13.15,3.16.21,1.4.09,2.78.17,4.16.24,1.39.07,2.78.12,4.17.18,1.68.06,3.33.09,4.98.13h.1c3.27.05,6.54.06,9.81.06h.23s.32,0,.32,0c1.57-.02,3.1-.06,4.62-.1h.16c10.05-.32,19.58-1.15,28.35-2.47,3.04-.46,6.09-1,9.06-1.61,5.91-1.21,11.42-2.68,16.37-4.37l1-.34-.37.99c-7.35,19.7-26.24,71.64-42.71,128.36-20.52,70.63-30.41,124.21-29.38,159.25.06,2.09.15,3.9.27,5.53h0c.02.42.05.83.08,1.25l.04.48-.48.06c-4.46.54-9.1.95-13.81,1.22-4.24.24-8.46.36-12.67.36ZM126.4,347.47c19.88,15.33,41.96,27,65.63,34.69,25.59,8.32,52.34,11.76,79.5,10.21,4.52-.26,8.98-.65,13.27-1.16-.02-.26-.03-.52-.05-.78-.12-1.65-.21-3.47-.27-5.57-1.03-35.15,8.87-88.83,29.42-159.56,16.22-55.83,34.77-107.03,42.37-127.45-4.73,1.56-9.93,2.93-15.5,4.07-2.99.61-6.05,1.15-9.1,1.62-8.8,1.33-18.38,2.16-28.45,2.48h-.17c-1.52.04-3.06.08-4.62.1h-.58c-3.28,0-6.55-.01-9.83-.06h-.11c-1.66-.04-3.32-.07-5-.13-1.39-.06-2.78-.11-4.18-.18-1.38-.06-2.77-.15-4.16-.24-1.04-.06-2.08-.13-3.11-.21-.66-.05-1.25-.09-1.84-.14-1.46-.11-2.93-.23-4.4-.37-1.01-.09-2.03-.19-3.05-.28h-.11c-1.39-.15-2.77-.29-4.15-.45-.97-.1-1.96-.21-2.94-.33-.66-.08-1.31-.16-1.98-.25-1.17-.15-2.28-.29-3.38-.44-1.86-.25-3.71-.51-5.54-.8-.3-.04-.61-.08-.92-.13-1.08-.17-2.13-.33-3.18-.5-1.46-.24-2.91-.48-4.36-.74l-.84-.15c-.6-.11-1.2-.21-1.79-.33-1.08-.2-2.16-.4-3.23-.61-2.81-.54-5.74-1.15-8.73-1.8l-.8-.18c-.61-.14-1.22-.27-1.83-.42-.84-.19-1.68-.39-2.51-.59-1.65-.38-3.29-.79-4.91-1.21-.93-.24-1.86-.47-2.79-.72-1.07-.29-2.13-.57-3.2-.87-.98-.27-1.97-.55-2.93-.83-.77-.22-1.49-.43-2.21-.64-1.21-.36-2.4-.72-3.59-1.09l-.12-.04c-.89-.28-1.78-.56-2.65-.84-.82-.26-1.63-.53-2.44-.8l-.77-.25c-2.72-.92-5.21-1.8-7.61-2.71-1.14-.42-2.27-.85-3.38-1.28-1.36-.54-2.72-1.08-4.04-1.63-4.68-1.94-9.2-4.01-13.43-6.16-.51-.26-1.01-.52-1.51-.78-1.68-.88-3.17-1.69-4.54-2.48l-.69-.4c-.75-.43-1.5-.86-2.22-1.31-.44-.26-.88-.52-1.31-.79-.46-.28-.91-.57-1.37-.86-.02,0-.1-.06-.17-.1-.54-.34-1.06-.69-1.58-1.03-.55-.36-1.1-.73-1.63-1.09-.71-.49-1.41-.98-2.08-1.47l-1.22-.9c-.52-.39-1.04-.78-1.54-1.18-5.19,94.04-10.38,188.09-15.58,282.14Z"/><path d="M340.68,101.42c-7.54,20.71-29.62,82.85-46.87,148.09-.89,3.36-1.77,6.74-2.63,10.12-11.65,45.66-20.47,91.86-19.92,125.61.03,1.86.09,3.68.17,5.46.04.73.09,1.45.13,2.16.07,1.15.16,2.29.26,3.4-19.68,2.54-53.93,4.31-93.56-8-29.95-9.3-52.19-23.31-66.4-33.94.34-7.87.67-15.72,1.01-23.59,1.45-33.62,2.9-67.23,4.34-100.84.15-3.52.31-7.04.46-10.56,1.98-45.98,3.95-91.96,5.93-137.95.61-13.96,1.21-27.92,1.81-41.88.02.4.05.8.1,1.21.05.41.1.81.17,1.23.07.38.14.76.23,1.15,0,.02,0,.04.02.07.08.4.19.8.31,1.21h.01c.11.41.24.81.38,1.22.32.9.7,1.79,1.13,2.69.14.31.3.63.47.94.27.51.56,1.03.86,1.54.2.33.4.65.61.97.25.41.53.82.82,1.22.23.33.47.67.71.99.06.08.11.16.18.23.3.4.62.81.95,1.22.3.36.6.72.91,1.09.04.03.07.08.11.11.35.41.72.81,1.09,1.21.37.4.74.8,1.13,1.19.83.83,1.69,1.66,2.61,2.5.37.34.75.67,1.14.99.71.63,1.44,1.25,2.2,1.85.74.6,1.5,1.18,2.28,1.78.4.29.8.59,1.21.89.68.49,1.37.98,2.08,1.46.52.37,1.07.73,1.62,1.09.52.34,1.04.69,1.57,1.03.06.04.12.08.17.1.46.3.91.58,1.37.86.43.27.87.53,1.31.8.71.44,1.45.87,2.2,1.29.24.13.46.27.7.4,1.46.83,2.97,1.65,4.53,2.46.5.26,1,.52,1.51.78,4.18,2.13,8.65,4.19,13.4,6.15,1.31.55,2.67,1.08,4.03,1.62,1.11.43,2.23.87,3.38,1.28,2.47.93,5.01,1.83,7.58,2.7.22.07.42.14.63.21.86.28,1.72.57,2.59.85.87.28,1.75.56,2.64.84,1.23.38,2.46.76,3.71,1.13.73.21,1.47.43,2.21.64.96.28,1.94.55,2.92.82,1.07.3,2.13.58,3.2.87.92.24,1.85.48,2.79.72,1.62.42,3.25.82,4.9,1.2.83.2,1.67.4,2.51.59.87.21,1.75.4,2.63.6,2.87.63,5.78,1.23,8.71,1.8,1.07.2,2.15.41,3.23.61.87.16,1.75.31,2.62.47,1.45.26,2.9.5,4.36.74,1.06.17,2.12.33,3.19.5.3.05.6.09.91.13,1.82.29,3.68.55,5.53.8,1.13.15,2.26.29,3.38.43.67.09,1.32.17,1.98.25.97.12,1.95.23,2.93.33,1.38.16,2.76.3,4.15.44,1.05.1,2.11.2,3.16.29,1.46.14,2.93.27,4.4.37.61.06,1.22.1,1.83.14,1.03.08,2.06.15,3.09.2,1.4.09,2.79.18,4.17.24,1.39.07,2.79.13,4.17.18,1.72.06,3.41.1,5.1.13,3.35.05,6.69.06,10.05.07.11-.01.24,0,.35-.01,1.6.01,3.13-.03,4.61-.09.06,0,.12-.01.17-.01,10.12-.31,19.65-1.15,28.4-2.47.39-.06.78-.12,1.17-.18,2.72-.44,5.36-.91,7.9-1.43Z" fill="#078450"/><path d="M243.55,398.57c-22.23,0-44.44-3.31-65.43-9.83-23.92-7.43-46.31-18.87-66.55-34.02l-.21-.16,1.56-36.34c1.27-29.46,2.54-58.91,3.8-88.36l6.38-148.51c.61-13.96,1.21-27.92,1.81-41.88h1c.02.39.05.77.1,1.17.05.4.1.8.17,1.21.07.4.14.75.22,1.12l.02.08c.07.35.16.7.27,1.05l.05.13c.11.39.23.78.37,1.18.3.83.66,1.7,1.11,2.64.14.31.29.62.46.91.27.51.56,1.02.85,1.53.19.32.39.63.6.95.25.41.52.81.81,1.2.23.33.47.67.7.98.08.11.1.15.13.18.34.45.66.85.98,1.26l.95,1.13c.4.46.77.86,1.14,1.25.37.4.73.79,1.12,1.18.9.9,1.75,1.71,2.59,2.48.36.33.74.66,1.12.97.78.69,1.49,1.29,2.19,1.84.65.53,1.31,1.04,1.99,1.56l1.48,1.1c.67.49,1.36.97,2.06,1.45.52.37,1.05.72,1.59,1.07l.62.41c.32.21.64.43.97.63l.09.06c.53.34.98.62,1.44.89.27.17.53.33.79.49l.52.31c.71.44,1.44.86,2.18,1.28.12.06.24.13.35.2.11.07.22.13.34.19,1.45.83,2.97,1.65,4.52,2.46l.21.11c.43.22.86.45,1.29.67,4.2,2.14,8.7,4.21,13.36,6.13,1.04.44,2.12.86,3.2,1.29l1.21.48c.97.38,1.96.76,2.97,1.12,2.38.9,4.92,1.8,7.58,2.7l1.71.57c.5.16,1,.33,1.5.49.87.28,1.75.56,2.64.84,1.22.38,2.45.76,3.7,1.13l2.2.64c.96.28,1.94.55,2.91.82.76.21,1.51.41,2.26.62l.94.25c.91.24,1.84.48,2.78.72,1.63.42,3.27.83,4.88,1.2.83.2,1.67.4,2.51.59.6.14,1.19.28,1.79.41l.84.19c2.83.62,5.75,1.23,8.7,1.8l5.84,1.08c1.44.26,2.89.5,4.35.74l3.19.5c.3.05.59.09.89.13,1.83.29,3.68.55,5.53.8,1,.13,2,.26,3,.38l.37.05c.67.09,1.32.17,1.98.25.97.12,1.94.23,2.92.33,1.38.16,2.76.3,4.15.44,1.04.1,2.1.2,3.15.29,1.46.14,2.92.27,4.39.37.62.06,1.22.1,1.83.14,1.03.08,2.05.15,3.08.2,1.46.09,2.82.18,4.16.24,1.39.07,2.79.13,4.16.18,1.72.06,3.4.1,5.09.13,3.31.05,6.62.06,9.93.07h.11s.12,0,.21,0c.03,0,.06,0,.09,0,1.45,0,2.91-.02,4.63-.09.11,0,.15-.01.19-.01,9.97-.31,19.51-1.13,28.32-2.46l1.17-.18c2.9-.47,5.48-.94,7.88-1.43l.88-.18-.31.84c-8.46,23.21-29.95,84.1-46.86,148.05-.89,3.36-1.77,6.74-2.63,10.12-13.7,53.67-20.39,95.89-19.9,125.48.03,1.77.08,3.55.17,5.45l.13,2.15c.07,1.14.16,2.28.26,3.38l.04.48-.48.06c-9.39,1.21-18.87,1.81-28.34,1.81ZM112.37,354.08c20.1,15,42.31,26.34,66.04,33.71,29.65,9.21,61.75,11.99,92.87,8.04-.08-.96-.16-1.94-.22-2.93l-.13-2.16c-.09-1.91-.14-3.7-.17-5.48-.49-29.68,6.21-71.99,19.93-125.74.86-3.38,1.74-6.76,2.63-10.12,16.73-63.23,37.92-123.47,46.58-147.3-2.16.43-4.48.84-7.05,1.26l-1.17.18c-8.86,1.34-18.43,2.17-28.46,2.48-.09,0-.14.01-.19.01-1.72.07-3.2.1-4.61.09-.02,0-.13,0-.21,0-.03,0-.06,0-.09,0h-.16c-3.32,0-6.63-.02-9.95-.07-1.69-.03-3.38-.07-5.11-.13-1.38-.05-2.78-.11-4.17-.18-1.35-.06-2.72-.15-4.09-.24-1.11-.06-2.14-.12-3.17-.21-.61-.04-1.22-.08-1.84-.14-1.46-.1-2.93-.23-4.4-.37-1.04-.09-2.11-.19-3.16-.29-1.39-.14-2.77-.28-4.16-.44-.98-.1-1.96-.21-2.93-.33-.66-.08-1.31-.16-1.98-.25l-.37-.05c-1-.12-2-.25-3.01-.38-1.85-.25-3.72-.51-5.54-.8-.3-.04-.61-.08-.91-.13l-3.18-.5c-1.46-.24-2.91-.48-4.37-.74l-5.85-1.08c-2.96-.57-5.89-1.18-8.73-1.8l-.84-.19c-.6-.13-1.2-.27-1.8-.41-.83-.19-1.68-.39-2.51-.59-1.62-.37-3.27-.78-4.91-1.2-.94-.24-1.87-.48-2.79-.72l-.94-.25c-.76-.2-1.51-.41-2.27-.62-.98-.27-1.96-.54-2.92-.82l-2.21-.64c-1.25-.37-2.49-.75-3.72-1.13-.89-.28-1.77-.56-2.64-.84-.5-.16-1.01-.33-1.51-.49l-1.71-.56c-2.67-.9-5.23-1.81-7.61-2.71-1.01-.36-2-.75-2.99-1.13l-1.22-.48c-1.09-.43-2.17-.86-3.21-1.3-4.69-1.94-9.21-4.01-13.43-6.17-.44-.22-.87-.45-1.3-.67l-.21-.11c-1.56-.81-3.09-1.64-4.54-2.47-.12-.06-.24-.13-.36-.21-.11-.06-.22-.13-.33-.19-.76-.43-1.51-.86-2.22-1.3l-.51-.31c-.27-.16-.54-.33-.8-.49-.45-.27-.89-.55-1.34-.84-.07-.04-.14-.08-.2-.12-.33-.21-.66-.43-.98-.64l-.59-.39c-.57-.38-1.12-.73-1.64-1.1-.7-.48-1.4-.97-2.08-1.46l-1.51-1.12c-.68-.53-1.35-1.04-2-1.57-.71-.56-1.44-1.17-2.21-1.86-.38-.31-.77-.65-1.15-1-.86-.78-1.72-1.61-2.62-2.51-.39-.4-.77-.8-1.14-1.2-.36-.39-.73-.79-1.07-1.19l-.08-.09-.97-1.15c-.34-.42-.66-.84-.97-1.24-.02-.02-.08-.09-.14-.17-.29-.38-.53-.73-.76-1.06-.29-.4-.58-.82-.84-1.25-.2-.31-.41-.64-.61-.97-.31-.52-.6-1.05-.87-1.57-.17-.31-.34-.65-.48-.97-.46-.96-.84-1.86-1.14-2.73-.13-.39-.26-.77-.36-1.14l-.04-.1c-.02-.06-.04-.13-.06-.19-.53,12.36-1.06,24.72-1.6,37.08l-6.38,148.51c-1.26,29.45-2.53,58.9-3.8,88.36l-1.54,35.81Z"/><path d="M307,126.18c-11.05,37.12-21.69,76.33-31.6,117.54-10.8,44.94-19.75,88.16-27.18,129.4-16.66-.85-36.43-3.91-58.36-9.46-24.47-6.19-52.81-16.34-77-32.93,3.58-83.13,7.15-166.23,10.72-249.35,29.15,15.94,97.9,47.32,183.4,44.8Z" fill="#79cc9e"/><path d="M248.64,373.64l-.44-.02c-17.48-.9-37.15-4.08-58.45-9.47-30.54-7.73-56.5-18.83-77.16-33l-.23-.16v-.28s10.77-250.15,10.77-250.15l.71.39c26.16,14.3,96.38,47.29,183.15,44.74l.69-.02-.2.66c-11.52,38.71-22.15,78.25-31.59,117.52-10.26,42.7-19.4,86.23-27.17,129.37l-.08.43ZM113.39,330.48c20.52,14.03,46.29,25.03,76.61,32.7,21.07,5.33,40.52,8.5,57.82,9.42,7.76-43.02,16.87-86.42,27.1-128.99,9.39-39.06,19.96-78.39,31.41-116.9-85.95,2.34-155.56-30-182.26-44.5l-10.67,248.27Z"/><path d="M334.06,263.5c.29.67,1.27,3.16.34,6.13-.74,2.37-2.3,3.75-2.93,4.25-13.96,1.67-27.96,2.96-42,3.71-.06,0-.13,0-.19,0-2.44.13-4.87.24-7.3.33-30.48,1.16-61.03-.68-90.91-7.05-25.83-5.51-51.02-13.4-75.56-23.03-.39-.47-1.9-2.4-1.81-5.27.09-2.99,1.86-4.88,2.27-5.29,11.75,4.71,23.66,9.03,35.74,12.86,30.95,9.8,62.62,16.23,95.09,17.74,12.43.57,24.85.52,37.25-.01,2.69-.11,5.37-.25,8.05-.41,14.02-.82,28.01-2.21,41.96-3.97Z" fill="#fc0"/><path d="M264.85,278.77c-26.34,0-50.65-2.44-73.89-7.39-24.56-5.24-50.01-13-75.64-23.05l-.12-.05-.08-.1c-.61-.74-2.01-2.75-1.92-5.6.09-2.96,1.72-4.92,2.41-5.62l.23-.24.31.12c12.09,4.85,24.11,9.17,35.71,12.85,33.13,10.49,64.19,16.29,94.96,17.72,11.83.54,24.35.54,37.21,0,2.5-.1,5.14-.24,8.05-.41,13.15-.77,26.86-2.07,41.93-3.97l.37-.05.15.35c.42.96,1.28,3.53.36,6.48-.74,2.35-2.26,3.82-3.1,4.49l-.11.09-.14.02c-14.91,1.78-28.66,3-42.03,3.71h-.22c-2.41.14-4.84.25-7.29.34-5.81.22-11.53.33-17.15.33ZM115.81,247.44c25.54,10.02,50.89,17.74,75.36,22.96,28.11,5.99,57.8,8.3,90.79,7.04,2.44-.09,4.86-.2,7.3-.33h.22c13.28-.72,26.96-1.93,41.8-3.7.77-.63,2.03-1.92,2.66-3.92.73-2.33.2-4.4-.19-5.44-14.94,1.88-28.55,3.16-41.61,3.92-2.92.17-5.55.31-8.06.41-12.89.55-25.44.55-37.3,0-30.86-1.44-62-7.25-95.22-17.76-11.52-3.65-23.45-7.94-35.46-12.75-.68.76-1.83,2.39-1.9,4.71-.07,2.39,1.05,4.12,1.61,4.84Z"/><path d="M117.57,221.51c-.29,6.83-.59,13.67-.88,20.5-7.66,2.54-15.33,5.1-23.07,7.32-15.11,4.34-32.22,8.94-47.91,5.05-7.42-1.84-14.8-5.5-18.85-12.29-3.82-6.4-4.3-14.04-2.63-21.23,3.23-13.94,11.17-26.9,18.39-39.1,10.37-17.56,22.18-34.24,32-52.13,2.54-4.62,7.63-7.24,12.79-4.98,4.51,1.98,7.51,8.2,4.99,12.8-10.11,18.42-22.31,35.55-32.92,53.68-3.34,5.72-6.54,11.55-9.6,17.41-2.47,4.71-5.45,10.91-6.44,15.13-.38,1.59-.67,3.22-.77,4.85-.01.09,0,.14-.01.21.03.59.09,1.18.17,1.76.14.96.35,1.59,1.41,2.43,3.53,2.83,9.23,3.53,14.48,3.41,13.37-.3,26.5-4.54,39.17-8.46,6.6-2.04,13.13-4.22,19.69-6.36Z"/><path d="M103.02,125.58c-.03-.08,1.77-1.37,2.89-3.43,1.68-3.09,2.61-8.17,2.42-11.72-.17-3.1-1.48-6.06-4.24-7.74-3.05-1.86-6.82-.52-8.8,2.27.02-.36.02-.88-.08-1.49-.06-.39-.14-.66-.17-.74-.34-1.03-.84-2.01-1.49-2.88-1.52-2.02-3.96-3.09-6.47-3.06-2.85.04-5.2,1.53-7.48,3.09-.04-.07-.46-.79-.5-.86-2.9-4.4-8.62-4.95-12.91-1.89-10.25,7.29-6.51,22.24-6.51,22.24-15.25,10.54-2.93,21.65-2.93,21.65-7.43,8.3.79,15.62,19.65,19.48,18.86,3.86,12.47-11.26,12.47-11.26,23.97.33,15.87-19.4,14.14-23.68Z" fill="#fff"/><path d="M81.88,161.65c-1.63,0-3.49-.21-5.57-.64-12.78-2.62-20.74-6.86-22.42-11.94-.85-2.58-.12-5.27,2.19-8-1.18-1.19-4.83-5.35-4.49-10.69.26-4.08,2.8-7.85,7.54-11.2-.48-2.3-2.76-15.65,6.78-22.43,2.35-1.67,5.2-2.35,7.83-1.86,2.38.44,4.43,1.82,5.79,3.88.02.03.13.22.24.42,2.34-1.58,4.56-2.84,7.31-2.88.04,0,.08,0,.12,0,2.7,0,5.22,1.21,6.76,3.26.66.88,1.18,1.89,1.56,3.02.03.08.12.38.19.82.01.09.03.17.04.26,2.37-2.42,5.87-3.05,8.61-1.38,2.69,1.64,4.28,4.53,4.48,8.14.21,3.85-.86,9.01-2.48,11.98-.89,1.64-2.18,2.8-2.73,3.3,0,0,0,0,0,0,1.32,3.29,4.82,12.34.65,18.44-2.54,3.71-7.46,5.59-14.65,5.62.59,1.74,1.8,6.31-.65,9.29-1.41,1.72-3.78,2.59-7.07,2.59ZM72.03,95.72c-1.91,0-3.86.64-5.54,1.83-9.86,7.01-6.35,21.57-6.31,21.72l.08.34-.29.2c-4.66,3.22-7.14,6.8-7.39,10.64-.37,5.75,4.47,10.18,4.51,10.23l.37.33-.33.37c-2.3,2.56-3.07,5.05-2.3,7.38,1.56,4.73,9.26,8.74,21.67,11.28,5.89,1.2,9.82.66,11.67-1.6,2.63-3.2.26-8.91.24-8.97l-.3-.71h.77c7.2.12,12.12-1.63,14.54-5.17,3.98-5.81.35-14.78-.84-17.73l-.03-.08c-.14-.34.08-.54.39-.81.51-.46,1.71-1.55,2.52-3.04,1.54-2.84,2.56-7.76,2.36-11.45-.18-3.27-1.6-5.88-4-7.34-3-1.83-6.43-.27-8.13,2.13l-1.01,1.42.1-1.74c.03-.45,0-.92-.08-1.38-.06-.35-.13-.59-.15-.66-.34-1.03-.82-1.95-1.41-2.74-1.35-1.79-3.57-2.86-5.96-2.86-.03,0-.07,0-.1,0-2.65.03-4.83,1.38-7.2,3.01l-.42.29-.28-.43s-.13-.22-.24-.42c-.11-.19-.23-.39-.25-.44-1.22-1.85-3-3.05-5.14-3.45-.5-.09-1.01-.14-1.52-.14ZM103.07,125.56l-.05.02h.06s0-.02,0-.02Z"/><path d="M64.9,105.65s.42,21.2,9.56,18.39c9.27-2.86,5.15-24.14,5.15-24.14" fill="#fff"/><path d="M72.85,124.79c-1.04,0-2.01-.32-2.89-.95-5.21-3.76-5.54-17.59-5.56-18.18l1-.02c0,.14.33,13.92,5.14,17.39,1.1.8,2.33.97,3.77.53,8.73-2.7,4.85-23.36,4.8-23.57l.98-.19c.17.89,4.09,21.75-5.49,24.71-.61.19-1.19.28-1.76.28Z"/><path d="M80.22,104.56c1.45,15.36-5.56,19.65-5.56,19.65,18.37,15.32,20.69-19.72,20.69-19.72-.77,11.66-4.45,17.94-4.45,17.94,15.82,12.77,19.5-8.3,16.44-15.83" fill="#fff"/><path d="M83.08,128.59c-2.63,0-5.56-1.33-8.74-3.99l-.53-.44.59-.37c.07-.04,6.73-4.36,5.33-19.18l1-.09c1.24,13.12-3.56,18.32-5.25,19.71,3.89,3.1,7.28,4.06,10.11,2.85,7.87-3.37,9.24-22.28,9.27-22.62h0s1,.06,1,.06h0c-.67,10.18-3.5,16.24-4.3,17.78,4.82,3.78,8.91,4.64,11.83,2.46,4.58-3.4,5.4-13.31,3.51-17.97l.93-.38c2,4.93,1.25,15.37-3.84,19.15-2.33,1.73-6.46,2.68-13.01-2.45-1.3,2.21-2.93,4-4.99,4.88-.92.39-1.88.59-2.89.59Z"/><path d="M89.23,150.36c5.76-.45,10.02-2.47,11.93-3.75,4.87-3.27,5.01-9.14,3.17-16.34-2.4-9.42-4.62-13.46-7.41-17.41-1.99-2.81-5.67-4.18-8.88-2.91-9.24,3.63-2.06,23.03-2.06,23.03,0,0-16.77-6.7-14.68,11.84" fill="#fff"/><path d="M89.27,150.86l-.08-1c5.2-.41,9.45-2.16,11.69-3.67,4.13-2.77,5.05-7.65,2.97-15.8-2.29-8.99-4.42-13.13-7.34-17.24-1.92-2.72-5.41-3.87-8.29-2.74-8.69,3.41-1.84,22.2-1.77,22.39l.39,1.05-1.04-.42c-.07-.03-7.08-2.77-11.17.35-2.48,1.89-3.43,5.58-2.83,10.96l-.99.11c-.65-5.76.43-9.75,3.21-11.87,3.61-2.75,8.95-1.52,11.15-.83-1.36-4.09-5.78-19.36,2.69-22.69,3.3-1.3,7.29,0,9.47,3.09,2.98,4.21,5.16,8.43,7.49,17.58,1.37,5.36,2.5,12.93-3.38,16.88-2.35,1.58-6.78,3.41-12.17,3.83Z"/><path d="M66.67,147.09c-4.69-1.5-8.14-3.39-10.25-5.62l.73-.69c2,2.11,5.3,3.91,9.83,5.36l-.3.95Z"/><path d="M81.78,151.53c-2.54,0-5.27-.32-7.75-1.33l.38-.93c5.26,2.13,11.77,1.02,14.9.49l.18.98c-1.78.3-4.6.78-7.7.78Z"/><path d="M481.17,350.22l-18.88-11.58-25.99,36.79,18.78,11.52c.05.03.13.02.16-.03l25.93-36.7Z" fill="#078450"/><path d="M455.14,387.47c-.11,0-.23-.03-.33-.09l-19.23-11.8,26.57-37.6,19.73,12.11-26.24,37.13c-.12.17-.31.26-.5.26ZM437.01,375.28l18.02,11.06,25.42-35.97-18.02-11.06-25.42,35.97Z"/><path d="M453.55,377.37s.03.02.06.04c.1.07.12.14.06.22-.03.04-.11.1-.24.17l.58.42c.4-.06.73-.24.98-.55.25-.31.36-.67.34-1.1l-.69-.51c.25-.46.37-.94.37-1.44-.21-.45-.51-.81-.9-1.1-.39-.28-.8-.43-1.21-.42s-.73.14-.96.42-.32.57-.3.86c.02.3.18.61.48.97-.08.1-.17.11-.26.04-.09-.06-.18-.17-.28-.31-.09-.14-.16-.29-.2-.45-.12-.44-.03-.84.27-1.21.15-.18.3-.31.47-.4.06-.28,0-.58-.18-.91-.19-.32-.45-.61-.81-.87-.66-.48-1.32-.69-2-.63-.57.05-1.1.28-1.6.69,0,0-.03-.02-.06-.04-.09-.07-.11-.14-.06-.22.04-.04.11-.1.24-.17l-.57-.42c-.41.06-.73.24-.99.55-.25.31-.36.67-.34,1.1l.75.54c-.22.49-.33.9-.33,1.24.2.23.44.45.72.66.55.4,1.04.61,1.46.64-.02-.17,0-.38.09-.64.08-.26.2-.48.35-.66.15-.18.26-.28.36-.32.1-.04.17-.03.21,0,.03.02.06.05.08.08-.1.06-.2.16-.31.3-.39.48-.53.99-.45,1.54.11.65.54,1.25,1.3,1.8.55.41,1.15.62,1.79.64.64.03,1.23-.15,1.78-.55Z" fill="#79cc9e"/><path d="M453.88,378.74l-.76-.55c-.43.18-.89.26-1.37.23-.73-.03-1.43-.28-2.06-.74-.83-.6-1.33-1.28-1.48-2.02-.49-.06-1.02-.29-1.61-.72-.32-.23-.59-.48-.81-.74l-.12-.14v-.19c0-.32.07-.67.22-1.07l-.63-.46v-.24c-.03-.55.12-1.03.44-1.44.34-.4.77-.65,1.3-.73l.21-.03.71.52c.37-.19.76-.3,1.16-.34.79-.07,1.58.17,2.34.73.41.3.72.63.95,1.02.14.26.23.52.26.76.09-.01.19-.01.28-.02.52,0,1.02.17,1.5.52.47.35.82.78,1.06,1.29l.05.21c0,.44-.08.87-.25,1.28l.56.41v.24c.03.55-.12,1.03-.44,1.44-.31.39-.76.64-1.29.73l-.2.03ZM453.45,376.82l.33.09.14.1c.2.14.27.33.29.46,0,.06,0,.12,0,.18.16-.06.29-.16.4-.29.13-.16.2-.34.23-.54l-.83-.61.21-.38c.19-.35.29-.72.31-1.09-.17-.32-.4-.59-.7-.81-.3-.22-.6-.33-.91-.33h0c-.34,0-.48.12-.57.23-.19.24-.2.41-.2.52.01.18.13.41.36.68l.26.31-.25.32c-.24.32-.65.37-.96.13-.12-.08-.26-.23-.39-.44-.12-.17-.2-.37-.26-.59-.16-.59-.03-1.16.37-1.66.12-.14.24-.26.38-.36-.01-.11-.06-.24-.14-.38-.15-.26-.37-.49-.66-.71-.57-.41-1.11-.59-1.66-.54-.47.04-.9.23-1.32.58l-.3.25-.31-.24c-.27-.2-.38-.45-.34-.68-.16.06-.3.16-.41.3-.12.15-.19.33-.22.53l.87.63-.17.37c-.15.33-.24.62-.27.86.15.15.32.3.51.44.26.19.51.33.73.42.02-.06.03-.12.05-.18.1-.31.25-.59.43-.81.21-.26.39-.41.58-.47.34-.13.57,0,.68.08.04.03.12.09.19.2l.28.43-.43.27s-.09.06-.19.19c-.3.37-.41.74-.35,1.15.09.51.45,1,1.1,1.47.48.35.97.53,1.51.55.54.03,1.01-.12,1.47-.45l.2-.14ZM452.12,374.96s0,0,0,0c0,0,0,0,0,0Z"/><path d="M470.1,354.4s.03.02.06.04c.1.07.12.14.06.22-.03.04-.11.1-.24.17l.58.42c.4-.06.73-.24.98-.55.25-.31.36-.67.34-1.1l-.69-.51c.25-.46.37-.94.37-1.44-.21-.45-.51-.81-.9-1.1-.39-.28-.8-.43-1.21-.42-.42,0-.73.14-.96.42-.22.28-.32.57-.3.86.02.3.18.61.48.97-.08.1-.17.11-.26.04-.09-.06-.18-.17-.28-.31-.09-.14-.16-.29-.2-.45-.12-.44-.03-.84.27-1.21.15-.18.3-.31.47-.4.06-.28,0-.58-.18-.91-.19-.32-.45-.61-.81-.87-.66-.48-1.32-.69-2-.63-.57.05-1.1.28-1.6.69,0,0-.03-.02-.06-.04-.09-.07-.11-.14-.06-.22.04-.04.11-.1.24-.17l-.57-.42c-.41.06-.73.24-.99.55-.25.31-.36.67-.34,1.1l.75.54c-.22.49-.33.9-.33,1.24.2.23.44.45.72.66.55.4,1.04.61,1.46.64-.02-.17,0-.38.09-.64.08-.26.2-.48.35-.66s.26-.28.36-.32c.1-.04.17-.03.21,0,.03.02.06.05.08.08-.1.06-.2.16-.31.3-.39.48-.53.99-.45,1.54.11.65.54,1.25,1.3,1.8.55.41,1.15.62,1.79.64.64.03,1.23-.15,1.78-.55Z" fill="#79cc9e"/><path d="M470.43,355.77l-.76-.55c-.44.18-.9.26-1.37.23-.73-.03-1.43-.28-2.06-.74-.83-.6-1.32-1.28-1.48-2.02-.49-.06-1.02-.29-1.61-.72-.32-.24-.59-.48-.81-.74l-.12-.14v-.18c0-.32.07-.67.22-1.07l-.63-.46v-.24c-.03-.55.12-1.03.44-1.43.34-.4.77-.65,1.3-.73l.21-.03.71.52c.37-.19.76-.3,1.16-.34.8-.07,1.59.18,2.34.73.41.3.72.63.95,1.02.14.26.23.52.26.76.09-.01.2-.01.28-.02.52,0,1.02.17,1.5.52.47.35.83.78,1.06,1.3l.05.21c0,.44-.08.87-.25,1.28l.56.41v.24c.03.55-.12,1.03-.44,1.43-.32.39-.76.65-1.29.73l-.2.03ZM470,353.85l.45.18c.22.15.28.34.3.46,0,.06,0,.12,0,.18.16-.06.29-.16.4-.29.12-.16.2-.33.23-.54l-.83-.61.21-.38c.19-.35.29-.71.31-1.09-.17-.32-.4-.59-.7-.81-.3-.21-.6-.33-.9-.33h0c-.34,0-.49.12-.57.23-.19.24-.2.41-.2.52.01.18.13.41.36.67l.26.31-.25.32c-.24.32-.65.37-.96.13-.12-.08-.26-.23-.39-.44-.12-.17-.21-.37-.27-.6-.16-.59-.03-1.16.37-1.65.12-.14.24-.26.38-.36-.01-.11-.06-.24-.14-.38-.15-.26-.37-.49-.66-.71-.56-.41-1.11-.58-1.66-.54-.47.04-.9.23-1.32.58l-.33.27-.32-.29c-.26-.19-.34-.43-.3-.65-.16.06-.3.16-.41.3-.12.15-.19.33-.22.53l.87.63-.17.37c-.15.33-.24.62-.27.86.15.15.32.3.51.44.27.19.51.33.73.42.02-.06.03-.12.05-.18.1-.31.25-.59.43-.81.21-.26.39-.41.58-.47.34-.12.57,0,.68.07.05.04.13.1.19.19l.3.43-.44.28s-.09.06-.19.19c-.3.37-.41.74-.35,1.15.09.51.45,1,1.1,1.47.47.35.97.53,1.51.55.52.02,1.01-.12,1.47-.46l.2-.15ZM468.67,351.99s0,0,0,0c0,0,0,0,0,0Z"/><path d="M454.09,368.81c3.46,2.12,8.13,1.2,10.43-2.06s1.37-7.62-2.09-9.75c-3.46-2.12-8.13-1.2-10.43,2.06s-1.37,7.62,2.09,9.75Z" fill="#79cc9e"/><path d="M458.16,370.44c-1.5,0-3-.39-4.33-1.21h0c-1.81-1.11-3.03-2.82-3.44-4.83-.4-1.96.03-3.96,1.21-5.64,2.45-3.47,7.43-4.46,11.1-2.2,1.81,1.11,3.03,2.82,3.44,4.83.4,1.96-.03,3.96-1.21,5.64-1.56,2.21-4.15,3.41-6.77,3.41ZM454.35,368.38c3.23,1.98,7.61,1.12,9.76-1.93,1.02-1.45,1.39-3.17,1.05-4.86-.35-1.73-1.42-3.21-2.99-4.17-3.23-1.98-7.61-1.12-9.76,1.93-1.02,1.45-1.39,3.17-1.05,4.86.35,1.73,1.42,3.21,2.99,4.17h0Z"/><path d="M502.53,374.54l-10.89-19.3-40.57,19.54,10.83,19.2c.03.06.1.08.16.05l40.47-19.49Z" fill="#078450"/><path d="M462.01,394.54c-.22,0-.43-.12-.54-.32l-11.09-19.66,41.47-19.97,11.38,20.17-40.95,19.72c-.08.04-.18.06-.26.06ZM451.77,374.99l10.39,18.43,39.67-19.1-10.39-18.43-39.67,19.1Z"/><path d="M465.21,384.85s.02.03.03.06c.06.11.04.19-.05.22-.05.02-.14.03-.29.03l.3.65c.38.14.76.14,1.12,0,.36-.15.64-.41.83-.8l-.36-.78c.44-.28.78-.64,1.02-1.08.04-.49-.05-.96-.26-1.4-.2-.44-.49-.76-.85-.96-.36-.2-.71-.24-1.04-.1-.33.14-.56.34-.68.61s-.14.62-.05,1.08c-.12.05-.2.01-.25-.09-.05-.1-.08-.24-.09-.41-.02-.16,0-.33.04-.49.11-.44.38-.75.83-.93.21-.09.41-.12.6-.12.19-.22.28-.51.28-.88,0-.38-.1-.76-.29-1.15-.34-.74-.82-1.25-1.44-1.52-.52-.23-1.09-.29-1.73-.17,0,0-.02-.03-.03-.06-.05-.11-.03-.18.05-.22.05-.02.15-.03.29-.03l-.29-.64c-.39-.15-.76-.14-1.13,0-.36.15-.64.41-.83.8l.39.84c-.43.32-.72.63-.89.93.06.3.16.61.31.93.29.62.61,1.04.97,1.27.06-.16.19-.33.39-.51.2-.18.41-.32.62-.41.21-.09.37-.12.46-.1.1.01.16.05.18.1.01.03.03.07.03.11-.12,0-.26.04-.42.11-.57.23-.95.61-1.14,1.13-.22.62-.13,1.35.27,2.21.28.62.7,1.1,1.25,1.43.55.34,1.15.47,1.82.38Z" fill="#79cc9e"/><path d="M465.77,386.41c-.25,0-.49-.05-.74-.14l-.19-.07-.4-.85c-.47-.05-.91-.21-1.31-.46-.63-.38-1.11-.94-1.44-1.65-.43-.92-.54-1.76-.32-2.48-.4-.29-.75-.75-1.05-1.41-.16-.36-.28-.71-.35-1.04l-.04-.18.09-.16c.15-.28.39-.55.71-.83l-.33-.7.11-.22c.25-.49.61-.84,1.09-1.03.49-.19.99-.19,1.49,0l.19.07.37.8c.42.02.81.11,1.18.27.73.33,1.3.92,1.69,1.77.21.45.32.9.33,1.35,0,.3-.05.56-.14.79.08.03.16.07.24.11.46.25.82.65,1.07,1.19.24.53.34,1.09.3,1.65l-.06.21c-.21.39-.49.72-.84,1l.29.62-.11.22c-.25.49-.61.84-1.09,1.03-.24.1-.49.15-.74.15ZM465.64,385.41c.17.02.33,0,.49-.06.19-.08.34-.2.46-.36l-.43-.94.37-.23c.33-.21.6-.48.8-.8,0-.36-.06-.71-.22-1.05-.16-.34-.37-.58-.64-.73-.3-.17-.48-.13-.61-.08-.28.12-.38.26-.42.36-.08.16-.08.42-.01.76l.08.4-.37.16c-.36.16-.75.01-.9-.35-.07-.14-.12-.33-.13-.58-.02-.2,0-.42.06-.65.15-.59.54-1.03,1.13-1.27.17-.07.34-.11.5-.14.04-.11.07-.24.07-.4,0-.3-.08-.61-.24-.94-.29-.63-.68-1.05-1.19-1.28-.43-.19-.9-.23-1.44-.14l-.38.07-.16-.35c-.15-.32-.1-.59.03-.76-.17-.02-.34,0-.51.06-.18.07-.33.19-.45.36l.45.97-.33.24c-.29.22-.51.43-.65.62.06.2.13.41.23.63.14.29.28.54.43.73.04-.04.09-.09.14-.13.24-.22.5-.39.77-.5.31-.13.54-.17.74-.13.26.04.47.18.56.4.02.04.06.14.07.26l.04.51-.52.03s-.11.01-.25.07c-.45.18-.72.45-.86.84-.17.49-.09,1.09.25,1.82.25.54.59.93,1.06,1.22.45.28.94.38,1.5.31l.23-.03.25.23.07.16c.11.22.08.42.03.54-.02.06-.05.11-.09.16ZM465.13,382.05s0,0,0,0c0,0,0,0,0,0Z"/><path d="M490.81,372.81s.02.03.03.06c.06.11.04.19-.05.22-.05.02-.14.03-.29.03l.3.65c.38.14.76.14,1.12,0,.36-.15.64-.41.83-.8l-.36-.78c.44-.28.78-.64,1.02-1.08.03-.49-.05-.96-.26-1.4-.2-.44-.49-.76-.85-.96-.36-.2-.71-.24-1.04-.1-.33.14-.56.34-.68.61s-.14.62-.05,1.08c-.12.05-.2.01-.25-.09-.05-.1-.08-.24-.09-.41-.02-.16,0-.33.04-.49.11-.44.38-.75.83-.93.21-.09.41-.12.6-.12.19-.22.28-.51.28-.88,0-.38-.1-.76-.29-1.15-.34-.74-.82-1.25-1.44-1.52-.52-.23-1.09-.29-1.73-.17,0,0-.02-.03-.03-.06-.05-.11-.03-.18.05-.22.05-.02.15-.03.29-.03l-.29-.64c-.39-.15-.76-.14-1.13,0-.36.15-.64.41-.83.8l.39.84c-.43.32-.72.63-.89.93.06.3.16.61.31.93.29.62.61,1.04.97,1.27.06-.16.19-.33.39-.51.2-.18.41-.32.62-.41.21-.09.37-.12.46-.1.1.01.16.05.18.1.01.03.03.07.03.11-.12,0-.26.04-.42.11-.57.23-.95.61-1.14,1.13-.22.62-.13,1.35.27,2.21.28.62.7,1.1,1.25,1.43.55.34,1.15.47,1.82.38Z" fill="#79cc9e"/><path d="M491.37,374.38c-.25,0-.49-.05-.74-.14l-.19-.07-.4-.85c-.47-.05-.91-.21-1.31-.46-.63-.38-1.11-.94-1.44-1.65-.43-.92-.54-1.76-.32-2.48-.4-.29-.75-.75-1.05-1.41-.17-.36-.28-.71-.35-1.04l-.04-.18.09-.16c.15-.28.39-.55.71-.83l-.33-.71.11-.22c.25-.49.61-.84,1.09-1.03.49-.19.99-.19,1.49,0l.19.07.36.8c.42.02.81.11,1.18.27.73.33,1.3.92,1.69,1.77.21.45.32.91.33,1.36,0,.3-.05.56-.14.79.08.03.16.07.24.12.46.25.82.65,1.07,1.19.24.53.34,1.09.3,1.65l-.06.21c-.21.39-.49.72-.83,1l.29.63-.11.21c-.25.49-.61.84-1.09,1.03-.24.1-.49.15-.74.15ZM491.24,373.37c.17.02.33,0,.49-.06.19-.08.34-.19.46-.36l-.43-.94.37-.23c.33-.21.6-.48.8-.81,0-.36-.06-.71-.22-1.05-.16-.34-.37-.58-.64-.73-.3-.17-.49-.13-.61-.08-.28.12-.38.26-.42.36-.08.16-.08.42-.01.76l.08.4-.37.16c-.36.16-.75.01-.9-.35-.07-.14-.11-.33-.13-.57-.02-.21,0-.42.06-.65.15-.59.54-1.03,1.12-1.27.17-.07.34-.11.5-.14.04-.11.07-.24.07-.4,0-.3-.08-.61-.24-.94-.29-.63-.68-1.05-1.19-1.28-.43-.19-.9-.24-1.44-.14l-.38.07-.16-.35c-.15-.32-.1-.59.04-.76-.17-.02-.34,0-.51.06-.18.07-.33.19-.45.36l.45.97-.33.24c-.29.22-.51.43-.65.62.05.2.13.41.23.63.14.3.28.54.43.72.04-.04.09-.09.13-.13.24-.22.5-.39.78-.5.31-.13.54-.17.74-.13.35.05.5.27.55.39.02.05.06.15.07.27l.04.51-.52.03s-.1,0-.25.07c-.44.18-.72.45-.86.84-.17.49-.09,1.09.25,1.82.25.54.59.93,1.05,1.21.45.28.95.38,1.5.31l.24-.03.3.37c.12.24.09.44.04.56-.02.06-.05.11-.09.16ZM490.74,370.02s0,0,0,0c0,0,0,0,0,0Z"/><path d="M469.84,377.63c1.99,3.53,6.53,5,10.12,3.26,3.6-1.73,4.9-6,2.9-9.54-1.99-3.53-6.53-5-10.12-3.26-3.6,1.73-4.9,6-2.9,9.54Z" fill="#79cc9e"/><path d="M476.74,382.12c-2.93,0-5.83-1.56-7.34-4.24h0c-1.04-1.85-1.28-3.94-.67-5.89.6-1.91,1.95-3.45,3.79-4.34,3.82-1.84,8.66-.29,10.77,3.47,1.04,1.85,1.28,3.94.67,5.89-.6,1.91-1.95,3.45-3.79,4.34-1.09.53-2.26.77-3.43.77ZM475.97,367.87c-1.03,0-2.05.22-3.01.68-1.59.77-2.75,2.09-3.27,3.74-.53,1.68-.32,3.5.59,5.1h0c1.86,3.3,6.11,4.68,9.47,3.06,1.59-.77,2.75-2.09,3.27-3.73.53-1.68.32-3.5-.59-5.1-1.33-2.36-3.89-3.74-6.46-3.74Z"/><path d="M495.91,404.92l5.7-21.41-42.65-14.43-5.67,21.3c-.02.06.02.13.07.15l42.55,14.39Z" fill="#078450"/><path d="M496.26,405.56l-43.05-14.56c-.31-.1-.48-.43-.4-.75l5.81-21.82,43.6,14.75-5.96,22.38ZM453.87,390.16l41.7,14.11,5.45-20.45-41.7-14.11-5.45,20.45Z"/><path d="M462.03,386.17s0,.03-.02.07c-.04.12-.1.16-.19.12-.05-.02-.12-.08-.23-.18l-.24.67c.17.37.44.63.8.78.36.15.75.15,1.15.02l.29-.81c.51.11,1.01.09,1.49-.06.37-.33.63-.72.8-1.18.16-.45.18-.89.06-1.28-.12-.4-.34-.66-.67-.8-.33-.13-.63-.15-.91-.05-.28.1-.54.35-.79.74-.12-.05-.15-.13-.11-.24.03-.11.11-.23.22-.36.1-.13.23-.23.37-.32.39-.24.8-.27,1.24-.08.21.09.38.2.51.34.29-.02.56-.17.82-.43.26-.27.46-.61.6-1.03.27-.77.28-1.47.03-2.1-.21-.53-.58-.97-1.12-1.33,0,0,0-.03.02-.07.04-.11.11-.15.19-.12.05.02.13.08.23.18l.24-.66c-.18-.38-.44-.63-.8-.79-.36-.15-.75-.15-1.15-.02l-.31.88c-.53-.07-.96-.06-1.28.04-.16.25-.31.55-.43.88-.23.65-.29,1.17-.19,1.58.15-.07.37-.1.64-.09.27,0,.51.06.73.14.21.09.35.17.4.25.06.08.08.15.06.2-.01.03-.03.07-.05.1-.09-.08-.21-.15-.37-.21-.57-.23-1.1-.23-1.61,0-.59.29-1.04.87-1.35,1.76-.23.64-.27,1.28-.11,1.9.15.63.5,1.14,1.03,1.55Z" fill="#79cc9e"/><path d="M462.74,388.25c-.26,0-.52-.05-.77-.15-.47-.19-.83-.55-1.06-1.03l-.09-.19.31-.89c-.3-.37-.5-.78-.62-1.25-.18-.71-.14-1.45.12-2.18.34-.96.85-1.64,1.51-2-.09-.49,0-1.06.23-1.75.13-.37.29-.7.48-.99l.1-.16.18-.05c.3-.09.66-.12,1.08-.1l.26-.73.23-.08c.52-.18,1.02-.17,1.5.03.48.21.84.56,1.07,1.04l.09.19-.3.82c.29.3.51.64.66,1.02.29.75.28,1.57-.03,2.45-.16.47-.4.87-.71,1.2-.21.21-.43.37-.66.47.04.08.07.16.09.25.15.5.13,1.04-.07,1.6-.2.55-.51,1.02-.94,1.39l-.19.11c-.42.13-.86.17-1.29.13l-.23.65-.23.08c-.25.09-.49.13-.73.13ZM461.95,386.87c.11.14.24.23.4.3.19.08.38.1.58.06l.34-.97.43.09c.39.08.77.08,1.13-.02.26-.25.45-.55.58-.9.12-.35.14-.68.05-.97-.1-.33-.26-.43-.38-.48-.28-.11-.45-.08-.55-.04-.17.06-.35.24-.54.54l-.22.34-.38-.15c-.37-.14-.54-.52-.4-.89.05-.14.15-.32.31-.5.13-.16.29-.3.5-.42.52-.32,1.1-.36,1.69-.12.17.07.32.15.46.26.11-.05.21-.12.33-.24.21-.22.37-.5.49-.84.23-.66.25-1.23.04-1.75-.17-.43-.48-.8-.93-1.1l-.3-.2.13-.46c.1-.28.31-.42.53-.44-.11-.14-.24-.24-.41-.31-.18-.07-.37-.1-.57-.06l-.35,1.01-.4-.05c-.36-.05-.66-.05-.9-.02-.1.18-.19.39-.27.61-.11.31-.17.58-.2.82.06,0,.13,0,.19,0,.32,0,.63.07.9.18.31.13.5.26.62.42.22.29.17.54.12.67-.02.06-.06.15-.13.24l-.33.41-.39-.35s-.08-.07-.23-.12c-.45-.18-.83-.18-1.2,0-.47.23-.83.71-1.09,1.48-.2.56-.23,1.08-.09,1.61.13.52.41.93.85,1.28l.2.15v.34l-.05.16c-.07.23-.23.35-.35.4-.06.02-.11.04-.17.05ZM463.93,384.12s0,0,0,0c0,0,0,0,0,0Z"/><path d="M488.75,395.49s0,.03-.02.07c-.04.12-.1.16-.19.12-.05-.02-.12-.08-.23-.18l-.24.67c.17.37.44.63.8.78.36.15.75.15,1.15.02l.29-.81c.51.11,1.01.09,1.49-.06.37-.33.63-.72.8-1.18.16-.45.18-.89.06-1.29s-.34-.66-.67-.8-.63-.15-.91-.05c-.28.1-.54.35-.79.74-.12-.05-.15-.13-.11-.24.03-.11.11-.23.22-.36.1-.13.23-.23.37-.32.39-.24.8-.27,1.24-.08.21.09.38.2.51.34.29-.02.56-.17.82-.43.26-.27.46-.61.6-1.03.27-.77.28-1.47.03-2.1-.21-.53-.58-.97-1.12-1.33,0,0,0-.03.02-.07.04-.11.11-.15.19-.12.05.02.13.08.23.18l.24-.66c-.18-.38-.44-.63-.8-.79-.36-.15-.75-.15-1.15-.02l-.31.88c-.53-.07-.96-.06-1.28.04-.16.25-.31.55-.43.88-.23.65-.29,1.17-.19,1.58.15-.07.37-.1.64-.09.27,0,.51.06.73.14.21.09.35.17.4.25.06.08.08.15.06.2-.01.03-.03.07-.05.1-.09-.08-.21-.15-.37-.21-.57-.23-1.1-.23-1.61,0-.59.29-1.04.87-1.35,1.76-.23.64-.27,1.28-.11,1.9.15.63.5,1.14,1.03,1.55Z" fill="#79cc9e"/><path d="M489.46,397.56c-.26,0-.52-.05-.77-.15-.47-.19-.84-.55-1.06-1.03l-.09-.19.31-.89c-.3-.37-.5-.78-.62-1.25-.18-.71-.14-1.45.12-2.18.34-.96.84-1.63,1.51-2-.09-.49,0-1.06.23-1.75.13-.37.29-.7.48-.99l.1-.16.18-.05c.3-.09.66-.12,1.09-.1l.26-.73.23-.08c.52-.18,1.03-.17,1.5.02.48.21.84.56,1.07,1.04l.09.19-.3.83c.29.3.51.64.66,1.02.29.75.28,1.57-.03,2.45-.17.48-.4.87-.71,1.2-.21.21-.43.37-.66.47.04.08.07.16.09.25.15.5.13,1.04-.07,1.6-.2.55-.51,1.02-.94,1.39l-.19.1c-.42.13-.86.17-1.3.13l-.23.65-.23.08c-.25.09-.49.13-.73.13ZM488.67,396.19c.11.14.24.23.4.3.19.08.38.1.58.06l.34-.97.43.09c.38.08.77.08,1.13-.02.26-.25.45-.55.58-.9.12-.35.14-.68.05-.97-.1-.33-.26-.43-.38-.48-.28-.11-.45-.08-.55-.04-.17.06-.35.24-.54.54l-.22.34-.38-.15c-.37-.14-.54-.52-.4-.88.05-.14.15-.31.31-.5.13-.16.29-.3.49-.42.52-.32,1.1-.36,1.69-.12.17.07.32.16.46.26.1-.05.21-.13.33-.24.21-.22.37-.5.49-.84.23-.66.25-1.23.04-1.75-.17-.43-.48-.8-.93-1.1l-.31-.21.14-.45c.11-.29.32-.42.53-.44-.11-.14-.24-.24-.41-.31-.18-.07-.37-.09-.57-.06l-.35,1.01-.4-.05c-.36-.05-.66-.05-.9-.02-.1.18-.19.39-.27.61-.11.31-.17.58-.2.82.06,0,.13,0,.19,0,.33,0,.63.07.9.18.31.13.5.26.62.42.22.28.17.54.12.67-.02.06-.06.15-.13.24l-.33.41-.39-.35s-.08-.07-.23-.13c-.44-.18-.83-.18-1.2,0-.46.23-.83.73-1.09,1.48-.2.56-.23,1.08-.09,1.61.13.52.41.93.85,1.28l.2.15v.34l-.05.15c-.08.23-.23.35-.35.4-.06.02-.12.04-.18.05ZM490.65,393.43s0,0,0,0c0,0,0,0,0,0Z"/><path d="M470.39,384.25c-1.04,3.92,1.17,8.14,4.96,9.42,3.78,1.28,7.69-.86,8.74-4.78,1.04-3.92-1.17-8.14-4.96-9.42-3.78-1.28-7.69.86-8.74,4.78Z" fill="#79cc9e"/><path d="M477.57,394.54c-.79,0-1.6-.13-2.38-.4-4.02-1.36-6.39-5.85-5.28-10.02h0c.55-2.05,1.84-3.72,3.64-4.68,1.76-.95,3.8-1.1,5.74-.45,4.02,1.36,6.39,5.85,5.28,10.02-.55,2.05-1.84,3.72-3.64,4.68-1.05.56-2.19.85-3.36.85ZM476.9,379.59c-1,0-1.99.24-2.89.73-1.55.83-2.67,2.27-3.15,4.06h0c-.98,3.67,1.1,7.62,4.63,8.81,1.67.57,3.43.43,4.95-.38,1.55-.83,2.67-2.27,3.15-4.06.98-3.67-1.1-7.62-4.63-8.81-.68-.23-1.38-.34-2.06-.34Z"/><path d="M487.63,357.66l-21.64-4.72-12.44,43.3,21.52,4.69c.06.01.13-.02.14-.08l12.41-43.19Z" fill="#078450"/><path d="M475.11,401.44s-.09,0-.13-.01l-22.05-4.81,12.72-44.26,22.62,4.93-12.56,43.71c-.08.27-.32.45-.6.45ZM474.74,400.72s0,0,0,0h0ZM454.18,395.87l20.66,4.5,12.16-42.34-20.66-4.5-12.16,42.34Z"/><path d="M470.48,392.39s.04,0,.07.02c.12.03.16.1.13.19-.02.05-.07.13-.17.24l.68.2c.36-.19.61-.47.74-.84.13-.37.12-.76-.04-1.15l-.82-.25c.08-.51.04-1.01-.12-1.48-.35-.36-.75-.6-1.22-.74-.46-.14-.89-.14-1.29,0-.39.14-.65.37-.77.71-.12.34-.12.64,0,.91.12.27.37.52.77.76-.04.12-.12.16-.24.12-.11-.03-.23-.1-.37-.2-.13-.1-.24-.22-.34-.36-.26-.37-.3-.78-.14-1.23.08-.22.18-.39.31-.53-.04-.28-.19-.55-.47-.8-.28-.24-.63-.43-1.05-.56-.78-.24-1.48-.22-2.1.06-.52.24-.94.63-1.28,1.18,0,0-.04,0-.07-.02-.11-.04-.16-.1-.13-.19.02-.05.08-.13.17-.24l-.67-.21c-.37.2-.61.47-.75.84-.13.37-.12.76.04,1.15l.89.27c-.05.53-.01.96.1,1.28.26.15.56.28.9.39.66.2,1.19.24,1.59.12-.07-.15-.12-.36-.12-.63,0-.27.03-.52.11-.73.08-.22.16-.36.23-.42.08-.07.15-.09.2-.07.03.01.07.02.1.05-.07.09-.14.22-.2.38-.21.58-.18,1.11.08,1.6.32.58.92,1,1.82,1.27.65.2,1.29.21,1.9.02.62-.18,1.12-.55,1.5-1.11Z" fill="#79cc9e"/><path d="M468.08,394.14c-.38,0-.76-.06-1.15-.18-.98-.29-1.67-.77-2.06-1.42-.48.11-1.06.06-1.75-.15-.38-.12-.71-.26-1.01-.43l-.16-.09-.06-.17c-.11-.3-.15-.66-.15-1.08l-.75-.22-.09-.23c-.2-.51-.22-1.02-.04-1.5.18-.49.52-.86.99-1.11l.18-.1.84.26c.29-.3.62-.54.99-.7.73-.33,1.55-.36,2.45-.09.48.14.89.36,1.23.66.22.2.39.41.5.63.08-.04.16-.07.25-.1.49-.18,1.03-.18,1.6,0,.56.18,1.04.47,1.43.87l.11.18c.15.42.21.85.19,1.29l.66.2.09.22c.2.51.22,1.02.04,1.5-.17.48-.51.86-.98,1.11l-.18.1-.9-.27c-.35.31-.76.54-1.22.67-.34.1-.69.16-1.04.16ZM465.23,389.67c.08,0,.15.01.19.03.05.02.15.05.25.12l.42.31-.33.41s-.06.09-.12.24c-.16.45-.14.83.05,1.2.25.45.75.79,1.53,1.02.56.17,1.09.18,1.61.02.51-.15.91-.45,1.23-.91l.14-.2.34-.02.16.04c.24.07.37.22.42.34.03.05.04.11.05.17.13-.11.22-.25.28-.41.07-.19.08-.38.04-.58l-.99-.3.07-.43c.06-.39.04-.77-.07-1.13-.26-.25-.57-.42-.93-.54-.36-.11-.68-.11-.97,0-.32.12-.42.28-.46.4-.1.29-.06.45-.01.56.07.17.26.34.56.52l.35.2-.13.39c-.13.38-.49.56-.87.44-.14-.04-.32-.13-.51-.28-.17-.12-.32-.28-.45-.48-.34-.5-.41-1.09-.19-1.68.06-.17.14-.33.23-.47-.05-.1-.13-.21-.25-.31-.23-.2-.51-.35-.86-.45-.67-.2-1.24-.19-1.75.04-.43.19-.77.52-1.06.98l-.2.32-.37-.1c-.34-.11-.51-.32-.55-.54-.13.11-.23.25-.29.42-.06.18-.08.37-.03.57l1.02.31-.04.41c-.03.36-.02.67.03.9.19.09.4.18.62.25.31.09.59.15.83.16,0-.06,0-.12,0-.19,0-.33.04-.64.14-.91.11-.32.23-.51.39-.64.17-.14.33-.18.47-.18ZM468.34,390.59"/><path d="M478.55,365.26s.04,0,.07.02c.12.03.16.1.13.19-.02.05-.07.13-.17.24l.68.2c.36-.19.61-.47.74-.84.13-.37.12-.76-.04-1.15l-.82-.25c.08-.51.04-1.01-.12-1.48-.35-.36-.75-.6-1.22-.74-.46-.14-.89-.14-1.29,0-.39.14-.65.37-.77.71s-.12.64,0,.91c.12.27.37.52.77.76-.04.12-.12.16-.24.12-.11-.03-.23-.1-.37-.2-.13-.1-.24-.22-.34-.36-.26-.37-.3-.78-.14-1.23.08-.22.18-.39.31-.53-.04-.28-.19-.55-.47-.8-.28-.24-.63-.43-1.05-.56-.78-.24-1.48-.22-2.1.06-.52.24-.94.63-1.28,1.18,0,0-.04,0-.07-.02-.11-.04-.16-.1-.13-.19.02-.05.08-.13.17-.24l-.67-.21c-.37.2-.61.47-.75.84-.13.37-.12.76.04,1.15l.89.27c-.05.53-.01.96.1,1.28.26.15.56.28.9.39.66.2,1.19.24,1.59.12-.07-.15-.12-.36-.12-.63,0-.27.03-.52.11-.73.08-.22.16-.36.23-.42.08-.07.15-.09.2-.07.03.01.07.02.1.05-.07.09-.14.22-.2.38-.21.58-.18,1.11.08,1.6.32.58.92,1,1.82,1.27.65.2,1.29.21,1.9.02.62-.18,1.12-.55,1.5-1.11Z" fill="#79cc9e"/><path d="M476.15,367c-.38,0-.76-.06-1.14-.18-.98-.29-1.67-.77-2.06-1.42-.48.11-1.05.06-1.75-.15-.38-.12-.72-.26-1.01-.43l-.16-.09-.06-.17c-.11-.3-.15-.66-.15-1.08l-.75-.22-.09-.23c-.2-.51-.22-1.02-.04-1.5.18-.49.52-.86.99-1.11l.18-.1.84.26c.29-.3.62-.54.99-.7.73-.33,1.55-.36,2.45-.09.48.14.89.36,1.23.66.22.2.39.41.5.63.08-.04.16-.07.25-.1.49-.18,1.03-.18,1.6,0,.56.18,1.04.47,1.43.87l.11.18c.15.42.21.85.19,1.29l.66.2.09.22c.2.51.22,1.02.04,1.5-.17.48-.51.86-.98,1.11l-.18.1-.9-.27c-.35.31-.76.54-1.22.67-.34.1-.69.16-1.04.16ZM473.3,362.54c.08,0,.15.01.2.03.05.02.15.05.24.12l.42.31-.33.41s-.06.09-.11.23c-.16.45-.15.83.05,1.21.25.46.75.79,1.53,1.02.56.17,1.09.18,1.61.02.51-.15.91-.45,1.23-.91l.13-.19.33-.03.16.05c.25.07.37.22.43.34.03.05.04.11.05.17.13-.11.22-.25.28-.41.07-.19.08-.38.04-.58l-.99-.3.07-.43c.06-.39.04-.77-.07-1.13-.26-.25-.57-.42-.93-.54-.35-.11-.68-.11-.97,0-.32.12-.42.28-.46.4-.1.29-.06.46-.01.56.07.17.26.34.56.52l.35.2-.13.39c-.12.38-.49.56-.87.44-.14-.04-.32-.13-.52-.28-.17-.12-.32-.28-.45-.48-.34-.5-.41-1.09-.2-1.68.06-.17.14-.33.23-.47-.05-.1-.13-.21-.25-.31-.23-.2-.51-.35-.86-.45-.67-.2-1.24-.19-1.75.04-.43.19-.77.52-1.06.98l-.2.32-.37-.1c-.35-.11-.52-.32-.56-.53-.13.11-.23.25-.29.42-.06.18-.08.37-.03.57l1.03.31-.04.41c-.03.36-.02.66.03.9.19.09.39.18.62.25.31.09.59.15.83.16,0-.06,0-.12,0-.19,0-.33.04-.63.14-.91.12-.32.24-.52.39-.64.17-.14.33-.18.46-.18ZM476.41,363.45"/><path d="M468.18,384.13c3.96.86,8.07-1.55,9.17-5.39,1.1-3.84-1.22-7.65-5.18-8.51s-8.07,1.55-9.17,5.39c-1.1,3.84,1.22,7.65,5.18,8.51Z" fill="#79cc9e"/><path d="M469.8,384.8c-.57,0-1.15-.06-1.73-.19-2.07-.45-3.79-1.67-4.84-3.42-1.03-1.72-1.28-3.75-.71-5.72,1.17-4.08,5.55-6.65,9.76-5.74,2.07.45,3.79,1.67,4.84,3.42,1.03,1.72,1.28,3.75.71,5.72-1.01,3.52-4.41,5.92-8.03,5.92ZM470.54,370.55c-3.18,0-6.17,2.11-7.06,5.2-.49,1.7-.27,3.45.61,4.93.9,1.51,2.39,2.56,4.19,2.96h0c3.7.8,7.55-1.45,8.58-5.04.49-1.7.27-3.45-.61-4.93-.9-1.51-2.39-2.56-4.19-2.96-.51-.11-1.02-.16-1.52-.16Z"/><path d="M334.72,391.7l8.6-20.42,42.54,14.74-8.55,20.32c-.02.06-.09.09-.15.07l-42.44-14.71Z" fill="#078450"/><path d="M377.19,406.91c-.06,0-.13-.01-.19-.03l-42.95-14.88,8.99-21.35,43.49,15.07-8.76,20.81c-.1.24-.33.38-.58.38ZM335.39,391.4l41.59,14.42,8.21-19.5-41.59-14.42-8.21,19.5Z"/><path d="M374.74,397.07c.51-.39.87-.91,1.08-1.56.3-.89.3-1.63.01-2.22-.25-.5-.67-.83-1.26-.99-.17-.05-.31-.07-.43-.06,0-.04.01-.08.02-.11.02-.05.07-.1.17-.12.09-.03.25-.01.47.05.22.06.45.17.66.33.22.16.37.32.45.47.33-.26.6-.72.82-1.37.11-.34.18-.66.2-.96-.2-.28-.53-.55-.99-.82l.29-.88c-.23-.36-.54-.59-.92-.69-.38-.1-.75-.06-1.12.13l-.22.67c.14-.02.23-.02.29,0,.09.03.11.1.08.21-.01.03-.02.06-.03.07-.64-.04-1.21.08-1.7.37-.58.35-1,.9-1.26,1.68-.14.42-.19.81-.15,1.18.04.37.17.65.38.84.19-.03.39-.01.61.05.46.13.77.4.93.82.06.16.1.32.1.48,0,.17,0,.31-.04.42-.03.11-.11.16-.24.12.04-.46-.02-.81-.17-1.07-.16-.25-.41-.43-.75-.52-.34-.1-.68-.02-1.02.22-.34.24-.59.6-.74,1.05-.15.47-.18.94-.09,1.42.29.41.67.73,1.14.96l-.27.82c.23.36.54.59.92.69.37.1.75.06,1.11-.13l.23-.68c-.14.02-.24.01-.29,0-.1-.02-.12-.09-.08-.21.01-.03.02-.05.03-.07.67,0,1.26-.19,1.77-.59Z" fill="#79cc9e"/><path d="M372.38,399.29c-.18,0-.35-.02-.53-.07-.5-.14-.9-.44-1.21-.9l-.13-.2.21-.65c-.37-.24-.69-.54-.95-.9l-.08-.2c-.1-.56-.07-1.12.11-1.67.19-.57.5-1.01.93-1.31.08-.05.15-.1.23-.14-.12-.22-.2-.47-.23-.76-.04-.46.01-.92.17-1.4.29-.88.79-1.54,1.47-1.95.35-.21.73-.34,1.15-.4l.27-.83.18-.09c.47-.24.97-.3,1.47-.17.51.14.91.44,1.21.9l.13.2-.25.74c.35.24.61.48.8.74l.11.15-.02.18c-.03.34-.1.7-.23,1.07-.23.69-.52,1.19-.89,1.53.3.7.29,1.54-.03,2.51-.24.74-.66,1.35-1.24,1.8-.37.3-.79.5-1.25.61l-.3.89-.18.09c-.31.16-.63.23-.95.23ZM371.62,397.95c.14.15.3.25.5.31.16.04.33.05.5,0-.04-.04-.08-.09-.11-.15-.06-.11-.12-.31-.02-.56l.11-.21.15-.18h.24s.01,0,.02,0c.56,0,1.02-.16,1.43-.48h0c.43-.34.73-.77.91-1.33.26-.77.27-1.37.04-1.85-.19-.37-.49-.6-.95-.73-.16-.04-.24-.05-.26-.04l-.52.03v-.52c-.02-.11,0-.21.02-.26.05-.15.17-.38.52-.47.18-.05.41-.04.73.05.29.08.56.22.83.41.05.04.1.08.15.11.13-.2.24-.46.35-.77.07-.23.13-.44.16-.65-.16-.17-.41-.36-.72-.54l-.35-.21.34-1.01c-.14-.15-.3-.25-.5-.31-.17-.04-.34-.05-.51,0,.16.15.24.38.15.68l-.15.5-.38-.08c-.55-.03-1.01.06-1.41.3-.48.28-.82.74-1.04,1.4-.12.35-.16.67-.13.98.02.15.05.28.11.38.17,0,.34.03.52.08.61.17,1.05.56,1.26,1.13.08.22.13.43.13.65,0,.24-.01.43-.07.6-.11.35-.47.55-.85.43l-.39-.12.03-.4c.03-.35,0-.6-.1-.76-.06-.09-.17-.22-.46-.31-.13-.04-.31-.05-.59.15-.25.18-.44.45-.55.8-.11.35-.15.71-.09,1.06.23.3.53.54.89.71l.39.19-.32.98ZM372.73,394.89h0s0,0,0,0Z"/><path d="M347.93,388.05c.51-.39.87-.91,1.08-1.56.3-.89.3-1.63.01-2.22-.25-.5-.67-.83-1.26-.99-.17-.05-.31-.07-.43-.06,0-.04.01-.08.02-.11.02-.05.07-.1.17-.12.09-.03.25-.01.47.05.22.06.45.17.66.33.22.16.37.32.45.47.33-.26.6-.72.82-1.37.11-.34.18-.66.2-.96-.2-.28-.53-.55-.99-.82l.29-.88c-.23-.36-.54-.59-.92-.69-.38-.1-.75-.06-1.12.13l-.22.67c.14-.02.23-.02.29,0,.09.03.11.1.08.21-.01.03-.02.06-.03.07-.64-.04-1.21.08-1.7.37-.58.35-1,.9-1.26,1.68-.14.42-.19.81-.15,1.18.04.37.17.65.38.84.19-.03.39-.01.61.05.46.13.77.4.93.83.06.16.1.32.1.48,0,.17,0,.31-.04.42-.03.11-.11.16-.24.12.04-.46-.02-.81-.17-1.07-.16-.25-.41-.43-.75-.52s-.68-.02-1.02.22c-.34.24-.59.6-.74,1.05-.15.46-.18.94-.09,1.42.29.41.67.73,1.14.96l-.27.82c.23.36.54.59.92.69.37.1.75.06,1.11-.13l.23-.68c-.14.02-.24.01-.29,0-.1-.02-.12-.09-.08-.21.01-.03.02-.05.03-.07.67,0,1.26-.19,1.77-.59Z" fill="#79cc9e"/><path d="M345.56,390.27c-.18,0-.35-.02-.53-.07-.5-.14-.9-.44-1.2-.9l-.13-.2.22-.65c-.37-.24-.69-.54-.94-.9l-.08-.2c-.1-.56-.07-1.12.11-1.67.19-.57.5-1.01.92-1.31.08-.05.15-.1.23-.14-.12-.22-.2-.47-.23-.76-.04-.46.01-.92.17-1.4.29-.88.79-1.54,1.47-1.95.35-.21.73-.34,1.15-.4l.27-.83.18-.09c.47-.24.97-.3,1.47-.17.51.14.91.44,1.21.9l.13.2-.25.74c.35.24.61.48.8.74l.11.15-.02.18c-.03.34-.11.7-.23,1.07-.23.69-.52,1.19-.89,1.53.3.7.29,1.54-.03,2.51-.24.74-.66,1.35-1.24,1.8-.37.3-.79.5-1.25.61l-.3.89-.18.09c-.31.15-.63.23-.95.23ZM344.8,388.93c.14.15.3.25.5.31.16.05.33.05.5,0-.04-.04-.08-.09-.11-.14-.06-.11-.12-.3-.03-.56l.11-.21.15-.19h.24c.58,0,1.04-.15,1.45-.48h0c.43-.34.73-.77.91-1.33.26-.77.27-1.38.04-1.85-.19-.37-.49-.6-.95-.73-.16-.04-.24-.05-.26-.04l-.52.03v-.52c-.02-.11,0-.2.02-.25.05-.15.17-.38.52-.47.18-.05.41-.04.73.05.29.08.56.22.83.41.05.04.1.08.15.11.13-.2.25-.46.35-.77.07-.22.13-.44.16-.65-.17-.17-.41-.36-.72-.54l-.35-.2.34-1.01c-.14-.15-.3-.25-.5-.31-.17-.05-.34-.05-.51,0,.16.16.24.4.15.68l-.15.5-.38-.08c-.54-.04-1.01.06-1.41.3-.48.28-.82.74-1.04,1.4-.12.35-.16.67-.13.98.02.15.05.28.11.38.17,0,.34.03.52.08.61.17,1.05.56,1.26,1.13.08.22.13.43.13.65,0,.24-.01.44-.08.6-.1.35-.47.54-.85.43l-.39-.12.04-.41c.03-.35,0-.6-.1-.76-.06-.09-.17-.22-.46-.31-.13-.04-.31-.05-.6.15-.25.18-.43.45-.55.8-.11.35-.15.7-.09,1.06.23.3.53.53.89.71l.39.19-.32.98ZM345.91,385.87s0,0,0,.01c0,0,0,0,0-.01Z"/><path d="M367.55,391.01c-1.57,3.74-5.91,5.71-9.68,4.4-3.77-1.31-5.55-5.4-3.98-9.14,1.57-3.74,5.91-5.71,9.68-4.4,3.77,1.31,5.55,5.4,3.98,9.14Z" fill="#79cc9e"/><path d="M360.27,396.32c-.86,0-1.73-.14-2.56-.43-1.93-.67-3.45-2.05-4.26-3.87-.83-1.87-.84-3.97-.01-5.93,1.67-3.97,6.29-6.07,10.31-4.68,1.93.67,3.45,2.05,4.26,3.87.83,1.87.84,3.97.01,5.93h0c-1.32,3.14-4.49,5.11-7.74,5.11ZM361.16,381.97c-2.86,0-5.64,1.74-6.81,4.5-.72,1.7-.72,3.53,0,5.14.7,1.57,2.01,2.76,3.68,3.33,3.52,1.22,7.58-.63,9.06-4.13h0c.72-1.7.72-3.53,0-5.14-.7-1.57-2.01-2.76-3.68-3.33-.73-.25-1.49-.38-2.25-.38Z"/><path d="M323.65,414.63l1.46-22.11,45.02.03-1.45,22c0,.06-.06.12-.12.12l-44.91-.03Z" fill="#078450"/><path d="M368.56,415.16l-45.45-.03,1.53-23.11,46.02.03-1.49,22.53c-.02.33-.29.58-.62.58ZM368.18,414.51h0s0,0,0,0ZM324.19,414.13l44.02.03,1.4-21.11-44.02-.02-1.4,21.11Z"/><path d="M363.23,406.62c.35-.54.52-1.15.51-1.83,0-.94-.25-1.64-.71-2.1-.4-.39-.9-.56-1.52-.52-.17,0-.32.04-.42.08-.01-.03-.01-.08-.02-.11,0-.06.04-.12.12-.17.08-.06.23-.09.46-.11s.48.02.74.1c.26.08.45.18.58.29.22-.36.33-.88.33-1.56,0-.36-.05-.68-.12-.97-.28-.2-.68-.35-1.2-.45v-.93c-.35-.26-.71-.38-1.11-.36-.39.03-.73.19-1.01.49v.7c.14-.06.23-.09.29-.1.09,0,.14.06.14.17,0,.03,0,.06,0,.07-.62.17-1.11.47-1.48.91-.44.52-.65,1.18-.64,2,0,.44.09.82.24,1.16.16.33.37.56.63.67.17-.09.36-.14.59-.16.48-.03.86.13,1.15.48.11.13.19.27.25.42.06.16.1.3.1.41,0,.12-.06.19-.18.19-.11-.45-.28-.76-.51-.95s-.52-.27-.88-.25c-.36.02-.65.2-.89.54s-.36.75-.35,1.24c.01.49.13.94.38,1.38.41.29.88.47,1.39.53v.86c.35.26.72.38,1.11.36.39-.02.73-.19,1.01-.48v-.71c-.14.06-.23.09-.28.1-.1,0-.15-.05-.14-.17,0-.03,0-.06,0-.07.64-.22,1.13-.59,1.48-1.14Z" fill="#79cc9e"/><path d="M361.06,409.6c-.47,0-.9-.15-1.3-.46l-.19-.15v-.69c-.44-.1-.84-.29-1.2-.54l-.15-.16c-.28-.49-.43-1.03-.44-1.61,0-.6.14-1.11.45-1.54.05-.08.11-.14.17-.21-.18-.17-.34-.38-.47-.64-.19-.42-.29-.87-.29-1.38-.01-.93.24-1.72.76-2.33.26-.31.58-.56.95-.76l-.02-.88.14-.15c.37-.38.82-.6,1.34-.64.52-.04,1.01.12,1.44.46l.19.15v.78c.42.11.75.26,1,.44l.15.11.04.18c.08.33.13.69.13,1.09,0,.73-.11,1.3-.34,1.73.51.56.78,1.36.79,2.38.01.78-.18,1.49-.59,2.11-.26.4-.59.73-.98.98v.94s-.13.15-.13.15c-.37.38-.84.6-1.34.63-.04,0-.09,0-.13,0ZM360.56,408.47c.18.1.37.14.57.13.17-.01.33-.06.47-.16-.05-.03-.11-.06-.15-.1-.1-.09-.21-.25-.21-.52l.04-.25.08-.21.22-.07c.54-.18.93-.48,1.21-.93h0c.3-.46.44-.97.43-1.55,0-.81-.19-1.39-.57-1.76-.3-.29-.65-.41-1.13-.38-.16,0-.24.03-.26.04l-.48.2-.18-.49c-.04-.1-.04-.2-.05-.25,0-.15.03-.41.34-.62.15-.11.37-.17.71-.19.29-.02.61.02.92.12.06.02.12.04.17.06.05-.23.08-.52.08-.85,0-.24-.03-.46-.06-.66-.21-.11-.5-.2-.86-.27l-.4-.08v-1.07c-.19-.1-.38-.14-.58-.13-.18.01-.34.07-.48.17.21.1.36.29.37.59v.03s0,.08,0,.08l.06.43-.42.02c-.53.15-.93.39-1.24.75-.36.42-.53.97-.52,1.67,0,.37.07.68.2.96.07.14.14.25.23.32.16-.05.33-.08.51-.1.63-.04,1.17.18,1.57.66.15.18.26.36.33.57.09.22.13.42.13.59.01.37-.27.67-.66.68l-.41.02-.1-.39c-.08-.34-.2-.57-.34-.68-.08-.07-.24-.16-.54-.14-.13,0-.31.05-.51.33-.18.25-.26.56-.26.94,0,.37.09.71.26,1.03.32.2.68.33,1.07.38l.43.05.02,1.03ZM360.61,405.21h0s0,0,0,0Z"/><path d="M334.94,406.87c.35-.54.52-1.15.51-1.83,0-.94-.25-1.64-.71-2.1-.4-.39-.9-.56-1.52-.52-.17,0-.32.04-.42.08-.01-.03-.01-.08-.02-.11,0-.06.04-.12.12-.17.08-.06.23-.09.46-.11s.48.02.74.1c.26.08.45.18.58.29.22-.36.33-.88.33-1.56,0-.36-.05-.68-.12-.97-.28-.2-.68-.35-1.2-.45v-.93c-.35-.26-.71-.38-1.11-.36-.39.03-.73.19-1.01.49v.7c.14-.06.23-.09.29-.1.09,0,.14.06.14.17,0,.03,0,.06,0,.07-.62.17-1.11.47-1.48.91-.44.52-.65,1.18-.64,2,0,.44.09.82.24,1.16.16.33.37.56.63.67.17-.09.36-.14.59-.16.48-.03.86.13,1.15.48.11.13.19.27.25.42.06.16.1.3.1.41,0,.12-.06.19-.18.19-.11-.45-.28-.76-.51-.95s-.52-.27-.88-.25c-.36.02-.65.2-.89.54s-.36.75-.35,1.24c.01.49.13.94.38,1.38.41.29.88.47,1.39.53v.86c.35.26.72.38,1.11.36.39-.02.73-.19,1.01-.48v-.71c-.14.06-.23.09-.28.1-.1,0-.15-.05-.14-.17,0-.03,0-.06,0-.07.64-.22,1.13-.59,1.48-1.14Z" fill="#79cc9e"/><path d="M332.78,409.85c-.47,0-.91-.16-1.3-.46l-.19-.15v-.69c-.44-.1-.84-.29-1.2-.54l-.15-.16c-.28-.49-.43-1.03-.44-1.61,0-.6.14-1.12.45-1.54.05-.07.11-.14.17-.21-.18-.16-.34-.38-.47-.64-.19-.42-.29-.87-.29-1.38-.01-.93.24-1.72.76-2.33.26-.31.58-.56.95-.76l-.02-.88.14-.15c.37-.38.82-.6,1.34-.64.52-.03,1.01.12,1.44.46l.19.15v.78c.42.11.75.26,1,.44l.15.11.04.18c.08.33.13.69.14,1.09,0,.73-.11,1.3-.34,1.73.51.56.78,1.36.79,2.38.01.78-.18,1.49-.59,2.11-.26.4-.59.73-.98.98v.94s-.13.15-.13.15c-.37.38-.84.6-1.34.63-.04,0-.09,0-.13,0ZM332.27,408.72c.18.1.38.14.57.13.17-.01.33-.06.47-.16-.05-.03-.11-.06-.15-.1-.1-.09-.21-.25-.21-.52l.04-.25.09-.21.22-.07c.54-.18.93-.48,1.21-.93h0c.3-.46.44-.97.43-1.55,0-.81-.19-1.39-.57-1.76-.29-.29-.65-.41-1.13-.38-.16,0-.24.03-.26.04l-.48.2-.18-.49c-.04-.1-.04-.2-.05-.25,0-.15.03-.41.34-.62.15-.11.38-.17.71-.19.29-.02.6.02.92.12.06.02.12.04.17.06.05-.23.08-.52.08-.85,0-.24-.03-.46-.06-.66-.21-.11-.5-.2-.86-.27l-.4-.08v-1.07c-.19-.1-.38-.14-.58-.13-.18.01-.34.07-.48.17.21.1.36.29.37.59v.03s0,.08,0,.08l.06.44-.43.02c-.53.15-.93.39-1.24.75-.36.42-.53.97-.52,1.67,0,.37.07.68.2.96.07.14.14.25.23.32.16-.05.33-.08.51-.1.65-.04,1.18.18,1.57.66.15.18.26.36.33.57.09.22.13.42.13.59.01.37-.27.67-.66.68l-.41.02-.1-.39c-.09-.34-.2-.57-.34-.68-.08-.07-.24-.16-.54-.14-.13,0-.31.05-.51.33-.18.25-.26.56-.26.94,0,.37.09.71.26,1.03.32.2.68.33,1.07.38l.43.05.02,1.03ZM332.32,405.46h0s0,0,0,0Z"/><path d="M354.46,403.25c-.27,4.05-3.72,7.33-7.71,7.33-3.99,0-7.01-3.29-6.74-7.34.27-4.05,3.72-7.33,7.71-7.33,3.99,0,7.01,3.29,6.74,7.34Z" fill="#79cc9e"/><path d="M346.75,411.08h0c-2.05,0-3.93-.81-5.29-2.27-1.4-1.49-2.09-3.48-1.95-5.6.28-4.3,3.96-7.79,8.21-7.79h0c2.05,0,3.93.81,5.29,2.27,1.4,1.49,2.09,3.48,1.95,5.6l-.5-.03.5.03c-.28,4.3-3.96,7.8-8.21,7.8ZM347.71,396.41c-3.73,0-6.96,3.08-7.21,6.86-.12,1.84.47,3.57,1.68,4.85,1.17,1.26,2.8,1.95,4.56,1.95h0c3.72,0,6.96-3.08,7.21-6.86.12-1.84-.47-3.57-1.68-4.85-1.17-1.26-2.79-1.95-4.56-1.95h0Z"/><path d="M344.99,442.92l-14.41-16.83,32.2-31.49,14.33,16.74s.04.12,0,.17l-32.12,31.41Z" fill="#078450"/><path d="M344.96,443.65l-15.06-17.59,32.92-32.19,14.68,17.15c.21.25.2.62-.03.85l-32.5,31.79ZM331.27,426.12l13.76,16.07,31.48-30.79-13.76-16.07-31.48,30.79ZM376.73,411.66s0,0,0,0h0Z"/><path d="M367.68,409.49c-.12-.63-.43-1.18-.92-1.66-.67-.67-1.32-1-1.98-1.01-.56,0-1.04.23-1.45.69-.12.13-.2.25-.25.36-.03-.02-.06-.04-.09-.07-.04-.04-.05-.11-.03-.21.02-.1.1-.23.26-.4.15-.17.35-.32.59-.45.24-.13.45-.19.62-.19-.09-.41-.38-.86-.86-1.35-.25-.25-.51-.45-.77-.61-.34.05-.73.23-1.17.52l-.66-.66c-.42.05-.77.22-1.03.51-.26.3-.39.64-.38,1.06l.5.49c.05-.13.09-.22.13-.26.06-.07.14-.06.23.02.03.02.04.05.05.05-.32.56-.47,1.12-.43,1.69.05.68.36,1.3.94,1.88.31.31.64.53.99.66.35.13.66.14.92.04.06-.18.16-.36.32-.53.32-.36.7-.51,1.15-.46.17.02.33.06.48.13.16.07.28.15.35.23.09.08.09.17,0,.27-.4-.24-.73-.35-1.03-.32-.3.03-.56.17-.8.44-.24.26-.32.6-.26,1.01.06.41.27.79.61,1.13.35.34.75.58,1.23.72.49-.08.95-.28,1.36-.59l.61.6c.42-.05.77-.22,1.03-.51.26-.29.39-.64.38-1.05l-.5-.5c-.05.14-.09.22-.13.26-.06.08-.14.07-.23-.02-.03-.02-.04-.04-.05-.05.31-.6.4-1.22.26-1.85Z" fill="#79cc9e"/><path d="M366.72,413.75l-.49-.49c-.38.23-.79.38-1.22.44l-.11.02-.11-.03c-.54-.15-1.03-.44-1.44-.84-.42-.42-.68-.9-.75-1.41-.01-.09-.02-.18-.03-.27-.24,0-.51-.03-.78-.13-.43-.17-.81-.42-1.17-.78-.66-.66-1.03-1.4-1.08-2.19-.03-.41.02-.81.15-1.21l-.62-.61v-.21c0-.53.17-1,.5-1.39.35-.39.8-.62,1.35-.68l.24-.03.55.55c.37-.21.71-.33,1.02-.38l.18-.03.16.1c.29.18.58.41.86.68.52.52.83,1,.97,1.48.76.04,1.51.43,2.23,1.15.55.55.91,1.19,1.05,1.92.1.47.09.93-.02,1.39l.67.67v.21c0,.53-.17,1.01-.51,1.39-.35.38-.8.61-1.34.67l-.24.03ZM364.25,410.41s-.03,0-.05,0c-.11.01-.28.05-.48.28-.09.1-.19.26-.13.6.05.3.21.59.47.86.27.26.56.44.91.56.37-.08.72-.24,1.03-.48l.35-.27.73.73c.2-.06.36-.16.5-.31.12-.13.19-.27.23-.44-.06.02-.12.03-.18.03-.11,0-.32-.03-.51-.23l-.13-.18-.11-.22.11-.22c.26-.5.33-1,.22-1.51h0c-.11-.54-.36-1-.78-1.41-.57-.58-1.11-.86-1.63-.86-.41,0-.75.17-1.07.52-.11.12-.14.19-.15.21l-.2.48-.47-.21c-.1-.05-.17-.11-.23-.17-.09-.09-.25-.3-.17-.67.03-.18.15-.38.37-.63.2-.22.44-.41.74-.56.06-.03.11-.06.17-.08-.12-.2-.3-.42-.54-.66-.17-.16-.34-.31-.51-.43-.23.07-.5.21-.8.4l-.34.22-.75-.76c-.2.06-.36.16-.5.31-.12.14-.19.28-.23.46.21-.08.46-.04.67.16l.36.37-.22.3c-.27.47-.39.93-.36,1.4.04.55.3,1.06.79,1.56.26.26.52.44.81.55.14.05.28.08.39.07.08-.15.18-.29.3-.43.42-.47.97-.69,1.58-.63.23.02.44.08.64.17.21.1.38.21.5.33.27.26.28.66,0,.95l-.28.3-.35-.21c-.27-.17-.5-.25-.67-.25ZM364.83,410.32s0,0,0,0c0,0,0,0,0,0Z"/><path d="M347.63,429.47c-.12-.63-.43-1.18-.92-1.66-.67-.67-1.32-1-1.98-1.01-.56,0-1.04.23-1.45.69-.12.13-.2.25-.25.36-.03-.02-.06-.04-.09-.07-.04-.04-.05-.11-.03-.21.02-.1.1-.23.26-.4.15-.17.35-.32.59-.45.24-.13.45-.19.62-.19-.09-.41-.38-.86-.86-1.35-.25-.25-.51-.45-.77-.61-.34.05-.73.23-1.17.52l-.66-.66c-.42.05-.77.22-1.03.51-.26.3-.39.64-.38,1.06l.5.49c.05-.13.09-.22.13-.26.06-.07.14-.06.23.02.03.02.04.05.05.05-.32.56-.47,1.12-.43,1.69.05.68.36,1.3.94,1.88.31.31.64.53.99.66.35.13.66.14.92.04.06-.18.16-.35.32-.53.32-.36.7-.51,1.15-.46.17.02.33.06.48.13.16.07.28.15.35.23.09.08.09.17,0,.27-.4-.24-.73-.35-1.03-.32-.3.03-.56.17-.8.44-.24.26-.32.6-.26,1.01s.27.79.61,1.13c.35.34.75.58,1.23.72.49-.08.95-.28,1.36-.59l.61.6c.42-.05.77-.22,1.03-.51.26-.29.39-.64.38-1.05l-.5-.5c-.05.14-.09.22-.13.26-.06.08-.14.07-.23-.02-.03-.02-.04-.04-.05-.05.31-.6.4-1.22.26-1.85Z" fill="#79cc9e"/><path d="M346.67,433.72l-.49-.49c-.38.23-.79.38-1.22.44l-.11.02-.11-.03c-.54-.15-1.03-.44-1.44-.84-.42-.42-.68-.9-.76-1.41-.01-.09-.02-.18-.03-.27-.24,0-.51-.03-.78-.13-.43-.17-.81-.42-1.17-.78-.66-.66-1.03-1.4-1.08-2.19-.03-.41.02-.81.15-1.21l-.62-.61v-.21c0-.53.17-1,.5-1.39.35-.39.8-.62,1.35-.68l.24-.03.55.55c.37-.21.71-.33,1.02-.38l.18-.03.16.1c.29.18.58.41.86.68.52.52.83,1,.97,1.48.76.04,1.51.43,2.23,1.15.55.54.91,1.19,1.05,1.92.1.47.09.93-.02,1.39l.67.67v.21c0,.53-.17,1.01-.51,1.39-.35.38-.8.61-1.34.67l-.24.03ZM344.2,430.38s-.03,0-.05,0c-.11.01-.28.05-.48.28-.09.1-.19.26-.13.6.05.3.2.59.47.86.27.26.56.44.91.56.37-.08.72-.24,1.03-.48l.35-.27.73.73c.2-.06.36-.16.5-.31.12-.13.19-.27.23-.44-.06.02-.12.03-.18.03-.11,0-.32-.03-.51-.23l-.15-.21-.09-.21.1-.2c.26-.5.33-1,.22-1.52h0c-.11-.54-.36-1-.78-1.41-.57-.58-1.11-.86-1.63-.86-.41,0-.76.17-1.07.52-.11.12-.15.19-.16.21l-.2.48-.47-.22c-.1-.05-.18-.12-.22-.16-.1-.1-.26-.31-.18-.67.03-.18.15-.38.37-.63.2-.22.44-.41.74-.56.06-.03.11-.06.17-.08-.12-.2-.3-.42-.54-.66-.17-.16-.34-.31-.51-.43-.23.07-.5.21-.8.4l-.34.22-.76-.76c-.2.06-.36.16-.49.31-.12.14-.19.28-.23.46.21-.08.46-.04.67.16l.41.36-.27.31c-.27.47-.39.93-.36,1.4.04.55.3,1.06.79,1.55.26.26.52.44.81.55.15.05.28.08.39.07.08-.15.18-.29.3-.43.42-.47.97-.69,1.58-.63.23.02.44.08.64.17.22.1.38.21.5.33.27.25.28.66,0,.95l-.28.3-.35-.21c-.27-.17-.5-.25-.67-.25ZM344.78,430.3s0,0,0,0c0,0,0,0,0,0Z"/><path d="M359.05,413.22c2.64,3.08,2.46,7.84-.39,10.64s-7.31,2.56-9.95-.53c-2.64-3.08-2.46-7.84.39-10.64,2.85-2.79,7.31-2.56,9.95.53Z" fill="#79cc9e"/><path d="M353.96,426.31c-.11,0-.21,0-.32,0-2.04-.09-3.92-1.03-5.31-2.64-2.8-3.27-2.61-8.35.42-11.32,1.47-1.43,3.39-2.17,5.37-2.08,2.04.09,3.92,1.03,5.31,2.64,2.8,3.27,2.61,8.35-.42,11.32-1.39,1.36-3.17,2.09-5.05,2.09ZM353.81,411.25c-1.62,0-3.15.64-4.35,1.81-2.67,2.61-2.83,7.07-.36,9.95,1.2,1.4,2.83,2.22,4.59,2.29,1.71.08,3.36-.56,4.63-1.8,2.67-2.61,2.83-7.07.36-9.95h0c-1.2-1.4-2.83-2.22-4.59-2.29-.09,0-.18,0-.28,0Z"/><path d="M337.08,409.74l7.32-20.91,43.37,12.09-7.29,20.8c-.02.06-.09.1-.14.08l-43.26-12.06Z" fill="#078450"/><path d="M380.37,422.3c-.06,0-.11,0-.17-.02l-43.78-12.2,7.66-21.86,44.34,12.36-7.46,21.31c-.09.25-.33.42-.58.42ZM380.01,421.55s0,0,0,0h0ZM380.47,421.31h0s0,0,0,0ZM337.72,409.4l42.4,11.82,6.99-19.97-42.4-11.82-6.99,19.97Z"/><path d="M377.35,412.62c.48-.42.81-.97.98-1.63.24-.91.2-1.65-.12-2.22-.28-.48-.72-.78-1.32-.91-.17-.04-.31-.05-.43-.03,0-.04,0-.08.01-.11.01-.05.07-.1.16-.13.09-.03.25-.03.48.02.23.05.46.14.68.29.23.15.39.29.48.44.31-.28.56-.76.73-1.42.09-.34.14-.67.14-.97-.22-.26-.56-.52-1.04-.76l.24-.9c-.26-.34-.58-.55-.96-.64-.39-.08-.75-.01-1.11.2l-.18.68c.14-.03.23-.03.29-.02.09.02.12.09.09.21,0,.03-.02.06-.02.07-.65,0-1.2.16-1.67.47-.56.38-.94.96-1.15,1.75-.11.43-.14.82-.08,1.19.07.36.21.64.43.82.19-.04.39-.04.61,0,.47.1.79.35.98.77.07.15.12.31.13.47.02.17.01.31-.02.42-.03.12-.1.17-.23.14.01-.46-.07-.81-.24-1.05-.17-.24-.43-.4-.78-.48s-.68.02-1,.28-.55.63-.67,1.1c-.12.47-.13.95,0,1.43.32.39.72.69,1.2.88l-.22.83c.26.34.58.55.96.64.38.08.75.01,1.1-.19l.18-.69c-.14.02-.24.03-.29.02-.1-.02-.13-.09-.09-.21,0-.03.01-.05.02-.07.67-.04,1.25-.27,1.73-.7Z" fill="#79cc9e"/><path d="M375,414.99c-.14,0-.27-.01-.41-.04-.5-.11-.93-.39-1.26-.83l-.14-.19.17-.67c-.39-.22-.72-.5-1-.84l-.1-.19c-.14-.55-.14-1.11,0-1.67.15-.58.44-1.04.84-1.36.07-.06.14-.11.22-.16-.13-.21-.23-.46-.28-.74-.07-.46-.04-.92.09-1.41.24-.9.69-1.59,1.35-2.04.34-.23.71-.39,1.12-.47l.22-.85.18-.11c.46-.27.95-.36,1.46-.26.51.11.94.39,1.27.83l.15.19-.2.75c.36.22.64.44.84.69l.12.14v.18c-.01.34-.07.7-.16,1.08-.19.71-.45,1.22-.79,1.58.35.68.39,1.52.12,2.5-.19.75-.57,1.38-1.13,1.87-.35.32-.76.55-1.21.68l-.24.91-.18.1c-.33.2-.69.29-1.05.29ZM374.29,413.69c.15.14.32.23.52.28.17.03.33.03.5-.02-.05-.04-.08-.09-.12-.14-.07-.11-.13-.3-.06-.56l.1-.22.14-.19h.24c.56-.04,1.03-.23,1.42-.58h0c.41-.36.68-.82.82-1.38.21-.79.18-1.39-.08-1.85-.21-.36-.52-.57-.99-.67-.16-.04-.24-.03-.26-.03l-.52.07-.04-.52c0-.11.01-.21.03-.26.03-.14.14-.38.49-.5.17-.06.41-.06.74,0,.29.06.58.18.85.36.05.03.11.07.15.1.11-.21.21-.48.3-.79.06-.23.1-.45.12-.66-.17-.16-.43-.33-.75-.49l-.36-.18.28-1.03c-.15-.14-.32-.23-.51-.27-.18-.03-.34-.02-.51.03.17.15.27.38.19.67l-.1.54-.41-.09h0c-.54,0-1,.13-1.39.39-.46.31-.77.79-.95,1.47-.09.35-.12.67-.07.98.03.15.07.27.13.37.17,0,.34,0,.52.05.62.13,1.08.49,1.33,1.05.1.21.15.42.17.64.02.23.01.43-.04.6-.09.36-.43.58-.82.48l-.39-.09v-.41c.02-.35-.03-.6-.14-.75-.06-.09-.18-.21-.48-.28-.13-.03-.32-.03-.58.18-.24.19-.41.47-.5.84-.09.36-.1.71-.03,1.07.25.28.56.5.93.65l.4.17-.26,1ZM375.2,410.57s0,0,0,.01c0,0,0,0,0-.01Z"/><path d="M350.03,405.28c.48-.42.81-.97.98-1.63.24-.91.2-1.65-.12-2.22-.28-.48-.72-.78-1.32-.91-.17-.04-.31-.05-.43-.03,0-.04,0-.08.01-.11.01-.05.07-.1.16-.13.09-.03.25-.03.48.02.23.05.46.14.68.29.23.15.39.29.48.44.31-.28.56-.76.73-1.42.09-.34.14-.67.14-.97-.22-.26-.56-.52-1.04-.76l.24-.9c-.26-.34-.58-.55-.96-.64-.39-.08-.75-.01-1.11.2l-.18.68c.14-.03.23-.03.29-.02.09.02.12.09.09.21,0,.03-.02.06-.02.07-.65,0-1.2.16-1.67.47-.56.38-.94.96-1.15,1.75-.11.42-.14.82-.08,1.19.07.36.21.64.43.82.19-.04.39-.04.61,0,.47.1.79.35.98.77.07.15.12.31.13.47.02.17.01.31-.02.42-.03.12-.1.17-.23.14.01-.46-.07-.81-.24-1.05-.17-.24-.43-.4-.78-.48-.35-.08-.68.02-1,.28-.32.26-.55.63-.67,1.1-.12.47-.13.95,0,1.43.32.39.72.68,1.2.88l-.22.83c.26.34.58.55.96.64.38.08.75.01,1.1-.19l.18-.69c-.14.02-.24.03-.29.02-.1-.02-.13-.09-.09-.21,0-.03.01-.05.02-.07.67-.04,1.25-.27,1.73-.7Z" fill="#79cc9e"/><path d="M347.68,407.65c-.14,0-.27-.01-.41-.04-.5-.11-.93-.39-1.26-.83l-.14-.19.17-.67c-.39-.22-.72-.5-1-.84l-.1-.19c-.14-.55-.14-1.11,0-1.67.16-.58.44-1.04.84-1.36.07-.06.14-.11.22-.16-.13-.21-.22-.46-.28-.74-.07-.46-.04-.92.09-1.41.24-.9.69-1.59,1.35-2.04.34-.23.71-.39,1.12-.48l.22-.85.18-.11c.46-.27.95-.36,1.46-.26.51.11.94.39,1.27.83l.15.19-.2.75c.36.22.64.44.84.69l.12.14v.18c-.01.34-.07.7-.16,1.08-.19.71-.45,1.22-.79,1.58.35.68.39,1.52.12,2.5-.19.75-.57,1.38-1.13,1.87-.35.32-.76.55-1.21.68l-.24.91-.18.1c-.33.2-.69.3-1.05.3ZM346.96,406.35c.15.14.32.23.51.28.17.04.33.03.5-.02-.05-.04-.09-.09-.12-.14-.07-.11-.13-.3-.06-.56l.1-.22.14-.19h.24c.57-.04,1.03-.23,1.42-.58h0c.41-.36.68-.82.82-1.38.21-.79.18-1.39-.08-1.85-.21-.36-.52-.57-.99-.67-.16-.03-.24-.03-.26-.03l-.52.07-.04-.52c0-.11.01-.21.03-.26.03-.14.14-.38.49-.5.17-.06.4-.06.73,0,.29.06.58.18.85.36.05.03.1.07.15.1.12-.21.22-.48.3-.79.06-.23.1-.45.12-.66-.17-.16-.43-.33-.75-.49l-.36-.18.28-1.03c-.15-.14-.32-.23-.51-.27-.17-.03-.34-.02-.51.03.17.15.27.38.2.67l-.1.54-.41-.09h0c-.54,0-1,.13-1.38.39-.46.31-.77.79-.95,1.47-.09.35-.12.67-.07.98.03.15.07.27.13.37.17,0,.34,0,.52.04.62.13,1.08.49,1.33,1.05.1.21.15.42.17.64.02.23.01.43-.04.6-.09.36-.44.57-.82.48l-.39-.09v-.41c.02-.35-.03-.6-.14-.75-.06-.09-.18-.21-.48-.28-.13-.03-.32-.03-.58.18-.24.19-.41.47-.5.84-.09.36-.1.71-.03,1.07.25.28.56.5.93.65l.4.17-.26,1ZM347.88,403.23s0,0,0,.01c0,0,0,0,0-.01Z"/><path d="M369.8,407.03c-1.34,3.83-5.55,6.07-9.39,4.99-3.84-1.07-5.87-5.05-4.53-8.88,1.34-3.83,5.55-6.07,9.39-4.99,3.84,1.07,5.87,5.05,4.53,8.88Z" fill="#79cc9e"/><path d="M362.37,412.79c-.7,0-1.4-.09-2.09-.29-1.97-.55-3.57-1.83-4.49-3.6-.95-1.81-1.08-3.91-.38-5.92,1.42-4.07,5.91-6.45,10-5.31,1.97.55,3.57,1.83,4.49,3.6.95,1.81,1.08,3.92.38,5.92h0c-1.18,3.38-4.48,5.6-7.9,5.6ZM363.3,398.38c-3.01,0-5.91,1.95-6.95,4.93-.61,1.74-.5,3.56.32,5.13.8,1.52,2.17,2.63,3.88,3.1,3.59,1,7.53-1.1,8.79-4.68h0c.61-1.74.5-3.56-.32-5.13-.8-1.52-2.17-2.63-3.87-3.1-.61-.17-1.22-.25-1.83-.25Z"/><path d="M492.15,409.64l2.81,16.45-141.31,24.17-2.81-16.45c-3.65-21.37,2.57-42.16,15.32-57.65,5.13-6.28,11.34-11.69,18.37-15.91,7.42-4.49,15.81-7.68,24.89-9.23,6.39-1.09,12.77-1.29,18.93-.68,7.7.7,15.17,2.7,22.07,5.77,4.38,1.92,8.58,4.31,12.47,7.07,15,10.6,25.92,26.94,29.25,46.46Z" fill="#5a0ce1"/><path d="M353.24,450.84l-2.89-16.95c-3.53-20.69,2.09-41.85,15.43-58.06,5.23-6.4,11.45-11.79,18.5-16.02,7.66-4.63,16.09-7.76,25.06-9.29,6.33-1.08,12.74-1.31,19.07-.68,7.64.69,15.12,2.64,22.23,5.81,4.39,1.93,8.61,4.32,12.56,7.12,15.74,11.13,26.21,27.75,29.46,46.79l2.89,16.95-.49.08-141.8,24.25ZM421.42,350.5c-3.98,0-7.96.34-11.91,1.01-8.84,1.51-17.16,4.6-24.71,9.16-6.95,4.17-13.09,9.49-18.24,15.8-13.16,15.98-18.7,36.85-15.22,57.25l2.72,15.96,140.33-24-2.73-15.96c-3.21-18.78-13.52-35.16-29.05-46.14-3.89-2.76-8.05-5.12-12.38-7.02-7.01-3.12-14.39-5.05-21.92-5.73-2.29-.23-4.59-.34-6.89-.34Z"/><path d="M400.56,318c-19.57,3.35-32.34,24.28-28.51,46.74.24,1.42.54,2.81.92,4.19,2.08-1.94,4.28-3.72,6.58-5.41l-.04-.22c-3.02-17.71,7.03-34.21,22.5-36.86,14.71-2.52,28.99,8.44,32.94,24.82,2.76.53,5.47,1.22,8.11,2.06-.01-.23-.05-.48-.09-.7-3.84-22.46-22.83-37.96-42.4-34.61Z" fill="#b9a4e9"/><path d="M372.71,369.85l-.22-.79c-.36-1.31-.67-2.7-.93-4.23-3.88-22.7,9.1-43.93,28.92-47.32h0c9.61-1.64,19.38,1.1,27.5,7.73,8.1,6.62,13.6,16.31,15.48,27.29.04.25.09.52.1.77l.03.71-.68-.22c-2.61-.83-5.32-1.52-8.05-2.05l-.32-.06-.08-.31c-3.89-16.14-18.11-26.88-32.37-24.44-15.15,2.59-25.06,18.87-22.09,36.28l.09.53-.25.18c-2.42,1.77-4.55,3.53-6.53,5.37l-.6.56ZM405.93,318.04c-1.76,0-3.53.15-5.29.45-19.28,3.3-31.88,24.01-28.1,46.16.2,1.19.43,2.29.7,3.34,1.76-1.6,3.66-3.15,5.76-4.7-3.02-17.93,7.25-34.67,22.92-37.35,14.69-2.51,29.31,8.4,33.43,24.88,2.4.48,4.79,1.07,7.1,1.78-1.85-10.71-7.21-20.15-15.11-26.59-6.41-5.23-13.85-7.97-21.41-7.97Z"/><path d="M431.31,412.47c1.43-3.25,1.76-6.8,1.01-10.65-.99-5.31-3.02-9.1-6.09-11.44-2.62-1.94-5.61-2.62-9.01-2.02-.96.16-1.73.41-2.29.73-.1-.18-.15-.42-.2-.61-.07-.31.09-.67.5-1.05.38-.37,1.21-.67,2.49-.9,1.27-.23,2.7-.2,4.21.09,1.55.29,2.7.74,3.51,1.3.9-2.16.99-5.16.27-9.02-.39-2-.94-3.81-1.64-5.42-1.75-.94-4.16-1.53-7.18-1.79l-.98-5.24c-2.15-1.26-4.32-1.7-6.49-1.32-2.16.42-3.87,1.52-5.19,3.39l.77,3.97c.64-.42,1.12-.65,1.43-.71.51-.07.84.23.98.9.04.2.04.36.05.4-3.31,1.36-5.76,3.35-7.41,6.03-1.93,3.19-2.47,7.07-1.59,11.67.46,2.48,1.3,4.59,2.52,6.42,1.24,1.78,2.63,2.92,4.22,3.4.87-.59,1.9-1.02,3.17-1.25,2.64-.48,4.93.18,6.89,1.98.73.66,1.35,1.39,1.83,2.23.52.87.84,1.62.94,2.26.14.67-.13,1.09-.84,1.2-1.08-2.47-2.33-4.13-3.81-5.04-1.48-.91-3.19-1.2-5.17-.87-1.98.34-3.44,1.55-4.45,3.61-1.02,2.06-1.26,4.48-.75,7.2.55,2.75,1.67,5.25,3.48,7.53,2.57,1.38,5.37,2.1,8.31,2.13l.93,4.84c2.15,1.26,4.32,1.7,6.49,1.32,2.13-.37,3.87-1.52,5.17-3.35l-.75-4.02c-.67.43-1.15.65-1.43.71-.54.11-.86-.18-.98-.9-.04-.2-.07-.31-.05-.4,3.36-1.61,5.75-4.04,7.13-7.33Z" fill="#b9a4e9"/><path d="M420.72,428.37c-1.76,0-3.52-.51-5.24-1.52l-.2-.11-.89-4.66c-2.87-.09-5.61-.82-8.13-2.18l-.16-.13c-1.83-2.31-3-4.84-3.58-7.74-.53-2.84-.26-5.37.8-7.52,1.09-2.21,2.72-3.52,4.82-3.88,2.08-.35,3.94-.04,5.52.93,1.47.91,2.73,2.5,3.82,4.85.02-.02.04-.03.05-.05.08-.11.05-.31.03-.43-.09-.57-.38-1.25-.88-2.11-.43-.76-1-1.45-1.73-2.11-1.86-1.7-3.98-2.31-6.47-1.86-1.16.21-2.14.59-2.98,1.17l-.2.14-.23-.07c-1.68-.51-3.19-1.72-4.49-3.6-1.28-1.94-2.13-4.1-2.6-6.62-.89-4.69-.34-8.74,1.65-12.02,1.65-2.69,4.04-4.69,7.29-6.09-.12-.53-.29-.5-.42-.49-.09.02-.47.14-1.23.63l-.62.41-.96-4.91.12-.17c1.39-1.97,3.19-3.15,5.51-3.6,2.29-.4,4.59.07,6.84,1.38l.2.12.95,5.09c2.92.28,5.28.89,7,1.81l.15.08.07.16c.72,1.64,1.28,3.49,1.68,5.53.73,3.94.63,7.07-.3,9.31l-.24.57-.51-.35c-.79-.55-1.91-.96-3.32-1.22-1.45-.28-2.81-.31-4.03-.09-1.53.28-2.05.6-2.23.76-.26.23-.39.45-.36.58,0,0,0,.01,0,.02.53-.22,1.17-.4,1.91-.52,3.51-.62,6.67.09,9.4,2.11,3.21,2.44,5.26,6.28,6.28,11.75.77,3.93.41,7.61-1.04,10.94-1.38,3.25-3.75,5.75-7.06,7.42.05.32.14.47.2.51.04.03.13.02.19,0,.09-.02.45-.12,1.27-.64l.62-.4.93,4.95-.12.17c-1.39,1.96-3.24,3.16-5.49,3.55-.53.09-1.06.14-1.59.14ZM416.18,426.09c1.97,1.11,3.98,1.5,5.96,1.15,1.92-.33,3.51-1.33,4.72-2.97l-.58-3.1c-.39.22-.72.35-.97.41-.46.1-.78-.03-.96-.16-.32-.22-.53-.6-.62-1.14-.05-.22-.08-.39-.05-.57l.05-.25.23-.11c3.25-1.56,5.57-3.94,6.89-7.07h0c1.38-3.15,1.71-6.63.98-10.36-.98-5.22-2.91-8.86-5.9-11.13-2.53-1.87-5.35-2.5-8.62-1.92-.91.15-1.62.38-2.13.67l-.43.25-.25-.44c-.14-.25-.2-.53-.25-.75-.08-.36-.02-.91.66-1.53.46-.44,1.33-.76,2.73-1.02,1.35-.24,2.83-.21,4.4.09,1.26.23,2.32.58,3.16,1.05.66-2.02.67-4.76.04-8.18-.37-1.89-.89-3.62-1.54-5.15-1.66-.85-3.96-1.41-6.84-1.65l-.38-.03-1-5.38c-1.97-1.11-3.97-1.49-5.95-1.15-1.97.38-3.53,1.37-4.75,3.02l.6,3.05c.38-.21.71-.34.98-.4.41-.06,1.3-.03,1.58,1.28.03.16.05.3.05.39l.09.41-.39.16c-3.23,1.32-5.58,3.23-7.17,5.83-1.86,3.07-2.37,6.88-1.52,11.32.44,2.39,1.24,4.43,2.44,6.24,1.12,1.62,2.34,2.65,3.73,3.13.91-.58,1.95-.97,3.16-1.19,2.78-.5,5.24.2,7.32,2.1.81.73,1.44,1.5,1.93,2.35.56.95.89,1.75,1,2.42.1.45.03.86-.19,1.18-.22.32-.58.52-1.07.6l-.38.06-.15-.35c-1.05-2.39-2.23-3.97-3.61-4.82-1.39-.86-2.96-1.12-4.82-.8-1.79.31-3.13,1.4-4.09,3.33-.96,1.95-1.2,4.26-.71,6.89.54,2.71,1.63,5.07,3.31,7.23,2.48,1.31,5.16,1.99,7.99,2.02h.41s.96,5.02.96,5.02Z"/><path d="M409.55,262.58c-3.81,20.03-9.28,39.73-12.45,59.89-.83,5.21-4.73,9.41-10.35,9.03-4.9-.33-9.84-5.17-9.02-10.35,3.27-20.76,8.96-41.02,12.79-61.67,1.2-6.51,2.24-13.08,3.14-19.64.73-5.26,1.43-12.11.94-16.42-.19-1.62-.47-3.25-.92-4.81-.02-.09-.04-.14-.06-.21-.22-.55-.48-1.08-.75-1.6-.45-.85-.87-1.37-2.15-1.81-4.27-1.46-9.88-.18-14.78,1.7-12.48,4.82-23.39,13.26-33.98,21.25-13.19,9.94-25.83,20.54-39.57,29.7,2.62-10.01,5.33-19.92,8.08-29.59,9.41-7.25,18.62-14.8,28.24-21.75,12.74-9.21,27.28-19.34,43.36-21,7.61-.79,15.79.16,21.9,5.17,5.76,4.73,8.79,11.76,9.66,19.08,1.68,14.21-1.4,29.1-4.06,43.03Z"/><path d="M384.06,302.99s-8.86-5.94-2.51-9.9c4.83-3.01,16.54-6.24,21.85-7.6,2.45-.63,5.08.02,6.65,1.88,1.01,1.2,1.37,5.16.58,7.4,3.73,2.59,10.27,5.49,14.11,14.13,2.87,6.46,4.33,13.97,3.7,21.13-.32,3.68-1.31,7.25-3.83,10.16-1.4,1.62-3.2,3.06-5.27,3.71-1.03.32-2.11.43-3.16.25-.31-.05-2.44-.48-2.44-.48,0,0-6.94,8.91-14.17.8,0,0-11.88,13.13-15.31-9.22-.21-1.35-6.47-.57-10.65-4.62-.62-.6-4.87-4.85-4.81-10.81.06-7.09,6.2-14.2,15.26-16.82Z" fill="#fff"/><path d="M392.38,348.8c-.53,0-1.07-.07-1.61-.23-3.46-1.04-5.82-5.5-7-13.25-.13-.2-1.24-.43-2.13-.61-2.28-.46-5.72-1.16-8.38-3.73-.84-.81-5.02-5.18-4.97-11.17.07-7.28,6.05-14.16,14.67-17-1.44-1.13-4.25-3.69-4.21-6.38.02-1.46.87-2.73,2.52-3.76,4.94-3.08,17.02-6.38,21.99-7.66,2.71-.7,5.52.11,7.16,2.05,1.1,1.31,1.47,5.1.79,7.52.53.36,1.11.72,1.72,1.11,3.79,2.39,8.99,5.67,12.25,13.02,3.03,6.81,4.35,14.41,3.74,21.38-.39,4.4-1.68,7.81-3.95,10.44-1.15,1.34-3.04,3.09-5.5,3.86-1.15.36-2.29.45-3.4.27-.24-.04-1.56-.31-2.16-.43-.78.91-3.73,4.02-7.62,4.15-2.39.07-4.66-.99-6.75-3.18-1.03,1.01-3.97,3.61-7.18,3.61ZM405.22,285.76c-.56,0-1.13.07-1.7.22-4.92,1.27-16.89,4.54-21.71,7.54-1.34.84-2.03,1.82-2.05,2.92-.05,2.99,4.54,6.1,4.58,6.13l.89.6-1.03.3c-8.57,2.48-14.84,9.35-14.9,16.35-.05,5.59,3.88,9.68,4.66,10.44,2.44,2.37,5.71,3.03,7.88,3.47,1.68.34,2.78.56,2.92,1.44,1.12,7.34,3.25,11.52,6.3,12.44,3.87,1.16,8.1-3.43,8.14-3.48l.37-.41.37.42c1.98,2.22,4.13,3.31,6.34,3.24,4-.13,7.04-3.97,7.07-4.01l.19-.24.3.06s2.12.43,2.42.48c.94.16,1.93.08,2.93-.23,2.23-.7,3.97-2.32,5.04-3.56,2.13-2.46,3.34-5.69,3.71-9.88.6-6.81-.7-14.22-3.66-20.88-3.14-7.08-8.19-10.26-11.87-12.58-.75-.47-1.44-.91-2.06-1.34l-.31-.22.13-.36c.76-2.15.36-5.89-.49-6.91-1.05-1.25-2.69-1.94-4.44-1.94Z"/><rect x="398.84" y="335.51" width="1" height="8.73" transform="translate(-20.69 25.93) rotate(-3.63)"/><rect x="412.57" y="334.66" width="1" height="9.06" transform="translate(-45.32 64.31) rotate(-8.44)"/><rect x="383.04" y="322.71" width="1" height="12.58" transform="translate(-35.13 46.05) rotate(-6.57)"/><rect x="383.84" y="301.09" width="9.15" height="1" transform="translate(-73.75 133.57) rotate(-17.85)"/><rect x="404.12" y="295.36" width="6.68" height="1" transform="translate(-74.22 149.1) rotate(-19.04)"/><path d="M141.23,206.69c-11.68-4.01-14.94-14.96-14.36-25.67.51-9.5,5.95-15.27,8.38-23.78,2.46-8.63-5.04-17.17-5.38-25.92-.39-10.04,3.85-17.28,8.44-25.89,4.6-8.64,1.58-15.99,4.56-24.67,4.15-12.07,21.29-21.84,31.16-10.73,11.17,12.57,2.32,24.94,1.32,38.67-.97,13.32,8.62,23.67,1.11,37.32-2.94,5.34-6.45,9.54-8.43,15.57-3.08,9.35.29,18.99-1.86,28.7-2.29,10.31-9.59,21.68-24.93,16.41Z"/><path d="M148.55,208.53c-2.34,0-4.84-.45-7.48-1.36h0c-13.76-4.73-15.12-18.43-14.7-26.17.32-5.88,2.53-10.44,4.66-14.84,1.37-2.83,2.79-5.76,3.73-9.05,1.38-4.84-.46-9.61-2.41-14.67-1.39-3.61-2.84-7.34-2.98-11.1-.37-9.58,3.36-16.55,7.68-24.62l.81-1.52c2.52-4.74,2.7-9.02,2.89-13.55.15-3.52.3-7.16,1.64-11.05,2.58-7.5,10.01-14.06,17.67-15.59,5.56-1.11,10.66.55,14.34,4.69,8.11,9.12,5.92,18.04,3.6,27.49-.92,3.74-1.87,7.61-2.15,11.55-.37,5.07.84,9.77,2,14.32,1.84,7.21,3.75,14.66-.95,23.2-.96,1.75-1.99,3.39-2.99,4.98-2.1,3.34-4.08,6.5-5.41,10.51-1.63,4.95-1.43,9.9-1.21,15.14.18,4.41.37,8.97-.64,13.51-.98,4.42-3.64,12.4-10.38,16.18-2.33,1.31-4.91,1.96-7.72,1.96ZM141.39,206.22c5.54,1.9,10.38,1.73,14.39-.52,6.4-3.59,8.94-11.27,9.89-15.52.98-4.42.8-8.91.62-13.25-.21-5.1-.43-10.37,1.26-15.49,1.36-4.12,3.37-7.33,5.51-10.72.99-1.57,2.01-3.2,2.96-4.93,4.51-8.2,2.74-15.13.86-22.47-1.18-4.63-2.41-9.41-2.03-14.64.29-4.02,1.25-7.93,2.18-11.72,2.25-9.18,4.38-17.86-3.37-26.59-4.4-4.95-9.71-5.11-13.39-4.38-7.34,1.47-14.45,7.75-16.92,14.94-1.29,3.75-1.44,7.32-1.58,10.77-.19,4.44-.38,9.04-3.01,13.97l-.82,1.53c-4.25,7.94-7.92,14.8-7.56,24.11.14,3.59,1.55,7.24,2.92,10.78,1.93,4.98,3.92,10.14,2.44,15.3-.96,3.38-2.4,6.34-3.79,9.21-2.19,4.52-4.26,8.78-4.56,14.46-.4,7.46.89,20.66,14.03,25.17h0Z"/><path d="M175.35,108.71c1-13.73,9.86-26.11-1.32-38.67-3.18-3.58-7.13-5.02-11.17-4.89,1.57.77,3.02,1.9,4.37,3.41,11.18,12.56,2.32,24.95,1.32,38.68-.97,13.31,8.62,23.67,1.1,37.32-2.95,5.33-6.45,9.53-8.42,15.56-3.09,9.34.29,19-1.87,28.7-1.96,8.77-7.53,18.31-18.59,17.7.13.09.31.13.45.19,15.34,5.28,22.65-6.11,24.94-16.41,2.16-9.7-1.22-19.35,1.87-28.7,1.97-6.03,5.47-10.23,8.42-15.56,7.52-13.65-2.07-24.01-1.1-37.32Z" fill="#fff"/><path d="M148.55,208.53c-2.34,0-4.84-.45-7.49-1.36l-.16-.06c-.12-.04-.27-.09-.41-.19l-1.5-1.01,1.8.1c13.04.71,17.12-13.07,18.07-17.31.99-4.42.8-8.91.62-13.26-.21-5.1-.43-10.37,1.26-15.49,1.36-4.16,3.39-7.38,5.54-10.8.97-1.55,1.98-3.15,2.91-4.84,4.52-8.2,2.74-15.14.87-22.48-1.18-4.62-2.41-9.4-2.03-14.63.29-4.02,1.25-7.93,2.18-11.71,2.26-9.19,4.39-17.87-3.38-26.59-1.29-1.45-2.71-2.56-4.22-3.3l-1.81-.89,2.01-.06c4.48-.14,8.5,1.61,11.56,5.06,8.11,9.12,5.92,18.05,3.6,27.5-.92,3.74-1.87,7.61-2.15,11.55h0c-.37,5.06.83,9.76,2,14.31,1.84,7.21,3.75,14.67-.96,23.21-.95,1.72-1.96,3.33-2.94,4.89-2.12,3.36-4.12,6.54-5.44,10.58-1.63,4.94-1.43,9.89-1.21,15.13.18,4.41.37,8.97-.64,13.52-.98,4.42-3.64,12.41-10.39,16.19-2.33,1.3-4.91,1.96-7.72,1.96ZM143.75,206.92c4.54,1.11,8.58.7,12.02-1.22,4.68-2.62,8.29-8.28,9.9-15.53.99-4.42.8-8.91.62-13.26-.21-5.1-.43-10.37,1.26-15.49,1.36-4.16,3.39-7.39,5.54-10.8.97-1.55,1.98-3.15,2.92-4.84,4.52-8.2,2.74-15.14.87-22.48-1.18-4.62-2.41-9.4-2.03-14.63.29-4.02,1.25-7.93,2.18-11.71,2.26-9.19,4.39-17.87-3.38-26.59-2.41-2.72-5.45-4.31-8.86-4.66.98.69,1.92,1.53,2.8,2.52,8.12,9.12,5.92,18.05,3.6,27.5-.92,3.74-1.87,7.61-2.15,11.55-.37,5.06.83,9.76,2,14.31,1.84,7.21,3.75,14.67-.96,23.21-.95,1.72-1.96,3.33-2.94,4.89-2.12,3.36-4.12,6.54-5.44,10.58-1.63,4.94-1.43,9.89-1.21,15.13.18,4.41.37,8.97-.64,13.52-.92,4.1-4.66,16.7-16.1,18.01Z"/><path d="M224.42,223.41c-11.53-3.86-14.82-14.62-14.34-25.17.43-9.36,5.74-15.08,8.07-23.48,2.36-8.51-5.09-16.87-5.49-25.48-.46-9.89,3.66-17.04,8.11-25.55,4.47-8.54,1.43-15.75,4.3-24.33,3.99-11.91,20.79-21.66,30.6-10.8,11.09,12.29,2.47,24.54,1.59,38.06-.85,13.12,8.67,23.24,1.38,36.73-2.85,5.29-6.27,9.44-8.18,15.39-2.96,9.23.43,18.7-1.62,28.27-2.18,10.17-9.28,21.42-24.42,16.35Z"/><path d="M231.5,225.17c-2.27,0-4.68-.43-7.24-1.29h0c-13.59-4.55-15.03-18.03-14.67-25.66.27-5.79,2.41-10.29,4.48-14.65,1.33-2.8,2.7-5.69,3.6-8.94,1.32-4.78-.53-9.46-2.49-14.42-1.4-3.54-2.85-7.21-3.02-10.9-.44-9.43,3.18-16.33,7.38-24.31l.79-1.5c2.45-4.68,2.59-8.89,2.75-13.35.12-3.47.24-7.06,1.53-10.9,2.48-7.4,9.75-13.92,17.28-15.49,5.47-1.14,10.5.46,14.16,4.51,8.05,8.92,5.96,17.72,3.75,27.04-.88,3.69-1.78,7.51-2.03,11.39-.32,4.99.9,9.61,2.08,14.08,1.87,7.08,3.8,14.4-.76,22.85-.93,1.73-1.94,3.35-2.91,4.92-2.04,3.3-3.97,6.43-5.24,10.38-1.57,4.88-1.33,9.75-1.08,14.91.21,4.34.43,8.82-.53,13.31-.93,4.36-3.49,12.24-10.1,16.01-2.32,1.33-4.91,1.99-7.73,1.99ZM224.58,222.94c5.46,1.83,10.22,1.62,14.16-.62,6.27-3.58,8.71-11.15,9.61-15.35.93-4.36.72-8.77.51-13.05-.25-5.02-.5-10.21,1.12-15.26,1.31-4.07,3.26-7.24,5.34-10.6.96-1.56,1.96-3.17,2.88-4.88,4.38-8.1,2.58-14.91.67-22.12-1.2-4.55-2.44-9.25-2.11-14.4.26-3.96,1.17-7.82,2.06-11.55,2.15-9.06,4.18-17.61-3.52-26.14-4.37-4.84-9.6-4.96-13.21-4.21-7.21,1.5-14.16,7.74-16.54,14.83-1.24,3.7-1.36,7.22-1.48,10.62-.15,4.38-.3,8.9-2.86,13.78l-.79,1.5c-4.13,7.85-7.69,14.63-7.27,23.79.17,3.53,1.58,7.12,2.95,10.58,1.93,4.89,3.93,9.95,2.52,15.05-.92,3.33-2.32,6.27-3.66,9.1-2.12,4.46-4.12,8.67-4.38,14.26-.34,7.35,1.03,20.32,14,24.67h0Z"/><path d="M257.27,126.69c.88-13.52,9.5-25.78-1.6-38.06-3.16-3.5-7.05-4.88-11.03-4.73,1.55.74,2.99,1.85,4.33,3.33,11.1,12.28,2.47,24.54,1.6,38.06-.85,13.11,8.67,23.23,1.37,36.73-2.86,5.27-6.27,9.43-8.17,15.38-2.97,9.22.43,18.7-1.62,28.27-1.86,8.65-7.27,18.08-18.17,17.57.13.09.3.12.44.18,15.15,5.08,22.25-6.18,24.43-16.35,2.06-9.56-1.35-19.04,1.62-28.27,1.9-5.95,5.31-10.11,8.17-15.38,7.3-13.49-2.22-23.62-1.37-36.73Z" fill="#fff"/><path d="M231.5,225.18c-2.27,0-4.69-.43-7.25-1.29l-.15-.06c-.12-.04-.26-.09-.4-.18l-1.5-1,1.8.08c12.81.61,16.75-12.99,17.65-17.17.94-4.35.72-8.78.51-13.06-.25-5.02-.5-10.21,1.13-15.26,1.31-4.1,3.28-7.3,5.38-10.68.95-1.53,1.92-3.11,2.83-4.78,4.38-8.1,2.58-14.92.68-22.13-1.2-4.54-2.44-9.24-2.11-14.39.26-3.96,1.17-7.82,2.06-11.55,2.15-9.06,4.18-17.62-3.53-26.15-1.28-1.42-2.69-2.5-4.17-3.21l-1.82-.87,2.01-.08c4.42-.19,8.38,1.52,11.42,4.89,8.06,8.92,5.97,17.73,3.76,27.05-.88,3.69-1.78,7.51-2.03,11.38h0c-.32,4.99.9,9.6,2.07,14.07,1.87,7.09,3.81,14.41-.77,22.87-.92,1.7-1.91,3.29-2.86,4.83-2.06,3.33-4,6.47-5.27,10.46-1.57,4.88-1.33,9.75-1.08,14.91.21,4.34.43,8.83-.53,13.31-.94,4.36-3.5,12.25-10.11,16.02-2.32,1.32-4.91,1.99-7.72,1.99ZM226.95,223.62c4.46,1.04,8.42.61,11.78-1.3,4.58-2.61,8.09-8.21,9.63-15.36.94-4.35.72-8.78.51-13.05-.25-5.02-.5-10.21,1.13-15.26,1.31-4.1,3.28-7.3,5.38-10.68.95-1.53,1.92-3.11,2.83-4.78,4.38-8.1,2.59-14.92.68-22.13-1.2-4.54-2.44-9.24-2.11-14.39.26-3.96,1.17-7.82,2.06-11.55,2.15-9.06,4.18-17.62-3.53-26.15-2.39-2.65-5.38-4.19-8.72-4.51.97.66,1.89,1.48,2.76,2.44,8.06,8.92,5.97,17.73,3.76,27.05-.88,3.69-1.78,7.51-2.03,11.38-.32,4.98.9,9.6,2.07,14.07,1.87,7.09,3.81,14.41-.77,22.87-.92,1.7-1.91,3.29-2.86,4.83-2.06,3.33-4,6.47-5.27,10.46-1.57,4.88-1.33,9.75-1.08,14.9.21,4.34.43,8.83-.53,13.31-.87,4.04-4.46,16.45-15.68,17.85Z"/><path d="M172.64,199.2c-1.12,6.41,3.6,12.58,10.52,13.79,6.93,1.21,13.44-3.01,14.56-9.42s-3.6-12.58-10.52-13.79c-6.93-1.21-13.44,3.01-14.56,9.42Z" fill="#078450"/><path d="M185.55,213.69c-.82,0-1.64-.07-2.47-.21-7.19-1.25-12.09-7.7-10.93-14.37.56-3.24,2.45-6.04,5.32-7.9,2.86-1.85,6.34-2.53,9.82-1.93,7.19,1.25,12.09,7.7,10.93,14.37-.56,3.24-2.45,6.04-5.32,7.9-2.18,1.41-4.72,2.14-7.35,2.14ZM184.82,190.07c-2.43,0-4.79.68-6.81,1.98-2.63,1.7-4.36,4.27-4.88,7.23-1.07,6.13,3.47,12.05,10.11,13.21,3.23.56,6.46-.07,9.1-1.78,2.63-1.7,4.36-4.27,4.88-7.23,1.07-6.13-3.47-12.05-10.11-13.21-.77-.13-1.54-.2-2.3-.2Z"/><path d="M183.18,193.8c4.4,2.6.38,9.45-4.04,6.85-4.4-2.6-.38-9.45,4.04-6.85Z" fill="#fff"/><path d="M198.28,218.86c5.93-1.14,11.58,4.12,11.23,10.53-1.35,24.86-7.96,75.18-39.45,71.59-31.7-3.61-25.63-58.16-20.89-84.12,1.17-6.42,8.02-9.26,13.47-5.67,4.67,3.08,10.37,6.06,17.19,7.57,7.08,1.57,13.27,1.1,18.45.11Z" fill="#ff4a00"/><path d="M173.17,301.65c-1.04,0-2.1-.06-3.17-.18-6.83-.78-12.36-3.96-16.44-9.45-13-17.52-8.64-54.67-4.89-75.26.58-3.2,2.54-5.73,5.37-6.93,2.87-1.23,6.1-.88,8.87.94,5.74,3.78,11.3,6.23,17.02,7.5,5.88,1.3,11.85,1.34,18.25.1h0c2.86-.55,5.82.29,8.13,2.31,2.49,2.17,3.87,5.44,3.69,8.73-1.03,19.02-5.15,52.93-21.13,66.43-4.57,3.86-9.84,5.81-15.71,5.81ZM157.57,210.1c-1.06,0-2.12.21-3.13.64-2.52,1.08-4.26,3.33-4.78,6.19-3.73,20.43-8.07,57.27,4.7,74.48,3.91,5.26,9.2,8.31,15.75,9.05,6.86.78,12.96-1.03,18.12-5.4,15.69-13.26,19.75-46.87,20.78-65.72.16-2.99-1.09-5.95-3.35-7.93-2.08-1.81-4.73-2.57-7.28-2.08h0c-6.54,1.26-12.64,1.22-18.66-.11-5.84-1.29-11.52-3.79-17.36-7.64-1.5-.99-3.16-1.5-4.79-1.5Z"/><path d="M200.51,226.47c1.6-.35,3.01,1.2,2.83,3.09-1.47,15.12-8.42,69.03-32.62,64.82-27.68-4.81-18.28-58.82-15.23-73.36.37-1.78,2.08-2.69,3.47-1.84,4.4,2.71,11.47,6.24,20.75,7.78,8.72,1.44,16.01.56,20.81-.49Z" fill="#fff"/><path d="M173.35,295.11c-.89,0-1.8-.08-2.72-.24-5.42-.94-9.8-3.82-13-8.54-11.59-17.1-4.95-54.39-2.63-65.42.23-1.08.9-1.95,1.81-2.34.79-.34,1.67-.27,2.41.19,6.25,3.85,13.36,6.52,20.56,7.71,6.93,1.15,13.87.98,20.62-.49.82-.18,1.67.05,2.33.64.8.71,1.21,1.83,1.1,2.99-1.13,11.68-6.01,50.68-21.13,62.2-2.89,2.2-6.03,3.31-9.36,3.31ZM157.83,219.36c-.21,0-.43.04-.63.13-.61.26-1.07.87-1.23,1.63-2.29,10.92-8.89,47.87,2.48,64.65,3.04,4.49,7.2,7.22,12.35,8.12,4.05.71,7.86-.26,11.29-2.88,14.8-11.27,19.62-49.92,20.74-61.5.08-.84-.21-1.64-.77-2.14-.42-.38-.94-.52-1.46-.41h0c-6.87,1.5-13.93,1.66-21,.5-7.34-1.21-14.57-3.92-20.93-7.84-.27-.17-.56-.25-.85-.25Z"/><rect x="150.91" y="259.96" width="66.14" height="1" transform="translate(-99.34 406.81) rotate(-82.08)"/><rect x="133.42" y="257.26" width="66.51" height="1" transform="translate(-110.55 389.56) rotate(-82.54)"/><polygon points="197.51 263.14 197.42 263.13 151.38 255.14 151.55 254.16 197.59 262.15 197.51 262.6 197.58 263.13 197.51 263.14"/></svg>