<?xml version="1.0" encoding="UTF-8"?><svg id="_03" xmlns="http://www.w3.org/2000/svg" width="512" height="512" viewBox="0 0 512 512"><path d="M74.58,258.72c-4.74,6.23-8.21,12.74-10.32,19.39-2.14,6.64-2.71,13.44-2.05,20.26.27,3.42.94,6.84,1.82,10.27.8,3.45,2.02,6.84,3.21,10.3,2.47,6.92,5.74,13.72,8.77,21.07l-.47.37-3.52-4.57c-1.14-1.55-2.21-3.15-3.32-4.73-1.05-1.61-2.02-3.28-3.04-4.92-.93-1.69-1.85-3.38-2.73-5.1l-1.22-2.63-.61-1.31-.53-1.35-1.06-2.7c-.33-.91-.6-1.84-.9-2.76-.3-.92-.59-1.84-.81-2.79l-.69-2.82c-.33-1.91-.72-3.81-.87-5.75-.74-7.72.4-15.68,3.62-22.77,1.59-3.54,3.63-6.87,6.02-9.92,2.46-3,5.18-5.77,8.36-8.03l.34.5Z" fill="#a986fc"/><path d="M75.45,341.09l-3.83-4.97c-.74-1.02-1.45-2.04-2.16-3.07-.39-.56-.78-1.12-1.17-1.68-.7-1.06-1.34-2.13-1.99-3.21-.35-.58-.7-1.16-1.06-1.74l-.14-.25c-.87-1.59-1.77-3.24-2.61-4.89l-1.84-3.96-1.61-4.08c-.22-.61-.41-1.21-.6-1.81-.1-.33-.21-.65-.31-.98-.3-.89-.6-1.86-.82-2.84l-.69-2.81-.19-1.09c-.28-1.54-.56-3.14-.68-4.75-.78-8.06.49-16.02,3.66-23.01,1.57-3.51,3.62-6.89,6.08-10.02,2.78-3.4,5.55-6.05,8.47-8.13l.42-.3.83,1.22-.22.29c-4.72,6.2-8.16,12.67-10.24,19.24-2.02,6.28-2.7,13.03-2.03,20.07.24,3.06.83,6.39,1.8,10.19.7,3.03,1.71,5.97,2.79,9.07l.41,1.2c1.58,4.42,3.46,8.74,5.46,13.32,1.09,2.5,2.22,5.09,3.3,7.72l.14.35-1.17.92ZM73.38,259.49c-2.43,1.88-4.77,4.21-7.12,7.08-2.4,3.06-4.41,6.37-5.95,9.81-3.1,6.83-4.33,14.62-3.57,22.51.12,1.57.4,3.14.67,4.65l.19,1.06.69,2.79c.21.95.51,1.88.79,2.75.11.33.21.66.32.99.19.59.37,1.18.58,1.76l1.59,4.03,1.82,3.91c.83,1.62,1.72,3.26,2.59,4.85l.12.22c.35.56.7,1.14,1.05,1.72.64,1.06,1.29,2.13,1.97,3.16.38.55.77,1.11,1.16,1.67.7,1.02,1.41,2.04,2.14,3.04l2.56,3.32c-.9-2.15-1.83-4.27-2.73-6.33-2-4.59-3.89-8.93-5.48-13.39l-.41-1.2c-1.03-2.99-2.1-6.08-2.81-9.16-.99-3.85-1.58-7.23-1.83-10.34-.69-7.17,0-14.05,2.07-20.46,1.99-6.3,5.22-12.51,9.6-18.47Z" fill="#a986fc"/><path d="M55.01,258.01c-4.75,4.84-8.44,9.9-11.03,15.19-2.62,5.27-3.98,10.8-4.41,16.54-.27,2.87-.21,5.81,0,8.79.14,2.99.64,6.01,1.08,9.09.96,6.18,2.58,12.44,3.81,19.22l-.53.29-2.32-4.37c-.74-1.48-1.42-2.98-2.13-4.48-.66-1.52-1.24-3.07-1.86-4.6-.54-1.56-1.08-3.13-1.57-4.71-.89-3.19-1.72-6.41-2.11-9.72-.28-1.64-.32-3.31-.46-4.97,0-1.67-.06-3.33.1-5,.5-6.64,2.63-13.22,6.38-18.74,1.86-2.77,4.07-5.29,6.54-7.52,2.52-2.18,5.23-4.12,8.25-5.56l.25.55Z" fill="#a986fc"/><path d="M43.73,327.81l-2.56-4.82c-.49-.97-.94-1.94-1.4-2.92-.25-.53-.49-1.05-.74-1.58-.44-1-.83-2.01-1.23-3.01-.21-.54-.43-1.08-.65-1.62l-.07-.21c-.51-1.48-1.04-3.01-1.51-4.54-.82-2.93-1.72-6.33-2.13-9.81-.2-1.17-.28-2.39-.36-3.56-.03-.47-.06-.95-.1-1.42v-.96c-.02-1.35-.03-2.74.1-4.12.52-6.95,2.75-13.51,6.46-18.98,1.85-2.75,4.07-5.31,6.62-7.61,2.86-2.47,5.6-4.31,8.37-5.64l.46-.22.6,1.32-.24.25c-4.73,4.82-8.41,9.89-10.94,15.06-2.49,5-3.91,10.35-4.36,16.36-.24,2.57-.24,5.33,0,8.71.12,2.51.48,4.99.87,7.61l.21,1.44c.54,3.45,1.27,6.89,2.05,10.54.6,2.8,1.22,5.69,1.76,8.67l.06.36-1.29.7ZM53.87,258.48c-2.32,1.23-4.63,2.86-7.03,4.93-2.48,2.24-4.65,4.73-6.45,7.42-3.61,5.32-5.79,11.72-6.29,18.5-.13,1.34-.12,2.71-.1,4.03v.93c.04.44.07.92.11,1.4.07,1.15.15,2.34.35,3.49.4,3.43,1.29,6.79,2.1,9.67.47,1.5.99,3.02,1.5,4.5l.06.19c.21.52.43,1.06.64,1.6.39.99.78,1.98,1.21,2.96.24.51.49,1.04.74,1.57.45.97.9,1.93,1.38,2.88l1.68,3.17c-.48-2.53-1.01-5-1.52-7.4-.78-3.66-1.52-7.11-2.06-10.6l-.21-1.45c-.39-2.65-.75-5.15-.88-7.7-.24-3.43-.25-6.24,0-8.86.46-6.13,1.92-11.6,4.46-16.72,2.44-4.97,5.91-9.85,10.33-14.5Z" fill="#a986fc"/><path d="M438.9,205.56c8.73.64,17.1,4.8,23.77,10.97,3.39,3.05,6.24,6.76,8.51,10.77.56,1.01,1.05,2.05,1.57,3.08.5,1.04.9,2.12,1.35,3.18.46,1.06.74,2.18,1.1,3.27l.51,1.65.4,1.67c.55,2.23.84,4.48,1.14,6.73l.21,3.38c.03.56.08,1.13.08,1.69,0,.56-.02,1.12-.03,1.68-.04,1.12-.04,2.24-.11,3.35-.09,1.11-.23,2.21-.34,3.31-.17,2.21-.73,4.35-1.13,6.5-1.88,8.55-5.26,16.58-10.02,23.75l-.57-.2,1.89-5.94c.58-1.99,1.08-4.01,1.62-6.02.5-2.02.9-4.05,1.36-6.07.35-2.04.7-4.09.99-6.14l.32-3.09.16-1.55.07-1.55.13-3.1c.01-1.03-.04-2.07-.05-3.1l-.03-1.55c-.02-.52-.08-1.03-.12-1.54l-.28-3.08c-.33-2.04-.6-4.09-1.12-6.08-.92-4.01-2.28-7.93-4.14-11.61-1.86-3.68-4.22-7.1-6.99-10.16-2.77-3.06-5.94-5.75-9.36-8.06-3.43-2.28-7.13-4.26-11.04-5.55l.16-.58Z" fill="#a986fc"/><path d="M466.12,291.15l-1.39-.5,2.04-6.4c.37-1.26.71-2.55,1.04-3.83.19-.72.38-1.44.57-2.16.32-1.28.6-2.59.88-3.89.16-.72.31-1.44.47-2.16l.05-.28c.32-1.91.66-3.88.93-5.82l.48-4.62.2-4.62c0-.64,0-1.3-.03-1.96,0-.37-.02-.74-.02-1.11l-.03-1.55c-.01-.32-.04-.64-.07-.96-.02-.19-.04-.37-.05-.56l-.28-3.08-.18-1.14c-.25-1.61-.51-3.27-.93-4.86-.95-4.15-2.33-8.02-4.11-11.51-1.83-3.63-4.16-7.01-6.92-10.05-2.67-2.95-5.79-5.64-9.27-7.98-3.81-2.53-7.38-4.32-10.91-5.49l-.45-.15.4-1.43.41.03c8.45.62,17.01,4.56,24.08,11.1,3.29,2.96,6.19,6.62,8.61,10.89.39.71.75,1.43,1.11,2.15.16.32.31.64.47.95.35.72.64,1.45.93,2.16.14.35.29.7.44,1.05.32.75.56,1.52.79,2.27.11.35.21.69.33,1.04l.51,1.66.4,1.7c.51,2.08.8,4.21,1.08,6.26l.07.51.25,4.02c.02.37.05.74.05,1.11,0,.38-.01.75-.02,1.13v.57c-.03.38-.04.75-.05,1.12-.02.75-.04,1.5-.08,2.25-.07.83-.16,1.65-.25,2.47l-.09.86c-.12,1.6-.45,3.19-.77,4.72-.13.61-.25,1.21-.36,1.82-1.9,8.67-5.3,16.72-10.09,23.94l-.22.33ZM440.45,206.22c3.11,1.18,6.27,2.85,9.6,5.06,3.55,2.39,6.73,5.13,9.46,8.14,2.81,3.1,5.19,6.56,7.07,10.27,1.81,3.57,3.22,7.51,4.19,11.72.43,1.62.69,3.31.95,4.95l.18,1.16.34,3.67c.03.34.06.68.08,1.03l.03,1.56c0,.37.01.74.02,1.11.02.67.04,1.34.03,2.01l-.2,4.67-.48,4.67c-.28,1.97-.61,3.95-.94,5.87l-.05.31c-.17.74-.32,1.46-.48,2.18-.28,1.31-.57,2.63-.89,3.93-.2.73-.39,1.45-.58,2.17-.34,1.29-.68,2.59-1.05,3.87l-1.44,4.52c4.31-6.8,7.39-14.32,9.16-22.37.11-.6.24-1.21.37-1.83.31-1.5.63-3.06.75-4.61l.1-.88c.09-.81.18-1.62.25-2.43.04-.72.06-1.46.08-2.2,0-.38.02-.75.03-1.13v-.57c.02-.36.03-.73.03-1.1,0-.35-.02-.7-.05-1.06-.01-.2-.02-.4-.03-.61l-.21-3.37-.07-.48c-.28-2.03-.56-4.13-1.06-6.17l-.4-1.67-.5-1.62c-.11-.34-.22-.7-.33-1.05-.23-.75-.45-1.47-.75-2.16-.15-.36-.3-.72-.44-1.07-.28-.69-.58-1.41-.9-2.09-.16-.31-.32-.63-.47-.95-.35-.71-.7-1.42-1.09-2.1-2.36-4.17-5.19-7.75-8.41-10.64-6.47-5.98-14.18-9.74-21.89-10.69Z" fill="#a986fc"/><path d="M458.69,198.05c7.55-1.03,15.35,1.18,22.07,5.36,3.36,2.11,6.39,4.83,8.94,7.93.64.78,1.21,1.6,1.82,2.41.59.82,1.09,1.68,1.64,2.53.55.84.96,1.76,1.43,2.64l.68,1.34.59,1.37c.79,1.83,1.37,3.72,1.96,5.6l.66,2.86c.24.95.4,1.91.52,2.87.13.96.28,1.92.38,2.88.08.96.11,1.92.17,2.88.16,1.91-.01,3.82-.05,5.71-.52,7.56-2.33,14.85-5.62,21.55l-.59-.1.73-5.3c.2-1.77.32-3.55.49-5.32.13-1.77.17-3.55.27-5.33,0-1.78,0-3.55-.06-5.33l-.18-2.66-.09-1.33-.17-1.32-.34-2.64c-.14-.87-.33-1.74-.49-2.61-.16-.87-.33-1.74-.58-2.59l-.69-2.56c-.57-1.67-1.1-3.36-1.83-4.97-2.67-6.52-6.94-12.41-12.53-16.75-2.78-2.18-5.84-4-9.06-5.45-3.22-1.43-6.63-2.58-10.11-3.11l.06-.6Z" fill="#a986fc"/><path d="M494.15,266.55l-1.44-.25.79-5.77c.13-1.13.22-2.27.32-3.41.05-.63.11-1.26.17-1.88.08-1.13.13-2.28.18-3.42.03-.63.05-1.26.09-1.88v-.23c0-1.66,0-3.38-.06-5.06l-.27-3.97-.5-3.92c-.09-.54-.2-1.09-.31-1.65-.06-.31-.12-.62-.18-.94-.15-.82-.33-1.7-.57-2.54l-.69-2.57-.32-.94c-.44-1.31-.9-2.67-1.48-3.94-2.74-6.68-7.02-12.4-12.38-16.57-2.67-2.1-5.69-3.91-8.96-5.39-3.57-1.59-6.84-2.59-9.98-3.07l-.47-.07.15-1.46.39-.05c7.24-.99,15.18.94,22.4,5.43,3.37,2.12,6.42,4.82,9.07,8.04.45.55.87,1.12,1.29,1.69l.54.73c.41.56.77,1.14,1.13,1.72.17.28.35.56.53.83.39.6.71,1.23,1.02,1.83.14.28.28.56.43.84l.68,1.35.6,1.4c.76,1.76,1.34,3.59,1.89,5.36l.09.29.67,2.9c.23.92.4,1.88.53,2.93l.13.94c.09.65.18,1.3.25,1.95.06.71.09,1.42.13,2.12l.04.78c.11,1.37.06,2.75,0,4.09-.02.55-.04,1.11-.05,1.66-.54,7.89-2.45,15.2-5.67,21.76l-.17.34ZM460.1,198.4c2.8.56,5.71,1.51,8.84,2.9,3.35,1.51,6.43,3.36,9.17,5.51,5.5,4.27,9.88,10.14,12.68,16.96.6,1.3,1.06,2.68,1.51,4.02l.33.97.7,2.59c.25.87.43,1.78.59,2.63.06.31.12.62.18.92.11.56.22,1.13.32,1.7l.51,3.97.27,4.01c.05,1.71.06,3.44.06,5.1v.25c-.03.65-.06,1.28-.08,1.9-.05,1.15-.1,2.31-.18,3.46-.06.64-.11,1.26-.17,1.89-.1,1.15-.2,2.3-.33,3.45l-.55,4.01c2.85-6.16,4.54-12.96,5.04-20.25,0-.53.03-1.1.05-1.66.05-1.31.1-2.66,0-3.98l-.04-.8c-.03-.69-.07-1.39-.13-2.08-.06-.63-.15-1.26-.24-1.9l-.13-.96c-.12-1.01-.28-1.93-.51-2.82l-.74-3.12c-.55-1.75-1.11-3.55-1.85-5.27l-.59-1.37-.66-1.31c-.15-.28-.29-.56-.44-.85-.31-.61-.6-1.19-.96-1.74-.18-.28-.36-.56-.54-.85-.35-.56-.7-1.12-1.09-1.66l-.54-.73c-.41-.56-.82-1.11-1.25-1.65-2.58-3.13-5.55-5.77-8.82-7.83-6.57-4.09-13.76-6-20.39-5.44Z" fill="#a986fc"/><path d="M174.96,356.54c-22.5,41.66-39.97,85.7-59.99,128.55-6.64,14.22,14.5,26.7,21.19,12.39,20.02-42.85,37.49-86.89,59.99-128.55,7.5-13.9-13.68-26.3-21.19-12.39Z"/><path d="M168.65,492.75c1.34,18.89-12.86,11.84-12.86,11.84-7.61,8.76-20.11,2.82-20.11,2.82-9.94,7.61-21.87,2.12-21.87,2.12-11.45,7.01-20.07-1.07-20.07-1.07-15.88,6.94-23.31-3.33-23.31-3.33-2.01.73-3.9,1.01-5.66.98-6.66-.11-11.46-6.5-10.28-13.05l2.18-12.17.55.06c.39,1.1.87,2.14,1.45,3.15,5.8,10.2,19.17,12.51,30.03,13.57,10.38,1.01,20.91.63,31.32-.29l48.64-4.61Z" fill="#fff" stroke="#000" stroke-miterlimit="10"/><path d="M135.41,437.14c-2.17-1.18-9.1-4.93-15.36-1.5-5.09,2.79-7.87,9.32-6.84,16.28-3.79-.63-14.86-2.16-15.82-2.23-9.37-.75-19.66-.73-28.49,3-12.17,5.14-16.46,20.41-10.23,31.4,5.78,10.19,19.17,12.49,30.02,13.55,10.38,1.01,20.91.63,31.31-.28l48.63-4.6-1.69-30.23s11.89-7.67,4.51-18.61c-1.62-2.4-3.96-4.31-6.7-5.22-12.36-4.07-20.9,2.99-29.35-1.57Z" fill="#ff1f33" stroke="#000" stroke-miterlimit="10"/><path d="M113.21,451.92s15.96,5.16,19.82,22.02" fill="none" stroke="#000" stroke-miterlimit="10"/><path d="M92.55,449.67s21.66,6.07,24.47,26.87" fill="none" stroke="#000" stroke-miterlimit="10"/><circle cx="150.05" cy="473.63" r="9.55" transform="translate(-132.18 64.74) rotate(-17.04)" stroke="#000" stroke-miterlimit="10"/><path d="M371.62,349.43c23.52,43.55,41.78,89.58,62.71,134.37,6.94,14.87-15.16,27.91-22.15,12.95-20.92-44.79-39.19-90.82-62.71-134.37-7.84-14.53,14.29-27.49,22.15-12.95Z"/><path d="M380.76,491.94c-1.41,19.82,13.49,12.42,13.49,12.42,7.98,9.18,21.1,2.95,21.1,2.95,10.43,7.98,22.94,2.22,22.94,2.22,12.01,7.36,21.05-1.12,21.05-1.12,16.66,7.28,24.45-3.5,24.45-3.5,2.1.77,4.09,1.06,5.93,1.02,6.98-.11,12.02-6.82,10.78-13.69l-2.29-12.77-.58.06c-.41,1.15-.92,2.25-1.52,3.3-6.08,10.7-20.11,13.12-31.49,14.24-10.89,1.06-21.93.66-32.85-.31l-51.01-4.84Z" fill="#fff" stroke="#000" stroke-miterlimit="10"/><path d="M415.61,433.62c2.28-1.23,9.55-5.17,16.11-1.57,5.34,2.93,8.26,9.78,7.18,17.08,3.97-.67,15.59-2.26,16.59-2.34,9.83-.78,20.61-.77,29.88,3.15,12.76,5.39,17.26,21.41,10.73,32.93-6.06,10.69-20.1,13.1-31.48,14.21-10.89,1.06-21.93.66-32.84-.29l-51.01-4.82,1.78-31.7s-12.48-8.04-4.73-19.52c1.69-2.51,4.15-4.52,7.03-5.47,12.96-4.27,21.92,3.14,30.78-1.65Z" fill="#ff1f33" stroke="#000" stroke-miterlimit="10"/><path d="M438.9,449.12s-16.74,5.41-20.78,23.1" fill="none" stroke="#000" stroke-miterlimit="10"/><path d="M460.56,446.76s-22.72,6.37-25.66,28.18" fill="none" stroke="#000" stroke-miterlimit="10"/><path d="M390.75,468.72c-1.75,5.25,1.09,10.92,6.34,12.66,5.25,1.75,10.92-1.09,12.66-6.34,1.75-5.25-1.09-10.92-6.34-12.66-5.25-1.75-10.92,1.09-12.66,6.34Z" stroke="#000" stroke-miterlimit="10"/><path d="M452.36,71.9c-.94,2.08-1.51,4.35-2.48,6.4-1.56,3.27-.27,2.56-3.33,2.9-4.16.46-7.54-1.46-11.8.27-8.11,3.3-11,13.34-7.47,20.93,1.58,3.41,11.53,11.62,11.03,14.37-.85,4.7-15.06,3-18.75,5.33-7.53,4.75-7.59,14.93-4.81,22.4,1.46,3.92,4.81,8.44,5.07,12.67.34,5.56-4.67,2.99-8.64,3-11.42.02-15.97,9.87-14.04,20.04.62,3.3,1.85,6.49,2.22,9.84.32,2.95-.08,6.18-2.23,8.4-1.25,1.29-2.86,2.11-4.46,2.88-.83.4-3.68,1.28-3.7,2.45-.13,6.87-.47,19.22-.5,19.63,1.07-.17,2.33.07,3.41.09,6.32.16,10.62-4.66,14.09-9.34,3.66-4.93,6.68-10.48,7.27-16.68.3-3.18.08-6.39-.4-9.54-.55-3.61-4.95-12.92-1.35-14.34,1.67-.66,5.09.62,6.93.59,2.24-.04,4.41-.46,6.44-1.42,8.83-4.21,9.84-14.16,6.9-22.41-1.46-4.1-4.46-8.24-5.11-12.57-.71-4.69-.4-4.35,3.82-4.58,8.2-.46,15.96-2.21,19.85-10.43,3.53-7.46-.33-13.91-5.31-19.44-1.46-1.62-5.92-4.86-5.87-7.31.07-3.84,4.85-1.5,7.45-1.35,11.49.65,13.48-7.34,17.52-16.24,3.55-7.83-8.16-14.39-11.73-6.53Z"/><path d="M441.27,62.57s-16.25,7.4,4.3,17.18c20.55,9.78,30.72,11.46,24.91-2.46,0,0,19.39,6.6,33.06-45.47.71-2.69.99-6.1-1.09-7.93-2.92-2.57-9.91.95-20.83,19.11,0,0,17.88-32.55,7.88-35.75-1.9-.61-3.96.35-5.42,1.71-3,2.79-11.61,17.07-16.27,28.09,0,0,8.03-21.23,7.93-29.14-.1-7.91-5.73-12.13-12.67.66-1.79,3.3-3.31,6.75-4.61,10.27l-6.17,16.63s-1.81-20.46-10.87-19.16c-5.69.82-15.18,32.57-.14,46.25Z" fill="#fff" stroke="#000" stroke-miterlimit="10"/><line x1="461.21" y1="34.13" x2="487.78" y2="47.07" fill="none" stroke="#000" stroke-miterlimit="10"/><path d="M452.07,38.39s16.33,6.95,9.97,21.95" fill="none" stroke="#000" stroke-miterlimit="10"/><path d="M452.48,68.49c-1.58-.29-3.8-.87-6.2-2.15-2.01-1.07-3.52-2.29-4.58-3.28" fill="none" stroke="#000" stroke-miterlimit="10"/><line x1="463.24" y1="74.14" x2="470.48" y2="77.29" fill="none" stroke="#000" stroke-miterlimit="10"/><path d="M68.33,89.99c1.25,2.11,2.11,4.48,3.39,6.56,2.04,3.32.59,2.71,3.89,2.72,4.5.01,7.9-2.43,12.65-1.07,9.04,2.59,13.29,12.99,10.39,21.51-1.3,3.82-10.99,13.74-10.14,16.63,1.45,4.93,16.45,1.48,20.66,3.54,8.6,4.21,9.83,15.09,7.72,23.39-1.11,4.36-4.18,9.57-3.97,14.12.27,5.98,5.34,2.66,9.58,2.21,12.21-1.29,18.2,8.71,17.32,19.8-.29,3.6-1.23,7.15-1.24,10.77,0,3.19.8,6.6,3.35,8.72,1.49,1.23,3.31,1.93,5.1,2.57.93.33,4.08.95,4.24,2.19.93,7.33,2.72,20.49,2.8,20.92-1.16-.06-2.48.34-3.64.49-6.74.89-11.89-3.76-16.14-8.36-4.48-4.85-8.34-10.43-9.69-17-.69-3.36-.82-6.82-.67-10.25.17-3.92,3.8-14.38-.21-15.48-1.86-.51-5.37,1.25-7.34,1.43-2.4.22-4.77.02-7.05-.78-9.93-3.48-12.15-14.01-9.95-23.17,1.09-4.55,3.82-9.32,4.02-14.02.21-5.09-.07-4.69-4.61-4.46-8.82.45-17.32-.52-22.42-8.86-4.64-7.57-1.25-14.9,3.44-21.39,1.37-1.9,5.77-5.87,5.44-8.49-.52-4.1-5.36-1.04-8.12-.59-12.21,2.01-15.26-6.29-20.6-15.34-4.7-7.96,7.07-16.33,11.79-8.33Z"/><path d="M79.11,78.74s18.22,6.04-2.62,18.86c-20.84,12.82-31.52,15.78-26.92.24,0,0-19.97,9.29-40.57-44.8-1.06-2.79-1.76-6.4.25-8.6,2.82-3.08,10.71-.12,24.46,18.03,0,0-22.86-32.74-12.54-37.31,1.96-.87,4.27-.08,5.99,1.21,3.53,2.63,14.38,16.92,20.63,28.15,0,0-11.03-21.77-11.83-30.24-.8-8.46,4.73-13.62,13.62-.75,2.3,3.32,4.31,6.83,6.11,10.45l8.51,17.07s-.42-22.08,9.42-21.73c6.18.22,19.98,33.07,5.47,49.42Z" fill="#fff" stroke="#000" stroke-miterlimit="10"/><line x1="54.52" y1="50.63" x2="27.6" y2="67.53" fill="none" stroke="#000" stroke-miterlimit="10"/><path d="M64.78,54.14s-16.66,9.31-8.13,24.61" fill="none" stroke="#000" stroke-miterlimit="10"/><path d="M67.8,86.36c1.66-.49,3.96-1.37,6.38-3.01,2.02-1.37,3.5-2.85,4.52-4.03" fill="none" stroke="#000" stroke-miterlimit="10"/><line x1="56.95" y1="93.64" x2="49.57" y2="97.84" fill="none" stroke="#000" stroke-miterlimit="10"/><circle cx="288.7" cy="388.89" r="43.26" transform="translate(-143.53 607.42) rotate(-80.23)" fill="#ffd800" stroke="#000" stroke-miterlimit="10"/><path d="M443.85,320.22c-28.2,17.22-93.5,52.97-156.92,64.46-64.36,11.66-132.83,3.27-172.89-9.5,0,0-.3-24.61,2.13-60.54.69-10.28,1.62-21.47,2.83-33.29,9.86-96.39,39.16-233.77,126.07-243.44,82.53-9.16,138.52,98.71,169.51,183.76,4.93,13.46,9.21,26.36,12.88,38.13,10.96,35.28,16.38,60.41,16.38,60.41Z" fill="#ffd800" stroke="#000" stroke-miterlimit="10"/><path d="M443.85,320.22c-28.21,17.23-93.5,52.97-156.92,64.47-64.36,11.66-132.83,3.26-172.89-9.5,0,0-.16-13.34.72-34.72,40.81,11.25,104.27,17.76,164.17,6.91,62.45-11.31,126.73-46.15,155.6-63.66,6.23,22.19,9.32,36.5,9.32,36.5Z" fill="#ffe036" stroke="#000" stroke-miterlimit="10"/><circle cx="239.62" cy="23.88" r="23.07" transform="translate(77.42 201.87) rotate(-53.35)" fill="#ffd800" stroke="#000" stroke-miterlimit="10"/><circle cx="187.7" cy="252.09" r="40.73" fill="#ffb1df"/><circle cx="341.82" cy="234.38" r="39.23" fill="#ffb1df"/><circle cx="194.59" cy="186.51" r="48.16" transform="translate(-33.2 330.6) rotate(-76.1)" fill="#fff" stroke="#000" stroke-miterlimit="10"/><path d="M208.87,232.41c2.81-4.36-1.46-9.73.36-14.5,1.49-3.91,4.37-5.41,4-10.35-.3-3.97-3.15-7.06-4.72-10.6-3.09-6.97.57-8.28,2.65-14.99,1.33-4.28.5-7.07-1.64-11.09-2.48-4.66-3.3-4.47-1.21-9.14,1.25-2.79,3.81-5.37,4.18-8.62.53-4.66-1.94-9.51-5.97-11.37-6.6-3.04-13.47-3.11-21.51-1.29-7.74,1.75-6.77,8.6-6.65,10.99.17,3.27,2.57,6,3.64,8.86,1.81,4.79,1,4.55-1.76,9.05-2.38,3.88-3.38,6.61-2.31,10.96,1.67,6.82,5.25,8.35,1.74,15.12-1.78,3.43-4.81,6.34-5.36,10.29-.67,4.9,2.11,6.57,3.36,10.57,1.52,4.88-3.06,9.97-.53,14.5,3.65,1.24,8.55,2.49,14.42,2.92,7.13.52,13.11-.36,17.3-1.33Z" stroke="#000" stroke-miterlimit="10"/><line x1="154.23" y1="132" x2="166.73" y2="148.1" fill="none" stroke="#000" stroke-miterlimit="10"/><line x1="194.72" y1="121.97" x2="194.16" y2="140.74" fill="none" stroke="#000" stroke-miterlimit="10"/><line x1="234.14" y1="131.44" x2="223.13" y2="148.27" fill="none" stroke="#000" stroke-miterlimit="10"/><line x1="160.24" y1="220.89" x2="149.36" y2="232.58" fill="none" stroke="#000" stroke-miterlimit="10"/><line x1="184.44" y1="234.34" x2="182.39" y2="250.55" fill="none" stroke="#000" stroke-miterlimit="10"/><line x1="219.37" y1="227.81" x2="226.83" y2="241.86" fill="none" stroke="#000" stroke-miterlimit="10"/><path d="M374.36,153.33c10.74,24.33-.28,52.77-24.61,63.51-24.33,10.74-52.77-.28-63.51-24.61-10.74-24.33.28-52.77,24.61-63.51,24.33-10.74,52.77.28,63.51,24.61Z" fill="#fff" stroke="#000" stroke-miterlimit="10"/><path d="M358.08,212.01c1.32-5.02-4.4-8.8-4.15-13.9.2-4.18,2.48-6.5.6-11.07-1.51-3.69-5.19-5.74-7.77-8.62-5.1-5.68-2.02-8.05-2.11-15.07-.06-4.48-1.71-6.88-4.99-10.03-3.81-3.66-4.52-3.23-3.98-8.32.33-3.04,1.96-6.28,1.3-9.49-.94-4.59-4.79-8.45-9.19-8.97-7.22-.85-13.77,1.21-20.85,5.43-6.81,4.06-3.78,10.27-2.92,12.5,1.17,3.05,4.3,4.91,6.21,7.29,3.2,4,2.36,4.01,1.12,9.15-1.06,4.43-1.17,7.33,1.19,11.14,3.7,5.97,7.57,6.31,6.33,13.84-.63,3.81-2.62,7.52-1.91,11.44.88,4.87,4.04,5.6,6.46,9.01,2.95,4.17.17,10.43,3.98,13.95,3.85.05,8.9-.27,14.62-1.68,6.94-1.71,12.35-4.4,16.04-6.62Z" stroke="#000" stroke-miterlimit="10"/><line x1="275.05" y1="133.43" x2="291.92" y2="144.87" fill="none" stroke="#000" stroke-miterlimit="10"/><line x1="310.45" y1="111.36" x2="315.73" y2="129.39" fill="none" stroke="#000" stroke-miterlimit="10"/><line x1="350.87" y1="108.17" x2="345.61" y2="127.58" fill="none" stroke="#000" stroke-miterlimit="10"/><line x1="308.28" y1="216.1" x2="301.55" y2="230.58" fill="none" stroke="#000" stroke-miterlimit="10"/><line x1="335.45" y1="221.4" x2="338.52" y2="237.45" fill="none" stroke="#000" stroke-miterlimit="10"/><line x1="366.64" y1="204.39" x2="378.08" y2="215.44" fill="none" stroke="#000" stroke-miterlimit="10"/><path d="M289.75,221.17s11.86,64.81-14.14,67.4c-29.6,2.95-29.67-63.03-29.67-63.03,3.99,1.38,12.26,3.7,22.84,2.56,10.09-1.09,17.38-4.8,20.97-6.92Z" fill="#fff" stroke="#000" stroke-miterlimit="10"/><polyline points="276.77 226.58 279.92 255.89 283.09 285.43 283.09 285.45" fill="none" stroke="#000" stroke-miterlimit="10"/><polyline points="260.56 228.36 263.94 257.47 267.41 287.43" fill="none" stroke="#000" stroke-miterlimit="10"/><polyline points="292.42 254.63 279.92 255.89 263.94 257.47 249.85 258.87" fill="none" stroke="#000" stroke-miterlimit="10"/><path d="M242.08,123.62c-.77,2.15-19.4-3.29-36.08-8.15-16.67-4.86-35.43-10.33-34.92-12.57.49-2.16,19.11-1.68,37.45,3.68,18.35,5.35,34.3,14.96,33.55,17.04Z" stroke="#000" stroke-miterlimit="10"/><path d="M270.85,122c1.35,1.84,17.64-8.71,32.23-18.16,14.58-9.44,30.98-20.07,29.85-22.06-1.09-1.93-18.78,3.88-34.82,14.27-16.04,10.39-28.56,24.17-27.25,25.95Z" stroke="#000" stroke-miterlimit="10"/><path d="M268.49,186.31l.64,11.93s-19.35-.04-18.89,9.98c.46,10.03,22.18,4.42,22.18,4.42" fill="#ff9ed7" stroke="#000" stroke-miterlimit="10"/></svg>