<?xml version="1.0" encoding="UTF-8"?><svg id="Ebene_2" xmlns="http://www.w3.org/2000/svg" width="208.64" height="208" viewBox="0 0 208.64 208"><g id="OBJECTS"><rect x="137.64" y="94.27" width="7.8" height="92.62" fill="#007091"/><path d="M145.65,187.09h-8.21v-93.03h8.21v93.03ZM137.85,186.68h7.39v-92.21h-7.39v92.21Z"/><path d="M171.11,184.1h-61.91c-2.43,0-2.85,1.45-2.93,4.07v5.1c0,1.71,1.45,3.16,3.16,3.16s3.16-1.45,3.16-3.16v-2.84h57.14v3.08c0,4.07,6.33,4.08,6.33,0,0-2,1.26-9.4-4.95-9.4Z" fill="#007091"/><path d="M172.89,196.76h0c-1.67,0-3.37-1.12-3.37-3.26v-2.87h-56.73v2.64c0,1.82-1.54,3.37-3.37,3.37s-3.37-1.54-3.37-3.37v-5.1c.07-2.34.35-4.27,3.13-4.27h61.91c1.57,0,2.8.47,3.67,1.39,1.82,1.93,1.62,5.43,1.52,7.31-.02.36-.04.67-.04.91,0,2.24-1.74,3.26-3.37,3.26ZM112.38,190.22h57.54v3.28c0,1.96,1.54,2.85,2.96,2.85,1.42,0,2.96-.89,2.96-2.85,0-.24.02-.56.04-.93.1-1.82.3-5.21-1.41-7.01-.79-.84-1.93-1.26-3.38-1.26h-61.91c-2.22,0-2.65,1.25-2.73,3.87v5.09c0,1.6,1.36,2.96,2.96,2.96s2.96-1.35,2.96-2.96v-3.05Z"/><circle cx="108.52" cy="200.1" r="7.7"/><path d="M108.52,208c-4.36,0-7.9-3.54-7.9-7.9s3.54-7.9,7.9-7.9,7.9,3.54,7.9,7.9-3.54,7.9-7.9,7.9ZM108.52,192.61c-4.13,0-7.49,3.36-7.49,7.49s3.36,7.49,7.49,7.49,7.49-3.36,7.49-7.49-3.36-7.49-7.49-7.49Z"/><path d="M111.52,200.38c0,1.72-1.4,3.12-3.12,3.12s-3.12-1.39-3.12-3.12,1.4-3.12,3.12-3.12,3.12,1.4,3.12,3.12Z" fill="#fff"/><path d="M108.4,203.7c-1.83,0-3.32-1.49-3.32-3.32s1.49-3.32,3.32-3.32,3.32,1.49,3.32,3.32-1.49,3.32-3.32,3.32ZM108.4,197.47c-1.61,0-2.91,1.31-2.91,2.91s1.31,2.91,2.91,2.91,2.91-1.31,2.91-2.91-1.31-2.91-2.91-2.91Z"/><circle cx="172.8" cy="200.1" r="7.7"/><path d="M172.8,208c-4.36,0-7.9-3.54-7.9-7.9s3.54-7.9,7.9-7.9,7.9,3.54,7.9,7.9-3.54,7.9-7.9,7.9ZM172.8,192.61c-4.13,0-7.49,3.36-7.49,7.49s3.36,7.49,7.49,7.49,7.49-3.36,7.49-7.49-3.36-7.49-7.49-7.49Z"/><path d="M175.8,200.38c0,1.72-1.4,3.12-3.12,3.12s-3.12-1.39-3.12-3.12,1.4-3.12,3.12-3.12,3.12,1.4,3.12,3.12Z" fill="#fff"/><path d="M172.69,203.7c-1.83,0-3.32-1.49-3.32-3.32s1.49-3.32,3.32-3.32,3.32,1.49,3.32,3.32-1.49,3.32-3.32,3.32ZM172.69,197.47c-1.61,0-2.91,1.31-2.91,2.91s1.31,2.91,2.91,2.91,2.91-1.31,2.91-2.91-1.31-2.91-2.91-2.91Z"/><rect x="72.53" y=".2" width="135.9" height="109.3" fill="#007091"/><path d="M208.64,109.71H72.33V0h136.31v109.71ZM72.73,109.3h135.5V.41H72.73v108.89Z"/><rect x="78.46" y="6.93" width="121.79" height="95.17" rx="6.96" ry="6.96" fill="#fff"/><path d="M193.29,102.3h-107.87c-3.95,0-7.16-3.21-7.16-7.16V13.88c0-3.95,3.21-7.16,7.16-7.16h107.87c3.95,0,7.16,3.21,7.16,7.16v81.26c0,3.95-3.21,7.16-7.16,7.16ZM85.42,7.13c-3.72,0-6.75,3.03-6.75,6.75v81.26c0,3.72,3.03,6.75,6.75,6.75h107.87c3.72,0,6.75-3.03,6.75-6.75V13.88c0-3.72-3.03-6.75-6.75-6.75h-107.87Z"/><rect x="97.06" y="13.29" width="88.4" height="82.64" rx="5.23" ry="5.23"/><path d="M180.23,96.13h-77.94c-3,0-5.43-2.44-5.43-5.43V18.52c0-2.99,2.44-5.43,5.43-5.43h77.94c3,0,5.43,2.44,5.43,5.43v72.18c0,2.99-2.44,5.43-5.43,5.43ZM102.29,13.49c-2.77,0-5.03,2.25-5.03,5.02v72.18c0,2.77,2.25,5.02,5.03,5.02h77.94c2.77,0,5.03-2.25,5.03-5.02V18.52c0-2.77-2.25-5.02-5.03-5.02h-77.94Z"/><path d="M161.64,64.52c5.98-5.22,9.43-12.58,8.37-20.29-1.85-13.42-15.86-23.07-31.71-21.31-15.84,1.76-27.33,14.16-25.67,27.69.67,5.45,3.38,10.24,7.4,13.92-2.13,1.07-5.59,3.4-4.69,6.96,1.28,5.05,8.06,5.63,8.06,5.63,0,0,.52,8.06,18.3,7.21,17.78-.85,16.2-8.19,16.2-8.19,0,0,7.73-2.01,6.87-7.15-.35-2.1-1.69-3.52-3.14-4.47Z" fill="#fff"/><path d="M139.15,84.6c-14.17,0-15.75-6.15-15.92-7.29-1.06-.13-6.88-1.08-8.07-5.76-.9-3.55,2.33-5.91,4.53-7.06-4.1-3.83-6.6-8.61-7.25-13.85-.73-5.89,1.03-11.87,4.96-16.84,4.82-6.1,12.44-10.14,20.89-11.09,15.74-1.76,30.06,7.88,31.93,21.48,1.01,7.36-1.99,14.75-8.24,20.3,1.7,1.17,2.71,2.67,3.01,4.46.81,4.83-5.68,6.99-6.84,7.34.05.48.05,1.8-1.08,3.27-1.55,2.01-5.47,4.51-15.34,4.98-.9.04-1.76.06-2.58.06ZM141.98,22.92c-1.21,0-2.42.07-3.65.2-8.34.93-15.85,4.91-20.61,10.93-3.86,4.88-5.59,10.75-4.87,16.53.64,5.23,3.18,10,7.33,13.79l.22.2-.26.13c-2.08,1.05-5.45,3.31-4.58,6.73,1.23,4.85,7.81,5.47,7.88,5.47h.17s.01.19.01.19c0,.07.68,7.08,15.59,7.08.79,0,1.62-.02,2.5-.06,9.71-.46,13.54-2.88,15.03-4.82,1.27-1.66.98-3.11.98-3.12l-.04-.19.19-.05s1.93-.51,3.71-1.63c2.34-1.47,3.35-3.25,3.01-5.3-.29-1.75-1.32-3.2-3.05-4.33l-.23-.15.2-.18c6.28-5.48,9.31-12.81,8.3-20.11-1.69-12.32-13.81-21.33-27.83-21.33Z"/><polyline points="142.39 22.64 136.97 26.31 144.84 29.45 137.85 33.64 142.04 36.09" fill="#fff"/><path d="M142.04,36.29s-.07,0-.1-.03l-4.49-2.62,6.93-4.16-7.84-3.13,5.74-3.88c.09-.06.22-.04.28.05.06.09.04.22-.05.28l-5.1,3.45,7.89,3.15-7.05,4.23,3.9,2.27c.1.06.13.18.07.28-.04.06-.11.1-.18.1Z"/><ellipse cx="129.1" cy="50.2" rx="8.7" ry="13.78"/><path d="M129.1,64.18c-4.91,0-8.9-6.27-8.9-13.98s3.99-13.98,8.9-13.98,8.9,6.27,8.9,13.98-3.99,13.98-8.9,13.98ZM129.1,36.62c-4.68,0-8.49,6.09-8.49,13.58s3.81,13.58,8.49,13.58,8.49-6.09,8.49-13.58-3.81-13.58-8.49-13.58Z"/><ellipse cx="152.4" cy="50.2" rx="8.7" ry="13.78"/><path d="M152.4,64.18c-4.91,0-8.9-6.27-8.9-13.98s3.99-13.98,8.9-13.98,8.9,6.27,8.9,13.98-3.99,13.98-8.9,13.98ZM152.4,36.62c-4.68,0-8.49,6.09-8.49,13.58s3.81,13.58,8.49,13.58,8.49-6.09,8.49-13.58-3.81-13.58-8.49-13.58Z"/><path d="M138.06,62.15c.56.42,1.68-.19,2.8-1.35,1.17,1.12,2.29,1.65,2.85,1.24,1.04-.76.35-2.25-.75-4.18-.19-.34-1.69-2.36-2.21-2.86-.5.52-1.92,2.6-2.1,2.94-1.04,1.97-1.56,3.47-.59,4.2Z"/><path d="M138.49,62.49c-.21,0-.4-.06-.55-.17h0c-1.09-.82-.57-2.38.54-4.46.19-.36,1.61-2.44,2.13-2.99l.14-.15.15.14c.55.53,2.06,2.57,2.24,2.91,1.1,1.91,1.91,3.56.69,4.44-.61.45-1.71.03-2.97-1.12-.92.92-1.75,1.41-2.37,1.41ZM138.18,61.99c.43.32,1.47-.23,2.53-1.33l.14-.15.15.14c1.11,1.06,2.15,1.55,2.59,1.23.85-.62.37-1.85-.81-3.91-.16-.29-1.42-2-2.02-2.66-.57.68-1.76,2.43-1.92,2.74-1.2,2.25-1.38,3.39-.65,3.95h0Z"/><path d="M140.62,66.66c-3.41.07-6.05-1.6-9.19-1.58-1.76.01-3.47.38-3.55,2.32-.16,3.56,2.53,6.03,5.81,7.58,4.24,1.99,9.29,2.3,13.43.27,5.02-2.46,7.27-5.55,6.63-8.25-.45-1.9-1.97-2.24-3.73-2.2-3.14.08-6.27,1.8-9.39,1.86Z" fill="#fff"/><path d="M140.91,76.84c-2.44,0-4.95-.56-7.32-1.67-2.8-1.32-6.1-3.73-5.92-7.77.1-2.23,2.19-2.5,3.75-2.52.02,0,.05,0,.07,0,1.52,0,2.95.39,4.33.77,1.5.41,3.06.84,4.78.8h0c1.54-.03,3.12-.49,4.65-.92,1.55-.44,3.15-.9,4.75-.94,1.56-.04,3.42.2,3.93,2.36.69,2.9-1.83,6.07-6.74,8.48-1.91.94-4.07,1.4-6.29,1.4ZM131.5,65.29s-.05,0-.07,0c-2.25.02-3.29.67-3.35,2.13-.17,3.81,3,6.12,5.69,7.38,4.41,2.08,9.37,2.18,13.26.27,4.72-2.32,7.16-5.31,6.52-8.02-.36-1.5-1.37-2.1-3.52-2.05-1.54.04-3.12.49-4.64.93-1.55.44-3.16.9-4.75.94h0c-1.8.04-3.37-.4-4.9-.82-1.42-.39-2.76-.76-4.22-.76Z"/><line x1="134.05" y1="65.4" x2="133.97" y2="75.1" fill="#007091"/><path d="M133.97,75.31h0c-.11,0-.2-.09-.2-.21l.08-9.7c0-.11.09-.2.2-.2h0c.11,0,.2.09.2.21l-.08,9.7c0,.11-.09.2-.2.2Z"/><line x1="146.64" y1="65.4" x2="146.9" y2="75.32" fill="#007091"/><path d="M146.9,75.53c-.11,0-.2-.09-.2-.2l-.26-9.92c0-.11.09-.21.2-.21.11,0,.21.09.21.2l.26,9.92c0,.11-.09.21-.2.21h0Z"/><line x1="140.54" y1="66.62" x2="140.62" y2="76.67" fill="#007091"/><path d="M140.62,76.87c-.11,0-.2-.09-.2-.2l-.08-10.04c0-.11.09-.2.2-.21h0c.11,0,.2.09.2.2l.08,10.04c0,.11-.09.2-.2.21h0Z"/><path d="M43.22,147.36l.26,51.63s-16.18-.8-17.05,8.72h27.51s.93-60.02.93-60.02c0,0-11.65-.34-11.64-.34Z"/><path d="M26.2,207.92l.02-.22c.82-9.01,15.12-8.97,17.05-8.92l-.26-51.42h.2s.01-.2.01-.2c.16,0,11.52.34,11.63.34h.2s0,.21,0,.21l-.93,60.2h-27.93ZM42.66,199.19c-3.24,0-15.07.54-16,8.33h27.08s.92-59.62.92-59.62l-9.62-.28c-.84-.02-1.33-.04-1.61-.06l.26,51.65h-.21s-.32-.02-.81-.02ZM43.22,147.36h0,0Z"/><path d="M80.91,147.36l-.26,51.63s16.18-.8,17.05,8.72h-27.51s-.93-60.02-.93-60.02c0,0,11.65-.34,11.64-.34Z"/><path d="M97.93,207.92h-27.93s0-.21,0-.21l-.93-60.2h.2c.11,0,11.47-.34,11.63-.35v.19s.22.01.22.01l-.26,51.42c1.93-.05,16.23-.09,17.05,8.92l.02.22ZM70.4,207.5h27.08c-1.07-8.98-16.66-8.31-16.82-8.3h-.21s.26-51.64.26-51.64c-.28.02-.77.04-1.61.06l-9.62.28.92,59.6Z"/><ellipse cx="18.2" cy="45.06" rx="13.86" ry="16.58" transform="translate(-15.73 10.27) rotate(-22.29)" fill="#c07169"/><path d="M20.01,61.48c-6.08,0-12.22-4.44-14.94-11.39-1.81-4.64-1.81-9.66.02-13.79,1.44-3.25,3.93-5.69,7.01-6.87,7.24-2.77,15.88,1.98,19.24,10.6,1.81,4.64,1.81,9.66-.02,13.79-1.44,3.25-3.93,5.69-7.01,6.87-1.4.54-2.85.79-4.3.79ZM16.41,29.04c-1.41,0-2.81.25-4.16.76-2.98,1.14-5.39,3.5-6.78,6.66-1.78,4.03-1.79,8.94-.01,13.48,3.29,8.41,11.68,13.06,18.72,10.37,2.98-1.14,5.39-3.5,6.78-6.66,1.78-4.03,1.79-8.94.01-13.48-2.66-6.79-8.64-11.13-14.56-11.13Z"/><ellipse cx="98.75" cy="43.38" rx="16.62" ry="13.83" transform="translate(4.44 95.72) rotate(-52.74)" fill="#c07169"/><path d="M96.12,59.23c-2.6,0-5.1-.72-7.24-2.24-2.68-1.9-4.46-4.87-5.04-8.36-.73-4.46.53-9.33,3.47-13.38,5.45-7.51,15.01-9.97,21.32-5.48,2.68,1.9,4.46,4.87,5.04,8.36.73,4.46-.53,9.33-3.47,13.38-3.6,4.96-9.01,7.72-14.08,7.72ZM101.39,27.93c-4.94,0-10.22,2.7-13.75,7.56h0c-2.88,3.96-4.12,8.73-3.4,13.08.56,3.38,2.29,6.26,4.87,8.1,6.13,4.35,15.44,1.94,20.75-5.39,2.88-3.96,4.12-8.73,3.4-13.08-.56-3.38-2.29-6.26-4.87-8.1-2.07-1.47-4.49-2.16-7.01-2.16ZM87.48,35.36h0,0Z"/><path d="M26.75,41.4c2.6,5.85,1.15,12.17-3.24,14.12-4.39,1.95-10.06-1.21-12.65-7.06-2.6-5.85-1.15-12.17,3.24-14.12,4.39-1.95,10.06,1.21,12.65,7.06Z" fill="#ffc22f"/><path d="M20.75,56.3c-1.42,0-2.89-.41-4.34-1.21-2.43-1.36-4.47-3.68-5.74-6.55-1.28-2.87-1.63-5.94-1.01-8.65.63-2.73,2.17-4.77,4.36-5.74,4.48-1.99,10.28,1.22,12.92,7.17h0c1.28,2.87,1.63,5.94,1.01,8.65-.63,2.73-2.17,4.77-4.36,5.74-.9.4-1.86.6-2.84.6ZM16.85,33.96c-.92,0-1.82.18-2.67.56-4.28,1.9-5.69,8.11-3.14,13.85,1.24,2.79,3.22,5.05,5.57,6.36,2.33,1.3,4.75,1.51,6.82.6,2.06-.92,3.53-2.85,4.13-5.46.6-2.62.25-5.61-.99-8.4h0c-2.04-4.6-6.02-7.52-9.72-7.52Z"/><path d="M91.76,37.36c4.24-4.79,10.6-6.1,14.2-2.92,3.6,3.18,3.07,9.65-1.17,14.44-4.24,4.79-10.6,6.1-14.2,2.92-3.6-3.18-3.07-9.65,1.17-14.44Z" fill="#ffc22f"/><path d="M95.46,53.74c-1.89,0-3.64-.58-5-1.78-1.79-1.58-2.65-3.99-2.42-6.79.23-2.77,1.5-5.59,3.58-7.94,2.08-2.35,4.73-3.95,7.45-4.51,2.75-.56,5.24,0,7.03,1.58,1.79,1.58,2.65,3.99,2.42,6.79-.23,2.77-1.5,5.59-3.58,7.94-2.71,3.06-6.29,4.72-9.48,4.72ZM101.1,32.91c-.63,0-1.28.07-1.95.21-2.64.54-5.21,2.1-7.23,4.38-2.02,2.29-3.26,5.02-3.48,7.71-.22,2.66.6,4.95,2.29,6.45,3.51,3.1,9.75,1.8,13.91-2.9,2.02-2.29,3.26-5.02,3.48-7.71.22-2.66-.6-4.95-2.29-6.45-1.26-1.11-2.9-1.69-4.73-1.69Z"/><path d="M104.97,84.66c0,31.47-19.96,62.04-45.47,62.04S12.62,116.13,12.62,84.66,33.29,27.68,58.8,27.68s46.18,25.51,46.18,56.98Z" fill="#c07169"/><path d="M59.51,146.9c-12.04,0-24.13-7.03-33.17-19.3-8.85-12-13.92-27.65-13.92-42.94,0-31.53,20.81-57.19,46.38-57.19s46.38,25.65,46.38,57.19c0,15.41-4.81,31.06-13.21,42.94-8.8,12.45-20.32,19.3-32.46,19.3ZM58.8,27.88c-25.35,0-45.97,25.47-45.97,56.78,0,15.21,5.04,30.77,13.84,42.7,8.97,12.16,20.94,19.14,32.84,19.14s23.41-6.79,32.13-19.13c8.35-11.81,13.13-27.38,13.13-42.7,0-31.31-20.62-56.78-45.97-56.78Z"/><polygon points="50.67 130.19 72.82 130.04 61.13 154.09 50.67 130.19" fill="#00c3fc"/><path d="M61.12,154.58l-10.76-24.58,22.79-.16-12.03,24.74ZM50.98,130.4l10.16,23.21,11.35-23.36-21.51.15Z"/><polygon points="52.84 128.28 61.73 146.11 70.15 128.28 102.1 104.47 103.71 176.48 18.31 177.33 15.19 103.9 52.84 128.28" fill="#fff"/><path d="M18.12,177.53l-3.15-74.02,38.03,24.63.02.05,8.7,17.45,8.27-17.49.04-.03,32.27-24.05v.4s1.62,72.21,1.62,72.21h-.21s-85.59.85-85.59.85ZM15.41,104.28l3.1,72.84,84.99-.85-1.59-71.41-31.59,23.54-8.58,18.16-9.05-18.15-37.27-24.14Z"/><polygon points="15.13 103.84 15.41 107.64 33.24 130.43 45.06 131.99 35.91 139.74 61.62 161.95 61.73 146.11 52.88 128.3 15.13 103.84" fill="#fff"/><path d="M61.82,162.39l-26.22-22.65,8.98-7.61-11.44-1.51-17.93-22.9-.32-4.27,38.15,24.71.02.05,8.87,17.86-.12,16.32ZM36.23,139.74l25.19,21.76.11-15.35-8.8-17.72-37.36-24.2.25,3.33,17.75,22.68,12.19,1.61-9.31,7.89Z"/><polygon points="102.12 104.55 102.06 108.28 90.21 130.37 78.4 131.93 87.54 139.68 61.64 161.93 61.73 146.05 70.1 128.26 102.12 104.55" fill="#fff"/><path d="M61.43,162.37l.11-16.41,8.39-17.84.04-.03,32.36-23.95-.07,4.19-.02.04-11.9,22.18h-.1s-11.36,1.51-11.36,1.51l8.98,7.61-26.43,22.7ZM61.93,146.09l-.09,15.39,25.39-21.8-9.31-7.89,12.17-1.61,11.77-21.95.05-3.27-31.65,23.43-8.33,17.71Z"/><path d="M61.61,176.93h0c-.11,0-.2-.09-.2-.2l.05-30.81c0-.11.09-.2.2-.2h0c.11,0,.2.09.2.2l-.05,30.81c0,.11-.09.2-.2.2Z"/><path d="M132.31,113.08c-2.16,5.92-4.29,11.88-7.1,17.53-2.16,4.36-4.96,9.81-10.13,11.02-5.6,1.31-9.64-3.26-12.31-7.74l-.52-23.46c.35.41.64.92.83,1.52,1.46,4.61,2.77,9.34,4.83,13.74.95,2.05,2.01,4.17,3.4,5.96.43.56,1.12,1.5,1.76,1.8.04.02.07.03.08.05.03-.01.07-.03.12-.04,1.02-.3,1.96-2.05,2.52-2.97,1.25-2.09,2.34-4.28,3.34-6.49,1.95-4.28,3.51-8.72,5.11-13.14.78-2.13,2.82-3.56,5.15-2.92,2.06.56,3.7,3.02,2.93,5.15Z" fill="#fff"/><path d="M113.16,142.06c-3.83,0-7.37-2.7-10.57-8.07l-.03-.05-.54-24.09.37.43c.38.45.67.98.87,1.59.27.84.53,1.69.79,2.54,1.16,3.73,2.35,7.59,4.02,11.17.89,1.91,1.96,4.1,3.38,5.92l.1.13c.41.54,1.03,1.35,1.59,1.61,0,0,.01,0,.02,0,0,0,.01,0,.02,0,.86-.25,1.72-1.71,2.24-2.59l.18-.3c1.1-1.85,2.16-3.9,3.33-6.47,1.71-3.76,3.15-7.71,4.53-11.53l.58-1.59c.89-2.43,3.1-3.68,5.39-3.05,1.15.32,2.2,1.19,2.79,2.35.52,1.02.62,2.11.27,3.07l-.31.84c-2.03,5.56-4.12,11.31-6.8,16.71-2.06,4.16-4.89,9.87-10.27,11.12-.66.15-1.32.23-1.97.23ZM102.96,133.83c3.63,6.07,7.69,8.62,12.06,7.6,5.19-1.21,7.97-6.82,10-10.91,2.67-5.38,4.76-11.12,6.78-16.67l.31-.84c.31-.85.22-1.83-.25-2.74-.54-1.04-1.51-1.86-2.54-2.14-2.07-.57-4.09.58-4.9,2.8l-.58,1.59c-1.39,3.83-2.82,7.79-4.54,11.56-1.18,2.58-2.24,4.65-3.35,6.51l-.18.3c-.58.99-1.46,2.47-2.46,2.76-.04.01-.07.02-.09.03l-.13.06-.1-.1c-.67-.31-1.3-1.14-1.76-1.74l-.1-.13c-1.44-1.86-2.53-4.07-3.43-6-1.68-3.61-2.88-7.48-4.04-11.22-.26-.85-.52-1.69-.79-2.54-.11-.34-.25-.65-.42-.93l.51,22.75ZM132.31,113.08h0,0Z"/><path d="M132.46,102.62s4.14-11.5-.39-12.03c-3.88-.45-5.33,10.96-5.33,10.96,0,0-8.79.16-3.9,10.42.07.15-1.63-.17-2.19,1.86-.86,3.12,7.12,5.83,9.48,6.02,3.52.28,3.81-2.92,2.21-3.46h.32s6.22.14,6.11-7.3c0,0,3.47-3.73-1.1-4.53.08-.37.24-1.29-.19-2.3-.09-.21-.84-1.89-2.48-2.09-1.31-.16-1.95,1.04-2.55,2.47Z" fill="#fff"/><path d="M130.56,120.07c-.14,0-.29,0-.44-.02-2-.16-7.57-1.97-9.24-4.35-.45-.65-.59-1.29-.42-1.93.45-1.62,1.59-1.86,2.1-1.93-1.6-3.45-1.83-6.13-.68-7.99,1.31-2.12,3.97-2.44,4.68-2.49.21-1.49,1.72-11.41,5.54-10.97.74.09,1.31.44,1.69,1.07,1.28,2.06.26,6.59-.5,9.23.44-.52.99-.83,1.75-.74,1.71.21,2.5,1.88,2.64,2.22.37.87.33,1.7.24,2.22,1.24.25,1.99.76,2.24,1.51.45,1.33-.87,2.93-1.17,3.26.02,2.45-.63,4.34-1.94,5.64-1.45,1.43-3.27,1.72-4.03,1.77.38.39.55.99.43,1.61-.18.9-1.05,1.88-2.88,1.88ZM131.84,90.78c-3.49,0-4.89,10.68-4.91,10.79l-.02.17h-.18s-3.15.09-4.52,2.31c-1.09,1.77-.82,4.4.81,7.82l.04.09-.05.11c-.06.11-.17.13-.34.15-.43.06-1.44.2-1.84,1.65-.14.51-.02,1.04.36,1.58,1.58,2.25,7.05,4.03,8.94,4.18,1.87.14,2.73-.74,2.89-1.54.14-.69-.18-1.33-.76-1.53l-1.14-.39h1.53s2.38.02,4.1-1.68c1.24-1.23,1.85-3.06,1.82-5.42v-.08s.05-.06.05-.06c.02-.02,1.55-1.69,1.14-2.92-.21-.64-.93-1.06-2.13-1.28l-.21-.04.05-.21c.1-.43.21-1.28-.17-2.17-.13-.3-.83-1.79-2.32-1.97-1.08-.13-1.68.76-2.34,2.34l-.38-.15c.03-.08,2.89-8.11,1.17-10.88-.32-.52-.78-.81-1.39-.88-.07,0-.13-.01-.2-.01Z"/><path d="M139.54,103.13c-2.43-1.23-5.55,4.93-3.51,6.23.04.03.08.06.12.09,2.7,1.87,5.59-3.61,4.1-5.69-.21-.3-.46-.5-.72-.63Z" fill="#fff"/><path d="M137.3,110.04c-.43,0-.86-.14-1.27-.42-.02-.02-.04-.03-.07-.05-.02-.01-.03-.03-.05-.04-1.19-.76-.85-2.84.11-4.51.8-1.4,2.22-2.78,3.6-2.07.31.16.57.39.79.69.99,1.39.18,4.08-1.18,5.46-.61.62-1.28.94-1.94.94ZM138.87,103.17c-.91,0-1.86.95-2.49,2.05-.85,1.49-1.17,3.37-.24,3.96.03.02.06.04.09.06l.04.03c1.14.79,2.17.05,2.68-.47,1.23-1.24,2.01-3.72,1.14-4.94-.18-.25-.39-.44-.64-.57h0c-.19-.1-.38-.14-.57-.14Z"/><path d="M132.56,116.38s-1.16.07-3.29-.59" fill="#fff"/><path d="M132.46,116.59c-.35,0-1.46-.05-3.24-.6-.11-.03-.17-.15-.13-.25.03-.11.15-.17.25-.13,2.06.64,3.21.58,3.22.58.11,0,.21.08.21.19,0,.11-.08.21-.19.21,0,0-.05,0-.12,0Z"/><path d="M125.54,114.4s-1.69-.91-2.73-2.49" fill="#fff"/><path d="M125.54,114.61s-.07,0-.1-.02c-.07-.04-1.75-.96-2.8-2.56-.06-.09-.04-.22.06-.28.09-.06.22-.04.28.06,1,1.52,2.64,2.42,2.66,2.43.1.05.14.18.08.28-.04.07-.11.11-.18.11Z"/><path d="M135.28,107.29c.96-.52,1.54-1.57,2.03-2.52.54-1.06,1.08-2.19,1.08-3.41,0-1.43-1.19-2.68-2.69-2.41-1.84.34-2.88,2.69-3.44,4.25-.34.95-.6,2.09-.24,3.07.44,1.18,1.74,1.58,2.88,1.18.13-.05.26-.1.38-.17Z" fill="#fff"/><path d="M134.02,107.82c-.98,0-1.85-.55-2.19-1.47-.42-1.11-.06-2.36.24-3.21.96-2.68,2.13-4.11,3.59-4.38.72-.13,1.41.05,1.97.51.6.5.96,1.29.96,2.09,0,1.25-.52,2.37-1.1,3.5-.52,1.02-1.12,2.07-2.11,2.6h0c-.13.07-.27.13-.41.18-.32.11-.64.16-.94.16ZM136.1,99.13c-.12,0-.25.01-.38.03-1.31.24-2.38,1.59-3.28,4.12-.44,1.24-.52,2.17-.24,2.93.43,1.14,1.67,1.4,2.62,1.06.12-.04.24-.1.36-.16.89-.48,1.45-1.46,1.94-2.43.56-1.09,1.05-2.16,1.06-3.31,0-.69-.31-1.36-.82-1.78-.36-.3-.8-.46-1.26-.46ZM135.28,107.29h0,0Z"/><path d="M126.74,101.55c1.02.06,2.04.21,3.04.43,2.03.45,7.29,1.8,6.88,4.49-.4,2.64-6.29,1.47-9.04.88,0,0,3.72,1.19,2.42,5.35" fill="#fff"/><path d="M130.04,112.9s-.04,0-.06,0c-.11-.03-.17-.15-.13-.26,1.23-3.92-2.14-5.05-2.29-5.1l.11-.39c1.78.38,6.5,1.4,8.2.22.34-.24.54-.54.6-.93.36-2.34-4.06-3.67-6.72-4.26-1.03-.23-2.04-.37-3.01-.42-.11,0-.2-.1-.19-.21,0-.11.1-.2.22-.19.99.06,2.02.2,3.07.43,3.42.75,7.43,2.19,7.04,4.72-.08.5-.33.91-.77,1.21-1.42.98-4.42.65-7.21.11,1.02.76,2.19,2.27,1.35,4.94-.03.09-.11.14-.19.14Z"/><path d="M46.2,133.48c-6.02,4.18-12.38,7.85-19.06,10.87-3.03,1.38-6.49,3.07-10.05,4.26-3.68,1.24-7.48,1.95-11.05,1.23-9.48-1.91-5.19-13.98-2.55-19.87,3.1-6.92,7.54-13.14,11.07-19.84.24-.46.53-.83.84-1.13l.65,15.33c-.96,1.62-1.91,3.25-2.82,4.9-1.21,2.2-5.19,8.87-3.98,11.46.91,1.95,4.13.18,5.62-.34.62-.22,1.23-.44,1.83-.67,2.45-.92,4.87-1.93,7.24-3.03,6.3-2.93,12.31-6.44,18.02-10.4,1.87-1.29,4.65-.33,5.73,1.5,1.21,2.06.35,4.44-1.5,5.72Z" fill="#fff"/><path d="M9.03,150.34c-1.06,0-2.06-.1-3.02-.29-2.43-.49-4.15-1.68-5.1-3.53-2.23-4.32.08-11.42,2.41-16.62,1.85-4.12,4.21-8.06,6.49-11.87,1.55-2.59,3.15-5.27,4.58-7.98.24-.46.54-.86.88-1.19l.33-.31.67,15.84-.03.05c-1.13,1.9-2.02,3.45-2.82,4.9-.09.17-.21.37-.33.59-1.41,2.51-4.71,8.39-3.64,10.69.68,1.46,2.9.55,4.51-.11.32-.13.61-.25.86-.34.61-.22,1.22-.43,1.83-.66,2.43-.91,4.86-1.93,7.23-3.03,6.07-2.82,12.12-6.32,17.99-10.38.85-.59,1.93-.77,3.04-.53,1.26.28,2.37,1.06,2.98,2.09,1.19,2.02.53,4.55-1.56,5.99h0c-6.2,4.3-12.63,7.97-19.09,10.89-.55.25-1.1.51-1.68.77-2.56,1.18-5.46,2.52-8.39,3.5-3.03,1.02-5.71,1.53-8.13,1.53ZM15.22,109.5c-.18.22-.34.46-.48.73-1.43,2.72-3.04,5.4-4.59,8-2.28,3.8-4.63,7.73-6.47,11.83-2.29,5.11-4.57,12.09-2.42,16.26.9,1.74,2.52,2.86,4.82,3.32,3.08.62,6.66.22,10.94-1.22,2.91-.97,5.8-2.31,8.35-3.48.57-.26,1.13-.52,1.68-.77,6.44-2.92,12.84-6.57,19.02-10.86h0c1.64-1.14,2.66-3.37,1.44-5.45-.54-.92-1.58-1.65-2.71-1.9-1-.22-1.97-.06-2.72.46-5.89,4.08-11.96,7.58-18.05,10.42-2.38,1.11-4.82,2.13-7.26,3.04-.61.23-1.22.45-1.84.67-.24.08-.52.2-.84.33-1.67.69-4.19,1.72-5.04-.09-1.16-2.48,2.09-8.27,3.66-11.06.12-.22.24-.42.33-.59.79-1.43,1.68-2.98,2.79-4.86l-.63-14.78Z"/><path d="M33.13,128.71c.38-.25.05-1.32-.06-1.78-.74-2.97.86-6.28,2.17-7.94.53-.67,2.23-2.98,3.81-3,3.37-.06,1.62,5.56,1.13,7.34.71-.46.89-.57,1.07-.69.35-.23.7-.46,1.05-.7.62-.43,1.22-.87,1.81-1.34,1.38-1.09,2.64-2.33,4.04-3.41.94-.72,2.37-1.84,3.64-1.38.85.31,1.12,1.34,1.27,2.13,0,.02,0,.04.01.06,0,0,3.58-.17,2.37,3.88.39.05.85.06,1.15.35,1.08,1.06.24,3.53-.2,4.69-1.11,2.95-3.06,6.03-5.32,8.26-1.87,1.85-4.24,2.97-6.86,3.21-.51.05-1.02.06-1.53.06-.43,0-1.28-.25-1.67-.11,0,0,0,.61,0,.65-.04.5-.16,1.01-.41,1.46-.57,1.04-1.72,1.72-2.91,1.45-1.8-.41-2.86-2.09-3.82-3.51-1.15-1.71-2.45-3.3-3.69-4.95-3.73-4.95,1.05-5.18,1.8-5,1.11.27.96.42,1.16.28Z" fill="#fff"/><path d="M38.19,142.15c-.19,0-.37-.02-.56-.06-1.8-.41-2.88-2.01-3.82-3.42l-.12-.17c-.8-1.2-1.7-2.36-2.57-3.49-.37-.48-.75-.97-1.12-1.46-1.4-1.86-1.79-3.29-1.15-4.26.76-1.16,2.73-1.16,3.16-1.06.56.13.81.24.94.3.02,0,.03.01.05.02,0,0,0,0,.01,0h0c.22-.15-.03-1.1-.11-1.42l-.04-.15c-.8-3.19,1.01-6.6,2.2-8.11l.1-.13c.68-.87,2.28-2.92,3.86-2.95.74-.02,1.3.23,1.68.72,1.11,1.43.27,4.64-.2,6.36.15-.1.27-.17.36-.23l.26-.17c.35-.23.7-.46,1.04-.7.61-.43,1.22-.87,1.8-1.33.65-.51,1.28-1.07,1.9-1.61.69-.61,1.4-1.23,2.14-1.8,1-.77,2.47-1.9,3.83-1.41.88.32,1.2,1.27,1.38,2.18.43.01,1.51.14,2.16.97.54.69.64,1.67.3,2.94.35.04.74.1,1.03.38.83.82.78,2.43-.15,4.91-1.15,3.03-3.15,6.15-5.36,8.33-1.91,1.89-4.33,3.02-6.99,3.27-.49.05-1.02.07-1.56.06-.17,0-.38-.03-.61-.07-.29-.04-.63-.1-.86-.08,0,.07,0,.15,0,.23,0,.13,0,.25,0,.27-.04.58-.19,1.1-.43,1.54-.55,1-1.55,1.62-2.58,1.62ZM31.51,128.59c-.68,0-1.83.2-2.31.92-.52.8-.13,2.11,1.14,3.79.37.49.74.97,1.11,1.45.87,1.13,1.77,2.3,2.59,3.51l.12.17c.9,1.35,1.93,2.88,3.57,3.25,1.02.23,2.13-.32,2.69-1.35.21-.39.34-.85.38-1.37,0-.02,0-.12,0-.24q0-.54.13-.59c.3-.11.76-.04,1.19.03.21.03.41.06.55.07.52,0,1.03-.01,1.51-.06,2.56-.24,4.89-1.33,6.74-3.15,2.17-2.15,4.14-5.21,5.27-8.19.86-2.28.95-3.79.25-4.48-.2-.2-.51-.23-.84-.27-.07,0-.13-.02-.2-.02l-.24-.03.07-.23c.37-1.24.32-2.18-.17-2.8-.67-.86-1.99-.81-2-.81h-.18s-.05-.23-.05-.23c-.16-.83-.42-1.72-1.14-1.98-1.15-.42-2.52.63-3.42,1.33-.76.59-1.46,1.21-2.15,1.81-.62.54-1.26,1.1-1.91,1.62-.59.46-1.2.92-1.82,1.35-.35.24-.7.48-1.05.71l-.27.17c-.16.1-.39.25-.8.52l-.45.29.22-.81c.41-1.46,1.37-4.89.33-6.22-.3-.39-.74-.58-1.35-.56-1.38.02-2.95,2.04-3.54,2.79l-.1.13c-1.15,1.45-2.89,4.72-2.13,7.76l.04.14c.2.78.37,1.57-.06,1.86h0c-.18.12-.27.1-.45.03-.12-.05-.36-.15-.88-.28-.09-.02-.24-.04-.42-.04ZM33.13,128.71h0,0Z"/><path d="M44.89,126.49c-.06,0-.13-.03-.17-.09-.06-.09-.04-.22.05-.28.06-.04,5.89-4.11,8.11-8.22.05-.1.18-.14.28-.08.1.05.14.18.08.28-2.27,4.19-8.18,8.32-8.24,8.36-.04.02-.08.04-.12.04Z"/><path d="M48.15,130.7c-.06,0-.12-.03-.16-.08-.07-.09-.05-.22.04-.29,3.33-2.52,7.34-8.53,7.38-8.59.06-.09.19-.12.28-.06.09.06.12.19.06.28-.04.06-4.09,6.13-7.48,8.69-.04.03-.08.04-.12.04Z"/><path d="M34.7,130.65c-.06,0-.12-.03-.16-.08l-1.44-1.87c-.07-.09-.05-.22.04-.29.09-.07.22-.05.29.04l1.44,1.88c.07.09.05.22-.04.29-.04.03-.08.04-.12.04Z"/><path d="M40.95,138.55c-.07,0-.13-.03-.17-.09l-1.17-1.78c-.06-.09-.04-.22.06-.28.09-.06.22-.04.28.06l1.17,1.78c.06.09.04.22-.06.28-.03.02-.07.03-.11.03Z"/><path d="M54.9,66.54c.03,9.13-2.84,17.03-7.02,20.75-1.63,1.45-3.46,2.26-5.4,2.27-6.91.03-12.54-10.24-12.59-22.93-.05-12.69,5.51-23,12.42-23.02,1.84,0,3.58.71,5.15,2.01,4.35,3.59,7.4,11.6,7.44,20.93Z" fill="#fff"/><path d="M42.45,89.77c-7,0-12.72-10.37-12.77-23.14-.02-6.17,1.27-11.98,3.63-16.36,2.38-4.42,5.58-6.86,9-6.87h.03c1.84,0,3.6.69,5.26,2.05,4.53,3.74,7.48,12.01,7.51,21.08h0c.03,8.98-2.68,16.99-7.09,20.91-1.73,1.53-3.59,2.31-5.54,2.32h-.03ZM42.34,43.81h-.03c-3.26.01-6.33,2.38-8.64,6.66-2.33,4.32-3.6,10.06-3.58,16.16.05,12.54,5.59,22.73,12.36,22.73h.02c1.84,0,3.62-.75,5.27-2.22,4.25-3.79,6.98-11.87,6.95-20.6h0c-.03-8.95-2.92-17.11-7.36-20.77-1.58-1.3-3.26-1.96-5-1.96Z"/><path d="M47.46,45.62c-6.52.74-11.64,9.81-11.59,20.87,0,.36,0,.72.02,1.08l10.47.52-9.86,4.81c1.6,8.1,6.07,14.03,11.39,14.4,4.18-3.72,7.05-11.62,7.02-20.75-.03-9.32-3.09-17.34-7.44-20.93Z"/><path d="M47.95,87.51h-.09c-5.28-.38-9.93-6.23-11.57-14.57l-.03-.15,9.29-4.53-9.86-.49v-.19c-.02-.36-.03-.72-.03-1.09-.04-11.06,5.13-20.31,11.78-21.07h.09s.07.05.07.05c4.53,3.74,7.48,12.01,7.51,21.08.03,8.98-2.68,16.99-7.09,20.91l-.06.06ZM36.73,73.01c1.62,8.03,6.06,13.66,11.08,14.08,4.22-3.81,6.92-11.86,6.89-20.54-.03-8.91-2.89-17.02-7.3-20.71-6.4.8-11.37,9.85-11.33,20.65,0,.3,0,.59.01.89l11.07.55-10.43,5.09Z"/><path d="M90.06,66.38c.03,9.13-2.84,17.03-7.02,20.75-1.63,1.45-3.46,2.26-5.4,2.27-6.91.03-12.54-10.24-12.59-22.93s5.51-23,12.42-23.02c1.84,0,3.58.71,5.15,2.01,4.35,3.59,7.4,11.6,7.44,20.93Z" fill="#fff"/><path d="M77.61,89.6c-7,0-12.72-10.37-12.77-23.14-.02-6.17,1.27-11.98,3.63-16.36,2.38-4.42,5.58-6.86,9-6.87,1.86,0,3.62.68,5.28,2.05,4.53,3.74,7.48,12.01,7.51,21.08.03,8.84-2.75,17.05-7.09,20.91-1.73,1.53-3.59,2.31-5.54,2.32h-.03ZM77.49,43.65h-.02c-3.26.01-6.33,2.38-8.64,6.66-2.33,4.32-3.6,10.06-3.58,16.16.05,12.54,5.59,22.73,12.36,22.73h.02c1.84,0,3.62-.75,5.27-2.22,4.25-3.79,6.98-11.87,6.95-20.6h0c-.03-8.95-2.92-17.11-7.36-20.77-1.58-1.3-3.26-1.96-5-1.96Z"/><path d="M82.62,45.45c-6.52.74-11.64,9.81-11.59,20.87,0,.36,0,.72.02,1.08l10.47.52-9.86,4.81c1.6,8.1,6.07,14.03,11.39,14.4,4.18-3.72,7.05-11.62,7.02-20.75-.03-9.32-3.09-17.34-7.44-20.93Z"/><path d="M83.11,87.34h-.09c-5.28-.38-9.93-6.23-11.57-14.57l-.03-.15,9.29-4.53-9.86-.49v-.19c-.02-.36-.03-.72-.03-1.09-.04-11.06,5.13-20.31,11.77-21.07h.09s.07.05.07.05c4.53,3.74,7.48,12.01,7.51,21.08.03,8.84-2.75,17.05-7.09,20.91l-.06.06ZM71.88,72.84c1.62,8.03,6.06,13.66,11.08,14.08,4.22-3.81,6.92-11.86,6.89-20.54-.03-8.91-2.89-17.03-7.3-20.71-6.4.8-11.37,9.85-11.33,20.65,0,.3,0,.59.01.89l11.07.55-10.43,5.09Z"/><path d="M57.86,89.36c3.82.45,7.65.44,11.45-.05,3.31-.43,9.79.03,7.64,5.9-1.46,3.98-6.06,5.86-9.46,6.58-5.9,1.23-15.07.8-20.25-3.49-2.27-1.88-3.63-5.71-.99-7.87,2.93-2.39,8.26-1.47,11.61-1.07Z" fill="#ff5a47"/><path d="M57,89.05c.31.04.61.08.89.11h0c3.82.46,7.65.44,11.4-.05,2.57-.33,6.09-.07,7.57,1.78.86,1.08.96,2.55.29,4.38-1.68,4.59-7.28,6.22-9.61,6.7-3.2.67-7.01.79-10.46.33-4.13-.55-7.58-1.89-9.96-3.86-1.53-1.27-2.52-3.22-2.51-4.98,0-1.28.53-2.39,1.53-3.2,1.55-1.26,3.71-1.63,5.92-1.63,1.71,0,3.45.22,4.95.41ZM67.46,101.59c2.26-.47,7.69-2.05,9.31-6.45.62-1.69.55-3.03-.22-3.99-1.38-1.72-4.74-1.96-7.2-1.64-3.78.49-7.65.51-11.5.05h0c-.28-.03-.58-.07-.89-.11-3.35-.42-7.95-1-10.56,1.13-.9.73-1.37,1.73-1.38,2.89,0,1.64.92,3.47,2.36,4.67,3.42,2.83,8.88,4.04,14.02,4.04,2.13,0,4.21-.21,6.07-.6ZM57.87,89.36h0,0Z"/><path d="M49.6,92.96c-.07,0-.14.04-.18.11-.05.1-.02.22.08.28,4.18,2.3,8.78,3.42,13.3,3.25,3.52-.14,6.95-1.03,10.19-2.66.1-.05.14-.17.09-.27-.05-.1-.17-.14-.27-.09-3.19,1.6-6.56,2.48-10.03,2.61-4.45.17-8.98-.93-13.09-3.2-.03-.02-.06-.03-.1-.03Z"/><path d="M55.66,80.06c-.65,1.6.89,3.17,3.45,3.52s5.17-.67,5.82-2.27-.89-3.17-3.45-3.52c-2.56-.34-5.17.67-5.82,2.27Z" fill="#ff9dc3"/><path d="M60.11,83.85c-.34,0-.68-.02-1.02-.07-1.61-.22-2.92-.93-3.48-1.91-.35-.6-.39-1.26-.13-1.89.69-1.68,3.39-2.75,6.04-2.4,1.61.22,2.92.93,3.48,1.91.35.6.39,1.26.13,1.89-.6,1.46-2.73,2.46-5.01,2.46ZM60.47,77.92c-2.12,0-4.08.9-4.62,2.21h0c-.21.51-.17,1.04.11,1.53.5.87,1.69,1.51,3.18,1.71,2.47.33,4.99-.63,5.61-2.15.21-.51.17-1.04-.11-1.53-.5-.87-1.69-1.51-3.18-1.71-.33-.04-.66-.07-.99-.07ZM55.66,80.06h0,0Z"/><path d="M59.82,78.77c1.56.68-.2,2.37-1.77,1.69-1.56-.68.2-2.37,1.77-1.69Z" fill="#fff"/></g></svg>