<?xml version="1.0" encoding="UTF-8"?><svg id="Ebene_2" xmlns="http://www.w3.org/2000/svg" width="203.39" height="231.87" viewBox="0 0 203.39 231.87"><g id="OBJECTS"><path d="M140.28,163.32c.52-6.6-.68-11.92-1.66-15.11-3.65.89-8.01,2.27-12.71,4.47-5.53,2.58-9.94,5.55-13.3,8.19-2.69-3.31-6.34-7.18-11.16-10.92-4.1-3.18-8.05-5.49-11.41-7.17-1.66,2.9-4,7.83-4.95,14.37-.95,6.52-.11,11.88.65,15.13,3.68-.38,8.45-1.23,13.74-3.15,5.45-1.98,9.77-4.48,12.96-6.66,2.62,2.83,6.29,6.22,11.17,9.35,4.74,3.04,9.19,4.92,12.7,6.1,1.46-3,3.46-8.05,3.98-14.61Z" fill="#50b77e" stroke="#000" stroke-miterlimit="10" stroke-width=".86"/><line x1="90.07" y1="142.93" x2="97.81" y2="169.85" fill="none" stroke="#000" stroke-miterlimit="10" stroke-width=".86"/><line x1="99.21" y1="148.34" x2="104.85" y2="166.69" fill="none" stroke="#000" stroke-miterlimit="10" stroke-width=".86"/><line x1="109.36" y1="157.28" x2="110.84" y2="163.31" fill="none" stroke="#000" stroke-miterlimit="10" stroke-width=".86"/><line x1="85.76" y1="153.95" x2="90.02" y2="171.57" fill="none" stroke="#000" stroke-miterlimit="10" stroke-width=".86"/><line x1="138.79" y1="148.21" x2="124.64" y2="172.38" fill="none" stroke="#000" stroke-miterlimit="10" stroke-width=".86"/><line x1="128.27" y1="151.62" x2="118.27" y2="168.01" fill="none" stroke="#000" stroke-miterlimit="10" stroke-width=".86"/><line x1="116.68" y1="157.98" x2="113.97" y2="163.76" fill="none" stroke="#000" stroke-miterlimit="10" stroke-width=".86"/><line x1="140.25" y1="159.96" x2="131.77" y2="175.98" fill="none" stroke="#000" stroke-miterlimit="10" stroke-width=".86"/><path d="M116.62,161.78c-.42,3.73-2.3,6.58-4.21,6.36-1.91-.21-3.12-3.41-2.7-7.14.42-3.73,2.3-6.58,4.21-6.36,1.91.21,3.12,3.41,2.7,7.14Z" fill="#50b77e" stroke="#000" stroke-miterlimit="10" stroke-width=".86"/><path d="M87.95,187.97l-.52,34.06s-11.22-.91-12.17,8.64l26.53-.15,1-41.7s-14.85-.85-14.84-.85Z" stroke="#000" stroke-miterlimit="10" stroke-width=".54"/><path d="M129.18,188.49l-.63,34.06s11.24-.53,11.87,9.04l-26.51-1.04.41-41.71s14.87-.35,14.86-.35Z" stroke="#000" stroke-miterlimit="10" stroke-width=".54"/><path d="M50.35,78.51c2.09-34.21,34.75-60.05,72.95-57.72,38.2,2.34,67.47,31.96,65.38,66.18-1.41,23.11-16.79,42.39-38.39,51.76l-3.46,19.84c-7.69,1.92-21.49,4.11-36.81,2.18-14.74-1.86-27.14-5.39-32.05-10.37.82-5.61,1.65-11.22,2.47-16.83-19.32-12.08-31.47-32.57-30.09-55.04Z" fill="#f5c50f" stroke="#000" stroke-miterlimit="10" stroke-width=".83"/><path d="M176.15,62.02c-1.14.31,4.11,11.73,1.67,27.59-2.6,16.92-12.07,26.73-11.1,27.39,1.08.73,14.53-10.3,16.85-26.71,2.15-15.21-6.16-28.61-7.42-28.27Z" fill="#fff"/><path d="M93.13,145.36c.35,4.32,1.81,8.47,3.84,12.32.92.19,1.85.37,2.8.54-2.42-4.2-4.24-8.87-4.48-13.67-.18-3.4.05-7.44,1.96-10.38.89-1.36,2.2-2.28,3.86-2.35,1.07-.05,1.89.53,2.74,1.27,1.53,1.32,2.87,2.95,4,4.69-1.77,3.91-1.83,8.51,1.24,11.31.39.36.82.44,1.33.24,4.01-1.64,2.49-6.72,1.07-9.65-.31-.65-.66-1.29-1.04-1.93,1.35-2.43,3.87-5.3,6.87-4.82,1.61.26,3.12,1.44,4.27,3-.46.39-.9.8-1.3,1.27-2.07,2.4-5.04,6.88-3.14,10.1,2.3,3.89,7.24.62,8.31-2.52.81-2.41.35-5.54-.97-8.24.65-.38,1.36-.66,2.12-.84,2.72-.62,5.55.46,7.03,2.85,1.79,2.87,1.49,6.64.34,9.69-1.89,5.02-6.04,8.75-10.05,12.32h3.25c5.6-5.23,11.03-11.23,9.76-19.28-.57-3.65-3.07-6.9-6.76-7.73-2.38-.54-4.75-.05-6.79,1.11-1.95-2.78-4.88-4.63-8.2-3.8-2.38.59-4.56,2.41-6.13,4.74-1.32-1.88-2.9-3.62-4.7-4.9-3.07-2.2-7.03-.73-8.98,2.27-2.29,3.52-2.59,8.32-2.26,12.39ZM122.73,137.86c1.26,2.69,1.47,5.84-.29,7.76-.92.98-2.97,2.04-3.55.15-.44-1.44.53-3.26,1.23-4.45.71-1.25,1.58-2.46,2.62-3.46ZM109.33,140.37c.1.19.22.38.3.57.75,1.6,1.99,4.59.47,5.98-1.44-1.85-1.44-4.31-.78-6.55Z" fill="#fff"/><path d="M76.11,189.68l.59.06,28.92,2.92,10.36,1.05,18.18,1.84,6.12.62,2.13.21.51-4.22,2.05-16.97,2.23-18.45-.21-.02c-11.02,7.54-58.37,3.15-68.91-6.37l-1.24,24.98-.71,14.34Z" fill="#fff" stroke="#000" stroke-miterlimit="10" stroke-width=".83"/><line x1="144.73" y1="174.62" x2="77.1" y2="168.02" fill="none" stroke="#000" stroke-miterlimit="10" stroke-width=".83"/><line x1="143.87" y1="185.89" x2="76.73" y2="178.96" fill="none" stroke="#000" stroke-miterlimit="10" stroke-width=".83"/><g opacity=".48"><path d="M137.05,58.79c6.05,18.31,2.41,45.2-8.12,60.05-10.54,14.86-23.99,12.06-30.04-6.25-6.05-18.31-2.41-45.2,8.13-60.05,10.54-14.86,23.99-12.06,30.04,6.25Z" fill="#fff"/></g><path d="M88.16,75.58c-2.06,1.05-3.47,2.62-4.13,4.53l-.24.73c-.05.25-.09.51-.15.76-.15.5-.11,1.05-.22,1.58-.01.54-.05,1.09-.08,1.65-.02.56.01,1.12-.04,1.71l-.08.02-.32-1.67c-.06-.56-.11-1.13-.15-1.7.02-1.13.07-2.29.48-3.37.39-1.07,1.04-2.06,1.9-2.81.86-.75,1.9-1.28,3.02-1.52v.09Z"/><path d="M85.59,74.27c-1.88.68-3.23,1.79-4.05,3.28l-.31.57c-.08.2-.15.41-.24.61-.2.4-.25.86-.43,1.28-.1.45-.22.9-.33,1.37-.11.47-.18.95-.33,1.44h-.09s-.03-1.45-.03-1.45c.03-.49.07-.97.12-1.46.18-.95.39-1.93.89-2.78.49-.85,1.18-1.59,2.02-2.1.84-.51,1.8-.81,2.78-.84v.09Z"/><path d="M145.16,80.95c1.18.03,2.38.48,3.32,1.29.97.78,1.66,1.91,2.02,3.1.37,1.2.34,2.45.18,3.63-.12.58-.27,1.16-.45,1.71-.25.54-.46,1.08-.75,1.58l-.08-.02.39-1.65c.09-.56.16-1.12.22-1.67.03-1.12.02-2.26-.33-3.33-.31-1.07-.87-2.07-1.67-2.86-.79-.79-1.79-1.39-2.87-1.69l.02-.08Z"/><path d="M147.78,79.78c1.01-.19,2.11,0,3.04.54.96.52,1.72,1.38,2.21,2.35.5.98.64,2.05.67,3.08-.02.51-.08,1.02-.16,1.52-.15.49-.26.98-.46,1.45h-.09s.09-1.46.09-1.46c0-.48-.03-.97-.06-1.45-.14-.95-.31-1.91-.77-2.76-.42-.86-1.04-1.62-1.82-2.17-.78-.55-1.71-.91-2.66-1.01v-.09Z"/><path d="M115.45,84.88c-7.65-.7-12.44-5.16-19.46-5.89-3.94-.41-7.86,0-8.66,4.47-1.46,8.2,3.76,14.61,10.61,19.02,8.84,5.7,19.82,7,29.92,4.04,8.5-2.49,17.7-7.48,17.37-17.41-.15-4.55-3.69-5.7-7.64-6.05-7.03-.62-15.14,2.46-22.14,1.82Z" fill="#fff" stroke="#000" stroke-miterlimit="10" stroke-width=".86"/><path d="M129.16,83.56c.62,2.75,1.17,6.48,1,10.88-.2,5.06-1.3,9.2-2.3,12.08" fill="none" stroke="#000" stroke-miterlimit="10" stroke-width=".86"/><path d="M115.45,84.88c.41,2.85.67,6.59.24,10.92-.5,4.99-1.75,9.07-2.9,11.98" fill="none" stroke="#000" stroke-miterlimit="10" stroke-width=".86"/><path d="M101.44,80.31c.34,2.95.49,7.05-.33,11.81-.73,4.3-2.02,7.81-3.17,10.35" fill="none" stroke="#000" stroke-miterlimit="10" stroke-width=".86"/><path d="M125.85,72.06c-.69,8.55-4.84,15.18-9.27,14.83-4.42-.36-1.91-31.31,2.51-30.95,4.42.36,7.45,7.58,6.76,16.12Z" fill="#ce30ce" stroke="#000" stroke-miterlimit="10" stroke-width=".92"/><path d="M108.8,47.87c-.86,14.07-8.2,25.08-16.4,24.57-8.19-.5-14.13-12.32-13.27-26.39" fill="#f5c50f" stroke="#000" stroke-miterlimit="10" stroke-width="2.3"/><path d="M73.22,47s1.71,3.78,5.43,3.53" fill="none" stroke="#000" stroke-miterlimit="10" stroke-width="1.15"/><path d="M72.82,52.37s2.43,3.85,6.37,2.75" fill="none" stroke="#000" stroke-miterlimit="10" stroke-width="1.15"/><path d="M73.34,57.66s2.68,2.98,6.51,1.53" fill="none" stroke="#000" stroke-miterlimit="10" stroke-width="1.15"/><path d="M133.2,49.72c-2.26,13.92,2.48,26.27,10.58,27.58,8.1,1.32,16.5-8.9,18.76-22.82" fill="#f5c50f" stroke="#000" stroke-miterlimit="10" stroke-width="2.3"/><path d="M168.48,56.4s-2.47,3.33-6.06,2.29" fill="none" stroke="#000" stroke-miterlimit="10" stroke-width="1.15"/><path d="M167.73,61.73s-3.2,3.24-6.81,1.33" fill="none" stroke="#000" stroke-miterlimit="10" stroke-width="1.15"/><path d="M166.08,66.79s-3.26,2.34-6.69.1" fill="none" stroke="#000" stroke-miterlimit="10" stroke-width="1.15"/><path d="M82.08,34.2c1.22-2.12,3.14-3.78,5.35-4.9,1.1-.6,2.3-.95,3.52-1.28,1.23-.28,2.5-.37,3.77-.39,1.27.05,2.53.22,3.75.53,1.21.35,2.4.78,3.47,1.41,2.17,1.2,4.03,2.91,5.18,5.07l-.17.2c-1.74-1.4-3.69-2.54-5.77-3.35-2.08-.81-4.29-1.25-6.51-1.27-2.22-.07-4.45.31-6.55,1.03-2.1.73-4.09,1.81-5.88,3.15l-.16-.2Z"/><path d="M138.39,37.66c1.75-1.72,4.04-2.79,6.47-3.27,1.22-.29,2.48-.3,3.74-.29,1.26.06,2.51.31,3.73.64,1.21.38,2.37.9,3.47,1.52,1.07.67,2.1,1.4,2.96,2.3,1.76,1.74,3.1,3.88,3.62,6.28l-.21.15c-1.3-1.82-2.87-3.44-4.65-4.78-1.78-1.34-3.8-2.36-5.93-2.97-2.12-.66-4.37-.9-6.59-.78-2.22.14-4.42.64-6.51,1.45l-.1-.24Z"/><path d="M118.08,82.83c-.33-.08-.65-.18-.97-.31-.03-.01-.03,0-.04-.02-.01,0-.01,0-.05-.03-.06-.03-.11-.06-.17-.09-.14-.08-.28-.17-.41-.26-.08-.06-.15-.11-.23-.17,0,0,0,0,0,0-.11-.11-.23-.21-.34-.32-.11-.11-.22-.23-.32-.36-.06-.07-.12-.15-.18-.23-.01-.01,0-.01-.02-.02,0,0,0,0,0-.01-.16-.28-.34-.55-.48-.84-.07-.15-.14-.3-.2-.45-.01-.03-.05-.15-.05-.13-.02-.05-.03-.09-.05-.14-.1-.32-.18-.64-.25-.97-.03-.16-.06-.33-.08-.5-.01-.08-.02-.17-.03-.25,0-.06-.03-.36-.01-.09-.05-.6-.41-1.2-1.09-1.21-.56,0-1.26.45-1.21,1.09.13,1.63.53,3.27,1.47,4.64.96,1.4,2.32,2.46,4,2.85.58.14,1.27-.11,1.45-.74.15-.56-.12-1.3-.74-1.45Z" fill="#fff"/><path d="M197.42,137.41c-3.61,11.25-16.21,15.82-26.93,16.6-5.9.44-5.86-8.76,0-9.19,6.91-.51,16.7-3.33,18.43-11.14,1.54-6.86-3.32-15.17-8.32-20.91,1.7-2.81,3.16-5.75,4.35-8.82,8.21,8.12,16.15,21.97,12.47,33.47Z"/><path d="M173.29,141.52s5.27-2.93,5.69,1.13c.32,3.1-.99,9.63-1.64,12.56-.3,1.35-1.3,2.49-2.64,2.82-.87.21-2.98-.56-3.93-1.49-2.27,1.21-5.4,3.74-10.79,3.55-4.03-.14-8.23-1.22-11.73-3.24-1.8-1.04-3.37-2.38-4.22-4.31-.47-1.07-.76-2.3-.56-3.48.1-.58.32-1.14.67-1.61.1-.14.86-1.08.86-1.08,0,0-2.8-5.54,3.17-7.16,0,0-3.71-8.98,8.58-5.32.74.22,1.93-3.05,5.05-4.13.46-.16,3.71-1.23,6.74.22,3.61,1.73,5.69,6.45,4.74,11.53Z" fill="#fff" stroke="#000" stroke-miterlimit="10" stroke-width=".72"/><line x1="148.29" y1="139.3" x2="152.88" y2="141.12" fill="none" stroke="#000" stroke-miterlimit="10" stroke-width=".72"/><line x1="145.01" y1="146.38" x2="149.92" y2="147.87" fill="none" stroke="#000" stroke-miterlimit="10" stroke-width=".72"/><line x1="156.76" y1="133.9" x2="163.51" y2="136.19" fill="none" stroke="#000" stroke-miterlimit="10" stroke-width=".72"/><line x1="173.29" y1="141.52" x2="172.53" y2="146.47" fill="none" stroke="#000" stroke-miterlimit="10" stroke-width=".72"/><line x1="171.26" y1="152.92" x2="170.78" y2="156.55" fill="none" stroke="#000" stroke-miterlimit="10" stroke-width=".72"/><path d="M154.91,137.88c-.4,1.24,1.53,1.86,1.93.62.4-1.24-1.53-1.86-1.93-.62h0Z"/><path d="M152.65,145.67c-.4,1.24,1.53,1.86,1.93.62.4-1.24-1.53-1.86-1.93-.62h0Z"/><path d="M150.49,153.5c-.4,1.24,1.53,1.86,1.93.62.4-1.24-1.53-1.86-1.93-.62h0Z"/><path d="M54.2,102.65c-2.16.54-4.41.8-6.72.68-5.53-.28-10.18-2.68-14.28-5.98-2.93-2.33-5.59-5.12-8.08-7.89-.19-.21-.35-.42-.49-.63-2.68-4.08,2.49-9.35,6.25-6.54.23.18.46.38.67.61l.06.06c1.69,1.89,3.5,3.97,5.48,5.81,2.49,2.33,5.26,4.29,8.5,5.06,1.99.48,4,.44,5.94,0,.65,3.01,1.55,5.96,2.67,8.81Z"/><path d="M19.97,72.75s-6.79-6.55-11.87-4.11c-4.26,2.05-1.19,6.36-1.19,6.36-7.86,1.24-3.46,8.52-3.46,8.52-.04.02-.08.04-.12.06-2.63,1.33-3.7,4.64-2.27,7.23,3.4,6.17,11.95,5.05,11.95,5.05,4.85,6.45,11.85,3.02,11.85,3.02,4.14,4.67,8.74.56,12.09-9.68,3.36-10.24-5.5-7.57-5.5-7.57,1-12.64-10.99-11.81-11.48-8.86Z" fill="#fff" stroke="#000" stroke-miterlimit="10" stroke-width=".86"/><path d="M25.14,99.07c1.42-1.06,2.65-2.91,3.7-5.23" fill="none" stroke="#000" stroke-miterlimit="10" stroke-width=".86"/><path d="M29.82,88.79c1.56-2.87,1.69-4.92,1.82-7.37" fill="none" stroke="#000" stroke-miterlimit="10" stroke-width=".86"/><path d="M31.4,81.73c1.47-4.36,2.15-9.25,1.67-13.84-.31-2.99-1.56-6.82-5.29-6.34-3.06.4-5.14,4.07-6.46,6.49-.89,1.63-1.66,3.32-2.35,5.04-.26.64-.51,1.28-.74,1.93,0,0-3.95,10.31,5.19,14.5.12.06.25.11.38.17" fill="#fff" stroke="#000" stroke-miterlimit="10" stroke-width=".86"/><path d="M7.06,92.09s11.02,3.03,9.8-4.16c-.91-5.35-13.41-4.42-13.41-4.42" fill="#fff" stroke="#000" stroke-miterlimit="10" stroke-width=".86"/><path d="M10.93,68.11c4.59.28,10.46,4.23,10.46,6.89,0,.63-.24,2.21-1.52,3.14-1.34.97-2.95.62-3.27.54-.93-.59-2.01-1.16-3.22-1.73-1.88-.89-4.3-1.81-6.47-1.95,0,0,19.65,3.7,9.95,12.94-.93-.89-2.55-2.23-4.91-3.19-2.32-.95-4.38-1.27-5.66-1.29" fill="#fff" stroke="#000" stroke-miterlimit="10" stroke-width=".86"/><rect x="99.16" y=".14" width="3.49" height="17.9" transform="translate(-.38 11.48) rotate(-6.5)" fill="#e3e90f"/><rect x="59.87" y="17.57" width="3.48" height="16.48" transform="translate(-.17 51.22) rotate(-45.08)" fill="#e3e90f"/><rect x="78.26" y="4.64" width="3.48" height="19.22" transform="translate(.13 29.21) rotate(-20.71)" fill="#e3e90f"/><rect x="153.55" y="16.4" width="17.9" height="3.49" transform="translate(81.65 160.26) rotate(-66.73)" fill="#e3e90f"/><rect x="187.06" y="43.74" width="16.48" height="3.48" transform="translate(1.64 97.51) rotate(-28.15)" fill="#e3e90f"/><rect x="171.42" y="27.37" width="19.22" height="3.48" transform="translate(47.78 155.06) rotate(-52.52)" fill="#e3e90f"/></g></svg>