<?xml version="1.0" encoding="UTF-8"?><svg id="Ebene_1" xmlns="http://www.w3.org/2000/svg" width="1000" height="1000" viewBox="0 0 1000 1000"><rect x="-.02" y="748.6" width="911.81" height="2.19"/><path d="M869.75,288.93c-23.72,50.81-73.44,81.38-124.74,82.15,1.02,2.54,2.04,5.1,2.97,7.69,7.06,18.92,12.2,38.85,15.24,59.58,4.22,28.69,6.79,57,6.79,84.3,0,1.61,0,3.2-.04,4.79,0,1.06-.02,2.11-.04,3.15-.02.8-.04,1.61-.05,2.4-.02.59-.04,1.18-.05,1.77-.05,2-.12,4.01-.21,5.99-.05,1-.09,1.99-.14,2.99-.16,2.97-.36,5.94-.57,8.89-.16,1.97-.32,3.92-.5,5.87-.37,3.9-.8,7.78-1.3,11.61-.12.97-.27,1.93-.39,2.88-.27,1.91-.55,3.81-.86,5.71-1.45,8.96-3.27,17.73-5.54,26.29-7.81,29.42-20.76,56.32-40.5,79.56-3.16,3.72-6.49,7.35-10.02,10.86-6.07,6.12-12.68,11.91-19.87,17.37-4.48,3.43-9.2,6.72-14.15,9.91-16.51,10.54-35.59,19.64-57.58,27.03h-325.06c-1.48-.52-2.93-1.04-4.38-1.57-8.41-3.09-16.45-6.47-24.1-10.18-1.55-.73-3.11-1.5-4.63-2.27-11.86-6.01-22.76-12.75-32.71-20.21-2.66-2-5.25-4.04-7.75-6.12-20.9-17.37-37.16-38.26-48.77-62.58-4.86-10.2-8.91-21-12.17-32.41-.71-2.5-1.39-5.04-2.02-7.6-.3-1.23-.59-2.47-.88-3.72-.3-1.27-.57-2.54-.86-3.83,0-.04-.02-.09-.02-.13-.29-1.32-.55-2.67-.82-4.01-.25-1.29-.48-2.59-.73-3.9-.25-1.52-.52-3.04-.77-4.58-.2-1.25-.39-2.52-.57-3.79-.2-1.38-.39-2.77-.57-4.19-.18-1.4-.36-2.81-.52-4.22-.29-2.49-.54-4.99-.75-7.51-.04-.36-.05-.72-.09-1.07-.11-1.34-.21-2.68-.32-4.04-.11-1.79-.21-3.6-.32-5.4-.05-1.25-.12-2.5-.18-3.76-.05-1.48-.11-2.99-.14-4.49-.18-6.28-.16-12.66.02-19.19,1.59-56.5-.16-110.57,20.63-159.38-23.03,2.79-46.83-.36-69.12-10.37-67.05-30.1-95.2-110.61-62.89-179.83,32.3-69.22,112.84-100.93,179.87-70.83,47.66,21.41,75.64,68.31,76.25,118.5,35.05-21.3,75-36.15,118.32-42.53,73.05-10.79,143.74,4.24,202.56,37.95,1.79-14.29,5.81-28.64,12.27-42.52,32.32-69.2,112.86-100.91,179.89-70.81,67.03,30.1,95.19,110.61,62.89,179.83Z" fill="#cc56a2" stroke="#1d1d1b" stroke-miterlimit="10"/><path d="M618.37,750.79l-325.6-.06c-1.49-.52-2.94-1.04-4.4-1.58-8.53-3.14-16.67-6.58-24.2-10.22-1.55-.73-3.12-1.51-4.64-2.28-11.82-5.99-22.88-12.82-32.87-20.31-2.74-2.07-5.37-4.13-7.8-6.15-20.91-17.37-37.41-38.55-49.06-62.95-4.86-10.2-8.98-21.16-12.23-32.58-.72-2.52-1.4-5.07-2.03-7.64-.31-1.24-.59-2.48-.88-3.73-.22-.93-.43-1.87-.64-2.82l-.27-1.38c-.24-.97-.48-2.19-.73-3.42l-1.58-8.89c-.2-1.27-.4-2.54-.58-3.82-.19-1.38-.39-2.78-.57-4.2-.18-1.4-.36-2.82-.52-4.24-.28-2.5-.54-5.01-.75-7.54l-.92-14.32c-.05-1.5-.11-3-.14-4.51-.18-6.14-.17-12.44.02-19.25.2-7.16.35-14.28.5-21.35,1.01-48.51,1.96-94.36,19.5-136.7-23.3,2.49-46.71-1.19-67.83-10.68-31.83-14.29-56.13-40.38-68.42-73.45-12.96-34.9-11.19-73.2,4.98-107.84,32.5-69.65,113.82-101.67,181.31-71.37,46.23,20.77,75.54,65.7,76.86,117.58,35.86-21.5,75.25-35.53,117.1-41.7,69.62-10.27,141.23,2.96,201.84,37.28,1.94-14.21,6.03-28.07,12.16-41.22,32.52-69.64,113.87-101.65,181.33-71.35,31.82,14.29,56.11,40.37,68.4,73.44,12.96,34.9,11.2,73.2-4.97,107.85h0c-22.88,49-71.47,81.34-124.12,82.75.82,2.07,1.64,4.15,2.39,6.26,7.14,19.15,12.29,39.27,15.29,59.79,4.58,31.13,6.8,58.75,6.8,84.45,0,1.62,0,3.22-.03,4.82,0,.94-.01,1.91-.03,2.86l-.11,4.46c-.05,2.01-.13,4.02-.22,6.01l-.14,3c-.16,2.98-.36,5.95-.57,8.91-.16,1.98-.32,3.93-.5,5.89-.4,4.18-.83,7.99-1.31,11.65l-.39,2.88c-.27,1.93-.56,3.83-.86,5.74-1.48,9.19-3.35,18.07-5.56,26.4-8.21,30.93-21.91,57.84-40.73,79.99-3.38,3.97-6.68,7.55-10.09,10.92-6.14,6.18-12.86,12.06-19.97,17.46-4.39,3.37-9.18,6.72-14.22,9.96-16.95,10.82-36.41,19.95-57.82,27.14l-.17.06ZM293.32,748.6h324.69c21.18-7.13,40.42-16.16,57.17-26.85,4.98-3.21,9.72-6.52,14.07-9.86,7.03-5.34,13.68-11.15,19.75-17.27,3.37-3.34,6.63-6.87,9.97-10.79,18.6-21.9,32.15-48.52,40.28-79.13,2.19-8.26,4.04-17.07,5.52-26.19.3-1.89.58-3.78.85-5.68l.39-2.86c.48-3.64.9-7.42,1.3-11.57.18-1.94.34-3.89.5-5.85.21-2.93.41-5.9.57-8.86l.14-2.99c.09-1.97.16-3.97.21-5.96l.11-4.43c.02-.94.03-1.9.03-2.85.03-1.61.03-3.19.03-4.79,0-25.59-2.22-53.12-6.78-84.14-2.98-20.37-8.09-40.34-15.18-59.36-.93-2.59-1.94-5.14-2.95-7.66l-.59-1.48,1.59-.02c52.43-.79,101.01-32.78,123.76-81.52h0c15.92-34.11,17.66-71.81,4.9-106.15-12.08-32.51-35.96-58.16-67.24-72.21-66.38-29.82-146.43,1.71-178.44,70.27-6.26,13.44-10.36,27.63-12.18,42.19l-.2,1.63-1.43-.82c-60.49-34.68-132.19-48.11-201.85-37.82-42.2,6.22-81.87,20.48-117.91,42.38l-1.64,1-.02-1.92c-.63-51.82-29.6-96.84-75.6-117.51-66.37-29.81-146.43,1.72-178.43,70.29-15.93,34.11-17.67,71.8-4.92,106.15,12.08,32.52,35.96,58.17,67.26,72.22,21.32,9.58,45.02,13.13,68.54,10.29l1.89-.23-.74,1.75c-18.07,42.43-19.03,88.67-20.05,137.62-.15,7.08-.29,14.2-.49,21.36-.19,6.77-.19,13.03-.02,19.13.03,1.5.09,3,.14,4.48l.91,14.2c.22,2.53.46,5.02.75,7.5.16,1.41.34,2.82.52,4.21.18,1.41.37,2.8.57,4.17.18,1.27.37,2.53.57,3.78l1.57,8.8c.24,1.21.49,2.42.74,3.62l.24,1.14c.21.93.41,1.86.63,2.79.29,1.26.57,2.48.87,3.71.62,2.55,1.3,5.08,2.01,7.56,3.22,11.3,7.29,22.15,12.1,32.24,11.51,24.12,27.82,45.05,48.48,62.21,2.4,1.99,5,4.04,7.71,6.08,9.89,7.41,20.84,14.18,32.55,20.11,1.51.77,3.06,1.53,4.6,2.26,7.47,3.62,15.54,7.03,24.01,10.14,1.39.51,2.77,1.01,4.18,1.51Z"/><path d="M244.29,225.22c6.87,46.72-25.38,90.18-72.06,97.07-46.67,6.88-90.08-25.41-96.95-72.14-6.88-46.72,25.38-90.18,72.05-97.07,46.67-6.88,90.08,25.41,96.95,72.14Z" fill="#fff"/><path d="M159.73,324.31c-42.17,0-79.21-31.01-85.54-74-3.37-22.89,2.37-45.72,16.15-64.29,13.78-18.57,33.97-30.65,56.83-34.02,22.87-3.37,45.67,2.37,64.21,16.17,18.55,13.8,30.62,34.01,33.99,56.89h0c6.95,47.25-25.79,91.35-72.98,98.31-4.26.63-8.48.93-12.66.93ZM159.84,153.26c-4.08,0-8.2.3-12.34.91-22.28,3.29-41.95,15.06-55.39,33.16-13.44,18.1-19.03,40.35-15.74,62.66,6.78,46.05,49.71,78,95.71,71.21,46-6.78,77.91-49.77,71.13-95.82h0c-6.17-41.9-42.26-72.12-83.36-72.12Z" fill="#fff"/><path d="M837.32,223.26c6.88,46.72-25.38,90.18-72.05,97.07-46.67,6.88-90.08-25.41-96.95-72.14-6.88-46.72,25.38-90.18,72.05-97.07,46.67-6.88,90.08,25.41,96.95,72.14Z" fill="#fff"/><path d="M752.64,322.35c-18.45,0-36.34-5.89-51.42-17.11-18.55-13.8-30.62-34.01-33.98-56.89-3.37-22.89,2.37-45.72,16.15-64.29,13.78-18.57,33.97-30.65,56.83-34.02,22.86-3.37,45.67,2.37,64.21,16.17,18.55,13.8,30.62,34,33.99,56.89h0c6.95,47.25-25.79,91.35-72.98,98.31-4.28.63-8.55.94-12.79.94ZM753,151.29c-4.14,0-8.3.3-12.47.92-22.28,3.29-41.95,15.06-55.39,33.16-13.44,18.1-19.03,40.35-15.74,62.66,3.28,22.31,15.04,42,33.12,55.45,18.08,13.45,40.3,19.05,62.59,15.76,46-6.78,77.91-49.77,71.13-95.82h0c-3.28-22.31-15.05-42-33.12-55.45-14.69-10.94-32.14-16.68-50.12-16.68Z" fill="#fff"/><path d="M715.21,469.82c47.56,208.69-124.34,263.48-253.93,266.38-151.98,3.4-282.32-89.63-265.88-225.71,52.71-436.42,244.62-231.02,256.11-232.34,11.49-1.32,25.9-42.34,91.87-48.66,90.36-8.65,140.44,102.55,171.84,240.33Z" fill="#fff"/><path d="M453.28,737.39c-86.16,0-165.46-31.09-213.33-83.96-36.32-40.12-52.1-89.59-45.64-143.07,18.84-155.95,57.66-247.89,115.4-273.28,52.71-23.16,107.14,15.99,130.38,32.7,5.2,3.74,10.12,7.27,11.28,7.27h.01c2.96-.34,6.48-4.03,11.37-9.14,12.5-13.09,33.43-35.01,80.51-39.51,77.76-7.4,134.33,71.45,173.02,241.18,16.78,73.65,7.52,133.82-27.54,178.86-59.91,76.96-179.01,87.78-227.43,88.86-2.68.06-5.35.09-8.02.09ZM344.09,232.14c-11.05,0-22.33,2.03-33.51,6.95-56.97,25.05-95.36,116.41-114.1,271.53-6.38,52.83,9.21,101.7,45.09,141.34,48.93,54.04,130.98,85.14,219.68,83.15,48.11-1.07,166.42-11.8,225.75-88.02,34.64-44.49,43.77-104.05,27.14-177.02h0c-38.39-168.47-94.3-246.84-170.67-239.48-46.27,4.43-66.85,25.97-79.14,38.84-5.2,5.45-8.96,9.38-12.71,9.81-1.82.21-5.02-2.07-12.81-7.67-17.97-12.92-54.82-39.42-94.72-39.42Z" fill="#fff"/><path d="M489.1,470.8c.14,8.36-10.6,15.32-24,15.55-13.39.23-24.37-6.37-24.51-14.73-.14-8.36,10.6-15.32,24-15.55,13.39-.23,24.37,6.37,24.51,14.73Z" fill="#ffb2b7"/><path d="M464.45,487.45c-13.67,0-24.8-7.01-24.95-15.82-.15-8.95,11.1-16.43,25.08-16.67.23,0,.45,0,.67,0,13.67,0,24.8,7.01,24.95,15.82.07,4.44-2.56,8.62-7.42,11.77-4.7,3.05-10.97,4.79-17.65,4.9-.23,0-.45,0-.67,0ZM465.26,457.16c-.22,0-.43,0-.65,0-12.77.21-23.05,6.69-22.92,14.43.13,7.74,10.5,13.87,23.39,13.65,6.28-.1,12.14-1.72,16.5-4.55,4.2-2.72,6.48-6.23,6.42-9.88h0c-.13-7.61-10.27-13.66-22.74-13.66Z"/><path d="M443.06,453.86c2.9-2.74,6.44-4.74,10.2-6.19,3.77-1.45,7.84-2.07,11.89-2.28,4.06.06,8.14.57,11.96,1.88,3.81,1.31,7.42,3.21,10.4,5.84l-.11.19c-6.71-3.88-14.48-5.9-22.22-5.71-7.73.08-15.43,2.37-22.02,6.46l-.12-.19Z"/><path d="M414.96,422.57c2.53,23.54,1.88,45.93-1.26,65.78-19.95-6.76-44.89-9.7-71.29-7.32-24.34,2.16-46.08,8.46-62.99,17.26-8.16-20.37-14.07-43.94-16.75-69.12-8.44-79.88,18.93-143.86,60.82-147.93,53.97-5.24,83.04,61.51,91.46,141.33Z" fill="#fff"/><path d="M278.86,499.82l-.45-1.13c-8.41-21-14.22-45-16.82-69.41-5.62-53.2,4.24-101.18,26.38-128.33,10.06-12.34,22.31-19.53,35.43-20.81,48.15-4.67,82.76,48.53,92.65,142.31,2.43,22.64,1.99,45.49-1.27,66.06l-.2,1.29-1.23-.42c-20.51-6.96-45.67-9.54-70.84-7.26-23.38,2.07-45.02,8-62.58,17.14l-1.07.56ZM329.16,282.06c-1.83,0-3.68.09-5.56.27-12.53,1.22-24.26,8.13-33.94,20.01-21.77,26.71-31.45,74.08-25.9,126.71,2.53,23.78,8.13,47.16,16.23,67.71,17.61-8.96,39.13-14.77,62.32-16.83,24.96-2.25,49.94.22,70.5,6.96,3.05-20.05,3.42-42.22,1.06-64.21h0c-9.36-88.73-40.83-140.63-84.71-140.63Z"/><path d="M259.51,446.11c-21,0-36.43-18.33-36.6-18.54l1.69-1.4c.18.21,18.07,21.35,40.95,17.2l.39,2.16c-2.19.4-4.34.58-6.43.58Z"/><path d="M263.44,382.53c-25.98-1.94-34.66-32.03-34.74-32.33l2.11-.59c.08.29,8.36,28.91,32.79,30.74l-.16,2.19Z"/><path d="M262.52,415.09c-26.03-.18-42.17-27.16-42.33-27.44l1.89-1.11c.15.26,15.69,26.18,40.46,26.35v2.19Z"/><path d="M322.44,312.7c-20.74,3.25-34.57,30.77-35.78,74.52l54.35,15.52-53.05,17.71c.36,3.56.77,7.14,1.28,10.78,2.9,20.69,7.86,40.19,14.14,57.16,16.88-5.59,33.7-7.7,42.65-7.64,27.4.19,23.79.1,44.9,1.95,1.16-16.1.72-31.54-2.01-50.88-9.16-65.58-30.02-124.83-66.47-119.12Z"/><path d="M302.72,489.75l-.37-.99c-6.47-17.49-11.38-37.34-14.2-57.39-.46-3.29-.87-6.73-1.28-10.82l-.09-.87,50.52-16.86-51.76-14.78.02-.85c1.22-43.91,14.94-72.16,36.71-75.57h0c8.58-1.35,16.7.77,24.13,6.28,26.9,19.97,38.86,79.85,43.59,113.77,2.61,18.52,3.23,34.28,2.02,51.11l-.08,1.11-6.42-.57q-14.72-1.31-36.58-1.46l-2.92-.02c-9.45-.05-26.22,2.25-42.3,7.58l-1,.33ZM289.14,421.2c.38,3.68.76,6.84,1.18,9.87,2.74,19.52,7.48,38.84,13.72,55.94,15.78-5.1,32.08-7.36,41.59-7.36.14,0,.27,0,.4,0l2.92.02q21.94.15,36.76,1.47l4.19.37c1.1-16.25.45-31.58-2.08-49.53-8.1-57.97-23.27-97.86-42.73-112.31-6.94-5.15-14.5-7.13-22.49-5.88h0c-20.19,3.17-33.51,30.96-34.83,72.61l56.94,16.26-55.58,18.55Z"/><path d="M499.08,416.66c.14,23.67,3.29,45.85,8.66,65.22,19.06-8.97,43.51-14.7,70.01-15.31,24.42-.6,46.74,3.21,64.53,10.05,5.81-21.16,9.04-45.25,8.86-70.57-.61-80.32-34.99-140.81-77.08-140.13-54.22.88-75.59,70.49-74.97,150.75Z" fill="#fff"/><path d="M507.03,483.42l-.35-1.25c-5.56-20.08-8.56-42.73-8.7-65.51-.72-94.3,27.71-151.06,76.05-151.85,13.19-.26,26.17,5.55,37.54,16.68,25.05,24.49,40.25,71.05,40.65,124.54.17,24.55-2.91,49.05-8.9,70.87l-.32,1.17-1.13-.44c-18.47-7.1-40.66-10.53-64.11-9.97-25.26.58-49.97,5.98-69.57,15.21l-1.18.55ZM574.75,267c-.22,0-.45,0-.67,0-46.98.77-74.61,56.7-73.89,149.64h0c.13,22.11,2.99,44.1,8.27,63.69,19.68-9.02,44.21-14.29,69.27-14.87,23.29-.56,45.31,2.78,63.81,9.69,5.73-21.34,8.67-45.2,8.51-69.11-.4-52.92-15.35-98.9-39.99-122.99-10.76-10.52-22.95-16.06-35.31-16.06Z"/><path d="M652.16,422.74c-.79,0-1.6-.03-2.41-.08l.15-2.19c23.29,1.59,38.6-21.47,38.75-21.7l1.84,1.2c-.15.24-15.15,22.78-38.32,22.78Z"/><path d="M645.13,359.78l-.41-2.16c24.07-4.57,29.07-33.94,29.12-34.24l2.17.35c-.05.31-5.29,31.19-30.88,36.05Z"/><path d="M649.71,392.04l-.26-2.18c24.62-2.97,37.11-30.47,37.24-30.75l2,.89c-.13.29-13.14,28.92-38.98,32.03Z"/><path d="M578.65,297.05c20.97.89,37.81,26.67,43.94,70.01l-52.26,21.55,54.7,11.61c.04,3.57.04,7.18-.06,10.86-.56,20.88-3.28,40.82-7.62,58.39-17.4-3.65-34.35-3.85-43.24-2.78-27.21,3.27-23.62,2.78-44.39,7-2.97-15.87-4.26-31.26-3.73-50.78,1.72-66.19,15.79-127.43,52.64-125.86Z"/><path d="M528.86,474.99l-.2-1.1c-3.1-16.59-4.26-32.33-3.75-51.01.89-34.23,6.04-95.08,30.52-117.96,6.76-6.32,14.6-9.32,23.27-8.97,22.01.94,38.83,27.46,44.98,70.95l.12.84-49.77,20.52,52.09,11.06v.88c.06,4.13.04,7.59-.05,10.9-.54,20.24-3.18,40.52-7.65,58.62l-.25,1.03-1.04-.22c-16.57-3.48-33.49-3.9-42.88-2.77l-2.9.35q-21.7,2.61-36.18,5.57l-6.31,1.29ZM577.3,298.12c-7.55,0-14.4,2.83-20.37,8.4-17.71,16.55-28.3,57.9-29.82,116.41-.5,18.11.59,33.42,3.51,49.45l4.12-.84q14.57-2.98,36.36-5.6l2.9-.35c9.39-1.13,26.07-.75,42.55,2.58,4.27-17.7,6.81-37.42,7.33-57.13.08-3.04.1-6.22.07-9.93l-57.31-12.17,54.75-22.57c-6-41.24-22.36-67.35-42.78-68.22h0c-.44-.02-.88-.03-1.31-.03Z"/><path d="M609.03,575.33c-.09.47-.22.91-.31,1.38-4.52,19.84-12.21,40.51-24.95,58.84-21.18,30.42-56.41,54.25-114.57,56.47-46.63,1.78-79.38-13.96-102.41-36.73-16.47-16.29-27.98-36.13-36-55.74-.84-1.98-1.59-4.01-2.3-5.99-15.33-40.95-16.07-79.06-16.07-79.06l140.32-10.04,7.22-.52,16.04-1.14,1.44-.1,135.81-9.7s5.36,38.91-4.23,82.33Z"/><path d="M462.13,693.26c-38.83,0-71.12-12.49-96.1-37.18-14.81-14.65-27.01-33.52-36.25-56.1-.84-1.99-1.6-4.03-2.32-6.04-15.21-40.64-16.12-79.02-16.13-79.4l-.02-1.04,166.06-11.89,136.83-9.77.14,1.02c.05.39,5.27,39.59-4.24,82.7-.05.25-.1.49-.16.72-.05.21-.1.42-.14.64-5.2,22.84-13.65,42.76-25.13,59.26-24.93,35.81-63.77,54.97-115.42,56.94-2.39.09-4.77.14-7.12.14ZM313.56,515.53c.26,6.38,2.27,41.08,15.96,77.65.71,1.98,1.46,3.99,2.28,5.95,9.13,22.31,21.16,40.94,35.77,55.38,26.04,25.74,60.21,38.01,101.6,36.41,50.93-1.94,89.19-20.78,113.71-56,11.31-16.27,19.65-35.94,24.78-58.45.04-.21.1-.46.15-.7.05-.21.1-.42.14-.64v-.04c8.59-38.88,5.08-74.51,4.34-80.92l-298.73,21.36Z"/><path d="M583.78,635.55c-21.18,30.42-56.41,54.25-114.57,56.47-46.63,1.78-79.38-13.96-102.41-36.73,15.75-26.01,59.75-45.84,112.24-47.76,43.92-1.61,82.84,9.69,104.74,28.01Z" fill="#ff5779"/><path d="M462.13,693.26c-38.82,0-71.13-12.49-96.1-37.18l-.61-.61.45-.74c16.36-27,61.82-46.41,113.14-48.29,43-1.56,82.44,8.99,105.48,28.27l.77.65-.57.83c-24.93,35.81-63.77,54.97-115.42,56.94-2.4.09-4.77.14-7.12.14ZM368.19,655.13c25.96,25.32,59.92,37.4,100.97,35.8,50.53-1.93,88.59-20.49,113.13-55.17-22.74-18.53-61.19-28.66-103.22-27.12-50.14,1.83-94.52,20.48-110.89,46.49Z"/><path d="M609.03,575.33c-.09.47-.22.91-.31,1.38-20.21,3.31-54.45,7.08-93.54,3.44-36.44-3.37-39.63-54.12-39.17-77.35l1.44-.1,135.81-9.7s5.36,38.91-4.23,82.33Z" fill="#fff"/><path d="M547.85,582.75c-10.39,0-21.38-.44-32.77-1.5-37.6-3.48-40.61-56.04-40.16-78.47l.02-1,2.43-.18,136.83-9.77.14,1.02c.05.39,5.27,39.59-4.24,82.7-.05.25-.1.49-.16.73-.05.21-.1.42-.14.64l-.14.76-.76.12c-15.21,2.49-36.45,4.95-61.06,4.95ZM477.09,503.83c-.33,22.34,2.96,71.98,38.19,75.24,37.71,3.51,71.01.17,92.54-3.31.05-.2.1-.41.14-.62v-.04c8.59-38.88,5.08-74.51,4.34-80.92l-135.2,9.65Z"/><path d="M432.2,584.42c-45.85,10.88-86.3,10.2-103.7,9.15-15.33-40.95-16.07-79.06-16.07-79.06l140.32-10.04,7.22-.52c3.75,23.56,7.01,72.24-27.77,80.47Z" fill="#fff"/><path d="M347.45,595.2c-8.09,0-14.59-.27-19.02-.54l-.71-.04-.25-.67c-15.22-40.65-16.13-79.03-16.14-79.42l-.02-1.04,149.58-10.71.16.99c3.46,21.72,7.6,73.15-28.6,81.71h0c-33.59,7.97-64.45,9.71-85,9.71ZM329.27,592.51c16.1.92,56.84,1.72,102.67-9.16h0c33.88-8.01,30.42-56.59,27.1-78.23l-145.48,10.42c.26,6.34,2.25,40.66,15.71,76.98Z"/><path d="M370.43,550.54c-17.87,0-35.71-.33-53.47-1l.08-2.19c50.39,1.9,101.43,1.1,151.72-2.39,48.26-3.34,96.86-9.22,144.47-17.47l.37,2.16c-47.68,8.27-96.36,14.16-144.69,17.5-32.63,2.26-65.59,3.39-98.48,3.39Z"/><rect x="377.13" y="534.44" width="32.4" height="26.93" transform="translate(-21.21 15.87) rotate(-2.25)" fill="#ffcb3f"/><path d="M376.63,563.14l-1.17-29.1,34.57-1.36,1.17,29.1-34.56,1.36ZM377.74,536.14l.99,24.72,30.18-1.19-.99-24.72-30.19,1.19Z"/><polygon points="560.98 550.18 528.67 552.52 526.64 525.66 558.96 523.33 560.98 550.18" fill="#ffcb3f"/><path d="M527.66,553.69l-2.19-29.04,34.5-2.49,2.19,29.04-34.5,2.49ZM527.82,526.67l1.86,24.67,30.13-2.18-1.86-24.67-30.13,2.18Z"/><rect x="317.42" y="554.88" width="280.17" height="4.38" transform="translate(-102.39 103.03) rotate(-11.57)" fill="#7deedf"/><path d="M319.82,588.46l-1.32-6.44,1.08-.22,275.61-56.13,1.32,6.44-1.08.22-275.61,56.13ZM321.09,583.74l.44,2.14,272.39-55.47-.44-2.14-272.39,55.47Z"/><path d="M274.63,723.02c-3.28,4.95-6.6,9.95-9.96,14.9-23.75,35.29-49.19,69.7-83.48,95.6-32.32,24.35-82.02,43.18-109.74,1.68-26.99-40.38-13.09-100.15,2.47-142.04,18.26-49.15,42.38-96.62,71.19-140.41,1.18-1.78,2.53-3.35,3.94-4.62.66,24.07,3.88,46.23,9.64,66.52-11.35,20.28-21.67,41.1-31.15,62.38-14.76,33.03-28.86,69.28-26.68,106.18,1.11,18.27,4.7,37.53,26.53,31.46,15.5-4.32,30.67-17.57,42.36-28.26,22.58-20.63,40.53-45.64,57.56-70.94,3.03-4.51,6.01-8.97,8.99-13.47,15.46-23.33,53.91-2.48,38.32,21.02Z"/><path d="M312.61,568.06c-10.64-6.72-22.74-10.14-51.98,19.37l-.71.03c-11.89-18.93-48.64-40.04-69.84-26.01-28.5,18.86,9.03,53.91,9.03,53.91,0,0-29.19,4.38-19.97,29.03,0,0-52.41,7.88-23.53,66.47,5.2,10.55,13.41,18.21,21.61,23.31,0,0-19.3,9.75-3.53,23.7,21.54,19.06,148.53,8.91,110.99-31.75l5.52-4.85c11.26-11.05,11.68-26.82,12-42.26.23-10.99-1.78-23.94-7.33-39.08,0,0-2.86-21.25,20.34-42.29,9.48-8.6,8.73-22.44-2.6-29.59Z" fill="#fff"/><path d="M218.3,768.26c-21.31,0-38.52-3.53-45.35-9.57-4.87-4.31-7.05-8.72-6.48-13.12.74-5.73,5.93-9.73,8.64-11.45-6.6-4.36-15.02-11.65-20.49-22.78-9.72-19.73-11.4-35.97-4.99-48.26,7.46-14.28,23.35-18.57,28.04-19.55-2.19-6.59-1.88-12.37.95-17.19,4.5-7.65,14.01-10.67,18.23-11.66-4.89-4.96-19.78-21.46-18.49-36.97.58-6.91,4.31-12.7,11.1-17.19,7.02-4.65,16.3-5.91,26.83-3.63,16.65,3.6,35.41,16.08,44.06,29.23,26.77-26.85,39.67-27.31,52.83-19.01h0c5.66,3.58,9.07,8.88,9.6,14.93.52,6.01-1.97,11.99-6.84,16.41-22.46,20.37-20.02,41.12-20,41.33,5.11,13.85,7.6,27.13,7.34,39.24-.33,15.52-.67,31.57-12.33,43.02l-4.73,4.16c10.02,11.42,6.49,19.64,1.67,24.57-10.66,10.91-37.26,16.02-58.6,17.17-3.76.2-7.44.3-11.01.3ZM206.49,557.99c-6.06,0-11.43,1.47-15.81,4.37-6.2,4.1-9.61,9.33-10.12,15.54-1.43,17.08,19.09,36.47,19.3,36.66l1.66,1.55-2.24.34c-.14.02-13.54,2.14-18.76,11.03-2.65,4.51-2.77,10.07-.35,16.52l.48,1.27-1.34.2c-.19.03-19.64,3.14-27.73,18.65-6.07,11.63-4.38,27.19,5.02,46.25,5.68,11.53,14.67,18.79,21.21,22.86l1.66,1.03-1.74.88c-.08.04-8.23,4.25-9.06,10.71-.46,3.63,1.47,7.4,5.76,11.19,16.26,14.39,92.69,11.91,111.93-7.8,6.21-6.36,5.38-13.89-2.47-22.38l-.76-.83,6.36-5.59c10.98-10.78,11.31-26.37,11.63-41.45.25-11.84-2.19-24.85-7.27-38.67-.18-1.12-2.72-22.3,20.64-43.48,4.36-3.95,6.6-9.27,6.13-14.59-.46-5.35-3.51-10.06-8.58-13.26h0c-10.23-6.46-21.81-9.85-50.62,19.22l-.3.31-1.78.06-.34-.53c-8.15-12.97-26.7-25.44-43.14-28.99-3.26-.7-6.39-1.06-9.35-1.06Z"/><path d="M205.4,740.59c-4.1,0-8.19-.34-12.24-1.02-5.7-.96-11.21-2.57-16.39-4.81l.87-2.01c5.02,2.16,10.36,3.73,15.89,4.66,6.39,1.07,12.91,1.27,19.37.6l.23,2.18c-2.57.27-5.15.4-7.72.4Z"/><path d="M250.81,737.83l-.11-2.19c5.61-.27,11.12-1.2,16.39-2.76,6.09-1.8,11.74-4.41,16.81-7.75l1.21,1.83c-5.25,3.46-11.11,6.16-17.4,8.02-5.43,1.61-11.12,2.56-16.9,2.84Z"/><path d="M218.25,710.5c-12.88,0-31.93-9.26-51.9-25.72l1.4-1.69c24.27,20.01,47.74,29.42,58.41,23.43,3.65-2.05,4.9-5.51,5.58-7.37,6.32-17.41-22.11-37.78-27.87-41.68-7.41-5.02-15.85-9.07-25.07-12.05l.67-2.09c9.42,3.04,18.04,7.18,25.62,12.31,8.43,5.71,35.41,25.78,28.71,44.25-.72,1.97-2.21,6.08-6.56,8.53-2.47,1.39-5.5,2.07-8.98,2.07Z"/><path d="M232.33,690.38l-.24-2.18c.16-.02,15.98-1.86,22.43-11.83,3.15-4.87,3.58-10.94,1.29-18.07-8.88-27.54-45.29-40.49-56.84-41.86l.26-2.18c11.91,1.4,49.46,14.81,58.66,43.36,2.51,7.78,1.99,14.49-1.54,19.94-7.02,10.84-23.33,12.73-24.02,12.81Z"/><path d="M247.87,618.37c-21.95,0-48.04-27.98-49.38-29.43l1.61-1.49c.39.42,38.86,41.69,60.11,24.45,9.81-7.96-1.08-23.66-1.19-23.81l1.79-1.27c.12.18,12.18,17.53.78,26.79-4.15,3.37-8.84,4.76-13.72,4.76Z"/><path d="M212.12,599.48l-3.69-2.77c3.55-6.79,9.23-12.29,17.25-17.82,5.57-3.83,10.14-6.39,16.99-8.46l3.56,2.99c-6.42,1.94-12.88,5.5-18.07,9.08-7.43,5.12-12.82,10.83-16.04,16.98Z" fill="#7deedf"/><path d="M212.49,601.13l-5.46-4.1.43-.83c3.45-6.58,8.87-12.2,17.6-18.21,5.4-3.72,10.18-6.46,17.3-8.61l.57-.17,5.56,4.68-1.94.59c-5.51,1.66-11.82,4.84-17.76,8.94-7.27,5.01-12.56,10.59-15.69,16.59l-.6,1.14ZM209.85,596.4l1.92,1.44c3.35-5.88,8.66-11.34,15.78-16.25,5.46-3.76,11.24-6.77,16.47-8.61l-1.59-1.34c-6.56,2.05-10.91,4.55-16.13,8.14-8.05,5.54-13.16,10.7-16.46,16.6Z"/><path d="M204.78,593.13l-3.17-3.21c6.86-5.35,15.74-9.55,26.4-12.49,7.42-2.04,11.79-3.22,19.6-3.23l3.3,3.34c-7.42.02-14.7,2.18-21.75,4.12-10.1,2.78-17.99,6.48-24.4,11.48Z" fill="#7deedf"/><path d="M204.69,594.59l-4.72-4.78.97-.76c6.97-5.44,15.98-9.71,26.79-12.68,7.38-2.03,11.83-3.25,19.89-3.27h.46s5.47,5.53,5.47,5.53h-2.62c-6.77.02-13.5,1.89-20.02,3.69l-1.44.4c-9.93,2.73-17.78,6.42-24.02,11.29l-.77.6ZM203.27,590.03l1.61,1.63c6.33-4.75,14.2-8.38,24.01-11.08l1.44-.4c5.85-1.62,11.88-3.29,18.06-3.68l-1.21-1.22c-7.48.06-11.8,1.25-18.86,3.19-10.02,2.76-18.44,6.64-25.04,11.55Z"/><path d="M261.34,589.5l-1.71-4.03c8.32-3.53,21.7-7.6,38.23-6.94.02,0,.04,0,.07,0,8.34.34,15.72,1.13,23.6,3.74l-.54,4.87c-7.49-2.48-15.32-3.9-23.25-4.23-.02,0-.04,0-.06,0-15.73-.63-28.44,3.24-36.35,6.6Z" fill="#7deedf"/><path d="M260.76,590.94l-2.56-6.05,1.01-.43c8.42-3.57,21.96-7.68,38.7-7.03,7.44.3,15.44.97,23.97,3.8l.84.28-.78,7.1-1.29-.43c-7.4-2.45-15.12-3.85-22.95-4.17-15.56-.62-28.14,3.19-35.94,6.51l-1.01.43ZM261.08,586.06l.85,2.01c8.06-3.29,20.52-6.86,35.81-6.26,7.64.31,15.12,1.61,22.32,3.87l.29-2.64c-7.96-2.51-15.49-3.12-22.46-3.41-15.74-.66-28.55,3.05-36.81,6.43Z"/><path d="M902.26,826.8c3.97,1.32,8.46,1.39,12.26-.47,4.18-2.04,6.59-6.29,7.37-10.73.49-2.78.4-5.48-.25-8.04,5.92-1.18,11.2-5.24,13.55-10.82,2.64-6.27.69-12.7-5.67-15.61-.92-.42-1.89-.73-2.87-1,.65-1.39,1.14-2.85,1.37-4.31.9-5.71-2.09-11.26-6.93-14.34-4.76-3.04-10.6-2.23-15.33.43-5.63,3.17-10.13,8.63-12.22,14.69-.65,1.89,2.36,2.7,3.01.82,2.53-7.32,11.01-16.5,19.67-14.63,4.3.93,8.13,5.05,8.77,9.37.38,2.54-.29,5.15-1.55,7.41-4.1-.36-8.32.59-11.52,3.18-.4.32-.57,1.04-.4,1.51,1.46,4.02,5.29,4.93,8.9,2.89,1.8-1.02,3.36-2.52,4.62-4.26,4.82.95,8.93,4.1,8.22,9.34-.8,5.93-5.69,10.68-11.4,12.14-.42.11-.84.17-1.27.24-.78-1.7-1.84-3.32-3.21-4.8-1.87-2.01-4.47-3.61-7.32-3.19-2.31.34-5.48,2.14-5,4.87.41,2.38,3.2,3.74,5.19,4.61,2.6,1.12,5.34,1.88,8.2,1.84.03,0,.05,0,.07,0,.84,2.78.81,5.66-.05,8.7-1.94,6.89-8.54,9.32-15.08,7.27-8.33-2.62-13.64-10.69-12.75-19.27.2-1.98-2.92-1.96-3.12,0-1.02,9.88,5.35,19.04,14.76,22.16ZM915.02,784.33c1.71-1.06,3.89-1.63,6.16-1.73-1.53,1.56-4.61,3.71-6.16,1.73ZM914.31,804.29c-1.87-.53-4.35-1.28-5.73-2.72-.52-.54-.69-.6-.03-1.05.89-.61,1.89-1,2.99-.83,2.3.35,4.1,2.64,5.25,4.47.13.2.23.41.34.61-.95-.07-1.89-.21-2.82-.47Z"/><path d="M885.11,796.88h0l-54.96.1c-.93,0-1.68.75-1.68,1.67,0,.92.76,1.67,1.68,1.67h0l54.96-.1c.93,0,1.68-.75,1.68-1.67,0-.92-.76-1.67-1.68-1.67Z"/><path d="M884.17,782.19h0l-34.42.06c-.93,0-1.68.75-1.68,1.67,0,.92.76,1.67,1.68,1.67h0l34.42-.06c.93,0,1.68-.75,1.68-1.67,0-.92-.76-1.67-1.68-1.67Z"/><path d="M680.12,687.14c-4.04-3.81-9.81-3.21-13.76.15-15.6,13.3-26.29,30.42-32.48,49.58-3.09,9.56-6.51,19.04-7.99,29.01-1.56,10.46-2.11,21.05-1.9,31.62.24,12.16,19.7,11.96,19.46-.21-.18-8.86.02-17.82,1.31-26.59,1.37-9.33,4.48-18.23,7.39-27.16,5.52-16.92,14.45-31.27,28.25-43.03,3.94-3.35,3.3-9.99-.27-13.36Z"/><path d="M600.5,780.43c-.68.33-3.66,1.78-4.84,4.95-1.15,3.1.1,6.02.37,6.62,3.48,7.44,17.61,6.96,17.61,6.96l-.73,6.21s-42.31-22.75-54.82.29c-12.51,23.05,30.45,33.48,51.79,34.75,21.35,1.27,37.63,6.25,37.34-17.03,0,0,.82-18.79.82-18.81.01-.29,1.36-1.27,1.57-1.49,1.14-1.17,2.19-2.45,3.04-3.85,1.49-2.44,2.2-5.17,1.33-7.62,0,0-.51-1.47-1.75-2.67-4.25-4.13-15.12.95-26.48-.63-12.86-1.79-18.35-11.02-25.26-7.67Z" fill="#ff5779"/><path d="M629.85,842.13c-3.52,0-7.46-.34-11.75-.7-2.66-.23-5.41-.46-8.25-.63-16.53-.98-45.48-7.46-52.81-20.67-2.54-4.58-2.36-9.61.53-14.94,5.25-9.68,16.58-12.82,32.75-9.08,10.23,2.37,19.46,6.82,22.11,8.16l.55-4.71c-2.93,0-14.29-.47-17.48-7.31-.39-.84-1.59-3.85-.39-7.07.82-2.22,2.59-4.04,5.13-5.27,3.98-1.93,7.44-.02,11.81,2.4,3.72,2.06,7.94,4.4,13.79,5.22,4.97.69,9.86.09,14.17-.45,5.62-.7,10.07-1.25,12.63,1.24,1.32,1.29,1.87,2.83,1.89,2.9.85,2.39.36,5.27-1.38,8.12-.81,1.32-1.83,2.61-3.12,3.95-.07.07-.24.21-.46.39-.24.2-.78.63-.95.84l-.82,18.69c.09,7.18-1.41,12.14-4.6,15.1-3.18,2.96-7.73,3.82-13.35,3.82ZM578.05,795.78c-8.02,0-15.4,2.49-19.45,9.97-2.69,4.96-2.87,9.61-.54,13.82,7.1,12.8,35.57,19.1,51.85,20.07,2.86.17,5.62.4,8.28.63,10.85.93,19.41,1.66,24.21-2.81,2.93-2.73,4.32-7.4,4.23-14.27,0-.03.82-18.82.83-18.85.02-.41.34-.73,1.38-1.57.16-.13.3-.24.35-.3,1.23-1.27,2.2-2.5,2.96-3.74,1.1-1.8,2.21-4.49,1.28-7.12,0-.01-.49-1.36-1.61-2.45-2.16-2.1-6.35-1.58-11.67-.92-4.38.54-9.35,1.16-14.48.44-6.06-.85-10.57-3.34-14.19-5.35-4.23-2.35-7.29-4.04-10.73-2.37h0c-2.85,1.38-4.05,3.28-4.54,4.63-1.06,2.87.11,5.64.36,6.17,3.27,7.01,16.91,6.64,17.06,6.63l.68-.02-.91,7.73-.75-.41c-.28-.15-18.7-9.91-34.58-9.91Z"/><path d="M609.87,840.22c-21.03-1.24-63.04-11.41-52.28-33.74,2.05,16.42,35.79,24.1,53.92,25.18,17.18,1.02,31.11,4.45,35.69-6.41-.69,20.9-16.63,16.18-37.33,14.97Z" fill="#fff"/><path d="M629.84,842.12c-3.51,0-7.44-.33-11.71-.7-2.67-.23-5.42-.46-8.28-.63h0c-16.29-.96-44.97-7.34-52.59-20.33-2.57-4.38-2.63-9.17-.18-14.24l.86-1.78.24,1.96c2.05,16.35,36.84,23.68,53.38,24.67,2.87.17,5.63.4,8.3.63,12.94,1.1,23.17,1.97,26.82-6.68l1.22-2.9-.1,3.15c-.21,6.21-1.76,10.53-4.76,13.2-3.18,2.83-7.67,3.65-13.19,3.65ZM609.91,839.64c2.87.17,5.64.4,8.31.63,10.73.91,19.2,1.63,24.02-2.67,2.31-2.06,3.69-5.25,4.19-9.7-4.71,6.85-14.54,6.02-26.69,4.98-2.66-.23-5.42-.46-8.27-.63-8.52-.51-21.71-2.58-33.16-6.87-11.9-4.46-19.07-10.28-20.93-16.93-1.5,4.07-1.21,7.91.86,11.44,7.39,12.6,35.61,18.81,51.66,19.76h0Z"/><polygon points="628.58 814.07 612.54 805.71 613.08 804.67 629.12 813.03 628.58 814.07"/><polygon points="632.72 803.77 613.21 799.58 613.46 798.44 632.96 802.63 632.72 803.77"/><path d="M564.98,802.29c1.71-1.97,4.06-3.69,6.68-4.16,1.06-.19,2.27.27,2.54,1.42.23,1-.3,2.31-1.43,2.52-.51.09-1,.24-1.48.42-.03.02-.05.02-.09.04-.12.06-.25.12-.37.19-.24.13-.48.28-.71.43-.09.06-.19.12-.28.19,0,0-.13.1-.21.15-.07.06-.16.13-.18.15-.11.09-.22.19-.33.28-.43.39-.84.81-1.22,1.25-.17.2-.34.41-.5.61.29-.35.02-.02-.04.05-.09.12-.17.24-.25.36-.33.48-.63.97-.9,1.48-.13.25-.26.5-.38.75-.05.1-.18.43-.23.53-.16.44-.31.88-.43,1.33-.27,1.03-1.42,1.81-2.5,1.49-1.06-.31-1.79-1.37-1.5-2.48.67-2.59,2.05-4.99,3.81-7Z" fill="#fff"/><path d="M798.09,746.2c-12.42.97-24.5,3.75-36.66,6.16-5.62,1.11-11.31,2.02-17.08,2.14-3.09.06-9.69.41-11.66-2.71-1.66-2.64,1.72-6.73,3.3-8.84,3.24-4.33,7.27-8.17,11.46-11.61,9.56-7.84,19.38-15.45,29.08-23.14,4.16-3.3,6.06-8.72,2.85-13.54-2.73-4.1-9.71-6.37-13.89-3.04-12.09,9.59-24.86,18.82-36.25,29.2-10.06,9.16-21.53,23.64-15.18,37.94,6.69,15.05,25.23,16.49,39.56,14.75,15.44-1.87,30.31-6.48,45.88-7.7,12.82-1,11.48-20.61-1.41-19.6Z"/><path d="M790.85,793.53c.57.49,3.08,2.65,6.48,2.48,3.32-.17,5.54-2.45,5.99-2.94,5.53-6.09-.45-18.81-.45-18.81l6.04-1.77s-4.49,47.56,21.77,49.96c26.26,2.39,19.08-40.93,11.89-60.93-7.19-19.99-8.96-36.82-30.42-27.42,0,0-17.73,6.62-17.76,6.62-.28.1-1.71-.74-1.99-.85-1.53-.58-3.13-1.04-4.76-1.27-2.84-.4-5.65.02-7.58,1.77,0,0-1.16,1.04-1.79,2.65-2.16,5.5,6.81,13.44,9.79,24.43,3.38,12.45-3.02,21.08,2.8,26.08Z" fill="#ff5779"/><path d="M832.71,823.12c-.68,0-1.37-.03-2.08-.1-5.41-.49-9.95-2.91-13.48-7.17-10.5-12.66-9.25-37.55-8.88-42.57l-4.58,1.34c1.15,2.69,5.16,13.24.08,18.83-.63.69-2.94,2.95-6.39,3.13-1.65.08-4.19-.3-6.89-2.61h0c-3.36-2.89-2.94-6.79-2.41-11.74.45-4.21.96-8.98-.57-14.63-1.31-4.81-3.78-9.04-5.97-12.76-2.85-4.87-5.11-8.71-3.8-12.03.67-1.71,1.89-2.82,1.94-2.87,1.88-1.71,4.75-2.38,8.06-1.92,1.54.22,3.13.64,4.88,1.3.09.04.29.14.54.26.28.14.9.47,1.15.54,1.49-.56,17.65-6.58,17.65-6.58,6.66-2.92,11.86-3.47,15.87-1.68,6.44,2.87,9.18,11.17,12.65,21.67.83,2.52,1.69,5.12,2.65,7.78,5.54,15.39,10.88,44.25,1.66,56.2-2.87,3.72-6.93,5.6-12.07,5.6ZM809.57,771.69l-.08.86c-.03.29-2.6,29.12,8.55,42.57,3.33,4.02,7.6,6.29,12.69,6.75,5.72.53,10.13-1.18,13.12-5.06,8.94-11.58,3.62-39.94-1.83-55.09-.97-2.68-1.83-5.29-2.66-7.81-3.38-10.23-6.05-18.31-12.02-20.97-3.69-1.65-8.59-1.09-14.96,1.7-.03.01-17.68,6.6-17.78,6.64-.39.14-.81-.03-1.99-.64-.19-.1-.34-.18-.41-.21-1.67-.63-3.18-1.03-4.63-1.24-2.97-.42-5.49.16-7.11,1.63-.01.01-1.07.98-1.64,2.43-1.1,2.79,1.03,6.42,3.73,11.01,2.22,3.79,4.74,8.09,6.09,13.05,1.59,5.87,1.04,10.97.61,15.06-.51,4.78-.88,8.24,2.01,10.73h0c2.4,2.06,4.63,2.41,6.07,2.34,3.08-.16,5.19-2.32,5.58-2.75,5.21-5.74-.49-18.05-.55-18.17l-.29-.62,7.52-2.2Z"/><path d="M842.57,761.52c7.09,19.7,14.14,62.05-10.76,60.98,14.41-8.31,8.29-42.13,2.19-59.12-5.79-16.09-8.07-30.16-19.93-30.09,19.64-7.56,21.51,8.84,28.5,28.23Z" fill="#fff"/><path d="M832.73,823.11c-.31,0-.62,0-.94-.02l-2.01-.09,1.74-1c14.35-8.28,7.5-42.93,1.93-58.42-.97-2.69-1.83-5.3-2.67-7.83-4.04-12.22-7.23-21.87-16.63-21.87h-.08l-3.19.02,2.98-1.15c5.87-2.26,10.51-2.52,14.17-.79,6.27,2.97,8.99,11.17,12.43,21.55.84,2.52,1.7,5.14,2.67,7.81h0c5.46,15.16,10.8,43.74,1.89,55.88-2.88,3.92-7.01,5.91-12.28,5.91ZM816.83,732.96c8.18,1.62,11.26,10.93,15.06,22.42.83,2.52,1.69,5.13,2.66,7.8,2.87,7.99,6.12,20.84,6.63,32.99.53,12.61-2.04,21.44-7.47,25.74,4.41-.23,7.89-2.05,10.35-5.4,8.64-11.77,3.33-39.85-2.05-54.79h0c-.97-2.69-1.84-5.31-2.68-7.84-3.35-10.11-6-18.1-11.82-20.86-2.82-1.34-6.34-1.36-10.7-.06Z"/><polygon points="809.55 772.62 808.38 772.52 809.84 754.6 811 754.7 809.55 772.62"/><rect x="800.57" y="754.88" width="1.17" height="19.82" transform="translate(-130.68 166.09) rotate(-10.95)"/><path d="M825.03,817.39c-2.5-.79-5.01-2.26-6.48-4.47-.59-.89-.63-2.18.32-2.87.83-.61,2.26-.64,2.89.32.28.43.61.82.97,1.19.03.02.04.03.08.07.11.09.21.18.32.26.22.17.44.33.68.49.09.06.19.12.28.18,0,0,.15.08.22.13.08.04.18.1.21.11.13.06.26.13.39.19.53.24,1.08.45,1.63.63.25.08.51.15.76.22-.43-.13-.03,0,.06.01.14.03.29.06.43.09.57.11,1.14.19,1.72.24.28.02.56.04.85.05.11,0,.47,0,.58,0,.47-.02.94-.06,1.4-.13,1.06-.16,2.23.59,2.36,1.7.13,1.09-.57,2.17-1.71,2.34-2.67.4-5.43.08-7.98-.73Z" fill="#fff"/><path d="M594.9,667.44l15.6-211.42,265.73,21.21h.01s44.49-17.18,44.49-17.18c.23-.09.48.09.46.34l-13.15,221.76c-.04.71-.11,1.42-.2,2.12-1.59,12.82-10.95,23.38-23.27,27.55l-21.63,7.32c-11.29-.44-238.5-7.22-238.5-7.22-19.03-1.52-31.08-25.57-29.55-44.46Z" fill="#7deedf"/><path d="M863.03,719.7h-.11c-11.16-.44-236.22-7.15-238.49-7.22-7.09-.57-13.66-4.21-19.05-10.54-7.69-9.05-12.03-22.61-11.07-34.55l15.64-212,266.17,21.24,44.39-17.13c.3-.11.62-.07.88.12.26.19.4.49.38.8l-13.15,221.76c-.04.72-.11,1.44-.2,2.16-1.57,12.7-10.86,23.7-23.66,28.03l-21.73,7.35ZM611.03,456.65l-15.55,210.84c-.94,11.65,3.29,24.88,10.79,33.7,5.18,6.09,11.48,9.59,18.22,10.13,2.24.07,225.94,6.74,238.36,7.21l21.53-7.28c12.38-4.19,21.36-14.81,22.87-27.07.09-.69.15-1.38.19-2.08l13.13-221.38-44.1,17.1h-.3s-265.15-21.17-265.15-21.17Z"/><polygon points="864.69 694.35 864.56 694.35 597.36 685.56 597.4 684.39 864.46 693.18 908.36 673.86 908.83 674.93 864.69 694.35"/><line x1="876.12" y1="477.39" x2="862.63" y2="719.13" fill="#7deedf"/><rect x="748.32" y="597.68" width="242.11" height="1.17" transform="translate(222.79 1432.32) rotate(-86.75)"/><path d="M630.22,412.08l25.36,22.4s265.71,26.2,265.71,26.04c-.12-52.45-20.58-59.93-54.25-64.45-49.12-6.6-131.25-14.32-187.19-16.05-35.29-1.09-47.63,24.06-49.64,32.06Z" fill="#7deedf"/><path d="M921.43,460.99c-2.16,0-23.96-2.07-265.9-25.93l-.19-.02-25.77-22.76.09-.35c.09-.34,8.9-33.76,50.22-32.5,57.21,1.77,139.17,9.59,187.25,16.05,33,4.43,54.64,11.36,54.76,65.03v.26s-.19.17-.19.17c-.02.02-.05.04-.26.04ZM655.83,433.92c8.1.8,251.13,24.76,264.88,25.97-.29-52.14-21.49-58.91-53.74-63.24-48.04-6.46-129.95-14.27-187.13-16.04-38.05-1.15-47.92,27.8-48.96,31.28l24.95,22.04Z"/><polyline points="898.01 404.83 879.44 436.73 629.94 412.13" fill="#7deedf"/><polygon points="879.76 437.35 879.39 437.32 629.88 412.72 629.99 411.55 879.13 436.12 897.5 404.53 898.51 405.12 879.76 437.35"/><line x1="920.89" y1="460.08" x2="879.44" y2="436.73" fill="#7deedf"/><rect x="899.58" y="424.62" width="1.17" height="47.57" transform="translate(67.72 1012.68) rotate(-60.61)"/><path d="M920.94,460.12l-44.71,17.11-265.13-21.16c-.16-.01-.2-.23-.05-.3l44.65-21.55,265.19,25.53c.2.02.24.29.05.36Z" fill="#ffcb3f"/><path d="M876.31,477.82h-.13s-265.13-21.17-265.13-21.17c-.34-.03-.62-.28-.67-.61-.06-.33.12-.66.42-.8l44.79-21.61h.16s265.19,25.55,265.19,25.55c.36.04.64.31.69.67s-.15.69-.49.82l-44.83,17.16ZM612.71,455.61l263.43,21.02,43.01-16.46-263.35-25.36-43.09,20.79ZM920.73,459.57s0,0,0,0h0ZM611.31,456.29h-.02s.01,0,.02,0Z"/><rect x="828.63" y="463.81" width="45.59" height="1.17" transform="translate(-115.05 383.71) rotate(-23.84)"/><path d="M691.15,462.76h-.19s-50.64-3.82-50.64-3.82l39.39-23.06.19.02,46.32,4.87-35.07,21.99ZM644.14,458.06l46.72,3.51,31.88-19.99-42.77-4.5-35.83,20.98Z"/><path d="M871.88,463.2c.03,1.23,2.69,2.16,5.93,2.08,3.24-.08,5.85-1.15,5.82-2.38-.03-1.23-2.69-2.16-5.93-2.08-3.24.08-5.85,1.15-5.82,2.38Z"/><path d="M877.42,465.86c-3.07,0-6.08-.89-6.12-2.65h0c-.02-.86.7-1.63,2.04-2.18,1.16-.48,2.7-.76,4.34-.8,3.17-.08,6.48.8,6.53,2.65.02.86-.7,1.63-2.04,2.18-1.16.48-2.7.76-4.34.8-.13,0-.27,0-.4,0ZM878.09,461.4c-.13,0-.25,0-.38,0-1.5.04-2.9.29-3.93.72-.92.38-1.32.81-1.32,1.06h0c.02.65,2.15,1.59,5.33,1.51,1.5-.04,2.89-.29,3.93-.72.92-.38,1.32-.81,1.32-1.07-.02-.63-1.98-1.51-4.95-1.51Z"/><path d="M564.4,424.59c3.79,7.59,10.94,12.51,18.51,15.97,8.1,3.7,16.75,6.7,25.3,9.18,10.97,3.18,22.28,5.23,33.7,5.83,21.69,1.13,42-4.21,61.76-12.74,20.39-8.8,40.28-19.95,62.41-23.87,20.31-3.6,41.67-1.64,60.98,5.59,18.96,7.1,39.06,19.51,47.64,38.53,1.79,3.98,8.28,1.74,6.47-2.27-9.34-20.71-30.27-34.59-51.07-42.37-19.46-7.28-40.75-9.82-61.35-6.78-21.75,3.21-41.29,13.05-61.09,21.97-21.22,9.56-42.63,16.45-66.23,15.14-16-.89-31.69-4.88-46.54-10.78-11.01-4.37-23.03-9.27-26.42-21.77-3.22-11.86,1.26-25.22,9.5-34.06,19.85-21.3,55.29-20.81,82-18.41,30.74,2.76,60.92,10.05,91.81,11.32,32.63,1.34,63.75-7.62,95.77-12.07,31.13-4.33,62.1-1.33,90.58,12.49,12.57,6.1,25.24,13.95,33.56,25.39,9.18,12.61,10.51,28.32,8.59,43.35-1.92,15.06-6.82,29.52-9.63,44.4-2.86,15.11-2.53,29.89.94,44.88,6.64,28.62,22.66,56.29,19.46,86.51-1.07,10.08-5.08,23.9-14.02,30.54-.47-6.92-2.43-13.68-6.24-19.69-5.92-9.34-19.03-19.37-30.91-15.97-10.58,3.03-12.34,15.1-7.71,23.5.09.24.2.49.35.73,3.43,5.6,7.86,10.69,13.19,14.6,7.07,5.19,15.86,8.29,24.23,7-1.73,14.45-9.47,28.88-24.34,28.38-4.42-.15-3.89,6.65.48,6.8,15.6.53,24.2-11.86,28.43-25.23,1.24-3.94,2.08-8.04,2.44-12.16,1.14-.57,2.27-1.24,3.36-2.03,11.3-8.13,16.47-23.35,17.62-36.62,2.86-32.85-14.85-61.66-20.8-93.04-3.36-17.73-.64-34.55,3.63-51.86,3.89-15.76,8.12-31.74,6.97-48.12-1.04-14.89-7.23-28.1-18.01-38.48-10.83-10.42-24.79-17.92-38.7-23.44-14.71-5.83-30.28-9.4-46.09-10.45-17.38-1.16-34.65.95-51.74,3.96-17.56,3.09-35,7.03-52.75,8.92-17.47,1.86-34.91,1.04-52.32-1.08-33.45-4.08-66.81-12.13-100.73-9.91-26.79,1.75-57.36,12.15-65.22,40.61-2.49,9-1.97,19.2,2.23,27.63ZM970.3,653.79c-.11.03-.21.06-.31.09-11.26,2.7-21.97-5.38-28.73-14.14-.83-.85-2.54-3.35-3.08-4.45-1.13-2.28-2.52-7.86-.11-11.16,3.33-4.57,9.97-2.87,14.32-.86,7.63,3.52,13.35,10.5,16.02,18.35,1.2,3.51,1.84,7.73,1.9,12.19Z" fill="#fff"/><path d="M946.99,696.5c-.31,0-.63,0-.94-.02-2.66-.09-4.18-2.38-4.11-4.53.06-1.77,1.25-3.47,3.67-3.43,14.73.51,21.89-14.12,23.65-27.11-7.69.93-16.35-1.67-23.9-7.21-5.18-3.8-9.67-8.77-13.34-14.76-.16-.27-.3-.54-.4-.85-2.76-4.98-3.23-11.17-1.19-16.08,1.7-4.09,4.91-6.91,9.29-8.17,11.71-3.36,25,5.85,31.57,16.22,3.51,5.54,5.61,11.89,6.24,18.87,7.91-6.53,11.87-19.38,12.94-29.47,2.14-20.24-4.51-39.67-10.94-58.46-3.11-9.09-6.33-18.5-8.5-27.85-3.51-15.16-3.82-29.92-.95-45.12,1.16-6.15,2.7-12.31,4.19-18.27,2.12-8.49,4.31-17.27,5.44-26.1,2.26-17.65-.6-32.1-8.48-42.93-9.09-12.49-23.39-20.37-33.35-25.2-26.54-12.89-56.9-17.07-90.24-12.44-9.8,1.36-19.68,3.18-29.23,4.93-21.61,3.97-43.94,8.08-66.64,7.14-17.65-.73-35.35-3.46-52.46-6.1-12.88-1.99-26.19-4.04-39.38-5.22-27.72-2.49-62.05-2.67-81.52,18.22-8.68,9.31-12.36,22.47-9.36,33.51,3.35,12.36,15.42,17.16,26.07,21.38,15.86,6.3,31.45,9.91,46.35,10.74,25.49,1.42,47.63-6.83,65.96-15.09,2.37-1.07,4.73-2.15,7.1-3.23,17.17-7.84,34.92-15.95,54.15-18.79,20.39-3,41.7-.65,61.64,6.81,14.45,5.41,40.33,18.14,51.4,42.68,1.02,2.26-.19,4.02-1.84,4.77-1.92.87-4.57.46-5.69-2.02-9.68-21.47-33.8-33.17-47.31-38.22-19.34-7.24-40.32-9.16-60.67-5.56-16.79,2.97-32.52,10.24-47.74,17.26-4.76,2.2-9.67,4.47-14.54,6.57-22.59,9.75-42.3,13.82-62.02,12.78-11.04-.57-22.42-2.54-33.83-5.85-9.63-2.79-17.93-5.8-25.38-9.21-9.31-4.25-15.46-9.57-18.79-16.24h0c-4.1-8.21-4.93-18.43-2.27-28.04,9.33-33.77,49.09-39.95,65.75-41.04,24.56-1.61,49.18,2.21,72.98,5.9,9.13,1.42,18.57,2.88,27.85,4.01,19.81,2.41,36.39,2.76,52.19,1.08,12.53-1.33,25.12-3.73,37.29-6.05,5.05-.96,10.27-1.96,15.42-2.86,14.24-2.51,33-5.23,51.88-3.96,15.79,1.05,31.36,4.58,46.26,10.49,16.25,6.44,29.34,14.37,38.89,23.56,10.85,10.44,17.14,23.88,18.19,38.86,1.1,15.67-2.72,31.07-6.41,45.97l-.58,2.33c-3.94,15.96-7.11,33.26-3.63,51.61,2.17,11.43,5.96,22.71,9.63,33.62,6.39,18.99,12.99,38.62,11.17,59.58-.67,7.76-3.77,26.91-17.86,37.05-1,.72-2.06,1.37-3.15,1.93-.38,4.02-1.2,8.04-2.44,11.96-5.24,16.58-15.18,25.66-28.06,25.66ZM945.45,689.69c-1.66,0-2.3,1.18-2.34,2.3-.05,1.56.97,3.26,2.98,3.33,9.03.33,21.2-3.75,27.85-24.83,1.25-3.95,2.06-8,2.42-12.04l.03-.33.29-.15c1.14-.57,2.25-1.24,3.28-1.98,13.7-9.86,16.72-28.6,17.38-36.2,1.8-20.72-4.76-40.24-11.12-59.11-3.68-10.95-7.49-22.27-9.67-33.77-3.52-18.57-.33-36.01,3.64-52.1l.58-2.33c3.67-14.81,7.47-30.13,6.38-45.61-1.03-14.68-7.2-27.86-17.84-38.1-9.44-9.08-22.4-16.93-38.51-23.31-14.79-5.86-30.24-9.37-45.91-10.41-18.74-1.25-37.42,1.45-51.6,3.95-5.14.9-10.36,1.9-15.4,2.86-12.2,2.32-24.81,4.73-37.39,6.07-15.88,1.69-32.55,1.34-52.45-1.08-9.3-1.14-18.75-2.6-27.89-4.02-23.75-3.68-48.31-7.49-72.73-5.89-16.41,1.07-55.57,7.14-64.7,40.19-2.58,9.34-1.78,19.26,2.19,27.21h0c3.21,6.42,9.17,11.56,18.23,15.7,7.39,3.38,15.64,6.37,25.22,9.15,11.33,3.28,22.62,5.24,33.57,5.81,19.54,1.02,39.08-3.02,61.5-12.69,4.85-2.09,9.76-4.36,14.51-6.55,15.29-7.06,31.09-14.35,48.03-17.35,20.56-3.64,41.75-1.7,61.28,5.61,13.68,5.12,38.11,16.98,47.97,38.84.81,1.79,2.74,2.08,4.15,1.44,1.09-.49,1.99-1.6,1.26-3.22-10.89-24.16-36.47-36.72-50.74-42.07-19.76-7.39-40.87-9.73-61.06-6.75-19.06,2.81-36.74,10.89-53.83,18.7-2.37,1.08-4.73,2.16-7.1,3.23-18.45,8.31-40.78,16.62-66.5,15.19-15.03-.83-30.75-4.47-46.72-10.82-10.9-4.33-23.26-9.24-26.77-22.16-3.1-11.42.68-25.01,9.63-34.61,19.82-21.26,54.49-21.11,82.48-18.59,13.23,1.19,26.56,3.24,39.45,5.23,17.08,2.63,34.74,5.36,52.33,6.08,22.56.94,44.84-3.16,66.38-7.12,9.57-1.76,19.46-3.57,29.28-4.94,33.57-4.67,64.16-.45,90.91,12.54,10.07,4.89,24.53,12.86,33.78,25.57,8.07,11.08,10.99,25.81,8.7,43.77-1.14,8.89-3.34,17.71-5.46,26.23-1.48,5.95-3.02,12.1-4.17,18.21-2.85,15.04-2.54,29.64.94,44.64,2.15,9.3,5.36,18.67,8.47,27.73,6.47,18.91,13.17,38.47,11,58.97-.55,5.19-3.2,22.74-14.25,30.95l-.86.64-.07-1.07c-.49-7.22-2.56-13.76-6.15-19.42-5.43-8.57-18.42-19.12-30.26-15.72-4.03,1.15-6.98,3.75-8.54,7.49-1.9,4.59-1.45,10.4,1.17,15.16.12.31.21.52.33.71,3.59,5.86,7.98,10.72,13.03,14.43,7.56,5.55,16.24,8.06,23.8,6.9l.76-.12-.09.76c-1.63,13.66-9.16,29.37-24.94,28.89-.04,0-.08,0-.12,0ZM965.49,655c-12.15,0-21.79-11.13-24.7-14.9-.85-.87-2.59-3.44-3.14-4.55-1.14-2.3-2.65-8.21-.06-11.77,3.92-5.4,11.82-2.53,15.04-1.05,7.51,3.46,13.46,10.27,16.33,18.69,1.2,3.52,1.87,7.8,1.93,12.37v.46s-.44.12-.44.12l-.15-.57.03.6-.21.06c-1.58.38-3.12.55-4.63.55ZM944.35,621.8c-2.21,0-4.36.66-5.82,2.66-2.27,3.12-.87,8.47.17,10.56.54,1.09,2.23,3.54,2.97,4.31,3.19,4.13,14.49,17.17,28.04,14.01-.1-4.28-.74-8.26-1.86-11.55-2.77-8.12-8.5-14.68-15.71-18-1.7-.78-4.8-1.99-7.79-1.99Z"/><path d="M704.2,445.93s-30.91-22.59-42.37-10.46c-10.95,11.59,26.2,21.85,26.2,21.85l16.17-11.39Z" fill="#ffcb3f"/><path d="M688.15,457.96l-.27-.07c-1.06-.29-25.86-7.24-28.43-16.46-.61-2.19.05-4.33,1.96-6.36,11.68-12.36,41.86,9.46,43.14,10.39l.66.48-17.06,12.02ZM671.24,432.48c-3.54,0-6.68.96-8.98,3.39-1.63,1.73-2.19,3.44-1.68,5.24,2.26,8.11,24.66,14.8,27.35,15.57l15.26-10.75c-3.5-2.44-19.99-13.45-31.96-13.45Z"/><path d="M737.88,558.51c-2.01,12.95-2.25,25.45-1.01,36.68,11.28-2.54,25.21-2.66,39.82.26,2.21.43,4.37.92,6.45,1.5,10.82,2.77,20.45,6.94,28.13,11.91,5.06-10.83,8.93-23.59,11.08-37.45,6.72-43.95-6.7-82.45-30.01-86.04-16.49-2.5-33.43,13.01-44.38,37.8-.04.03-.05.06-.05.09-4.53,10.34-8.05,22.31-10.03,35.23Z" fill="#fff"/><path d="M811.51,609.72l-.56-.36c-7.83-5.06-17.49-9.15-27.96-11.84-1.97-.55-4.06-1.04-6.42-1.5-13.93-2.79-27.98-2.88-39.58-.27l-.64.14-.07-.65c-1.28-11.6-.93-24.34,1.01-36.84,1.93-12.64,5.32-24.54,10.07-35.38l.08-.17c11.48-25.95,28.71-40.53,44.97-38.07,23.57,3.63,37.25,42.52,30.5,86.71-2.1,13.51-5.95,26.52-11.13,37.61l-.28.61ZM755.24,592.7c6.99,0,14.29.73,21.56,2.18,2.38.47,4.51.96,6.49,1.51,10.32,2.65,19.9,6.66,27.72,11.62,4.99-10.86,8.71-23.53,10.75-36.69,6.65-43.54-6.59-81.84-29.52-85.37-15.71-2.37-32.5,11.97-43.76,37.46l-.11.18c-4.63,10.67-8.05,22.72-9.93,35h0c-1.89,12.16-2.26,24.56-1.08,35.88,5.51-1.19,11.56-1.78,17.86-1.78Z"/><path d="M827.8,578.28c-1.77,0-3.63-.27-5.53-.89l.36-1.11c11.97,3.93,21.84-7.29,21.94-7.41l.88.76c-.09.1-7.6,8.64-17.65,8.64Z"/><path d="M824.57,539.89c-.22,0-.43,0-.65-.01l.04-1.17c13.64.51,18.95-14.95,19-15.11l1.11.37c-.05.16-5.49,15.92-19.5,15.92Z"/><path d="M824.39,562.19c-.1,0-.2,0-.3,0l.02-1.17c.09,0,.19,0,.28,0,13.49,0,18.87-13.11,18.93-13.24l1.08.43c-.06.14-5.72,13.98-20.01,13.98Z"/><path d="M737.88,558.51c-2.01,12.95-2.25,25.45-1.01,36.68,11.28-2.54,25.21-2.66,39.82.26,2.21.43,4.37.92,6.45,1.5,3.38-8.66,5.24-18.87,7.21-29.37.38-2,.69-3.96,1-5.91l-29.03-13.09,30.6-5.35c.46-24.42-6.29-42.41-17.97-43.65-9.02-.93-18.97,8.42-26.99,23.6-.04.03-.05.06-.05.09-4.53,10.34-8.05,22.31-10.03,35.23Z"/><path d="M783.49,597.66l-.51-.14c-1.96-.54-4.05-1.03-6.41-1.49-13.93-2.79-27.98-2.88-39.58-.27l-.64.14-.07-.65c-1.28-11.6-.93-24.34,1.01-36.84,1.93-12.64,5.32-24.54,10.07-35.38l.09-.18c8.51-16.09,18.58-24.79,27.54-23.86,11.72,1.25,18.98,18.62,18.5,44.24v.48s-29.21,5.11-29.21,5.11l27.7,12.5-.07.44c-.28,1.8-.6,3.85-1,5.92l-.21,1.1c-1.93,10.26-3.75,19.96-7.03,28.37l-.19.49ZM755.24,592.7c6.99,0,14.29.73,21.56,2.18,2.18.43,4.14.88,5.98,1.37,3.13-8.19,4.9-17.66,6.78-27.67l.21-1.11c.36-1.89.66-3.76.93-5.45l-30.36-13.69,32-5.6c.36-24.34-6.63-41.43-17.46-42.58-8.38-.85-18.25,7.84-26.41,23.29l-.09.14c-4.63,10.67-8.05,22.72-9.93,35h0c-1.89,12.16-2.26,24.56-1.08,35.88,5.51-1.19,11.56-1.78,17.86-1.78Z"/><path d="M608.4,584.23c.02.13.01.27.07.37,0,.1.02.2.04.3.04.37.11.73.18,1.1,1.57-.54,3.17-1.01,4.85-1.44.89-.25,1.82-.49,2.77-.7h.03c8.3-1.9,17.72-2.72,27.64-2.18,3.94.19,7.76.61,11.45,1.22.53.1,1.02.16,1.52.25,9.11,1.62,17.3,4.34,24.06,7.84,3.85-10.28,6.66-22.1,7.91-34.78,4.29-43-10.49-79.68-33-81.93-12.48-1.25-24.72,8.38-33.85,24.48,0,0,0,.03-.03.03-1.38,2.44-2.67,5.08-3.88,7.82-.11.29-.25.55-.37.84-.18.39-.36.77-.54,1.16-.22.48-.44,1-.66,1.52-.36.81-.7,1.62-1,2.46-.45,1.1-.86,2.2-1.25,3.34-.42,1.17-.81,2.34-1.16,3.51-1.01,3.12-1.91,6.41-2.69,9.85-.26,1.11-.52,2.25-.75,3.4-.04.06-.04.13-.04.2-.32,1.57-.64,3.18-.9,4.82-.2,1.11-.36,2.26-.53,3.41-.12.85-.23,1.71-.35,2.56-.05.23-.06.43-.1.66-.17,1.22-.31,2.5-.43,3.75-1.29,12.87-.84,25.18,1,36.15Z" fill="#fff"/><path d="M681.34,591.81l-.58-.3c-6.81-3.53-15.08-6.22-23.9-7.79-.26-.05-.51-.09-.77-.13-.25-.04-.5-.08-.76-.13-3.73-.62-7.56-1.03-11.37-1.21-9.55-.52-19.05.23-27.49,2.17l-.09.02h-.09c-.81.19-1.72.43-2.6.67-1.72.44-3.3.91-4.82,1.43l-.64.22-.13-.66c-.08-.43-.15-.79-.19-1.15-.01-.03-.04-.12-.05-.25-.04-.12-.05-.22-.05-.3l.56-.19-.58.1c-1.9-11.31-2.25-23.86-1-36.31.11-1.26.26-2.55.43-3.77.03-.14.04-.24.05-.33.02-.12.03-.23.06-.36l.35-2.53c.17-1.16.34-2.31.53-3.44.26-1.6.57-3.2.9-4.83,0-.02,0-.13.06-.26.23-1.13.48-2.26.74-3.35.79-3.46,1.7-6.79,2.71-9.89.36-1.17.75-2.35,1.17-3.53.37-1.08.78-2.19,1.25-3.36.28-.79.62-1.61,1.01-2.48.22-.51.44-1.03.66-1.52l.55-1.17c.05-.12.12-.27.18-.42.06-.13.12-.25.17-.38,1.28-2.9,2.59-5.55,3.91-7.9l.18-.32h.02c9.61-16.78,22.08-25.69,34.25-24.48,22.8,2.28,37.84,39.33,33.52,82.57-1.19,12.15-3.94,24.23-7.94,34.92l-.23.62ZM638.08,580.93c1.97,0,3.95.05,5.94.16,3.85.19,7.73.6,11.52,1.23.26.05.5.08.74.12.27.04.53.08.8.13,8.68,1.54,16.84,4.16,23.64,7.6,3.85-10.45,6.49-22.19,7.64-34.02,4.25-42.61-10.31-79.07-32.47-81.3-11.72-1.17-23.84,7.6-33.22,24.07v.11s-.16.14-.16.14c-1.29,2.29-2.56,4.87-3.79,7.67-.05.13-.12.28-.19.43-.06.13-.12.25-.17.39l-.56,1.2c-.21.47-.43.99-.65,1.5-.38.85-.71,1.64-.99,2.43-.48,1.17-.88,2.26-1.24,3.33-.42,1.17-.8,2.33-1.16,3.49-1,3.08-1.9,6.37-2.68,9.81-.26,1.11-.52,2.25-.75,3.39l-.06.16c-.32,1.71-.63,3.23-.88,4.83-.2,1.12-.36,2.26-.53,3.4l-.35,2.56c-.02.14-.04.23-.05.32-.02.12-.03.24-.06.37-.16,1.17-.31,2.44-.42,3.69-1.23,12.35-.89,24.8.99,36l.11.32-.03.19.04.2c.01.13.03.26.05.4,1.35-.45,2.75-.85,4.26-1.24.89-.25,1.83-.49,2.79-.71l.08-.02h.09c6.67-1.54,14.11-2.34,21.73-2.34Z"/><path d="M606.11,553.55c-12.85,0-18.95-13.94-19.01-14.08l1.07-.46c.06.13,5.86,13.37,17.93,13.37h.05v1.17h-.05Z"/><path d="M614.36,517.3c-13.6-3.02-14.9-19.66-14.91-19.83l1.16-.08c.01.16,1.25,15.94,14,18.77l-.25,1.14Z"/><path d="M608.97,536.97c-13.54-3.31-15.5-17.9-15.52-18.05l1.16-.14c.02.14,1.89,13.95,14.64,17.06l-.28,1.13Z"/><path d="M608.51,585.91s6.85-1.84,7.8-2.05h.03c8.3-1.9,17.72-2.72,27.64-2.18,3.94.19,7.76.61,11.45,1.22,2.42-9,4.06-19.14,4.77-29.79.13-2.05.23-4.06.29-6.04l-29.2-8.9,28.34-9.66.29-.12c-1.16-12.32-3.88-22.77-7.78-30.02-3.78-7.17-8.72-11.26-14.31-11.06-7.16.32-14.15,7.66-19.68,19.3-.29.65-.62,1.32-.91,2-.22.48-.44,1-.66,1.52-.36.81-.7,1.62-1,2.46-.45,1.1-.86,2.2-1.25,3.34-.42,1.17-.81,2.34-1.16,3.51-1.01,3.12-1.91,6.41-2.69,9.85-.26,1.11-.52,2.25-.75,3.4-.04.06-.04.13-.04.2-.32,1.57-.64,3.18-.9,4.82-.2,1.11-.36,2.26-.53,3.41-.12.85-.23,1.71-.35,2.56-.05.23-.06.43-.1.66-.17,1.22-.31,2.5-.43,3.75-1.29,12.87-.08,26.83,1.11,37.83Z"/><path d="M608.44,586.49c-.11,0-.16-.03-.24-.08l-.23-.15-.03-.28c-1.26-11.62-2.39-25.22-1.11-37.95.11-1.26.26-2.55.43-3.77.03-.14.04-.24.05-.33.02-.12.03-.23.06-.36l.35-2.53c.17-1.16.34-2.31.53-3.44.26-1.6.57-3.2.9-4.83,0-.02,0-.13.06-.26.23-1.13.48-2.26.74-3.35.79-3.46,1.7-6.79,2.71-9.89.36-1.17.75-2.35,1.17-3.53.37-1.08.78-2.19,1.25-3.36.28-.79.62-1.61,1.01-2.48.22-.51.44-1.03.66-1.52.18-.42.38-.85.58-1.28l.33-.73c5.87-12.36,13.04-19.33,20.18-19.64,5.71-.24,10.82,3.72,14.85,11.37,3.96,7.36,6.67,17.82,7.84,30.24l.04.43-.69.28-26.66,9.09,27.89,8.5v.45c-.08,1.99-.17,4.01-.3,6.06-.71,10.65-2.32,20.71-4.79,29.91l-.14.51-.52-.09c-3.75-.62-7.58-1.03-11.39-1.21-9.55-.52-19.05.23-27.49,2.17l-.09.02h-.09c-.53.13-4.24,1.12-6.24,1.65-1.05.28-1.43.38-1.62.38ZM638.26,487.89c-.13,0-.26,0-.39,0-6.69.29-13.5,7.03-19.17,18.97l-.33.73c-.19.41-.39.83-.57,1.26-.22.49-.44,1-.66,1.51-.38.85-.71,1.64-.99,2.43-.48,1.17-.88,2.26-1.24,3.33-.42,1.17-.8,2.33-1.16,3.49-1,3.08-1.9,6.37-2.68,9.81-.26,1.11-.52,2.25-.75,3.39l-.06.16c-.32,1.71-.63,3.23-.88,4.83-.2,1.12-.36,2.26-.53,3.4l-.35,2.56c-.02.14-.04.23-.05.32-.02.12-.03.24-.06.37-.16,1.17-.31,2.44-.42,3.69-1.24,12.39-.19,25.63,1.04,37.04.21-.06.46-.12.74-.2,2.15-.57,5.74-1.53,6.43-1.69l.08-.02h.09c8.39-1.94,18-2.7,27.66-2.18,3.67.18,7.37.57,10.99,1.14,2.38-8.98,3.93-18.8,4.62-29.17.12-1.88.21-3.74.27-5.58l-30.5-9.3,29.91-10.19c-1.18-12.07-3.83-22.21-7.67-29.35-3.71-7.05-8.33-10.76-13.38-10.76Z"/><path d="M723.77,594.57c.08,8.01-6.94,14.57-15.66,14.65-8.72.08-15.86-6.35-15.93-14.36-.07-8.01,6.94-14.57,15.66-14.65,8.72-.08,15.86,6.35,15.93,14.36Z" fill="#0069c2"/><path d="M707.95,609.8c-8.96,0-16.28-6.67-16.35-14.94-.04-4.04,1.64-7.85,4.72-10.73,3.07-2.87,7.16-4.47,11.52-4.51.06,0,.11,0,.17,0,8.96,0,16.28,6.67,16.36,14.94.04,4.04-1.64,7.85-4.72,10.73-3.07,2.87-7.16,4.47-11.52,4.51-.06,0-.11,0-.17,0ZM708,580.79c-.05,0-.1,0-.15,0-4.07.04-7.89,1.53-10.74,4.19-2.84,2.65-4.38,6.16-4.35,9.86.07,7.63,6.87,13.78,15.19,13.78.05,0,.1,0,.16,0,4.07-.04,7.89-1.53,10.74-4.19,2.84-2.65,4.38-6.16,4.35-9.86-.07-7.63-6.87-13.78-15.19-13.78Z"/><path d="M711.95,585.9c-5.92,2.28-2.36,11.41,3.56,9.13,5.92-2.28,2.36-11.41-3.56-9.13Z" fill="#fff"/><path d="M778.03,609.52c1.25.55,2.32,1.42,3.36,2.32.95.99,1.85,2.06,2.54,3.29,1.42,2.43,1.97,5.32,1.94,8.12l-.23,2.09-.5,2.03c-.14.68-.37,1.33-.64,1.97-.24.64-.52,1.27-.8,1.9-.68,1.19-1.36,2.36-2.09,3.5-.87,1.05-1.68,2.12-2.58,3.11l-.09-.07,2.14-3.35c.62-1.17,1.21-2.36,1.79-3.55.92-2.47,1.81-5.01,1.84-7.68.11-2.63-.39-5.3-1.58-7.66-1.17-2.36-2.96-4.44-5.14-5.92l.06-.1Z"/><path d="M784.8,608.91c1.15.26,2.19.82,3.22,1.42.96.69,1.89,1.46,2.67,2.4,1.58,1.85,2.49,4.23,2.88,6.63.3,2.44-.09,4.84-.7,7.11-.41,1.11-.83,2.2-1.29,3.26-.6,1.01-1.14,2.03-1.79,2.98l-.11-.05,1.32-3.15c.35-1.08.68-2.17.99-3.26.42-2.22.79-4.5.42-6.75-.29-2.24-1.1-4.42-2.45-6.24-1.33-1.83-3.14-3.32-5.2-4.25l.04-.11Z"/><path d="M637.37,600.89c-2.3,1.32-4.3,3.04-5.79,5.07-1.5,2.02-2.53,4.33-2.94,6.8-.62,2.45-.34,5.03-.16,7.59.19,1.28.42,2.57.66,3.86.29,1.29.64,2.56.88,3.89l-.11.04-1.36-3.76c-.35-1.28-.67-2.58-.96-3.88-.36-2.63-.66-5.33-.09-7.97.52-2.62,1.65-5.13,3.39-7.17,1.72-2.05,3.95-3.65,6.45-4.6l.04.11Z"/><path d="M630.9,598.78c-2.12.84-4.03,2.02-5.55,3.53-1.53,1.5-2.73,3.27-3.41,5.28-.89,1.95-1.03,4.16-1.27,6.34-.04,1.1-.05,2.22-.05,3.35.03,1.13.13,2.26.1,3.43l-.11.03-.6-3.37c-.11-1.14-.19-2.28-.25-3.42.08-2.28.23-4.6,1.09-6.75.82-2.14,2.15-4.1,3.92-5.57,1.75-1.48,3.87-2.51,6.12-2.95l.02.12Z"/><path d="M708.6,617.13c18.11,1.27,30.97-7.25,47.62-6.31,9.35.53,18.34,2.94,18.5,13.62.28,19.54-14.32,32.42-31.96,40.05-22.79,9.85-48.89,8.73-71.31-1.92-18.89-8.96-38.45-23.99-33.91-46.88,2.08-10.47,10.78-11.8,20.12-11.12,16.63,1.21,34.38,11.4,50.95,12.56Z" fill="#fff"/><path d="M709.63,671.85c-13.01,0-26.16-2.93-38.44-8.76-18.2-8.64-38.92-23.9-34.23-47.52,2.27-11.45,12.27-12.21,20.73-11.59,8.38.61,17.13,3.51,25.6,6.32,8.42,2.79,17.12,5.67,25.34,6.25,9.25.65,17.21-1.3,24.9-3.19,7.49-1.84,14.56-3.58,22.71-3.12,8.09.46,18.88,2.42,19.05,14.19.31,21.86-17.4,34.14-32.31,40.59-10.55,4.56-21.9,6.83-33.35,6.83ZM653.74,604.99c-7.17,0-13.87,1.91-15.63,10.81-4.54,22.88,15.76,37.77,33.58,46.23,22.8,10.82,48.62,11.52,70.83,1.91,14.59-6.31,31.91-18.28,31.61-39.5-.15-10.67-9.67-12.58-17.95-13.04-7.97-.45-14.96,1.27-22.36,3.09-7.78,1.91-15.83,3.88-25.26,3.22h0c-8.37-.59-17.14-3.49-25.63-6.31-8.4-2.78-17.09-5.66-25.32-6.26-1.29-.09-2.59-.16-3.87-.16Z"/><path d="M670.87,662.67c-1.7-9.6-1.97-19.36-.78-29.01,1.05-8.56,3.23-16.97,6.49-24.98l1.08.44c-3.22,7.92-5.38,16.22-6.42,24.68-1.17,9.54-.91,19.18.77,28.67l-1.15.21Z"/><path d="M705.54,671.29c-2.08-9.53-2.83-19.29-2.23-29,.53-8.59,2.12-17.12,4.73-25.35l1.11.35c-2.58,8.14-4.15,16.57-4.68,25.07-.59,9.6.14,19.25,2.2,28.68l-1.14.25Z"/><path d="M742.19,664.63c-2.26-8.26-3.43-16.78-3.49-25.32-.07-9.34,1.2-18.64,3.75-27.64l1.12.32c-2.52,8.89-3.77,18.08-3.71,27.31.06,8.45,1.22,16.87,3.45,25.02l-1.13.31Z"/><path d="M907.31,722.67c-14.88,4.91-31.76,1.93-46.58-1.67-6.24-1.51-12.33-3.31-18.3-5.34-.5-.17-1-.35-1.5-.53-4.05-1.41-8.06-2.95-12.04-4.6-6.3-2.59-12.52-5.47-18.7-8.54-4.41-2.21-5.1-8.77-2.65-12.49,2.88-4.43,8.2-4.84,12.59-2.65,4.53,2.28,9.11,4.38,13.75,6.32.2.09.4.16.6.25,3.86,1.6,7.76,3.1,11.71,4.47.07.02.13.05.19.07,6.99,2.44,14.13,4.51,21.43,6.21,11.13,2.59,24.64,5.14,35.65.79,3.98-1.56,7.7-4.16,9.25-8.08,1.85-4.73.51-10.54-1.15-15.13-4.51-12.58-13.42-23.78-21.97-33.84-6.71-7.91-13.92-15.53-21.44-22.77-.04-.04-.1-.08-.16-.12l1.24-21.82c13.27,12.07,32.15,29.44,42.53,43.34,9.52,12.73,18.72,27.23,19.83,43.43,1.09,15.97-9.66,27.87-24.29,32.71Z"/><path d="M836.02,688.16s11.29-4.42,11.05,3.73c-.18,6.21-4.52,18.79-6.57,24.43-.95,2.6-3.24,4.59-6.01,4.88-1.79.19-5.8-1.89-7.44-3.97-4.84,1.81-11.76,5.98-22.44,4.21-7.99-1.32-16.09-4.56-22.54-9.48-3.31-2.53-6.1-5.59-7.28-9.64-.66-2.25-.9-4.76-.21-7.03.34-1.13.93-2.17,1.77-3.02.24-.25,2.01-1.92,2.01-1.92,0,0-4.12-11.7,8.21-13.33,0,0-5.03-18.75,18.5-8.28,1.43.63,4.64-5.53,11.16-6.85.97-.2,7.72-1.47,13.38,2.2,6.73,4.36,9.65,14.25,6.41,24.06Z" fill="#fff"/><path d="M809.71,722.47c-1.63,0-3.35-.13-5.19-.44-8.43-1.39-16.52-4.8-22.8-9.59-3.96-3.03-6.42-6.28-7.49-9.94-.55-1.87-1.03-4.66-.21-7.36.39-1.27,1.03-2.37,1.91-3.26.19-.19,1.25-1.2,1.75-1.68-.38-1.29-1.42-5.7.76-9.27,1.42-2.32,3.91-3.79,7.41-4.37-.37-1.83-1.08-7.08,2.17-9.86,3.14-2.69,8.95-2.17,17.28,1.53.22-.02,1.24-.89,1.93-1.56,1.88-1.79,4.73-4.49,8.88-5.33,1.3-.27,8.12-1.41,13.81,2.28,6.92,4.48,9.71,14.07,6.99,23.62,2.03-.63,6.33-1.63,8.85.14,1.32.93,1.95,2.45,1.89,4.53-.18,6.13-4.21,18.05-6.61,24.61-1.05,2.9-3.6,4.96-6.5,5.27-1.95.21-5.8-1.76-7.68-3.85-.68.26-1.39.57-2.16.89-3.74,1.59-8.58,3.64-15.01,3.64ZM793.39,666.18c-1.96,0-3.51.47-4.6,1.4-3.34,2.86-1.68,9.24-1.66,9.31l.17.64-.66.09c-3.46.46-5.88,1.78-7.2,3.92-2.25,3.67-.56,8.59-.54,8.64l.13.36-.27.26s-1.75,1.66-1.99,1.9c-.74.76-1.29,1.69-1.62,2.78-.74,2.43-.29,4.98.21,6.69,1,3.41,3.32,6.47,7.08,9.34,6.13,4.67,14.04,8,22.28,9.36,8.76,1.45,15-1.2,19.55-3.13.92-.39,1.78-.76,2.59-1.06l.4-.15.26.33c1.57,1.99,5.39,3.88,6.92,3.75,2.45-.26,4.62-2.02,5.52-4.5,1.91-5.23,6.36-18.07,6.54-24.25.05-1.68-.41-2.84-1.4-3.54-2.8-1.97-8.8.35-8.86.37l-1.16.45.39-1.18c3.05-9.25.46-19.08-6.17-23.38-5.31-3.44-11.71-2.36-12.94-2.11-3.82.78-6.52,3.34-8.3,5.04-1.39,1.32-2.3,2.19-3.21,1.78-4.66-2.07-8.52-3.11-11.45-3.11Z"/><rect x="790.52" y="674.68" width="1.17" height="9.9" transform="translate(-186.19 1043.82) rotate(-61.1)"/><rect x="782.47" y="687.34" width="1.17" height="10.32" transform="translate(-169.9 1122.14) rotate(-65.76)"/><rect x="810.91" y="664.75" width="1.17" height="14.31" transform="translate(-148.49 1105.96) rotate(-63.95)"/><polygon points="833.75 697.93 832.63 697.6 835.46 688 836.58 688.33 833.75 697.93"/><rect x="824.36" y="713.14" width="7.3" height="1.17" transform="translate(-78.88 1324.08) rotate(-74.7)"/><path d="M599.61,609.01l-1.96,22.45c-.08.04-.17.08-.24.13-11.55,5.95-26.12,10.01-38.52,6.11-23.46-7.35-26.35-32.86-24.84-56.27,0-.17.02-.35.03-.52.21-3.24.51-6.42.84-9.51.06-.58.13-1.13.19-1.69.62-5.52,1.35-10.71,1.92-15.23.52-4.04,3.08-6.49,6.13-7.47,1-.33,2.06-.49,3.11-.5,4.88-.05,9.7,3.22,8.91,9.39-.33,2.58-.66,5.17-.98,7.75-.09.68-.17,1.37-.25,2.05-.53,4.42-1.01,8.83-1.33,13.26-.03.35-.05.71-.07,1.05-.37,5.22-.52,10.43-.32,15.67.36,9.11,2.44,22.57,13.17,25.12,10.03,2.38,23.21-4.09,31.13-9.61.95-.66,1.89-1.33,2.83-2.02.08-.05.17-.12.25-.18Z"/><path d="M564.05,533.5s2.86-18.12-6.75-23.46c-8.07-4.48-11.52,5.2-11.52,5.2-10.82-11.12-17.54,4.01-17.54,4.01-.07-.04-.15-.08-.22-.12-5.09-2.7-11.59-.7-14.13,4.45-6.07,12.29,5.35,24.63,5.35,24.63-9.18,17.98,8.48,22.2,8.48,22.2-2.83,11.78,8.92,14.52,29.1,8.42,20.18-6.09,5.94-17.19,5.94-17.19,21.37-12.5,6.57-30.65,1.3-28.14Z" fill="#fff"/><path d="M539.27,582.54c-4.62,0-8.09-.99-10.19-2.98-2.15-2.03-2.84-4.97-2.05-8.75-1.81-.55-7.48-2.64-9.92-7.94-1.86-4.03-1.38-8.94,1.43-14.59-1.71-2.02-10.81-13.56-5.17-24.98,1.28-2.59,3.54-4.52,6.35-5.43,2.73-.88,5.72-.67,8.26.57.89-1.74,3.89-6.9,8.67-7.76,2.92-.53,5.92.66,8.93,3.52.68-1.45,2.37-4.41,5.31-5.52,2.06-.78,4.31-.5,6.7.83,8.73,4.85,7.62,19.39,7.17,23.18,2.53-.29,5.97,2.27,8.03,6.16,3.36,6.37,2.7,15.66-9.02,22.85,1.52,1.37,5.12,5.11,4.36,9.24-.66,3.56-4.41,6.4-11.13,8.43-6.97,2.1-12.95,3.16-17.71,3.16ZM523.15,518.51c-1.03,0-2.07.16-3.08.48-2.52.81-4.53,2.53-5.67,4.84-5.82,11.78,5.14,23.86,5.25,23.98l.28.3-.18.36c-2.79,5.46-3.32,10.15-1.58,13.92,2.63,5.7,9.61,7.43,9.68,7.45l.57.14-.14.57c-.86,3.6-.33,6.35,1.6,8.17,3.95,3.73,13.45,3.57,26.76-.45,6.27-1.89,9.74-4.42,10.32-7.52.82-4.38-4.51-8.61-4.57-8.65l-.68-.53.74-.43c14.71-8.61,10.82-18.8,9.28-21.72-2.16-4.08-5.71-6.21-7.44-5.39l-1,.48.17-1.09c.03-.18,2.68-17.78-6.46-22.86-2.07-1.15-4-1.41-5.71-.76-3.37,1.27-4.96,5.6-4.97,5.65l-.32.88-.65-.67c-2.93-3.01-5.79-4.29-8.5-3.8-5.03.9-8.06,7.57-8.09,7.64l-.26.57-.78-.42c-1.41-.75-2.99-1.13-4.58-1.13Z"/><path d="M532.84,572.05c-2.19,0-4.12-.27-5.75-.8l.36-1.11c3.02.98,7.14.99,12.25.02l.22,1.15c-2.6.49-4.97.74-7.08.74Z"/><path d="M549.06,567.26l-.13-1.16c6.27-.7,9.67-2.81,13.61-5.25l.61.99c-4.06,2.51-7.56,4.68-14.09,5.42Z"/><path d="M518.62,534.6s8.65,18.19,17.67,10.94c7.43-5.97-7.99-26.25-7.99-26.25" fill="#fff"/><path d="M531.87,547.83c-.53,0-1.06-.06-1.6-.18-6.76-1.55-11.96-12.34-12.17-12.8l1.05-.5c.05.11,5.17,10.74,11.38,12.16,1.9.44,3.67-.03,5.4-1.42,6.91-5.55-7.94-25.24-8.09-25.44l.93-.71c.64.85,15.68,20.81,7.89,27.06-1.52,1.22-3.13,1.84-4.79,1.84Z"/><path d="M561.94,514.98s11.22,24.43-11.11,19.82c0,0-1.63-10.98-4.99-19.52,0,0,16.36,39.77-9.55,30.26,0,0,4.52-7.73-4.9-21.66" fill="#fff"/><path d="M543.22,547.59c-2.02,0-4.4-.5-7.13-1.5l-.65-.24.35-.6c.04-.07,4.19-7.64-4.88-21.04l.97-.65c8.12,12,6.11,19.51,5.22,21.65,5.21,1.8,8.91,1.6,11.02-.59,1.93-2.01,2.43-5.48,2.2-9.34l-.06-.39c-.02-.11-1.66-11.02-4.95-19.39l1.08-.44c.26.62,4.29,10.54,5.02,19.26,5.48,1.06,9.24.36,11.18-2.08,4.16-5.24-1.12-16.9-1.17-17.01l1.06-.49c.23.51,5.62,12.43,1.02,18.23-2.19,2.76-6.23,3.61-12.01,2.56.2,4.03-.4,7.69-2.53,9.9-1.39,1.44-3.31,2.17-5.74,2.17Z"/><path d="M558.35,550.64c-4.31-3.25-11.06-9.07-14.37-13.37-3.88-5.04-7.4-14,1.92-14.79,4.99-.42,9.63,2.01,14.08,3.81,5.7,2.31,11.75,4.58,15.13,10.07,3.8,6.18,1.09,13.31-3.4,18.3-1.61,1.79-4.45,4.15-6.46,5.48" fill="#fff"/><path d="M565.56,560.63l-.64-.98c2.06-1.35,4.85-3.72,6.35-5.38,4.07-4.52,7.09-11.51,3.34-17.6-3.14-5.1-8.75-7.37-14.16-9.55l-.69-.28c-.69-.28-1.38-.57-2.08-.87-3.76-1.6-7.65-3.25-11.73-2.9-2.63.22-4.32,1.13-5.01,2.71-1.27,2.89.84,7.68,3.51,11.14,3.39,4.41,10.38,10.34,14.26,13.26l-.7.93c-4.7-3.54-11.24-9.26-14.48-13.48-2.66-3.46-5.22-8.77-3.65-12.32.88-2,2.89-3.14,5.98-3.4,4.36-.37,8.39,1.34,12.28,2.99.69.29,1.38.59,2.06.86l.69.28c5.59,2.26,11.38,4.6,14.72,10.02,4.09,6.64.89,14.17-3.47,19-1.58,1.76-4.41,4.15-6.57,5.57Z"/></svg>