<svg width="340" height="254" viewBox="0 0 340 254" fill="none" xmlns="http://www.w3.org/2000/svg">
<mask id="mask0_0_530" style="mask-type:alpha" maskUnits="userSpaceOnUse" x="0" y="0" width="340" height="254">
<path d="M219.106 10.769C289.171 43.779 293.958 66.679 325.471 110.661C356.983 154.643 335.512 236.836 269.296 250.312C203.08 263.788 191.208 230.607 101.344 245.001C11.48 259.395 -34.102 133.802 33.093 81.432C100.288 29.062 149.04 -22.241 219.106 10.769Z" fill="white"/>
</mask>
<g mask="url(#mask0_0_530)">
<path fill-rule="evenodd" clip-rule="evenodd" d="M175.477 61.918L221.094 65.7C221.635 65.745 222.176 65.799 222.715 65.862L255.255 69.679C265.955 70.934 273.667 80.543 272.577 91.26C271.512 101.744 262.148 109.379 251.664 108.313C251.553 108.302 251.443 108.29 251.332 108.277L212.668 103.659L201.597 158.639H149.357L139.777 104.267L92.649 109.557C81.869 110.768 72.091 103.161 70.612 92.414C69.182 82.016 76.451 72.426 86.85 70.996C87.011 70.974 87.173 70.953 87.335 70.936L132.105 65.946C132.399 65.914 132.694 65.884 132.988 65.856L175.477 61.918Z" fill="white" stroke="#01133B" stroke-width="1.32" stroke-linecap="round" stroke-linejoin="round"/>
<path fill-rule="evenodd" clip-rule="evenodd" d="M162.554 64.999V45.199H180.034V64.999" fill="white"/>
<path d="M162.554 64.999V45.199H180.034V64.999" stroke="#01133B" stroke-width="1.436" stroke-linecap="round" stroke-linejoin="round"/>
<mask id="mask1_0_530" style="mask-type:alpha" maskUnits="userSpaceOnUse" x="162" y="45" width="19" height="26">
<path d="M162.554 45.199H180.034V61.513C180.034 63.831 179.113 66.054 177.474 67.6931C175.835 69.3322 173.612 70.253 171.294 70.253C168.976 70.253 166.753 69.3322 165.114 67.6931C163.475 66.054 162.554 63.831 162.554 61.513V45.199Z" fill="white"/>
</mask>
<g mask="url(#mask1_0_530)">
<path d="M176.789 62.615C187.691 62.615 196.53 54.432 196.53 44.336C196.53 34.241 187.691 26.058 176.789 26.058C165.886 26.058 157.048 34.241 157.048 44.336C157.048 54.432 165.886 62.615 176.789 62.615Z" fill="#01133B"/>
</g>
<path d="M187.987 34.098C187.987 24.743 180.403 17.158 171.047 17.158C161.691 17.158 154.107 24.742 154.107 34.098V37.95C154.107 47.306 161.691 54.89 171.047 54.89C180.403 54.89 187.987 47.306 187.987 37.95V34.098Z" fill="#01133B"/>
<path fill-rule="evenodd" clip-rule="evenodd" d="M181.653 21.167C184.319 20.499 186.611 21.845 188.527 25.206C190.443 28.566 191.376 31.916 191.326 35.256C186.811 38.394 184.431 39.851 184.185 39.627C180.758 36.5 179.891 31.695 178.81 27.93C177.613 23.76 178.561 21.506 181.653 21.167Z" fill="#01133B"/>
<path fill-rule="evenodd" clip-rule="evenodd" d="M185.031 42.475L187.335 42.182C187.751 42.129 188.174 42.1721 188.571 42.3078C188.968 42.4436 189.329 42.6684 189.626 42.9652C189.923 43.2619 190.147 43.6226 190.283 44.0197C190.419 44.4168 190.462 44.8397 190.409 45.256C190.278 46.2883 189.832 47.2551 189.132 48.0252C188.432 48.7952 187.512 49.3311 186.497 49.56L185.031 49.89V42.475Z" fill="white" stroke="#01133B" stroke-width="1.32" stroke-linecap="round" stroke-linejoin="round"/>
<path d="M187.07 44.647V46.977M187.362 46.395L188.527 45.23" stroke="#01133B" stroke-width="1.32" stroke-linecap="round" stroke-linejoin="round"/>
<path fill-rule="evenodd" clip-rule="evenodd" d="M157.063 42.475L154.759 42.182C154.343 42.1292 153.92 42.1724 153.523 42.3082C153.126 42.4441 152.765 42.6689 152.469 42.9656C152.172 43.2623 151.947 43.6229 151.811 44.0199C151.675 44.4169 151.632 44.8397 151.685 45.256C151.816 46.2882 152.262 47.255 152.962 48.025C153.662 48.795 154.582 49.331 155.597 49.56L157.063 49.89V42.475Z" fill="white" stroke="#01133B" stroke-width="1.32" stroke-linecap="round" stroke-linejoin="round"/>
<path d="M155.024 44.647V46.977M155.315 46.395L154.15 45.23" stroke="#01133B" stroke-width="1.32" stroke-linecap="round" stroke-linejoin="round"/>
<path fill-rule="evenodd" clip-rule="evenodd" d="M185.153 35.812V45.987C185.153 53.714 178.889 59.977 171.163 59.977C163.436 59.977 157.172 53.714 157.172 45.987V35.812C157.172 28.085 163.436 21.822 171.163 21.822C178.889 21.822 185.153 28.085 185.153 35.812Z" fill="white" stroke="#01133B" stroke-width="1.32" stroke-linecap="round" stroke-linejoin="round"/>
<path d="M171.495 55.938C174.121 55.938 176.25 54.853 176.25 53.514M170.354 47.098L169.778 50.685L171.747 51.022" stroke="#01133B" stroke-width="1.32" stroke-linecap="round" stroke-linejoin="round"/>
<path d="M163.319 46.024C164.841 46.024 166.075 45.315 166.075 44.441C166.075 43.567 164.841 42.858 163.319 42.858C161.797 42.858 160.564 43.567 160.564 44.441C160.564 45.315 161.797 46.024 163.319 46.024Z" stroke="#01133B" stroke-width="0.848" stroke-linecap="round" stroke-linejoin="round"/>
<path d="M163.319 46.024C164.233 46.024 164.973 45.315 164.973 44.441C164.973 43.567 164.233 42.858 163.319 42.858C162.406 42.858 161.666 43.567 161.666 44.441C161.666 45.315 162.406 46.024 163.319 46.024Z" fill="#01133B"/>
<path d="M178.582 46.024C180.104 46.024 181.338 45.315 181.338 44.441C181.338 43.567 180.104 42.858 178.582 42.858C177.06 42.858 175.826 43.567 175.826 44.441C175.826 45.315 177.06 46.024 178.582 46.024Z" stroke="#01133B" stroke-width="0.848" stroke-linecap="round" stroke-linejoin="round"/>
<path d="M178.582 46.024C179.495 46.024 180.235 45.315 180.235 44.441C180.235 43.567 179.495 42.858 178.582 42.858C177.669 42.858 176.928 43.567 176.928 44.441C176.928 45.315 177.669 46.024 178.582 46.024Z" fill="#01133B"/>
<path fill-rule="evenodd" clip-rule="evenodd" d="M164.888 27.392C175.158 24.838 182.902 25.312 188.121 28.813C195.949 34.066 189.03 48.528 171.782 43.801C160.283 40.65 157.985 35.18 164.888 27.392Z" fill="#01133B"/>
<path fill-rule="evenodd" clip-rule="evenodd" d="M156.624 27.577C157.891 21.929 172.615 12.583 180.353 15.467C185.512 17.391 184.015 24.063 175.864 35.483C162.193 33.978 155.779 31.343 156.624 27.577Z" fill="#01133B"/>
<path fill-rule="evenodd" clip-rule="evenodd" d="M160.14 29.639C157.364 28.17 155.367 29.226 154.15 32.804C152.933 36.383 153.941 40.789 157.172 46.024C158.755 43.227 160.14 39.831 161.327 35.838C162.514 31.845 162.118 29.779 160.14 29.639Z" fill="#01133B"/>
<path fill-rule="evenodd" clip-rule="evenodd" d="M160.912 22.837C156.276 20.938 153.195 22.315 151.667 26.967C150.598 30.225 154.378 41.734 156.218 41.734C157.445 41.734 157.727 42.899 157.063 45.23C159.132 40.866 160.912 36.088 162.402 30.897C163.892 25.706 163.395 23.019 160.912 22.837Z" fill="#01133B"/>
<path fill-rule="evenodd" clip-rule="evenodd" d="M185.254 62.647L183.606 153.957L210.661 156.735L214.355 137.738L234.763 129.975L250.027 119.901L269.582 112.305C279.695 108.378 285.211 97.45 282.365 86.981C280.905 81.6082 277.801 76.8264 273.489 73.3048C269.177 69.7832 263.871 67.698 258.315 67.341L185.254 62.647Z" fill="#EDEEF2" stroke="#01133B" stroke-width="1.32" stroke-linecap="round" stroke-linejoin="round"/>
<path fill-rule="evenodd" clip-rule="evenodd" d="M199.107 64.418L193.01 86.335L206.665 100.078L183.606 161.605" fill="#EDEEF2"/>
<path d="M199.107 64.418L193.01 86.335L206.665 100.078L183.606 161.605" stroke="#01133B" stroke-width="1.32" stroke-linecap="round" stroke-linejoin="round"/>
<path fill-rule="evenodd" clip-rule="evenodd" d="M156.878 62.647L158.526 153.957L131.47 156.735L127.776 137.738L107.369 129.975L92.105 119.901L71.076 107.594C67.0994 105.267 63.9775 101.721 62.1717 97.4824C60.3659 93.2435 59.9723 88.536 61.049 84.056C62.1275 79.5689 64.6145 75.545 68.1456 72.5737C71.6768 69.6024 76.0665 67.8398 80.672 67.544L156.878 62.647Z" fill="#EDEEF2" stroke="#01133B" stroke-width="1.32" stroke-linecap="round" stroke-linejoin="round"/>
<path fill-rule="evenodd" clip-rule="evenodd" d="M143.025 64.418L149.122 86.335L135.466 100.078L158.526 161.605" fill="#EDEEF2"/>
<path d="M143.025 64.418L149.122 86.335L135.466 100.078L158.526 161.605M157.384 75.581L171.411 84.548L184.664 75.581" stroke="#01133B" stroke-width="1.32" stroke-linecap="round" stroke-linejoin="round"/>
<path d="M278.266 111.639H61.9329C60.9901 111.639 60.0565 111.824 59.1853 112.185C58.3142 112.546 57.5227 113.075 56.856 113.741C56.1892 114.408 55.6603 115.199 55.2995 116.07C54.9387 116.942 54.7529 117.875 54.7529 118.818V249.042C54.7529 249.985 54.9387 250.918 55.2995 251.79C55.6603 252.661 56.1892 253.452 56.856 254.119C57.5227 254.785 58.3142 255.314 59.1853 255.675C60.0565 256.036 60.9901 256.221 61.9329 256.221H278.266C280.17 256.221 281.996 255.465 283.342 254.118C284.689 252.772 285.445 250.946 285.445 249.042V118.818C285.445 116.914 284.689 115.088 283.342 113.742C281.996 112.395 280.17 111.639 278.266 111.639Z" fill="#436FFF"/>
<path fill-rule="evenodd" clip-rule="evenodd" d="M195.771 200.59L229.06 197.354L262.681 200.623C263.865 200.738 264.963 201.289 265.762 202.17C266.561 203.05 267.004 204.197 267.004 205.386V220.065H191.448V205.354C191.448 204.165 191.891 203.018 192.69 202.138C193.489 201.257 194.587 200.705 195.771 200.59Z" fill="#7E9CFF" stroke="#01133B" stroke-width="1.32" stroke-linecap="round" stroke-linejoin="round"/>
<mask id="mask2_0_530" style="mask-type:alpha" maskUnits="userSpaceOnUse" x="217" y="176" width="23" height="32">
<path d="M217.338 176.107H239.317V196.621C239.317 202.691 234.397 207.611 228.327 207.611C222.258 207.611 217.338 202.691 217.338 196.621V176.107Z" fill="white"/>
</mask>
<g mask="url(#mask2_0_530)">
<path d="M217.338 176.107H239.317V196.621C239.317 202.691 234.397 207.611 228.327 207.611C222.258 207.611 217.338 202.691 217.338 196.621V176.107Z" fill="white" stroke="#01133B" stroke-width="1.32" stroke-linecap="round" stroke-linejoin="round"/>
<path d="M237.043 188.378C250.752 188.378 261.866 178.088 261.866 165.394C261.866 152.7 250.752 142.409 237.043 142.409C223.333 142.409 212.219 152.7 212.219 165.394C212.219 178.088 223.333 188.378 237.043 188.378Z" fill="#01133B"/>
</g>
<path d="M248.388 149.077C248.388 138.036 239.438 129.086 228.397 129.086C217.356 129.086 208.406 138.036 208.406 149.077V156.541C208.406 167.581 217.356 176.532 228.397 176.532C239.438 176.532 248.388 167.581 248.388 156.541V149.077Z" fill="#01133B"/>
<path fill-rule="evenodd" clip-rule="evenodd" d="M242.604 134.95C245.415 132.391 248.015 133.207 250.406 137.398C252.796 141.589 252.239 148.086 248.734 156.889C246.935 157.469 245.883 157.62 245.576 157.34C241.302 153.44 240.22 147.447 238.872 142.751C237.379 137.55 238.623 134.95 242.604 134.95Z" fill="#01133B"/>
<path fill-rule="evenodd" clip-rule="evenodd" d="M246.065 158.037L248.108 157.723C248.747 157.625 249.4 157.675 250.017 157.869C250.634 158.063 251.198 158.396 251.666 158.842C252.134 159.288 252.494 159.836 252.717 160.443C252.94 161.05 253.021 161.7 252.954 162.343C252.785 163.95 252.135 165.468 251.088 166.698C250.041 167.929 248.648 168.815 247.089 169.24L246.065 169.52V158.037Z" fill="white" stroke="#01133B" stroke-width="1.32" stroke-linecap="round" stroke-linejoin="round"/>
<path d="M248.464 161.49V165.066M248.464 163.738L250.135 162.389" stroke="#01133B" stroke-width="1.32" stroke-linecap="round" stroke-linejoin="round"/>
<path fill-rule="evenodd" clip-rule="evenodd" d="M210.881 158.037L208.838 157.723C208.199 157.625 207.545 157.674 206.928 157.868C206.311 158.062 205.747 158.395 205.278 158.841C204.81 159.287 204.451 159.835 204.227 160.442C204.004 161.049 203.923 161.7 203.991 162.343C204.16 163.95 204.81 165.468 205.857 166.698C206.903 167.929 208.297 168.815 209.856 169.24L210.881 169.52V158.037Z" fill="white" stroke="#01133B" stroke-width="1.32" stroke-linecap="round" stroke-linejoin="round"/>
<path d="M208.482 161.49V165.066M208.482 163.738L206.81 162.389" stroke="#01133B" stroke-width="1.32" stroke-linecap="round" stroke-linejoin="round"/>
<path fill-rule="evenodd" clip-rule="evenodd" d="M246.065 152.543V165.337C246.065 175.053 238.189 182.929 228.473 182.929C218.757 182.929 210.881 175.053 210.881 165.337V152.543C210.881 142.827 218.757 134.95 228.473 134.95C238.189 134.95 246.065 142.827 246.065 152.543Z" fill="white" stroke="#01133B" stroke-width="1.32" stroke-linecap="round" stroke-linejoin="round"/>
<path d="M228.891 173.453C230.477 173.453 231.997 172.823 233.118 171.701C234.24 170.58 234.87 169.06 234.87 167.474M227.456 161.605L226.731 166.115L229.207 166.54" stroke="#01133B" stroke-width="1.32" stroke-linecap="round" stroke-linejoin="round"/>
<path d="M218.61 160.254C220.524 160.254 222.076 159.363 222.076 158.264C222.076 157.165 220.524 156.274 218.61 156.274C216.697 156.274 215.145 157.165 215.145 158.264C215.145 159.363 216.697 160.254 218.61 160.254Z" stroke="#01133B" stroke-width="1.066" stroke-linecap="round" stroke-linejoin="round"/>
<path d="M218.61 160.254C219.759 160.254 220.689 159.363 220.689 158.264C220.689 157.165 219.759 156.274 218.61 156.274C217.462 156.274 216.531 157.165 216.531 158.264C216.531 159.363 217.462 160.254 218.61 160.254Z" fill="#01133B"/>
<path d="M237.802 160.254C239.716 160.254 241.267 159.363 241.267 158.264C241.267 157.165 239.716 156.274 237.802 156.274C235.888 156.274 234.337 157.165 234.337 158.264C234.337 159.363 235.888 160.254 237.802 160.254Z" stroke="#01133B" stroke-width="1.066" stroke-linecap="round" stroke-linejoin="round"/>
<path d="M237.802 160.254C238.95 160.254 239.881 159.363 239.881 158.264C239.881 157.165 238.95 156.274 237.802 156.274C236.654 156.274 235.723 157.165 235.723 158.264C235.723 159.363 236.654 160.254 237.802 160.254Z" fill="#01133B"/>
<path fill-rule="evenodd" clip-rule="evenodd" d="M220.583 133.163C233.497 129.951 243.235 130.547 249.797 134.95C259.641 141.555 250.941 159.739 229.252 153.795C214.793 149.833 211.903 142.955 220.583 133.163Z" fill="#01133B"/>
<path fill-rule="evenodd" clip-rule="evenodd" d="M212.375 136.925C213.73 131.633 229.475 122.875 237.749 125.578C243.265 127.38 241.664 133.632 232.948 144.334C218.33 142.923 211.472 140.454 212.375 136.925Z" fill="#01133B"/>
<path fill-rule="evenodd" clip-rule="evenodd" d="M214.612 136.016C209.968 134.114 206.881 135.493 205.351 140.154C203.82 144.815 204.864 150.749 208.482 157.955C212.04 153.97 214.646 149.23 216.105 144.091C217.598 138.89 217.1 136.198 214.612 136.016Z" fill="#01133B"/>
<path d="M164.356 130.086H72.941V141.573H164.356V130.086ZM164.356 153.059H72.941V164.546H164.356V153.059ZM164.356 176.033H72.941V187.519H164.356V176.033ZM164.356 199.006H72.941V210.493H164.356V199.006ZM267.258 231.552H72.941V243.038H267.258V231.552Z" fill="#7E9CFF"/>
<path d="M53.874 193.282H287.181" stroke="#01133B" stroke-opacity="0.4" stroke-width="6.16" stroke-linecap="round"/>
<path d="M53.874 193.282H287.181" stroke="white" stroke-width="4.4" stroke-linecap="round"/>
<path d="M171.027 111.633V256.215" stroke="#01133B" stroke-opacity="0.4" stroke-width="6.16" stroke-linecap="round"/>
<path d="M171.027 111.633V256.215" stroke="white" stroke-width="4.4" stroke-linecap="round"/>
<path d="M170.459 187.304L175.813 196.416" stroke="#01133B" stroke-opacity="0.4" stroke-width="6.16" stroke-linecap="round"/>
<path d="M170.459 187.304L175.813 196.416" stroke="white" stroke-width="4.4" stroke-linecap="round"/>
<path d="M166.152 190.175L171.505 199.287" stroke="#01133B" stroke-opacity="0.4" stroke-width="6.16" stroke-linecap="round"/>
<path d="M166.152 190.175L171.505 199.287" stroke="white" stroke-width="4.4" stroke-linecap="round"/>
<path d="M171.355 110.792C165.847 92.905 159.454 84.4 152.175 85.277C141.257 86.594 147.188 91.094 136.15 92.792C128.791 93.923 140.526 99.924 171.355 110.792Z" stroke="#01133B" stroke-opacity="0.4" stroke-width="6.16" stroke-linecap="round" stroke-linejoin="round"/>
<path d="M171.355 110.792C165.847 92.905 159.454 84.4 152.175 85.277C141.257 86.594 147.188 91.094 136.15 92.792C128.791 93.923 140.526 99.924 171.355 110.792Z" stroke="white" stroke-width="4.4" stroke-linecap="round" stroke-linejoin="round"/>
<path d="M171.355 110.792C176.862 92.905 183.256 84.4 190.535 85.277C201.453 86.594 195.521 91.094 206.559 92.792C213.918 93.923 202.183 99.924 171.355 110.792Z" stroke="#01133B" stroke-opacity="0.4" stroke-width="6.16" stroke-linecap="round" stroke-linejoin="round"/>
<path d="M171.355 110.792C176.862 92.905 183.256 84.4 190.535 85.277C201.453 86.594 195.521 91.094 206.559 92.792C213.918 93.923 202.183 99.924 171.355 110.792Z" stroke="white" stroke-width="4.4" stroke-linecap="round" stroke-linejoin="round"/>
<path fill-rule="evenodd" clip-rule="evenodd" d="M170.895 105.07C174.021 105.07 177.147 108.196 177.147 111.323C177.147 114.449 174.021 114.9 170.895 114.9C167.768 114.9 164.642 114.449 164.642 111.323C164.642 108.196 167.768 105.07 170.895 105.07Z" fill="white" stroke="#01133B" stroke-opacity="0.4" stroke-width="0.88"/>
<mask id="mask3_0_530" style="mask-type:alpha" maskUnits="userSpaceOnUse" x="206" y="74" width="78" height="58">
<path d="M232.275 80.34L206.225 92.484L225.261 131.672L249.054 120.682L251.426 125.571L269.561 115.997C281.459 109.717 286.422 95.265 280.896 82.991L272.084 74.316L232.275 80.34Z" fill="white"/>
</mask>
<g mask="url(#mask3_0_530)">
<path d="M232.275 80.341L206.225 92.485L225.26 131.672L249.054 120.681L251.426 125.571L269.561 115.997C281.459 109.716 286.422 95.265 280.897 82.99L272.085 74.316L232.275 80.341Z" fill="white"/>
<path fill-rule="evenodd" clip-rule="evenodd" d="M231.441 79.852L251.429 125.668L294.898 101.075L275.484 58.259L231.441 79.852Z" fill="#EDEEF2"/>
</g>
<path d="M235.616 84.253L211.542 97.301L228.428 133.119L251.864 121.754L251.424 125.569L269.025 116.484C281.771 109.905 286.766 94.236 280.183 81.486C280.064 81.2541 279.941 81.0241 279.814 80.796" stroke="#01133B" stroke-width="1.32" stroke-linecap="round" stroke-linejoin="round"/>
<path fill-rule="evenodd" clip-rule="evenodd" d="M215.085 93.083L209.588 94.062L204.493 95.705C203.466 96.0362 202.35 95.9463 201.389 95.4548C200.428 94.9633 199.702 94.1106 199.37 93.084L199.367 93.075C199.026 92.0126 199.094 90.8614 199.556 89.8461C200.019 88.8309 200.844 88.0247 201.869 87.585L208.477 84.748C210.222 83.9983 212.119 83.6694 214.014 83.788L231.22 84.861" fill="white"/>
<path d="M215.085 93.083L209.588 94.062L204.493 95.705C203.466 96.0362 202.35 95.9463 201.389 95.4548C200.428 94.9633 199.702 94.1106 199.37 93.084L199.367 93.075C199.026 92.0126 199.094 90.8614 199.556 89.8461C200.019 88.8309 200.844 88.0247 201.869 87.585L208.477 84.748C210.222 83.9983 212.119 83.6694 214.014 83.788L231.22 84.861" stroke="#01133B" stroke-width="1.32" stroke-linecap="round" stroke-linejoin="round"/>
<path fill-rule="evenodd" clip-rule="evenodd" d="M250.18 123.349L225.817 135.571C224.557 136.203 223.098 136.31 221.759 135.87C220.42 135.43 219.31 134.478 218.67 133.222C218.043 131.992 217.93 130.562 218.356 129.249C218.783 127.935 219.714 126.844 220.944 126.217L221.028 126.175L226.507 123.508" fill="white"/>
<path d="M250.18 123.349L225.817 135.571C224.557 136.203 223.098 136.31 221.759 135.87C220.42 135.43 219.31 134.478 218.67 133.222C218.043 131.992 217.93 130.562 218.356 129.249C218.783 127.935 219.714 126.844 220.944 126.217L221.028 126.175L226.507 123.508" stroke="#01133B" stroke-width="1.32" stroke-linecap="round" stroke-linejoin="round"/>
<path fill-rule="evenodd" clip-rule="evenodd" d="M226.501 123.57L220.898 126.297C219.659 126.9 218.232 126.989 216.928 126.545C215.624 126.102 214.547 125.162 213.932 123.929C213.629 123.323 213.45 122.663 213.404 121.987C213.358 121.311 213.447 120.632 213.664 119.991C213.882 119.349 214.225 118.757 214.673 118.249C215.121 117.74 215.665 117.326 216.274 117.029L221.877 114.302" fill="white"/>
<path d="M226.501 123.57L220.898 126.297C219.659 126.9 218.232 126.989 216.928 126.545C215.624 126.102 214.547 125.162 213.932 123.929C213.629 123.323 213.45 122.663 213.404 121.987C213.358 121.311 213.447 120.632 213.664 119.991C213.882 119.349 214.225 118.757 214.673 118.249C215.121 117.74 215.665 117.326 216.274 117.029L221.877 114.302" stroke="#01133B" stroke-width="1.32" stroke-linecap="round" stroke-linejoin="round"/>
<path fill-rule="evenodd" clip-rule="evenodd" d="M221.879 114.304L216.276 117.032C215.037 117.634 213.61 117.724 212.306 117.28C211.002 116.836 209.926 115.896 209.311 114.663C208.696 113.433 208.594 112.009 209.027 110.704C209.46 109.398 210.392 108.318 211.62 107.698L217.258 104.854" fill="white"/>
<path d="M221.879 114.304L216.276 117.032C215.037 117.634 213.61 117.724 212.306 117.28C211.002 116.836 209.926 115.896 209.311 114.663C208.696 113.433 208.594 112.009 209.027 110.704C209.46 109.398 210.392 108.318 211.62 107.698L217.258 104.854" stroke="#01133B" stroke-width="1.32" stroke-linecap="round" stroke-linejoin="round"/>
<path fill-rule="evenodd" clip-rule="evenodd" d="M217.262 104.856L211.593 107.574C209.95 108.362 208.178 108.846 206.363 109.005L199.627 109.592C198.335 109.705 197.052 109.3 196.059 108.466C195.066 107.633 194.444 106.439 194.331 105.148C194.214 103.812 194.596 102.481 195.403 101.41C196.21 100.339 197.386 99.6058 198.702 99.351L206.172 97.908L233.406 83.704" fill="white"/>
<path d="M217.262 104.856L211.593 107.574C209.95 108.362 208.178 108.846 206.363 109.005L199.627 109.592C198.335 109.705 197.052 109.3 196.059 108.466C195.066 107.633 194.444 106.439 194.331 105.148C194.214 103.812 194.596 102.481 195.403 101.41C196.21 100.339 197.386 99.6058 198.702 99.351L206.172 97.908L233.406 83.704" stroke="#01133B" stroke-width="1.32" stroke-linecap="round" stroke-linejoin="round"/>
<path d="M240.512 73.44L230.633 77.35L249.454 121.751" stroke="#01133B" stroke-width="1.32" stroke-linecap="round" stroke-linejoin="round"/>
<path fill-rule="evenodd" clip-rule="evenodd" d="M224.338 79.322L236.382 72.955L266.837 123.638L247.939 131.21L224.338 79.322Z" fill="#EDEEF2" stroke="#01133B" stroke-width="1.32" stroke-linecap="round" stroke-linejoin="round"/>
<mask id="mask4_0_530" style="mask-type:alpha" maskUnits="userSpaceOnUse" x="59" y="72" width="78" height="61">
<path d="M110.263 79.021L136.313 91.165L117.026 132.746L93.232 121.755L91.112 124.251L73.854 115.089C61.842 108.712 56.575 94.299 61.642 81.671L70.454 72.996L110.263 79.021Z" fill="white"/>
</mask>
<g mask="url(#mask4_0_530)">
<path d="M110.263 79.021L136.313 91.165L117.026 132.746L93.233 121.755L91.113 124.251L73.854 115.089C61.842 108.712 56.575 94.299 61.642 81.67L70.454 72.996L110.263 79.021Z" fill="white"/>
<path fill-rule="evenodd" clip-rule="evenodd" d="M111.098 78.532L91.109 124.348L47.641 99.755L67.055 56.939L111.098 78.532Z" fill="#EDEEF2"/>
</g>
<path d="M110.498 79.34L134.573 92.389L116.838 131.799L93.402 120.434L91.114 124.25L73.513 115.164C60.768 108.585 55.773 92.917 62.355 80.167C62.475 79.935 62.598 79.705 62.725 79.477" stroke="#01133B" stroke-width="1.32" stroke-linecap="round" stroke-linejoin="round"/>
<path fill-rule="evenodd" clip-rule="evenodd" d="M128.333 90.883L133.83 91.862L138.925 93.505C139.952 93.8362 141.068 93.7462 142.029 93.2548C142.99 92.7633 143.716 91.9106 144.048 90.884L144.051 90.875C144.392 89.8126 144.325 88.6613 143.862 87.6459C143.4 86.6305 142.575 85.824 141.55 85.384L134.942 82.547C133.196 81.7982 131.3 81.4697 129.404 81.588L112.198 82.661" fill="white"/>
<path d="M128.333 90.883L133.83 91.862L138.925 93.505C139.952 93.8362 141.068 93.7462 142.029 93.2548C142.99 92.7633 143.716 91.9106 144.048 90.884L144.051 90.875C144.392 89.8126 144.325 88.6613 143.862 87.6459C143.4 86.6305 142.575 85.824 141.55 85.384L134.942 82.547C133.196 81.7982 131.3 81.4697 129.404 81.588L112.198 82.661" stroke="#01133B" stroke-width="1.32" stroke-linecap="round" stroke-linejoin="round"/>
<path fill-rule="evenodd" clip-rule="evenodd" d="M93.239 121.149L117.602 133.37C118.862 134.002 120.321 134.109 121.659 133.669C122.998 133.229 124.109 132.278 124.749 131.022C125.063 130.406 125.251 129.733 125.303 129.043C125.354 128.353 125.267 127.66 125.048 127.004C124.828 126.348 124.48 125.742 124.024 125.222C123.567 124.702 123.012 124.278 122.39 123.975L116.911 121.308" fill="white"/>
<path d="M93.239 121.149L117.602 133.37C118.862 134.002 120.321 134.109 121.659 133.669C122.998 133.229 124.109 132.278 124.749 131.022C125.063 130.406 125.251 129.733 125.303 129.043C125.354 128.353 125.267 127.66 125.048 127.004C124.828 126.348 124.48 125.742 124.024 125.222C123.567 124.702 123.012 124.278 122.39 123.975L116.911 121.308" stroke="#01133B" stroke-width="1.32" stroke-linecap="round" stroke-linejoin="round"/>
<path fill-rule="evenodd" clip-rule="evenodd" d="M116.918 121.37L122.52 124.097C123.759 124.7 125.186 124.789 126.49 124.346C127.794 123.902 128.871 122.962 129.486 121.729C129.787 121.127 129.966 120.471 130.013 119.799C130.061 119.127 129.975 118.453 129.762 117.814C129.548 117.175 129.211 116.585 128.77 116.076C128.328 115.568 127.791 115.152 127.188 114.851L127.144 114.829L121.541 112.102" fill="white"/>
<path d="M116.918 121.37L122.52 124.097C123.759 124.7 125.186 124.789 126.49 124.346C127.794 123.902 128.871 122.962 129.486 121.729C129.787 121.127 129.966 120.471 130.013 119.799C130.061 119.127 129.975 118.453 129.762 117.814C129.548 117.175 129.211 116.585 128.77 116.076C128.328 115.568 127.791 115.152 127.188 114.851L127.144 114.829L121.541 112.102" stroke="#01133B" stroke-width="1.32" stroke-linecap="round" stroke-linejoin="round"/>
<path fill-rule="evenodd" clip-rule="evenodd" d="M121.539 112.104L127.142 114.831C128.381 115.434 129.808 115.523 131.112 115.08C132.416 114.636 133.493 113.696 134.108 112.463C134.722 111.233 134.824 109.809 134.391 108.504C133.958 107.198 133.026 106.118 131.798 105.498L126.161 102.654" fill="white"/>
<path d="M121.539 112.104L127.142 114.831C128.381 115.434 129.808 115.523 131.112 115.08C132.416 114.636 133.493 113.696 134.108 112.463C134.722 111.233 134.824 109.809 134.391 108.504C133.958 107.198 133.026 106.118 131.798 105.498L126.161 102.654" stroke="#01133B" stroke-width="1.32" stroke-linecap="round" stroke-linejoin="round"/>
<path fill-rule="evenodd" clip-rule="evenodd" d="M126.157 102.656L131.825 105.374C133.468 106.161 135.24 106.646 137.055 106.804L143.791 107.392C145.083 107.505 146.366 107.1 147.359 106.266C148.352 105.432 148.974 104.239 149.087 102.947C149.205 101.611 148.823 100.279 148.015 99.2089C147.208 98.1384 146.033 97.4051 144.716 97.151L137.246 95.708L110.012 81.504" fill="white"/>
<path d="M126.157 102.656L131.825 105.374C133.468 106.161 135.24 106.646 137.055 106.804L143.791 107.392C145.083 107.505 146.366 107.1 147.359 106.266C148.352 105.432 148.974 104.239 149.087 102.947C149.205 101.611 148.823 100.279 148.015 99.2089C147.208 98.1384 146.033 97.4051 144.716 97.151L137.246 95.708L110.012 81.504M102.027 72.121L111.906 76.031L93.085 120.431" stroke="#01133B" stroke-width="1.32" stroke-linecap="round" stroke-linejoin="round"/>
<path fill-rule="evenodd" clip-rule="evenodd" d="M117.76 78.002L105.717 71.635L75.262 122.318L94.159 129.89L117.76 78.002Z" fill="#EDEEF2" stroke="#01133B" stroke-width="1.32" stroke-linecap="round" stroke-linejoin="round"/>
<path fill-rule="evenodd" clip-rule="evenodd" d="M116.84 82.941L100.268 124.347L97.689 123.723L115.094 82.941H116.84ZM227.974 84.548L226.585 84.549L243.406 126.972L246.061 125.667L227.974 84.548Z" fill="#01133B"/>
</g>
</svg>
