<svg width="200" height="200" viewBox="0 0 200 200" fill="none" xmlns="http://www.w3.org/2000/svg">
<path d="M47.4212 120.933C47.1144 120.272 46.6801 119.678 46.143 119.185C45.606 118.692 44.9769 118.31 44.2919 118.062C43.6069 117.813 42.8794 117.701 42.1513 117.734C41.4232 117.767 40.7088 117.944 40.0492 118.254L31.5742 122.206L36.7422 133.306C38.0865 133.902 39.4709 134.403 40.8852 134.806C36.9132 128.441 38.3572 127.339 42.5382 131.899C46.5612 136.289 51.5252 136.66 54.8692 136.973L47.4212 120.933Z" fill="#D2CDFC"/>
<path d="M46.3576 147.762C45.2736 147.444 44.1246 147.096 42.9766 146.736L47.1186 155.628C46.4231 153.068 46.1658 150.408 46.3576 147.762Z" fill="#D2CDFC"/>
<path d="M49.2851 157.738C48.7181 157.979 48.1261 157.53 47.7651 156.977L49.4181 160.512L57.6451 156.673C55.2891 156.998 50.6721 157.566 49.2851 157.738Z" fill="#D2CDFC"/>
<path d="M35.5844 144.098C33.9504 143.452 32.2784 142.787 30.7014 142.008C28.5734 140.963 28.7014 139.88 30.7774 140.374C31.5374 140.545 32.4305 140.659 33.8934 140.848C32.2197 140.227 30.5886 139.497 29.0104 138.663C26.8634 137.448 27.2814 136.041 29.3334 136.783C29.8844 136.992 31.1574 137.39 32.6394 137.77L32.4114 137.295C31.2393 136.629 30.1042 135.9 29.0114 135.111C27.0354 133.59 27.6054 132.26 29.5434 133.286C29.8284 133.438 30.2654 133.628 30.7974 133.856L26.4654 124.546L18.0094 128.498C17.3482 128.805 16.7542 129.239 16.2614 129.776C15.7687 130.313 15.3868 130.942 15.1379 131.627C14.889 132.312 14.7778 133.04 14.8108 133.768C14.8439 134.496 15.0204 135.21 15.3304 135.87L28.4784 164.144C28.7853 164.805 29.2197 165.399 29.7567 165.892C30.2937 166.384 30.9228 166.766 31.6078 167.015C32.2928 167.264 33.0203 167.375 33.7484 167.342C34.4764 167.309 35.1908 167.133 35.8505 166.823L44.3254 162.87L35.5844 144.098Z" fill="#D2CDFC"/>
<path d="M94.6201 13.8061L81.4901 19.3171L93.1571 11.1461L90.1361 5.65513C90.037 5.47677 89.8967 5.32474 89.7267 5.21179C89.5568 5.09883 89.3623 5.02825 89.1595 5.00592C88.9567 4.98359 88.7515 5.01019 88.5611 5.08347C88.3707 5.15675 88.2006 5.2746 88.0651 5.42713L72.2751 23.0031C72.1011 23.2005 71.9922 23.4468 71.9634 23.7084C71.9345 23.97 71.987 24.2341 72.1137 24.4647C72.2405 24.6954 72.4353 24.8813 72.6716 24.9971C72.9079 25.113 73.1742 25.1531 73.4341 25.1121L96.7481 21.1791C96.9485 21.1464 97.1381 21.0663 97.3011 20.9453C97.4642 20.8243 97.5958 20.666 97.6851 20.4837C97.7744 20.3014 97.8188 20.1003 97.8144 19.8974C97.8101 19.6944 97.7571 19.4954 97.6601 19.3171L94.6201 13.8061Z" fill="#D2CDFC"/>
<path d="M101.841 111.281C100.359 111.966 100.017 114.663 100.641 118.407C103.645 118.165 106.618 117.624 109.515 116.792C106.572 112.84 103.57 110.483 101.841 111.281Z" fill="#E9E9E9"/>
<path d="M116.986 131.669C114.269 133.823 111.077 135.297 107.675 135.969C111.248 141.688 115.048 145.146 117.157 144.158C119.266 143.184 119.076 138.073 116.986 131.669Z" fill="#E9E9E9"/>
<path d="M187.952 31.3069C183.259 35.3539 174.746 48.8639 173.169 53.7469C173.454 56.1029 173.682 57.7749 173.834 59.1999C177.333 59.6675 180.883 59.597 184.361 58.9909L184.323 57.4329C188.389 44.1519 188.541 38.4509 187.952 31.3069Z" fill="#E9E9E9"/>
<path d="M131.558 15.0611C128.176 21.1221 124.642 35.0311 124.358 41.3401C125.365 42.9541 126.334 44.5501 127.265 46.1281C129.948 43.7408 132.995 41.797 136.291 40.3701C136.35 36.8351 136.821 30.5201 131.558 15.0611Z" fill="#E9E9E9"/>
<path d="M46.3576 147.763C46.0916 153.254 47.1756 157.663 48.8666 157.795C50.4666 157.929 52.0776 154.28 52.7236 149.34C50.5598 149.001 48.4297 148.473 46.3576 147.763Z" fill="#E9E9E9"/>
<path d="M92.9875 167.409C91.7811 167.955 90.694 168.734 89.7885 169.701C88.883 170.667 88.1768 171.803 87.71 173.042C87.2433 174.282 87.0253 175.601 87.0685 176.925C87.1116 178.248 87.4151 179.551 87.9615 180.757C88.5079 181.963 89.2866 183.05 90.2532 183.956C91.2197 184.862 92.3551 185.568 93.5946 186.034C94.8341 186.501 96.1533 186.719 97.4771 186.676C98.8008 186.633 100.103 186.329 101.309 185.783L92.9875 167.409Z" fill="#E9E9E9"/>
<path d="M184.572 66.7433L184.629 69.5173C187.954 68.6983 187.878 67.5033 184.572 66.7433Z" fill="#E9E9E9"/>
<path d="M127.243 58.0218C127.668 58.7588 130.131 58.1738 133.285 56.7298C132.734 55.6468 132.127 54.5298 131.5 53.3668C128.593 55.3988 126.813 57.2768 127.243 58.0218Z" fill="#E9E9E9"/>
<path d="M144.156 48.2553C143.871 47.7613 142.674 47.8553 140.983 48.4073L142.446 50.9153C143.776 49.7183 144.441 48.7493 144.156 48.2553Z" fill="#E9E9E9"/>
<path d="M95.3816 129.084C94.8826 130.674 94.2204 132.209 93.4056 133.663L95.4386 134.633L95.3816 129.084Z" fill="#E9E9E9"/>
<path d="M84.1703 113.221L83.2583 116.109L82.6503 114.019L84.1703 113.221Z" fill="#E9E9E9"/>
<path d="M167.47 68.1302C167.47 69.0422 170.206 69.8021 174.006 70.0871C174.063 68.5481 174.082 67.2752 174.101 66.1732C170.244 66.4392 167.47 67.2182 167.47 68.1302Z" fill="#E9E9E9"/>
<path d="M101.822 93.3832C102.16 93.163 102.448 92.8726 102.664 92.5317C102.88 92.1907 103.021 91.8072 103.076 91.4072C103.133 90.9817 103.094 90.5487 102.96 90.1407C102.826 89.7327 102.602 89.3603 102.303 89.0513C102.005 88.7424 101.641 88.505 101.238 88.3569C100.835 88.2088 100.403 88.1539 99.9761 88.1962C100.234 87.843 100.397 87.4301 100.451 86.9962C100.551 86.2535 100.353 85.5014 99.9016 84.9036C99.4497 84.3058 98.7799 83.9107 98.0381 83.8042C97.4791 83.7262 96.9095 83.8189 96.4041 84.0702C96.4404 83.9525 96.4659 83.8316 96.4801 83.7092C96.564 83.0955 96.4446 82.4712 96.1402 81.9318C95.8358 81.3923 95.3632 80.9673 94.7945 80.7218C94.2258 80.4762 93.5924 80.4236 92.991 80.5719C92.3896 80.7202 91.8533 81.0614 91.4641 81.5432C91.4682 80.8594 91.2239 80.1974 90.7766 79.6801C90.3293 79.1629 89.7094 78.8257 89.0321 78.7312L88.8421 78.6932C88.1828 78.6018 87.5124 78.7461 86.9491 79.1006C86.3858 79.4552 85.9658 79.9972 85.7631 80.6312C85.5412 80.0425 85.1294 79.5444 84.5929 79.2157C84.0564 78.887 83.4257 78.7465 82.8003 78.8162C82.175 78.8859 81.5907 79.162 81.1398 79.6007C80.6888 80.0395 80.3969 80.616 80.3101 81.2392C80.2943 81.3206 80.288 81.4034 80.2911 81.4862C79.8591 81.0691 79.3079 80.7969 78.7141 80.7072C78.3459 80.6548 77.971 80.6757 77.6109 80.7688C77.2508 80.8619 76.9127 81.0252 76.616 81.2495C76.3193 81.4738 76.0699 81.7545 75.8822 82.0756C75.6944 82.3967 75.5721 82.7517 75.5221 83.1202C75.4728 83.5158 75.5061 83.9173 75.6201 84.2992C75.3804 84.1836 75.1239 84.1067 74.8601 84.0712C74.3004 83.9936 73.7302 84.0855 73.2232 84.3351C72.7162 84.5847 72.2957 84.9805 72.0158 85.4714C71.736 85.9623 71.6096 86.5259 71.6532 87.0893C71.6967 87.6527 71.9081 88.1901 72.2601 88.6322C71.5943 88.5515 70.9214 88.71 70.3617 89.0794C69.8019 89.4489 69.3917 90.0053 69.2042 90.6492C69.0168 91.2932 69.0643 91.9828 69.3383 92.595C69.6123 93.2072 70.095 93.702 70.7001 93.9912C70.0347 94.0801 69.4226 94.4024 68.9728 94.9006C68.523 95.3989 68.2648 96.0407 68.2442 96.7117C68.2237 97.3826 68.4421 98.0391 68.8606 98.5639C69.2791 99.0887 69.8704 99.4479 70.5291 99.5772C70.0507 99.8941 69.6803 100.349 69.4672 100.882C69.2541 101.415 69.2085 102 69.3365 102.559C69.4645 103.119 69.7599 103.626 70.1835 104.013C70.607 104.4 71.1385 104.649 71.7071 104.726C71.9401 104.745 72.1742 104.745 72.4071 104.726C72.1692 105.088 72.0136 105.498 71.9511 105.926C71.8512 106.669 72.0487 107.421 72.5006 108.019C72.9526 108.616 73.6223 109.012 74.3641 109.118C74.9294 109.206 75.5079 109.113 76.0171 108.852C75.8774 109.375 75.8908 109.927 76.0559 110.443C76.2209 110.958 76.5306 111.415 76.9481 111.76C76.5905 109.948 76.5776 108.085 76.9101 106.268C78.2211 96.7682 83.1801 101.689 84.1491 105.128C84.3771 105.736 84.7761 105.755 85.4791 104.71C86.9431 102.544 89.6221 105.432 86.4871 108.434C86.1641 108.757 86.0111 110.961 87.2871 113.355C87.7 113.729 88.217 113.967 88.7691 114.039C89.1574 114.092 89.5524 114.063 89.9291 113.956C90.3059 113.848 90.6562 113.663 90.9579 113.413C91.2597 113.163 91.5063 112.853 91.6822 112.503C91.8582 112.153 91.9596 111.77 91.9801 111.379C92.3513 111.751 92.8192 112.012 93.3309 112.132C93.8427 112.252 94.3778 112.227 94.8759 112.059C95.3739 111.891 95.8151 111.587 96.1495 111.182C96.4838 110.776 96.6981 110.285 96.7681 109.764C96.8199 109.376 96.7941 108.982 96.6921 108.605C97.0928 108.787 97.5304 108.873 97.9702 108.856C98.41 108.839 98.8398 108.72 99.2254 108.508C99.611 108.296 99.9417 107.997 100.191 107.634C100.441 107.272 100.602 106.856 100.663 106.42C100.718 106.045 100.695 105.663 100.597 105.297C100.499 104.931 100.328 104.589 100.093 104.292C100.76 104.376 101.434 104.221 101.997 103.853C102.559 103.485 102.972 102.929 103.162 102.284C103.351 101.64 103.305 100.948 103.032 100.335C102.759 99.721 102.276 99.2245 101.67 98.9342C102.286 98.8553 102.859 98.5766 103.302 98.1408C103.745 97.705 104.032 97.1361 104.121 96.5212C104.219 95.8022 104.034 95.0732 103.605 94.4878C103.177 93.9024 102.537 93.5064 101.822 93.3832Z" fill="#E9E9E9"/>
<path d="M187.84 84.7175C190.689 91.1171 192.24 98.0183 192.404 105.021C192.568 112.024 191.342 118.991 188.795 125.517C186.249 132.042 182.433 138 177.57 143.041C172.706 148.082 166.89 152.109 160.46 154.888" stroke="black" stroke-width="0.564931" stroke-linecap="round" stroke-linejoin="round"/>
<path d="M147.519 53.9743C157.376 55.4754 166.605 59.7379 174.139 66.2683" stroke="black" stroke-width="0.564931" stroke-linecap="round" stroke-linejoin="round"/>
<path d="M115.882 58.914C120.48 56.6146 125.389 55.0017 130.455 54.127" stroke="black" stroke-width="0.564931" stroke-linecap="round" stroke-linejoin="round"/>
<path d="M84.3794 148.371L105.508 194.999" stroke="black" stroke-width="0.564931" stroke-linecap="round" stroke-linejoin="round"/>
<path d="M73.0553 123.367L43.2433 57.6237C41.6283 54.1237 43.9083 51.0307 47.7273 51.5237L99.4853 58.2877C102.494 58.6816 105.354 59.8285 107.801 61.6222C110.249 63.4159 112.204 65.7983 113.485 68.5487L172.045 194.961" stroke="black" stroke-width="0.564931" stroke-linecap="round" stroke-linejoin="round"/>
<path d="M83.557 117.308C76.965 121.756 69.7933 125.278 62.243 127.774C58.54 128.306 54.8102 128.629 51.071 128.743" stroke="black" stroke-width="0.564931" stroke-linecap="round" stroke-linejoin="round"/>
<path d="M54.8514 136.951L47.3994 120.914C46.7763 119.582 45.6499 118.551 44.2677 118.049C42.8855 117.547 41.3604 117.614 40.0274 118.235L18.0094 128.514C16.677 129.137 15.6464 130.263 15.1439 131.645C14.6414 133.028 14.7081 134.553 15.3294 135.886L28.4784 164.16C29.1015 165.492 30.2278 166.523 31.6101 167.025C32.9923 167.527 34.5174 167.46 35.8504 166.839L57.6444 156.673" stroke="black" stroke-width="0.564931" stroke-linecap="round" stroke-linejoin="round"/>
<path d="M83.2269 116.205L84.1689 113.205C84.1689 113.205 75.2979 119.228 76.9299 106.269C78.1009 96.9687 82.9689 101.469 84.0959 104.89C84.3599 105.69 84.6819 105.943 85.4959 104.73C86.9579 102.563 89.6539 105.469 86.5029 108.454C85.8979 109.028 86.1289 113.293 89.7529 116.397C92.0529 118.369 99.1769 119.741 109.494 116.797" stroke="black" stroke-width="0.564931" stroke-linecap="round" stroke-linejoin="round"/>
<path d="M82.6505 114.018C83.2439 116.578 84.0904 119.073 85.1775 121.466" stroke="black" stroke-width="0.564931" stroke-linecap="round" stroke-linejoin="round"/>
<path d="M88.2746 114.834C85.9746 122.187 79.2106 130.357 73.9096 137.008C66.1798 137.671 58.4008 137.492 50.7096 136.475" stroke="black" stroke-width="0.564931" stroke-linecap="round" stroke-linejoin="round"/>
<path d="M116.986 131.667C113.69 134.283 109.696 135.869 105.503 136.225C101.31 136.581 97.1055 135.691 93.4162 133.667C90.747 138.671 87.7803 143.51 84.5322 148.159C83.4589 149.777 81.8625 150.977 80.0102 151.559C69.9866 154.637 59.682 156.712 49.2482 157.753" stroke="black" stroke-width="0.564931" stroke-linecap="round" stroke-linejoin="round"/>
<path d="M107.676 135.962C111.249 141.681 115.045 145.131 117.158 144.151C123.695 141.118 108.484 108.215 101.843 111.279C100.361 111.964 100.019 114.661 100.643 118.405" stroke="black" stroke-width="0.564931" stroke-linecap="round" stroke-linejoin="round"/>
<path d="M167.471 68.1312C167.661 73.9832 168.383 95.1312 168.383 97.3162C165.039 97.8292 138.647 104.175 137.146 104.441" stroke="black" stroke-width="0.564931" stroke-linecap="round" stroke-linejoin="round"/>
<path d="M147.901 127.563C187.974 113.463 187.096 114.129 187.901 103.128C188.412 96.1173 187.578 76.0143 187.084 68.1103" stroke="black" stroke-width="0.564931" stroke-linecap="round" stroke-linejoin="round"/>
<path d="M127.245 58.0218C130.133 63.1138 141.645 82.1528 142.674 84.0718C141.574 84.8888 136.537 90.3428 132.374 94.2568" stroke="black" stroke-width="0.564931" stroke-linecap="round" stroke-linejoin="round"/>
<path d="M157.533 99.6901C165.38 87.5481 163.857 84.5291 161.433 79.4731C158.293 72.9391 147.942 54.4301 144.104 48.1981" stroke="black" stroke-width="0.564931" stroke-linecap="round" stroke-linejoin="round"/>
<path d="M131.558 15.0607C128.176 21.1217 124.642 35.0307 124.358 41.3397C125.365 42.9537 126.334 44.5497 127.265 46.1277C129.958 43.7533 133.003 41.8109 136.291 40.3697C136.307 38.6137 136.821 30.5197 131.558 15.0607Z" stroke="black" stroke-width="0.564931" stroke-linecap="round" stroke-linejoin="round"/>
<path d="M43.1223 53.6032C44.1527 51.1935 45.9396 49.1848 48.2128 47.8806C50.486 46.5764 53.1219 46.0476 55.7223 46.3742L106.473 52.9102C108.672 53.1922 110.763 54.027 112.551 55.3365C114.34 56.6459 115.767 58.3874 116.7 60.3982L179.041 194.962" stroke="black" stroke-width="0.564931" stroke-linecap="round" stroke-linejoin="round"/>
<path d="M53.6012 59.5595C54.3012 61.0795 54.0572 62.6945 53.0502 63.1695C52.0432 63.6445 50.6372 62.7895 49.9342 61.2695C49.2312 59.7495 49.4742 58.1265 50.4852 57.6595C51.4962 57.1925 52.9012 58.0395 53.6012 59.5595Z" stroke="black" stroke-width="0.564931" stroke-linecap="round" stroke-linejoin="round"/>
<path d="M167.735 75.7498C174.152 77.8568 180.72 77.6498 187.478 75.7498" stroke="black" stroke-width="0.564931" stroke-linecap="round" stroke-linejoin="round"/>
<path d="M131.135 64.6497C137.728 63.3924 143.664 59.8434 147.892 54.6307" stroke="black" stroke-width="0.564931" stroke-linecap="round" stroke-linejoin="round"/>
<path d="M94.621 13.8061L81.491 19.3171L93.158 11.1461L90.137 5.65513C90.0379 5.47677 89.8976 5.32474 89.7276 5.21179C89.5577 5.09883 89.3632 5.02825 89.1604 5.00592C88.9576 4.98359 88.7524 5.01019 88.562 5.08347C88.3716 5.15675 88.2015 5.2746 88.066 5.42713L72.276 23.0031C72.102 23.2005 71.9931 23.4468 71.9643 23.7084C71.9354 23.97 71.9879 24.2341 72.1146 24.4647C72.2414 24.6954 72.4362 24.8813 72.6725 24.9971C72.9088 25.113 73.1751 25.1531 73.435 25.1121L96.749 21.1791C96.9494 21.1464 97.139 21.0663 97.302 20.9453C97.4651 20.8243 97.5967 20.666 97.686 20.4837C97.7753 20.3014 97.8197 20.1003 97.8153 19.8974C97.811 19.6944 97.758 19.4954 97.661 19.3171L94.621 13.8061Z" stroke="black" stroke-width="0.564931" stroke-linecap="round" stroke-linejoin="round"/>
<path d="M174.423 160.778C183.582 165.699 185.501 151.657 194.659 156.578" stroke="black" stroke-width="0.564931" stroke-linecap="round" stroke-linejoin="round"/>
<path d="M42.8068 135.298C39.1607 134.444 35.6678 133.035 32.4508 131.118C30.5128 130.054 29.7858 131.124 31.6718 132.79C33.4183 134.271 35.3161 135.565 37.3338 136.648" stroke="black" stroke-width="0.564931" stroke-linecap="round" stroke-linejoin="round"/>
<path d="M35.5993 135.657C33.5437 135 31.532 134.213 29.5763 133.301C27.6223 132.27 27.0513 133.601 29.0443 135.125C31.4627 136.773 34.0034 138.235 36.6443 139.496" stroke="black" stroke-width="0.564931" stroke-linecap="round" stroke-linejoin="round"/>
<path d="M33.761 138.054C32.2701 137.708 30.7987 137.283 29.353 136.781C27.31 136.015 26.885 137.441 29.03 138.662C31.299 139.841 33.6634 140.826 36.098 141.607" stroke="black" stroke-width="0.564931" stroke-linecap="round" stroke-linejoin="round"/>
<path d="M52.7249 149.339C52.1929 149.51 42.8629 146.946 37.3719 144.817C35.1719 143.962 32.8719 143.103 30.7219 142.043C28.5579 140.975 28.6859 139.907 30.7789 140.39C31.5379 140.565 32.4319 140.675 33.8949 140.865" stroke="black" stroke-width="0.564931" stroke-linecap="round" stroke-linejoin="round"/>
<path d="M46.3587 147.762C46.0927 153.253 47.1767 157.657 48.8677 157.794C53.0987 158.137 54.7677 137.169 50.5587 136.438C47.4931 135.754 44.6975 134.18 42.5217 131.915C38.3547 127.36 37.0487 128.343 41.0017 134.708" stroke="black" stroke-width="0.564931" stroke-linecap="round" stroke-linejoin="round"/>
<path d="M92.9864 167.427C91.1983 168.234 89.6845 169.545 88.6306 171.199C87.5768 172.853 87.0287 174.78 87.0537 176.741C87.0787 178.702 87.6756 180.614 88.7712 182.241C89.8668 183.868 91.4135 185.14 93.2216 185.901C95.0296 186.662 97.0204 186.878 98.9498 186.524C100.879 186.17 102.663 185.26 104.083 183.907C105.502 182.553 106.496 180.815 106.942 178.904C107.389 176.994 107.267 174.995 106.594 173.153C106.116 171.853 105.376 170.665 104.42 169.664C103.464 168.662 102.312 167.868 101.035 167.331C99.759 166.794 98.3857 166.525 97.0009 166.542C95.6162 166.558 94.2497 166.86 92.9864 167.427Z" stroke="black" stroke-width="0.564931" stroke-linecap="round" stroke-linejoin="round"/>
<path d="M140.983 48.407C142.674 47.856 143.867 47.763 144.156 48.255C144.956 49.619 139.149 53.455 137.787 54.29C135.987 55.39 128.217 59.706 127.245 58.021C126.815 57.276 128.594 55.399 131.501 53.366" stroke="black" stroke-width="0.564931" stroke-linecap="round" stroke-linejoin="round"/>
<path d="M136.29 40.3694C133.004 41.7949 129.964 43.7319 127.283 46.1084C129.392 49.6804 131.596 53.4084 133.288 56.7084C136.588 55.1962 139.668 53.2452 142.446 50.9084L136.29 40.3694Z" stroke="black" stroke-width="0.564931" stroke-linecap="round" stroke-linejoin="round"/>
<path d="M187.952 31.3065C183.259 35.3535 174.746 48.8635 173.169 53.7465C173.454 56.1025 173.682 57.7745 173.834 59.1995C177.333 59.6671 180.883 59.5966 184.361 58.9905L184.323 57.4325C188.389 44.1515 188.541 38.4505 187.952 31.3065Z" stroke="black" stroke-width="0.564931" stroke-linecap="round" stroke-linejoin="round"/>
<path d="M184.362 58.9899C180.884 59.596 177.334 59.6665 173.835 59.1989C174.187 62.8176 174.244 66.4589 174.006 70.0869C177.557 70.3838 181.132 70.1856 184.628 69.4979C184.365 58.8869 184.414 60.7859 184.362 58.9899Z" stroke="black" stroke-width="0.564931" stroke-linecap="round" stroke-linejoin="round"/>
<path d="M164.599 48.2742C164.289 48.5128 163.915 48.654 163.525 48.6802C163.135 48.7064 162.745 48.6163 162.406 48.4212C162.067 48.2261 161.793 47.9347 161.62 47.5841C161.446 47.2335 161.381 46.8394 161.431 46.4515C161.482 46.0635 161.646 45.6993 161.903 45.4048C162.161 45.1103 162.5 44.8986 162.878 44.7968C163.255 44.695 163.655 44.7076 164.026 44.8327C164.396 44.9579 164.721 45.1902 164.96 45.5002C165.277 45.9169 165.418 46.442 165.35 46.9615C165.282 47.4809 165.012 47.9527 164.599 48.2742Z" stroke="black" stroke-width="0.564931" stroke-linecap="round" stroke-linejoin="round"/>
<path d="M104.12 96.517C104.032 97.1321 103.745 97.7014 103.302 98.1373C102.859 98.5732 102.285 98.8517 101.669 98.93C102.275 99.2203 102.758 99.7168 103.031 100.331C103.304 100.944 103.35 101.636 103.161 102.28C102.971 102.925 102.558 103.481 101.996 103.849C101.433 104.216 100.759 104.372 100.092 104.288C100.326 104.586 100.497 104.928 100.595 105.294C100.693 105.659 100.716 106.041 100.662 106.416C100.611 106.784 100.488 107.138 100.3 107.459C100.112 107.779 99.8623 108.06 99.5658 108.284C99.2694 108.508 98.9318 108.671 98.5722 108.765C98.2125 108.858 97.838 108.88 97.47 108.829C97.2006 108.791 96.9381 108.715 96.691 108.601C96.792 108.979 96.8178 109.372 96.767 109.76C96.697 110.281 96.4827 110.772 96.1483 111.178C95.8139 111.583 95.3728 111.887 94.8747 112.055C94.3767 112.223 93.8415 112.248 93.3298 112.128C92.8181 112.008 92.3502 111.747 91.979 111.375C91.9821 111.458 91.9757 111.541 91.96 111.622C91.8535 112.364 91.4584 113.034 90.8606 113.485C90.2628 113.937 89.5107 114.135 88.768 114.035C88.2161 113.962 87.6993 113.724 87.286 113.351C86.013 110.957 86.161 108.751 86.486 108.43C89.586 105.394 86.94 102.539 85.478 104.706C84.872 105.606 84.406 105.919 84.089 104.928C82.994 101.505 78.207 96.945 76.909 106.264C76.5781 108.081 76.5909 109.944 76.947 111.756C76.574 111.45 76.2857 111.053 76.1094 110.604C75.9331 110.155 75.8748 109.668 75.94 109.19C75.9553 109.074 75.9807 108.96 76.016 108.848C75.5057 109.105 74.9282 109.198 74.363 109.114C73.6229 109.004 72.9556 108.608 72.5043 108.011C72.0531 107.414 71.8541 106.664 71.95 105.922C72.0129 105.494 72.1685 105.084 72.406 104.722C72.173 104.741 71.9389 104.741 71.706 104.722C71.1374 104.645 70.6059 104.396 70.1823 104.009C69.7588 103.622 69.4633 103.114 69.3353 102.555C69.2074 101.996 69.253 101.411 69.466 100.878C69.6791 100.345 70.0496 99.8899 70.528 99.573C69.8693 99.4436 69.278 99.0845 68.8595 98.5597C68.441 98.0348 68.2226 97.3784 68.2431 96.7074C68.2636 96.0365 68.5218 95.3946 68.9716 94.8964C69.4214 94.3981 70.0336 94.0758 70.699 93.987C70.095 93.6973 69.6134 93.2026 69.34 92.591C69.0667 91.9795 69.0193 91.2907 69.2063 90.6474C69.3934 90.0042 69.8027 89.4482 70.3614 89.0786C70.9201 88.7089 71.5918 88.5496 72.257 88.629C71.905 88.1869 71.6936 87.6495 71.6501 87.086C71.6065 86.5226 71.7328 85.9591 72.0127 85.4682C72.2925 84.9772 72.7131 84.5814 73.2201 84.3319C73.7271 84.0823 74.2972 83.9904 74.857 84.068C75.1208 84.1034 75.3773 84.1804 75.617 84.296C75.5042 83.9141 75.4718 83.513 75.522 83.118C75.5711 82.7491 75.6929 82.3935 75.8803 82.072C76.0678 81.7505 76.3172 81.4694 76.6141 81.2449C76.911 81.0205 77.2495 80.8572 77.6099 80.7645C77.9704 80.6718 78.3456 80.6516 78.714 80.705C79.3085 80.7922 79.8604 81.0648 80.291 81.484C80.3241 80.835 80.5796 80.2172 81.0146 79.7345C81.4496 79.2517 82.0375 78.9334 82.6796 78.8331C83.3216 78.7328 83.9786 78.8565 84.5401 79.1836C85.1017 79.5107 85.5335 80.021 85.763 80.629C86.774 77.505 91.507 78.361 91.463 81.541C91.8522 81.0592 92.3885 80.718 92.9899 80.5697C93.5913 80.4213 94.2247 80.474 94.7934 80.7195C95.362 80.9651 95.8347 81.3901 96.139 81.9295C96.4434 82.469 96.5628 83.0933 96.479 83.707C96.4647 83.8294 96.4393 83.9502 96.403 84.068C96.908 83.8155 97.4779 83.7227 98.037 83.802C98.7799 83.9082 99.4507 84.3037 99.9033 84.9024C100.356 85.501 100.553 86.2543 100.453 86.998C100.398 87.4316 100.235 87.8444 99.978 88.198C100.206 88.1775 100.435 88.1835 100.662 88.216C101.402 88.3263 102.069 88.7226 102.521 89.3196C102.972 89.9166 103.171 90.6668 103.075 91.409C103.02 91.809 102.879 92.1925 102.663 92.5334C102.447 92.8744 102.159 93.1648 101.821 93.385C102.536 93.5061 103.176 93.9007 103.605 94.4853C104.034 95.0699 104.219 95.7986 104.12 96.517Z" stroke="black" stroke-width="0.564931" stroke-linecap="round" stroke-linejoin="round"/>
<path d="M26.5033 124.543L30.8353 133.853" stroke="black" stroke-width="0.564931" stroke-linecap="round" stroke-linejoin="round"/>
<path d="M35.6055 144.095L44.3465 162.868" stroke="black" stroke-width="0.564931" stroke-linecap="round" stroke-linejoin="round"/>
<path d="M31.5568 122.187L36.7248 133.283" stroke="black" stroke-width="0.564931" stroke-linecap="round" stroke-linejoin="round"/>
<path d="M42.9774 146.736L47.1194 155.628" stroke="black" stroke-width="0.564931" stroke-linecap="round" stroke-linejoin="round"/>
<path d="M47.766 156.977L49.4 160.512" stroke="black" stroke-width="0.564931" stroke-linecap="round" stroke-linejoin="round"/>
<path d="M174.099 66.1727C172.428 66.2877 166.799 66.9017 167.531 68.3947C168.296 69.9477 175.731 70.2227 177.615 70.2177C185.135 70.1987 190.556 68.1307 184.55 66.7237" stroke="black" stroke-width="0.564931" stroke-linecap="round" stroke-linejoin="round"/>
<path d="M93.4188 133.659C94.1702 132.17 94.8438 130.643 95.4368 129.084V134.651" stroke="black" stroke-width="0.564931" stroke-linecap="round" stroke-linejoin="round"/>
</svg>
