<?xml version="1.0" encoding="UTF-8"?><svg id="Ebene_1" xmlns="http://www.w3.org/2000/svg" width="90" height="90" viewBox="0 0 90 90"><g id="true_false_icon"><rect id="Rectangle_49" width="90" height="90" fill="none"/><path id="Path_11513" d="M89.97,31.28c-.16,1.03-.31,2.08-.5,3.11-2.96,15.8-18.16,26.2-33.96,23.24-11.48-2.15-20.57-10.96-23.07-22.37-2.88-13.72,4.35-27.55,17.26-33.02,2.68-1.12,5.51-1.83,8.39-2.1.2-.03.41-.08.6-.15h4.22c.46.07.92.15,1.38.2,12.7,1.61,22.89,11.25,25.21,23.84.18,1,.32,2.01.49,3.02v4.22h-.01ZM69.72,34.34c-1.54-1.54-3.07-3.08-4.62-4.59-.43-.42-.49-.72-.02-1.14.46-.4.88-.86,1.31-1.3,1.12-1.1,2.24-2.22,3.28-3.25l-3.75-3.87c-1.54,1.57-3.06,3.1-4.56,4.66-.42.43-.72.5-1.14.02-.4-.46-.86-.88-1.3-1.31-1.1-1.12-2.21-2.24-3.24-3.28l-3.83,3.71c1.55,1.54,3.08,3.08,4.63,4.59.43.42.49.72.02,1.14-.5.45-.96.95-1.43,1.42-1.08,1.06-2.15,2.13-3.15,3.12l3.76,3.88c1.53-1.57,3.05-3.1,4.55-4.67.42-.43.72-.49,1.14-.02.51.56,1.07,1.08,1.6,1.62,1,1.02,2,2.04,2.94,3l3.82-3.75h0Z" fill="#99e1f6"/><path id="Path_11514" d="M36.03,52.79c-.29.31-.53.56-.77.81-2.69,2.69-5.39,5.37-8.06,8.09-.51.52-.82.54-1.33,0-1.47-1.54-3-3.03-4.46-4.49l-3.52,3.55,8.84,8.83c.06-.06.32-.26.56-.5,4.04-4.03,8.08-8.07,12.11-12.12.47-.47.8-.6,1.39-.16,4.77,3.55,10.41,5.76,16.32,6.41.82.09.93.42.84,1.13-1.51,12.68-11.12,22.89-23.69,25.16-8.99,1.64-17.04-.7-23.98-6.58-5.55-4.56-9.13-11.09-9.97-18.22-1.27-10.12,2.02-18.64,9.54-25.48,4.36-3.94,9.83-6.44,15.66-7.16.81-.11,1.18-.02,1.3.93.8,7.22,3.91,13.99,8.86,19.31.12.12.21.27.38.5h0Z" fill="#99e1f6"/></g></svg>