<?xml version="1.0" encoding="UTF-8"?><svg id="Ebene_1" xmlns="http://www.w3.org/2000/svg" width="530.47" height="588.98" viewBox="0 0 530.47 588.98"><path d="M405.26,501.38c-22.15,13.4-59.17,35.84-86.22,23.3l8.65-27.64c13.72,13.68,51.7-12.47,63.55-19.65,15.35-9.31,29.31,14.72,14.03,23.99Z"/><path d="M432.94,433.93s25.66-21.21,42.85-11.24c14.41,8.36,2.47,22.67,2.47,22.67,27.3,6.49,9.86,30.9,9.86,30.9.13.08.26.16.39.23,8.89,5.39,11.74,17.32,6.04,26.02-13.61,20.78-43.38,14.51-43.38,14.51-19.64,30.88-42.47,7.4-42.47,7.4-15.8,15.29-30.87-.39-39.89-37.32-9.02-36.92,21.38-25.12,21.38-25.12-.11-44.71,41.83-38.55,42.75-28.06Z" fill="#fff" stroke="#000" stroke-miterlimit="10" stroke-width=".75"/><path d="M473.1,505.43s-40.77.37-33.33-17.28c7.44-17.64,48.34-11.9,48.34-11.9" fill="#fff" stroke="#000" stroke-miterlimit="10" stroke-width=".75"/><path d="M478.25,445.35s-70.07,7.7-38.48,42.81" fill="#fff" stroke="#000" stroke-miterlimit="10" stroke-width=".75"/><path d="M432.94,433.93c-19.94,18.56,2.95,27.36,2.95,27.36" fill="#fff" stroke="#000" stroke-miterlimit="10" stroke-width=".75"/><path d="M410.62,466.39s9.72,42.47,28.14,32.65c5.6-2.99,8.62-9.26,8.18-15.6-.76-11.06-5.36-33.75-16.34-53.33" fill="#fff" stroke="#000" stroke-miterlimit="10" stroke-width=".75"/><path d="M408.69,524.41c-4.69-4.11-8.53-10.95-11.58-19.4" fill="#fff" stroke="#000" stroke-miterlimit="10" stroke-width=".75"/><path d="M392.84,488.62c-4.02-10.78-3.42-18.01-2.66-26.64" fill="#fff" stroke="#000" stroke-miterlimit="10" stroke-width=".75"/><path d="M40.33,501.96l-5.72,21.51c38.67,14.12,82.19,27.89,130.22,39.82,46.78,11.62,90.58,19.68,130.46,25.27,1.68-6.58,3.36-13.15,5.04-19.73L40.33,501.96Z" stroke="#000" stroke-miterlimit="10" stroke-width=".75"/><path d="M57.69,406.23S1.11-23.99,279.93,1.46c247.88,22.63,246.4,196.39,191.52,221.52,0,0,77.98-14.69,54.1,75.45-23.57,88.97-82.7,164.55-195.43,190.81l-25.03,80.21c-40.97-3.89-88.74-11.21-141.07-24.64-51.16-13.13-95.65-29.27-132.84-45.21,8.84-31.13,17.68-62.25,26.52-93.38Z" fill="#e8482c" stroke="#000" stroke-miterlimit="10" stroke-width=".75"/><path d="M57.69,406.23c30.49,18.54,71.22,39.42,121.59,55.71,59.01,19.09,111.53,25.51,150.84,27.29" fill="none" stroke="#000" stroke-miterlimit="10" stroke-width=".75"/><path d="M111.89,435.08l-25.02,85.93-55.69-21.4,26.76-93.81c5.5,3.34,11.17,6.68,17.02,9.99,12.64,7.15,24.99,13.55,36.93,19.29Z" fill="#fff" stroke="#000" stroke-miterlimit="10" stroke-width=".75"/><line x1="314.18" y1="488.66" x2="290.58" y2="567.44" fill="none" stroke="#000" stroke-miterlimit="10" stroke-width=".75"/><path d="M331.98,179.12c-4.92,39.28-25.54,71.15-51.24,84.13-10.03,5.05-20.79,7.22-31.75,5.84-38.99-4.89-65.06-53.1-58.22-107.67,6.84-54.57,44-94.86,82.99-89.97,10.38,1.3,19.83,5.66,27.95,12.35,22.55,18.58,35.29,55.22,30.27,95.32Z" fill="#c29cdf" opacity=".84"/><path d="M301.13,163.48c-2.72,37.55-15.1,69.26-30.73,83.47-6.1,5.53-12.67,8.38-19.4,7.89-23.91-1.73-40.23-45.44-36.46-97.62,3.77-52.18,26.22-93.09,50.13-91.36,6.36.46,12.18,3.88,17.21,9.62,13.95,15.91,22.02,49.66,19.25,88Z" fill="#fff" stroke="#000" stroke-miterlimit="10" stroke-width=".75"/><path d="M281.87,75.48c-22.78,1.32-43.31,37.25-46.6,82.71-.11,1.49-.19,2.98-.26,4.45l36.07,4.91-35.62,17.16c3.01,33.73,16.65,59.28,34.94,62.24,15.63-14.2,28.01-45.91,30.73-83.47,2.77-38.34-5.3-72.09-19.25-88Z" stroke="#000" stroke-miterlimit="10" stroke-width=".75"/><path d="M458.63,174.88c-2.72,37.55-15.1,69.26-30.73,83.46-6.1,5.53-12.67,8.38-19.4,7.89-23.91-1.73-40.23-45.44-36.46-97.62,3.77-52.18,26.22-93.09,50.13-91.36,6.36.46,12.18,3.88,17.21,9.62,13.95,15.91,22.03,49.66,19.25,88Z" fill="#fff" stroke="#000" stroke-miterlimit="10" stroke-width=".75"/><path d="M439.38,86.87c-22.78,1.32-43.31,37.25-46.6,82.71-.11,1.49-.19,2.98-.26,4.45l36.07,4.91-35.62,17.16c3.01,33.73,16.65,59.28,34.94,62.24,15.63-14.2,28.01-45.91,30.73-83.46,2.77-38.34-5.3-72.09-19.25-88Z" stroke="#000" stroke-miterlimit="10" stroke-width=".75"/><path d="M215.24,138.03l90.3,4.24s-.44-74.57-40.87-76.41c-41.77-1.9-49.43,72.17-49.43,72.17Z" fill="#c29cdf" stroke="#000" stroke-miterlimit="10" stroke-width=".75"/><path d="M340.63,209.18l-.79,15.84s25.7-.16,25.14,13.16c-.56,13.32-29.43,5.98-29.43,5.98" fill="#f7d00a" stroke="#000" stroke-miterlimit="10" stroke-width=".75"/><path d="M384.35,331.02c-3.42,1.55-7.01,3.04-10.78,4.44-12.11,4.47-24.84,6.58-37.67,6.59-19.88.08-39.96-4.85-58.15-13.78-3.7-1.78-7.32-3.76-10.86-5.89-5.51-3.32-10.74-6.97-15.5-10.97-16.75-13.98-27.76-32.09-24.52-54.05,1.11-7.61,5.06-11.83,10.46-13.99,5.53-2.22,12.6-2.26,19.69-1.6,11.4,1.07,21.27,4.82,31.2,8.79,3.11,1.22,6.24,2.48,9.41,3.69h.03c.82.32,1.68.64,2.53.96,8.13,2.97,16.74,5.46,26.61,6.25,5.09.4,10.35.27,15.67-.16,20.72-1.72,42.77-8.23,62.66-6.7,9.41.76,17.33,2.84,22.48,8.74,2.54,2.88,4.42,6.74,5.4,11.84,3.14,15.76-13.96,39.92-48.68,55.84Z" stroke="#000" stroke-miterlimit="10" stroke-width=".75"/><path d="M288.24,250.57c3.11,1.22,6.24,2.48,9.41,3.69-.35-.13-.75-.21-1.14-.31-13.09-3.1-26.77,7.31-30.51,23.24-.4,1.59-.63,3.16-.77,4.71-17.04-4.51-27.33-8.24-27.33-8.24-1.43-2.34-4.02-7.28-4.37-14.04-.42-7.93,2.47-13.83,3.81-16.23,2.19-.7,5.36-1.64,9.26-1.88,3.35-.2,6.89-.05,10.43.28,11.4,1.07,21.27,4.82,31.2,8.79Z" fill="#fff" stroke="#000" stroke-miterlimit="10" stroke-width=".75"/><path d="M427.62,263.34c.31,4.13.29,11.18-2.61,19.19-2.17,5.99-5.19,10.42-7.5,13.27-16.17,1.4-34.54,2.13-54.69,1.23-18.24-.81-35.78-2.66-50.46-5.07.41-1.15.79-2.34,1.06-3.55,3.41-14.39-2.41-28.33-13.21-33.19,8.13,2.97,16.74,5.46,26.61,6.25,5.09.4,10.35.27,15.67-.16,20.72-1.72,42.77-8.23,62.66-6.7,9.41.76,17.33,2.84,22.48,8.74Z" fill="#fff" stroke="#000" stroke-miterlimit="10" stroke-width=".75"/><path d="M384.35,331.02c-3.42,1.55-7.01,3.04-10.78,4.44-12.11,4.47-24.84,6.58-37.67,6.59-19.88.08-39.96-4.85-58.15-13.78-3.7-1.78-7.32-3.76-10.86-5.89-5.51-3.32-10.74-6.97-15.5-10.97,16.62-11.42,44.18-15.93,73.65-10.31,25.4,4.85,46.69,16.16,59.29,29.92Z" fill="#f087a4" stroke="#000" stroke-miterlimit="10" stroke-width=".75"/><path d="M326.34,80.45c-1.78,9.3-35.53,10.68-75.4,3.07-39.87-7.61-70.74-21.32-68.97-30.63,1.78-9.3,35.53-10.68,75.4-3.07,39.87,7.61,70.74,21.32,68.97,30.63Z" stroke="#000" stroke-miterlimit="10" stroke-width=".75"/><path d="M502.12,62.5c1.53,9.35-29.7,22.23-69.76,28.78-40.05,6.55-73.76,4.28-75.29-5.07-1.53-9.35,29.7-22.23,69.76-28.78,40.05-6.55,73.76-4.27,75.29,5.07Z" stroke="#000" stroke-miterlimit="10" stroke-width=".75"/><path d="M177.97,202.53c40.44.11,63.87,28.42,60.63,58.86-3.24,30.44-30.54,52.48-60.98,49.25" fill="#e8482c" stroke="#000" stroke-miterlimit="10" stroke-width=".75"/><path d="M479.2,221.01c-28.71,2.94-52.22,23.85-52.83,54.45-.61,30.6,24.69,48.43,42.56,55.91" fill="#e8482c" stroke="#000" stroke-miterlimit="10" stroke-width=".75"/><path d="M502.84,244.96c-2-6.2-11.83-3.55-9.81,2.7,3.79,11.73,5.38,23.69,4.06,35.98-1.28,11.92-5.22,23.5-9.3,34.7-2.24,6.16,7.58,8.82,9.81,2.7,4.43-12.16,8.27-24.49,9.66-37.41,1.41-13.09-.38-26.2-4.42-38.69Z" fill="#fff"/><path d="M95.14,392.3c-12.64-56.06-14.99-113.06-5.83-169.84,2.68-16.64,6.27-33.11,10.41-49.44,1.6-6.32-8.04-9.57-9.65-3.22-14.43,57-20.62,115.27-13.71,173.85,2.02,17.09,5.06,34.04,8.84,50.83,1.44,6.38,11.38,4.22,9.94-2.18Z" fill="#fff"/><path d="M53.37,345.05c-22.5,20.87-37.12,47.12-13.96,73.3,3.51,3.96,7.54,7.36,11.95,10.28t.07.03c15.94,10.56,37.02,14.69,57.82,15.52,7.43.31,14.83.21,21.98-.24,8.02-.45,15.73-1.28,22.67-2.26,11.32-1.6,18.23,9.03,16.98,17.43-.69,4.65-3.85,8.65-10.14,9.51-17.99,2.53-38.75,3.99-59.34,2.47-20.42-1.46-40.66-5.83-57.82-14.93h-.03c-12.15-6.42-22.78-15.21-30.8-27.02-31.91-46.88,1.6-89.8,40.31-119.28l.31,35.18Z"/><path d="M161.84,422.56s-20.42-16.04-24.95.94c-3.46,12.93-2.32,41.56-1.58,54.47.34,5.95,3.81,11.47,9.31,13.76,3.56,1.49,13.06-.35,17.69-3.64,8.81,6.7,20.42,19.54,43.41,22.42,17.2,2.16,35.8.43,52.04-5.78,8.35-3.19,15.94-7.82,20.87-15.45,2.74-4.24,4.78-9.27,4.76-14.38,0-2.55-.57-5.06-1.76-7.32-.35-.66-2.93-5.19-2.93-5.19,0,0,15.65-21.64-8.62-32.55,0,0,21.86-35.64-32.83-28.42-3.31.44-6.11-14.25-18.66-20.98-1.86-1-14.92-7.76-28.78-3.64-16.49,4.89-28.56,23.51-27.96,45.75Z" fill="#fff" stroke="#000" stroke-miterlimit="10" stroke-width=".9"/><line x1="269.55" y1="430.11" x2="248.83" y2="434.7" fill="#fff" stroke="#000" stroke-miterlimit="10" stroke-width=".9"/><line x1="278.7" y1="462.4" x2="256.8" y2="465.39" fill="#fff" stroke="#000" stroke-miterlimit="10" stroke-width=".9"/><line x1="237.24" y1="401.43" x2="207.03" y2="406.54" fill="#fff" stroke="#000" stroke-miterlimit="10" stroke-width=".9"/><line x1="161.84" y1="422.56" x2="161.73" y2="444.12" fill="#fff" stroke="#000" stroke-miterlimit="10" stroke-width=".9"/><line x1="162.71" y1="472.36" x2="162.31" y2="488.09" fill="#fff" stroke="#000" stroke-miterlimit="10" stroke-width=".9"/><path d="M242.4,419.57c.86,5.54-7.75,6.88-8.61,1.33-.86-5.54,7.75-6.88,8.61-1.33h0Z" stroke="#000" stroke-miterlimit="10" stroke-width="1.2"/><path d="M246.69,454.22c.86,5.54-7.75,6.88-8.61,1.33-.86-5.54,7.75-6.88,8.61-1.33h0Z" stroke="#000" stroke-miterlimit="10" stroke-width="1.2"/><path d="M250.58,488.93c.86,5.54-7.75,6.88-8.61,1.33-.86-5.54,7.75-6.88,8.61-1.33h0Z" stroke="#000" stroke-miterlimit="10" stroke-width="1.2"/></svg>