<?xml version="1.0" encoding="UTF-8"?><svg id="Ebene_2" xmlns="http://www.w3.org/2000/svg" width="510.31" height="508.91" viewBox="0 0 510.31 508.91"><g id="_02"><polygon points="111.18 254.46 0 138.24 158.96 152.43 181.61 0 266.33 127.23 389.53 61.44 352.43 197.83 509.89 236.47 352.43 311.08 401.91 466.57 266.33 381.68 181.61 508.91 158.96 356.49 9.4 367.7 111.18 254.46" fill="#fff"/><path d="M425.89,303.49l-12.63,67.95c-2.29,12.23-12.37,21.06-24.09,21.06-46.56,8.06-102.55,14.23-165.95,14.1-61.79-.12-116.46-6.19-162.14-14.1-3.83-.25-10.21-1.26-15.54-5.91-4.26-3.72-7.35-8.97-8.5-15.07-3.53-18.74-8.75-46.48-12.86-67.85-.78-4-9.33-49.4-.07-64.34h.07c.34,1.58.69,3.17,1.03,4.78,8.94,41.12,104.89,58.23,172.58,24.49,10.59-5.26,17.18-16.25,20.3-28.22l4.36-16.15c.13,1.09,2.93,20.09,2.93,20.09,2.43,12.16,9.72,22.62,19.98,28.56,65.63,38.05,162.39,27.2,173.68-13.23.92-3.31,1.81-6.56,2.68-9.77,5.2,16.4,7.45,35.71,4.15,53.62Z" fill="#fdb0b5"/><path d="M225.11,407.1c-.63,0-1.26,0-1.89,0-54.2-.11-108.78-4.86-162.22-14.11-6.35-.42-11.68-2.45-15.79-6.03-4.45-3.89-7.53-9.34-8.66-15.36-2.77-14.71-8.53-45.31-12.86-67.85-.98-5.04-9.33-49.65,0-64.7l.15-.24h.68l.15.39c.36,1.65.69,3.2,1.03,4.78,2.53,11.65,12.24,21.82,28.08,29.42,17.92,8.6,41.87,13.08,67.43,12.57,27.61-.53,54.01-6.7,76.36-17.83,9.46-4.7,16.58-14.61,20.04-27.9l5.03-18.62.31,2.54c.13,1.07,2.9,19.89,2.93,20.08,2.41,12.04,9.6,22.33,19.74,28.2,21.72,12.59,47.79,20.46,75.39,22.76,25.56,2.13,49.75-.81,68.11-8.29,16.09-6.55,26.27-16.02,29.45-27.41.92-3.31,1.81-6.55,2.68-9.77l.44-1.64.51,1.62c5.75,18.12,7.22,37.24,4.16,53.86h0s-12.63,67.95-12.63,67.95c-2.33,12.44-12.67,21.47-24.58,21.47-54,9.36-109.21,14.11-164.07,14.11ZM23.96,240.61c-8.3,15.99.34,61,.72,62.95,4.33,22.55,10.09,53.15,12.86,67.86,1.09,5.79,4.05,11.05,8.34,14.79,3.93,3.44,9.06,5.38,15.25,5.79,53.44,9.25,107.96,14,162.11,14.1,55.43.12,111.22-4.63,165.87-14.1,11.51,0,21.44-8.69,23.68-20.66l12.63-67.95h0c2.94-15.96,1.65-34.26-3.62-51.73-.73,2.67-1.47,5.37-2.23,8.11-3.27,11.7-13.66,21.4-30.04,28.07-18.51,7.53-42.86,10.5-68.57,8.36-27.74-2.31-53.96-10.23-75.81-22.89-10.38-6.02-17.75-16.55-20.22-28.9-.09-.64-1.84-12.46-2.59-17.71l-3.72,13.79c-3.53,13.57-10.83,23.7-20.56,28.54-22.48,11.2-49.03,17.4-76.79,17.94-25.72.49-49.82-4-67.88-12.67-16.13-7.73-26.02-18.15-28.62-30.11-.26-1.21-.52-2.4-.77-3.59Z"/><path d="M405.14,332.41c-1.54,11.21-3.08,22.5-6.64,33.27-1.67,5.07-3.74,9.78-8.6,12.4-4.17,2.24-9.11,2.78-13.71,3.38-4.51.59-3.02,7.66,1.47,7.07,11.13-1.46,20.89-4.58,25.76-15.79,5.38-12.39,6.94-26.6,8.76-39.91.63-4.61-6.43-5.01-7.05-.42Z" fill="#fff"/><path d="M67.08,378.96c-12.09-1.22-14.74-20.24-16.65-29.76-2.41-12-3.82-24.17-6.5-36.12-1.02-4.53-7.83-2.61-6.81,1.92,3.38,15.06,4.7,30.56,8.65,45.5,3.06,11.58,8.06,24.34,21.31,25.68,4.52.46,4.49-6.77,0-7.23Z" fill="#fff"/><path d="M25.21,244.1c8.95,41.1,104.9,58.22,172.59,24.49,10.59-5.27,18.46-15.23,21.58-27.21l3.58-13.76.05,1.49c2.02-27.95,1.36-53.78-3.02-70.28-4.81-18.16-19.96-30.77-35.56-36.82-20.92-8.12-39.02,4.69-57.45,13.16-18.55,8.51-27.93.43-42.27-4.48-23.63-8.11-54.52,8.2-64.49,32.16-2.01,4.83-3.21,9.85-3.87,15.03-1.69,13.01,2.7,37.93,8.85,66.2Z" fill="#fff"/><path d="M117.43,287.01c-24.28,0-46.91-4.47-64.08-12.7-16.12-7.73-26.02-18.14-28.63-30.1-5.1-23.42-10.71-52.14-8.86-66.37.72-5.61,1.99-10.57,3.91-15.16,10.25-24.64,41.9-40.41,65.12-32.44,2.94,1.01,5.67,2.15,8.32,3.25,10.21,4.26,19.02,7.94,33.58,1.25,3.09-1.42,6.23-2.99,9.27-4.51,15.22-7.62,30.96-15.5,48.58-8.66,18.16,7.04,31.56,20.93,35.86,37.15,4.12,15.5,5.19,40.52,3.03,70.44h-.43s-3.22,12.35-3.22,12.35c-3.17,12.16-11.13,22.2-21.84,27.53-22.48,11.2-49.04,17.4-76.79,17.93-1.27.02-2.55.04-3.81.04ZM71.82,129.14c-20.39,0-42.85,14.01-51.13,33.92-1.88,4.51-3.13,9.38-3.84,14.91-1.83,14.09,3.77,42.69,8.85,66.03,2.53,11.65,12.25,21.81,28.08,29.41,17.92,8.59,41.86,13.06,67.43,12.57,27.61-.53,54.02-6.69,76.37-17.83,10.45-5.21,18.22-15.01,21.32-26.89l3.78-14.52c1.93-28.77.81-52.77-3.17-67.76-4.22-15.92-17.39-29.56-35.25-36.48-17.2-6.68-32.74,1.1-47.77,8.62-3.04,1.52-6.19,3.1-9.3,4.53-14.97,6.86-23.96,3.11-34.38-1.24-2.63-1.1-5.34-2.23-8.25-3.23-4.04-1.39-8.34-2.04-12.74-2.04Z"/><path d="M74.3,152.21c-10.82,1.64-17.9,18.04-17.36,34.71l10.96,1.93-9.97,8.09c4.33,14.77,15.37,25.74,25.61,24.19,12-1.82,19.65-18.72,17.1-37.75-2.55-19.03-14.35-32.98-26.35-31.16Z"/><path d="M81.65,221.77c-9.66,0-20-10.36-24.2-24.69l-.09-.32,9.38-7.61-10.28-1.81v-.41c-.67-20.26,8.51-33.82,17.77-35.22l.08.49-.08-.49c4.26-.65,8.64.61,12.68,3.64,7.3,5.48,12.63,15.92,14.24,27.94,2.59,19.27-5.27,36.46-17.52,38.31-.65.1-1.31.15-1.97.15ZM58.51,197.12c4.41,14.67,15.31,24.98,24.96,23.51,11.71-1.78,19.19-18.46,16.68-37.19-1.58-11.76-6.75-21.96-13.85-27.28-3.82-2.86-7.94-4.06-11.93-3.46-9.82,1.49-17.38,16.61-16.94,33.8l11.64,2.05-10.56,8.57Z"/><path d="M61.65,162.12c-1.98-.82-3.86-1.9-5.57-3.22-2.1-1.61-3.95-3.56-5.5-5.79l.82-.57c1.49,2.14,3.27,4.02,5.29,5.57,1.65,1.26,3.45,2.3,5.35,3.09l-.38.92Z"/><path d="M68.05,154.81c-1.42-1.67-2.66-3.5-3.7-5.45-.96-1.79-1.75-3.69-2.35-5.64l.95-.29c.59,1.9,1.35,3.73,2.28,5.47,1.01,1.88,2.21,3.66,3.58,5.27l-.76.65Z"/><path d="M77.79,152.33c-.64-2.08-1.08-4.25-1.29-6.42-.18-1.91-.2-3.85-.04-5.77l1,.08c-.15,1.85-.13,3.73.04,5.59.2,2.11.62,4.2,1.25,6.22l-.96.29Z"/><path d="M78.25,236.19l-.9-.43c1.13-2.38,1.91-4.92,2.3-7.54.32-2.14.38-4.32.19-6.49l1-.09c.2,2.24.14,4.5-.2,6.73-.41,2.72-1.21,5.35-2.39,7.82Z"/><path d="M65.23,229.57l-.73-.69c1.33-1.41,2.52-2.96,3.56-4.62,1.13-1.81,2.08-3.75,2.81-5.78l.94.34c-.76,2.09-1.74,4.1-2.91,5.96-1.07,1.71-2.31,3.32-3.68,4.78Z"/><path d="M55.7,217.45l-.39-.92c1.62-.69,3.19-1.55,4.66-2.55,1.68-1.14,3.25-2.48,4.66-3.98l.73.69c-1.46,1.55-3.08,2.93-4.82,4.12-1.52,1.04-3.15,1.93-4.83,2.64Z"/><path d="M162.89,143.06c10.91-.65,20.89,13.95,23.44,30.4l-10.39,4.19,11.27,5.84c-1.51,15.39-10.31,28.45-20.64,29.07-12.1.73-22.73-14.24-23.75-33.44-1.02-19.19,7.97-35.34,20.07-36.07Z"/><path d="M165.73,213.08c-3.99,0-7.93-1.64-11.45-4.79-6.85-6.12-11.32-17.01-11.96-29.15-1.03-19.44,8.18-35.85,20.54-36.59h0c9.37-.57,20.86,10.82,23.97,30.82l.06.39-9.75,3.93,10.61,5.5-.03.34c-1.56,15.94-10.83,28.91-21.1,29.52-.29.02-.58.03-.87.03ZM162.92,143.55c-11.81.71-20.6,16.65-19.6,35.54.63,11.88,4.98,22.51,11.63,28.45,3.57,3.19,7.58,4.75,11.59,4.51,9.72-.58,18.53-12.98,20.13-28.29l-11.94-6.19,11.03-4.44c-2.75-16.94-12.92-30.16-22.85-29.59h0Z"/><path d="M177.13,150.12l-.56-.83c1.72-1.17,3.29-2.57,4.67-4.15,1.7-1.94,3.1-4.16,4.16-6.57l.92.4c-1.1,2.51-2.56,4.81-4.32,6.83-1.44,1.65-3.07,3.1-4.86,4.32Z"/><path d="M169.51,144.3l-.87-.49c1.04-1.87,1.9-3.86,2.54-5.92.59-1.89,1-3.86,1.22-5.84l.99.11c-.23,2.04-.66,4.07-1.26,6.02-.66,2.13-1.54,4.18-2.62,6.11Z"/><path d="M159.49,143.91l-.99-.11c.24-2.11.26-4.25.07-6.36-.17-1.85-.5-3.7-.99-5.49l.96-.26c.51,1.85.85,3.75,1.02,5.66.2,2.18.17,4.39-.07,6.57Z"/><path d="M174.55,226.21c-1.61-2.17-2.88-4.59-3.79-7.17-.74-2.11-1.22-4.31-1.44-6.55l1-.1c.21,2.16.67,4.29,1.38,6.32.87,2.49,2.1,4.81,3.65,6.91l-.8.59Z"/><path d="M186.1,217c-1.62-1.14-3.13-2.46-4.5-3.91-1.49-1.59-2.82-3.35-3.95-5.24l.86-.51c1.1,1.83,2.38,3.54,3.83,5.07,1.32,1.41,2.79,2.68,4.34,3.78l-.58.82Z"/><path d="M193.21,203.12c-1.78-.35-3.54-.88-5.23-1.58-1.93-.8-3.77-1.82-5.49-3.03l.58-.82c1.66,1.17,3.44,2.15,5.3,2.92,1.63.67,3.32,1.18,5.04,1.52l-.19.98Z"/><ellipse cx="122.27" cy="198.3" rx="9.25" ry="9.84" fill="#fd5877"/><path d="M122.27,208.64c-5.38,0-9.75-4.64-9.75-10.33s4.37-10.34,9.75-10.34,9.75,4.64,9.75,10.34-4.37,10.33-9.75,10.33ZM122.27,188.97c-4.82,0-8.75,4.19-8.75,9.34s3.92,9.33,8.75,9.33,8.75-4.19,8.75-9.33-3.92-9.34-8.75-9.34Z"/><path d="M141.81,213s7.65,60.01-12.64,61.43c-23.09,1.61-21.54-59.04-21.54-59.04,3.07,1.42,9.45,3.86,17.7,3.2,7.88-.63,13.63-3.76,16.48-5.59Z" fill="#fff"/><path d="M128.28,274.96c-3.26,0-6.21-1.24-8.76-3.68-5.61-5.37-9.4-16.42-11.27-32.85-1.38-12.18-1.12-22.94-1.12-23.05l.02-.76.69.32c3.82,1.77,9.95,3.75,17.46,3.15,5.71-.45,11.33-2.36,16.25-5.51l.67-.43.1.78c.01.11,1.41,11.17,1.42,23.75.02,16.96-2.35,28.45-7.04,34.16-2.05,2.5-4.57,3.88-7.48,4.08-.31.02-.62.03-.93.03ZM108.11,216.15c-.06,5.77.04,42.87,12.09,54.4,2.59,2.47,5.6,3.61,8.93,3.38,2.62-.18,4.91-1.43,6.78-3.72,10.05-12.24,6.17-50.43,5.49-56.37-4.89,2.99-10.42,4.8-16.03,5.24-7.28.58-13.3-1.2-17.26-2.93Z"/><polygon points="135.07 271.85 134.57 271.85 131.09 217.53 132.08 217.46 135.57 271.79 135.07 271.85"/><rect x="120.38" y="218.46" width="1" height="54.7" transform="translate(-17.18 9.22) rotate(-4.08)"/><rect x="109.82" y="244.52" width="33.3" height="1" transform="translate(-16.46 9.22) rotate(-3.92)"/><path d="M461.53,330.47c-14.68,5.37-26.13-12.84-33.83-22.86-.78-1-1.54-2.02-2.29-3.04,1.44-7.46,2.12-15.05,2.15-22.49,1.82,2.7,3.68,5.34,5.56,7.95,4.39,6.06,8.92,12.02,13.77,17.63,1.74,1.98,7.07,10.23,10.82,6.72,1.79-1.69,1.39-10.42,1.52-12.67,1.91-29.64-3.78-58.99,11.37-86.1,4.77-8.54,16.82-.25,12.05,8.29-11.44,20.44-8.59,43.92-8.64,66.48-.03,12.24,1.61,34.92-12.49,40.08Z"/><path d="M465.49,194.38c.07-.03-.27-2.26.37-4.53.95-3.41,3.76-7.7,6.29-10.08,2.21-2.08,5.1-3.23,8.1-2.43,3.31.89,4.96,4.58,4.41,7.99.23-.27.58-.64,1.06-1,.31-.23.55-.37.61-.4.93-.48,1.93-.82,2.95-.97,2.4-.34,4.77.68,6.44,2.52,1.9,2.1,2.47,4.86,2.96,7.62.07-.02.84-.23.92-.25,4.93-1.02,9.17,2.73,10,8.02,2,12.62-10.64,20.53-10.64,20.53,3.17,18.55-12.66,17.51-12.66,17.51-.59,11.28-11.1,10.53-26.44-.4-15.35-10.93-.82-17.05-.82-17.05-16.42-17.15,2.4-25.29,6.46-27.08Z" fill="#fff"/><path d="M479,247.53c-4.77,0-11.48-2.95-19.44-8.62-5.16-3.68-7.59-7.26-7.21-10.64.42-3.83,4.29-6.17,5.85-6.97-4.93-5.32-6.97-10.31-6.07-14.84,1.43-7.21,9.79-11.05,12.87-12.41,0,0,0-.01,0-.02-.04-.75-.12-2.51.38-4.32.92-3.29,3.68-7.72,6.43-10.31,2.54-2.4,5.66-3.33,8.57-2.55,3.33.89,4.89,4.14,4.88,7.2.05-.04.11-.08.16-.12.39-.29.65-.43.68-.45,1.02-.53,2.07-.87,3.11-1.02,2.46-.35,5.04.65,6.88,2.68,1.83,2.02,2.47,4.52,2.99,7.33.2-.05.38-.1.42-.11,2.26-.47,4.45-.02,6.34,1.28,2.23,1.54,3.78,4.14,4.25,7.14,1.85,11.73-8.71,19.56-10.59,20.85.97,6.02.05,10.64-2.73,13.73-3.36,3.73-8.35,4.05-9.98,4.05h-.02c-.29,3.71-1.68,6.18-4.13,7.36-1.04.5-2.25.75-3.64.75ZM478.29,177.58c-2.01,0-4.02.87-5.8,2.55-2.63,2.48-5.28,6.71-6.15,9.85-.46,1.65-.38,3.3-.35,4,.02.42.03.7-.3.85l-.07.03c-2.76,1.21-11.14,4.91-12.51,11.79-.86,4.33,1.25,9.2,6.29,14.46l.5.52-.67.28c-.05.02-5.43,2.34-5.89,6.47-.33,3,1.96,6.26,6.8,9.71,9.95,7.09,17.79,9.85,22.06,7.79,2.2-1.06,3.41-3.42,3.59-7l.03-.51.5.03c.06,0,6.06.34,9.7-3.72,2.62-2.91,3.43-7.35,2.43-13.21l-.06-.33.28-.18c.12-.08,12.33-7.89,10.41-20.03-.43-2.73-1.83-5.09-3.83-6.48-1.66-1.15-3.59-1.54-5.57-1.13-.05.01-.26.07-.47.13-.21.06-.4.11-.44.12l-.51.11-.09-.52c-.51-2.88-1.07-5.42-2.84-7.37-1.61-1.78-3.85-2.66-6-2.36-.93.13-1.87.44-2.79.92-.06.03-.27.15-.54.36-.37.28-.7.59-.98.93l-1.16,1.37.29-1.77c.48-2.99-.9-6.59-4.04-7.43-.6-.16-1.21-.24-1.82-.24ZM465.29,193.92l.2.46-.2-.46Z"/><path d="M486.15,239.36c-2.91,0-6.46-1.16-10.55-3.44l.49-.87c4.03,2.25,7.51,3.38,10.24,3.32l.02,1c-.07,0-.14,0-.21,0Z"/><path d="M493.4,305.98c3.72-11.95,6.81-24.4,7.53-36.99,1.06-18.62-6.28-40.51-6.72-40.88-15.83-45.55-43.23-86.78-79.01-114.73-36.68-28.65-85.08-43.27-128.7-30.57-18.54,5.4-36.85,16.16-49.03,33.27-6.44,9.06-10.92,19.53-13.04,30.96-2.6,13.97-2.4,28.45-3.1,42.66-1.39,28.1-4.39,56.44-13.1,82.89-7.76,23.58-20.54,44.52-36.29,62.05-34.26,38.14-80.08,58.23-126.06,70.74-6.03,1.64-12.09,3.16-18.16,4.6-4.05.96-2.29,8.02,1.75,7.06,46.53-11.01,93.21-27.72,131.06-61.35,16.76-14.89,31.51-32.92,42.43-53.76,12.16-23.22,18.6-49.49,21.85-76.17,1.65-13.6,2.59-27.3,3.19-41.02.61-13.95.45-28.24,3.97-41.72,5.54-21.22,20.7-36.53,37.86-45.73,39.23-21.04,87.84-12.01,125.18,10.65,39.29,23.84,68.87,64.35,87.14,110.03,1.75,4.37,3.37,8.79,4.9,13.25.03.31.09.62.22.96,5.13,13.79,7.33,28.57,5.9,43.29-1.32,13.53-6,26.25-9.84,39.17-3.56,11.97-6.35,24.59-4.66,37.16,1.68,12.49,7,23.72,15.13,33.13,3.01,3.49,7.69-1.95,4.71-5.4-8.55-9.9-13.29-22.7-13.27-35.91.02-12.96,4.37-25.47,8.17-37.66Z" fill="#1a69be"/><path d="M28.73,417.65c-1.89,0-3.25-1.57-3.67-3.34-.45-1.91.15-4.23,2.54-4.8,6.56-1.55,12.49-3.05,18.15-4.59,56.34-15.33,96.32-37.76,125.82-70.59,16.58-18.45,28.75-39.27,36.19-61.87,9.35-28.43,11.9-59.16,13.07-82.76.17-3.48.29-7.05.41-10.49.36-10.65.73-21.66,2.7-32.24,2.12-11.41,6.54-21.9,13.13-31.16,11.05-15.54,28.56-27.42,49.3-33.47,41-11.94,89.28-.48,129.15,30.65,34.72,27.12,62.83,67.94,79.17,114.96h-.01c1.19,2.44,7.76,23.52,6.76,41.07-.8,14.12-4.7,27.94-7.55,37.11l-.48-.15.48.15c-.35,1.12-.7,2.24-1.05,3.36-3.48,11.04-7.07,22.46-7.09,34.16-.02,13.09,4.65,25.73,13.15,35.58,1.81,2.1,1.11,4.97-.58,6.43-1.3,1.13-3.32,1.45-4.89-.37-8.45-9.79-13.58-21.03-15.25-33.39-1.77-13.13,1.37-26.26,4.68-37.37.77-2.58,1.57-5.16,2.37-7.73,3.15-10.11,6.4-20.57,7.45-31.34,1.38-14.14-.65-29.03-5.87-43.07-.12-.32-.2-.65-.24-1.02-1.58-4.6-3.22-9.03-4.88-13.18-19.42-48.57-50.29-87.56-86.93-109.79-19.43-11.79-40.76-19.27-61.68-21.64-22.95-2.6-44.74,1.21-63,11.01-19.31,10.36-32.66,26.49-37.61,45.42-2.9,11.1-3.3,22.91-3.69,34.34-.08,2.43-.17,4.86-.27,7.28-.69,15.72-1.7,28.77-3.19,41.06-3.68,30.25-10.84,55.22-21.9,76.34-10.47,19.99-24.78,38.12-42.54,53.9-41.32,36.71-91.86,52.13-131.28,61.46-.3.07-.58.1-.86.1ZM319.62,78.7c-11.3,0-22.38,1.51-32.98,4.6-20.52,5.98-37.84,17.73-48.76,33.08-6.5,9.15-10.86,19.5-12.96,30.76-1.96,10.51-2.33,21.48-2.68,32.09-.12,3.45-.24,7.02-.41,10.51-1.17,23.66-3.73,54.48-13.12,83.02-7.48,22.74-19.73,43.68-36.39,62.23-29.63,32.98-69.76,55.51-126.3,70.89-5.67,1.54-11.61,3.05-18.18,4.6-1.73.41-2.15,2.1-1.8,3.59.35,1.5,1.55,2.91,3.32,2.49,39.3-9.3,89.69-24.67,130.84-61.23,17.67-15.7,31.9-33.73,42.31-53.62,11-21,18.13-45.86,21.79-75.99,1.49-12.26,2.5-25.29,3.19-40.98.11-2.41.19-4.84.27-7.27.39-11.48.79-23.36,3.72-34.56,5.02-19.2,18.55-35.56,38.1-46.05,18.45-9.9,40.44-13.74,63.59-11.12,21.06,2.39,42.53,9.92,62.08,21.78,36.83,22.34,67.84,61.51,87.34,110.28,1.67,4.18,3.32,8.65,4.91,13.28l.02.11c.03.32.09.58.19.84,5.27,14.17,7.32,29.22,5.93,43.51-1.06,10.88-4.33,21.38-7.49,31.54-.8,2.57-1.6,5.14-2.37,7.72-3.28,11.01-6.39,24.01-4.65,36.95,1.64,12.17,6.69,23.23,15.01,32.87,1.19,1.38,2.58,1.05,3.48.27,1.35-1.17,1.9-3.36.47-5.02-8.66-10.03-13.41-22.9-13.39-36.24.02-11.85,3.64-23.34,7.14-34.45.35-1.12.71-2.24,1.05-3.36,4.58-14.69,6.89-26.07,7.51-36.87,1.03-18.12-5.96-39.24-6.6-40.52l-.05-.04-.04-.13c-16.27-46.84-44.27-87.5-78.84-114.5-29.3-22.88-63.17-35.08-95.27-35.08Z"/><path d="M504.72,207.85s-14.62,14.76-18.89,6.14c-4.33-8.75,12.84-20.89,12.84-20.89" fill="#fff"/><path d="M490.02,217.19c-.32,0-.62-.02-.93-.07-1.64-.27-2.88-1.24-3.71-2.91-4.46-9.03,12.29-21.01,13-21.52l.58.82c-.17.12-16.77,11.99-12.68,20.26.68,1.38,1.65,2.15,2.97,2.37,5.6.92,15.02-8.54,15.11-8.63l.71.7c-.38.38-8.98,8.99-15.06,8.99Z"/><path d="M495.11,195.97c-11.37,9.87-9.53,18-9.53,18-22.77-2.44-.64-29.02-.64-29.02-7.36,8.84-9.13,15.98-9.13,15.98-19.32-2.4-7.56-20.04-.41-23.17" fill="#fff"/><path d="M486.22,214.54l-.69-.07c-5.37-.57-8.77-2.53-10.1-5.83-.87-2.16-.78-4.69-.14-7.28-7.85-1.1-10.02-4.74-10.44-7.63-.93-6.38,5.64-14.37,10.35-16.44l.4.92c-4.46,1.96-10.61,9.62-9.77,15.38.53,3.64,3.85,5.98,9.61,6.79.5-1.69,2.69-8.04,9.11-15.74l.77.64c-.12.15-12.26,14.87-8.97,23,1.13,2.8,4.04,4.52,8.64,5.13-.19-2.2.07-9.37,9.78-17.8l.66.75c-10.97,9.52-9.38,17.43-9.37,17.51l.15.68Z"/><path d="M458.54,221.5c-3.58-4.49-5.59-8.53-6.01-10.83-1.08-5.85,1.79-10.33,7.9-14.11,7.99-4.95,13.23-6.02,17.78-6.8,3.25-.55,6.66,1.15,7.97,4.37,3.79,9.28-14.18,17.86-14.18,17.86,0,0,15.85,7.4,1.91,19.06" fill="#fff"/><path d="M474.23,231.43l-.64-.77c4.06-3.4,5.91-6.72,5.5-9.89-.68-5.18-7.24-8.3-7.3-8.33l-.96-.45.96-.46c.18-.08,17.5-8.48,13.94-17.22-1.18-2.89-4.3-4.6-7.42-4.06-4.9.84-9.94,1.98-17.6,6.73-6.23,3.86-8.67,8.18-7.67,13.6.35,1.92,2.11,5.85,5.91,10.61l-.78.62c-3.91-4.9-5.72-8.92-6.11-11.05-1.07-5.79,1.59-10.57,8.13-14.63,7.82-4.85,12.96-6.01,17.96-6.87,3.58-.61,7.16,1.35,8.52,4.67,3.47,8.5-9.9,16.16-13.55,18.06,1.93,1.1,6.4,4.09,6.99,8.65.46,3.53-1.51,7.15-5.85,10.79Z"/><path d="M129.59,362.05c-22.18-1.8-44.41-2.67-66.66-2.49-7.05.04-15.27,1.12-23.48,1.41-9.22.4-18.41-.16-25.86-4.09-26.92-14.2-5.72-50.24,8.07-71.68.56,7.73,2.13,16.1,3.62,22.81-3.02,5.56-5.71,11.28-7.77,17.25-6.13,17.63,5.45,19.91,17.6,19.76,4.32-.07,8.73-.43,12.44-.53,28.26-.75,56.51.19,84.69,2.5,9.26.76,6.53,15.82-2.66,15.06Z"/><path d="M129.38,342.76s-5.04-10.48-9.87-4.11c-3.68,4.85-8.39,17.19-10.43,22.79-.94,2.58-.59,5.55,1.14,7.51,1.12,1.27,5.14,2.21,7.53,1.65,2.22,4.43,4.41,11.96,12.82,17.34,6.29,4.02,13.83,6.65,21.26,6.95,3.82.15,7.6-.43,10.89-2.77,1.83-1.3,3.53-3.06,4.44-5.23.46-1.08.69-2.24.64-3.42-.02-.34-.2-2.73-.2-2.73,0,0,9.98-6.34,2.52-15.35,0,0,14.92-11.15-7.63-17.97-1.37-.41.2-7.14-3.47-12.26-.54-.76-4.4-5.98-10.52-6.74-7.29-.91-15.34,4.8-19.11,14.33Z" fill="#fff"/><path d="M152.92,395.42c-.36,0-.73,0-1.11-.02-7.24-.29-14.88-2.79-21.51-7.03-7.16-4.57-9.89-10.68-11.89-15.14-.33-.73-.64-1.42-.94-2.05-2.57.42-6.41-.5-7.63-1.89-1.78-2.03-2.26-5.17-1.23-8.01,1.91-5.24,6.75-17.96,10.51-22.92,1.23-1.63,2.61-2.38,4.1-2.24,2.8.28,5.12,3.76,6.1,5.48,3.95-9.01,11.73-14.59,19.23-13.66,6.16.77,10.13,5.92,10.87,6.95,2.32,3.23,2.62,7.07,2.82,9.62.08,1.02.18,2.28.41,2.46,7.75,2.34,12.04,5.49,12.72,9.36.76,4.32-3.22,8.05-4.54,9.16,2.05,2.63,2.88,5.29,2.46,7.93-.66,4.16-4.17,6.89-5.16,7.59.05.65.17,2.18.18,2.45.06,1.22-.17,2.44-.67,3.64-1.08,2.56-3.1,4.37-4.61,5.45-2.73,1.94-6.04,2.89-10.1,2.89ZM118.02,370.03l.18.35c.37.73.73,1.55,1.13,2.43,1.95,4.35,4.61,10.3,11.52,14.71,6.49,4.14,13.95,6.58,21.01,6.87,4.34.17,7.8-.7,10.58-2.68,1.4-1,3.29-2.68,4.27-5.02.45-1.06.65-2.13.6-3.2-.02-.34-.2-2.71-.2-2.71l-.02-.3.25-.16s4.29-2.78,4.97-7.08c.39-2.47-.48-5.01-2.56-7.53l-.33-.4.42-.32c.05-.04,5.34-4.06,4.56-8.51-.61-3.46-4.66-6.35-12.04-8.58-.86-.26-.95-1.42-1.1-3.33-.19-2.43-.48-6.1-2.63-9.11-.69-.97-4.43-5.82-10.18-6.54-7.2-.89-15.01,5-18.59,14.02l-.42,1.06-.5-1.03c-.03-.06-2.71-5.56-5.81-5.87-1.11-.11-2.2.51-3.21,1.84-3.67,4.85-8.47,17.46-10.36,22.66-.91,2.5-.5,5.25,1.04,7.01.94,1.08,4.75,2.03,7.04,1.5l.38-.09Z"/><rect x="164.93" y="359.99" width="1" height="9.06" transform="translate(-224.71 454.12) rotate(-78.52)"/><rect x="162.58" y="374.68" width="1" height="9.44" transform="translate(-247.05 427.73) rotate(-73.46)"/><rect x="155.66" y="339.24" width="1" height="13.09" transform="translate(-217.8 409.9) rotate(-75.42)"/><rect x="122.45" y="346.82" width="9.92" height="1" transform="translate(-241.96 326.57) rotate(-66.64)"/><rect x="115.62" y="366.81" width="7.24" height="1" transform="translate(-264.52 324.09) rotate(-65.59)"/><path d="M468.89,232.5c-4.43-1.91-9.47-7.82-10.87-10.9l.91-.41c1.33,2.94,6.14,8.58,10.35,10.39l-.39.92Z"/><path d="M419.05,259.64c-11.29,40.45-108.04,51.29-173.68,13.24-10.26-5.95-17.55-16.4-19.98-28.56l-2.79-13.96-.14,1.49c-.41-28.03,1.73-53.77,7.05-69.95,5.84-17.82,21.69-29.42,37.61-34.44,21.35-6.75,38.67,7.21,56.59,16.87,18.03,9.7,27.85,2.24,42.45-1.73,24.05-6.56,53.95,11.72,62.52,36.29,1.73,4.95,2.64,10.04,3,15.26.94,13.09-4.87,37.68-12.64,65.51Z" fill="#fff"/><path d="M337.06,296.89c-5.29,0-10.67-.22-16.13-.68-27.74-2.31-53.96-10.23-75.81-22.9-10.39-6.02-17.75-16.55-20.22-28.9l-2.5-12.55-.43-.02c-.44-30.01,2.07-54.91,7.07-70.11,5.22-15.92,19.4-28.91,37.93-34.76,17.96-5.68,33.23,3.2,47.99,11.8,2.94,1.71,5.99,3.49,8.99,5.1,14.15,7.61,23.16,4.52,33.59.93,2.7-.93,5.49-1.89,8.49-2.7,23.63-6.44,54.31,11.35,63.13,36.61,1.64,4.71,2.63,9.74,3.03,15.39,1.03,14.33-6.22,42.62-12.66,65.67-3.27,11.7-13.65,21.41-30.04,28.08-14.58,5.94-32.8,9.04-52.44,9.04ZM222.95,229.47l2.94,14.74c2.41,12.06,9.6,22.35,19.74,28.23,21.72,12.6,47.79,20.47,75.39,22.77,25.56,2.13,49.74-.81,68.11-8.29,16.09-6.55,26.27-16.03,29.45-27.42l.48.13-.48-.13c6.41-22.97,13.64-51.16,12.62-65.34-.39-5.56-1.36-10.51-2.97-15.13-8.66-24.81-38.75-42.29-61.92-35.97-2.96.81-5.74,1.76-8.42,2.68-10.65,3.66-19.85,6.83-34.39-1-3.02-1.63-6.07-3.4-9.02-5.12-14.57-8.48-29.63-17.26-47.18-11.71-18.22,5.75-32.16,18.5-37.28,34.12-4.83,14.7-7.33,38.59-7.05,67.43Z"/><path d="M294.77,145.76c-10.35-1.84-21.47,10.83-26.39,29.13l13.49,10.43-15.94,5.02c-.87,17.51,5.05,31.69,14.85,33.44,11.48,2.04,23.91-13.77,27.78-35.31,3.86-21.54-2.31-40.66-13.78-42.71Z"/><path d="M282.77,224.46c-.69,0-1.39-.06-2.08-.18-9.89-1.76-16.17-15.72-15.26-33.95l.02-.35,15.36-4.84-13-10.05.09-.32c5.1-18.96,16.44-31.36,26.96-29.5h0c3.53.63,6.74,2.88,9.26,6.5,5.66,8.11,7.54,22.21,4.93,36.79-3.68,20.5-15.16,35.9-26.28,35.9ZM266.41,190.72c-.79,17.54,5.13,30.91,14.45,32.57,11.17,1.99,23.39-13.67,27.2-34.91,2.57-14.33.74-28.14-4.76-36.04-2.37-3.4-5.35-5.5-8.61-6.08h0c-9.78-1.74-20.81,10.47-25.74,28.45l13.99,10.81-16.52,5.2Z"/><path d="M378.53,156.44c10.38,1.67,16.69,17.3,15.28,36.19l-16.19,5.4,13.39,9.99c-4.96,16.82-15.25,28.26-25.07,26.67-11.51-1.85-18.02-20.87-14.55-42.48,3.47-21.61,15.62-37.63,27.13-35.77Z"/><path d="M367.77,235.34c-.64,0-1.27-.05-1.91-.15-11.76-1.9-18.47-21.21-14.96-43.06,1.69-10.53,5.47-20.09,10.65-26.91,5.24-6.91,11.3-10.2,17.06-9.28h0c10.55,1.7,17.16,17.15,15.7,36.73l-.03.33-15.59,5.2,12.9,9.63-.1.33c-4.84,16.39-14.38,27.18-23.72,27.18ZM376.69,156.79c-4.85,0-9.88,3.15-14.34,9.04-5.08,6.69-8.79,16.09-10.46,26.46-3.43,21.3,2.91,40.1,14.13,41.91,9.34,1.51,19.36-9.17,24.41-25.99l-13.87-10.35,16.78-5.59c1.29-18.59-5.08-33.75-14.89-35.33h0c-.58-.09-1.17-.14-1.76-.14Z"/><ellipse cx="324.85" cy="211.24" rx="9.25" ry="9.84" fill="#fd5877"/><path d="M324.85,221.57c-5.38,0-9.75-4.64-9.75-10.34s4.37-10.34,9.75-10.34,9.75,4.64,9.75,10.34-4.37,10.34-9.75,10.34ZM324.85,201.9c-4.82,0-8.75,4.19-8.75,9.34s3.92,9.34,8.75,9.34,8.75-4.19,8.75-9.34-3.92-9.34-8.75-9.34Z"/><path d="M318.53,239.81c-10.76-.26-17.98-6.19-27.87-6.56-5.55-.21-10.98.75-11.56,7.25-1.06,11.9,6.99,20.58,17.08,26.24,13.03,7.31,28.87,9.09,42.26,2.9,16.19-7.49,23.88-19.48,22.18-26.65-1.51-6.35-5.84-7.81-11.39-7.93-9.89-.21-20.85,4.99-30.7,4.75Z" fill="#fff"/><path d="M320.86,273.89c-8.35,0-16.98-2.26-24.92-6.72-8.56-4.8-18.52-13.34-17.33-26.72.65-7.29,7.21-7.89,12.08-7.7,4.86.19,9.17,1.72,13.33,3.2,4.45,1.59,9.06,3.23,14.53,3.36,4.86.12,10.13-1.14,15.23-2.36,5.15-1.23,10.47-2.49,15.47-2.39,4.92.1,10.17,1.17,11.87,8.32,1.77,7.45-6.15,19.67-22.46,27.21-5.5,2.54-11.56,3.8-17.79,3.8ZM289.43,233.72c-6.37,0-9.42,2.13-9.83,6.82-1.14,12.85,8.52,21.1,16.82,25.76,13.59,7.63,29.22,8.7,41.8,2.88,15.84-7.34,23.58-19.02,21.91-26.08-1.53-6.46-6.15-7.44-10.91-7.55-4.85-.12-10.13,1.15-15.21,2.37-5.16,1.23-10.49,2.5-15.48,2.39h0c-5.64-.14-10.32-1.8-14.84-3.42-4.28-1.53-8.33-2.97-13.04-3.15-.41-.02-.82-.02-1.21-.02Z"/><path d="M345.72,266.01l-.95-.31c3.71-11.46,1.7-22.93-.64-30.52l.96-.3c2.38,7.74,4.43,19.42.64,31.13Z"/><path d="M324.53,272.94l-.96-.28c1.64-5.61,2.52-11.44,2.6-17.32.08-5.2-.47-10.42-1.62-15.52l.97-.22c1.17,5.17,1.72,10.48,1.65,15.75-.09,5.97-.98,11.89-2.64,17.59Z"/><path d="M301.1,268.98l-.94-.33c1.04-2.97,2.86-8.96,3.4-15.65.46-5.61.14-11.28-.95-16.83l.98-.19c1.1,5.64,1.43,11.4.96,17.1-.55,6.8-2.4,12.88-3.46,15.9Z"/></g></svg>