<?xml version="1.0" encoding="UTF-8"?><svg id="Ebene_1" xmlns="http://www.w3.org/2000/svg" width="120" height="120" xmlns:xlink="http://www.w3.org/1999/xlink" viewBox="0 0 120 120"><defs><clipPath id="clippath"><path d="M60.58,66.14c-2.29.18-3.93-.89-6.03-.75-1.18.08-2.32.4-2.33,1.76,0,2.49,1.85,4.12,4.09,5.07,2.89,1.23,6.2,1.06,9.02-.32,2.38-1.16,4.84-3.1,4.24-6.01-.27-1.33-1.38-1.49-2.56-1.4-2.1.17-4.34,1.49-6.43,1.66h0Z" fill="none"/></clipPath></defs><polygon points="30.67 57.4 5.62 30.16 43.83 37.54 57.28 .5 71.37 35.88 111.85 23.8 89.23 54.2 120 73.74 84.84 80.79 95.4 115.07 64.22 89.04 33.18 118.73 40.1 80.6 0 79.59 30.67 57.4" fill="#fff"/><path d="M109.26,54.7c-2.33-4.24-7.62-7.06-14.21-5.53,4.24-6.72,1.56-14.05-1.59-17.07-6.11-5.86-14.17-3.32-20.73,1.79,0,0-2.01-11.64-13.27-11.38-12.08.29-14.01,12.75-14.01,12.75-6.99-4.42-14.46-6.81-20.65.7-3.25,3.94-4.01,12.94-.16,16.76-5.25-1.83-11.8,2.97-13.42,7.37-2.01,5.48-.55,11.72,3.68,15.58,1.21,1.11,2.59,2.01,4.07,2.69,3.62,1.67,10.28.33,10.28.33-1.14,2.81-.34,6.72,1.01,9.3,3.5,6.71,12.73,6.04,17.55,1.67,3.55,5.18,9.45,7.96,15.36,7.2,7.91-1.01,11.79-7.84,12.21-8.6.13-.15,2.08.72,2.29.79,1.2.42,2.4.85,3.64,1.11,2.79.58,5.76.38,8.19-1.28,2.14-1.47,3.53-3.87,3.91-6.5.33-2.31,0-4.73-.88-6.88,0,0,7.07.64,10.52-1.39,2.93-1.72,5.18-3.91,6.5-7.17,1.58-3.9,1.76-8.5-.29-12.25h0Z" fill="#ffcf06" stroke="#000" stroke-miterlimit="10" stroke-width=".79"/><path d="M63.17,96.87c7.91-1.01,11.79-7.84,12.21-8.6.13-.15,2.08.72,2.29.79,1.2.42,2.4.85,3.64,1.11,2.79.58,5.76.38,8.19-1.28,2.14-1.47,3.53-3.87,3.91-6.5.33-2.31,0-4.73-.88-6.88,0,0,7.07.64,10.52-1.39,2.93-1.72,5.18-3.91,6.5-7.17,1.58-3.9,1.76-8.5-.29-12.25-2.33-4.24-7.62-7.06-14.21-5.53,4.24-6.72,1.56-14.05-1.59-17.07-6.11-5.86-14.17-3.32-20.73,1.79,0,0-2.01-11.64-13.27-11.38" fill="#ff089b" stroke="#000" stroke-miterlimit="10" stroke-width=".79"/><path d="M65.54,45.39c-1.57.34-1.74.55-1.86,2.31-.33-1.73-.52-1.92-2.12-2.08,1.57-.34,1.74-.55,1.86-2.31.33,1.73.52,1.92,2.12,2.08Z" fill="#fff"/><path d="M85.91,61.12c-1.57.34-1.74.55-1.86,2.31-.33-1.73-.52-1.92-2.12-2.08,1.57-.34,1.74-.55,1.86-2.31.33,1.73.52,1.92,2.12,2.08Z" fill="#fff"/><path d="M104.87,52.55c-1.57.34-1.74.55-1.86,2.31-.33-1.73-.52-1.92-2.12-2.08,1.57-.34,1.74-.55,1.86-2.31.33,1.73.52,1.92,2.12,2.08Z" fill="#fff"/><path d="M100.21,71.68c-1.57.34-1.74.55-1.86,2.31-.33-1.73-.52-1.92-2.12-2.08,1.57-.34,1.74-.55,1.86-2.31.33,1.73.52,1.92,2.12,2.08Z" fill="#fff"/><path d="M67.41,77.34c-1.57.34-1.74.55-1.86,2.31-.33-1.73-.52-1.92-2.12-2.08,1.57-.34,1.74-.55,1.86-2.31.33,1.73.52,1.92,2.12,2.08Z" fill="#fff"/><path d="M107.24,58.81c-.77-1.15-1.98-1.81-3.33-1.74-1.33.07-2.58.7-3.62,1.52-.53.42-1.02.91-1.44,1.45-.35-1.15-1-2.2-1.97-3.01-.77-.64-1.69-1.05-2.64-1.27-.28-.06-.42.38-.14.44,1.54.36,2.92,1.24,3.76,2.65.78,1.32,1.03,2.92.84,4.45-.12.93-.4,1.84-.82,2.68-.13.26.24.52.37.25.87-1.74,1.16-3.82.73-5.69.04,0,.07-.04.1-.08.73-1,1.71-1.81,2.8-2.35,1.04-.52,2.27-.8,3.39-.38.69.26,1.22.77,1.64,1.39.16.24.49-.07.33-.31Z"/><path d="M67.51,30.53c-1.01-.94-2.34-1.32-3.64-.94-1.27.37-2.35,1.26-3.19,2.3-.43.53-.78,1.11-1.07,1.74-.61-1.04-1.47-1.92-2.61-2.48-.89-.45-1.88-.64-2.86-.64-.29,0-.32.46-.04.46,1.58,0,3.13.54,4.26,1.73,1.06,1.11,1.67,2.61,1.83,4.14.1.94.03,1.89-.19,2.79-.07.29.35.45.42.16.45-1.89.26-3.98-.58-5.71.03-.02.06-.05.08-.1.48-1.14,1.26-2.16,2.19-2.93.89-.74,2.03-1.29,3.21-1.14.73.1,1.37.47,1.91.98.22.2.46-.18.25-.38l.03.02Z"/><path d="M39.03,46.9c.23-1.38-.17-2.74-1.18-3.69-.99-.93-2.29-1.41-3.59-1.6-.66-.1-1.33-.11-2-.03.53-1.07.79-2.29.65-3.58-.11-1.02-.48-1.99-1.01-2.85-.15-.25-.55-.04-.4.21.84,1.38,1.22,3.03.86,4.65-.34,1.52-1.25,2.83-2.42,3.77-.72.57-1.54,1.01-2.4,1.29-.27.09-.18.54.09.45,1.8-.59,3.41-1.85,4.38-3.49.04.02.08.03.13.02,1.19-.17,2.44-.02,3.58.4,1.09.4,2.15,1.11,2.65,2.23.31.69.34,1.45.22,2.19-.05.29.4.31.45.02h-.01Z"/><path d="M62.01,80.52c-1.28.45-2.23,1.47-2.54,2.84-.31,1.35-.09,2.77.37,4.05.23.65.55,1.27.93,1.84-1.16.03-2.31.38-3.33,1.13-.8.59-1.44,1.39-1.92,2.28-.14.26.23.53.37.26.76-1.44,1.97-2.57,3.51-3.01,1.44-.41,2.98-.21,4.33.41.83.38,1.58.92,2.23,1.57.21.21.55-.09.34-.3-1.36-1.36-3.19-2.24-5.03-2.34,0-.04,0-.08-.04-.13-.71-1.01-1.19-2.23-1.38-3.46-.18-1.18-.09-2.5.61-3.49.43-.61,1.06-1.01,1.74-1.25.27-.1.07-.51-.19-.42v.02Z"/><path d="M83.23,45.81c-.8-1.13-1.01-2.53-.51-3.85.49-1.29,1.46-2.32,2.54-3.09.55-.39,1.15-.71,1.78-.95-.93-.72-1.68-1.69-2.1-2.91-.33-.96-.41-2-.31-3.02.03-.3.48-.29.45,0-.17,1.63.19,3.28,1.21,4.56.95,1.2,2.32,1.96,3.78,2.26.89.18,1.8.19,2.7.05.28-.05.39.4.11.45-1.86.3-3.84-.08-5.41-1.1-.03.03-.06.06-.1.08-1.14.4-2.2,1.11-3.04,2.01-.8.86-1.45,1.99-1.43,3.23.02.76.31,1.46.74,2.06.17.24-.22.46-.39.23h-.02Z"/><path d="M42.75,76.82c-.47,1.31-.32,2.73.51,3.85.81,1.1,2.01,1.82,3.25,2.26.63.22,1.29.36,1.96.41-.71.95-1.18,2.1-1.27,3.4-.07,1.02.12,2.04.49,2.99.11.28.54.15.43-.13-.59-1.52-.67-3.21-.02-4.73.6-1.42,1.73-2.54,3.05-3.24.8-.43,1.69-.7,2.58-.81.28-.04.27-.5,0-.46-1.87.24-3.68,1.16-4.92,2.59-.03-.02-.07-.04-.12-.05-1.2-.06-2.4-.45-3.44-1.07-1-.6-1.92-1.5-2.21-2.7-.18-.74-.08-1.49.17-2.19.1-.28-.33-.38-.43-.11h-.02Z"/><path d="M83.14,66.94c.1,1.31.77,2.44,1.9,3.05,1.1.59,2.39.71,3.61.56.62-.07,1.23-.23,1.81-.46-.24,1.1-.2,2.27.23,3.4.33.89.88,1.68,1.55,2.33.19.19.51-.1.31-.29-1.08-1.05-1.79-2.44-1.83-4-.03-1.46.49-2.86,1.34-4.01.52-.7,1.16-1.29,1.88-1.76.23-.15.04-.54-.19-.39-1.49.98-2.67,2.51-3.18,4.23-.04,0-.08,0-.12.01-1.04.45-2.21.62-3.33.52-1.07-.1-2.2-.48-2.9-1.37-.43-.55-.64-1.23-.69-1.93-.02-.28-.43-.19-.41.09l.02.02Z"/><path d="M78.82,76.38c-1.27-.46-2.62-.26-3.68.62-1.03.87-1.7,2.14-2.09,3.44-.2.66-.32,1.35-.35,2.05-.93-.72-2.04-1.18-3.29-1.24-.98-.05-1.96.18-2.86.58-.26.12-.13.56.13.44,1.45-.65,3.07-.78,4.54-.14,1.38.6,2.48,1.74,3.18,3.1.43.83.71,1.74.84,2.67.04.29.49.27.45-.02-.27-1.94-1.2-3.81-2.6-5.06.02-.03.04-.07.04-.13.03-1.25.37-2.52.95-3.62.55-1.05,1.4-2.03,2.54-2.37.7-.21,1.43-.12,2.11.13.27.1.36-.36.09-.45h0Z"/><path d="M86.14,59.44c1.34-.1,2.51-.84,3.14-2.09.62-1.22.75-2.66.61-4.02-.07-.69-.23-1.37-.46-2.03,1.13.27,2.32.23,3.49-.23.92-.36,1.73-.97,2.4-1.72.2-.22-.09-.57-.29-.35-1.08,1.19-2.52,1.98-4.12,2.01-1.49.03-2.94-.57-4.1-1.52-.71-.58-1.31-1.3-1.79-2.1-.15-.25-.55-.05-.4.21.99,1.67,2.55,2.99,4.32,3.57,0,.04,0,.08.01.13.45,1.16.62,2.46.51,3.71-.11,1.19-.51,2.44-1.43,3.23-.57.48-1.26.7-1.98.76-.29.02-.19.48.09.46v-.02Z"/><path d="M77.5,46.8c.5-1.3.38-2.72-.42-3.86-.78-1.12-1.96-1.87-3.19-2.34-.63-.24-1.28-.39-1.95-.46.73-.94,1.23-2.07,1.35-3.37.09-1.02-.07-2.05-.42-3-.1-.28-.39-.2-.33.1.31,1.67.49,3.25-.19,4.76-.64,1.41-1.79,2.49-3.12,3.16-.81.41-1.7.65-2.6.74-.28.03-.29.49,0,.46,1.87-.19,3.71-1.07,4.98-2.46.03.03.07.04.12.05,1.2.09,2.39.51,3.42,1.16.98.63,1.88,1.55,2.15,2.76.16.74.04,1.49-.23,2.19-.11.28.33.39.43.12h0Z"/><path d="M26.73,63.35c1.24-.24,2.25-1.06,2.71-2.29.45-1.2.43-2.56.16-3.8-.14-.64-.35-1.25-.63-1.83,1.08.13,2.18-.04,3.22-.59.82-.44,1.51-1.09,2.06-1.86.16-.22-.15-.52-.31-.29-.89,1.23-2.14,2.12-3.62,2.31-1.39.19-2.78-.21-3.96-.97-.72-.46-1.35-1.07-1.87-1.76-.16-.22-.52,0-.35.23,1.09,1.44,2.67,2.5,4.37,2.85,0,.04,0,.08.02.12.53,1.03.82,2.22.84,3.39.02,1.12-.23,2.33-1,3.15-.48.51-1.1.79-1.77.92-.26.05-.13.46.13.41h0Z"/><path d="M88.77,86.07c.55-1.18.53-2.51-.15-3.63-.66-1.1-1.71-1.88-2.83-2.4-.57-.27-1.17-.45-1.79-.57.74-.82,1.28-1.85,1.47-3.05.15-.94.06-1.91-.2-2.83-.08-.27-.49-.19-.41.08.42,1.47.35,3.05-.38,4.41-.68,1.27-1.82,2.21-3.11,2.74-.79.32-1.63.49-2.47.52-.27,0-.3.44-.03.43,1.76-.05,3.52-.74,4.8-1.96.03.03.06.05.11.05,1.11.17,2.2.64,3.12,1.32.88.65,1.66,1.58,1.83,2.72.11.7-.05,1.39-.35,2.03-.12.25.28.39.39.14Z"/><path d="M42.17,46.84c1.27.46,2.62.26,3.68-.62,1.03-.87,1.7-2.14,2.09-3.44.2-.66.32-1.35.35-2.05.93.72,2.04,1.18,3.29,1.24.98.05,1.96-.18,2.86-.58.26-.12.13-.56-.13-.44-1.45.65-3.07.78-4.54.14-1.38-.6-2.48-1.74-3.18-3.1-.43-.83-.71-1.74-.84-2.67-.04-.29-.49-.27-.45.02.27,1.94,1.2,3.81,2.6,5.06-.02.03-.04.07-.04.13-.03,1.25-.37,2.52-.95,3.62-.55,1.05-1.4,2.03-2.54,2.37-.7.21-1.43.12-2.11-.13-.27-.1-.36.36-.09.45Z"/><path d="M38.28,68.28c-1.34.13-2.49.89-3.11,2.15-.6,1.23-.7,2.68-.54,4.03.08.69.25,1.37.49,2.02-1.13-.25-2.33-.19-3.49.29-.91.38-1.71,1-2.37,1.76-.19.22.1.57.3.35,1.06-1.21,2.49-2.03,4.08-2.08,1.49-.05,2.94.52,4.12,1.45.72.57,1.33,1.28,1.82,2.07.15.25.55.04.4-.21-1.02-1.65-2.6-2.95-4.37-3.49,0-.04,0-.09,0-.13-.47-1.16-.66-2.45-.56-3.7.09-1.2.47-2.45,1.38-3.25.56-.49,1.25-.72,1.97-.79.28-.03.19-.48-.1-.45v-.02Z"/><path d="M18.13,61.4c-.67,1.11-.77,2.44-.21,3.63.55,1.16,1.52,2.05,2.58,2.69.54.33,1.12.58,1.72.76-.82.74-1.45,1.7-1.76,2.87-.24.92-.25,1.9-.08,2.84.05.27.46.24.42-.04-.27-1.51-.05-3.08.81-4.35.81-1.19,2.03-2,3.37-2.39.81-.24,1.67-.32,2.51-.25.27.02.34-.41.07-.43-1.76-.14-3.58.36-4.97,1.43-.03-.03-.06-.05-.1-.06-1.09-.29-2.13-.87-2.97-1.65-.81-.74-1.49-1.75-1.55-2.9-.04-.71.19-1.38.55-1.98.14-.24-.24-.42-.38-.18h-.01Z"/><path d="M57.34,69.92c.19,3.61-3.08,6.73-7.3,6.95-4.22.22-7.8-2.53-7.99-6.14s3.08-6.73,7.3-6.95c4.22-.22,7.8,2.53,7.99,6.14Z" fill="#ed557a"/><ellipse cx="72.07" cy="69.13" rx="7.25" ry="6.55" transform="translate(-3.55 3.91) rotate(-3.03)" fill="#ed557a"/><path d="M54.39,57.66c0,.36.02.7,0,1.05,0,2.15-.21,4.16-.58,5.88-.42-.22-.85-.4-1.32-.54-.92-.3-1.83-.31-2.88-.28-.37,0-.84.03-1.19.08-1.11.16-2.12.53-3,1.04-.61-1.85-1.03-4.21-1.1-6.63-.2-6.95,2.48-12.98,5.05-13.05.13,0,.25,0,.37.03,2.41.44,4.45,5.81,4.64,12.43h0Z" fill="#fff" stroke="#000" stroke-miterlimit="10" stroke-width=".7"/><path d="M49.73,45.59c-.11,0-.22.02-.33.06-1.81.51-2.79,4.5-2.76,9.9l5.33.91-5.26,1.21c.15,2.2.56,4.51,1.32,6.15.48-.11.97-.17,1.48-.19,1.59-.04,3.12.17,4.3.96.02-.07.34-2.04.46-3.12.14-1.28.11-3.23.07-4.7-.18-6.24-2.53-11.24-4.62-11.18h.01Z"/><path d="M43.16,47.06s.17,2.14,2.58,2.28" fill="none" stroke="#000" stroke-miterlimit="10" stroke-width=".7"/><path d="M42.53,49.17s.17,2.14,2.58,2.28" fill="none" stroke="#000" stroke-miterlimit="10" stroke-width=".7"/><path d="M41.85,51.91s.17,2.14,2.58,2.28" fill="none" stroke="#000" stroke-miterlimit="10" stroke-width=".7"/><path d="M43.99,65.83c2.6-2.99,7.78-3.51,10.62-.58l-.04.06c-3.29-2.17-7.51-1.4-10.58.52h0Z"/><path d="M76.25,56.57c.02.36.04.7.05,1.05.07,2.15-.08,4.16-.39,5.89-.42-.2-.87-.37-1.33-.5-.93-.27-1.94-.39-3-.32-.37.02-.73.06-1.08.13-1.11.19-2.12.59-2.99,1.12-.67-1.83-1.15-4.03-1.3-6.45-.42-6.94,2.05-13.06,4.62-13.21.13,0,.25,0,.37.02,2.43.36,4.64,5.66,5.04,12.27h0Z" fill="#fff" stroke="#000" stroke-miterlimit="10" stroke-width=".7"/><path d="M71.2,44.66c-.11,0-.22.03-.32.07-1.79.57-2.64,4.59-2.43,9.99l5.36.74-5.22,1.38c.22,2.19.71,4.48,1.52,6.11.47-.13.96-.21,1.47-.24,1.59-.1,3.12.07,4.33.82.02-.07.28-2.05.36-3.13.09-1.29,0-3.23-.08-4.7-.38-6.23-2.89-11.15-4.98-11.02v-.02Z"/><path d="M76.05,44.42s.02,2.15-2.37,2.5" fill="none" stroke="#000" stroke-miterlimit="10" stroke-width=".7"/><path d="M76.86,46.47s.02,2.15-2.37,2.5" fill="none" stroke="#000" stroke-miterlimit="10" stroke-width=".7"/><path d="M77.78,49.13s.02,2.15-2.37,2.5" fill="none" stroke="#000" stroke-miterlimit="10" stroke-width=".7"/><path d="M77.24,64.36c-3.53-1.25-7.25-1.07-10.74.27,2.79-2.26,7.86-2.48,10.74-.27h0Z"/><path d="M60.58,66.14c-2.29.18-3.93-.89-6.03-.75-1.18.08-2.32.4-2.33,1.76,0,2.49,1.85,4.12,4.09,5.07,2.89,1.23,6.2,1.06,9.02-.32,2.38-1.16,4.84-3.1,4.24-6.01-.27-1.33-1.38-1.49-2.56-1.4-2.1.17-4.34,1.49-6.43,1.66h0Z" fill="#fff"/><g clip-path="url(#clippath)"><path d="M64.55,65.06c.32.78.67,1.85.84,3.16.2,1.5.08,2.78-.07,3.68" fill="none" stroke="#000" stroke-miterlimit="10" stroke-width=".7"/><path d="M60.58,66.14c.27.82.53,1.91.62,3.21.11,1.5-.06,2.76-.25,3.68" fill="none" stroke="#000" stroke-miterlimit="10" stroke-width=".7"/><path d="M56.22,65.5c.25.85.5,2.05.5,3.5,0,1.31-.2,2.4-.41,3.21" fill="none" stroke="#000" stroke-miterlimit="10" stroke-width=".7"/></g><path d="M60.58,66.14c-2.29.18-3.93-.89-6.03-.75-1.18.08-2.32.4-2.33,1.76,0,2.49,1.85,4.12,4.09,5.07,2.89,1.23,6.2,1.06,9.02-.32,2.38-1.16,4.84-3.1,4.24-6.01-.27-1.33-1.38-1.49-2.56-1.4-2.1.17-4.34,1.49-6.43,1.66h0Z" fill="none" stroke="#000" stroke-miterlimit="10" stroke-width=".7"/><path d="M61.07,58.54v1.94s3.13-1.14,3.09.36c-.05,1.5-3.02,1.85-3.02,1.85" fill="#f5c50f" stroke="#000" stroke-miterlimit="10" stroke-width=".75"/><path d="M46.5,67.74c-.7-.05-.77,1.04-.07,1.09.7.05.77-1.04.07-1.09Z"/><path d="M50.75,67.69c-.7-.05-.77,1.04-.07,1.09.7.05.77-1.04.07-1.09Z"/><path d="M49.09,70.25c-.7-.05-.77,1.04-.07,1.09.7.05.77-1.04.07-1.09Z"/><path d="M71.57,66.13c-.7-.05-.77,1.04-.07,1.09.7.05.77-1.04.07-1.09Z"/><path d="M75.82,66.03c-.7-.05-.77,1.04-.07,1.09.7.05.77-1.04.07-1.09Z"/><path d="M73.82,68.94c-.7-.05-.77,1.04-.07,1.09.7.05.77-1.04.07-1.09Z"/><path d="M10.34,64.66c-2.03,1.95-3.81,4.15-4.88,6.78-1.29,3.2-1.36,7.53,1.11,10.2,3,3.24,7.87,3.16,12.32,2.42.91-.15,1.8-.33,2.65-.51.89-.19,1.74-.39,2.54-.57.58-.13.97-.45,1.19-.85.66-1.22-.21-3.17-1.96-2.77-.29.06-.61.14-.92.21-.25.06-.51.12-.78.19-.84.2-1.74.41-2.68.6-3.21.64-6.75.94-9.07-.75-2.23-1.62-1.73-5.12-.75-7.29.48-1.06,1.12-2.04,1.86-2.94,0,0-.63-4.72-.63-4.72Z"/><path d="M21.66,78.46s-1.94-1.64-2.45,0c-.39,1.25-.38,4.06-.35,5.33.01.58.33,1.14.86,1.38.34.16,1.28.01,1.75-.29.84.69,1.93,1.99,4.17,2.35,1.68.27,3.5.17,5.12-.38.83-.28,1.59-.71,2.1-1.44.28-.41.5-.89.52-1.39,0-.25-.04-.5-.15-.72-.03-.07-.27-.52-.27-.52,0,0,1.61-2.06-.73-3.22,0,0,2.27-3.41-3.11-2.9-.33.03-.55-1.42-1.75-2.12-.18-.1-1.43-.81-2.81-.46-1.63.42-2.88,2.2-2.9,4.38Z" fill="#fff" stroke="#000" stroke-miterlimit="10" stroke-width=".75"/><line x1="32.18" y1="79.59" x2="30.14" y2="79.97" fill="none" stroke="#000" stroke-miterlimit="10" stroke-width=".75"/><line x1="32.96" y1="82.79" x2="30.81" y2="83" fill="none" stroke="#000" stroke-miterlimit="10" stroke-width=".75"/><line x1="29.12" y1="76.67" x2="26.15" y2="77.06" fill="none" stroke="#000" stroke-miterlimit="10" stroke-width=".75"/><line x1="21.66" y1="78.46" x2="21.57" y2="80.57" fill="none" stroke="#000" stroke-miterlimit="10" stroke-width=".75"/><line x1="21.57" y1="83.35" x2="21.47" y2="84.88" fill="none" stroke="#000" stroke-miterlimit="10" stroke-width=".75"/><path d="M29.56,78.46c.06.55-.78.65-.85.1-.06-.55.78-.65.85-.1h0Z"/><path d="M29.86,81.87c.06.55-.78.65-.85.1-.06-.55.78-.65.85-.1h0Z"/><path d="M30.11,85.29c.06.55-.78.65-.85.1-.06-.55.78-.65.85-.1h0Z"/><path d="M110.69,60.51c.07.06.14.12.21.18,2.87,2.44,5.58,5.16,7.01,8.7,1.28,3.2,1.36,7.53-1.12,10.2-3,3.23-7.87,3.16-12.32,2.42-.91-.15-1.8-.33-2.66-.52-.89-.19-1.75-.39-2.53-.56-1.29-.29-1.63-1.53-1.28-2.5.2-.54.63-1.01,1.23-1.14.25-.06.52-.06.83,0,.53.11,1.1.26,1.71.41.84.2,1.75.41,2.68.6h0c3.21.64,6.74.94,9.06-.75,2.23-1.62,1.73-5.12.75-7.29-.9-2-2.36-3.68-3.97-5.19-.06-.05-.12-.11-.18-.16l.57-4.41h.01Z"/><path d="M101.71,76.41s1.94-1.64,2.45,0c.39,1.25.38,4.06.35,5.33-.01.58-.33,1.14-.86,1.38-.34.16-1.28.01-1.75-.29-.84.69-1.93,1.99-4.17,2.35-1.68.27-3.5.17-5.12-.38-.83-.28-1.59-.71-2.1-1.44-.28-.41-.5-.89-.52-1.39,0-.25.04-.5.15-.72.03-.07.27-.52.27-.52,0,0-1.61-2.06.73-3.22,0,0-2.27-3.41,3.11-2.9.33.03.55-1.42,1.75-2.12.18-.1,1.43-.81,2.81-.46,1.63.42,2.88,2.2,2.9,4.38Z" fill="#fff" stroke="#000" stroke-miterlimit="10" stroke-width=".75"/><line x1="91.19" y1="77.53" x2="93.23" y2="77.91" fill="none" stroke="#000" stroke-miterlimit="10" stroke-width=".75"/><line x1="90.41" y1="80.73" x2="92.56" y2="80.94" fill="none" stroke="#000" stroke-miterlimit="10" stroke-width=".75"/><line x1="94.25" y1="74.61" x2="97.23" y2="75" fill="none" stroke="#000" stroke-miterlimit="10" stroke-width=".75"/><line x1="101.71" y1="76.41" x2="101.8" y2="78.52" fill="none" stroke="#000" stroke-miterlimit="10" stroke-width=".75"/><line x1="101.8" y1="81.29" x2="101.9" y2="82.83" fill="none" stroke="#000" stroke-miterlimit="10" stroke-width=".75"/><path d="M93.81,76.4c-.06.55.78.65.85.1.06-.55-.78-.65-.85-.1h0Z"/><path d="M93.51,79.81c-.06.55.78.65.85.1.06-.55-.78-.65-.85-.1h0Z"/><path d="M93.26,83.23c-.06.55.78.65.85.1.06-.55-.78-.65-.85-.1h0Z"/></svg>