<?xml version="1.0" encoding="UTF-8"?><svg id="Ebene_1" xmlns="http://www.w3.org/2000/svg" width="120" height="120" viewBox="0 0 120 120"><polygon points="20.33 3.2 18.95 5.23 29.33 12.35 30.71 10.32 20.33 3.2" fill="#fff"/><rect x="9.86" y="35.21" width="11.58" height="2.46" transform="translate(-2.65 1.26) rotate(-4.24)" fill="#fff"/><polygon points="24.73 22.49 12.05 17.82 11.2 20.12 23.88 24.79 24.73 22.49" fill="#fff"/><polygon points="99.56 3.2 100.95 5.23 90.56 12.35 89.18 10.32 99.56 3.2" fill="#fff"/><rect x="103.01" y="30.65" width="2.46" height="11.58" transform="translate(60.19 137.7) rotate(-85.76)" fill="#fff"/><polygon points="95.16 22.49 107.85 17.82 108.69 20.12 96.01 24.79 95.16 22.49" fill="#fff"/><path d="M49.6,101.85c-3.29.35-6.58.69-9.89.89-5.09.3-10.24.28-15.33-.14-1.73-.14-6.32.03-6.78-2.31-.62-3.13,6.75-7.43,8.77-8.79,4.53-3.04,9.46-5.39,14.67-6.97,2.73-.83,1.57-5.13-1.18-4.3-5.23,1.58-10.3,3.87-14.89,6.86-2.29,1.49-4.54,3.09-6.64,4.85-1.83,1.53-3.88,3.39-4.97,5.56-1.14,2.29-.67,4.9,1.25,6.59,1.51,1.34,3.51,2,5.45,2.39,5.14,1.03,10.6.98,15.82.87,5.12-.12,10.2-.68,15.28-1.21-.51-1.43-1.03-2.86-1.56-4.29Z"/><path d="M49.24,107.03l-1.78-5.79,9.17-2.85,5.3,15.92-2.13.78s-4.47.19-6.39-9.52c0,0-4.17,1.46-4.17,1.46Z" fill="#ffcf06"/><path d="M59.77,115.2c-.46,0-4.58-.26-6.44-9.49l-4.16,1.45-1.85-6.01,9.38-2.92,5.36,16.13-2.26.83h-.04,0ZM53.49,105.42l.02.13c1.82,9.22,5.97,9.43,6.26,9.43l2.01-.74-5.23-15.72-8.96,2.79,1.72,5.58,4.18-1.46h0Z"/><path d="M55.1,110.91c2.09,4.29,4.7,4.19,4.7,4.19l2.13-.78-2.13-6.41c-1.71.76-3.29,1.72-4.7,3.01h0Z" fill="#fff"/><path d="M59.77,115.2c-.31,0-2.77-.14-4.78-4.25l-.04-.07.06-.06c1.31-1.21,2.86-2.2,4.73-3.03l.11-.05,2.21,6.63-2.26.83h-.03ZM55.23,110.93c1.94,3.93,4.33,4.05,4.55,4.05l2.01-.74-2.06-6.19c-1.77.8-3.24,1.74-4.49,2.88h0Z"/><polygon points="54.33 99.1 59.8 115.09 61.93 114.31 56.63 98.39 54.33 99.1" fill="#fff"/><path d="M59.73,115.24l-5.54-16.21,2.51-.78.03.1,5.33,16.03s-2.33.86-2.33.86ZM54.48,99.17l5.39,15.78,1.92-.71-5.23-15.72s-2.08.65-2.08.65Z"/><rect x="50.1" y="103.13" width=".22" height="3.44" transform="translate(-31.82 22.47) rotate(-19.29)"/><rect x="51.76" y="102.66" width=".22" height="3.44" transform="translate(-31.57 23) rotate(-19.29)"/><path d="M110.76,98.84c-1.08-2.17-3.14-4.03-4.97-5.56-2.1-1.76-4.34-3.36-6.63-4.85-4.59-2.99-9.66-5.28-14.88-6.87-2.75-.83-3.91,3.47-1.18,4.3,5.21,1.58,10.14,3.93,14.66,6.98,2.02,1.36,9.39,5.66,8.77,8.79-.46,2.33-5.05,2.16-6.78,2.3-5.08.42-10.24.43-15.33.13-2.96-.17-5.91-.47-8.86-.78-.45,1.44-.92,2.87-1.4,4.31,4.68.49,9.36.98,14.08,1.09,5.22.12,10.68.17,15.82-.86,1.95-.39,3.94-1.05,5.45-2.38,1.92-1.7,2.39-4.3,1.25-6.59h0Z"/><path d="M75.9,108.52l1.74-5.8-9.19-2.78-5.18,15.96,2.13.77s4.47.16,6.32-9.57l4.18,1.43h0Z" fill="#ffcf06"/><path d="M65.43,116.78h-.06l-2.23-.81,5.24-16.17,9.4,2.85-1.8,6.02-4.17-1.42c-1.8,9.3-5.96,9.54-6.38,9.54h0ZM63.41,115.83l2.01.72c.29,0,4.44-.27,6.19-9.48l.02-.13,4.19,1.43,1.67-5.59-8.98-2.72-5.11,15.76h.01Z"/><path d="M70.07,112.45c-2.06,4.31-4.67,4.22-4.67,4.22l-2.13-.77,2.08-6.43c1.71.75,3.31,1.7,4.72,2.97h0Z" fill="#fff"/><path d="M65.42,116.78h-.05l-2.23-.81,2.16-6.65.11.05c1.87.82,3.43,1.8,4.75,2.99l.06.06-.04.07c-1.99,4.16-4.47,4.28-4.75,4.28h-.01ZM63.41,115.83l2.01.72c.22,0,2.61-.15,4.51-4.08-1.26-1.13-2.74-2.06-4.51-2.85l-2.01,6.21Z"/><polygon points="70.75 100.64 65.4 116.67 63.27 115.9 68.45 99.94 70.75 100.64" fill="#fff"/><path d="M65.47,116.81l-2.34-.84,5.24-16.17,2.51.76-5.42,16.25h0ZM63.41,115.83l1.92.69,5.27-15.82-2.09-.63-5.11,15.76h0Z"/><rect x="73.19" y="106.23" width="3.44" height=".22" transform="translate(-49.92 142.9) rotate(-71.16)"/><rect x="71.52" y="105.78" width="3.44" height=".22" transform="translate(-50.63 141.01) rotate(-71.16)"/><rect x="36.23" y="23.38" width="50.2" height="75.01" fill="#ffde00"/><path d="M86.55,98.51h-50.42V23.27h50.42v75.24ZM36.35,98.28h49.98V23.49h-49.98s0,74.79,0,74.79Z"/><path d="M86.43,66.05v32.36h-50.2v-30.36c.97-.57,1.91-1.02,2.77-1.29,6.55-2.03,13.57.07,19.25,2.93,3.61,1.82,7.33,3.16,11.62,2.9,5.02-.31,9.86-2.46,13.92-4.84.91-.54,1.79-1.11,2.64-1.71h0Z" fill="#2563ff"/><path d="M86.55,98.52h-50.42v-30.53l.05-.03c1.02-.6,1.96-1.04,2.79-1.3,5.55-1.72,12.06-.73,19.34,2.94,3.15,1.59,6.98,3.17,11.57,2.89,4.24-.26,8.78-1.84,13.87-4.83.89-.52,1.77-1.09,2.63-1.7l.18-.12v32.69h-.01ZM36.35,98.3h49.98v-32.04c-.81.57-1.64,1.1-2.47,1.59-5.12,3.01-9.69,4.59-13.97,4.86-4.63.28-8.5-1.31-11.68-2.91-7.23-3.64-13.68-4.62-19.17-2.92-.8.25-1.7.67-2.69,1.25v30.18h0Z"/><ellipse cx="75.31" cy="62.76" rx="3.75" ry="3.76" fill="#2563ff"/><path d="M75.31,66.63c-2.13,0-3.86-1.74-3.86-3.87s1.73-3.87,3.86-3.87,3.86,1.74,3.86,3.87-1.73,3.87-3.86,3.87ZM75.31,59.11c-2,0-3.63,1.64-3.63,3.65s1.63,3.65,3.63,3.65,3.63-1.64,3.63-3.65-1.63-3.65-3.63-3.65Z"/><ellipse cx="49.24" cy="58.44" rx="3.75" ry="3.76" fill="#2563ff"/><path d="M49.24,62.31c-2.13,0-3.86-1.74-3.86-3.87s1.73-3.87,3.86-3.87,3.86,1.74,3.86,3.87-1.73,3.87-3.86,3.87ZM49.24,54.79c-2,0-3.63,1.64-3.63,3.65s1.63,3.65,3.63,3.65,3.63-1.64,3.63-3.65-1.63-3.65-3.63-3.65Z"/><ellipse cx="62.23" cy="65.06" rx="1.98" ry="1.99" fill="#2563ff"/><path d="M62.23,67.16c-1.15,0-2.09-.94-2.09-2.1s.94-2.1,2.09-2.1,2.09.94,2.09,2.1-.94,2.1-2.09,2.1ZM62.23,63.18c-1.03,0-1.87.84-1.87,1.88s.84,1.88,1.87,1.88,1.87-.84,1.87-1.88-.84-1.88-1.87-1.88Z"/><polygon points="36.23 23.38 36.23 23.32 46 17.95 76.56 17.95 86.45 23.17 86.45 23.34 36.23 23.38" fill="#ffde00"/><path d="M36.14,23.49l-.03-.24,9.86-5.42h30.61l9.97,5.27v.35l-50.42.04h0ZM46.03,18.06l-9.49,5.21,49.77-.04-9.79-5.16h-30.5.01Z"/><path d="M60.18,20.57v-12.38c0-.75.53-1.4,1.26-1.55l16.19-3.33.53,2.42-15.09,2.8.11,11.94-3,.09h0Z"/><path d="M60.07,20.68v-12.49c0-.8.57-1.49,1.35-1.65l16.3-3.35.58,2.64-15.11,2.8.11,11.96-3.23.1h0ZM77.55,3.45l-16.08,3.3c-.68.14-1.17.74-1.17,1.44v12.26l2.78-.08-.11-11.93,15.06-2.79s-.48-2.2-.48-2.2Z"/><path d="M63.09,9.81v-1.27h.06c-.22-.71-.45-1.4-.67-2.1l-1.04.21c-.73.15-1.26.8-1.26,1.55v1.01c.97.2,1.94.4,2.91.6Z" fill="#fff"/><path d="M63.2,9.94l-.14-.03c-.97-.2-1.94-.4-2.91-.6l-.09-.02v-1.1c0-.8.57-1.49,1.35-1.65l1.13-.23.03.1c.22.7.45,1.39.67,2.09l.04.12-.1.02v1.32l.02-.02ZM60.29,9.12c.89.18,1.79.37,2.68.56v-1.23h.03c-.2-.63-.4-1.25-.6-1.88l-.94.19c-.68.14-1.17.74-1.17,1.44,0,0,0,.92,0,.92Z"/><path d="M63.14,15.68l-.03-3.14c-.98-.2-1.95-.41-2.93-.61v3.31c.99.14,1.97.28,2.96.44Z" fill="#fff"/><path d="M63.25,15.81l-.13-.02c-1.03-.16-2.06-.31-2.96-.44h-.1v-3.56l.13.03,2.31.48.71.15.03,3.36h0ZM60.29,15.15c.83.12,1.79.25,2.74.4l-.03-2.92-.54-.11c-.72-.15-1.45-.3-2.17-.45v3.08Z"/><path d="M60.18,17.93v2.64h2.99v-2.19c-1-.16-1.99-.31-2.99-.45Z" fill="#fff"/><path d="M63.28,20.68h-3.21v-2.89l.13.02c.81.12,1.89.27,2.99.45l.09.02s0,2.4,0,2.4ZM60.29,20.46h2.77v-1.99c-1.01-.16-1.99-.31-2.76-.42v2.41h-.01Z"/><path d="M76.41,6.07l1.75-.33-.53-2.42-1.81.37c.17.8.37,1.59.59,2.37h0Z" fill="#fff"/><path d="M76.33,6.19l-.03-.1c-.23-.84-.42-1.62-.59-2.38l-.02-.11,2.03-.42.58,2.64-1.97.36h0ZM75.96,3.78c.15.69.33,1.4.53,2.16l1.54-.29-.48-2.2-1.59.33Z"/><path d="M73.21,4.23l-2.46.5c.22.75.44,1.51.67,2.26l2.35-.44c-.21-.77-.4-1.55-.56-2.33h0Z" fill="#fff"/><path d="M71.35,7.12l-.03-.1c-.22-.75-.45-1.5-.67-2.26l-.03-.12,2.68-.55.02.11c.16.75.34,1.5.56,2.32l.03.12-2.57.48h.01ZM70.9,4.82c.2.68.4,1.36.61,2.05l2.14-.4c-.2-.74-.36-1.43-.51-2.11l-2.23.46h0Z"/><path d="M68.14,5.27l-3.03.62c.23.71.46,1.43.69,2.14l3-.56c-.22-.74-.44-1.47-.65-2.21h-.01Z" fill="#fff"/><path d="M65.71,8.16l-.03-.09c-.23-.71-.46-1.43-.69-2.14l-.04-.12,3.26-.67.03.1c.22.74.43,1.47.65,2.21l.04.12-3.22.6h0ZM65.25,5.98c.21.64.41,1.29.62,1.93l2.78-.52c-.2-.66-.39-1.33-.59-1.99,0,0-2.81.58-2.81.58Z"/><rect x="59.53" y="20.48" width="4.06" height=".22" transform="translate(-.2 .6) rotate(-.56)"/><rect x="36.22" y="92.74" width="50.25" height=".22"/><path d="M65.86,38.69c-.71,5.56,2.67,10.72,7.56,11.54,4.89.81,9.43-3.04,10.15-8.59.71-5.56-2.67-10.72-7.56-11.54-4.89-.81-9.43,3.04-10.15,8.59Z" fill="#fff"/><path d="M74.71,50.44c-.44,0-.88-.04-1.32-.11-4.94-.82-8.37-6.05-7.65-11.66h0c.37-2.91,1.83-5.51,4-7.12,1.85-1.38,4.08-1.93,6.27-1.57,4.94.82,8.37,6.05,7.65,11.66-.37,2.91-1.83,5.51-4,7.12-1.48,1.1-3.2,1.68-4.96,1.68h.01ZM65.97,38.7c-.71,5.49,2.64,10.61,7.47,11.41,2.13.35,4.3-.19,6.1-1.53,2.12-1.58,3.55-4.12,3.92-6.97.71-5.49-2.64-10.61-7.47-11.41-2.13-.35-4.3.19-6.1,1.53-2.12,1.58-3.55,4.12-3.92,6.97h0Z"/><path d="M71.68,49.71c-.49-.95.35-2.04.05-3.06-.24-.84-.77-1.18-.66-2.22.09-.84.64-1.46.96-2.19.63-1.44-.04-1.75-.37-3.19-.21-.92-.04-1.5.4-2.32.5-.96.65-.91.3-1.92-.21-.6-.66-1.17-.7-1.86-.06-.99.44-1.99,1.2-2.34,1.25-.58,2.52-.53,4-.07,1.42.44,1.19,1.88,1.14,2.38-.06.69-.53,1.24-.75,1.83-.37.99-.22.95.25,1.93.41.84.57,1.43.34,2.34-.37,1.42-1.04,1.71-.45,3.17.3.74.84,1.38.91,2.22.08,1.04-.45,1.37-.71,2.2-.32,1.01.49,2.13-.02,3.06-.69.23-1.61.45-2.7.48-1.33.04-2.43-.2-3.2-.44h0Z"/><path d="M74.57,50.27c-.98,0-1.97-.15-2.92-.45h-.04l-.02-.06c-.28-.54-.15-1.12-.03-1.69.1-.47.21-.95.07-1.4-.08-.28-.2-.51-.31-.73-.22-.42-.42-.82-.35-1.53.06-.58.34-1.06.6-1.52.13-.23.26-.46.37-.7.42-.95.24-1.38-.01-2.02-.12-.3-.26-.64-.36-1.09-.22-.95-.04-1.55.41-2.4.08-.16.15-.29.22-.4.31-.56.35-.63.08-1.43-.07-.21-.17-.41-.28-.62-.2-.39-.4-.8-.43-1.27-.06-1.05.47-2.08,1.26-2.45,1.2-.56,2.46-.58,4.08-.08,1.42.44,1.29,1.81,1.23,2.39v.1c-.05.47-.26.87-.47,1.25-.11.21-.22.41-.29.61-.3.79-.26.86.04,1.43.06.11.13.25.21.41.42.86.59,1.47.35,2.41-.12.45-.26.79-.39,1.08-.27.64-.46,1.06-.06,2.02.1.24.23.48.35.71.26.47.52.96.57,1.54.06.71-.16,1.1-.39,1.52-.12.22-.24.44-.33.72-.14.44-.05.93.04,1.4.11.57.22,1.15-.07,1.69l-.02.04h-.04c-.89.31-1.81.47-2.73.5h-.32l-.02.02ZM71.76,49.62c1.02.31,2.07.46,3.12.42.89-.03,1.77-.19,2.63-.46.23-.45.13-.96.03-1.5-.09-.5-.19-1.01-.03-1.51.1-.3.22-.53.35-.76.22-.4.41-.75.36-1.4-.04-.53-.28-.98-.54-1.45-.13-.24-.26-.48-.36-.73-.43-1.05-.22-1.53.06-2.19.12-.29.27-.62.38-1.05.23-.88.07-1.43-.33-2.26-.08-.16-.15-.29-.2-.4-.32-.62-.37-.76-.05-1.61.08-.22.2-.43.31-.64.2-.37.4-.75.44-1.17v-.1c.07-.58.18-1.77-1.07-2.16-1.56-.49-2.78-.47-3.92.07-.71.33-1.19,1.29-1.14,2.24.03.42.22.81.41,1.18.11.21.22.43.29.65.3.86.25,1-.09,1.61-.06.11-.13.24-.21.4-.42.82-.59,1.36-.39,2.25.1.44.23.77.35,1.06.27.67.47,1.16.01,2.19-.11.25-.25.49-.38.72-.27.47-.52.91-.57,1.44-.07.64.11,1,.33,1.41.12.23.24.47.33.77.15.5.04,1.01-.07,1.5-.12.53-.22,1.04,0,1.5l-.05-.02Z"/><rect x="79.36" y="30.56" width="4.1" height=".22" transform="translate(8.1 77.52) rotate(-53.22)"/><rect x="73.2" y="28.41" width="3.97" height=".22" transform="translate(45.71 103.34) rotate(-89.27)"/><rect x="68.66" y="27.94" width=".22" height="4.12" transform="translate(-6.08 35.2) rotate(-27.54)"/><ellipse cx="48.08" cy="39.62" rx="10.17" ry="8.95" transform="translate(6.99 86.45) rotate(-88.22)" fill="#fff"/><path d="M48.01,49.91h-.37c-4.99-.23-8.85-5.03-8.61-10.69h0c.13-2.95,1.37-5.71,3.4-7.57,1.72-1.57,3.89-2.38,6.09-2.28,4.99.23,8.85,5.03,8.61,10.69-.13,2.95-1.37,5.71-3.4,7.57-1.63,1.49-3.64,2.29-5.72,2.29h0ZM39.14,39.21h.11c-.24,5.55,3.53,10.24,8.39,10.47,2.14.1,4.25-.69,5.93-2.23,1.99-1.82,3.21-4.52,3.33-7.41.24-5.54-3.53-10.24-8.39-10.46-2.14-.1-4.25.69-5.93,2.23-1.99,1.82-3.21,4.52-3.33,7.41h-.11Z"/><path d="M45.87,49.49c-.56-.88.18-2.07-.21-3.05-.31-.81-.86-1.09-.84-2.13.02-.84.52-1.53.77-2.29.51-1.51-.19-1.74-.64-3.13-.29-.89-.16-1.48.2-2.36.42-1.01.57-.98.14-1.94-.26-.57-.76-1.08-.86-1.76-.14-.98.27-2.03,1-2.47,1.2-.72,2.47-.83,3.98-.54,1.45.27,1.34,1.73,1.34,2.23,0,.69-.42,1.3-.59,1.91-.29,1.03-.14.97.41,1.89.48.79.69,1.35.54,2.28-.24,1.46-.89,1.83-.18,3.21.36.7.95,1.28,1.09,2.1.17,1.02-.33,1.41-.52,2.27-.23,1.05.67,2.06.24,3.05-.66.31-1.56.63-2.65.8-1.32.2-2.44.09-3.22-.06h0Z"/><path d="M47.66,49.77c-.6,0-1.21-.06-1.81-.17h-.05l-.03-.05c-.32-.51-.25-1.1-.17-1.68.06-.47.12-.97-.04-1.4-.11-.27-.24-.48-.37-.69-.25-.4-.49-.77-.48-1.48,0-.58.25-1.09.47-1.59.11-.24.22-.49.31-.74.33-1,.13-1.4-.18-2.01-.15-.28-.31-.61-.45-1.05-.3-.92-.17-1.54.2-2.43.07-.17.13-.31.18-.42.26-.6.3-.67-.05-1.43-.09-.2-.21-.38-.33-.58-.23-.37-.47-.75-.54-1.21-.15-1.04.29-2.12,1.05-2.58,1.15-.7,2.4-.87,4.06-.56,1.46.27,1.44,1.65,1.43,2.24v.1c0,.47-.18.89-.35,1.3-.09.22-.18.43-.24.64-.23.82-.18.88.16,1.42.07.11.15.23.24.38.49.81.71,1.39.55,2.36-.08.46-.19.81-.3,1.12-.22.67-.36,1.11.11,2.02.12.23.27.45.41.67.29.44.6.9.69,1.47.12.7-.06,1.11-.25,1.56-.1.23-.2.47-.27.76-.1.46.03.93.16,1.38.16.55.32,1.12.07,1.68l-.02.04-.04.02c-.86.4-1.76.67-2.68.81-.48.07-.97.11-1.45.11h0ZM45.94,49.39c1.04.19,2.09.21,3.14.05.88-.13,1.75-.39,2.58-.77.19-.48.05-.97-.1-1.5-.14-.48-.28-.98-.16-1.49.07-.31.18-.56.28-.8.19-.43.35-.8.24-1.43-.09-.53-.37-.94-.66-1.38-.15-.22-.3-.45-.42-.69-.52-1-.35-1.5-.12-2.19.1-.3.21-.64.29-1.09.15-.9-.05-1.43-.52-2.21-.09-.15-.17-.27-.24-.38-.37-.58-.44-.71-.19-1.6.06-.23.16-.45.25-.67.16-.39.33-.79.33-1.21v-.1c0-.58.02-1.78-1.25-2.02-1.6-.3-2.8-.14-3.9.53-.68.41-1.08,1.42-.94,2.36.06.42.29.78.5,1.12.12.2.25.4.35.61.37.82.33.97.05,1.61-.05.12-.11.25-.18.42-.35.86-.47,1.42-.19,2.28.14.42.3.74.44,1.01.33.64.56,1.1.2,2.18-.09.26-.2.52-.32.76-.23.49-.44.96-.45,1.5,0,.64.2.98.44,1.36.14.21.28.44.39.73.19.48.12,1,.06,1.51-.07.54-.14,1.06.12,1.49h-.02Z"/><rect x="51.88" y="29.29" width="4.16" height=".22" transform="translate(.76 60.16) rotate(-58.62)"/><rect x="47.46" y="26.02" width=".22" height="3.96" transform="translate(-1.89 3.5) rotate(-4.13)"/><rect x="41.21" y="28.19" width=".22" height="4.06" transform="translate(-9.79 27.3) rotate(-32.91)"/><path d="M61.33,55.48c-1.33,0-2.53-.45-3.59-1.33-2.27-1.89-3.11-5.17-3.12-5.21l.22-.05s.84,3.25,3.05,5.09c1.11.93,2.39,1.36,3.81,1.27,1.22-.08,2.26-.5,3.1-1.26,2.17-1.94,2.3-6.14,2.3-6.18h.22c0,.18-.13,4.34-2.37,6.34-.88.79-1.97,1.24-3.24,1.32-.13,0-.25,0-.38,0Z"/><path d="M64.54,53.28c0,.33-.02.64-.06.95-.69.63-1.6,1.07-2.82,1.15-1.44.09-2.57-.41-3.46-1.15-.04-.31-.06-.64-.06-.98,0-2.8,1.45-5.07,3.22-5.06,1.77,0,3.19,2.29,3.18,5.09Z" fill="#ff3fba"/><path d="M61.33,55.5c-1.18,0-2.26-.4-3.2-1.19l-.03-.03v-.04c-.05-.32-.07-.65-.06-.99,0-1.38.35-2.67.97-3.65.63-.99,1.46-1.53,2.36-1.53h0c1.82,0,3.3,2.34,3.29,5.2h0c0,.32-.02.64-.06.96v.04l-.04.03c-.78.71-1.75,1.1-2.89,1.18-.11,0-.23,0-.34,0h0ZM58.31,54.17c.98.81,2.11,1.17,3.35,1.1,1.07-.07,1.98-.44,2.72-1.09.04-.3.06-.6.06-.9.01-2.74-1.36-4.97-3.07-4.98h0c-.81,0-1.58.51-2.17,1.43-.6.94-.93,2.19-.94,3.53,0,.32.02.62.05.92h0Z"/><line x1="61.35" y1="50.41" x2="61.33" y2="55.38" fill="none"/><rect x="58.85" y="52.78" width="4.97" height=".22" transform="translate(8.21 114.02) rotate(-89.78)"/><path d="M61.88,41.2l.06,2.15s-2.92-.22-2.88,1.58c.04,1.81,3.19,1.02,3.19,1.02" fill="#ffde00"/><path d="M60.84,46.24c-.52,0-1.07-.08-1.45-.37-.29-.22-.44-.53-.45-.93,0-.42.13-.78.42-1.05.7-.66,2.04-.66,2.45-.65l-.06-2.03h.22l.07,2.27h-.12s-1.67-.13-2.41.57c-.24.23-.36.53-.35.89,0,.33.12.58.36.76.8.62,2.67.16,2.69.16l.05.22s-.71.17-1.43.17h.01Z"/><path d="M69.69,65.36s9.36-2.28,14.63,5.5c5.36,7.91-.3,14.34-13.77,10.53l-5.05-1.12c-1-.22-2.03-.26-3.04-.11-3.09.46-5.82,1.08-9.1,1.96-12.93,3.47-19.62-5.44-13.18-12.94,4.42-5.16,13.19-4.05,18.07-2.92,2.51.58,5.11.6,7.61,0,0,0,3.83-.9,3.83-.9Z" fill="#b583fd"/><path d="M47.92,82.99c-4.16,0-7.57-1.46-9.27-4.18-1.82-2.89-1.28-6.52,1.45-9.71,4.47-5.21,13.3-4.09,18.17-2.95,2.5.58,5.11.58,7.56,0l3.83-.9c.12-.03,9.5-2.2,14.75,5.54,2.28,3.37,2.66,6.6,1.02,8.87-2.27,3.14-7.84,3.83-14.91,1.82l-5.04-1.12c-.99-.22-2-.26-3-.11-2.82.42-5.46.99-9.09,1.96-1.91.51-3.76.76-5.47.76v.02ZM50.62,65.42c-3.84,0-7.82.88-10.35,3.83-2.66,3.11-3.2,6.64-1.43,9.44,2.36,3.75,8.05,5.05,14.5,3.32,3.64-.98,6.28-1.55,9.11-1.96,1.03-.15,2.07-.12,3.08.11l5.05,1.12c6.98,1.98,12.46,1.33,14.68-1.74,1.58-2.19,1.21-5.33-1.02-8.62-5.17-7.62-14.42-5.47-14.51-5.45h0l-3.83.9c-2.48.58-5.13.58-7.66,0-2.04-.47-4.79-.95-7.6-.95h-.02Z"/><ellipse cx="48.15" cy="74.21" rx="7.02" ry="7.83" transform="translate(-33.13 109.13) rotate(-80.27)"/><path d="M48.43,81.37c-.48,0-.96-.04-1.44-.12-4.32-.72-7.31-4.46-6.67-8.34.29-1.74,1.28-3.29,2.78-4.37,1.73-1.24,3.99-1.73,6.22-1.36,4.32.72,7.31,4.46,6.67,8.34h0c-.29,1.74-1.28,3.29-2.78,4.37-1.36.97-3.04,1.48-4.77,1.48h0ZM47.87,67.28c-1.69,0-3.32.5-4.64,1.44-1.46,1.04-2.41,2.54-2.69,4.22-.62,3.76,2.29,7.39,6.49,8.09,2.16.36,4.37-.12,6.05-1.33,1.46-1.04,2.41-2.54,2.69-4.22.62-3.76-2.29-7.39-6.49-8.09-.47-.08-.94-.12-1.41-.12h0Z"/><path d="M53.64,76.05c-.19,1.13-1.25,1.9-2.38,1.71s-1.89-1.26-1.7-2.39,1.25-1.9,2.38-1.71,1.89,1.26,1.7,2.39Z" fill="#ffde00"/><path d="M51.6,77.89c-.12,0-.24,0-.36-.03-1.19-.2-1.99-1.33-1.79-2.52.1-.58.41-1.08.88-1.42s1.05-.47,1.62-.38c1.19.2,1.99,1.33,1.79,2.52h0c-.1.58-.41,1.08-.89,1.42-.37.27-.81.41-1.26.41h0ZM51.59,73.74c-.4,0-.8.13-1.13.37-.43.31-.71.76-.8,1.28-.18,1.07.55,2.08,1.61,2.26.51.09,1.03-.03,1.46-.34s.71-.76.8-1.28c.18-1.07-.55-2.08-1.61-2.26-.11-.02-.22-.03-.32-.03h0Z"/><path d="M47.37,72.24c-.19,1.13-1.25,1.9-2.38,1.71s-1.89-1.26-1.7-2.39,1.25-1.9,2.38-1.71,1.89,1.26,1.7,2.39Z" fill="#00be60"/><path d="M45.34,74.09c-.12,0-.24,0-.36-.03-1.19-.2-1.99-1.33-1.79-2.52.1-.58.41-1.08.89-1.42.47-.34,1.05-.47,1.62-.38,1.19.2,1.99,1.33,1.79,2.52-.1.58-.41,1.08-.89,1.42-.37.27-.81.41-1.26.41ZM45.33,69.94c-.4,0-.8.13-1.13.37-.43.31-.71.76-.8,1.28-.18,1.07.55,2.08,1.61,2.26.51.09,1.03-.03,1.46-.34s.71-.76.8-1.28h0c.18-1.07-.55-2.08-1.61-2.26-.11-.02-.22-.03-.32-.03h0Z"/><ellipse cx="75.93" cy="73.86" rx="6.77" ry="7.63" transform="translate(-9.67 136.26) rotate(-80.3)"/><path d="M76.23,80.77c-.47,0-.95-.04-1.42-.12-4.21-.7-7.13-4.32-6.51-8.06.28-1.66,1.22-3.15,2.67-4.19,1.69-1.21,3.9-1.69,6.08-1.33,4.21.7,7.13,4.32,6.51,8.06h0c-.28,1.66-1.22,3.15-2.67,4.19-1.32.94-2.96,1.45-4.66,1.45ZM75.63,67.18c-1.65,0-3.25.49-4.53,1.4-1.4,1-2.32,2.44-2.58,4.04-.6,3.62,2.24,7.12,6.33,7.8,2.12.35,4.28-.12,5.92-1.29,1.4-1,2.32-2.44,2.58-4.04h0c.6-3.62-2.24-7.12-6.33-7.8-.46-.08-.93-.11-1.39-.11Z"/><polygon points="72.11 75.92 69.8 73.07 72.64 70.75 72.11 75.92" fill="#1bdeff"/><path d="M72.2,76.19l-2.55-3.15,3.13-2.56-.59,5.7h.01ZM69.96,73.08l2.07,2.55.48-4.63s-2.55,2.08-2.55,2.08Z"/><polygon points="80.12 71.87 82.4 74.75 79.53 77.03 80.12 71.87" fill="#1bdeff"/><path d="M79.39,77.28l.66-5.69,2.51,3.18-3.17,2.52h0ZM80.2,72.15l-.54,4.62,2.57-2.04-2.04-2.58h.01Z"/><polygon points="78.17 77.91 75.17 80.01 73.08 77 78.17 77.91" fill="#1bdeff"/><path d="M75.14,80.16l-2.31-3.32,5.62,1s-3.31,2.32-3.31,2.32ZM73.32,77.15l1.88,2.7,2.69-1.89-4.57-.81Z"/><polygon points="74.23 70.03 77.1 67.76 79.37 70.64 74.23 70.03" fill="#1bdeff"/><path d="M79.62,70.78l-5.67-.66,3.17-2.51,2.51,3.18h-.01ZM74.51,69.96l4.61.54-2.04-2.58-2.57,2.04Z"/><path d="M70.04,84.49l-5.05-1.12c-1-.22-2.03-.26-3.04-.11-3.09.45-5.81,1.08-9.1,1.96-11.11,2.98-17.02-2.22-15.19-11.3-.57,6.71,6.39,10.68,15.71,8.19,3.29-.88,6.01-1.5,9.1-1.96,1.01-.15,2.04-.11,3.04.11l5.05,1.12c8.25,2.34,15.21,1.25,15.78-4.67.21,7.73-5.78,10.76-16.3,7.78Z" fill="#b583fd"/><path d="M47.06,86.18c-3.04,0-5.53-.82-7.25-2.44-2.3-2.16-3.1-5.65-2.26-9.83l.22.03c-.22,2.6.68,4.83,2.6,6.44,2.89,2.42,7.74,3.03,12.97,1.63,3.66-.98,6.3-1.55,9.12-1.96,1.04-.15,2.08-.11,3.08.11l5.05,1.12c5.73,1.62,10.55,1.51,13.23-.32,1.43-.97,2.24-2.4,2.42-4.25h.22c.09,3.23-.87,5.65-2.86,7.19-2.81,2.18-7.5,2.43-13.58.71l-5.04-1.12c-.99-.22-2-.26-3-.11-2.81.41-5.45.98-9.09,1.96-2.1.56-4.05.84-5.82.84h-.01ZM37.54,75.36c-.4,3.48.44,6.36,2.42,8.22,2.67,2.5,7.24,3.05,12.86,1.55,3.65-.98,6.29-1.55,9.12-1.96,1.02-.15,2.06-.12,3.08.11l5.05,1.12c6.01,1.7,10.64,1.47,13.39-.67,1.65-1.28,2.57-3.19,2.74-5.69-.38,1.3-1.14,2.34-2.27,3.11-2.73,1.86-7.62,1.99-13.41.35l-5.04-1.12c-.98-.22-1.99-.25-3-.11-2.8.42-5.44.99-9.09,1.96-5.3,1.42-10.22.79-13.17-1.67-1.59-1.33-2.52-3.14-2.68-5.19h0Z"/><path d="M63.89,113.31c-.47-.77-1.4-1.18-2.16-1.65-.79-.49-1.65-.96-2.35-1.56-.36-.31-.79-.6-1.02-1-.21-.36-.31-.79-.43-1.17-.54-1.77-.39-3.56-.19-5.37.1-.9.21-1.8.19-2.7-.02-.76-.22-1.54-.53-2.25-.03-.07-.06-.13-.09-.2.37-.29.72-.6,1.06-.91.66-.6,1.22-1.33,1.74-2.03.55-.75,1.03-1.53,1.46-2.34.4-.76.78-1.53,1.02-2.35.25-.87.33-1.74.32-2.63,0-.91-.02-1.83-.03-2.74,0-.45-.02-.91-.05-1.36-.02-.4-.69-.4-.67,0,.05.84.05,1.68.05,2.52s.06,1.67,0,2.51c-.1,1.6-.82,3.08-1.64,4.47-.82,1.41-1.83,2.83-3.13,3.9-.16.13-.32.27-.48.41-.26-.35-.59-.64-1.02-.85-.7-.34-1.55-.46-2.33-.33-.72.12-1.48.45-1.94.99-.44.51-.5,1.3.02,1.79,1.21,1.15,3.37.29,4.59-.36.16-.09.32-.19.48-.29.04.09.08.18.11.27.26.69.41,1.4.39,2.13-.02.84-.11,1.67-.2,2.51-.17,1.63-.31,3.27.09,4.88.1.4.23.79.36,1.18.12.35.26.7.5.98.27.31.65.6.98.86.32.26.68.49,1.03.72.7.47,1.43.92,2.17,1.35.38.22.81.48,1.06.84.09.14.21.31.32.49.06.1.14.18.23.24l.22-.72c-.04-.07-.08-.14-.12-.21v-.02ZM55.53,97.75c-.68.33-1.46.6-2.24.61-.61,0-1.47-.27-1.29-.98.15-.59.94-.92,1.51-1.07.7-.18,1.5-.09,2.13.23.35.17.6.41.8.69-.29.2-.6.36-.92.52h.01Z" stroke="#000" stroke-miterlimit="10"/><path d="M63.2,83.87h-1.57v-2.15c0-.43.35-.79.79-.79h0c.43,0,.79.35.79.79v2.15h-.01Z"/><path d="M63.31,83.99h-1.79v-2.26c0-.49.4-.9.9-.9s.9.4.9.9v2.26h-.01ZM61.74,83.76h1.35v-2.03c0-.37-.3-.67-.67-.67s-.67.3-.67.67v2.03h-.01Z"/><path d="M36.23,46.49v4.7c-2.4.83-4.78,1.71-7.12,2.69-3.77,1.59-7.43,3.75-10.7,6.22-1.64,1.24-5.33,3.27-5.08,5.77.22,2.11,3.12,2.84,4.83,2.95,2.11.14,4.23.23,6.35.29.63.02,1.27.03,1.9.04-.2,1.48-.34,2.96-.46,4.45-1.76-.03-3.52-.09-5.28-.19-2.26-.13-4.51-.13-6.64-.99-2.02-.81-4.47-2.22-5.19-4.43-.72-2.21.43-4.72,1.75-6.47,1.3-1.73,2.96-3.22,4.65-4.55,3.8-2.99,8.04-5.45,12.5-7.31,2.79-1.16,5.63-2.19,8.48-3.17h0Z"/><path d="M46.39,70.07c-1.09,5.44-7.09,2.02-7.86,1.56-.03-.02-.04-.03-.06-.03h-.02v.2s0,.03-.02.04c-1.09,2.32-1.42,4.42-1.07,6.12.11,1.55.52,2.9,1.19,4.04v.26c-3.87.47-8.62-1.07-9.19-4.71-.28.97-1.43,2.38-2.63,2.18-1.05-.18-1.82-.62-2.35-1.61-1.04-1.98.87-12.59,3.97-13.16,1.38-.26,2.91.33,3.41,2.36,1.05-1.87,3.94-3.39,8.56-.16.31.21.74.36,1.22.47,2.09.48,5.27.31,4.84,2.45h.01Z" fill="#fff"/><path d="M37.19,82.45c-3.52,0-7.12-1.56-7.85-4.49-.45,1-1.52,2.07-2.61,1.88-1.18-.21-1.93-.72-2.43-1.67-.88-1.67.25-7.88,1.68-10.83.73-1.5,1.52-2.34,2.37-2.49,1.95-.36,3.06.9,3.47,2.19.39-.6,1.16-1.44,2.54-1.76,1.2-.27,3.23-.19,6.05,1.78.27.19.66.33,1.18.45.46.11.99.18,1.49.25,1.33.19,2.7.39,3.24,1.15.22.32.29.71.2,1.18h0c-.29,1.45-.95,2.4-1.96,2.85-2.17.95-5.32-.78-5.98-1.16v.02s-.02.07-.03.09c-1.05,2.23-1.42,4.32-1.06,6.05.11,1.53.51,2.88,1.17,4.01v.02l.02.03v.37h-.1c-.46.07-.92.09-1.38.09h-.01ZM29.4,77.05l.08.49c.53,3.43,5.05,5.06,8.97,4.62v-.13c-.68-1.16-1.08-2.53-1.19-4.07-.36-1.76,0-3.9,1.08-6.17v-.42l.18.12s.05.02.08.04c.36.22,3.66,2.16,5.85,1.2.94-.41,1.56-1.32,1.83-2.69h0c.08-.41.03-.74-.16-1-.48-.68-1.81-.87-3.09-1.06-.51-.07-1.04-.15-1.51-.26-.55-.12-.96-.28-1.26-.48-2.18-1.52-4.21-2.13-5.87-1.75-1.47.34-2.22,1.32-2.53,1.87l-.14.25-.07-.27c-.5-2.04-2.02-2.51-3.28-2.28-.76.14-1.52.96-2.21,2.37-1.65,3.41-2.42,9.24-1.69,10.63.48.9,1.15,1.36,2.27,1.56,1.1.19,2.22-1.12,2.5-2.1l.14-.48h.02Z"/><path d="M31.77,67.31s-.88,1.12-1.5,3.42" fill="#fff"/><path d="M30.38,70.76l-.21-.06c.62-2.29,1.48-3.41,1.52-3.46l.17.14s-.87,1.13-1.48,3.38Z"/><rect x="28.09" y="76.03" width="2.84" height=".22" transform="translate(-49.23 97.77) rotate(-84.17)"/><rect x="37.62" y="70.28" width=".22" height="1.74" transform="translate(-42.69 66.8) rotate(-58.97)"/><path d="M110.5,66.8c-.72,2.21-3.18,3.62-5.19,4.43-2.13.86-4.38.86-6.64.99-1.76.1-3.52.16-5.28.19-.11-1.49-.26-2.97-.46-4.45.63-.01,1.27-.02,1.9-.04,2.12-.06,4.23-.15,6.35-.29,1.72-.11,4.62-.84,4.83-2.95.25-2.49-3.44-4.52-5.08-5.77-3.27-2.48-6.92-4.64-10.7-6.22-1.26-.53-2.53-1.03-3.8-1.5v-4.72c1.74.63,3.46,1.29,5.17,2,4.46,1.86,8.69,4.32,12.5,7.31,1.7,1.33,3.35,2.82,4.65,4.55,1.32,1.75,2.48,4.26,1.75,6.47Z"/><path d="M99.17,74.9c-.37,1.07-1.07,1.61-2.07,1.96-1.16.39-2.5-.83-2.94-1.75,0,3.68-4.46,5.94-8.36,6.07,0,0-.02-.15-.06-.4h0c.43-1.17.64-2.52.6-4.06-.01.13-.03.25-.04.37.2-1.82-.43-3.96-1.97-6.23,0-.01-.02-.03-.03-.04-.02-.14-.03-.21-.03-.21l-.02.02s-.03.02-.06.04c-.69.57-6.09,4.88-8-.33-.75-2.05,2.41-2.37,4.41-3.17.47-.18.86-.39,1.14-.65,4.07-3.9,7.16-2.85,8.49-1.16.18-2.08,1.6-2.9,3-2.86,3.15.09,6.67,10.28,5.94,12.4Z" fill="#fff"/><path d="M85.7,81.29v-.1s-.03-.14-.07-.4v-.06c.4-1.07.6-2.29.6-3.64h-.05c.2-1.85-.47-3.98-1.95-6.16-.02-.03-.03-.04-.03-.05v-.03s-.01-.01-.01-.02c-.73.59-3.48,2.67-5.73,2.07-1.07-.28-1.86-1.13-2.37-2.51-.16-.45-.16-.85.01-1.19.42-.84,1.74-1.24,3.02-1.64.49-.15.99-.3,1.43-.48.5-.2.86-.4,1.1-.63,2.49-2.38,4.48-2.78,5.71-2.69,1.4.1,2.3.81,2.77,1.34.28-2.04,1.75-2.74,3.09-2.7.86.02,1.77.73,2.72,2.1,1.87,2.69,3.93,8.65,3.32,10.44h0c-.35,1.02-1.02,1.64-2.14,2.02-1.05.36-2.28-.54-2.88-1.46-.3,3.42-4.53,5.65-8.45,5.79h-.1.01ZM85.85,80.78c.02.12.03.22.04.28,3.94-.17,8.15-2.48,8.15-5.95v-.5l.21.45c.44.93,1.74,2.05,2.8,1.69,1.07-.36,1.67-.93,2-1.89h0c.51-1.48-1.14-7.13-3.29-10.24-.89-1.29-1.78-1.99-2.55-2.01-1.28-.04-2.71.67-2.89,2.76l-.02.28-.17-.22c-.39-.5-1.28-1.35-2.78-1.46-1.7-.12-3.61.79-5.54,2.63-.26.25-.65.47-1.17.67-.44.18-.95.33-1.45.48-1.24.38-2.52.77-2.89,1.52-.15.29-.15.63,0,1.02.48,1.31,1.23,2.11,2.22,2.37,2.25.6,5.07-1.63,5.61-2.09.02-.02.04-.04.06-.05l.16-.16.04.21s.01.07.03.19c0,0,.01.02.02.03,1.4,2.06,2.09,4.1,2.01,5.91h.01c.04,1.52-.16,2.88-.59,4.07h-.02Z"/><path d="M90.22,65.36s1.04.97,2,3.14" fill="#fff"/><path d="M92.12,68.55c-.94-2.12-1.97-3.1-1.98-3.11l.15-.16s1.07,1.01,2.03,3.18c0,0-.2.09-.2.09Z"/><rect x="93.69" y="72.31" width=".22" height="2.84" transform="translate(-15.61 26.14) rotate(-14.66)"/><rect x="84.05" y="69.95" width="1.74" height=".22" transform="translate(-25.17 70.69) rotate(-39.85)"/></svg>