<?xml version="1.0" encoding="UTF-8"?><svg xmlns="http://www.w3.org/2000/svg" width="93" height="93" xmlns:xlink="http://www.w3.org/1999/xlink" viewBox="0 0 93 93"><defs><mask id="mask" x="59.53" y="31.51" width="11.85" height="4.9" maskUnits="userSpaceOnUse"><g id="mask0a0e51801-df97-4213-8aa2-c1c4174b3627"><path id="Clip_6" d="M59.53,31.51h11.85v4.9h-11.85v-4.9Z" fill="#fff" fill-rule="evenodd"/></g></mask><mask id="mask-1" x="64.24" y="31.51" width="7.14" height="4.9" maskUnits="userSpaceOnUse"><g id="mask1a0e51801-df97-4213-8aa2-c1c4174b3627"><path id="Clip_9" d="M64.24,31.51h7.14v4.9h-7.14v-4.9Z" fill="#fff" fill-rule="evenodd"/></g></mask><mask id="mask-2" x="43.13" y="27.66" width="11.31" height="2.73" maskUnits="userSpaceOnUse"><g id="mask2a0e51801-df97-4213-8aa2-c1c4174b3627"><path id="Clip_14" d="M43.13,27.66h11.31v2.73h-11.31v-2.73Z" fill="#fff" fill-rule="evenodd"/></g></mask><mask id="mask-3" x="52.41" y="44.53" width="3.14" height="2.1" maskUnits="userSpaceOnUse"><g id="mask3a0e51801-df97-4213-8aa2-c1c4174b3627"><path id="Clip_21" d="M52.41,44.53h3.14v2.1h-3.14v-2.1Z" fill="#fff" fill-rule="evenodd"/></g></mask></defs><g id="Ebene_1"><circle cx="46.5" cy="46.5" r="46.5" fill="#2563ff"/></g><g id="Ebene_2"><g id="Master_Characters_Avatar"><g id="Hairstyle"><g id="Hairstyle_Buzz_Fade"><g id="Group_20"><path id="Fill_1" d="M68.15,53.68c-2.87,2.99-6.79,3.48-10.94,2.65-10.58-2.12-22.66-12.86-22.66-12.86-2.4-1.88-4.95-4.45-6.56-7.3l-.08-.15c-.43-.76-.78-1.54-1.04-2.33-.13-.38-.23-.76-.31-1.14,0-.04-.01-.07-.02-.11-.02-.11-.05-.21-.07-.3-.47-1.94-.83-2-1.42-5.69-.86-5.46,1.42-10.29,6.3-12.93,6.58-3.56,15.12-4.47,22.15-1.47.02,0,.04.01.06.02.82.35,1.61.77,2.36,1.24.93.57,1.81,1.23,2.63,1.95,5.19,4.52,8.37,11.61,10.76,17.79,2.52,6.5,4.21,15.02-1.15,20.61" fill="#de8857" fill-rule="evenodd"/><path id="Fill_3" d="M53.91,32.5l4.28,36.45c.85,7.2-4.3,13.72-11.5,14.56-7.2.85-13.72-4.3-14.56-11.5-.09-.75-.11-1.57-.07-2.3l2.16-36.63c.32-5.45,5-9.61,10.45-9.29,4.86.29,8.69,4.04,9.24,8.72" fill="#de8857" fill-rule="evenodd"/><path id="Fill_5" d="M56.68,56.22s-2.6-.41-6.75-2.54c-.51-.26-1.01.36-.64.79l8.12,7.79-.73-6.05Z" fill="#21211d" fill-rule="evenodd"/><path id="Fill_7" d="M33.51,44.79s1-.6,1.72-1.65c.11-.16.36-.11.4.08.26,1.3.49,4.75-2.46,7.59l.35-6.01Z" fill="#21211d" fill-rule="evenodd"/><path id="Path" d="M53.29,11.97l.27.11h0c.82.35,1.61.77,2.36,1.24.93.58,1.81,1.23,2.63,1.95-2.21,2.62-5.55,4.19-8.94,4.9-3.16.66-6.41.65-9.64.57l-1.8-.04c-.34,0-.7-.01-1.05,0l-.11.02c-.9.2-1.59.69-.28,3.44l.11.22c2.21,4.49,3.69,8.62,4.44,12.42.1.27.14.56.14.84,0,.99-.6,1.93-1.59,2.31-1.17.45-2.48-.04-3.07-1.13l-.04-.08-1.22-2.32c-.03-.09-.07-.19-.11-.28-.67.48-1.6.66-2.44.52l-.1-.02c-1.28-.27-3.96.28-4.92-.62-.95-.89-2.28-5.88-2.86-9.57-.86-5.46,1.42-10.29,6.3-12.93,6.52-3.52,14.95-4.45,21.94-1.56h0Z" fill="#21211d" fill-rule="evenodd"/><path id="Fill_18" d="M30.2,43.88c0,1-.81,1.8-1.8,1.8s-1.8-.81-1.8-1.8.81-1.8,1.8-1.8,1.8.81,1.8,1.8" fill="#fff" fill-rule="evenodd"/></g><g id="Group"><path id="Fill_14" d="M36.82,40.13c-.23,4.03-3.69,7.1-7.71,6.87-4.03-.23-7.1-3.69-6.87-7.71.23-4.03,3.69-7.1,7.71-6.87,4.03.23,7.1,3.69,6.87,7.71" fill="#de8857" fill-rule="evenodd"/><path id="Fill_16" d="M32.15,40.62c-.06,0-.12-.01-.18-.04l-5.73-2.4c-.24-.1-.35-.38-.25-.61.1-.24.38-.35.61-.25l5.73,2.4c.24.1.35.38.25.61-.08.18-.25.29-.43.29" fill="#21211d" fill-rule="evenodd"/><path id="Fill_18_2" d="M28.58,41.62c-.06,0-.11,0-.17-.03-.24-.09-.36-.36-.27-.61l.82-2.16c.09-.24.36-.36.61-.27.24.09.36.36.27.61l-.82,2.16c-.07.19-.25.3-.44.3" fill="#21211d" fill-rule="evenodd"/></g></g></g><g id="Expression"><g id="Expression_Happy"><g id="Group_23"><path id="Fill_1-2" d="M55.3,34.36s-2.26,3.03-6.13,3.04c-1.64,0-3.56-.53-5.72-2.08,0,0,1.95-2.42,5.34-2.78,1.79-.19,3.99.19,6.51,1.82" fill="#fff" fill-rule="evenodd"/><path id="Fill_3-2" d="M55.3,34.36s-2.26,3.03-6.13,3.04c-.57-.63-.93-1.44-1-2.35-.07-.91.16-1.78.62-2.5,1.79-.19,3.99.19,6.51,1.82" fill="#21211d" fill-rule="evenodd"/><g id="Group_7"><g mask="url(#mask)"><path id="Fill_5-2" d="M71.38,33.37s-2.26,3.03-6.13,3.04c-1.64,0-3.56-.53-5.72-2.08,0,0,1.95-2.42,5.34-2.78,1.79-.19,3.99.19,6.51,1.82" fill="#fff" fill-rule="evenodd"/></g></g><g id="Group_10"><g mask="url(#mask-1)"><path id="Fill_8" d="M71.38,33.37s-2.26,3.03-6.13,3.04c-.57-.63-.93-1.44-1-2.35-.07-.91.16-1.78.62-2.5,1.79-.19,3.99.19,6.51,1.82" fill="#21211d" fill-rule="evenodd"/></g></g><path id="Fill_11" d="M56.56,42.18c-.28,0-.51-.23-.51-.51,0-.28.23-.51.51-.52h1.66c.34,0,.66-.17.87-.44.21-.27.27-.62.18-.95l-2.04-7.25c-.08-.27.08-.56.36-.63.27-.08.56.08.63.36l2.04,7.25c.18.64.05,1.32-.35,1.85-.4.53-1.01.84-1.68.84h-1.66s0,0,0,0Z" fill="#21211d" fill-rule="evenodd"/><g id="Group_15"><g mask="url(#mask-2)"><path id="Fill_13" d="M43.64,30.39c-.16,0-.31-.07-.41-.2-.17-.23-.13-.55.1-.72.2-.15,4.89-3.6,10.82-.54.25.13.35.44.22.69s-.44.35-.69.22c-5.36-2.76-9.69.42-9.73.45-.09.07-.2.1-.31.1" fill="#21211d" fill-rule="evenodd"/></g></g><path id="Fill_16-2" d="M60.43,29.54c-.16,0-.33-.08-.43-.22-.16-.23-.1-.55.13-.71.2-.14,5.05-3.38,10.84-.06.25.14.33.46.19.7-.14.25-.46.33-.7.19-5.22-2.99-9.56-.11-9.75.01-.09.06-.19.09-.29.09" fill="#21211d" fill-rule="evenodd"/><path id="Fill_18-2" d="M55.71,43.75v1.23c0,.25-.05.49-.16.7-.26.56-.83.95-1.49.95-.91,0-1.65-.74-1.65-1.65v-1.23c0-.38.31-.7.7-.7h1.91c.38,0,.7.31.7.7" fill="#21211d" fill-rule="evenodd"/><g id="Group_22"><g mask="url(#mask-3)"><path id="Fill_20" d="M55.55,45.68c-.26.56-.83.95-1.49.95-.91,0-1.65-.74-1.65-1.65v-.25c.3-.12.63-.19.97-.19.9,0,1.7.45,2.17,1.14" fill="#f74bad" fill-rule="evenodd"/></g></g></g></g></g><g id="Facial_Hair"><g id="Facial_Hair_Mustache"><path id="Path_5_Copy" d="M49.83,41.96c1.61-1.17,3.53-1.36,5.65-.62,2.18.76,3.68,2.42,4.44,4.87.16.52-.13,1.08-.65,1.24-.52.16-1.08-.13-1.24-.65-.58-1.88-1.63-3.04-3.2-3.59-1.54-.54-2.78-.41-3.84.36-.44.32-1.06.22-1.38-.22-.32-.44-.22-1.06.22-1.38Z" fill="#21211d"/></g></g><g id="Accesories"><g id="Accesories_Designer_Glasses_4"><g id="Group_26"><path id="Fill_7-2" d="M42.15,30.93s-.05.01-.08.02l-13.77,1.85c-.3.04-.58-.17-.62-.47-.04-.3.17-.57.47-.62l13.77-1.85c.3-.04.58.17.62.47.04.27-.13.53-.39.6" fill="#20201d" fill-rule="evenodd"/><path id="Fill_4" d="M48.93,41.52h0c-4.27,0-7.74-3.46-7.74-7.73v-5.08h15.48v5.08c0,4.27-3.47,7.73-7.74,7.73" fill="#20201d" fill-rule="evenodd"/><path id="Fill_6" d="M68.04,41.85h0c-4.27,0-7.74-3.46-7.74-7.73v-5.08h15.48v5.08c0,4.27-3.47,7.73-7.74,7.73" fill="#20201d" fill-rule="evenodd"/><path id="Fill_8-2" d="M74.13,30.36v4.04c0,2.9-2,5.34-4.68,5.98-.45.11-.92.17-1.41.17-.06,0-.12,0-.18,0-.87-.02-1.69-.23-2.44-.58-1.1-.53-2.02-1.38-2.63-2.44-.54-.91-.84-1.97-.84-3.11v-4.04h12.19Z" fill="#20201d" fill-rule="evenodd"/><path id="Fill_10" d="M55.36,30.36v4.04c0,3.16-2.36,5.76-5.4,6.1-.23.03-.46.04-.69.04-.28,0-.55-.02-.82-.06-.78-.1-1.51-.36-2.17-.73-1.02-.58-1.86-1.46-2.41-2.5-.44-.85-.69-1.82-.69-2.85v-4.04h12.19Z" fill="#20201d" fill-rule="evenodd"/><path id="Fill_12" d="M40.21,28.72h1.65v1.64h-.67c-.54,0-.97-.44-.97-.97v-.67Z" fill="#20201d" fill-rule="evenodd"/><path id="Fill_14-2" d="M77.09,29.05h-1.65v1.64h.67c.54,0,.97-.44.97-.97v-.67Z" fill="#20201d" fill-rule="evenodd"/><path id="Fill_16-3" d="M71.17,30.36c-.81.28-1.56.64-2.15,1.24-1.09,1.12-1.29,2.75-1.54,4.26-.24,1.51-.7,3.16-2.05,3.98-.02.02-.05.03-.07.04-1.15-.53-2.11-1.37-2.75-2.42.19-.07.38-.16.57-.28,1.34-.82,1.8-2.48,2.05-3.99.16-.95.29-1.95.65-2.84h5.29Z" fill="#fff" fill-rule="evenodd"/><path id="Fill_18-3" d="M74.13,31.67v1.26c-.98.31-1.92.68-2.61,1.45-.98,1.09-1.17,2.7-1.39,4.17-.09.61-.22,1.24-.42,1.83-.43.1-.87.16-1.34.16-.06,0-.11,0-.17,0,.53-.84.77-1.92.93-2.93.22-1.48.41-3.08,1.39-4.17.92-1.02,2.29-1.33,3.61-1.75" fill="#fff" fill-rule="evenodd"/><path id="Fill_20-2" d="M51.4,30.36c-.77.27-1.47.63-2.03,1.22-1.03,1.1-1.22,2.72-1.45,4.2-.22,1.4-.71,3.02-1.81,3.87-1.63-.82-2.32-2.53-2.31-2.54,1.27-.81,1.75-2.47,1.98-3.96.15-.94.28-1.92.61-2.8h5Z" fill="#fff" fill-rule="evenodd"/><path id="Fill_22" d="M55.36,31.34v1.3c-1.28.37-2.56.72-3.44,1.66-1.04,1.11-1.23,2.73-1.47,4.22-.1.66-.24,1.34-.49,1.97-.23.03-.46.04-.69.04-.28,0-.55-.02-.82-.06.54-.84.79-1.91.95-2.92.24-1.5.43-3.12,1.47-4.22,1.13-1.2,2.91-1.43,4.49-2" fill="#fff" fill-rule="evenodd"/><path id="Fill_24" d="M61.72,30.03c-.09,0-.19-.02-.28-.07-2.84-1.64-5.49-.25-5.6-.19-.27.14-.6.04-.75-.22-.14-.27-.05-.6.22-.75.13-.07,3.3-1.76,6.68.2.26.15.35.49.2.75-.1.18-.29.28-.48.28" fill="#20201d" fill-rule="evenodd"/></g></g></g></g></g></svg>