<?xml version="1.0" encoding="UTF-8"?><svg xmlns="http://www.w3.org/2000/svg" width="93" height="93" xmlns:xlink="http://www.w3.org/1999/xlink" viewBox="0 0 93 93"><defs><mask id="mask" x="33.23" y="11.11" width="36.64" height="36.13" maskUnits="userSpaceOnUse"><g id="mask0d45ebf82-802a-4d98-b992-67da05a5002d"><path id="Clip_2" d="M33.23,11.11h36.63v36.13h-36.63V11.11Z" fill="#fff" fill-rule="evenodd"/></g></mask><mask id="mask-1" x="33.24" y="11.11" width="24.15" height="10.45" maskUnits="userSpaceOnUse"><g id="mask1d45ebf82-802a-4d98-b992-67da05a5002d"><path id="Clip_18" d="M33.24,11.11h24.15v10.45h-24.15v-10.45Z" fill="#fff" fill-rule="evenodd"/></g></mask><mask id="mask-2" x="61.85" y="27.32" width="9.75" height="4.02" maskUnits="userSpaceOnUse"><g id="mask03f8de8c1-d2b0-4b41-b282-a5a4f98188d8"><path id="Clip_6" d="M61.85,27.32h9.75v4.02h-9.75v-4.02Z" fill="#fff" fill-rule="evenodd"/></g></mask><mask id="mask-3" x="65.73" y="27.32" width="5.87" height="4.02" maskUnits="userSpaceOnUse"><g id="mask13f8de8c1-d2b0-4b41-b282-a5a4f98188d8"><path id="Clip_9" d="M65.73,27.32h5.87v4.02h-5.87v-4.02Z" fill="#fff" fill-rule="evenodd"/></g></mask><mask id="mask-4" x="48.14" y="23.68" width="9.24" height="1.99" maskUnits="userSpaceOnUse"><g id="mask23f8de8c1-d2b0-4b41-b282-a5a4f98188d8"><path id="Clip_12" d="M48.14,23.68h9.24v1.99h-9.24v-1.99Z" fill="#fff" fill-rule="evenodd"/></g></mask></defs><g id="Ebene_1"><circle cx="46.5" cy="46.5" r="46.5" fill="#2563ff"/></g><g id="Ebene_2"><g id="Master_Characters_Avatar"><g id="Hairstyle"><g id="Hairstyle_Hijab"><g id="Group_28"><path id="Fill_3" d="M56.38,28.28l3.41,28.99c.67,5.73-3.42,10.91-9.15,11.59-5.72.67-10.91-3.42-11.58-9.15-.07-.6-.08-1.25-.05-1.83l1.72-29.14c.26-4.34,3.98-7.64,8.31-7.39,3.87.23,6.91,3.21,7.35,6.93" fill="#de8857" fill-rule="evenodd"/><path id="Fill_12" d="M58.57,46.95s-1.97-.3-5.22-1.97c-.4-.2-.79.28-.5.62l6.44,7.44-.72-6.09Z" fill="#21211d" fill-rule="evenodd"/></g><g id="Group_38"><g id="Group_3"><g mask="url(#mask)"><path id="Fill_1" d="M33.37,23.58c.49,3.08.78,2.93,1.18,4.77.06.3.15.6.25.89.99,2.98,3.6,5.76,6.01,7.65,0,0,9.46,8.41,17.73,10.07,3.24.65,6.31.26,8.56-2.08,7.21-7.53-1.53-21.97-4.95-26.97-.05-.07-.09-.15-.14-.22-.8-1.27-1.81-2.42-2.97-3.39-.54-.45-1.09-.85-1.65-1.2-1.1-.68-2.27-1.16-3.62-1.48-2-.47-4.08-.6-6.12-.47-.58.03-1.16.09-1.74.17-3.54.47-7.46,1.34-10.05,3.97-1.67,1.7-2.54,3.93-2.62,6.25-.02.67.02,1.35.12,2.02" fill="#de8857" fill-rule="evenodd"/></g></g><g id="Group_8"><path id="Fill_6" d="M41.74,34.06c-.19,3.24-2.97,5.72-6.21,5.53-3.24-.19-5.72-2.97-5.53-6.21.19-3.24,2.97-5.72,6.21-5.53,3.24.19,5.71,2.97,5.53,6.21" fill="#de8857" fill-rule="evenodd"/></g><path id="Fill_13" d="M37.98,34.45s-.1,0-.15-.03l-4.61-1.93c-.19-.08-.28-.3-.2-.49s.3-.28.49-.2l4.61,1.93c.19.08.28.3.2.49-.06.14-.2.23-.35.23" fill="#21211d" fill-rule="evenodd"/><path id="Fill_15" d="M35.11,35.26s-.09,0-.13-.02c-.2-.07-.29-.29-.22-.49l.66-1.73c.07-.2.29-.29.49-.22.2.07.29.29.22.49l-.66,1.73c-.06.15-.2.24-.35.24" fill="#21211d" fill-rule="evenodd"/><g id="Group_19"><g mask="url(#mask-1)"><path id="Fill_17" d="M33.24,21.56c8.4-1.64,16.56-4.5,24.15-8.45-1.1-.68-2.27-1.16-3.62-1.48-2-.47-4.08-.6-6.12-.47-.58.03-1.16.09-1.74.17-3.54.47-7.46,1.34-10.05,3.97-1.67,1.7-2.54,3.93-2.62,6.25" fill="#21211d" fill-rule="evenodd"/></g></g><path id="Fill_20" d="M36.26,21.94c0,.24.2.44.44.44s.44-.2.44-.44-.2-.44-.44-.44-.44.2-.44.44" fill="#21211d" fill-rule="evenodd"/><path id="Fill_22" d="M37.11,25.02c0,.24.2.44.44.44s.44-.2.44-.44-.2-.44-.44-.44-.44.2-.44.44" fill="#21211d" fill-rule="evenodd"/><path id="Fill_24" d="M37.54,27.5c0,.24.2.44.44.44s.44-.2.44-.44-.2-.44-.44-.44-.44.2-.44.44" fill="#21211d" fill-rule="evenodd"/><path id="Fill_26" d="M35.55,23.77c0,.24.2.44.44.44s.44-.2.44-.44-.2-.44-.44-.44-.44.2-.44.44" fill="#21211d" fill-rule="evenodd"/><path id="Fill_28" d="M38.07,23.11c0,.24.2.44.44.44s.44-.2.44-.44-.2-.44-.44-.44-.44.2-.44.44" fill="#21211d" fill-rule="evenodd"/><path id="Fill_30" d="M33.99,22.38c0,.24.2.44.44.44s.44-.2.44-.44-.2-.44-.44-.44-.44.2-.44.44" fill="#21211d" fill-rule="evenodd"/><path id="Fill_32" d="M34.54,25.52c0,.24.2.44.44.44s.44-.2.44-.44-.2-.44-.44-.44-.44.2-.44.44" fill="#21211d" fill-rule="evenodd"/><path id="Fill_34" d="M35.98,26.54c0,.24.2.44.44.44s.44-.2.44-.44-.2-.44-.44-.44-.44.2-.44.44" fill="#21211d" fill-rule="evenodd"/><path id="Fill_36" d="M38.73,26.2c0,.24.2.44.44.44s.44-.2.44-.44-.2-.44-.44-.44-.44.2-.44.44" fill="#21211d" fill-rule="evenodd"/></g><path id="Fill_1-2" d="M58.79,12.92s11.78,7.62,8.56,20.49l-11.81-19.29,3.26-1.2Z" fill="#d5962f" fill-rule="evenodd"/><path id="Fill_7" d="M40.15,37.98s.79-.47,1.37-1.31c.09-.13.28-.09.31.06.2,1.04.39,3.78-1.96,6.04l.28-4.78Z" fill="#21211d" fill-rule="evenodd"/><path id="Fill_1-3" d="M59.29,47.31c-8.27-1.66-17.72-10.06-17.72-10.06-1.87-1.47-3.87-3.48-5.13-5.7l-.06-.12c-.33-.59-.61-1.21-.82-1.82-.1-.29-.18-.59-.25-.89-.4-1.84-.69-1.69-1.18-4.77-.68-4.27,1.11-8.05,4.93-10.11,5.15-2.78,11.82-3.49,17.32-1.15.01,0-1.02.01-1,.02,6.49,2.8,10.95,10.19,13.36,16.41,1.97,5.08,3.29,11.74-.9,16.11-2.24,2.34-5.31,2.72-8.55,2.07Z" fill="#de8857" fill-rule="evenodd"/><g id="Group_46"><path id="Fill_7_2" d="M57.94,46.88s-2.42-.4-5.63-2.05c-.39-.2-.78.28-.5.62l6.61,5.78-.47-4.34Z" fill="#21211d" fill-rule="evenodd"/><path id="Fill_9" d="M39.43,38.77s.77-.46,1.33-1.28c.08-.12.28-.09.31.06.2,1.01.38,3.67-1.9,5.87l.27-4.65Z" fill="#21211d" fill-rule="evenodd"/><path id="Fill_11" d="M57.52,13.83c-1.52,3.13-3.92,5.9-6.65,8.08-4.59,3.68-10.24,5.99-16.07,6.71-.39-1.74-.67-1.64-1.15-4.63-.67-4.22,1.09-7.96,4.88-10,5.09-2.75,11.69-3.46,17.13-1.14.01,0,.03.01.04.02.64.27,1.24.59,1.82.96" fill="#21211d" fill-rule="evenodd"/><path id="Stroke_15_Stroke_" d="M33.68,32.68c.08-.19.3-.28.49-.2l4.56,1.91c.19.08.28.3.2.49s-.3.28-.49.2l-4.56-1.91c-.19-.08-.28-.3-.2-.49Z" fill="#21211d" fill-rule="evenodd"/><path id="Stroke_17_Stroke_" d="M36.54,33.47c.19.07.29.29.22.48l-.66,1.71c-.07.19-.29.29-.48.22-.19-.07-.29-.29-.22-.48l.66-1.71c.07-.19.29-.29.48-.22Z" fill="#21211d" fill-rule="evenodd"/><g id="Group_37"><path id="Fill_35" d="M67.74,45.42s-10.36,5.24-21.38-5c-3.71-3.44-4.17-8.17-4.01-11.19.52-9.91,16.44-16.31,16.44-16.31,0,0-8.43-7.52-25.93-2.35-9.57,2.83-8.37,39.23-10.46,49.17-2.08,9.94,0,15.56,9.75,21.43,9.75,5.87,47.32,5.65,39.55-21.43-1.2-4.2-5.58-10.75-5.58-10.75,2.83-1.86,1.62-3.57,1.62-3.57Z" fill="#d5962f" fill-rule="evenodd"/></g><path id="Stroke_38" d="M65.98,48.99c.12.15.09.37-.06.49l-.07.06c-.06.04-.14.1-.25.18-.26.18-.57.38-.93.59-1.02.61-2.24,1.21-3.65,1.77-.64.25-1.3.49-1.99.72-.19.06-.38-.04-.44-.23-.06-.19.04-.38.23-.44.68-.22,1.32-.45,1.95-.7,1.38-.55,2.56-1.14,3.55-1.73.35-.2.64-.39.89-.56l.14-.1.15-.11c.15-.12.37-.09.49.06Z" fill="#21211d"/><path id="Stroke_40" d="M22.54,61.02c.16-.11.38-.08.49.08l.07.09s.05.06.08.1l.03.04c.15.19.34.4.55.62.61.65,1.33,1.3,2.17,1.9,1.74,1.26,3.72,2.17,5.93,2.55.19.03.32.22.29.41-.03.19-.22.32-.41.29-2.32-.41-4.4-1.35-6.23-2.68-.87-.63-1.63-1.31-2.26-1.99-.22-.24-.42-.46-.58-.66l-.07-.08c-.06-.08-.11-.14-.13-.17-.11-.16-.08-.38.08-.49Z" fill="#21211d"/><path id="Stroke_42" d="M27.04,23.76c.07-.18.27-.28.45-.21.18.07.28.27.21.45l-.04.11-.06.2s-.03.1-.05.15c-.11.39-.22.84-.33,1.36-.51,2.5-.66,5.35-.24,8.41.58,4.15,2.17,8.2,4.99,12,.16.22.33.43.49.65.12.15.09.37-.06.49-.15.12-.37.09-.49-.06-.17-.22-.34-.44-.51-.66-2.9-3.9-4.53-8.06-5.13-12.32-.44-3.14-.28-6.07.24-8.65.1-.47.2-.9.3-1.27l.04-.14c.02-.09.05-.17.07-.24l.07-.21s.02-.05.02-.07Z" fill="#21211d"/><path id="Stroke_44" d="M70.26,63.86c.1-.17.31-.23.48-.13.17.1.23.31.13.48l-.02.04s-.03.05-.05.09l-.02.04c-.08.13-.17.27-.29.44-.32.47-.71.98-1.19,1.54-1.35,1.59-3.05,3.17-5.15,4.65-1.83,1.29-3.87,2.43-6.15,3.4-.18.08-.39,0-.46-.19-.08-.18,0-.39.19-.46,2.23-.95,4.23-2.07,6.02-3.33,2.05-1.44,3.71-2.98,5.02-4.53.46-.54.84-1.04,1.14-1.48.09-.13.17-.25.23-.35l.09-.15s.02-.04.03-.05Z" fill="#21211d"/></g></g></g><g id="Expression"><g id="Expression_Wink"><g id="Group_18"><path id="Fill_1-4" d="M59.68,36.01h-1.37c-.22,0-.39-.18-.39-.4,0-.22.18-.4.4-.39h1.36s0,0,0,0c.29,0,.56-.13.73-.36.18-.23.23-.52.16-.81l-1.64-5.97c-.06-.21.07-.43.28-.49.21-.06.43.07.48.28l1.64,5.97c.14.52.04,1.07-.29,1.49-.33.43-.82.67-1.36.67" fill="#21211d" fill-rule="evenodd"/><path id="Fill_3-2" d="M70.71,25.66c-.07,0-.14-.02-.2-.05-4.28-2.49-7.88-.14-8.03-.04-.18.12-.43.07-.55-.11-.12-.18-.07-.43.11-.55.17-.11,4.15-2.74,8.87,0,.19.11.25.35.14.54-.07.13-.21.2-.34.2" fill="#21211d" fill-rule="evenodd"/><g id="Group_7"><g mask="url(#mask-2)"><path id="Fill_5" d="M71.6,29.03s-1.95,2.41-5.12,2.3c-1.34-.05-2.91-.55-4.63-1.89,0,0,1.68-1.93,4.47-2.11,1.48-.1,3.27.28,5.29,1.7" fill="#fff" fill-rule="evenodd"/></g></g><g id="Group_10"><g mask="url(#mask-3)"><path id="Fill_8" d="M71.6,29.03s-1.95,2.41-5.12,2.3c-.45-.54-.72-1.21-.75-1.96-.03-.75.19-1.46.58-2.03,1.48-.1,3.27.28,5.29,1.7" fill="#21211d" fill-rule="evenodd"/></g></g><g id="Group_13"><g mask="url(#mask-4)"><path id="Fill_11-2" d="M48.54,25.66c-.14,0-.27-.07-.34-.2-.11-.19-.05-.43.14-.54,4.72-2.75,8.7-.12,8.87,0,.18.12.23.37.11.55-.12.18-.37.23-.55.11-.15-.1-3.75-2.46-8.03.04-.06.04-.13.05-.2.05" fill="#21211d" fill-rule="evenodd"/></g></g><path id="Fill_14" d="M58.24,39.13c-1.57,0-2.41-1.15-2.64-1.8-.07-.21.04-.43.24-.5.2-.07.43.03.5.24.02.06.55,1.46,2.21,1.26.22-.03.41.13.44.35.03.22-.13.41-.34.44-.14.02-.28.02-.41.02" fill="#21211d" fill-rule="evenodd"/><path id="Fill_16" d="M50.74,31.87c-.15,0-.29-.09-.35-.24-.08-.19.02-.41.21-.49l3.91-1.56-3.77-1.59c-.19-.08-.28-.3-.2-.49.08-.19.3-.28.49-.2l4.6,1.95c.14.06.23.2.23.35,0,.15-.09.29-.24.34l-4.76,1.9s-.09.03-.14.03" fill="#21211d" fill-rule="evenodd"/></g></g></g><g id="Facial_Hair"><g id="Facial_Hair_None"><path id="Path_5_Copy" d="M53.13,35.8c1.28-.93,2.81-1.09,4.5-.5,1.74.61,2.93,1.14,3.53,3.09.13.41-.1.86-.52.98-.41.13-.86-.1-.98-.52-.46-1.49-1.3-1.63-2.55-2.07-1.22-.43-2.21-.32-3.06.29-.35.25-.84.18-1.1-.18-.25-.35-.18-.84.18-1.1Z" fill="#21211d" isolation="isolate" opacity="0"/></g></g></g></g></svg>