<?xml version="1.0" encoding="UTF-8"?><svg xmlns="http://www.w3.org/2000/svg" width="93" height="93" xmlns:xlink="http://www.w3.org/1999/xlink" viewBox="0 0 93 93"><defs><clipPath id="clippath"><rect x=".01" y=".02" width="92.98" height="92.98" rx="46.49" ry="46.49" fill="none"/></clipPath></defs><g id="Ebene_2"><circle cx="46.5" cy="46.5" r="46.5" fill="#ffcf06"/></g><g id="Ebene_1"><g clip-path="url(#clippath)"><g id="Master_Brandon_Mendoza_Blush"><g id="Group_13"><path id="Vector_2" d="M76.7,1.65H16.3C8.2,1.65,1.64,8.21,1.64,16.31v60.41c0,8.1,6.56,14.66,14.66,14.66h60.41c8.1,0,14.66-6.56,14.66-14.66V16.31c0-8.1-6.56-14.66-14.66-14.66Z" fill="#4803fe"/><path id="Vector_Stroke_" d="M27.26,23.63c2.79-.18,5.55.74,7.53,2.83,3.77,3.96,3.22,10.48-1.06,14.55-4.28,4.07-10.81,4.29-14.58.32-3.77-3.96-3.22-10.48,1.06-14.55,2.03-1.93,4.55-2.99,7.05-3.15ZM33.97,27.24c-1.73-1.82-4.15-2.65-6.64-2.48h0c-2.23.15-4.51,1.09-6.35,2.85h0c-3.91,3.72-4.29,9.51-1.02,12.95,3.27,3.44,9.08,3.35,12.99-.36,3.91-3.71,4.29-9.51,1.02-12.95h0Z" fill="#000002" fill-rule="evenodd"/><path id="Vector_Stroke__2" d="M66.23,24.75c-2.49-.16-4.91.66-6.64,2.48h0c-3.27,3.44-2.89,9.24,1.02,12.95,3.91,3.71,9.72,3.8,12.99.36,3.27-3.44,2.89-9.24-1.02-12.95h0c-1.84-1.75-4.12-2.7-6.35-2.85h0ZM66.3,23.63c-2.79-.18-5.55.74-7.53,2.83-3.77,3.96-3.22,10.48,1.06,14.55,4.28,4.07,10.81,4.29,14.58.32,3.77-3.96,3.22-10.48-1.06-14.55-2.03-1.93-4.55-2.99-7.05-3.15ZM59.18,26.85l-.41-.39.41.39Z" fill="#000002" fill-rule="evenodd"/><path id="Vector_Stroke__3" d="M65.19,25.63c-1.83-.12-3.63.49-4.92,1.84h0c-2.44,2.57-2.12,6.84.72,9.55,2.85,2.71,7.13,2.81,9.57.24,2.44-2.57,2.12-6.84-.72-9.55l.02-.02-.02.02c-1.26-1.22-2.91-1.96-4.65-2.09ZM69.88,27.67c-1.27-1.23-2.93-1.97-4.69-2.1h0c-1.85-.12-3.67.49-4.96,1.86-2.47,2.59-2.14,6.9.73,9.63,2.86,2.72,7.19,2.84,9.65.24,2.47-2.59,2.14-6.9-.72-9.63Z" fill="#000002" fill-rule="evenodd"/><path id="Vector_3" d="M20.6,25.49c-4.09,3.89-4.56,10.05-1.04,13.75,3.52,3.7,9.69,3.55,13.78-.34,4.09-3.89,4.56-10.05,1.04-13.75-1.86-1.95-4.45-2.83-7.08-2.66-2.36.15-4.76,1.16-6.7,3Z" fill="#f0549e"/><path id="Vector_Stroke__4" d="M27.83,22.5c2.78-.18,5.55.74,7.53,2.83h0c3.77,3.96,3.22,10.48-1.06,14.55-4.28,4.07-10.81,4.29-14.58.32-3.77-3.96-3.22-10.48,1.06-14.55h0c2.03-1.93,4.55-2.99,7.05-3.15ZM34.54,26.1c-1.73-1.82-4.15-2.65-6.64-2.48h0c-2.23.14-4.51,1.09-6.35,2.85M34.54,26.1c3.27,3.44,2.89,9.24-1.02,12.95-3.91,3.71-9.72,3.8-12.99.36-3.27-3.44-2.89-9.24,1.02-12.95" fill="#ffcf06" fill-rule="evenodd"/><path id="Vector_4" d="M23.16,26.53c-2.85,2.71-3.18,7.01-.72,9.59,2.45,2.58,6.76,2.47,9.61-.24s3.18-7.01.72-9.59c-1.29-1.36-3.1-1.97-4.94-1.85-1.75.13-3.41.87-4.67,2.09Z" fill="#fff"/><path id="Vector_5" d="M30.19,30.32c-.54.51-.6,1.32-.14,1.81.46.49,1.27.46,1.81-.05s.6-1.32.14-1.81c-.12-.12-.27-.22-.43-.28-.16-.06-.33-.08-.5-.07-.33.02-.64.16-.88.39h0Z" fill="#000002"/><path id="Vector_6" d="M72.97,25.49c4.09,3.89,4.56,10.05,1.04,13.75-3.52,3.7-9.69,3.55-13.78-.34-4.09-3.89-4.56-10.05-1.04-13.75,1.86-1.95,4.45-2.83,7.08-2.66,2.36.15,4.77,1.16,6.7,3Z" fill="#f0549e"/><path id="Vector_Stroke__5" d="M66.8,23.62c-2.49-.16-4.91.66-6.64,2.48h0c-3.27,3.44-2.89,9.24,1.02,12.95,3.91,3.71,9.72,3.8,12.99.36,3.27-3.44,2.89-9.24-1.02-12.95h0c-1.84-1.75-4.12-2.7-6.35-2.85h0ZM66.87,22.5c-2.78-.18-5.55.74-7.53,2.83l7.53-2.83ZM66.87,22.5c2.5.16,5.02,1.22,7.05,3.15,4.28,4.07,4.83,10.58,1.06,14.55-3.77,3.96-10.3,3.74-14.58-.32-4.28-4.07-4.83-10.58-1.06-14.55" fill="#ffcf06" fill-rule="evenodd"/><path id="Vector_7" d="M70.4,26.53c2.85,2.71,3.18,7.01.72,9.59-2.45,2.58-6.76,2.47-9.61-.24-2.85-2.71-3.18-7.01-.72-9.59,1.29-1.36,3.1-1.97,4.94-1.85,1.75.13,3.41.87,4.67,2.09Z" fill="#fff"/><path id="Vector_8" d="M62.99,30.32c.54.51.6,1.32.14,1.81-.46.49-1.27.46-1.81-.05-.54-.51-.6-1.32-.14-1.81.12-.12.27-.22.43-.28.16-.06.33-.08.5-.07.33.02.64.16.88.39h0Z" fill="#000002"/><path id="Vector_9" d="M25.41,30.63c-1.96-.64-3.98-.98-5.84-.98v.85-.85c-1.97,0-3.76.38-5.16,1.09-1.64.84-2.72,2.1-3.13,3.66-.58,2.19.25,4.61,2.32,6.82,1.85,1.97,4.55,3.61,7.59,4.6,1.96.64,3.98.98,5.84.98,1.97,0,3.76-.38,5.16-1.09,1.64-.84,2.72-2.1,3.13-3.66.58-2.19-.25-4.61-2.32-6.82-1.85-1.97-4.55-3.61-7.59-4.6Z" fill="#4803fe"/><path id="Vector_10" d="M81.72,34.4c-.41-1.56-1.49-2.83-3.13-3.66-1.4-.71-3.19-1.09-5.16-1.09-1.86,0-3.88.34-5.84.98-3.04.99-5.73,2.63-7.59,4.6-2.08,2.21-2.9,4.64-2.32,6.82.41,1.56,1.49,2.83,3.13,3.66,1.4.71,3.19,1.09,5.16,1.09,1.86,0,3.88-.34,5.84-.98,3.04-.99,5.73-2.63,7.59-4.6,2.07-2.21,2.9-4.64,2.32-6.82Z" fill="#4803fe"/><path id="Vector_11" d="M33.59,41.93c1.15-3.21-2.53-7.46-8.21-9.49-5.68-2.03-11.22-1.07-12.36,2.14-1.15,3.21,2.53,7.46,8.21,9.49,5.68,2.03,11.22,1.07,12.36-2.14Z" fill="#f0549e"/><path id="Vector_12" d="M71.79,44.02c5.68-2.03,9.36-6.28,8.21-9.49-1.15-3.21-6.68-4.17-12.36-2.14-5.68,2.03-9.36,6.28-8.21,9.49,1.15,3.21,6.68,4.17,12.36,2.14Z" fill="#f0549e"/><path id="Vector_13" d="M42.79,36.38l-2.81,5.41,13.04.5-3.04-5.67-7.19-.24Z" fill="#ffcf06"/><path id="Vector_14" d="M9.43,29.15l-7.79,4.57v37.37c6,5.48,14.08,9.56,24.87,9.56C-4.91,72.69,9.43,29.15,9.43,29.15Z" fill="#ffcf06"/><path id="Vector_15" d="M65.7,80.66c11.14,0,19.49-4.35,25.67-10.09v-36.85l-7.77-4.56s13.53,43.54-17.9,51.51Z" fill="#ffcf06"/><path id="Vector_16" d="M9.65,8.41c-2.26,2.72-5.07,5.06-8.01,7.02v13.94c5.98-4.71,11.47-11.83,8.01-20.97Z" fill="#ffcf06"/><path id="Vector_17" d="M83.26,8.41c-3.48,9.18,2.09,16.34,8.11,21.04v-13.96c-2.97-1.98-5.82-4.33-8.11-7.09Z" fill="#ffcf06"/><path id="Vector_18" d="M77.18,91.38c-5.22-1.05-9.91-2.98-13.73-4.98-9.74-5.12-16.18-11.86-16.25-11.93l-.37-.39-.4.35c-.08.07-7.71,6.66-18.48,11.71-4.29,2.01-9.47,3.94-15.07,4.99.87.17,1.75.25,2.64.25h61.66Z" fill="#f0549e"/><path id="Vector_19" d="M75.72,92.41s.06.01.09,0c.09,0,.18-.03.25-.09.07-.06.11-.14.12-.23.01-.09-.01-.18-.06-.25-.05-.07-.13-.13-.22-.15l-.22-.05h-.03s-.01,0-.01,0h-.03s-.01,0-.01,0h-.02s0,0,0,0h-.02s0,0,0,0h-.02c-.3-.08-.6-.15-.91-.23h-2.64c1.24.38,2.51.73,3.75,1.02Z" fill="#ffcf06"/><path id="Vector_20" d="M16.81,91.38c.04.05.1.09.17.11s.14.02.2,0l.43-.12h-.8Z" fill="#ffcf06"/><path id="Vector_21" d="M38.92,81.44c.07,0,.14-.02.2-.06,1.13-.73,2.25-1.5,3.34-2.27.06-.05.11-.11.14-.18.02-.07.02-.15,0-.23-.02-.07-.07-.14-.13-.18-.06-.05-.14-.07-.22-.07-.08,0-.15.02-.21.07-.27.19-.56.39-.85.6l-.03.02h-.01s-.01.02-.01.02h-.01s0,.02,0,.02l-.04.03c-.7.48-1.45.99-2.26,1.51h0s0,0,0,0h-.01s0,.01,0,.01h-.01s-.01.02-.01.02c-.07.04-.12.11-.15.18-.03.07-.03.16,0,.23.02.08.07.14.13.19.06.05.14.07.22.07h-.02Z" fill="#ffcf06"/><path id="Vector_22" d="M31.99,85.52c.06,0,.12-.01.17-.04,1.17-.62,2.36-1.28,3.52-1.97.04-.02.08-.06.11-.1.03-.04.05-.08.06-.13.01-.05.02-.1,0-.14,0-.05-.02-.09-.05-.14-.02-.04-.06-.08-.1-.11-.04-.03-.08-.05-.13-.06-.05-.01-.1-.02-.14,0-.05,0-.09.02-.14.05-1.11.65-2.27,1.31-3.5,1.96-.07.04-.13.1-.16.18-.03.07-.04.16-.02.24s.06.15.13.2c.06.05.14.08.22.08h0Z" fill="#ffcf06"/><path id="Vector_23" d="M24.71,88.93s.09,0,.14-.03c1.22-.5,2.47-1.04,3.7-1.62.08-.04.14-.1.17-.17.04-.07.05-.16.03-.24-.02-.08-.06-.15-.13-.21-.07-.05-.15-.08-.23-.08-.05,0-.11.01-.15.03l-.31.14h-.03s-.02.02-.02.02h0s-.02.01-.02.01h-.01s-.01.01-.01.01h-.01s-.01.01-.01.01h-.02s0,0,0,0h-.02s0,0,0,0c-1.03.48-2.09.94-3.18,1.38-.08.03-.14.09-.18.17-.04.07-.05.16-.04.25.02.08.06.16.13.21.07.05.15.08.23.08h0Z" fill="#ffcf06"/><path id="Vector_24" d="M21.06,90.32c.08-.03.15-.08.2-.16.04-.07.06-.16.05-.25s-.06-.16-.13-.22c-.07-.06-.15-.09-.24-.09-.04,0-.08,0-.12.02-.72.24-1.44.47-2.17.69-.55.16-1.11.32-1.66.47-.09.03-.17.09-.22.17-.05.08-.06.18-.04.28.01.05.04.1.07.14h.81c1.13-.31,2.29-.66,3.44-1.06Z" fill="#ffcf06"/><path id="Vector_25" d="M64.29,88.27c1.23.6,2.47,1.16,3.7,1.67.04.02.09.03.14.03.08,0,.17-.03.23-.08.07-.05.11-.13.13-.21.02-.08,0-.17-.04-.24-.04-.07-.11-.13-.18-.17-.13-.05-.26-.11-.38-.16h-.03s-.09-.05-.09-.05h-.02s0-.01,0-.01h-.02s-.01-.01-.01-.01h-.01s-.01-.01-.01-.01h-.01s-.02-.01-.02-.01h-.01s-.02-.01-.02-.01h0l-.12-.05h-.02s-.02-.02-.02-.02c-.67-.29-1.33-.58-1.97-.89h-.02s-.02-.02-.02-.02h-.02s-.07-.04-.07-.04h-.01s-.01-.01-.01-.01h-.01s-.01-.01-.01-.01h-.01s-.01-.01-.01-.01h-.01s-.02-.01-.02-.01h-.01s-.02-.01-.02-.01h0s-.02-.02-.02-.02c-.18-.09-.35-.17-.53-.26-.05-.02-.11-.04-.16-.04-.08,0-.16.03-.23.08-.06.05-.11.12-.13.2-.02.08,0,.17.03.24.04.07.09.14.17.17h-.03Z" fill="#ffcf06"/><path id="Vector_26" d="M57.27,84.24c1.14.74,2.3,1.46,3.45,2.12.06.03.12.05.18.05.08,0,.16-.02.23-.07.07-.05.11-.12.13-.2.02-.08.01-.16-.02-.24-.03-.08-.09-.14-.16-.18-.63-.36-1.25-.73-1.84-1.1h-.02s0-.01,0-.01l-.05-.03h-.01s-.01-.01-.01-.01h-.01s-.01-.02-.01-.02h-.01s0-.01,0-.01l-.02-.02h-.02s-.02-.03-.02-.03h-.02s-.05-.05-.05-.05c-.43-.27-.85-.54-1.26-.81-.06-.04-.13-.06-.2-.06-.08,0-.16.03-.22.07-.06.05-.11.11-.13.19-.02.08-.02.16,0,.23.03.07.08.14.14.18h-.01Z" fill="#ffcf06"/><path id="Vector_27" d="M71.91,90.61c-.09,0-.17.03-.24.09-.07.06-.11.14-.12.22-.01.09,0,.17.05.25.05.07.12.13.2.16l.16.05h2.64c-.87-.23-1.73-.48-2.57-.75-.04-.01-.07-.02-.11-.02h0Z" fill="#ffcf06"/><path id="Vector_28" d="M53.95,81.93s.08.05.13.06c.05.01.1.01.14,0,.05,0,.09-.02.13-.05.04-.02.08-.06.11-.1.03-.04.05-.08.06-.13.01-.05.01-.1,0-.14,0-.05-.02-.09-.05-.13-.02-.04-.06-.08-.1-.11-.12-.09-.25-.18-.37-.27h-.01s0-.01,0-.01h0s0-.01,0-.01h0s-.01-.01-.01-.01h-.02c-1-.76-1.91-1.48-2.72-2.15-.07-.05-.15-.09-.23-.09-.08,0-.15.02-.21.07-.06.04-.11.1-.13.18-.03.07-.03.15,0,.22.02.07.06.14.12.19,1.03.85,2.1,1.69,3.18,2.49Z" fill="#ffcf06"/><path id="Vector_29" d="M45.47,76.77c.08,0,.16-.03.23-.08.44-.35.8-.64,1.06-.85.24.24.56.55.97.93.07.06.16.09.26.09.09,0,.18-.05.25-.12.06-.07.1-.16.1-.26,0-.09-.04-.19-.11-.25-.07-.06-.13-.12-.19-.18l-.03-.02h-.01s0-.02,0-.02l-.02-.02s0,0,0,0h0s0-.01,0-.01h0s0-.01,0-.01h-.01s0-.02-.01-.02h-.01c-.49-.48-.82-.81-.97-.96l-.06-.06h0s0,0,0,0h0s0,.01,0,.01c-.02.01-.04.03-.06.05-.14.12-.43.36-.85.7h-.01s0,0,0,0h-.01s-.01.02-.01.02c-.17.14-.36.29-.57.45-.06.05-.1.11-.12.19-.02.07-.02.15,0,.22.03.07.07.13.13.18.06.04.14.07.21.07l-.09-.04Z" fill="#ffcf06"/><path id="Vector_30" d="M48.32,42.54h-3.5l-2.01-6.08s-.02-.06-.01-.09c0-.03,0-.06.02-.09.01-.03.03-.05.06-.07.02-.02.05-.04.08-.05.03,0,.06-.01.09-.01s.06.01.09.03c.03.01.05.03.07.06.02.02.04.05.04.08l1.91,5.76h2.82l1.84-5.45s.02-.06.04-.08c.02-.02.05-.04.07-.06.03-.01.06-.02.09-.03.03,0,.06,0,.09.01.03.01.06.03.08.05.02.02.04.05.06.08.01.03.02.06.02.09,0,.03,0,.06-.01.09l-1.95,5.77Z" fill="#f0549e"/><path id="Vector_31" d="M39.98,41.79l2.41,1.65,7.42.3,3.2-1.45-13.04-.5Z" fill="#000002"/><path id="Vector_32" d="M78.06,22.46s-10.89-7.89-21.19-6.85c-10.3,1.03-1.34-11.58,10.6-7.92,11.93,3.66,10.6,14.77,10.6,14.77Z" fill="#f0549e"/><path id="Vector_33" d="M78.36,23.13l-.52-.37s-2.75-1.98-6.68-3.78c-3.62-1.66-9.02-3.53-14.25-3-3.08.31-4.24-.58-4.67-1.39-.54-1.01-.2-2.37.93-3.75,1.28-1.55,3.34-2.85,5.67-3.57,2.8-.86,5.82-.85,8.74.05,2.78.85,5.08,2.18,6.85,3.95,1.42,1.43,2.5,3.15,3.17,5.05,1.17,3.28.86,6.07.84,6.19l-.07.63ZM58.75,15.14c4.77,0,9.47,1.66,12.74,3.16,2.17,1,4.25,2.16,6.24,3.47.03-1.78-.25-3.55-.85-5.23-1.5-4.16-4.7-7.02-9.52-8.5-6.39-1.96-11.64.89-13.61,3.28-.91,1.11-1.23,2.2-.85,2.92.45.85,1.85,1.21,3.94.99.64-.06,1.28-.09,1.92-.09h0Z" fill="#f0549e"/><path id="Vector_34" d="M57.37,8.25s-.06,0-.09.02c-.91.41-1.77.94-2.55,1.57-.04.04-.07.09-.08.15,0,.06.01.12.05.16.04.05.09.07.15.08.06,0,.12,0,.16-.04.75-.6,1.57-1.11,2.45-1.5.05-.02.09-.06.11-.1.02-.05.03-.1.02-.15-.01-.05-.04-.1-.08-.13-.04-.03-.09-.05-.14-.05h0ZM52.98,11.97s-.08.01-.12.03c-.04.02-.06.05-.08.09-.57,1.08-.58,2.1.12,2.77.04.04.1.06.15.06.04,0,.09-.01.13-.04.04-.03.07-.06.08-.1.02-.04.02-.09.01-.13s-.03-.08-.06-.11c-.71-.67-.33-1.69-.04-2.24.03-.05.03-.11.02-.17-.02-.06-.06-.1-.11-.13-.03-.02-.07-.03-.11-.03h0ZM58.7,15.07c-.64,0-1.27.03-1.88.1-.38.04-.75.06-1.09.06h-.02c-.06,0-.12.02-.16.07-.04.04-.07.1-.07.16s.02.12.07.16c.04.04.1.07.16.07h.02c.38,0,.76-.02,1.13-.06h.13c.57-.05,1.14-.08,1.71-.08.06,0,.12-.02.16-.07s.07-.1.07-.16-.02-.12-.07-.16c-.04-.04-.1-.07-.16-.07h0ZM61.72,15.27c-.06,0-.11.02-.15.06-.04.04-.07.09-.07.15,0,.06.01.11.05.16.04.04.09.07.14.08.99.13,1.97.32,2.94.56.06.01.12,0,.17-.03.05-.03.08-.08.1-.14.01-.06,0-.12-.02-.17-.03-.05-.08-.09-.13-.1-.99-.24-1.98-.43-2.99-.57h-.03ZM67.58,16.68c-.05,0-.1.02-.15.05-.04.03-.07.08-.08.13,0,.05,0,.11.03.15.03.05.07.08.12.1l.06.02h.02s.02.01.02.01h.26s.01,0,.01,0h.04s.01.02.01.02c.25.09.49.18.73.27l.04.02h.02s.02.01.02.01h.01s0,0,0,0h.2s0,0,0,0h.11s.01.02.01.02c.37.15.74.3,1.09.45.03.01.06.02.09.02.05,0,.1-.02.14-.05.04-.03.07-.08.08-.13.01-.05,0-.1-.02-.15-.02-.05-.06-.08-.11-.1-.95-.41-1.9-.77-2.83-1.09-.02,0-.05-.01-.07-.01l.12.25ZM73.11,19.04c-.05,0-.1.02-.14.05-.04.03-.07.07-.08.12-.01.05,0,.1.01.15.02.05.06.08.1.11.36.19.71.37,1.04.55h.03s0,.01,0,.01h.02s0,.01,0,.01h.01s0,0,0,0h.04s0,0,0,0h.03s0,0,0,0h.01s0,0,0,0h.02s.02.02.02.02h.02s0,0,0,0h.03s0,.01,0,.01h.02s0,.01,0,.01h.02c.4.23.77.45,1.11.65.03.02.07.03.11.03.05,0,.1-.02.14-.05.04-.03.07-.07.08-.12.01-.05,0-.1,0-.14-.02-.05-.05-.08-.09-.11-.86-.51-1.75-1-2.65-1.46-.03-.02-.07-.03-.1-.02l.16.15ZM77.73,19.16h-.03s-.06.01-.08.03c-.03.02-.05.04-.07.06-.02.02-.03.05-.04.08,0,.03,0,.06,0,.09.13.91.18,1.83.13,2.75.22.15.35.24.4.28.02-.03.03-.06.03-.1.01-.18.04-.55.03-1.06h0v-.03h0v-.02h0v-.02h0v-.02h0v-.02h0c-.01-.4-.04-.87-.1-1.38v-.03h0v-.02h0v-.02h0v-.08h0v-.02s0,0,0-.01h0s0,0,0,0h0v-.03s0-.05,0-.07c0-.05-.03-.1-.08-.14-.04-.04-.09-.05-.15-.05l-.04-.14ZM75.74,13.66s-.08.01-.12.04c-.05.03-.09.08-.1.14-.01.06,0,.12.03.17.52.82.94,1.69,1.26,2.6.02.04.04.08.08.11s.08.04.13.04c.03,0,.05,0,.07-.01.03,0,.05-.03.08-.05.02-.02.04-.04.05-.07.01-.03.02-.06.02-.09,0-.03,0-.06-.01-.09-.33-.94-.77-1.84-1.31-2.69-.02-.03-.05-.06-.08-.08-.03-.02-.07-.03-.11-.03h0ZM71.58,9.56s-.1.02-.14.05c-.04.03-.07.07-.08.12-.01.05-.01.1,0,.14.02.05.05.08.09.11.82.51,1.58,1.11,2.27,1.79.04.04.1.06.16.06.06,0,.11-.03.16-.07.04-.04.06-.1.06-.16,0-.06-.02-.12-.06-.16-.14-.14-.28-.27-.43-.41l-.03-.03-.02-.02h0s-.02-.02-.02-.02h0l-.02-.02h0s0,0,0,0l-.02-.02h0s-.01-.02-.01-.02h-.01l-.02-.02h0s0,0,0,0h-.02s0-.02,0-.02h-.02s0-.02,0-.02h-.02s0-.01,0-.01h-.02s0-.01,0-.01h0s-.02-.02-.02-.02h0s0,0,0,0h0s-.01-.02-.01-.02h-.02s0-.01,0-.01h-.02s0-.01,0-.01h-.02s0-.01,0-.01h0s-.02-.02-.02-.02h0s0,0,0,0h-.01s0-.01,0-.01h-.02s0-.01,0-.01h-.01s0-.01,0-.01h-.02s0-.02,0-.02h-.03s0-.02,0-.02h-.02s0-.02,0-.02h0s-.01-.01-.02-.02h-.03s0-.01,0-.01h-.03s0-.01,0-.01h0s-.01-.01-.01-.01h0s0,0,0,0h0l-.02-.02h0l-.02-.02h-.03s0-.02,0-.02h0l-.02-.02h0l-.02-.02h0s0,0,0,0l-.03-.02-.03-.02h0l-.02-.02h0s-.03-.02-.03-.02h0s-.02-.02-.02-.02h0s0,0,0,0l-.02-.02h0s-.03-.02-.03-.02h0s-.03-.02-.03-.02l-.03-.02h0l-.02-.02h0s-.03-.02-.03-.02h0l-.02-.02h0s-.03-.02-.03-.02h0s-.02-.02-.02-.02h-.01s-.02-.01-.02-.02h0s-.02-.02-.02-.02h-.03s0-.01,0-.01h-.03s0-.01,0-.01h-.01s-.01-.01-.01-.01h-.03s0-.01,0-.01c0,0,0,0,0,0h-.02s0,0,0,0h-.02s0,0,0,0h-.03s0,0,0,0h-.03s0,0,0,0h-.03s0,0,0,0h-.01s0,0,0,0h0s-.08-.03-.12-.03l-.28-.46ZM66.13,7.34c-.06,0-.11.02-.15.06-.04.04-.07.09-.07.14s0,.11.04.16c.03.04.08.08.13.09.41.09.84.2,1.25.33.53.16,1.05.34,1.54.54.03.01.06.02.09.02.05,0,.1-.02.14-.05.04-.03.07-.08.08-.13s0-.1-.02-.15c-.02-.05-.06-.08-.11-.1h-.07s0,0,0,0h-.02c-.39-.16-.8-.31-1.23-.44h-.02s-.02-.02-.02-.02h-.13c-.13-.04-.26-.08-.38-.11h-.03s-.02,0-.02,0h-.02s0,0,0,0c-.27-.07-.53-.14-.8-.19-.01,0-.03,0-.05,0l-.11-.11ZM63.08,7.02h-.34c-.79.02-1.57.1-2.35.25h-.17l-.12.02c-.05.01-.1.04-.13.09-.03.04-.05.1-.04.16,0,.06.03.11.07.14.04.04.09.06.15.06.02,0,.03,0,.05,0,.95-.2,1.91-.31,2.88-.31h.12c.06,0,.12-.02.16-.07.04-.04.07-.1.07-.16s-.02-.12-.07-.16c-.04-.04-.1-.07-.16-.07h-.12v.04Z" fill="#ffcf06"/><path id="Vector_35" d="M14.74,22.46s10.89-7.89,21.19-6.85,1.34-11.58-10.6-7.92c-11.93,3.66-10.6,14.77-10.6,14.77Z" fill="#f0549e"/><path id="Vector_36" d="M14.45,23.13l-.08-.63c-.01-.12-.33-2.9.84-6.19.67-1.9,1.75-3.62,3.17-5.05,1.76-1.77,4.06-3.09,6.85-3.95,2.92-.89,5.94-.91,8.74-.05,2.32.72,4.39,2.02,5.67,3.57,1.13,1.38,1.47,2.74.93,3.75-.43.8-1.59,1.7-4.67,1.39-5.23-.53-10.64,1.34-14.25,3-3.93,1.81-6.66,3.76-6.68,3.78l-.51.37ZM29.72,7.39c-1.45,0-2.89.22-4.27.65-4.82,1.48-8.02,4.34-9.52,8.5-.6,1.68-.88,3.45-.85,5.23,1.99-1.31,4.08-2.47,6.24-3.47,3.7-1.7,9.25-3.62,14.65-3.07,2.09.21,3.48-.14,3.94-.99.38-.72.07-1.81-.85-2.92-1.51-1.83-4.95-3.94-9.34-3.94Z" fill="#f0549e"/><path id="Vector_37" d="M23.96,8.17s-.06,0-.08.02c-.45.17-.87.36-1.28.56h-.02s-.01.02-.01.02h-.02s0,0,0,0h-.03s0,0,0,0h-.01s0,0,0,0h-.12s0,0,0,.01h-.01s0,0,0,0h-.02s0,0,0,0h-.01s-.02.02-.02.02h-.02c-.32.18-.62.35-.91.53-.04.03-.07.06-.09.11-.02.05-.02.1,0,.14.01.05.04.09.08.12.04.03.09.05.14.05.04,0,.08-.01.12-.03.83-.51,1.7-.94,2.61-1.3.05-.02.09-.06.11-.1.02-.05.03-.1.02-.15,0-.05-.04-.1-.08-.13-.04-.03-.09-.05-.14-.05l-.15.16ZM18.99,11.29c-.06,0-.11.02-.16.06h0l-.04.04h0s0,0,0,0h0v.02c-.06.06-.12.12-.17.17-.19.19-.37.39-.54.58h-.01v.02s-.04.05-.06.07h0v.02l-.04.05h0v.02h0s-.02.03-.02.03v.02s-.01,0-.01,0l-.02.02s0,0,0,0h0v.02s0,0,0,0l-.04.05h0v.02c-.21.27-.4.55-.58.83-.02.02-.03.05-.03.08,0,.03,0,.06,0,.09,0,.03.02.06.03.08.02.02.04.04.06.06.04.02.08.04.12.04.04,0,.07,0,.11-.03.03-.02.06-.04.08-.08.52-.81,1.14-1.56,1.83-2.23.03-.03.05-.07.06-.11,0-.04,0-.09-.01-.13-.02-.04-.05-.08-.08-.1s-.08-.04-.13-.04l-.34.31ZM15.81,16.19s-.09.01-.13.04c-.04.03-.07.06-.08.11-.27.74-.48,1.5-.63,2.28h0v.02h0v.02h0v.04s0,0,0,0v.04h0s0,.01,0,.01h0v.02h0v.04c-.02.13-.04.26-.06.39,0,.03,0,.06,0,.09,0,.03.02.06.04.08.02.02.04.04.06.06s.05.03.08.03h.03c.05,0,.11-.02.15-.05.04-.04.07-.08.08-.14.14-.96.38-1.9.71-2.81.01-.03.02-.07.01-.11,0-.04-.02-.07-.04-.1-.02-.03-.05-.05-.08-.07-.03-.02-.07-.03-.1-.03l-.04.03ZM16.94,20.55s-.08.01-.11.03c-1.04.62-1.77,1.11-2.12,1.35.01.34.04.52.04.52,0,0,.15-.11.42-.29.17-.12.39-.26.66-.43h.01s.01-.02.01-.02h.02s.03-.03.03-.03c.32-.2.69-.43,1.12-.69.04-.03.08-.06.09-.11.02-.05.02-.1,0-.14-.01-.05-.04-.09-.08-.12-.04-.03-.09-.05-.14-.05l.04-.04ZM22.3,17.81s-.06,0-.09.02c-.91.39-1.83.83-2.73,1.29-.04.02-.08.06-.1.11s-.03.1-.01.15c.01.05.04.09.08.12.04.03.09.05.14.05.04,0,.07,0,.1-.02.83-.42,1.74-.86,2.71-1.28.05-.02.09-.06.11-.1.02-.05.03-.1.02-.15-.01-.05-.04-.1-.08-.13-.04-.03-.09-.05-.14-.05h0ZM27.99,15.85s-.04,0-.05,0c-.95.24-1.93.53-2.91.87-.05.02-.09.05-.12.1s-.04.1-.03.15c0,.05.04.1.08.13.04.03.09.05.14.05.02,0,.05,0,.07-.01.86-.3,1.75-.57,2.66-.8h.03s.01,0,.01,0h.02s0,0,0,0h.11c.05-.01.1-.04.13-.09.03-.05.05-.1.04-.16s-.03-.11-.08-.14c-.04-.04-.1-.06-.15-.06l.03-.04ZM33.97,15.06c-1.02,0-2.04.08-3.05.22-.06,0-.11.04-.15.08-.04.04-.05.1-.05.16,0,.06.03.11.07.15.04.04.1.06.16.06.01,0,.02,0,.03,0,.99-.14,1.99-.21,2.99-.21.06,0,.12-.02.16-.07.04-.04.07-.1.07-.16s-.02-.12-.07-.16c-.04-.04-.1-.07-.16-.07h0ZM39.67,14.54c-.05,0-.1.02-.14.05-.49.41-1.33.62-2.46.62h-.1c-.06,0-.12.02-.16.07-.04.04-.07.1-.07.16s.02.12.07.16.1.07.16.07h1.56c.55-.12.97-.33,1.28-.58.04-.03.06-.07.07-.11.01-.04,0-.09,0-.14-.02-.04-.04-.08-.08-.11-.04-.03-.08-.04-.13-.04v-.15ZM38.03,9.86s-.09.01-.13.04c-.04.03-.07.06-.08.11s-.02.09,0,.13c.01.04.04.08.07.11.82.68,1.44,1.42,1.8,2.13.02.04.05.07.08.09.04.02.08.03.12.03.03,0,.07,0,.1-.02.03-.01.05-.03.07-.05.02-.02.03-.05.04-.08,0-.03.01-.06.01-.09,0-.03,0-.06-.02-.08h0s0,0,0,0h0s0-.01,0-.01h0s0,0,0,0h0s0-.01,0-.02h0v-.02h0v-.02h0s0-.03,0-.03c-.39-.7-1.01-1.42-1.82-2.1-.04-.03-.09-.05-.14-.05l-.09-.08ZM32.77,7.35c-.05,0-.11.02-.15.06-.04.04-.07.09-.07.14s0,.11.04.15c.03.04.08.08.13.09.94.21,1.86.52,2.74.94.03.01.06.02.1.02.05,0,.1-.01.15-.05.04-.03.07-.08.08-.13s0-.11-.02-.15c-.02-.05-.06-.08-.11-.1-.69-.32-1.4-.59-2.13-.79h-.42s-.05,0-.05,0h-.23s-.03,0-.05,0v-.17ZM29.72,7.01h-.63c-.49.02-.98.07-1.46.14h-.3s0,0,0,0c-.19.03-.38.07-.57.11-.05.01-.1.04-.13.09s-.05.1-.04.15c0,.05.03.11.07.14.04.04.09.06.15.06.02,0,.03,0,.05,0,.95-.2,1.91-.3,2.88-.3h.12c.06,0,.12-.02.16-.07.04-.04.07-.1.07-.16s-.02-.12-.07-.16c-.04-.04-.1-.07-.16-.07h-.12v.06Z" fill="#ffcf06"/><path id="Vector_38" d="M59.3,44.04c-.66-.6-1.52-.91-2.41-.87-.89.04-1.72.43-2.32,1.09-1.88,2.07-4.36,3.15-7.37,3.21-1.36.02-2.72-.16-4.03-.52-.41-.21-.86-.34-1.32-.37-.46-.03-.92.03-1.36.19-.44.15-.83.4-1.17.71-.34.32-.61.7-.79,1.12-.18.42-.28.88-.28,1.34,0,.46.1.92.28,1.34.18.42.45.8.79,1.12.34.31.74.56,1.17.71h0c.29.11,2.92,1.04,6.45,1.04h.08c4.98-.02,9.3-1.89,12.49-5.4.59-.66.9-1.52.86-2.41-.04-.88-.44-1.72-1.09-2.31h0Z" fill="#f0549e"/><path id="Vector_39" d="M46.95,51.43c-3.11,0-5.41-.83-5.51-.87-.15-.06-.26-.17-.33-.32-.06-.15-.07-.31-.01-.46.05-.15.17-.27.31-.34.14-.07.31-.08.46-.03,1.64.53,3.36.8,5.09.79h.1c3.88-.03,7.09-1.41,9.54-4.1.05-.06.12-.11.19-.14s.15-.05.23-.06.16,0,.24.04c.08.03.15.07.2.12.06.05.11.12.14.19.03.07.05.15.06.23s0,.16-.04.24c-.03.08-.07.15-.12.2-2.66,2.93-6.29,4.49-10.48,4.5h-.07Z" fill="#000002"/></g></g></g></g></svg>