<?xml version="1.0" encoding="UTF-8"?><svg id="Ebene_1" xmlns="http://www.w3.org/2000/svg" width="93" height="93" xmlns:xlink="http://www.w3.org/1999/xlink" viewBox="0 0 93 93"><defs><clipPath id="clippath"><rect x="0" y=".22" width="92.6" height="92.6" rx="46.3" ry="46.3" fill="none"/></clipPath></defs><g clip-path="url(#clippath)"><g id="Master_Brandon_Mendoza_Danger"><g id="Group_9"><path id="Vector" d="M77.23,92.82H15.38C6.9,92.82,0,85.92,0,77.45V15.6C0,7.12,6.9.22,15.38.22h61.85c8.48,0,15.38,6.9,15.38,15.38v61.85c0,8.48-6.9,15.38-15.38,15.38ZM15.38,5.09c-2.78,0-5.45,1.11-7.42,3.08-1.97,1.97-3.08,4.64-3.08,7.42v61.85c0,2.78,1.11,5.45,3.08,7.42,1.97,1.97,4.64,3.08,7.42,3.08h61.85c2.78,0,5.45-1.11,7.42-3.08,1.97-1.97,3.08-4.64,3.08-7.42V15.6c0-2.78-1.11-5.45-3.08-7.42-1.97-1.97-4.64-3.08-7.42-3.08H15.38Z" fill="#fff"/><path id="Vector_2" d="M76.37,1.85H16.23C8.16,1.85,1.63,8.39,1.63,16.45v60.14c0,8.06,6.54,14.6,14.6,14.6h60.14c8.06,0,14.6-6.54,14.6-14.6V16.45c0-8.06-6.54-14.6-14.6-14.6Z" fill="#ffcf06"/><path id="Vector_3" d="M30.78,7.44l29.53.18-6.72,35.61-14.6.42L30.78,7.44Z" fill="#000002"/><path id="Vector_4" d="M31.8,8.26l27.54.17-6.42,34.02-13.28.39-7.84-34.57h0ZM29.76,6.62l8.59,37.87,15.92-.46,7.02-37.21-31.53-.19h0Z" fill="#ffcf06"/><path id="Vector_5" d="M36.73,59.81l2.32-14.53,14.53-.42,2.38,14.95h-19.24Z" fill="#000002"/><path id="Vector_6" d="M52.89,45.69l2.12,13.31h-17.33l2.06-12.92,13.15-.38ZM54.27,44.03l-15.92.46-2.57,16.13h21.14l-2.65-16.6Z" fill="#ffcf06"/><path id="Vector_7" d="M56.91,60.99c-.09,0-.17-.03-.24-.09-.07-.06-.11-.13-.12-.22l-.31-1.97c-.02-.1,0-.19.07-.27.06-.08.14-.13.24-.15.1-.02.19,0,.27.07.08.06.13.14.15.24l.31,1.97c.02.1,0,.19-.07.27-.06.08-.14.13-.24.15-.02,0-.04,0-.06,0Z" fill="#000002"/><path id="Vector_8" d="M55.99,55.17c-.09,0-.17-.03-.24-.09-.07-.06-.11-.13-.12-.22l-.61-3.85s0-.1,0-.14c.01-.05.03-.09.06-.13.03-.04.06-.07.1-.1.04-.03.09-.04.13-.05.05,0,.1,0,.14,0,.05.01.09.03.13.06.04.03.07.06.1.1.03.04.04.09.05.13l.61,3.85s0,.1,0,.14c-.01.05-.03.09-.06.13-.03.04-.06.07-.1.1-.04.03-.09.04-.13.05-.02,0-.04,0-.06,0h0ZM54.76,47.47c-.09,0-.17-.03-.24-.09-.07-.06-.11-.13-.12-.22l-.49-3.08s0-.08,0-.13l.15-.77s.03-.09.05-.13c.03-.04.06-.07.1-.1.04-.03.08-.05.13-.06.05,0,.1-.01.14,0,.05,0,.09.03.13.05.04.03.07.06.1.1.03.04.05.08.06.13,0,.05.01.1,0,.14l-.13.71.48,3.01c.02.1,0,.19-.07.27-.06.08-.14.13-.24.15-.02,0-.04,0-.06,0h0ZM55.14,39.79s-.05,0-.07,0c-.1-.02-.18-.07-.23-.15-.05-.08-.08-.18-.06-.27l.72-3.83s.03-.09.05-.14c.03-.04.06-.08.1-.1.04-.03.08-.05.13-.06.05-.01.1-.01.14,0,.05,0,.09.03.13.05.04.03.08.06.1.1.03.04.05.09.05.13,0,.05,0,.1,0,.14l-.72,3.83c-.02.08-.06.16-.13.21s-.15.08-.23.08h0ZM56.58,32.13s-.05,0-.07,0c-.05,0-.09-.03-.13-.05-.04-.03-.08-.06-.1-.1s-.05-.08-.06-.13c0-.05,0-.1,0-.14l.72-3.83s.03-.09.05-.13c.03-.04.06-.07.1-.1.04-.03.08-.05.13-.06.05,0,.1-.01.14,0,.05,0,.09.03.13.05.04.03.07.06.1.1.03.04.05.08.06.13,0,.05.01.1,0,.14l-.72,3.83c-.02.08-.06.16-.13.21-.07.05-.15.08-.23.09h0ZM58.03,24.46s-.05,0-.07,0c-.05,0-.09-.03-.13-.05-.04-.03-.07-.06-.1-.1-.03-.04-.05-.08-.06-.13,0-.05-.01-.1,0-.14l.72-3.83s.03-.09.05-.14c.03-.04.06-.08.1-.1.04-.03.08-.05.13-.06.05-.01.1-.01.14,0,.05,0,.09.03.13.05.04.03.08.06.1.1.03.04.05.09.05.13,0,.05,0,.1,0,.14l-.72,3.83c-.02.08-.06.16-.12.21-.07.05-.15.08-.23.09h0ZM59.47,16.8c-.05,0-.11-.01-.16-.04-.05-.02-.09-.06-.13-.1-.03-.04-.06-.09-.07-.14-.01-.05-.02-.11,0-.16l.72-3.83c.02-.1.07-.18.15-.23.04-.03.08-.05.13-.06.05,0,.1-.01.14,0,.05,0,.09.03.13.05.04.03.07.06.1.1.03.04.05.08.06.13,0,.05.01.1,0,.14l-.72,3.83c-.02.08-.06.16-.13.21-.07.05-.15.08-.23.09h0Z" fill="#000002"/><path id="Vector_9" d="M60.92,9.14s-.05,0-.07,0c-.05,0-.09-.03-.13-.05-.04-.03-.07-.06-.1-.1-.03-.04-.05-.08-.06-.13,0-.05,0-.1,0-.14l.29-1.53h-1.56c-.09-.01-.18-.05-.25-.12-.06-.07-.1-.16-.1-.25s.04-.18.1-.25c.06-.07.15-.11.25-.11h1.99c.05.01.11.02.16.05s.09.06.13.1c.03.04.06.09.07.14.01.05.02.11,0,.16l-.37,1.96c-.02.08-.06.16-.12.21-.06.05-.15.09-.23.09Z" fill="#000002"/><path id="Vector_10" d="M55.36,7.14l-3.94-.02c-.09,0-.18-.05-.25-.11-.06-.07-.1-.16-.1-.25s.04-.18.1-.25c.06-.07.15-.11.25-.11h0l3.93.02c.09,0,.18.05.25.11.06.07.1.16.1.25s-.04.18-.1.25c-.06.07-.15.11-.25.11h0ZM47.49,7.09l-3.93-.02c-.1,0-.19-.04-.26-.11-.07-.07-.11-.16-.11-.26s.04-.19.11-.26c.07-.07.16-.11.26-.11h0l3.93.02c.09,0,.18.05.25.11.06.07.1.16.1.25s-.04.18-.1.25c-.06.07-.15.11-.25.11ZM39.63,7.05l-3.93-.02c-.1,0-.19-.04-.26-.11-.07-.07-.11-.16-.11-.26s.04-.19.11-.26c.07-.07.16-.11.26-.11h0l3.93.02c.1,0,.19.04.26.11.07.07.11.16.11.26s-.04.19-.11.26c-.07.07-.16.11-.26.11h0Z" fill="#000002"/><path id="Vector_11" d="M30.2,8.93c-.08,0-.16-.03-.23-.08-.06-.05-.11-.12-.13-.2l-.44-1.94c-.01-.05-.01-.11,0-.16.01-.05.04-.1.07-.15.03-.04.08-.08.13-.1.05-.02.1-.04.16-.04h1.99c.09.02.18.06.25.13.06.07.1.16.1.25s-.04.18-.1.25c-.06.07-.15.11-.25.11h-1.53s.34,1.49.34,1.49c.01.05.01.1,0,.14,0,.05-.03.09-.05.13-.03.04-.06.08-.1.1-.04.03-.08.05-.13.06-.03,0-.06,0-.09,0h0Z" fill="#000002"/><path id="Vector_12" d="M36.71,55.13s-.04,0-.06,0c-.05,0-.09-.02-.13-.05-.04-.03-.08-.06-.1-.1-.03-.04-.05-.08-.06-.13-.01-.05-.01-.1,0-.14l.62-3.89c.02-.1.07-.18.15-.24.08-.06.18-.08.27-.07.1.02.18.07.24.15.06.08.08.18.07.27l-.62,3.89c-.01.09-.06.16-.12.22-.07.06-.15.09-.24.09h0ZM37.95,47.36s-.04,0-.06,0c-.05,0-.09-.02-.13-.05-.04-.03-.08-.06-.1-.1-.03-.04-.05-.08-.06-.13-.01-.05-.01-.1,0-.14l.39-2.43-.29-1.3s-.01-.1,0-.14c0-.05.03-.09.05-.13.03-.04.06-.08.1-.1.04-.03.08-.05.13-.06.05-.01.1-.01.14,0,.05,0,.09.03.13.05.04.03.08.06.1.1.03.04.05.08.06.13l.31,1.37s.01.09,0,.14l-.4,2.5c-.01.09-.06.16-.12.22-.07.06-.15.09-.24.09h0ZM37.17,39.65c-.08,0-.16-.03-.23-.08-.06-.05-.11-.12-.13-.2l-.87-3.84c-.02-.09,0-.19.05-.27.05-.08.13-.13.22-.16.09-.02.19,0,.27.04.08.05.14.13.16.22l.87,3.84s.01.1,0,.14c0,.05-.03.09-.05.13-.03.04-.06.08-.1.1-.04.03-.08.05-.13.06-.03,0-.05,0-.08,0h0ZM35.43,31.97c-.08,0-.16-.03-.23-.08-.06-.05-.11-.12-.13-.2l-.87-3.84c-.02-.09,0-.19.05-.27.05-.08.13-.13.22-.16.09-.02.19,0,.27.04.08.05.14.13.16.22l.87,3.84s.01.1,0,.14c0,.05-.03.09-.05.13-.03.04-.06.08-.1.1-.04.03-.08.05-.13.06-.03,0-.05,0-.08,0h0ZM33.69,24.29c-.08,0-.16-.03-.23-.08-.06-.05-.11-.12-.13-.2l-.87-3.84s-.01-.1,0-.14c0-.05.03-.09.05-.13.03-.04.06-.08.1-.1.04-.03.08-.05.13-.06.05-.01.1-.01.14,0,.05,0,.09.03.13.05.04.03.08.06.1.1.03.04.05.08.06.13l.87,3.84s.01.1,0,.14-.03.09-.05.13-.06.08-.1.1-.08.05-.13.06c-.03,0-.05,0-.08,0h0ZM31.94,16.61c-.08,0-.16-.03-.23-.08-.06-.05-.11-.12-.13-.2l-.87-3.84c-.02-.09,0-.19.05-.27.05-.08.13-.13.22-.16.09-.02.19,0,.27.04.08.05.14.13.16.22l.87,3.84s.01.1,0,.14c0,.05-.03.09-.05.13-.03.04-.06.08-.1.1-.04.03-.08.05-.13.06-.03,0-.05,0-.08,0h0Z" fill="#000002"/><path id="Vector_13" d="M35.77,60.99s-.04,0-.06,0c-.05,0-.09-.02-.13-.05-.04-.03-.08-.06-.1-.1-.03-.04-.05-.08-.06-.13s-.01-.1,0-.14l.31-1.97c.02-.1.07-.18.15-.24s.18-.08.27-.07c.1.02.18.07.24.15.06.08.08.18.07.27l-.31,1.97c-.01.09-.06.16-.12.22-.07.06-.15.09-.24.09h0Z" fill="#000002"/><path id="Vector_14" d="M19.95,37.68c-3.44.23-6.77,1.72-9.38,4.2-5.74,5.46-6.37,14.14-1.41,19.36,2.33,2.46,5.55,3.8,9.09,3.8.12,0,.24,0,.35,0,3.65-.09,7.19-1.59,9.95-4.23,5.74-5.46,6.37-14.14,1.41-19.36-2.51-2.65-6.17-4.02-10.02-3.77Z" fill="#000002"/><path id="Vector_15" d="M81.28,41.88c-2.61-2.48-5.94-3.97-9.38-4.2-3.85-.26-7.5,1.11-10.02,3.76-4.96,5.22-4.33,13.9,1.41,19.36,2.77,2.63,6.3,4.13,9.96,4.23.12,0,.24,0,.35,0,3.54,0,6.76-1.34,9.09-3.8,4.96-5.22,4.33-13.9-1.4-19.35Z" fill="#000002"/><path id="Vector_16" d="M11.84,40.91c-5.45,5.18-6.07,13.37-1.38,18.29,4.68,4.92,12.89,4.72,18.34-.46,5.45-5.18,6.06-13.37,1.38-18.29-2.47-2.6-5.92-3.77-9.43-3.53-3.15.21-6.34,1.55-8.91,4Z" fill="#035ffe"/><path id="Vector_Stroke_" d="M21.45,36.92c3.71-.25,7.38.99,10.02,3.77,5.02,5.28,4.29,13.94-1.41,19.36-5.69,5.41-14.39,5.71-19.4.44-5.02-5.28-4.29-13.94,1.41-19.36M21.55,38.42c3.31-.22,6.53.88,8.83,3.3h0c4.35,4.57,3.84,12.29-1.35,17.23-5.2,4.94-12.93,5.06-17.28.49-4.35-4.57-3.84-12.29,1.36-17.23h0c2.45-2.33,5.48-3.59,8.45-3.79ZM21.45,36.92h0,0ZM21.45,36.92c-3.32.22-6.68,1.63-9.38,4.2l9.38-4.2Z" fill="#ffcf06" fill-rule="evenodd"/><path id="Vector_17" d="M15.25,42.29c-3.8,3.61-4.23,9.32-.96,12.76,3.27,3.43,8.99,3.29,12.79-.32s4.23-9.32.96-12.76c-1.72-1.81-4.13-2.63-6.57-2.46-2.2.15-4.42,1.08-6.22,2.79Z" fill="#fff"/><path id="Vector_18" d="M24.27,47.34c-.71.68-.8,1.75-.18,2.4.61.65,1.69.62,2.41-.06.71-.68.8-1.75.18-2.4-.16-.16-.35-.29-.57-.37s-.44-.11-.67-.09c-.44.03-.85.22-1.17.52h0Z" fill="#000002"/><path id="Vector_19" d="M81.52,40.91c5.45,5.18,6.06,13.37,1.38,18.29-4.68,4.92-12.89,4.72-18.34-.46-5.45-5.18-6.06-13.37-1.38-18.29,2.47-2.6,5.92-3.77,9.43-3.53,3.14.21,6.34,1.55,8.91,4Z" fill="#035ffe"/><path id="Vector_Stroke__2" d="M73.31,38.42c-3.31-.22-6.53.88-8.83,3.3h0c-4.35,4.57-3.84,12.29,1.35,17.23,5.2,4.94,12.93,5.06,17.28.49,4.35-4.57,3.84-12.29-1.35-17.23-2.45-2.33-5.48-3.59-8.45-3.79ZM63.39,40.68c2.64-2.78,6.31-4.01,10.02-3.77h0c3.32.22,6.68,1.63,9.38,4.2h0c5.69,5.41,6.43,14.08,1.41,19.36-5.02,5.28-13.71,4.98-19.4-.44-5.69-5.41-6.43-14.08-1.41-19.36Z" fill="#ffcf06" fill-rule="evenodd"/><path id="Vector_20" d="M78.11,42.29c3.8,3.61,4.23,9.32.96,12.76-3.27,3.43-8.99,3.29-12.79-.32-3.8-3.61-4.23-9.32-.96-12.76,1.72-1.81,4.13-2.63,6.57-2.46,2.19.15,4.42,1.08,6.22,2.79Z" fill="#fff"/><path id="Vector_21" d="M68.46,47.34c.72.68.8,1.75.18,2.4-.61.65-1.69.62-2.41-.06-.71-.68-.8-1.75-.18-2.4.16-.16.35-.29.57-.37.21-.08.44-.11.67-.09.44.03.85.22,1.17.52Z" fill="#000002"/><path id="Vector_22" d="M35.77,60.31l5.77,3.2,9.46-.09,5.91-3.11h-21.14Z" fill="#000002"/><path id="Vector_23" d="M1.63,31.09l8.93-4.12L2.78,10.15c-.76,1.74-1.15,3.63-1.15,5.53v15.4Z" fill="#035ffe"/><path id="Vector_24" d="M90.98,29.68v-13.99c0-2.46-.65-4.88-1.9-7l-5.72,17.63,7.62,3.36Z" fill="#035ffe"/><path id="Vector_25" d="M80.66,27.52l6.82-21.03c-.54-.61-1.13-1.16-1.77-1.67l-7.75,23.9,13.01,5.74v-2.4l-10.31-4.55Z" fill="#000002"/><path id="Vector_26" d="M5.65,5.92c-.57.57-1.09,1.2-1.56,1.86l9.38,20.25-11.85,5.46v2.41l14.76-6.8L5.65,5.92Z" fill="#000002"/><path id="Vector_27" d="M83.36,26.31l5.72-17.63c-.46-.78-.99-1.51-1.59-2.19l-6.81,21.03,10.31,4.55v-2.4l-7.62-3.36Z" fill="#000002"/><path id="Vector_28" d="M10.56,26.97L1.63,31.09v2.41l11.85-5.46L4.1,7.79c-.52.74-.96,1.53-1.32,2.36l7.79,16.82Z" fill="#000002"/><path id="Vector_29" d="M1.64,77.83l.37,2.76c.57,2.38,1.77,4.57,3.47,6.34l5.09-11-8.93-4.12v5.54c0,.16,0,.31,0,.47Z" fill="#035ffe"/><path id="Vector_30" d="M90.98,77.36v-4.13l-7.62,3.36,3.45,10.66c1.32-1.29,2.37-2.82,3.08-4.52.72-1.7,1.08-3.52,1.08-5.37h0Z" fill="#035ffe"/><path id="Vector_31" d="M83.05,89.87c.68-.32,1.33-.7,1.94-1.12l-4.33-13.36,10.31-4.55v-2.4l-13.01,5.74,5.08,15.69Z" fill="#000002"/><path id="Vector_32" d="M13.48,74.86l-6.29,13.59c.59.44,1.22.84,1.87,1.18l7.33-15.84-14.76-6.8v2.42l11.85,5.46Z" fill="#000002"/><path id="Vector_33" d="M84.99,88.75c.65-.45,1.26-.95,1.82-1.5l-3.45-10.66,7.62-3.36v-2.4l-10.31,4.56,4.33,13.36Z" fill="#000002"/><path id="Vector_34" d="M1.63,69.4v2.41l8.93,4.12-5.09,11c.53.55,1.1,1.06,1.71,1.52l6.29-13.59-11.85-5.46Z" fill="#000002"/><path id="Vector_35" d="M2.01,80.59l-.37-2.76c.03.93.16,1.86.37,2.76h0Z" fill="#000002"/><path id="Vector_36" d="M74.09,81.75l-1.17-2.24-4.89-9.37-.38-.73-.7-1.34-1.5-.17-34.42-3.81-1.99-.22-.87,1.8-.15.32-4.46,9.21-3.22,6.65-2.62,5.4,5.83-1.42s2.45-.59,6.56-1.16c5.67-.78,11.38-1.16,17.1-1.16,8.16,0,16.17.78,23.8,2.32l5.81,1.17-2.74-5.25Z" fill="#035ffe"/><path id="Vector_37" d="M70.41,80.82l-4.89-9.37-.38-.73-34.42-3.81-.15.32-4.46,9.21-3.22,6.65s22.12-5.39,48.69-.03l-1.17-2.24Z" fill="#000002"/><path id="Vector_38" d="M65.3,81.97l-2.86-3.27-8.8-1.71-21.45,1.11-4.83,4.13c6.92-1.12,21.19-2.69,37.94-.26Z" fill="#fff"/><path id="Vector_39" d="M63.62,74.92l1.9-3.47-.38-.73-34.42-3.81-.15.32,2.33,5.38,3.06.7,1.6-1.37,3.34,2.46,19.06.95,3.66-.43Z" fill="#fff"/><path id="Vector_40" d="M77.23.22H15.38C6.9.22,0,7.12,0,15.6v61.85C0,85.92,6.9,92.82,15.38,92.82h61.85c8.48,0,15.38-6.9,15.38-15.38V15.6c0-8.48-6.9-15.38-15.38-15.38ZM90.17,76.55c0,1.82-.36,3.62-1.05,5.29-.7,1.68-1.71,3.2-3,4.49-1.28,1.28-2.81,2.3-4.49,3s-3.48,1.05-5.29,1.05H16.27c-1.82,0-3.62-.36-5.29-1.05-1.68-.7-3.2-1.71-4.49-3-1.28-1.28-2.3-2.81-3-4.49s-1.05-3.48-1.05-5.29V16.49c0-3.67,1.46-7.19,4.05-9.78,2.59-2.59,6.11-4.05,9.78-4.05h60.06c3.67,0,7.19,1.46,9.78,4.05,2.59,2.59,4.05,6.11,4.05,9.78v60.06Z" fill="#ffcf06"/></g></g></g></svg>