<?xml version="1.0" encoding="UTF-8"?><svg id="Ebene_2" xmlns="http://www.w3.org/2000/svg" width="93" height="93" viewBox="0 0 93 93"><path d="M62.73,89.01c-2.02-1.6,5.52-3.45,3.36-3.78-2.15-.33-4.33-1.68.78-3.36,5.59-1.84,4.81-22.59,3.59-36.73-2.75-.48-5.46-1.78-7.71-3.92-5.62-5.34-6.24-13.85-1.38-18.96.08-.09.18-.16.27-.25-3.74-1.29-7.2-3.42-10.3-6.39-.07-.07-.12-.15-.14-.24-.24-1,.37-2.62,1.88-4.95,1.06-1.65,2.17-3.02,2.21-3.07.04-.05.1-.1.16-.13.06-.03.13-.05.19-.06.07,0,.14,0,.2.03.06.02.12.06.17.1.03.03,3.28,2.98,8.79,5.72,4.24,2.11,10.59,4.45,18.23,4.75-7.02-8.91-17.22-15.19-28.89-17.13-1.91,3.51-3.84,7.51-5.07,11.34-1.18-4.11-1.42-8.34-1.29-11.95-.43-.01-.86-.03-1.29-.03-.99,0-1.96.04-2.93.1-.37,6.9-1.48,13.55-1.48,13.55,0,0-1.88-7.12-3.99-12.88-11.3,2.06-21.16,8.21-28.03,16.85,6.63-.62,12.15-2.7,15.96-4.61,5.5-2.74,8.75-5.69,8.79-5.72.05-.05.11-.08.17-.1.06-.02.13-.03.2-.03.07,0,.13.03.19.06.06.03.11.08.16.13.05.06,1.15,1.43,2.21,3.07,1.51,2.33,2.12,3.95,1.88,4.95-.02.09-.07.18-.14.24-2.52,2.42-5.28,4.27-8.23,5.58.11.11.23.2.34.32,4.91,5.17,4.2,13.66-1.38,18.96-1.37,1.3-2.92,2.3-4.54,2.99-1.27.71-2.6,1.22-3.96,1.53-1.38,13.81-2.29,34.07,3.81,36.88,4.89,2.24,2.93,3.03.78,3.36s5.39,2.18,3.36,3.78c-.31.24-.16.57.31.94l9.99-8.49,2.23,3.6,4.25-7.18,5.15,7.1,1.64-3.65,9.15,8.87s.03-.01.05-.02c.5-.47.66-.89.29-1.18ZM40.04,32.24h.13s0-.05.01-.08c.01-.04.04-.08.07-.11.03-.03.07-.06.11-.08.08-.04.17-.04.26-.02.09.03.16.09.19.17l.09.19,12.66,1.07.22.27.41-.53s.06-.06.1-.09c.04-.02.08-.04.13-.04.04,0,.09,0,.13.01.04.01.08.03.12.06.04.03.06.06.09.1.02.04.04.08.04.13,0,.04,0,.09-.01.13-.01.04-.03.08-.06.12l-.51.65,4.66,5.77-6.14,1.2-13.95-1.23-4.43-2.1,5.67-5.59ZM46.11,76.23c-9.59,0-16.25,2.07-16.31,2.09l-3.53,1.12.61-3.65,5.47-32.6.37-2.18,2.19.32,24.05,3.48,1.66.24.26,1.65,4.5,29.09.53,3.41-3.34-.88c-5.37-1.4-10.89-2.1-16.44-2.09Z" fill="#9105c6"/><path d="M33.39,30.2c0-.24,0-.48,0-.72,0,.17,0,.34-.01.51,0,.07.01.14.02.21Z" fill="#9105c6"/><path d="M85.03,33.06c.01-.28.02-.57,0-.86,0,.11-.02.22-.02.33,0,.18.01.35.01.53Z" fill="#9105c6"/><path d="M84.85,20.21c-.96.43-2.11.9-3.42,1.35.14.13.29.24.43.38,5.58,5.3,6.29,13.79,1.38,18.96-1.17,1.23-2.55,2.14-4.03,2.76-.73.43-1.5.78-2.3,1.04.04,3.62.12,7.45.25,10.61.39,9.41,1.91,16.67,3.93,22.26,7.4-8.23,11.91-19.12,11.91-31.06,0-9.76-3.01-18.81-8.15-26.29Z" fill="#9105c6"/><path d="M15.49,44.95c-2.16-.54-4.16-1.63-5.76-3.31-4.86-5.11-4.24-13.62,1.38-18.96.16-.16.34-.3.51-.44-1.47-.4-2.8-.86-3.95-1.31C2.83,28.26,0,37.05,0,46.5c0,11.66,4.3,22.3,11.39,30.46,1.99-5.51,3.48-12.57,3.86-21.65.13-3.08.2-6.82.25-10.36Z" fill="#9105c6"/><path d="M51.61,84.99l-5.15-7.1-4.25,7.18-2.23-3.6-9.99,8.49s.01.01.02.02c5.08,1.93,10.58,3,16.32,3.02h.33c5.52-.02,10.82-1,15.73-2.79l-9.15-8.87-1.64,3.65Z" fill="#ffcf06"/><path d="M43.57.1c-1.86.12-3.68.34-5.47.67,2.11,5.76,3.99,12.88,3.99,12.88,0,0,1.12-6.65,1.48-13.55Z" fill="#ffcf06"/><path d="M49.08,11.98c1.23-3.83,3.16-7.83,5.07-11.34-2.08-.34-4.2-.55-6.36-.6-.14,3.61.1,7.83,1.29,11.95Z" fill="#ffcf06"/><path d="M65.9,79.2l-.53-3.41-4.5-29.09-.26-1.65-1.66-.24-24.05-3.48-2.19-.32-.37,2.18-5.47,32.6-.61,3.65,3.53-1.12c.06-.02,6.72-2.09,16.31-2.09,5.55-.01,11.07.69,16.44,2.09l3.34.88ZM29.11,76.15l5.36-32.3h0s.03-.09.03-.09l.07-.2,24.05,3.48.26.67,4.23,28.42c-18.56-4.9-34.02.03-34.02.03Z" fill="#ff4f03"/><polygon points="58.64 47.04 58.9 47.7 58.64 47.04 34.58 43.56 34.51 43.76 34.58 43.56 58.64 47.04" fill="#000002"/><path d="M58.9,47.7l-1.33,3.17-2.56.39-13.32-.87-2.33-2.24-1.12,1.25-2.14-.64-1.63-4.92-5.36,32.3s15.45-4.92,34.02-.03l-4.23-28.42Z" fill="#000002"/><polygon points="38.24 49.41 39.36 48.16 41.7 50.4 55.02 51.27 57.57 50.88 58.9 47.7 58.64 47.04 34.58 43.56 34.51 43.76 34.48 43.85 34.48 43.85 36.1 48.77 38.24 49.41" fill="#fff"/><polygon points="58.87 39.97 54.22 34.2 50.28 39.22 58.87 39.97" fill="#ffcf06"/><path d="M40.19,32.42s-.03-.08-.03-.13c0-.01,0-.03,0-.04h-.13s-5.67,5.58-5.67,5.58l8.83.77-3-6.18Z" fill="#ffcf06"/><polygon points="44.52 38.72 49.55 39.05 53.78 33.66 53.56 33.38 40.89 32.32 43.98 38.67 44.52 38.72" fill="#ffcf06"/><path d="M44.52,38.72l5.76.5,3.94-5.02.51-.65s.05-.08.06-.12c.01-.04.02-.09.01-.13,0-.04-.02-.09-.04-.13-.02-.04-.05-.07-.09-.1-.03-.03-.08-.05-.12-.06-.04-.01-.09-.02-.13-.01-.04,0-.09.02-.13.04-.04.02-.07.05-.1.09l-.41.53-4.23,5.39-5.03-.33Z" fill="#9105c6"/><path d="M40.19,32.42l3,6.18.79.07-3.08-6.36-.09-.19c-.04-.08-.11-.14-.19-.17-.09-.03-.18-.02-.26.02-.04.02-.08.05-.11.08-.03.03-.05.07-.07.11-.01.03-.01.06-.01.09,0,.01,0,.03,0,.04,0,.04.01.09.03.13Z" fill="#9105c6"/><polygon points="52.74 41.17 58.87 39.97 50.28 39.22 44.52 38.72 43.98 38.67 43.19 38.61 34.36 37.84 38.79 39.94 52.74 41.17" fill="#000002"/><path d="M7.94,32.22c-.13-3.47,1.19-7.09,3.89-9.93-.07-.02-.14-.04-.21-.05-.17.15-.34.29-.51.44-5.62,5.34-6.24,13.85-1.38,18.96,1.6,1.68,3.6,2.78,5.76,3.31,0-.4,0-.79.01-1.18-1.59-.62-3.06-1.57-4.3-2.87-2.28-2.39-3.33-5.5-3.27-8.68Z" fill="#000002"/><path d="M33.39,30.2c0-.07-.01-.14-.02-.21-.21,3.3-1.69,6.64-4.4,9.21-2.06,1.96-4.53,3.18-7.04,3.68,0,.04,0,.08-.01.12,2.58-.38,5.15-1.57,7.28-3.6,2.72-2.59,4.12-5.95,4.19-9.21Z" fill="#000002"/><path d="M21.72,44.99c1.36-.31,2.69-.82,3.96-1.53-1.27.54-2.59.9-3.91,1.06-.02.16-.03.32-.05.47Z" fill="#000002"/><path d="M76.91,44.7c.8-.27,1.57-.61,2.3-1.04-.74.31-1.51.54-2.3.7,0,.11,0,.23,0,.35Z" fill="#000002"/><path d="M59.59,29.45c-.05-2.64.72-5.23,2.36-7.33-.1-.03-.2-.07-.3-.11-.09.09-.18.16-.27.25-4.86,5.11-4.24,13.62,1.38,18.96,2.25,2.14,4.96,3.44,7.71,3.92-.03-.37-.06-.74-.1-1.11-2.21-.65-4.33-1.83-6.14-3.56-3.19-3.04-4.79-7.12-4.65-11.02Z" fill="#000002"/><path d="M85.03,33.06c0-.18,0-.35-.01-.53-.17,2.63-1.16,5.15-3.04,7.12-1.42,1.5-3.18,2.51-5.09,3.04,0,.05,0,.1,0,.15,1.99-.45,3.84-1.43,5.29-2.96,1.78-1.88,2.72-4.29,2.85-6.83Z" fill="#000002"/><path d="M33.38,29.99c.01-.17.01-.34.01-.51-.1-2.58-1.05-5.04-2.86-6.95h0c-.24-.26-.5-.49-.77-.72-.95.35-1.92.66-2.9.9-2.12.51-4.3.76-6.49.76-1.79,0-3.57-.16-5.33-.47-.4-.07-.79-.14-1.17-.22-.09.08-.18.15-.26.23h0c-5.09,4.84-5.59,12.4-1.33,16.88.94.99,2.05,1.74,3.25,2.28.03-3.66.03-6.82.03-8.43-.03,0-.06.03-.09.03-.08,0-.16-.02-.23-.06-.07-.04-.13-.09-.18-.15-.04-.05-.06-.11-.08-.18-.01-.06-.01-.13,0-.2.01-.06.04-.13.07-.18.04-.06.08-.1.14-.14.11-.08.24-.15.36-.22,0-.02,0-.03,0-.03h.06c3.27-1.92,8.97-1.24,11.89-.71-2.84-2.28-6.26-3.37-10.19-3.25-3.44.11-5.99,1.16-6.02,1.17-.06.03-.13.04-.19.04-.07,0-.13-.01-.19-.04-.06-.02-.12-.06-.16-.11-.05-.05-.08-.1-.11-.16-.03-.06-.04-.12-.04-.19,0-.07.01-.13.04-.19.02-.06.06-.12.11-.16s.1-.08.16-.11c.11-.05,2.72-1.12,6.33-1.24,3.35-.11,8.2.63,12.31,4.76.08.08.13.18.14.28s0,.22-.06.31c-.05.09-.14.17-.24.21-.1.04-.21.05-.32.03-.05-.01-2.73-.66-5.8-.86-.18,1.19-.77,5.22-1.34,10.5,2.51-.5,4.98-1.72,7.04-3.68,2.71-2.58,4.19-5.92,4.4-9.21Z" fill="#ff4f03"/><path d="M7.94,32.22c.07-3.49,1.51-7.05,4.22-9.84-.11-.03-.23-.06-.34-.09-2.69,2.84-4.02,6.47-3.89,9.93Z" fill="#ff4f03"/><path d="M85.02,32.53c0-.11.02-.22.02-.33-.07-3.25-1.47-6.61-4.19-9.2h0c-.35-.33-.71-.63-1.08-.92-1.22.35-2.55.67-3.96.91-1.76.31-3.55.46-5.34.47-2.18,0-4.36-.25-6.48-.76-.06-.01-.11-.03-.17-.05-4.13,4.49-3.61,11.95,1.44,16.75,1.49,1.42,3.21,2.42,4.98,3.03-.47-5.02-.95-8.84-1.11-10.03-2.91.22-5.36.82-5.41.84-.11.03-.22.02-.32-.03-.1-.04-.18-.12-.24-.21-.05-.09-.07-.2-.06-.31.01-.11.06-.21.14-.28,4.11-4.13,8.96-4.87,12.31-4.76,3.61.12,6.22,1.2,6.33,1.24.06.02.12.06.17.11.05.05.09.1.11.16.03.06.04.13.04.19,0,.07-.01.13-.04.19-.03.06-.06.12-.11.16-.05.05-.1.08-.17.11-.06.02-.13.04-.2.03-.07,0-.13-.02-.19-.05-.04-.02-2.59-1.06-6.02-1.17-3.93-.12-7.34.97-10.19,3.25,3.05-.55,9.13-1.28,12.32.97.1.08.17.19.19.32s-.01.26-.08.36c-.07.11-.19.18-.31.2s-.26,0-.37-.07c-.06-.04-.13-.07-.19-.11,0,1.62,0,5.12.04,9.14,1.91-.53,3.66-1.54,5.09-3.04,1.88-1.98,2.87-4.49,3.04-7.12Z" fill="#ff4f03"/><path d="M59.59,29.45c.09-2.61.97-5.14,2.66-7.23-.1-.03-.2-.07-.31-.11-1.64,2.11-2.41,4.69-2.36,7.33Z" fill="#ff4f03"/><path d="M29.76,21.81c.26.23.52.46.77.72h0c1.81,1.91,2.76,4.37,2.86,6.95,0,.24,0,.48,0,.72-.07,3.25-1.47,6.62-4.19,9.21-2.13,2.03-4.7,3.22-7.28,3.6-.05.49-.11,1-.16,1.51,1.32-.16,2.64-.52,3.91-1.06,1.63-.69,3.17-1.69,4.54-2.99,5.58-5.3,6.29-13.79,1.38-18.96-.11-.11-.23-.21-.34-.32-.49.22-.99.42-1.5.61Z" fill="#ffcf06"/><path d="M13.6,23h0c.09-.08.18-.15.26-.23-.59-.12-1.15-.25-1.7-.4-2.71,2.79-4.15,6.35-4.22,9.84-.06,3.17.99,6.28,3.27,8.68,1.24,1.3,2.71,2.26,4.3,2.87,0-.54.01-1.08.02-1.61-1.2-.54-2.31-1.29-3.25-2.28-4.26-4.48-3.76-12.04,1.33-16.88Z" fill="#ffcf06"/><path d="M79.77,22.08c.37.29.73.59,1.08.92h0c2.72,2.59,4.12,5.95,4.19,9.2,0,.29,0,.57,0,.86-.13,2.53-1.07,4.95-2.85,6.83-1.45,1.53-3.3,2.51-5.29,2.96,0,.5,0,1,.02,1.51.79-.16,1.56-.39,2.3-.7,1.49-.62,2.87-1.53,4.03-2.76,4.91-5.17,4.2-13.66-1.38-18.96-.14-.13-.29-.25-.43-.38-.53.18-1.08.35-1.66.52Z" fill="#ffcf06"/><path d="M63.81,22.66c-.52-.13-1.05-.27-1.56-.43-1.69,2.09-2.57,4.61-2.66,7.23-.14,3.9,1.45,7.99,4.65,11.02,1.81,1.72,3.93,2.91,6.14,3.56-.05-.54-.1-1.07-.15-1.59-1.78-.61-3.49-1.61-4.98-3.03-5.04-4.8-5.57-12.25-1.44-16.75Z" fill="#ffcf06"/><path d="M29.68,89.01c2.02-1.6-5.51-3.44-3.36-3.78s4.1-1.12-.78-3.36c-6.1-2.81-5.19-23.07-3.81-36.88.02-.16.03-.32.05-.47.05-.52.11-1.02.16-1.51,0-.04,0-.08.01-.12.57-5.29,1.16-9.31,1.34-10.5-2.7-.17-5.71,0-7.53,1.29-.06.04-.13.05-.2.06,0,1.61,0,4.77-.03,8.43,0,.53,0,1.06-.02,1.61,0,.39,0,.78-.01,1.18-.04,3.54-.12,7.28-.25,10.36-.38,9.08-1.87,16.14-3.86,21.65,4.99,5.75,11.37,10.26,18.62,13.02,0,0-.01-.01-.02-.02-.47-.37-.62-.7-.31-.94Z" fill="#8fd2eb"/><path d="M15.55,32.6s0,.02,0,.03c.02-.01.04-.03.06-.04h-.06Z" fill="#8fd2eb"/><path d="M76.91,44.7c0-.12,0-.23,0-.35,0-.51-.01-1.01-.02-1.51,0-.05,0-.1,0-.15-.04-4.01-.04-7.51-.04-9.14-1.93-1.23-5.02-1.36-7.73-1.16.15,1.19.63,5.01,1.11,10.03.05.52.1,1.05.15,1.59.03.36.06.73.1,1.11,1.21,14.14,1.99,34.89-3.59,36.73-5.11,1.68-2.94,3.03-.78,3.36,2.15.33-5.39,2.18-3.36,3.78.37.29.21.71-.29,1.18,7.22-2.64,13.61-7.02,18.65-12.63-2.02-5.59-3.54-12.85-3.93-22.26-.13-3.16-.21-6.99-.25-10.61Z" fill="#8fd2eb"/><path d="M15.24,22.02c9.04,1.53,16.93-.83,23.45-7.02.13-1.33-2-4.57-3.6-6.63-1.04.88-4.02,3.24-8.58,5.51-3.25,1.63-6.68,2.88-10.22,3.72-2.32.55-4.68.89-7.05,1.06-.34.46-.67.93-.99,1.4,1.92.74,4.31,1.49,6.99,1.95Z" fill="#ffcf06"/><path d="M11.83,22.29c.11.03.22.06.34.09.55.14,1.12.27,1.7.4.38.08.77.15,1.17.22,1.76.31,3.55.46,5.33.47,2.18,0,4.36-.25,6.49-.76.99-.24,1.95-.55,2.9-.9.5-.19,1-.39,1.5-.61,2.96-1.31,5.72-3.17,8.23-5.58.07-.07.12-.15.14-.24.24-1-.38-2.61-1.88-4.95-1.06-1.65-2.17-3.02-2.21-3.07-.04-.05-.1-.1-.16-.13-.06-.03-.13-.05-.19-.06-.07,0-.14,0-.2.03-.06.02-.12.06-.17.1-.03.03-3.28,2.98-8.79,5.72-3.81,1.9-9.33,3.99-15.96,4.61-.28.35-.56.69-.83,1.05,2.37-.17,4.73-.51,7.05-1.06,3.54-.85,6.96-2.09,10.22-3.72,4.56-2.28,7.54-4.64,8.58-5.51,1.6,2.06,3.73,5.3,3.6,6.63-6.52,6.19-14.4,8.55-23.45,7.02-2.68-.46-5.07-1.2-6.99-1.95-.19.28-.39.56-.57.85,1.15.45,2.48.91,3.95,1.31.07.02.14.04.21.05Z" fill="#9105c6"/><path d="M64.34,13.89c-4.56-2.28-7.54-4.64-8.58-5.51-1.6,2.06-3.73,5.3-3.6,6.63,6.53,6.2,14.43,8.56,23.48,7.01,3.52-.6,6.52-1.7,8.62-2.64-.15-.2-.28-.41-.43-.61-3.12-.06-6.23-.43-9.28-1.16-3.54-.85-6.96-2.1-10.21-3.72Z" fill="#ffcf06"/><path d="M56.03,7.29s-.11-.08-.17-.1c-.06-.02-.13-.03-.2-.03-.07,0-.13.02-.19.06-.06.03-.11.08-.16.13-.05.06-1.15,1.43-2.21,3.07-1.51,2.33-2.12,3.95-1.88,4.95.02.09.07.18.14.24,3.1,2.97,6.55,5.11,10.3,6.39.1.03.2.07.3.11.1.03.2.08.31.11.51.16,1.03.3,1.56.43.06.01.11.03.17.05,2.12.51,4.3.76,6.48.76,1.79,0,3.57-.16,5.34-.47,1.41-.24,2.74-.56,3.96-.91.58-.17,1.13-.34,1.66-.52,1.32-.45,2.46-.91,3.42-1.35-.19-.28-.39-.56-.59-.83-2.1.93-5.1,2.04-8.62,2.64-9.06,1.55-16.96-.81-23.48-7.01-.13-1.33,2-4.57,3.6-6.63,1.04.88,4.02,3.24,8.58,5.51,3.25,1.63,6.68,2.88,10.21,3.72,3.04.72,6.15,1.1,9.28,1.16-.25-.34-.52-.67-.79-1.01-7.64-.3-13.99-2.64-18.23-4.75-5.51-2.74-8.75-5.69-8.79-5.72Z" fill="#9105c6"/><path d="M29.4,33.22c.1-.04.18-.12.24-.21.05-.09.07-.2.06-.31s-.06-.21-.14-.28c-4.11-4.13-8.96-4.87-12.31-4.76-3.61.12-6.22,1.2-6.33,1.24-.06.03-.11.06-.16.11s-.08.1-.11.16c-.02.06-.04.12-.04.19,0,.07.01.13.04.19.03.06.06.12.11.16.05.05.1.08.16.11.06.02.13.04.19.04.07,0,.13-.01.19-.04.03-.01,2.58-1.06,6.02-1.17,3.93-.12,7.34.97,10.19,3.25-2.92-.53-8.62-1.21-11.89.71-.02.01-.04.02-.06.04-.12.07-.25.14-.36.22-.05.04-.1.08-.14.14-.04.06-.06.12-.07.18-.01.06-.01.13,0,.2.01.06.04.13.08.18.05.07.11.12.18.15.07.04.15.06.23.06.03,0,.06-.02.09-.03.07-.01.14-.02.2-.06,1.82-1.28,4.83-1.46,7.53-1.29,3.08.2,5.75.85,5.8.86.11.03.22.02.32-.03Z" fill="#000002"/><path d="M77.41,33.75c.13-.02.24-.1.31-.2.07-.11.1-.24.08-.36s-.09-.24-.19-.32c-3.19-2.24-9.27-1.52-12.32-.97,2.84-2.28,6.26-3.37,10.19-3.25,3.43.11,5.98,1.15,6.02,1.17.06.03.13.04.19.05.07,0,.13,0,.2-.03.06-.02.12-.06.17-.11.05-.05.09-.1.11-.16.03-.06.04-.13.04-.19,0-.07-.01-.13-.04-.19-.03-.06-.07-.12-.11-.16-.05-.05-.11-.08-.17-.11-.11-.05-2.72-1.12-6.33-1.24-3.35-.11-8.2.63-12.31,4.76-.08.08-.13.18-.14.28-.01.11,0,.22.06.31.05.09.14.17.24.21.1.04.21.05.32.03.05-.01,2.5-.61,5.41-.84,2.71-.21,5.8-.08,7.73,1.16.06.04.13.07.19.11.11.07.24.1.37.07Z" fill="#000002"/><path d="M46.5,93c.06,0,.11,0,.17,0h-.33c.06,0,.11,0,.17,0Z" fill="#fff"/></svg>