<?xml version="1.0" encoding="UTF-8"?><svg id="Ebene_1" xmlns="http://www.w3.org/2000/svg" width="93" height="93" viewBox="0 0 93 93"><path d="M90.11,30.23c-.58,8.61-3.88,21.32-18.3,21.65-.05,0-.1,0-.14.01-.72.1-1.45.15-2.19.15-8.34,0-15.09-6.47-15.09-14.45,0-3.77,1.51-7.22,3.99-9.79.62-.65,1.31-1.24,2.05-1.77.83-.77,1.74-1.45,2.74-2.02,3.44-1.98,7.52-2.51,11.35-1.47,3.4.92,6.21,2.95,8.15,5.59l4.81-3.72c-1.47-2.72-3.2-5.27-5.16-7.62.73,1.92,1.2,3.8,1.57,5.39-4.89-5.67-14.66-6.59-20.5-6.59-1.57,0-3.15.06-4.71.21,0,0-5.4-11.19,5.7-11.19h0c.56,0,1.16.03,1.8.09.33.03.65.07.97.11-4.04-2-8.42-3.43-13.02-4.18l-6.17,23.38S42.52,3.68,42.02.22c-4.38.42-8.59,1.45-12.53,3.01,12.31.05,5.99,11.51,5.99,11.51,0,0-3.29-.55-7.64-.55-5.8,0-13.49.98-17.88,5.54.28-.97.61-2.05,1.01-3.18-2.04,2.43-3.85,5.06-5.37,7.88l4.31,3.34c.78-1.01,1.69-1.93,2.7-2.71,1.56-1.2,3.34-2.09,5.24-2.6,1.9-.51,3.89-.65,5.84-.39,1.95.26,3.84.9,5.54,1.88,1.71.99,3.2,2.3,4.4,3.87,1.2,1.57,2.07,3.35,2.58,5.26,2.15,7.96-2.58,16.19-10.54,18.34-1.27.34-2.58.52-3.9.52-.54,0-1.09-.03-1.62-.09-14.49-.32-17.72-10.91-18.02-19.21C.78,37.01.04,41.67.04,46.5c0,4.14.54,8.16,1.56,11.98.61.32,1.19.67,1.75,1.07l6.01,4.29h.01s.02.02.02.02l2.02,1.44h.01s0,.01,0,.01l3.99,2.84,2.9,2.07h0s3.44,2.45,3.44,2.45c0,0,0,0,.01,0l3.45,2.46h0s0,0,0,0l3.44,2.45s0,0,.01,0l1.76,1.25,1.69,1.2h0s0,.01.01.02l3.41,2.43s.01,0,.02.01l3.45,2.46h0s.01,0,.02.01l2.23,1.59c.81.57,1.72,1.01,2.69,1.31.06.02.11.04.17.05.06.02.11.03.17.05.06.02.13.03.19.05.08.02.17.04.25.06.03,0,.07.02.1.02.77.17,1.57.25,2.37.25,1.18,0,2.37-.19,3.48-.56.02-.02.03-.04.05-.06.04-.03.08-.06.13-.08h.11s0,0,0,0h.04s0,0,0,0h.03s0-.01,0-.01h.03s0-.01,0-.01c.61-.23,1.2-.53,1.75-.88h0s.02-.02.02-.02h.01s0,0,0,0h0s0,0,0,0c0,0,0,0,.01,0l37.55-24.98c1.66-4.78,2.56-9.91,2.56-15.25,0-5.72-1.03-11.21-2.93-16.27ZM54.5,1.41c.02-.08.07-.16.14-.21.07-.05.15-.08.24-.08.03,0,.07,0,.1.01.1.03.18.09.23.18.05.09.07.19.04.29l-.9,3.42c-.02.08-.07.16-.14.21-.07.05-.15.08-.24.08-.03,0-.07,0-.1-.01-.1-.03-.18-.09-.23-.18-.05-.09-.07-.19-.04-.29l.9-3.42ZM51.79,11.67l.9-3.42c.02-.08.07-.16.14-.21.07-.05.15-.08.24-.08.03,0,.07,0,.1.01.1.03.18.09.23.18.05.09.07.19.04.29l-.9,3.42c-.02.08-.07.16-.14.21-.07.05-.15.08-.24.08-.03,0-.07,0-.1-.01-.1-.03-.18-.09-.23-.18-.05-.09-.07-.19-.04-.29ZM49.98,18.52l.9-3.42c.02-.08.07-.16.14-.21.07-.05.15-.08.24-.08.03,0,.07,0,.1.01.1.03.18.09.23.18.05.09.06.19.04.29l-.9,3.42c-.02.08-.07.16-.14.21-.07.05-.15.08-.24.08-.03,0-.07,0-.1-.01-.1-.03-.18-.09-.23-.18-.05-.09-.07-.19-.04-.29ZM48.17,25.36l.9-3.42c.02-.08.07-.16.14-.21s.15-.08.24-.08c.03,0,.07,0,.1.01.1.03.18.09.23.18.05.09.06.19.04.29l-.9,3.42c-.02.08-.07.16-.14.21-.07.05-.15.08-.24.08-.03,0-.07,0-.1-.01-.1-.03-.18-.09-.23-.18-.05-.09-.07-.19-.04-.29ZM45.67,22.27c.05-.09.14-.15.23-.18.03,0,.07-.01.1-.01.09,0,.17.03.24.08.07.05.12.13.14.21.14.55.28,1.08.41,1.55,0,0,0,.01,0,.02h0v.04c.19.68.34,1.28.47,1.77h0v.02l.02.03c.03.1.01.2-.04.29-.05.09-.14.15-.23.18-.03,0-.07.01-.1.01-.09,0-.17-.03-.24-.08-.07-.05-.12-.13-.14-.21-.29-1.1-.6-2.26-.9-3.43-.03-.1-.01-.2.04-.29ZM43.83,15.54c0-.05.02-.1.05-.14.03-.04.06-.08.1-.11.04-.03.09-.05.14-.07.05-.01.1-.02.15,0,.05,0,.1.02.14.05.04.03.08.06.11.1.03.04.05.09.07.14l.36,1.42s0,0,0,0c0,.01.01.02.01.04.17.67.34,1.33.51,1.96.01.05.02.1,0,.15,0,.05-.02.1-.05.14-.03.04-.06.08-.1.11-.04.03-.09.05-.14.07-.03,0-.07.01-.1.01-.09,0-.17-.03-.24-.08-.07-.05-.12-.13-.14-.21-.3-1.17-.6-2.33-.89-3.43-.01-.05-.02-.1,0-.15ZM44.01,40.16c.06.04.09.11.1.18v.07s5.08.37,5.08.37l.04.2.06-.4s.02-.07.03-.1c.02-.03.04-.06.07-.08.03-.02.06-.04.1-.05.03,0,.07-.01.11,0,.04,0,.07.02.1.04.03.02.06.04.08.07.02.03.04.06.04.1,0,.03,0,.07,0,.11l-.28,1.82,1.99,9.69-2.46,2.4-5.7-.49-1.86-2.73,2.11-10.72-.03-.22c0-.07.01-.14.05-.2.04-.06.11-.09.18-.1.07,0,.14.01.2.05ZM42.86,8.63l.09.36h0c.13.52.26,1.04.39,1.56h0s.01.05.01.05v.04s0,0,0,0c0,0,0,0,0,0,0,0,0,0,0,0v.02s0,0,0,0h0v.02c.11.45.23.9.36,1.35.02.1,0,.21-.04.29-.05.09-.14.15-.24.18-.03,0-.06.01-.1.01-.09,0-.17-.03-.24-.08-.07-.05-.12-.13-.14-.21-.31-1.21-.59-2.36-.87-3.44-.01-.05-.01-.1,0-.15,0-.05.02-.1.05-.14.03-.04.06-.08.1-.11s.09-.05.14-.06c.03,0,.06-.01.09-.01.09,0,.17.03.24.08.07.05.12.13.14.21ZM40.4,1.93s-.01-.1,0-.15c0-.05.03-.1.05-.14.03-.04.06-.08.1-.11s.09-.05.14-.06c.03,0,.06-.01.09-.01.09,0,.17.03.24.08.07.05.12.13.14.22.11.47.23.97.35,1.49.15.62.31,1.27.47,1.95.01.05.01.1,0,.15,0,.05-.03.1-.05.14-.03.04-.06.08-.1.11-.04.03-.09.05-.14.06-.03,0-.06.01-.09.01-.09,0-.17-.03-.24-.08s-.12-.13-.14-.21c-.32-1.29-.59-2.45-.83-3.45ZM51.82,80.08c-8.96.85-12.09-12.55-12.09-12.55,0,0,.71-10.73,10.97-10.92,10.26-.2-1.07,12.84-1.07,12.84,0,0,11.14,9.78,2.18,10.63Z" fill="#f0549e"/><path d="M18.53,82.64l-2.91-1.41s0,0,0,0l2.9,1.41c.42.2.76.54.98.95.15.28.22.59.24.91,0,0,0,0,0,0-.01-.31-.09-.62-.24-.91-.21-.41-.56-.75-.98-.95Z" fill="#f0549e"/><path d="M51.76,88.57c.63-.26,1.23-.58,1.78-.94l36.3-24.15s0,0,0,0l-36.31,24.16c-.55.37-1.15.68-1.78.94Z" fill="#f0549e"/><path d="M47.22,90.53c-2.65,0-5.21-.78-7.2-2.2L2.56,61.64s0,0,0,0l37.47,26.7c1.99,1.42,4.54,2.2,7.2,2.2s4.97-.71,6.91-2l34.96-23.26s0,0,0,0l-34.96,23.26c-1.94,1.29-4.4,2-6.91,2Z" fill="#f0549e"/><path d="M20.16,51.84c-.38-.04-.76-.1-1.13-.17-12.3-1.72-15.38-13.5-16.02-21.56-.31.83-.6,1.67-.87,2.53.3,8.29,3.53,18.88,18.02,19.21Z" fill="#000002"/><path d="M4.86,39.06c1,2.92,2.38,5.38,4.11,7.31,2.28,2.55,5.19,4.22,8.67,4.97-4.86-1.41-8.89-5.24-10.3-10.47-.52-1.9-.67-3.88-.42-5.84.25-1.96.88-3.84,1.85-5.55.33-.57.69-1.12,1.09-1.64l-4.3-3.33c-.94,1.74-1.77,3.55-2.48,5.42.03.44.07.88.12,1.32.3,2.86.86,5.49,1.66,7.83Z" fill="#ffcf06"/><path d="M19.03,51.67c-.47-.09-.93-.2-1.39-.33-3.48-.75-6.39-2.41-8.67-4.97-1.73-1.93-3.11-4.39-4.11-7.31-.8-2.34-1.36-4.97-1.66-7.83-.05-.44-.08-.88-.12-1.32-.02.06-.05.12-.07.18.64,8.07,3.72,19.84,16.02,21.56Z" fill="#ffcf06"/><path d="M9.91,27.77l-4.31-3.34s-.03.05-.04.08l4.3,3.33s.03-.05.05-.07Z" fill="#ffcf06"/><path d="M66.71,51.41c-7.96-2.15-12.69-10.38-10.54-18.34h0c.74-2.72,2.22-5.15,4.25-7.04-.74.53-1.42,1.12-2.05,1.77-2.47,2.57-3.99,6.01-3.99,9.79,0,7.98,6.76,14.45,15.09,14.45.75,0,1.48-.05,2.19-.15-.35.03-.71.04-1.07.04-1.32,0-2.63-.18-3.9-.52Z" fill="#000002"/><path d="M85.05,40.87c-1.58,5.85-6.45,9.96-12.08,10.87,4.76-.34,8.6-2.14,11.43-5.35,1.7-1.93,3.05-4.39,4.01-7.31.77-2.34,1.29-4.97,1.55-7.83.04-.4.07-.81.09-1.21-.73-1.92-1.58-3.78-2.54-5.56l-4.8,3.72c2.56,3.53,3.57,8.15,2.34,12.68Z" fill="#ffcf06"/><path d="M82.7,28.19l4.8-3.72s-.03-.05-.04-.07l-4.81,3.72s.03.05.05.07Z" fill="#ffcf06"/><path d="M88.4,39.08c-.96,2.92-2.31,5.38-4.01,7.31-2.83,3.21-6.67,5.01-11.43,5.35-.38.06-.76.11-1.14.14,14.41-.33,17.72-13.04,18.3-21.65-.02-.06-.05-.13-.07-.19-.03.4-.06.81-.09,1.21-.26,2.86-.78,5.49-1.55,7.83Z" fill="#ffcf06"/><path d="M11.21,28.88c-1.24,1.62-2.09,3.51-2.49,5.51-.39,2-.32,4.07.21,6.05,1.91,7.09,9.24,11.3,16.33,9.39,7.09-1.91,11.3-9.24,9.39-16.33-.76-2.83-2.44-5.33-4.76-7.1s-5.17-2.74-8.1-2.74h-.01c-2.04,0-4.06.47-5.89,1.38-1.83.91-3.43,2.22-4.67,3.84ZM30.3,39.44c.03-.14.12-.27.24-.35.12-.08.27-.11.42-.08.14.03.27.11.35.24.08.12.11.27.09.41,0,.04-.14.67-.64,1.5l1.76,1.32h0c.11.09.19.22.21.37.02.15-.02.29-.11.41s-.22.2-.36.22c-.14.02-.29-.01-.41-.1l-1.74-1.31c-.12.14-.25.29-.4.43-.66.66-1.65,1.38-3.09,1.91l.77,1.68c.06.13.06.29.01.43s-.16.25-.29.31c-.13.06-.29.07-.43.02-.14-.05-.25-.15-.32-.29l-.83-1.81c-1.28.32-2.6.48-3.92.46h-.15v2.81c0,.08,0,.15-.04.22-.03.07-.07.14-.12.19-.05.05-.12.1-.18.13-.07.03-.14.04-.22.04s-.15-.02-.22-.04c-.07-.03-.13-.07-.18-.13-.05-.05-.09-.12-.12-.19-.03-.07-.04-.15-.04-.22v-2.86c-.95-.07-1.88-.26-2.79-.54l-1.46,2.03c-.04.06-.1.11-.16.15-.06.04-.13.06-.21.08-.07.01-.15,0-.22,0-.07-.02-.14-.05-.2-.09-.06-.04-.11-.1-.15-.16-.04-.06-.06-.13-.08-.21-.01-.07,0-.15,0-.22.02-.07.05-.14.09-.2l1.29-1.78c-1.1-.48-2.1-1.15-2.96-1.98l-1.74,1.36c-.12.09-.27.13-.42.11-.15-.02-.28-.1-.37-.21-.09-.12-.13-.27-.11-.42.02-.15.1-.28.21-.37l1.67-1.3c-1.23-1.5-1.62-2.89-1.64-2.95-.03-.14-.01-.29.06-.41.07-.12.19-.22.33-.26.14-.04.29-.02.42.05.13.07.22.18.27.32,0,.02.45,1.52,1.81,2.99.96,1.02,2.14,1.8,3.46,2.28.04.01.09.03.13.05,1.2.43,2.54.64,4.02.64,3.17,0,5.67-.81,7.25-2.34,1.18-1.14,1.44-2.31,1.44-2.32Z" fill="#9105c6"/><path d="M9.86,27.84c-.4.52-.76,1.07-1.09,1.64-.98,1.71-1.61,3.6-1.85,5.55-.25,1.96-.1,3.94.42,5.84,1.41,5.23,5.44,9.06,10.3,10.47.46.13.92.24,1.39.33.37.07.75.13,1.13.17.54.06,1.08.09,1.62.09,1.32,0,2.63-.18,3.9-.52,7.96-2.15,12.69-10.38,10.54-18.34-.5-1.91-1.38-3.69-2.58-5.26-1.2-1.57-2.69-2.88-4.4-3.87-1.71-.99-3.59-1.63-5.54-1.88-1.95-.26-3.94-.12-5.84.39-1.9.51-3.68,1.4-5.24,2.6-1.02.79-1.92,1.7-2.7,2.71-.02.02-.03.05-.05.07ZM15.88,25.04c1.83-.91,3.85-1.38,5.89-1.38h.01c2.93,0,5.78.96,8.1,2.74s4,4.28,4.76,7.1c1.91,7.09-2.3,14.41-9.39,16.33-7.09,1.91-14.41-2.3-16.33-9.39-.53-1.97-.6-4.04-.21-6.05.39-2,1.25-3.89,2.49-5.51,1.24-1.62,2.84-2.94,4.67-3.84Z" fill="#ffcf06"/><path d="M83.47,40.45c1.91-7.09-2.29-14.41-9.39-16.33-1.13-.31-2.29-.46-3.46-.46-2.93,0-5.78.96-8.1,2.74-2.33,1.78-4,4.28-4.76,7.1-1.91,7.09,2.29,14.41,9.39,16.33,1.13.31,2.3.46,3.47.46,5.87,0,11.26-3.91,12.86-9.84ZM70.9,48.44c-.05-.05-.09-.12-.12-.19-.03-.07-.04-.15-.04-.22v-2.81h-.15c-1.32.01-2.64-.14-3.92-.46l-.83,1.81c-.06.13-.18.24-.32.29-.14.05-.29.04-.43-.02-.13-.06-.24-.17-.29-.31-.05-.14-.05-.29.01-.43l.77-1.68c-1.44-.54-2.43-1.26-3.09-1.91-.14-.14-.28-.29-.4-.43l-1.74,1.31c-.06.05-.13.08-.2.1-.07.02-.15.03-.22.02-.07,0-.15-.03-.21-.07-.06-.04-.12-.09-.17-.15-.04-.06-.08-.13-.1-.2-.02-.07-.02-.15,0-.22.01-.07.04-.14.08-.21.04-.06.09-.12.15-.16l1.76-1.32c-.5-.83-.64-1.46-.64-1.5-.03-.15,0-.3.08-.42.08-.12.21-.21.36-.24.15-.03.3,0,.42.08.12.08.21.21.24.36,0,0,.26,1.17,1.44,2.32,1.58,1.53,4.09,2.34,7.25,2.34,1.49,0,2.83-.22,4.02-.64.04-.02.08-.04.13-.05,1.32-.47,2.5-1.26,3.46-2.28,1.37-1.47,1.81-2.97,1.81-2.99.04-.14.14-.25.27-.32.13-.07.28-.09.42-.05.14.04.26.13.33.26.07.12.1.27.06.41-.02.06-.41,1.45-1.64,2.95l1.67,1.3h0c.06.05.11.11.15.17.04.06.06.14.08.21s0,.15-.01.22c-.02.07-.05.14-.1.2-.05.06-.1.11-.17.15-.07.04-.14.06-.21.07-.08,0-.15,0-.22-.02-.07-.02-.14-.06-.2-.11l-1.74-1.36c-.86.83-1.86,1.5-2.96,1.98l1.29,1.78c.04.06.07.13.09.2.02.07.02.15,0,.22-.01.07-.04.14-.08.21-.04.06-.09.12-.15.16-.06.04-.13.07-.2.09-.07.02-.15.02-.22,0-.07-.01-.14-.04-.21-.08-.06-.04-.12-.09-.16-.15l-1.46-2.03c-.91.28-1.84.47-2.79.54v2.86c0,.08,0,.15-.04.22-.03.07-.07.14-.12.19-.05.05-.12.1-.18.13-.07.03-.14.04-.22.04s-.15-.02-.22-.04c-.07-.03-.13-.07-.18-.13Z" fill="#9105c6"/><path d="M72.96,51.74c5.63-.91,10.5-5.01,12.08-10.87,1.22-4.53.22-9.15-2.34-12.68-.02-.02-.03-.05-.05-.07-1.94-2.64-4.75-4.67-8.15-5.59-3.83-1.03-7.91-.5-11.35,1.47-.99.57-1.91,1.25-2.74,2.02-2.03,1.89-3.51,4.32-4.25,7.04h0c-2.15,7.96,2.58,16.19,10.54,18.34,1.27.34,2.58.52,3.9.52.36,0,.72-.01,1.07-.04.05,0,.1,0,.14-.01.38-.03.77-.08,1.14-.14ZM67.14,49.83c-7.09-1.91-11.3-9.24-9.39-16.33.76-2.83,2.44-5.33,4.76-7.1,2.33-1.78,5.17-2.74,8.1-2.74,1.17,0,2.33.16,3.46.46,7.09,1.91,11.3,9.24,9.39,16.33-1.6,5.93-6.99,9.84-12.86,9.84-1.17,0-2.34-.16-3.47-.46Z" fill="#ffcf06"/><polygon points="43.61 40.62 41.5 51.34 45.01 51.63 43.61 40.62" fill="#ffcf06"/><polygon points="47.56 51.84 49.22 40.97 49.18 40.77 44.12 40.4 45.55 51.67 47.56 51.84" fill="#ffcf06"/><polygon points="51.52 52.16 49.53 42.47 48.09 51.88 51.52 52.16" fill="#ffcf06"/><path d="M43.63,40.21c-.04.06-.06.13-.05.2l.03.22,1.4,11.01.54.04-1.44-11.27v-.07c-.02-.07-.05-.13-.11-.18-.06-.04-.13-.06-.2-.05-.07,0-.13.05-.18.1Z" fill="#9105c6"/><path d="M48.09,51.88l1.44-9.41.28-1.82s0-.07,0-.11c0-.03-.02-.07-.04-.1-.02-.03-.05-.05-.08-.07-.03-.02-.06-.03-.1-.04-.04,0-.07,0-.11,0-.03,0-.07.02-.1.05-.03.02-.05.05-.07.08-.02.03-.03.07-.03.1l-.06.4-1.66,10.87.53.04Z" fill="#9105c6"/><polygon points="47.56 51.84 45.55 51.67 45.01 51.63 41.5 51.34 43.35 54.07 49.06 54.56 51.52 52.16 48.09 51.88 47.56 51.84" fill="#000002"/><path d="M27.83,14.1c2.54,0,5.08.18,7.6.55.49-.96.89-1.97,1.18-3.01.79-2.87.28-4.61-.29-5.57-1.08-1.83-3.41-2.75-6.92-2.75h0s-.08,0-.12,0c-7.07,2.83-13.29,7.35-18.15,13.05-.38,1.02-.7,2.05-1,3.07,4.46-4.4,12.06-5.33,17.7-5.33Z" fill="#ffcf06"/><path d="M27.83,14.19c4.36,0,7.64.55,7.64.55,0,0,6.32-11.46-5.99-11.51-.07.03-.14.06-.21.08.04,0,.08,0,.12,0h0c3.51,0,5.84.93,6.92,2.76.57.96,1.07,2.7.29,5.57-.29,1.04-.68,2.05-1.18,3.01-2.52-.37-5.06-.55-7.6-.55-5.64,0-13.24.93-17.7,5.33.3-1.02.62-2.05,1-3.07-.05.06-.11.13-.16.19-.41,1.12-.73,2.2-1.01,3.18,4.39-4.56,12.08-5.54,17.88-5.54Z" fill="#ffcf06"/><path d="M64.36,4.68h0c-3.03,0-5.09.84-6.14,2.5-.58.93-1.14,2.63-.51,5.5.23,1.04.57,2.05,1,3.02.35-.04,2.15-.21,4.66-.21,2.69,0,6.72.2,10.63,1.17,4.28,1.06,7.54,2.81,9.72,5.2-.41-1.75-.9-3.54-1.58-5.28-4.06-4.83-9.09-8.82-14.79-11.67-.39-.05-.8-.1-1.2-.14-.63-.06-1.23-.09-1.79-.09Z" fill="#ffcf06"/><path d="M64.36,4.59h0c-11.1,0-5.7,11.2-5.7,11.2,1.57-.15,3.14-.22,4.71-.21,5.84,0,15.61.92,20.5,6.59-.37-1.6-.84-3.47-1.57-5.39-.05-.06-.11-.13-.16-.19.68,1.75,1.17,3.53,1.58,5.28-2.17-2.39-5.44-4.14-9.72-5.2-3.9-.97-7.93-1.17-10.63-1.17-2.51,0-4.32.17-4.66.21-.43-.97-.77-1.98-1-3.02-.63-2.86-.07-4.57.51-5.5,1.04-1.66,3.11-2.5,6.14-2.5h0c.56,0,1.16.03,1.79.09.41.04.81.08,1.2.14-.08-.04-.15-.08-.23-.11-.32-.04-.64-.08-.97-.11-.64-.06-1.24-.09-1.8-.09Z" fill="#ffcf06"/><path d="M47.93,24L54.1.61C51.88.25,49.61.04,47.29,0h-1.51c-1.27.02-2.52.09-3.76.21.5,3.47,5.9,23.78,5.9,23.78Z" fill="#ffcf06"/><path d="M42.39,8.35s-.1.03-.14.06-.08.07-.1.11c-.03.04-.04.09-.05.14,0,.05,0,.1,0,.15.27,1.07.56,2.23.87,3.44.02.08.07.16.14.21.07.05.15.08.24.08.03,0,.07,0,.1-.01.1-.03.18-.09.24-.18.05-.09.07-.19.04-.29-.13-.45-.25-.9-.36-1.35h0v-.02h0s0-.03,0-.03c0,0,0,0,0,0,0,0,0,0,0,0h0s0-.04,0-.04v-.05s-.01,0-.01,0c-.13-.52-.26-1.04-.39-1.55h0s-.09-.37-.09-.37c-.02-.08-.07-.16-.14-.21-.07-.05-.15-.08-.24-.08-.03,0-.06,0-.09.01Z" fill="#9105c6"/><path d="M41.37,5.6c.07.05.15.08.24.08.03,0,.06,0,.09-.01.05-.01.1-.03.14-.06.04-.03.08-.07.1-.11.03-.04.04-.09.05-.14,0-.05,0-.1,0-.15-.16-.68-.32-1.33-.47-1.95-.12-.52-.24-1.02-.35-1.49-.02-.09-.07-.16-.14-.22-.07-.05-.15-.08-.24-.08-.03,0-.06,0-.09.01-.05.01-.1.03-.14.06s-.08.07-.1.11c-.03.04-.05.09-.05.14,0,.05,0,.1,0,.15.23,1,.51,2.16.83,3.45.02.08.07.16.14.21Z" fill="#9105c6"/><path d="M53.63,5.12c.05.09.14.15.23.18.03,0,.07.01.1.01.09,0,.17-.03.24-.08.07-.05.12-.13.14-.21l.9-3.42c.03-.1.01-.2-.04-.29-.05-.09-.14-.15-.23-.18-.03,0-.07-.01-.1-.01-.09,0-.17.03-.24.08-.07.05-.12.13-.14.21l-.9,3.42c-.03.1-.01.2.04.29Z" fill="#9105c6"/><path d="M50.25,18.99s.07.01.1.01c.09,0,.17-.03.24-.08.07-.05.12-.13.14-.21l.9-3.42c.03-.1.01-.2-.04-.29-.05-.09-.14-.15-.23-.18-.03,0-.07-.01-.1-.01-.09,0-.17.03-.24.08-.07.05-.12.13-.14.21l-.9,3.42c-.03.1-.01.2.04.29.05.09.14.15.23.18Z" fill="#9105c6"/><path d="M52.06,12.15s.07.01.1.01c.09,0,.17-.03.24-.08.07-.05.12-.13.14-.21l.9-3.42c.03-.1.01-.2-.04-.29-.05-.09-.14-.15-.23-.18-.03,0-.07-.01-.1-.01-.09,0-.17.03-.24.08-.07.05-.12.13-.14.21l-.9,3.42c-.03.1-.01.2.04.29.05.09.14.15.23.18Z" fill="#9105c6"/><path d="M48.44,25.84s.07.01.1.01c.09,0,.17-.03.24-.08.07-.05.12-.13.14-.21l.9-3.42c.03-.1.01-.2-.04-.29-.05-.09-.14-.15-.23-.18-.03,0-.07-.01-.1-.01-.09,0-.17.03-.24.08s-.12.13-.14.21l-.9,3.42c-.03.1-.01.2.04.29.05.09.14.15.23.18Z" fill="#9105c6"/><path d="M46.54,25.99c.02.08.07.16.14.21.07.05.15.08.24.08.03,0,.07,0,.1-.01.1-.03.18-.09.23-.18.05-.09.07-.19.04-.29l-.02-.03h0v-.02c-.13-.49-.29-1.09-.47-1.77v-.02s0-.01,0-.01h0s0-.02,0-.02c-.13-.48-.26-1-.41-1.55-.02-.08-.07-.16-.14-.21-.07-.05-.15-.08-.24-.08-.03,0-.07,0-.1.01-.1.03-.18.09-.23.18-.05.09-.07.19-.04.29.31,1.17.61,2.32.9,3.43Z" fill="#9105c6"/><path d="M44.72,19.12c.02.08.07.16.14.21.07.05.15.08.24.08.03,0,.07,0,.1-.01.05-.01.1-.04.14-.07.04-.03.08-.07.1-.11.03-.04.04-.09.05-.14,0-.05,0-.1,0-.15-.17-.64-.34-1.29-.51-1.96,0-.01,0-.02-.01-.04,0,0,0,0,0,0l-.36-1.42s-.04-.1-.07-.14c-.03-.04-.07-.08-.11-.1-.04-.03-.09-.04-.14-.05-.05,0-.1,0-.15,0-.05.01-.1.04-.14.07-.04.03-.08.07-.1.11-.03.04-.04.09-.05.14,0,.05,0,.1,0,.15.28,1.1.58,2.26.89,3.43Z" fill="#9105c6"/><path d="M46.86,68.41c.31.03.62.07.93.12-.03-.25-.02-.5.03-.75-.3.23-.62.44-.95.62Z" fill="#9105c6"/><path d="M49.64,69.45s11.33-13.03,1.07-12.84c-10.26.2-10.97,10.92-10.97,10.92,0,0,3.13,13.4,12.09,12.55,8.96-.85-2.18-10.63-2.18-10.63ZM49.41,69.33s-.04.09-.07.12c-.03.04-.07.07-.11.09-.04.02-.09.03-.13.04-.05,0-.09,0-.14-.02-4.31-1.36-5.61.66-5.67.75-.05.08-.13.14-.22.16s-.19,0-.27-.04c-.08-.05-.14-.13-.16-.22-.02-.09,0-.19.04-.27.11-.18.25-.34.41-.48-.05-.05-.08-.11-.09-.17-.01-.06-.01-.13.01-.19.02-.06.06-.12.11-.16.05-.04.11-.07.18-.08,1.09-.17,2.14-.52,3.12-1.04.71-.37,1.34-.87,1.86-1.46.01-.02.03-.04.04-.05.77-.92,1.18-2.04,1.21-3.35,0-.09.04-.18.11-.25.07-.07.16-.1.25-.1.09,0,.18.04.25.11.07.07.1.16.1.25-.04,1.45-.5,2.72-1.37,3.76-.24.5-.54,1.41-.37,1.82.01.04.04.08.07.1.03.03.07.05.11.06.16.04.32.09.48.14h0s.09.03.12.06c.04.03.07.07.09.11.02.04.03.09.04.13,0,.05,0,.09-.02.14Z" fill="#9105c6"/><path d="M49.3,68.95s-.08-.05-.12-.07h0c-.17-.05-.33-.1-.48-.14-.04-.01-.08-.03-.11-.06-.03-.03-.05-.07-.07-.1-.17-.41.13-1.32.37-1.82.87-1.05,1.33-2.31,1.37-3.76,0-.09-.03-.19-.1-.25-.07-.07-.15-.11-.25-.11-.09,0-.19.03-.25.1-.07.07-.11.15-.11.25-.03,1.3-.44,2.42-1.21,3.35-.02.02-.03.03-.04.05-.53.6-1.16,1.09-1.86,1.46-.97.52-2.03.87-3.12,1.04-.07,0-.13.03-.18.08-.05.04-.09.1-.11.16-.02.06-.03.13-.01.19.01.06.05.12.09.17-.16.14-.3.3-.41.48-.05.08-.06.18-.04.27.02.09.08.17.16.22.08.05.18.06.27.04s.17-.08.22-.16c.05-.09,1.36-2.11,5.67-.75.04.01.09.02.14.02.05,0,.09-.02.13-.04.04-.02.08-.05.11-.09.03-.04.05-.08.07-.12.01-.04.02-.09.02-.14,0-.05-.02-.09-.04-.13-.02-.04-.05-.08-.09-.11ZM47.78,68.53c-.31-.06-.61-.1-.93-.12.33-.18.65-.39.95-.62-.05.25-.06.5-.03.75Z" fill="#000002"/><path d="M21.61,44.09c-1.48,0-2.83-.21-4.02-.64-.04-.02-.08-.04-.13-.05-1.32-.47-2.5-1.26-3.46-2.28-1.37-1.47-1.81-2.97-1.81-2.99-.04-.14-.14-.25-.27-.32-.13-.07-.28-.09-.42-.05-.14.04-.26.13-.33.26-.07.12-.1.27-.06.41.02.06.41,1.45,1.64,2.95l-1.67,1.3c-.12.09-.2.22-.21.37-.02.15.02.3.11.42.09.12.22.2.37.21.15.02.3-.02.42-.11l1.74-1.36c.86.83,1.86,1.5,2.96,1.98l-1.29,1.78c-.04.06-.07.13-.09.2-.02.07-.02.15,0,.22.01.07.04.14.08.21.04.06.09.12.15.16.06.04.13.07.2.09.07.02.15.02.22,0,.07-.01.14-.04.21-.08.06-.04.12-.09.16-.15l1.46-2.03c.91.28,1.84.47,2.79.54v2.86c0,.08,0,.15.04.22.03.07.07.14.12.19.05.05.12.1.18.13.07.03.14.04.22.04s.15-.02.22-.04c.07-.03.13-.07.18-.13.05-.05.09-.12.12-.19.03-.07.04-.15.04-.22v-2.81h.15c1.32.01,2.64-.14,3.92-.46l.83,1.81c.06.13.18.24.32.29.14.05.29.04.43-.02.13-.06.24-.17.29-.31s.05-.29-.01-.43l-.77-1.68c1.44-.53,2.43-1.26,3.09-1.91.14-.14.27-.29.4-.43l1.74,1.31c.12.08.27.12.41.1.14-.02.27-.1.36-.22s.13-.26.11-.41c-.02-.15-.09-.28-.21-.37h0l-1.76-1.32c.5-.83.64-1.46.64-1.5.03-.14,0-.29-.09-.41-.08-.12-.21-.21-.35-.24-.14-.03-.29,0-.42.08-.12.08-.21.2-.24.35,0,.01-.27,1.18-1.44,2.32-1.58,1.53-4.09,2.34-7.25,2.34Z" fill="#000002"/><path d="M71.31,48.61c.08,0,.15-.02.22-.04.07-.03.13-.07.18-.13.05-.05.09-.12.12-.19.03-.07.04-.15.04-.22v-2.86c.95-.07,1.88-.26,2.79-.54l1.46,2.03c.04.06.1.11.16.15.06.04.13.06.21.08.07.01.15,0,.22,0,.07-.02.14-.05.2-.09.06-.04.11-.1.15-.16.04-.06.06-.13.08-.21.01-.07,0-.15,0-.22-.02-.07-.05-.14-.09-.2l-1.29-1.78c1.1-.48,2.1-1.15,2.96-1.98l1.74,1.36c.06.05.12.09.2.11.07.02.15.03.22.02.08,0,.15-.03.21-.07.07-.04.12-.09.17-.15.05-.06.08-.13.1-.2.02-.07.02-.15.01-.22s-.04-.15-.08-.21c-.04-.06-.09-.12-.15-.16h0s-1.67-1.31-1.67-1.31c1.22-1.5,1.62-2.89,1.64-2.95.03-.14.01-.29-.06-.41-.07-.12-.19-.22-.33-.26-.14-.04-.29-.02-.42.05-.13.07-.22.18-.27.32,0,.01-.44,1.51-1.81,2.99-.96,1.02-2.14,1.8-3.46,2.28-.04.01-.09.03-.13.05-1.2.42-2.54.63-4.02.64-3.17,0-5.67-.81-7.25-2.34-1.18-1.14-1.44-2.31-1.44-2.32-.03-.15-.12-.27-.24-.36-.12-.08-.28-.11-.42-.08-.15.03-.27.12-.36.24-.08.12-.11.28-.08.42,0,.04.14.67.64,1.5l-1.76,1.32c-.06.04-.11.1-.15.16-.04.06-.07.13-.08.21-.01.07,0,.15,0,.22.02.07.05.14.1.2.04.06.1.11.17.15.06.04.14.06.21.07.07,0,.15,0,.22-.02.07-.02.14-.05.2-.1l1.74-1.31c.12.14.25.29.4.43.66.66,1.65,1.38,3.09,1.91l-.77,1.68c-.06.13-.06.29-.01.43.05.14.16.25.29.31.13.06.29.07.43.02.14-.05.25-.15.32-.29l.83-1.81c1.28.32,2.6.48,3.92.46h.15v2.81c0,.08,0,.15.04.22.03.07.07.14.12.19.05.05.12.1.18.13.07.03.14.04.22.04Z" fill="#000002"/><path d="M47.22,90.53c-2.65,0-5.21-.78-7.2-2.2L2.56,61.64c2.62,7.62,7.17,14.35,13.06,19.6l2.91,1.41c.42.2.76.54.98.95.15.28.22.59.24.91,7.57,5.35,16.82,8.5,26.8,8.5s19.45-3.22,27.07-8.69c.04-.34.16-.66.36-.94.24-.36.59-.63,1-.79l1.73-.67c5.29-4.51,9.56-10.19,12.4-16.63l-34.96,23.26c-1.94,1.29-4.4,2-6.91,2Z" fill="#ffcf06"/><path d="M.04,60.12s-.05-.02-.08-.04" fill="#ffcf06"/><path d="M2.73,60.43l37.93,27.03c1.27.9,2.8,1.52,4.44,1.81-.9-.19-1.78-.48-2.61-.88-.08-.04-.14-.1-.18-.18s-.05-.17-.03-.25c.02-.09.07-.16.14-.22.07-.05.15-.08.24-.08.06,0,.12.01.17.04h.02s.02.02.02.02h.02s.02.02.02.02h.02s.02.02.02.02h.02s0,.01,0,.01h.03s.01,0,.01,0h.01s0,0,0,0h.04s0,0,0,0h0s0,0,0,0h0s0,0,0,0h0s0,0,0,0h.04s0,0,0,0h.02s0,0,0,0h.44s.01,0,.01,0h.07s.02.01.02.01h.02s.02.01.02.01h.02s.09.03.13.05c-.97-.3-1.88-.73-2.69-1.31l-2.23-1.59c.06.05.1.11.13.18.03.08.03.16,0,.24-.03.08-.07.15-.14.2-.07.05-.15.07-.23.07-.08,0-.16-.02-.23-.07l-3.45-2.46c-.07-.05-.12-.12-.14-.19-.03-.08-.03-.16,0-.24.03-.08.07-.15.14-.2.07-.05.15-.07.23-.07.07,0,.14.02.2.06l-3.41-2.43c.06.05.11.11.13.18.03.08.03.16,0,.24-.03.08-.07.15-.14.19-.07.05-.15.07-.23.07-.08,0-.16-.02-.23-.07l-3.45-2.46c-.08-.06-.14-.15-.16-.25-.02-.1,0-.21.07-.29.06-.08.15-.14.25-.16.1-.02.2,0,.28.06l-3.44-2.45c.06.05.11.11.14.19.03.08.03.16,0,.24-.03.08-.07.15-.14.2-.07.05-.15.08-.23.08-.08,0-.16-.03-.23-.07l-3.45-2.46c-.08-.06-.13-.15-.15-.25-.01-.1,0-.2.07-.28.06-.08.15-.14.24-.16.09-.02.19,0,.27.05l-3.44-2.45h0s.08.07.1.11c.03.04.04.09.05.14,0,.05,0,.1,0,.15-.01.05-.03.1-.06.14-.03.04-.07.08-.11.1-.04.03-.09.05-.14.05-.05,0-.1,0-.15,0-.05-.01-.1-.03-.14-.06l-3.45-2.46c-.08-.06-.14-.15-.16-.25-.02-.1,0-.21.07-.29.06-.08.15-.14.25-.16s.21,0,.29.07l.56.4-3.99-2.84c.08.06.14.15.15.25.02.1,0,.21-.07.29-.06.08-.15.14-.25.16-.1.02-.21,0-.29-.07l-3.45-2.46c-.07-.05-.12-.12-.14-.19-.03-.08-.03-.16,0-.24.03-.08.07-.15.14-.2s.15-.07.23-.08c.08,0,.16.03.23.07l1.39.99h0l-6.01-4.29c-.56-.4-1.14-.75-1.75-1.07.01.05.03.1.04.15.45.23.9.48,1.32.75h0s0,.01,0,.01h0s.05.04.05.04h0s0,0,0,0h0s0,0,0,0h0s0,0,0,0l.04.03h0s0,0,0,0h0s0,0,0,0h.01s0,0,0,0l.02.02h0s0,0,0,0h.03s0,0,0,0h.04s0,0,0,0h.03s0,0,0,0h0s0,0,0,0h.03s1.15.83,1.15.83l.22.24c.07.05.12.12.14.19.03.08.03.16,0,.24-.03.08-.07.15-.14.2s-.15.07-.23.07c-.08,0-.16-.02-.23-.07l-1.16-.82c-.38-.27-.77-.52-1.18-.75.03.1.06.19.09.29.24.15.48.3.71.47Z" fill="#f0549e"/><path d="M44.13,87.94c.06.02.11.03.17.05-.06-.02-.11-.03-.17-.05Z" fill="#f0549e"/><path d="M44.49,88.04c.08.02.17.04.25.06-.08-.02-.17-.04-.25-.06Z" fill="#f0549e"/><path d="M52.92,86.74h.02s1.54-1.03,1.54-1.03c.06-.04.14-.06.21-.06l.08-.11c.08,0,.16.03.23.08.07.05.12.12.14.2.02.08.02.17,0,.24-.03.08-.08.15-.15.19l-1.54,1.02c-.72.48-1.5.86-2.32,1.14-.05.02-.1.02-.15.02-.05,0-.1-.02-.15-.04-.05-.02-.09-.05-.12-.09-.03-.04-.06-.08-.08-.13-.02-.05-.02-.1-.02-.15,0-.05.02-.1.04-.15.01-.02.02-.04.04-.06-1.11.37-2.29.56-3.48.56-.8,0-1.6-.08-2.37-.25.59.13,1.18.21,1.78.24l.28.36c.1,0,.2.05.27.12.07.07.11.17.11.28s-.05.2-.12.27c-.03.03-.06.05-.09.06.05,0,.1,0,.15,0,1.58,0,3.14-.31,4.53-.88.63-.26,1.23-.58,1.78-.94l36.31-24.16c.06-.16.13-.32.19-.48l-3.33,2.21c-.09.06-.19.08-.29.06-.1-.02-.19-.08-.25-.17-.06-.09-.08-.19-.06-.29.02-.1.08-.19.17-.25l2.22-1.48.22-.14h.02s0-.02,0-.02h.01s.01-.02.01-.02h0s.01-.01.01-.01l.07-.05.92-.61c.06-.04.14-.07.21-.07l.03-.02c.08,0,.16.03.23.08.02.01.04.03.05.05.06-.17.12-.34.18-.51l-37.55,24.98s0,0-.01,0ZM79.01,69.52c.02-.1.08-.19.17-.25l3.53-2.35c.06-.04.14-.06.21-.06.08,0,.16.03.23.08.07.05.12.12.14.2.02.08.02.17,0,.24-.03.08-.08.15-.15.19l-3.53,2.35c-.09.06-.19.08-.29.06-.1-.02-.19-.08-.25-.17-.06-.09-.08-.19-.06-.29ZM71.96,74.22c.02-.1.08-.19.17-.25l3.53-2.35c.06-.04.14-.06.21-.06.08,0,.16.03.23.08.07.05.12.12.14.2.02.08.02.17,0,.24-.03.08-.08.15-.15.19l-3.53,2.35c-.09.06-.19.08-.29.06-.1-.02-.19-.08-.25-.17-.06-.09-.08-.19-.06-.29ZM64.9,78.91c.02-.1.08-.19.16-.25l3.53-2.35c.06-.04.14-.06.21-.06.08,0,.16.03.23.08.07.05.12.12.14.2.02.08.02.17,0,.24-.03.08-.08.15-.15.19l-3.53,2.35c-.09.06-.19.08-.29.06-.1-.02-.19-.08-.25-.16s-.08-.19-.06-.29ZM57.86,83.56c.03-.08.08-.15.15-.19l3.53-2.35c.06-.04.14-.06.22-.06.08,0,.16.03.23.08.07.05.12.12.14.2.02.08.02.17,0,.24-.03.08-.08.15-.15.19l-3.53,2.35c-.06.04-.14.07-.22.07-.08,0-.16-.03-.23-.08-.07-.05-.12-.12-.14-.2-.02-.08-.02-.17,0-.24Z" fill="#f0549e"/><polygon points="52.91 86.74 52.91 86.74 52.91 86.74 52.91 86.74" fill="#f0549e"/><path d="M18.53,82.64l-2.9-1.41c1.31,1.16,2.68,2.26,4.11,3.27-.01-.31-.09-.62-.24-.91-.21-.41-.56-.75-.98-.95Z" fill="#f0549e"/><path d="M73.97,83.37c-.19.28-.32.61-.36.94,1.06-.76,2.09-1.56,3.08-2.41l-1.73.67c-.4.16-.75.43-1,.79Z" fill="#f0549e"/><path d="M51.76,88.57c-1.39.57-2.95.88-4.53.88-.05,0-.1,0-.15,0-.06.03-.12.05-.19.04h-.02c-.6-.03-1.19-.11-1.78-.23-1.64-.29-3.17-.9-4.44-1.81L2.73,60.43c-.23-.16-.47-.32-.71-.47.17.56.35,1.12.54,1.68l37.47,26.7c1.99,1.42,4.54,2.2,7.2,2.2s4.97-.71,6.91-2l34.96-23.26c.26-.59.51-1.19.75-1.79l-36.3,24.15c-.55.37-1.15.68-1.78.94Z" fill="#f0549e"/><path d="M-.04,60.08s.05.02.08.04" fill="#f0549e"/><path d="M35.12,82.52c-.07.05-.12.12-.14.2-.03.08-.02.16,0,.24.03.08.08.15.14.19l3.45,2.46c.07.05.14.07.23.07.08,0,.16-.03.23-.07.07-.05.12-.12.14-.2.03-.08.02-.16,0-.24-.02-.07-.07-.13-.13-.18,0,0,0,0-.02-.01h0s-3.45-2.46-3.45-2.46c0,0-.01,0-.02-.01-.06-.04-.13-.06-.2-.06-.08,0-.16.03-.23.07Z" fill="#9105c6"/><path d="M65.21,79.37c.1.02.21,0,.29-.06l3.53-2.35c.07-.05.12-.11.15-.19.03-.08.03-.16,0-.24-.02-.08-.07-.15-.14-.2-.07-.05-.15-.08-.23-.08-.08,0-.15.02-.21.06l-3.53,2.35c-.09.06-.14.15-.16.25-.02.1,0,.21.06.29s.15.14.25.16Z" fill="#9105c6"/><path d="M57.99,84c.07.05.15.08.23.08.08,0,.15-.02.22-.07l3.53-2.35c.07-.05.12-.11.15-.19.03-.08.03-.16,0-.24-.02-.08-.07-.15-.14-.2-.07-.05-.15-.08-.23-.08-.08,0-.15.02-.22.06l-3.53,2.35c-.07.05-.12.11-.15.19-.03.08-.03.16,0,.24.02.08.07.15.14.2Z" fill="#9105c6"/><path d="M50.62,88.02c0,.05,0,.1.02.15.02.05.04.09.08.13.03.04.07.07.12.09.05.02.1.04.15.04.05,0,.1,0,.15-.02.82-.28,1.6-.66,2.32-1.14l1.54-1.02c.07-.05.12-.11.15-.19.03-.08.03-.16,0-.24-.02-.08-.07-.15-.14-.2-.07-.05-.15-.08-.23-.08l-.08.11c-.08,0-.15.02-.21.06l-1.54,1.02h0s0,0,0,0h-.01s0,0,0,0h-.03s0,.02,0,.02c-.55.35-1.14.65-1.75.88h-.04s0,.01,0,.01h-.03s0,.01,0,.01h-.03s0,0,0,0h-.03s0,0,0,0h-.09s-.09.04-.13.08c-.02.02-.04.04-.05.06-.01.02-.03.04-.04.06-.02.05-.04.1-.04.15Z" fill="#9105c6"/><path d="M72.26,74.67c.1.02.21,0,.29-.06l3.53-2.35c.07-.05.12-.11.15-.19.03-.08.03-.16,0-.24-.02-.08-.07-.15-.14-.2-.07-.05-.15-.08-.23-.08-.08,0-.15.02-.21.06l-3.53,2.35c-.09.06-.15.15-.17.25-.02.1,0,.21.06.29.06.09.15.15.25.17Z" fill="#9105c6"/><path d="M79.32,69.98c.1.02.21,0,.29-.06l3.53-2.35c.07-.05.12-.11.15-.19.03-.08.03-.16,0-.24-.02-.08-.07-.15-.14-.2-.07-.05-.15-.08-.23-.08-.08,0-.15.02-.21.06l-3.53,2.35c-.09.06-.15.15-.17.25-.02.1,0,.21.06.29.06.09.15.15.25.17Z" fill="#9105c6"/><path d="M90.25,62.22c-.07-.05-.15-.08-.23-.08l-.03.02c-.08,0-.15.02-.21.07l-.92.61-.07.05h-.01s0,.01,0,.01h-.01s-.01.02-.01.02h0s-.02.02-.02.02l-.22.14-2.22,1.48c-.09.06-.15.15-.17.25-.02.1,0,.21.06.29.06.09.15.15.25.17.1.02.21,0,.29-.06l3.33-2.21c.09-.24.18-.48.27-.72-.02-.02-.03-.03-.05-.05Z" fill="#9105c6"/><path d="M3.11,60.42l1.16.82c.07.05.14.07.23.07.08,0,.16-.03.23-.07s.12-.12.14-.2c.03-.08.02-.16,0-.24-.03-.08-.08-.15-.14-.19l-.22-.24-1.15-.82h0s0,0,0,0h-.03s0,0,0,0h0s0,0,0,0h-.04s0,0,0,0h-.04s0,0,0,0h-.03s-.02-.02-.02-.02h0s0,0,0,0h-.01s0,0,0,0h-.01s-.04-.03-.04-.03h0s0,0,0,0h-.01s0,0,0,0h0s-.05-.04-.05-.04h0s0-.01,0-.01h0c-.43-.28-.87-.53-1.32-.76.09.35.19.7.29,1.04.41.23.8.48,1.18.75Z" fill="#9105c6"/><path d="M7.97,62.84c-.07-.05-.14-.07-.23-.07-.08,0-.16.03-.23.08s-.12.12-.14.2c-.03.08-.02.16,0,.24.03.08.08.15.14.19l3.45,2.46c.08.06.19.09.29.07.1-.02.19-.07.25-.16.06-.08.09-.19.07-.29-.02-.1-.07-.19-.15-.25,0,0,0,0,0,0h-.01s-2.02-1.45-2.02-1.45h-.02s0-.02,0-.02h0l-1.39-.99Z" fill="#9105c6"/><path d="M14.57,67.69c-.1.02-.19.08-.25.16-.06.08-.08.19-.07.29.02.1.08.19.16.25l3.45,2.46s.09.05.14.06c.05.01.1.01.15,0,.05,0,.1-.03.14-.05.04-.03.08-.06.11-.1.03-.04.05-.09.06-.14.01-.05.01-.1,0-.15,0-.05-.03-.1-.05-.14-.03-.04-.06-.08-.1-.11h0s0,0,0,0l-2.9-2.07-.56-.4c-.08-.06-.19-.08-.29-.07Z" fill="#9105c6"/><path d="M28.39,77.53c-.1.02-.19.07-.25.16-.06.08-.08.19-.07.29.02.1.07.19.16.25l3.45,2.46c.07.05.14.07.23.07.08,0,.16-.03.23-.07.07-.05.12-.12.14-.19.03-.08.03-.16,0-.24-.02-.07-.07-.14-.13-.18,0,0,0,0-.01-.01h0s-1.69-1.21-1.69-1.21l-1.76-1.25s0,0-.01,0c-.08-.05-.18-.08-.28-.06Z" fill="#9105c6"/><path d="M43.81,87.84h-.02s-.02-.01-.02-.01h-.02s-.02-.01-.02-.01h-.08s-.01,0-.01,0h-.43s0,0,0,0h-.02s0,0,0,0h-.04s0,0,0,0h0s0,0,0,0h0s0,0,0,0h0s0,0,0,0h-.03s-.01,0-.01,0h-.03s0,0,0,0h0s-.02-.01-.02-.01h-.02s-.02-.02-.02-.02h-.02s-.02-.02-.02-.02h-.02s-.02-.02-.02-.02c-.05-.03-.11-.04-.17-.04-.09,0-.17.03-.24.08-.07.05-.12.13-.14.22-.02.09-.01.18.03.25s.1.14.18.18c.83.4,1.71.69,2.61.88.58.12,1.18.2,1.78.23h.02c.07,0,.13-.01.19-.04.03-.02.06-.04.09-.06.07-.07.12-.17.12-.27s-.04-.2-.11-.28c-.07-.07-.17-.12-.27-.12l-.28-.36c-.6-.03-1.19-.11-1.78-.24-.03,0-.07-.02-.1-.02-.08-.02-.17-.04-.25-.06-.06-.02-.13-.03-.19-.05-.06-.02-.11-.03-.17-.05-.06-.02-.11-.03-.17-.05-.04-.01-.09-.03-.13-.04h-.02Z" fill="#9105c6"/><path d="M21.48,72.62c-.1.02-.19.07-.24.16-.06.08-.08.18-.07.28.01.1.07.19.15.25l3.45,2.46c.07.05.14.07.23.07.08,0,.16-.03.23-.08.07-.05.12-.12.14-.2.02-.08.02-.16,0-.24-.03-.08-.07-.14-.14-.19,0,0,0,0,0,0h0s-3.45-2.46-3.45-2.46c0,0,0,0-.01,0-.08-.05-.18-.07-.27-.05Z" fill="#9105c6"/><path d="M46.54,0c-.25,0-.5,0-.75,0h1.51c-.25,0-.5,0-.75,0Z" fill="#fff"/></svg>