<?xml version="1.0" encoding="UTF-8"?><svg xmlns="http://www.w3.org/2000/svg" width="93" height="93" xmlns:xlink="http://www.w3.org/1999/xlink" viewBox="0 0 93 93"><defs><mask id="mask" x="27.05" y="10" width="47.69" height="21.58" maskUnits="userSpaceOnUse"><g id="mask025a840f1-c94a-459c-9f29-a8291ef0c517"><path id="Clip_22" d="M27.05,10h47.69v21.58H27.05V10Z" fill="#fff" fill-rule="evenodd"/></g></mask></defs><g id="Ebene_1"><circle cx="46.5" cy="46.5" r="46.5" fill="#2563ff"/></g><g id="Ebene_3"><g id="Master_Characters_Avatar"><g id="Hairstyle"><g id="Hairstyle_Baseball_Cap"><g id="Group_26"><path id="Fill_1" d="M39.35,13.06c0,.88-.71,1.59-1.59,1.59s-1.59-.71-1.59-1.59.71-1.59,1.59-1.59,1.59.71,1.59,1.59" fill="#21211d" fill-rule="evenodd"/><path id="Fill_3" d="M68.9,54.42c-2.8,2.92-6.63,3.4-10.67,2.59-10.32-2.07-22.12-12.55-22.12-12.55-2.34-1.83-4.83-4.35-6.4-7.12l-.08-.15c-.41-.72-.74-1.47-1-2.22,0-.02-.01-.04-.02-.06-.12-.37-.23-.74-.31-1.11-.29-1.3-.52-1.81-.79-2.7-.2-.68-.42-1.59-.68-3.25-.84-5.33,1.38-10.04,6.15-12.62,6.43-3.47,14.75-4.36,21.62-1.43.02,0,.04.01.06.02,1.75.75,3.33,1.78,4.75,3,1.35,1.16,2.57,2.51,3.67,3.97,3.07,4.07,5.22,9.03,6.95,13.5,2.46,6.34,4.11,14.66-1.13,20.12" fill="#f0b5aa" fill-rule="evenodd"/><path id="Fill_5" d="M54.21,33.78l4.21,35.82c.83,7.07-4.23,13.48-11.3,14.31-7.07.83-13.48-4.23-14.31-11.3-.09-.74-.1-1.54-.07-2.26l2.12-36c.32-5.36,4.91-9.44,10.27-9.13,4.78.28,8.54,3.97,9.08,8.57" fill="#f0b5aa" fill-rule="evenodd"/><path id="Fill_7" d="M56.92,56.62s-3.06-.51-7.11-2.59c-.5-.25-.99.35-.63.78l8.48,8.59-.74-6.77Z" fill="#21211d" fill-rule="evenodd"/><path id="Fill_9" d="M34.13,46.5s.97-.58,1.68-1.61c.11-.16.35-.11.39.07.25,1.27.47,4.64-2.4,7.4l.34-5.87Z" fill="#21211d" fill-rule="evenodd"/><path id="Fill_11" d="M54.66,13.83s-.04-.01-.06-.02c-6.86-2.93-15.19-2.04-21.62,1.43-4.77,2.57-7,7.29-6.15,12.62.61,3.84.97,3.65,1.47,5.95.08.37.18.75.31,1.11,0,.02.01.04.02.06l5.71.58c.92.29,1.68.93,2.13,1.78l1.2,2.28c.56,1.12,1.89,1.64,3.06,1.18.97-.37,1.56-1.3,1.56-2.27,0-.27-.05-.55-.14-.82l-4.36-12.2" fill="#9f9be6" fill-rule="evenodd"/><path id="Fill_13" d="M37.28,40.93c-.23,4.04-3.7,7.13-7.74,6.89-4.04-.23-7.13-3.7-6.89-7.74.23-4.04,3.7-7.13,7.74-6.89,4.04.23,7.13,3.7,6.89,7.74" fill="#f0b5aa" fill-rule="evenodd"/><path id="Fill_15" d="M32.41,41.38l-5.75-2.41c-.24-.1-.35-.38-.25-.62.1-.24.38-.35.62-.25l5.75,2.41c.24.1.35.38.25.62-.08.18-.25.29-.44.29-.06,0-.12-.01-.18-.04Z" fill="#21211d" fill-rule="evenodd"/><path id="Fill_17" d="M29.01,42.42c-.06,0-.11-.01-.17-.03-.24-.09-.37-.37-.27-.61l.83-2.16c.09-.24.37-.37.61-.27.24.09.36.37.27.61l-.83,2.16c-.07.19-.25.3-.44.3" fill="#21211d" fill-rule="evenodd"/><path id="Fill_19" d="M59.41,16.83l-31.89,14.28c-.18-.62-.38-1.42-.61-2.81-.02-.14-.05-.29-.07-.44-.12-.78-.18-1.58-.16-2.37.03-2.11.58-4.19,1.7-6,1.76-2.83,4.6-4.31,7.5-5.74,1.16-.57,2.35-1.11,3.57-1.56,4.77-1.77,9.83-1.91,14.37.6,1.98,1.1,3.88,2.57,5.6,4.05" fill="#f73132" fill-rule="evenodd"/><g id="Group_23"><g mask="url(#mask)"><path id="Fill_21" d="M27.52,31.58c-.18,0-.35-.1-.43-.28-.1-.24,0-.52.24-.62l46.74-20.64c.24-.11.52,0,.62.24.1.24,0,.52-.24.62L27.71,31.54c-.06.03-.13.04-.19.04" fill="#21211d" fill-rule="evenodd"/></g></g><path id="Fill_24" d="M32.29,25.01c0,.51-.3.99-.79,1.22l-4.6,2.07c-.02-.14-.05-.29-.07-.44-.12-.78-.18-1.58-.16-2.37l3.73-1.69c.71-.32,1.54.03,1.81.75.06.16.08.31.08.47" fill="#9f9be6" fill-rule="evenodd"/></g></g></g><g id="Expression"><g id="Expression_Smiling"><g id="Expressiion"><path id="Fill_344" d="M73.43,34.41s-2.41,2.98-6.33,2.84c-1.66-.06-3.59-.68-5.72-2.33,0,0,2.07-2.38,5.52-2.61,1.83-.13,4.04.34,6.53,2.1" fill="#fff" fill-rule="evenodd"/><path id="Fill_346" d="M73.43,34.41s-2.41,2.98-6.33,2.84c-.55-.67-.88-1.5-.92-2.43-.04-.93.23-1.8.72-2.51,1.83-.13,4.04.34,6.53,2.1" fill="#21211d" fill-rule="evenodd"/><path id="Stroke_348" d="M58.12,32.65c.24-.07.5.06.58.3v.04s2.04,7.37,2.04,7.37c.36,1.32-.61,2.63-1.97,2.67h-.07s-1.68,0-1.68,0c-.27,0-.49-.22-.49-.49,0-.25.2-.46.44-.48h.04s1.68,0,1.68,0c.73,0,1.27-.68,1.12-1.38v-.06s-2.04-7.37-2.04-7.37c-.07-.26.08-.53.34-.6Z" fill="#21211d"/><path id="Stroke_350" d="M63.02,28.57c2.89-1.13,6.14-1.13,9.42.78.23.14.31.43.18.67-.14.23-.43.31-.67.18-2.99-1.74-5.94-1.75-8.57-.71-.38.15-.72.31-1.01.47l-.15.09c-.09.05-.15.09-.19.11-.22.15-.53.09-.68-.13-.15-.22-.09-.53.13-.68l.06-.04c.08-.05.2-.12.36-.21.33-.18.7-.35,1.12-.52Z" fill="#21211d"/><path id="Fill_352" d="M56.48,34.41s-2.41,2.98-6.33,2.84c-1.66-.06-3.59-.68-5.72-2.33,0,0,2.07-2.38,5.52-2.61,1.83-.13,4.04.34,6.53,2.1" fill="#fff" fill-rule="evenodd"/><path id="Fill_354" d="M56.48,34.41s-2.41,2.98-6.33,2.84c-.55-.67-.88-1.5-.92-2.43-.04-.93.23-1.8.72-2.51,1.83-.13,4.04.34,6.53,2.1" fill="#21211d" fill-rule="evenodd"/><path id="Stroke_356" d="M44.55,29.35c3.28-1.91,6.53-1.91,9.42-.78.42.16.8.34,1.12.52l.12.07c.13.08.23.14.3.18.22.15.28.45.13.68-.15.22-.45.28-.68.13l-.07-.05c-.06-.04-.15-.09-.27-.15-.29-.16-.63-.32-1.01-.47-2.64-1.03-5.58-1.03-8.57.71-.23.14-.53.06-.67-.18s-.06-.53.18-.67Z" fill="#21211d"/><path id="Stroke_358" d="M53.96,44.04c.24-.08.5.03.6.25l.03.09s.05.11.09.19c.1.19.23.38.39.56.53.58,1.25.88,2.23.77.27-.03.51.16.54.43.03.27-.16.51-.43.54-1.31.16-2.33-.27-3.07-1.08-.37-.41-.6-.82-.7-1.12-.09-.25.04-.53.3-.62Z" fill="#21211d"/></g></g></g><g id="Facial_Hair"><g id="Facial_Hair_Beard_and_Mustache"><path id="Path_5_Copy" d="M50.57,42.77c1.59-1.15,3.47-1.34,5.56-.61,2.15.75,3.61,1.41,4.36,3.82.16.51-.13,1.06-.64,1.22-.51.16-1.06-.13-1.22-.64-.57-1.84-1.6-2.02-3.15-2.56-1.51-.53-2.73-.4-3.78.35-.43.31-1.04.22-1.36-.22-.31-.43-.22-1.04.22-1.36Z" fill="#9f9be6"/><path id="Path_4" d="M41,35.84s3.53,6.87,5.94,9.18c9.07,8.7,18.14,8.46,24.92.11.08-.1.17-.17.25-.11.08.05.05.2.04.3-.38,8.18-4.09,12.27-11.77,12.27-11.79,0-19.07-5.49-23.12-17.63-2.48-7.44,3.73-4.12,3.73-4.12Z" fill="#9f9be6" fill-rule="evenodd"/></g></g><g id="Accesories"><g id="Accesories_Designer_Glasses_3"><g id="Group_26-2"><path id="Fill_7-2" d="M43.03,31.93s-.05.01-.08.02l-13.53,1.82c-.3.04-.57-.17-.61-.46-.04-.29.17-.56.46-.61l13.53-1.82c.3-.04.57.17.61.46.04.27-.13.52-.39.59" fill="#e73417" fill-rule="evenodd"/><path id="Fill_4" d="M49.69,42.35h0c-4.2,0-7.61-3.4-7.61-7.59v-4.99h15.21v4.99c0,4.19-3.41,7.59-7.61,7.59" fill="#e73417" fill-rule="evenodd"/><path id="Fill_6" d="M68.46,42.67h0c-4.2,0-7.61-3.4-7.61-7.59v-4.99h15.21v4.99c0,4.19-3.41,7.59-7.61,7.59" fill="#e73417" fill-rule="evenodd"/><path id="Fill_8" d="M74.45,31.38v3.97c0,2.85-1.96,5.24-4.6,5.88-.44.1-.91.16-1.39.16-.06,0-.12,0-.17,0-.86-.02-1.67-.23-2.4-.57-1.08-.52-1.99-1.36-2.59-2.4-.53-.89-.83-1.94-.83-3.06v-3.97h11.98Z" fill="#20201d" fill-rule="evenodd"/><path id="Fill_10" d="M56,31.38v3.97c0,3.1-2.32,5.66-5.31,6-.22.03-.45.04-.68.04-.28,0-.54-.02-.81-.06-.77-.1-1.49-.35-2.14-.72-1-.57-1.83-1.43-2.36-2.46-.43-.84-.68-1.79-.68-2.8v-3.97h11.98Z" fill="#20201d" fill-rule="evenodd"/><path id="Fill_12" d="M41.11,29.76h1.62v1.61h-.66c-.53,0-.96-.43-.96-.95v-.66Z" fill="#e73417" fill-rule="evenodd"/><path id="Fill_14" d="M77.36,30.08h-1.62v1.61h.66c.53,0,.96-.43.96-.95v-.66Z" fill="#e73417" fill-rule="evenodd"/><path id="Fill_16" d="M71.54,31.38c-.8.27-1.53.63-2.11,1.22-1.07,1.1-1.27,2.71-1.52,4.19-.24,1.48-.69,3.11-2.01,3.91-.02.02-.05.03-.07.04-1.13-.52-2.08-1.35-2.71-2.38.19-.07.38-.16.56-.27,1.32-.81,1.77-2.43,2.02-3.92.15-.93.29-1.92.64-2.79h5.2Z" fill="#fff" fill-rule="evenodd"/><path id="Fill_18" d="M74.45,32.67v1.24c-.96.31-1.89.66-2.57,1.42-.97,1.07-1.15,2.65-1.37,4.1-.09.6-.21,1.22-.41,1.79-.42.1-.86.16-1.31.16-.05,0-.11,0-.16,0,.52-.82.76-1.89.91-2.88.22-1.45.4-3.03,1.37-4.1.9-1,2.25-1.31,3.55-1.72" fill="#fff" fill-rule="evenodd"/><path id="Fill_20" d="M52.12,31.38c-.75.27-1.45.62-2,1.2-1.01,1.08-1.2,2.67-1.43,4.13-.22,1.38-.69,2.97-1.78,3.8-1.6-.81-2.28-2.49-2.27-2.49,1.25-.8,1.72-2.43,1.95-3.89.14-.92.27-1.89.6-2.75h4.92Z" fill="#fff" fill-rule="evenodd"/><path id="Fill_22" d="M56,32.34v1.27c-1.25.37-2.51.71-3.38,1.64-1.02,1.09-1.21,2.68-1.45,4.15-.1.65-.24,1.32-.48,1.94-.22.03-.45.04-.68.04-.28,0-.54-.02-.81-.06.53-.83.78-1.88.93-2.87.24-1.47.42-3.06,1.45-4.15,1.11-1.18,2.86-1.41,4.42-1.96" fill="#fff" fill-rule="evenodd"/><path id="Fill_24-2" d="M62.26,31.05c-.09,0-.19-.02-.27-.07-2.79-1.61-5.4-.24-5.51-.18-.26.14-.59.04-.73-.22-.14-.26-.05-.59.22-.73.13-.07,3.24-1.73,6.57.2.26.15.35.48.2.74-.1.17-.28.27-.47.27" fill="#e73417" fill-rule="evenodd"/></g></g></g></g></g></svg>