<?xml version="1.0" encoding="UTF-8"?><svg xmlns="http://www.w3.org/2000/svg" width="93" height="93" xmlns:xlink="http://www.w3.org/1999/xlink" viewBox="0 0 93 93"><defs><mask id="mask" x="24" y="8.46" width="47.7" height="47.05" maskUnits="userSpaceOnUse"><g id="mask08317a98a-b455-4d85-a16f-7c05cfda9b6e"><path id="Clip_2" d="M24,8.46h47.7v47.05H24V8.46Z" fill="#fff" fill-rule="evenodd"/></g></mask><mask id="mask-1" x="24.01" y="8.46" width="31.44" height="13.6" maskUnits="userSpaceOnUse"><g id="mask18317a98a-b455-4d85-a16f-7c05cfda9b6e"><path id="Clip_18" d="M24.01,8.46h31.44v13.6h-31.44v-13.6Z" fill="#fff" fill-rule="evenodd"/></g></mask><mask id="mask-2" x="61.18" y="25" width="12.03" height="2.59" maskUnits="userSpaceOnUse"><g id="mask0cb4ff8fb-8161-497e-af91-a7d37cf10f7b"><path id="Clip_4" d="M61.18,25h12.03v2.59h-12.03v-2.59Z" fill="#fff" fill-rule="evenodd"/></g></mask><mask id="mask-3" x="52.66" y="42.41" width="3.53" height="3.83" maskUnits="userSpaceOnUse"><g id="mask1cb4ff8fb-8161-497e-af91-a7d37cf10f7b"><path id="Clip_9" d="M52.66,42.41h3.53v3.83h-3.53v-3.83Z" fill="#fff" fill-rule="evenodd"/></g></mask></defs><g id="Ebene_1"><circle cx="46.5" cy="46.5" r="46.5" fill="#2563ff"/></g><g id="Ebene_2"><g id="Master_Characters_Avatar"><g id="Hairstyle"><g id="Hairstyle_Fade"><g id="Group_28"><path id="Fill_3" d="M54.13,30.81l4.44,37.75c.88,7.46-4.46,14.21-11.91,15.09-7.45.88-14.21-4.46-15.08-11.91-.09-.78-.11-1.63-.07-2.39l2.23-37.94c.33-5.65,5.18-9.95,10.82-9.62,5.03.3,9,4.19,9.57,9.03" fill="#963716" fill-rule="evenodd"/><path id="Fill_12" d="M56.99,55.13s-2.56-.4-6.79-2.57c-.52-.27-1.03.36-.66.81l8.38,9.69-.93-7.93Z" fill="#21211d" fill-rule="evenodd"/></g><g id="Group_38"><g id="Group_3"><g mask="url(#mask)"><path id="Fill_1" d="M24.17,24.69c.63,4.01,1.01,3.81,1.54,6.21.08.39.19.78.32,1.16,1.29,3.87,4.69,7.5,7.83,9.96,0,0,12.31,10.95,23.09,13.11,4.22.85,8.22.34,11.15-2.7,9.39-9.8-1.99-28.61-6.44-35.13-.06-.09-.12-.19-.18-.29-1.04-1.66-2.35-3.15-3.86-4.41-.71-.59-1.42-1.11-2.15-1.56-1.43-.89-2.95-1.51-4.72-1.92-2.6-.61-5.31-.78-7.97-.61-.75.04-1.51.12-2.26.22-4.61.62-9.71,1.74-13.08,5.17-2.18,2.22-3.31,5.12-3.42,8.14-.03.87.02,1.75.16,2.63" fill="#963716" fill-rule="evenodd"/></g></g><g id="Group_8"><path id="Fill_6" d="M35.08,38.34c-.24,4.22-3.86,7.44-8.08,7.2-4.22-.24-7.44-3.86-7.2-8.08.24-4.22,3.86-7.44,8.08-7.2,4.22.24,7.44,3.86,7.2,8.08" fill="#963716" fill-rule="evenodd"/></g><path id="Fill_13" d="M30.18,38.85c-.06,0-.13-.01-.19-.04l-6.01-2.52c-.25-.1-.37-.39-.26-.64s.39-.37.64-.26l6.01,2.52c.25.11.37.39.26.64-.08.19-.26.3-.45.3" fill="#21211d" fill-rule="evenodd"/><path id="Fill_15" d="M26.44,39.9c-.06,0-.12-.01-.18-.03-.25-.1-.38-.38-.28-.64l.86-2.26c.1-.25.38-.38.64-.28.25.1.38.38.28.64l-.86,2.26c-.08.2-.26.32-.46.32" fill="#21211d" fill-rule="evenodd"/><g id="Group_19"><g mask="url(#mask-1)"><path id="Fill_17" d="M24.01,22.06c10.93-2.14,21.56-5.85,31.44-11.01-1.43-.89-2.95-1.51-4.72-1.93-2.6-.61-5.31-.78-7.97-.61-.75.04-1.51.12-2.26.22-4.61.62-9.71,1.74-13.08,5.17-2.18,2.22-3.31,5.12-3.42,8.14" fill="#21211d" fill-rule="evenodd"/></g></g><path id="Fill_20" d="M27.94,22.56c0,.31.25.57.57.57s.57-.25.57-.57-.25-.57-.57-.57-.57.25-.57.57" fill="#21211d" fill-rule="evenodd"/><path id="Fill_22" d="M29.04,26.57c0,.31.25.57.57.57s.57-.25.57-.57-.25-.57-.57-.57-.57.25-.57.57" fill="#21211d" fill-rule="evenodd"/><path id="Fill_24" d="M29.6,29.8c0,.31.25.57.57.57s.57-.25.57-.57-.25-.57-.57-.57-.57.25-.57.57" fill="#21211d" fill-rule="evenodd"/><path id="Fill_26" d="M27.01,24.95c0,.31.25.57.57.57s.57-.25.57-.57-.25-.57-.57-.57-.57.25-.57.57" fill="#21211d" fill-rule="evenodd"/><path id="Fill_28" d="M30.29,24.08c0,.31.25.57.57.57s.57-.25.57-.57-.25-.57-.57-.57-.57.25-.57.57" fill="#21211d" fill-rule="evenodd"/><path id="Fill_30" d="M24.99,23.13c0,.31.25.57.57.57s.57-.25.57-.57-.25-.57-.57-.57-.57.25-.57.57" fill="#21211d" fill-rule="evenodd"/><path id="Fill_32" d="M25.71,27.22c0,.31.25.57.57.57s.57-.25.57-.57-.25-.57-.57-.57-.57.25-.57.57" fill="#21211d" fill-rule="evenodd"/><path id="Fill_34" d="M27.58,28.56c0,.31.25.57.57.57s.57-.25.57-.57-.25-.57-.57-.57-.57.25-.57.57" fill="#21211d" fill-rule="evenodd"/><path id="Fill_36" d="M31.16,28.11c0,.31.25.57.57.57s.57-.25.57-.57-.25-.57-.57-.57-.57.25-.57.57" fill="#21211d" fill-rule="evenodd"/></g><path id="Fill_7" d="M33.01,43.45s1.03-.62,1.78-1.71c.11-.17.37-.12.41.08.27,1.35.5,4.92-2.55,7.86l.36-6.23Z" fill="#21211d" fill-rule="evenodd"/></g></g><g id="Expression"><g id="Expression_Content"><g id="Group_17"><path id="Fill_1-2" d="M58.48,40.9h-1.78c-.28,0-.51-.24-.51-.52,0-.28.24-.51.51-.51h1.77c.37,0,.73-.17.96-.47.23-.3.3-.68.2-1.05l-2.13-7.77c-.08-.27.09-.56.36-.63.27-.07.56.09.63.36l2.13,7.77c.19.68.05,1.39-.38,1.94-.43.56-1.07.88-1.77.88" fill="#21211d" fill-rule="evenodd"/><g id="Group_5"><g mask="url(#mask-2)"><path id="Fill_3-2" d="M72.7,27.58c-.09,0-.18-.02-.26-.07-5.6-3.26-10.41-.08-10.46-.05-.23.16-.55.1-.71-.14-.16-.24-.1-.55.14-.71.22-.15,5.4-3.57,11.55.01.25.14.33.46.19.7-.1.16-.27.26-.44.26" fill="#21211d" fill-rule="evenodd"/></g></g><path id="Fill_6-2" d="M43.82,27.58c-.18,0-.35-.09-.44-.26-.14-.25-.06-.56.19-.7,6.15-3.58,11.33-.16,11.55-.01.23.16.3.48.14.71-.16.23-.48.3-.71.14-.2-.13-4.88-3.2-10.46.05-.08.05-.17.07-.26.07" fill="#21211d" fill-rule="evenodd"/><g id="Group_10"><g mask="url(#mask-3)"><path id="Fill_8" d="M56.2,43.15v1.32c0,.27-.06.52-.17.75-.28.6-.89,1.02-1.6,1.02-.98,0-1.77-.79-1.77-1.77v-1.32c0-.41.33-.74.74-.74h2.04c.41,0,.74.33.74.74" fill="#21211d" fill-rule="evenodd"/></g></g><path id="Fill_11" d="M56.03,45.22c-.28.6-.89,1.02-1.6,1.02-.98,0-1.77-.79-1.77-1.77v-.27c.32-.13.67-.2,1.04-.2.97,0,1.82.48,2.33,1.22" fill="#f74bad" fill-rule="evenodd"/><path id="Fill_13-2" d="M53.08,35.42c-.14,0-.28-.06-.38-.18l-3.43-4.25-3.6,4.26c-.17.21-.48.23-.69.06-.2-.17-.23-.48-.06-.69l3.98-4.71c.09-.11.23-.17.38-.17.14,0,.28.07.37.18l3.8,4.71c.17.21.14.52-.07.68-.09.07-.2.11-.31.11" fill="#21211d" fill-rule="evenodd"/><path id="Fill_15-2" d="M71.09,35.42c-.14,0-.28-.06-.38-.18l-3.43-4.25-3.6,4.26c-.17.21-.48.23-.69.06-.2-.17-.23-.48-.06-.69l3.98-4.71c.09-.11.22-.17.38-.17.14,0,.28.07.37.18l3.8,4.71c.17.21.14.52-.07.68-.09.07-.2.11-.31.11" fill="#21211d" fill-rule="evenodd"/></g></g></g><g id="Facial_Hair"><g id="Facial_Hair_None"><path id="Path_5_Copy" d="M49.9,40.61c1.67-1.21,3.66-1.41,5.86-.65,2.26.79,3.81,1.48,4.6,4.02.17.54-.14,1.11-.68,1.28-.54.17-1.11-.14-1.28-.68-.6-1.94-1.69-2.13-3.32-2.7-1.59-.56-2.88-.42-3.98.37-.46.33-1.1.23-1.43-.23-.33-.46-.23-1.1.23-1.43Z" fill="#21211d" isolation="isolate" opacity="0"/></g></g></g></g></svg>