<?xml version="1.0" encoding="UTF-8"?><svg xmlns="http://www.w3.org/2000/svg" width="93" height="93" xmlns:xlink="http://www.w3.org/1999/xlink" viewBox="0 0 93 93"><defs><mask id="mask" x="23.79" y="8.59" width="47.7" height="47.05" maskUnits="userSpaceOnUse"><g id="mask08317a98a-b455-4d85-a16f-7c05cfda9b6e"><path id="Clip_2" d="M23.79,8.59h47.7v47.05H23.79V8.59Z" fill="#fff" fill-rule="evenodd"/></g></mask><mask id="mask-1" x="23.8" y="8.59" width="31.44" height="13.6" maskUnits="userSpaceOnUse"><g id="mask18317a98a-b455-4d85-a16f-7c05cfda9b6e"><path id="Clip_18" d="M23.8,8.59h31.44v13.6h-31.44v-13.6Z" fill="#fff" fill-rule="evenodd"/></g></mask><mask id="mask-2" x="43.03" y="24.96" width="12.03" height="2.59" maskUnits="userSpaceOnUse"><g id="mask09d030132-1b23-417f-93f0-41ad33e83222"><path id="Clip_6" d="M43.03,24.96h12.03v2.59h-12.03v-2.59Z" fill="#fff" fill-rule="evenodd"/></g></mask><mask id="mask-3" x="42.86" y="29.7" width="12.7" height="6.57" maskUnits="userSpaceOnUse"><g id="mask19d030132-1b23-417f-93f0-41ad33e83222"><path id="Clip_11" d="M42.86,29.7h12.7v6.57h-12.7v-6.57Z" fill="#fff" fill-rule="evenodd"/></g></mask><mask id="mask-4" x="60.72" y="29.7" width="12.7" height="6.57" maskUnits="userSpaceOnUse"><g id="mask29d030132-1b23-417f-93f0-41ad33e83222"><path id="Clip_20" d="M60.72,29.7h12.7v6.57h-12.7v-6.57Z" fill="#fff" fill-rule="evenodd"/></g></mask><mask id="mask-5" x="65.77" y="29.7" width="7.65" height="6.57" maskUnits="userSpaceOnUse"><g id="mask39d030132-1b23-417f-93f0-41ad33e83222"><path id="Clip_23" d="M65.77,29.7h7.65v6.57h-7.65v-6.57Z" fill="#fff" fill-rule="evenodd"/></g></mask><mask id="mask-6" x="53.17" y="43.24" width="4.96" height="4.97" maskUnits="userSpaceOnUse"><g id="mask49d030132-1b23-417f-93f0-41ad33e83222"><path id="Clip_31" d="M53.17,44.43c0,.73.45,1.36,1.08,1.63h0c.78.4,1.31,1.21,1.31,2.14h2.57c0-1.37-.55-2.6-1.45-3.5h0c-.9-.91-2.14-1.47-3.51-1.47h0" fill="#fff" fill-rule="evenodd"/></g></mask><mask id="mask-7" x="52.6" y="43.24" width="5.53" height="5.59" maskUnits="userSpaceOnUse"><g id="mask59d030132-1b23-417f-93f0-41ad33e83222"><path id="Clip_34" d="M53.17,44.43c0,.73.45,1.36,1.08,1.63h0c.78.4,1.31,1.21,1.31,2.14h2.57c0-1.37-.55-2.6-1.45-3.5h0c-.9-.91-2.14-1.47-3.51-1.47h0" fill="#fff" fill-rule="evenodd"/></g></mask><mask id="mask-8" x="51.86" y="43.24" width="6.27" height="6.14" maskUnits="userSpaceOnUse"><g id="mask69d030132-1b23-417f-93f0-41ad33e83222"><path id="Clip_37" d="M53.17,44.43c0,.73.45,1.36,1.08,1.63h0c.78.4,1.31,1.21,1.31,2.14h2.57c0-1.37-.55-2.6-1.45-3.5h0c-.9-.91-2.14-1.47-3.51-1.47h0" fill="#fff" fill-rule="evenodd"/></g></mask></defs><g id="Ebene_1"><circle cx="46.5" cy="46.5" r="46.5" fill="#2563ff"/></g><g id="Ebene_2"><g id="Master_Characters_Avatar"><g id="Hairstyle"><g id="Hairstyle_Fade"><g id="Group_28"><path id="Fill_3" d="M53.92,30.95l4.44,37.75c.88,7.46-4.46,14.21-11.91,15.09-7.45.88-14.21-4.46-15.08-11.91-.09-.78-.11-1.63-.07-2.39l2.23-37.94c.33-5.65,5.18-9.95,10.82-9.62,5.03.3,9,4.19,9.57,9.03" fill="#de8857" fill-rule="evenodd"/><path id="Fill_12" d="M56.78,55.26s-2.56-.4-6.79-2.57c-.52-.27-1.03.36-.66.81l8.38,9.69-.93-7.93Z" fill="#21211d" fill-rule="evenodd"/></g><g id="Group_38"><g id="Group_3"><g mask="url(#mask)"><path id="Fill_1" d="M23.96,24.83c.63,4.01,1.01,3.81,1.54,6.21.08.39.19.78.32,1.16,1.29,3.87,4.69,7.5,7.83,9.96,0,0,12.31,10.95,23.09,13.11,4.22.85,8.22.34,11.15-2.7,9.39-9.8-1.99-28.61-6.44-35.13-.06-.09-.12-.19-.18-.29-1.04-1.66-2.35-3.15-3.86-4.41-.71-.59-1.42-1.11-2.15-1.56-1.43-.89-2.95-1.51-4.72-1.92-2.6-.61-5.31-.78-7.97-.61-.75.04-1.51.12-2.26.22-4.61.62-9.71,1.74-13.08,5.17-2.18,2.22-3.31,5.12-3.42,8.14-.03.87.02,1.75.16,2.63" fill="#de8857" fill-rule="evenodd"/></g></g><g id="Group_8"><path id="Fill_6" d="M34.87,38.48c-.24,4.22-3.86,7.44-8.08,7.2-4.22-.24-7.44-3.86-7.2-8.08.24-4.22,3.86-7.44,8.08-7.2,4.22.24,7.44,3.86,7.2,8.08" fill="#de8857" fill-rule="evenodd"/></g><path id="Fill_13" d="M29.97,38.99c-.06,0-.13-.01-.19-.04l-6.01-2.52c-.25-.1-.37-.39-.26-.64s.39-.37.64-.26l6.01,2.52c.25.11.37.39.26.64-.08.19-.26.3-.45.3" fill="#21211d" fill-rule="evenodd"/><path id="Fill_15" d="M26.23,40.04c-.06,0-.12-.01-.18-.03-.25-.1-.38-.38-.28-.64l.86-2.26c.1-.25.38-.38.64-.28.25.1.38.38.28.64l-.86,2.26c-.08.2-.26.32-.46.32" fill="#21211d" fill-rule="evenodd"/><g id="Group_19"><g mask="url(#mask-1)"><path id="Fill_17" d="M23.8,22.2c10.93-2.14,21.56-5.85,31.44-11.01-1.43-.89-2.95-1.51-4.72-1.93-2.6-.61-5.31-.78-7.97-.61-.75.04-1.51.12-2.26.22-4.61.62-9.71,1.74-13.08,5.17-2.18,2.22-3.31,5.12-3.42,8.14" fill="#9f9be6" fill-rule="evenodd"/></g></g><path id="Fill_20" d="M27.73,22.69c0,.31.25.57.57.57s.57-.25.57-.57-.25-.57-.57-.57-.57.25-.57.57" fill="#9f9be6" fill-rule="evenodd"/><path id="Fill_22" d="M28.83,26.71c0,.31.25.57.57.57s.57-.25.57-.57-.25-.57-.57-.57-.57.25-.57.57" fill="#9f9be6" fill-rule="evenodd"/><path id="Fill_24" d="M29.39,29.94c0,.31.25.57.57.57s.57-.25.57-.57-.25-.57-.57-.57-.57.25-.57.57" fill="#9f9be6" fill-rule="evenodd"/><path id="Fill_26" d="M26.8,25.08c0,.31.25.57.57.57s.57-.25.57-.57-.25-.57-.57-.57-.57.25-.57.57" fill="#9f9be6" fill-rule="evenodd"/><path id="Fill_28" d="M30.08,24.22c0,.31.25.57.57.57s.57-.25.57-.57-.25-.57-.57-.57-.57.25-.57.57" fill="#9f9be6" fill-rule="evenodd"/><path id="Fill_30" d="M24.78,23.26c0,.31.25.57.57.57s.57-.25.57-.57-.25-.57-.57-.57-.57.25-.57.57" fill="#9f9be6" fill-rule="evenodd"/><path id="Fill_32" d="M25.49,27.35c0,.31.25.57.57.57s.57-.25.57-.57-.25-.57-.57-.57-.57.25-.57.57" fill="#9f9be6" fill-rule="evenodd"/><path id="Fill_34" d="M27.37,28.69c0,.31.25.57.57.57s.57-.25.57-.57-.25-.57-.57-.57-.57.25-.57.57" fill="#9f9be6" fill-rule="evenodd"/><path id="Fill_36" d="M30.95,28.25c0,.31.25.57.57.57s.57-.25.57-.57-.25-.57-.57-.57-.57.25-.57.57" fill="#9f9be6" fill-rule="evenodd"/></g><path id="Fill_7" d="M32.8,43.58s1.03-.62,1.78-1.71c.11-.17.37-.12.41.08.27,1.35.5,4.92-2.55,7.86l.36-6.23Z" fill="#21211d" fill-rule="evenodd"/></g></g><g id="Expression"><g id="Expression_Rainbow_Puke"><g id="Group_40"><g id="Group_29"><path id="Fill_1-2" d="M58.2,41.02h-1.78c-.28,0-.51-.24-.51-.52,0-.28.23-.51.51-.51h1.77c.38,0,.73-.17.96-.47.23-.3.3-.68.2-1.05l-2.13-7.77c-.07-.27.09-.56.36-.63.27-.08.56.09.63.36l2.13,7.77c.19.68.05,1.39-.38,1.95-.43.56-1.07.88-1.77.88" fill="#21211d" fill-rule="evenodd"/><path id="Fill_3-2" d="M72.42,27.55c-.09,0-.18-.02-.26-.07-5.58-3.25-10.26-.18-10.46-.05-.24.16-.55.1-.71-.14-.16-.24-.1-.55.14-.71.22-.15,5.4-3.57,11.55.01.25.14.33.46.19.7-.1.16-.27.26-.44.26" fill="#21211d" fill-rule="evenodd"/><g id="Group_7"><g mask="url(#mask-2)"><path id="Fill_5" d="M43.55,27.55c-.18,0-.35-.09-.44-.26-.14-.25-.06-.56.19-.7,6.15-3.58,11.33-.16,11.55-.01.23.16.3.48.14.71-.16.23-.48.3-.71.14-.2-.13-4.88-3.2-10.46.05-.08.05-.17.07-.26.07" fill="#21211d" fill-rule="evenodd"/></g></g><path id="Fill_8" d="M56.7,43.12v1.32c0,.09,0,.19-.02.27-.03.17-.08.33-.15.48-.28.6-.89,1.02-1.6,1.02-.25,0-.48-.05-.69-.14-.63-.27-1.08-.89-1.08-1.63v-1.32c0-.41.33-.75.74-.75h2.04c.41,0,.74.33.74.75" fill="#fff" fill-rule="evenodd"/><g id="Group_12"><g mask="url(#mask-3)"><path id="Fill_10" d="M55.56,32.57s-2.51,3.92-6.64,3.69c-1.75-.1-3.8-.94-6.06-3.15,0,0,2.16-3.13,5.79-3.39,1.92-.15,4.26.5,6.91,2.85" fill="#fff" fill-rule="evenodd"/></g></g><path id="Fill_13-2" d="M55.56,32.57s-2.51,3.92-6.64,3.69c-.59-.89-.95-1.99-1-3.22-.05-1.23.22-2.38.73-3.32,1.92-.15,4.26.5,6.91,2.85" fill="#21211d" fill-rule="evenodd"/><path id="Fill_15-2" d="M52.83,32.49c0,.68-.55,1.23-1.23,1.23s-1.23-.55-1.23-1.23.55-1.23,1.23-1.23,1.23.55,1.23,1.23" fill="#fff" fill-rule="evenodd"/><path id="Fill_17-2" d="M50.1,34.56c0,.25-.2.45-.45.45s-.45-.2-.45-.45.2-.45.45-.45.45.2.45.45" fill="#fff" fill-rule="evenodd"/><g id="Group_21"><g mask="url(#mask-4)"><path id="Fill_19" d="M73.43,32.57s-2.51,3.92-6.64,3.69c-1.75-.1-3.8-.94-6.06-3.15,0,0,2.16-3.13,5.79-3.39,1.92-.15,4.26.5,6.91,2.85" fill="#fff" fill-rule="evenodd"/></g></g><g id="Group_24"><g mask="url(#mask-5)"><path id="Fill_22-2" d="M73.43,32.57s-2.51,3.92-6.64,3.69c-.59-.89-.95-1.99-1-3.22-.05-1.23.22-2.38.73-3.32,1.92-.15,4.26.5,6.91,2.85" fill="#21211d" fill-rule="evenodd"/></g></g><path id="Fill_25" d="M70.7,32.49c0,.68-.55,1.23-1.23,1.23s-1.23-.55-1.23-1.23.55-1.23,1.23-1.23,1.23.55,1.23,1.23" fill="#fff" fill-rule="evenodd"/><path id="Fill_27" d="M67.97,34.56c0,.25-.2.45-.45.45s-.45-.2-.45-.45.2-.45.45-.45.45.2.45.45" fill="#fff" fill-rule="evenodd"/></g><g id="Group_39"><g id="Group_32"><g mask="url(#mask-6)"><path id="Fill_30-2" d="M58.13,48.21h-2.57c0-.94-.53-1.75-1.31-2.14-.63-.27-1.08-.89-1.08-1.63v-1.2c1.37,0,2.61.56,3.51,1.47.9.9,1.45,2.13,1.45,3.5" fill="#4965cc" fill-rule="evenodd"/></g></g><g id="Group_35"><g mask="url(#mask-7)"><path id="Fill_33" d="M57.4,48.83h-2.41c0-.94-.53-1.75-1.31-2.14-.63-.27-1.08-.89-1.08-1.63v-1.2c1.37,0,2.61.56,3.51,1.47.9.9,1.29,2.13,1.29,3.5" fill="#ff6243" fill-rule="evenodd"/></g></g><g id="Group_38-2"><g mask="url(#mask-8)"><path id="Fill_36-2" d="M56.67,49.37h-2.41c0-.94-.53-1.75-1.31-2.14-.63-.27-1.08-.89-1.08-1.63v-1.2c1.37,0,2.61.56,3.51,1.47.9.9,1.29,2.13,1.29,3.5" fill="#ffc107" fill-rule="evenodd"/></g></g></g></g></g></g><g id="Facial_Hair"><g id="Facial_Hair_Beard_and_Mustache"><path id="Path_5_Copy" d="M49.69,40.75c1.67-1.21,3.66-1.41,5.86-.65,2.26.79,3.81,1.48,4.6,4.02.17.54-.14,1.11-.68,1.28-.54.17-1.11-.14-1.28-.68-.6-1.94-1.69-2.13-3.32-2.7-1.59-.56-2.88-.42-3.98.37-.46.33-1.1.23-1.43-.23-.33-.46-.23-1.1.23-1.43Z" fill="#9f9be6"/><path id="Path_4" d="M39.62,33.44s3.72,7.24,6.26,9.67c9.56,9.17,19.12,8.92,26.27.12.08-.1.18-.18.27-.12.09.06.05.21.05.32-.4,8.62-4.31,12.94-12.4,12.94-12.43,0-20.1-5.79-24.37-18.59-2.62-7.84,3.94-4.34,3.94-4.34Z" fill="#9f9be6" fill-rule="evenodd"/></g></g></g></g></svg>