<?xml version="1.0" encoding="UTF-8"?><svg xmlns="http://www.w3.org/2000/svg" width="93" height="93" xmlns:xlink="http://www.w3.org/1999/xlink" viewBox="0 0 93 93"><defs><mask id="mask" x="26.13" y="16.5" width="47.66" height="47.28" maskUnits="userSpaceOnUse"><g id="mask0f15d10b9-9022-4215-b4f5-95ca4a30975d"><path id="Clip_2" d="M26.13,16.5h47.66v47.28H26.13V16.5Z" fill="#fff" fill-rule="evenodd"/></g></mask><mask id="mask-1" x="21.94" y="38.54" width="15.29" height="15.29" maskUnits="userSpaceOnUse"><g id="mask1f15d10b9-9022-4215-b4f5-95ca4a30975d"><path id="Clip_13" d="M21.94,38.54h15.29v15.29h-15.29v-15.29Z" fill="#fff" fill-rule="evenodd"/></g></mask><mask id="mask-2" x="22.81" y="3.98" width="43.69" height="31.12" maskUnits="userSpaceOnUse"><g id="mask2f15d10b9-9022-4215-b4f5-95ca4a30975d"><path id="Clip_22" d="M22.81,3.98h43.69v31.12H22.81V3.98Z" fill="#fff" fill-rule="evenodd"/></g></mask></defs><g id="Ebene_1"><circle cx="46.5" cy="46.5" r="46.5" fill="#2563ff"/></g><g id="Ebene_2"><g id="Master_Characters_Avatar"><g id="Hairstyle"><g id="Hairstyle_Beanie"><g id="Group_30"><g id="Group_3"><g mask="url(#mask)"><path id="Fill_1" d="M70.2,60.71c-2.92,3.04-6.91,3.55-11.13,2.7-10.77-2.16-23.07-13.09-23.07-13.09-2.44-1.91-5.04-4.54-6.67-7.43l-.08-.15c-.43-.77-.79-1.57-1.06-2.37-.13-.38-.24-.77-.32-1.16-.53-2.4-.9-2.2-1.53-6.21-.88-5.56,1.44-10.48,6.42-13.16,6.7-3.62,15.39-4.55,22.55-1.5.02,0,.04.01.06.02,8.45,3.64,12.9,13.27,16.03,21.36,2.56,6.62,4.28,15.29-1.18,20.98" fill="#f0b5aa" fill-rule="evenodd"/></g></g><path id="Fill_4" d="M55.15,38.7l4.44,37.75c.88,7.46-4.46,14.21-11.91,15.09-7.45.88-14.21-4.46-15.08-11.91-.09-.78-.11-1.63-.07-2.39l2.23-37.94c.33-5.65,5.18-9.95,10.82-9.62,5.03.3,9,4.19,9.57,9.03" fill="#f0b5aa" fill-rule="evenodd"/><path id="Fill_6" d="M58.08,63.13s-3.19-.53-7.41-2.7c-.52-.27-1.03.36-.66.81l9.02,10.58-.95-8.68Z" fill="#21211d" fill-rule="evenodd"/><path id="Fill_8" d="M33.92,52.45s1.02-.61,1.75-1.68c.11-.16.36-.12.4.08.26,1.33.49,4.84-2.5,7.72l.35-6.12Z" fill="#21211d" fill-rule="evenodd"/><path id="Fill_10" d="M54.79,18.14s-.04-.01-.06-.02c-7.16-3.05-15.85-2.13-22.55,1.5-4.98,2.69-7.3,7.6-6.42,13.16.63,4.01,1.01,3.81,1.53,6.21.08.39.19.78.32,1.16,0,.02.01.04.02.06l5.96.61c.96.3,1.76.97,2.22,1.86l1.25,2.38c.59,1.17,1.97,1.71,3.19,1.23,1.01-.39,1.63-1.35,1.63-2.37,0-.29-.05-.58-.15-.86l-4.55-12.73" fill="#df2b2b" fill-rule="evenodd"/><g id="Group_14"><g mask="url(#mask-1)"><path id="Fill_12" d="M37.22,46.63c-.24,4.22-3.86,7.44-8.08,7.19-4.22-.24-7.43-3.86-7.19-8.08.24-4.22,3.86-7.44,8.08-7.19,4.22.24,7.43,3.86,7.19,8.08" fill="#f0b5aa" fill-rule="evenodd"/></g></g><path id="Fill_15" d="M32.32,47.14c-.06,0-.13-.01-.19-.04l-6-2.52c-.25-.11-.37-.39-.26-.64.11-.25.39-.37.64-.26l6,2.52c.25.1.37.39.26.64-.08.19-.26.3-.45.3" fill="#21211d" fill-rule="evenodd"/><path id="Fill_17" d="M28.59,48.19c-.06,0-.12-.01-.18-.03-.25-.1-.38-.38-.28-.64l.86-2.26c.1-.25.38-.38.64-.28.25.1.38.38.28.63l-.86,2.26c-.08.2-.26.32-.46.32" fill="#21211d" fill-rule="evenodd"/><path id="Fill_19" d="M27,39.03c-1.51,0-3-.72-3.91-2.07-1.47-2.16-.91-5.1,1.25-6.57.63-.43,15.8-10.57,40.52-11.14,2.63-.05,4.77,2.01,4.84,4.62.06,2.61-2.01,4.78-4.62,4.84-21.96.51-35.28,9.42-35.42,9.51-.81.55-1.74.82-2.66.82" fill="#d5962f" fill-rule="evenodd"/><g id="Group_23"><g mask="url(#mask-2)"><path id="Fill_21" d="M66.5,21.13s-3.5-9.39-10.74-9.76c0,0-8.43-12.06-26.84-5.37-8.06,2.93-6.15,8.44-5.25,14.2,1.15,7.39,1.39,14.9,1.39,14.9,0,0,18.05-11.33,41.45-13.97" fill="#d5962f" fill-rule="evenodd"/></g></g><path id="Fill_24" d="M24.33,30.89c-.16,0-.31-.08-.41-.21-.15-.22-.1-.53.13-.68.16-.11,4.02-2.72,11-5.43,6.43-2.5,16.82-5.53,29.78-5.8.28,0,.5.21.5.48,0,.27-.21.5-.48.5-12.8.26-23.06,3.25-29.41,5.72-6.89,2.67-10.8,5.31-10.84,5.34-.08.06-.18.09-.28.09" fill="#21211d" fill-rule="evenodd"/><path id="Fill_26" d="M60.02,13.23c-.11,0-.23-.04-.32-.12-.03-.03-1.93-1.54-6.86-1.2-.27.02-.51-.19-.52-.46-.02-.27.19-.51.46-.52,5.42-.38,7.49,1.36,7.57,1.44.2.18.23.49.05.69-.1.11-.23.17-.37.17" fill="#21211d" fill-rule="evenodd"/><path id="Fill_28" d="M24.33,22.16h0c-.27,0-.49-.22-.49-.49v-6.04c0-.27.22-.49.49-.49h0c.27,0,.49.22.49.49v6.04c0,.27-.22.49-.49.49" fill="#21211d" fill-rule="evenodd"/></g></g></g><g id="Expression"><g id="Expression_Smiling"><g id="Expressiion"><path id="Fill_344" d="M75.14,39.61s-2.54,3.14-6.67,3c-1.75-.07-3.79-.71-6.03-2.45,0,0,2.18-2.51,5.82-2.75,1.93-.13,4.25.36,6.88,2.21" fill="#fff" fill-rule="evenodd"/><path id="Fill_346" d="M75.14,39.61s-2.54,3.14-6.67,3c-.58-.7-.93-1.58-.97-2.56-.04-.98.24-1.9.76-2.65,1.93-.13,4.25.36,6.88,2.21" fill="#21211d" fill-rule="evenodd"/><path id="Stroke_348" d="M59,37.75c.26-.07.52.07.62.31l.02.05,2.13,7.77c.38,1.4-.64,2.77-2.08,2.82h-.08s-1.77,0-1.77,0c-.28,0-.51-.23-.51-.52,0-.27.21-.49.47-.51h.05s1.77,0,1.77,0c.77,0,1.34-.71,1.18-1.46l-.02-.06-2.13-7.77c-.08-.27.09-.56.36-.63Z" fill="#21211d"/><path id="Stroke_350" d="M64.16,33.45c3.05-1.2,6.47-1.19,9.93.82.24.14.33.46.19.7-.14.25-.46.33-.7.19-3.16-1.84-6.26-1.84-9.04-.75-.4.16-.76.33-1.07.49l-.16.09c-.09.05-.16.1-.2.12-.23.16-.55.1-.71-.14-.16-.24-.1-.55.14-.71l.07-.04c.09-.06.21-.13.38-.22.34-.19.74-.37,1.18-.55Z" fill="#21211d"/><path id="Fill_352" d="M57.27,39.61s-2.54,3.14-6.67,3c-1.75-.07-3.79-.71-6.03-2.45,0,0,2.18-2.51,5.82-2.75,1.93-.13,4.25.36,6.88,2.21" fill="#fff" fill-rule="evenodd"/><path id="Fill_354" d="M57.27,39.61s-2.54,3.14-6.67,3c-.58-.7-.93-1.58-.97-2.56-.04-.98.24-1.9.76-2.65,1.93-.13,4.25.36,6.88,2.21" fill="#21211d" fill-rule="evenodd"/><path id="Stroke_356" d="M44.7,34.27c3.45-2.01,6.88-2.02,9.93-.82.44.17.84.36,1.18.55l.13.07c.14.08.25.15.31.19.23.16.3.48.14.71-.16.24-.48.3-.71.14l-.08-.05c-.07-.04-.16-.1-.28-.16-.31-.17-.66-.34-1.07-.49-2.78-1.09-5.88-1.08-9.04.75-.25.14-.56.06-.7-.19s-.06-.56.19-.7Z" fill="#21211d"/><path id="Stroke_358" d="M54.61,49.76c.25-.09.53.03.64.27l.04.09s.05.11.1.2c.11.2.25.4.42.59.56.61,1.32.93,2.35.81.28-.03.54.17.57.45.03.28-.17.54-.45.57-1.38.16-2.46-.29-3.23-1.14-.39-.43-.63-.87-.74-1.18-.09-.27.05-.56.31-.66Z" fill="#21211d"/></g></g></g><g id="Facial_Hair"><g id="Facial_Hair_None"><path id="Path_5_Copy" d="M51.03,48.42c1.67-1.21,3.66-1.41,5.86-.65,2.26.79,3.81,1.48,4.6,4.02.17.54-.14,1.11-.68,1.28-.54.17-1.11-.14-1.28-.68-.6-1.94-1.69-2.13-3.32-2.7-1.59-.56-2.88-.42-3.98.37-.46.33-1.1.23-1.43-.23-.33-.46-.23-1.1.23-1.43Z" fill="#df2b2b" isolation="isolate" opacity="0"/></g></g><g id="Accesories"><g id="Accesories_Dark_Round_Glasses_2"><ellipse id="Oval" cx="50.62" cy="38.79" rx="7.85" ry="7.82" fill="#e73417"/><ellipse id="Oval_Copy" cx="69.73" cy="38.79" rx="7.85" ry="7.82" fill="#e73417"/><g id="Group"><path id="Fill_3" d="M69.54,31.36c-1.07,0-2.14.23-3.13.69-1.81.84-3.18,2.32-3.86,4.19-1.41,3.85.58,8.12,4.44,9.53,3.86,1.41,8.15-.58,9.56-4.43.68-1.86.6-3.88-.24-5.68-.84-1.8-2.33-3.17-4.2-3.85-.84-.3-1.7-.46-2.56-.46h0ZM69.54,47.45c-.99,0-1.99-.17-2.97-.53-4.49-1.64-6.81-6.62-5.17-11.1.8-2.17,2.39-3.9,4.5-4.88,2.1-.97,4.46-1.07,6.64-.28,2.18.79,3.91,2.39,4.89,4.48.98,2.1,1.08,4.45.28,6.62-1.29,3.5-4.62,5.68-8.16,5.68h0Z" fill="#e73417" fill-rule="evenodd"/><path id="Fill_5" d="M50.69,31.39c-1.07,0-2.14.23-3.13.7-1.81.84-3.18,2.32-3.86,4.19-1.41,3.85.58,8.12,4.44,9.53s8.15-.58,9.56-4.43c1.41-3.85-.58-8.12-4.44-9.53-.83-.3-1.7-.46-2.56-.46M50.68,47.48c-.99,0-1.99-.17-2.97-.53-4.49-1.64-6.81-6.62-5.17-11.1.8-2.17,2.39-3.9,4.5-4.88,2.1-.97,4.46-1.07,6.64-.28,4.49,1.64,6.81,6.62,5.17,11.1-1.29,3.5-4.62,5.68-8.16,5.68" fill="#e73417" fill-rule="evenodd"/><path id="Fill_7" d="M43.09,37s-.05.01-.08.02l-14.27,1.91c-.31.04-.6-.18-.64-.49-.04-.31.18-.59.49-.64l14.27-1.91c.31-.04.6.18.64.49.04.28-.14.54-.41.62" fill="#e73417" fill-rule="evenodd"/><path id="Fill_16" d="M58.86,38.17c-.18,0-.35-.08-.48-.23-.21-.26-.17-.65.09-.86,1.44-1.17,2.92-.74,3.49-.35.28.19.35.57.16.85-.19.28-.57.35-.85.16-.1-.06-.97-.58-2.03.28-.11.09-.25.14-.39.14" fill="#e73417" fill-rule="evenodd"/></g></g></g></g></g></svg>