<?xml version="1.0" encoding="UTF-8"?><svg id="Ebene_2" xmlns="http://www.w3.org/2000/svg" width="93" height="93" viewBox="0 0 93 93"><path d="M46.5,0c-13.64,0-25.91,5.88-34.42,15.24.82-.43,1.65-.81,2.52-1.12,6.15-2.19,13.53-.12,17.75,4.83.32-.16.71-.08.93.22.09.12.12.26.13.4.34-.23.68-.45,1.06-.65,5.46-2.95,12.53-3.71,18.36-1.22.02,0,.03.01.05.02.68.29,1.33.64,1.95,1.03,3.8,2.35,6.48,6.28,8.52,10.41,1.41,0,3.05.32,4.78,1.33.2.12.27.38.15.58-.08.13-.22.21-.36.21-.07,0-.15-.02-.21-.06-1.41-.82-2.76-1.15-3.94-1.21.66,1.39,1.25,2.8,1.79,4.16l1.48.13c.16.01.29.12.34.27.05.15,0,.32-.12.42l-1.04.91c1.91,5.27,2.98,11.88-1.25,16.29-2.38,2.48-5.63,2.89-9.07,2.2-.25-.05-.49-.11-.74-.17h0s1.28,10.92,1.28,10.92c.72,6.12-3.66,11.67-9.78,12.39-6.12.72-11.67-3.66-12.39-9.78-.08-.64-.09-1.34-.06-1.96l1.2-20.3c-1.1.76-2.45,1.17-3.88,1.09-3.43-.2-6.05-3.14-5.85-6.58.16-2.79,2.14-5.05,4.72-5.69-.01-.06-.03-.12-.04-.17,0-.03-.01-.05-.02-.08-.07-.26-.13-.48-.2-.68,0-.02-.01-.05-.02-.07-.03-.09-.06-.19-.09-.28,0-.03-.02-.05-.03-.08-.02-.05-.03-.1-.05-.15,0-.03-.02-.06-.03-.09-.02-.06-.04-.12-.06-.18,0-.03-.02-.06-.03-.1-.02-.07-.04-.13-.06-.2,0-.03-.02-.06-.03-.09-.03-.1-.06-.21-.09-.33,0,0,0,0,0,0-.03-.12-.06-.24-.09-.38,0-.04-.02-.09-.03-.14-.02-.1-.04-.2-.06-.31-.01-.06-.02-.12-.04-.18-.02-.12-.05-.24-.07-.37-.01-.06-.02-.12-.03-.19-.03-.19-.07-.39-.1-.61,0,0,0-.02,0-.02-.09-.57-.14-1.12-.15-1.67-.02-.99.1-1.93.34-2.83-.1.05-.21.08-.32.08-.07,0-.15-.01-.22-.03-.17-.05-.29-.17-.39-.3-4.71-.05-9.81.88-13.7,3.32-3.69,2.31-6.11,7.36-8.84,10.76-1.74,2.16-3.67,4.21-5.92,5.82-.02.58-.04,1.16-.04,1.74,0,25.68,20.82,46.5,46.5,46.5s46.5-20.82,46.5-46.5S72.18,0,46.5,0Z" fill="#2563ff"/><path d="M29.43,25.12c-.24.9-.36,1.85-.34,2.83-.02-.99.1-1.93.34-2.83h0Z" fill="#ffddba"/><path d="M29.84,32.45c-.02-.07-.04-.13-.06-.2.02.07.04.14.06.2Z" fill="#ffddba"/><path d="M29.92,32.73c-.02-.06-.04-.12-.06-.18.02.06.04.12.06.18Z" fill="#ffddba"/><path d="M29.44,30.82c-.02-.12-.05-.24-.07-.37.02.13.05.25.07.37Z" fill="#ffddba"/><path d="M29.34,30.26c-.03-.19-.07-.39-.1-.61.03.22.07.42.1.61Z" fill="#ffddba"/><path d="M29.54,31.3c-.02-.1-.04-.2-.06-.31.02.11.04.21.06.31Z" fill="#ffddba"/><path d="M29.66,31.82c-.03-.12-.06-.24-.09-.38.03.13.06.26.09.38Z" fill="#ffddba"/><path d="M29.75,32.16c-.03-.1-.06-.21-.09-.33.03.12.06.23.09.33Z" fill="#ffddba"/><path d="M32.87,34.21s-.01,0-.02,0c.02,0,.03,0,.05,0,0,0-.02,0-.03,0Z" fill="#ffddba"/><path d="M30,32.96s-.03-.1-.05-.15c.02.05.03.1.05.15Z" fill="#ffddba"/><path d="M47.71,27.38c1.07.45,2.01,1.11,2.8,1.93,1.75.35,2.88,1.09,2.97,1.15.19.13.24.39.11.59-.13.19-.39.24-.58.11-.06-.04-.65-.42-1.6-.74.74,1.09,1.24,2.36,1.4,3.73l.85,7.27c.16.04.32.09.49.15.13.05.26.09.39.14.07-.14.21-.24.38-.23h1.46s0,0,0,0c.31,0,.6-.14.78-.39.19-.25.25-.56.17-.86l-1.75-6.38c-.06-.22.07-.46.3-.52.22-.06.46.07.52.3l1.75,6.38c.15.56.04,1.14-.31,1.6-.35.46-.88.72-1.45.72h-.43c.91.51,1.57,1.22,1.98,2.55.14.44-.11.91-.55,1.05-.44.14-.91-.11-1.05-.55-.46-1.48-1.27-1.72-2.44-2.12l.04.31h.49c.34,0,.61.27.61.61v1.08c0,.22-.05.43-.14.62-.13.28-.35.5-.61.64l.9,7.65h0s0,.06,0,.06c.25.06.49.12.74.17,3.44.69,6.69.28,9.07-2.2,4.23-4.41,3.16-11.02,1.25-16.29l-.59.52.48,2.12c.04.16-.03.32-.15.41-.13.09-.3.1-.44.02l-1.86-1.11-1.86,1.11c-.06.04-.13.06-.2.06-.08,0-.16-.03-.23-.08-.13-.09-.19-.25-.15-.41l.48-2.12-1.63-1.43c-.12-.1-.16-.27-.12-.42.05-.15.18-.26.34-.27l2.15-.2.85-2c.06-.15.21-.24.36-.24s.3.09.36.24l.85,2,.67.06c-.54-1.37-1.14-2.77-1.79-4.16-2.66-.13-4.53,1.09-4.65,1.17-.19.13-.45.08-.58-.11-.13-.19-.08-.45.11-.59.12-.08,2-1.31,4.71-1.32-2.05-4.13-4.72-8.06-8.52-10.41-1.62,3.35-4.19,6.31-7.11,8.65Z" fill="#ffddba"/><path d="M34.46,18.91c5.46-2.95,12.53-3.71,18.36-1.22,0,0,.02,0,.02,0,0,0,.02,0,.02.01.68.29,1.33.64,1.95,1.03-.62-.39-1.27-.73-1.95-1.03-.02,0-.03-.01-.05-.02-5.83-2.49-12.9-1.73-18.36,1.22-.37.2-.72.42-1.06.65,0,0,0,0,0,0,.34-.23.68-.45,1.06-.65Z" fill="#ffddba"/><path d="M30.36,34.15s-.01-.05-.02-.08c0,.03.01.05.02.08Z" fill="#ffddba"/><path d="M30.14,33.39s-.01-.05-.02-.07c0,.02.01.05.02.07Z" fill="#ffddba"/><path d="M36.38,44.68c-.08.08-.17.17-.25.25.08-.08.17-.16.25-.25Z" fill="#ffddba"/><path d="M48.58,52.62c-.3-.36.11-.88.53-.66,1.77.91,3.31,1.46,4.4,1.79-7.98-2.61-16.15-9.8-16.39-10.01-.07.11-.14.21-.22.32.1-.07.25-.03.27.11.21,1.08.4,3.94-2.04,6.29l.29-4.96s0,0-.01,0l-1.2,20.3c-.03.62-.02,1.32.06,1.96.72,6.12,6.27,10.5,12.39,9.78,6.12-.72,10.5-6.27,9.78-12.39l-1.28-10.91.77,7-7.35-8.61Z" fill="#ffddba"/><path d="M40.31,31.87c1.27,3.43,1.75,5.84,1.75,5.84.08.23.12.47.12.71,0,.84-.51,1.64-1.35,1.97-1.02.39-2.16-.05-2.65-1.02l-.22-.43c.13.57.19,1.17.16,1.79-.06,1.11-.42,2.14-.99,3.01.24.21,8.41,7.4,16.39,10.01,1.02.31,1.64.41,1.64.41l-.9-7.65c-.21.12-.44.19-.7.19-.2,0-.39-.04-.56-.11-.17-.07-.33-.18-.46-.31-.26-.26-.42-.63-.42-1.03h0v-1.08c0-.34.27-.61.61-.61h1.19l-.04-.31c-.09-.03-.18-.06-.28-.1-1.31-.46-2.36-.35-3.27.31-.38.27-.9.19-1.17-.19-.27-.38-.19-.9.19-1.17,1.25-.9,2.71-1.12,4.32-.68l-.85-7.27c-.16-1.37-.66-2.64-1.4-3.73-1.57-.53-4.14-.88-6.99.78-.07.04-.14.06-.21.06-.15,0-.29-.08-.36-.21-.12-.2-.05-.46.15-.58,2.5-1.45,4.8-1.5,6.52-1.16-.78-.82-1.73-1.48-2.8-1.93,0,0-.01.01-.02.02-2.25,1.81-4.75,3.3-7.39,4.47ZM45.01,34.57c.05-.15.18-.26.34-.27l2.15-.2.85-2c.06-.15.21-.24.36-.24s.3.09.36.24l.85,2,2.15.2c.16.01.29.12.34.27.05.15,0,.32-.12.42l-1.63,1.43.48,2.12c.04.16-.03.32-.15.41-.13.09-.3.1-.44.02l-1.86-1.11-1.86,1.11c-.06.04-.13.06-.2.06-.08,0-.16-.03-.23-.08-.13-.09-.19-.25-.15-.41l.48-2.12-1.63-1.43c-.12-.1-.17-.27-.12-.42Z" fill="#ffddba"/><polygon points="55.16 54.24 55.16 54.23 55.16 54.23 55.16 54.24" fill="#21211d"/><rect x="55.16" y="54.17" width="0" height=".06" transform="translate(-5.99 6.86) rotate(-6.75)" fill="#21211d"/><path d="M53.52,53.76c-1.08-.33-2.63-.88-4.4-1.79-.42-.22-.84.3-.53.66l7.35,8.61-.77-7h0c-.55-.14-1.1-.3-1.65-.48Z" fill="#21211d"/><path d="M55.16,54.23v-.06s-.62-.1-1.65-.41c.55.18,1.1.34,1.65.47Z" fill="#21211d"/><path d="M36.38,44.68c-.09.09-.17.17-.25.25-.22.2-.45.39-.7.56l-.29,4.96c2.44-2.35,2.25-5.21,2.04-6.29-.03-.13-.17-.17-.27-.11-.16.22-.34.43-.53.62Z" fill="#21211d"/><path d="M29.48,30.99c-.01-.06-.02-.12-.04-.18.01.06.02.12.04.18Z" fill="#e69bc8"/><path d="M29.09,27.96c0,.55.06,1.1.15,1.67,0,0,0,.02,0,.02,0,0,0-.02,0-.02-.09-.57-.14-1.12-.15-1.67Z" fill="#e69bc8"/><path d="M29.38,30.45c-.01-.06-.02-.12-.03-.19.01.07.02.13.03.19Z" fill="#e69bc8"/><path d="M30.36,34.15c.01.05.03.11.04.17,0,0,0,0,0,0-.01-.06-.03-.11-.04-.17Z" fill="#e69bc8"/><path d="M30.03,33.05c.03.09.06.19.09.28-.04-.12-.08-.24-.12-.36,0,.03.02.05.03.08Z" fill="#e69bc8"/><path d="M30.34,34.08c-.07-.26-.13-.48-.2-.68.07.2.13.42.2.68Z" fill="#e69bc8"/><path d="M29.78,32.25s-.02-.06-.03-.09c0,.03.02.06.03.09Z" fill="#e69bc8"/><path d="M29.87,32.55s-.02-.06-.03-.1c0,.03.02.06.03.1Z" fill="#e69bc8"/><path d="M29.57,31.44s-.02-.09-.03-.14c0,.05.02.09.03.14Z" fill="#e69bc8"/><path d="M29.95,32.82s-.02-.06-.03-.09c0,.03.02.06.03.09Z" fill="#e69bc8"/><path d="M29.66,31.82s0,0,0,0c0,0,0,0,0,0Z" fill="#e69bc8"/><path d="M52.85,17.7s-.02,0-.02,0c-5.83-2.49-12.9-1.73-18.36,1.22-.37.2-.72.42-1.06.65.01.24-.08.49-.3.64-.07.05-.14.11-.21.16l-2.56,4.57c-.21-.01-.43-.01-.64-.02-.07.09-.16.16-.27.21-.24.9-.36,1.85-.34,2.83,0,.55.06,1.1.15,1.67,0,0,0,.02,0,.02.03.22.07.42.1.61.01.07.02.13.03.19.02.13.05.25.07.37.01.06.02.12.04.18.02.11.04.21.06.31,0,.05.02.09.03.14.03.13.06.26.09.38,0,0,0,0,0,0,.03.12.06.23.09.33,0,.03.02.06.03.09.02.07.04.14.06.2,0,.03.02.06.03.1.02.06.04.12.06.18,0,.03.02.06.03.09.02.05.03.1.05.15.04.12.08.24.12.36,0,.02.01.05.02.07.06.2.13.42.2.68,0,.03.01.05.02.08.01.05.03.11.04.17.59-.15,1.21-.21,1.85-.17.2.01.39.03.59.06,0,0,.01,0,.02,0,0,0,.02,0,.03,0,1.19.19,2.25.72,3.1,1.47l.06-1.05c.27-4.64,4.25-8.17,8.89-7.9.98.06,1.91.29,2.77.65,2.92-2.34,5.49-5.3,7.11-8.65-.62-.39-1.27-.73-1.95-1.03,0,0-.02,0-.02-.01Z" fill="#e69bc8"/><path d="M37.96,38.94l.22.43c.49.97,1.63,1.42,2.65,1.02.84-.32,1.35-1.12,1.35-1.97,0-.24-.04-.48-.12-.71,0,0-.47-2.41-1.75-5.84,2.64-1.17,5.13-2.67,7.39-4.47,0,0,.01-.01.02-.02-.86-.36-1.79-.59-2.77-.65-4.64-.27-8.62,3.26-8.89,7.9l-.06,1.05c.96.84,1.66,1.97,1.96,3.25Z" fill="#e69bc8"/><path d="M34.25,41.11s-.08.04-.12.04c-.05,0-.1-.01-.15-.03l-1.96-.82-.55,1.45c-.06.16-.21.26-.37.26-.05,0-.1,0-.14-.03-.21-.08-.31-.31-.23-.52l.56-1.48-2.19-.92c-.2-.09-.3-.32-.21-.52.09-.2.32-.3.52-.21l3.84,1.61c-.58-.72-1.11-1.47-1.56-2.25l-.07-.12c-.35-.63-.65-1.28-.87-1.93-.1-.31-.19-.63-.26-.95,0-.03-.01-.06-.02-.09h0s0,0,0,0c-.02-.1-.04-.18-.06-.27-2.58.64-4.56,2.89-4.72,5.69-.2,3.43,2.42,6.38,5.85,6.58,1.44.08,2.78-.33,3.88-1.09l.18-3.05c-.46-.42-.91-.87-1.35-1.34Z" fill="#ffddba"/><path d="M30.47,34.59s.01.06.02.09c.07.32.16.63.26.95.22.65.51,1.3.87,1.93l.07.12c.44.78.97,1.53,1.56,2.25l1.05.44c.2.09.3.32.21.52-.05.11-.14.17-.25.21.44.47.89.92,1.35,1.34l.39-6.62c-1.03-.88-2.4-1.38-3.1-1.6-.02,0-.03,0-.05,0-.79.15-1.58.28-2.38.38h0Z" fill="#ffddba"/><path d="M35.43,45.47s.32-.19.7-.54c.09-.08.17-.16.25-.25.16-.17.32-.36.47-.58.01-.02.04-.03.05-.04.08-.1.15-.21.22-.32,0,0-.01-.01-.01-.01-.5-.39-1.01-.83-1.52-1.29l-.18,3.05s0,0,.01,0v-.02Z" fill="#ffddba"/><path d="M37.96,38.94l-.81-1.54c-.22-.63-.65-1.15-1.16-1.58l-.39,6.62c.5.46,1.01.89,1.52,1.29,0,0,0,0,.01.01.56-.87.92-1.9.99-3.01.04-.62-.02-1.22-.16-1.79Z" fill="#ffddba"/><path d="M35.43,45.47v.02c.25-.17.48-.36.7-.56-.38.35-.7.54-.7.54Z" fill="#ffddba"/><path d="M36.38,44.68c.19-.2.36-.4.53-.62-.02.01-.04.02-.05.04-.15.22-.31.41-.47.58Z" fill="#ffddba"/><path d="M30.47,34.59c-.02-.1-.04-.18-.06-.27,0,0,0,0,0,0,.02.09.04.17.06.27,0,0,0,0,0,0Z" fill="#ffddba"/><path d="M36,35.69c-.86-.75-1.92-1.28-3.1-1.47.7.22,2.06.71,3.1,1.6v-.13Z" fill="#ffddba"/><path d="M32.84,34.22c-.19-.03-.39-.05-.59-.06-.64-.04-1.26.02-1.85.17.02.09.04.17.06.27.8-.1,1.59-.22,2.38-.38Z" fill="#ffddba"/><path d="M37.14,37.4l.81,1.54c-.3-1.28-1-2.41-1.96-3.25v.13c.49.43.92.94,1.15,1.58Z" fill="#ffddba"/><path d="M29.39,38.32c-.2-.09-.44.01-.52.21-.09.2.01.44.21.52l2.19.92.14-.36c.08-.21.31-.31.52-.23.21.08.31.31.23.52l-.15.39,1.96.82c.05.02.1.03.15.03.04,0,.08-.02.12-.04-.35-.38-.69-.77-1.01-1.17l-3.84-1.61Z" fill="#21211d"/><path d="M34.5,40.9c.09-.2-.01-.44-.21-.52l-1.05-.44c.32.4.66.79,1.01,1.17.11-.04.2-.1.25-.21Z" fill="#21211d"/><path d="M30.71,41.46c-.08.21.02.44.23.52.05.02.1.03.14.03.16,0,.31-.1.37-.26l.55-1.45-.74-.31-.56,1.48Z" fill="#21211d"/><path d="M31.93,39.39c-.21-.08-.44.02-.52.23l-.14.36.74.31.15-.39c.08-.21-.02-.44-.23-.52Z" fill="#21211d"/><path d="M5.96,38.94c2.73-3.4,5.15-8.45,8.84-10.76,3.89-2.43,8.99-3.37,13.7-3.32-.12-.18-.17-.41-.1-.63.04-.13,1.02-3.22,3.84-5.24.03-.02.07-.03.11-.05-4.22-4.95-11.6-7.02-17.75-4.83-.87.31-1.7.7-2.52,1.12C4.94,23.09.46,33.41.04,44.76c2.24-1.61,4.18-3.66,5.92-5.82Z" fill="#e69bc8"/><path d="M29.82,24.68c-.03.09-.07.16-.12.23.21,0,.43,0,.64.02l2.56-4.57c-2.24,1.73-3.07,4.28-3.07,4.31Z" fill="#e69bc8"/><path d="M28.5,24.87c.09.14.22.25.39.3.07.02.15.03.22.03.11,0,.22-.03.32-.08.02-.07.03-.15.06-.22-.33-.01-.65-.03-.98-.04Z" fill="#edc829"/><path d="M33.41,19.56c0-.14-.04-.28-.13-.4-.22-.3-.61-.38-.93-.22.24.28.47.58.68.88.12-.09.25-.17.37-.26Z" fill="#edc829"/><path d="M33.03,19.82c.12-.09.25-.17.37-.26,0,0,0,0,0,0-.12.09-.25.17-.37.26h0Z" fill="#edc829"/><path d="M29.49,24.9h0c-.02.07-.04.14-.06.22h0c.02-.07.03-.15.06-.22Z" fill="#edc829"/><path d="M29.43,25.12c.1-.05.2-.12.27-.21-.07,0-.14,0-.21,0-.02.07-.04.14-.06.22Z" fill="#edc829"/><path d="M32.9,20.37c.07-.05.14-.11.21-.16.21-.15.31-.4.3-.64-.12.09-.25.17-.37.26.03.04.07.08.1.13l-.24.42Z" fill="#edc829"/><path d="M28.4,24.24c-.07.22-.02.45.1.63.33,0,.66.02.98.04.58-2.01,1.78-3.76,3.55-5.09-.22-.3-.44-.59-.68-.88-.04.02-.08.03-.11.05-2.82,2.02-3.8,5.11-3.84,5.24Z" fill="#edc829"/><path d="M33.03,19.82h0c-1.77,1.33-2.97,3.08-3.55,5.09h0c.58-2.01,1.78-3.76,3.55-5.09Z" fill="#edc829"/><path d="M29.49,24.9c.07,0,.14,0,.21,0,.05-.07.1-.14.12-.23,0-.03.84-2.58,3.07-4.31l.24-.42s-.07-.08-.1-.13c-1.77,1.33-2.97,3.08-3.55,5.09Z" fill="#edc829"/><path d="M56.36,42.32h0c.57,0,1.1-.26,1.45-.72.35-.46.46-1.04.31-1.6l-1.75-6.38c-.06-.22-.29-.36-.52-.3-.22.06-.36.29-.3.52l1.75,6.38c.08.3.02.61-.17.86-.19.25-.47.39-.78.39,0,0,0,0,0,0h-1.46c-.17-.01-.31.09-.38.23.52.19.99.38,1.4.61h.42Z" fill="#21211d"/><path d="M67.71,31.2c.07.04.14.06.21.06.15,0,.29-.08.36-.21.12-.2.05-.46-.15-.58-1.73-1.01-3.36-1.33-4.78-1.33.14.28.28.57.41.85,1.19.06,2.53.39,3.94,1.21Z" fill="#21211d"/><path d="M58.53,31.05c.13.19.39.24.58.11.11-.07,1.99-1.3,4.65-1.17-.13-.28-.27-.57-.41-.85-2.71,0-4.59,1.24-4.71,1.32-.19.13-.24.39-.11.59Z" fill="#21211d"/><path d="M53.01,31.16c.19.13.45.08.58-.11.13-.19.08-.46-.11-.59-.09-.06-1.22-.81-2.97-1.15.33.34.63.71.9,1.11.95.32,1.54.7,1.6.74Z" fill="#21211d"/><path d="M43.99,30.47c-.2.12-.27.38-.15.58.08.13.22.21.36.21.07,0,.15-.02.21-.06,2.85-1.66,5.42-1.31,6.99-.78-.27-.39-.57-.76-.9-1.11-1.71-.34-4.02-.29-6.52,1.16Z" fill="#21211d"/><path d="M54.87,45.87c.09-.19.14-.4.14-.62v-1.08c0-.34-.27-.61-.61-.61h-.49l.19,1.61c.31.17.57.41.77.7Z" fill="#21211d"/><path d="M52.11,44.17v.86c.27-.11.55-.16.85-.16.42,0,.8.11,1.14.3l-.19-1.61h-1.19c-.34,0-.61.27-.61.61Z" fill="#21211d"/><path d="M52.99,46.59c-.17-.07-.33-.18-.46-.31.13.13.29.24.46.31Z" fill="#f74bad"/><path d="M52.11,45.25c0,.4.16.76.42,1.03-.26-.26-.42-.63-.42-1.03h0Z" fill="#f74bad"/><path d="M54.1,45.17l.16,1.34c.27-.15.48-.37.61-.64-.2-.29-.46-.53-.77-.7Z" fill="#f74bad"/><path d="M52.96,44.86c-.3,0-.59.06-.85.16v.22c0,.4.16.76.42,1.03.13.13.29.24.46.31.17.07.36.11.56.11.26,0,.49-.08.7-.19l-.16-1.34c-.34-.19-.72-.3-1.14-.3Z" fill="#f74bad"/><path d="M46.76,36.42l-.48,2.12c-.04.16.03.32.15.41.07.05.15.08.23.08.07,0,.14-.02.2-.06l1.86-1.11,1.86,1.11c.14.08.31.07.44-.02.13-.09.19-.25.15-.41l-.48-2.12,1.63-1.43c.12-.1.17-.27.12-.42-.05-.15-.18-.26-.34-.27l-2.15-.2-.85-2c-.06-.15-.21-.24-.36-.24s-.3.09-.36.24l-.85,2-2.15.2c-.16.01-.29.12-.34.27-.05.15,0,.32.12.42l1.63,1.43Z" fill="#ffc107"/><path d="M66.22,35.9l1.04-.91c.12-.1.17-.27.12-.42-.05-.15-.18-.26-.34-.27l-1.48-.13c.13.32.25.63.37.95.1.26.2.53.29.79Z" fill="#ffc107"/><path d="M64.03,32.1c-.06-.15-.21-.24-.36-.24s-.3.09-.36.24l-.85,2-2.15.2c-.16.01-.29.12-.34.27-.05.15,0,.32.12.42l1.63,1.43-.48,2.12c-.04.16.03.32.15.41.07.05.15.08.23.08.07,0,.14-.02.2-.06l1.86-1.11,1.86,1.11c.14.08.31.07.44-.02.13-.09.19-.25.15-.41l-.48-2.12.59-.52c-.1-.27-.19-.53-.29-.79-.12-.31-.25-.63-.37-.95l-.67-.06-.85-2Z" fill="#ffc107"/><path d="M56.31,45.37c.14.44.61.69,1.05.55.44-.14.69-.61.55-1.05-.41-1.33-1.08-2.04-1.98-2.55h-1.03c-.23,0-.42-.19-.42-.43,0-.07.02-.13.05-.19-.13-.05-.25-.09-.39-.14-.17-.06-.33-.1-.49-.15l.21,1.83c1.18.4,1.98.64,2.44,2.12Z" fill="#ffddba"/><path d="M56.31,45.37c.14.44.61.69,1.05.55.44-.14.69-.61.55-1.05-.41-1.33-1.08-2.04-1.98-2.55h-1.03c-.23,0-.42-.19-.42-.43,0-.07.02-.13.05-.19-.13-.05-.25-.09-.39-.14-.17-.06-.33-.1-.49-.15l.21,1.83c1.18.4,1.98.64,2.44,2.12Z" fill="#e69bc8" isolation="isolate" opacity="0"/><path d="M49.34,42.1c-.38.27-.46.8-.19,1.17.27.38.8.46,1.17.19.9-.65,1.96-.76,3.27-.31.1.03.19.06.28.1l-.21-1.83c-1.61-.44-3.07-.22-4.32.68Z" fill="#ffddba"/><path d="M49.34,42.1c-.38.27-.46.8-.19,1.17.27.38.8.46,1.17.19.9-.65,1.96-.76,3.27-.31.1.03.19.06.28.1l-.21-1.83c-1.61-.44-3.07-.22-4.32.68Z" fill="#e69bc8" isolation="isolate" opacity="0"/><path d="M54.91,42.32h1.03c-.42-.23-.89-.42-1.4-.61-.03.06-.05.12-.05.19,0,.23.19.42.42.42Z" fill="#21211d"/><path d="M54.91,42.32h1.03c-.42-.23-.89-.42-1.4-.61-.03.06-.05.12-.05.19,0,.23.19.42.42.42Z" fill="#e69bc8" isolation="isolate" opacity="0"/></svg>