<?xml version="1.0" encoding="UTF-8"?><svg id="Ebene_2" xmlns="http://www.w3.org/2000/svg" width="93" height="93" viewBox="0 0 93 93"><path d="M46.5,0c-12.7,0-24.21,5.1-32.61,13.36,6.18-1.96,13.45.16,17.65,5.09.33-.16.73-.08.95.23.09.12.12.26.13.41.34-.24.7-.46,1.08-.67,5.58-3.01,12.81-3.79,18.77-1.24.02,0,.03.01.05.02.7.3,1.36.65,2,1.05,3.34,2.06,5.82,5.31,7.78,8.86,1.51-.47,3.13-.44,4.65.11,1.83.67,3.29,2,4.1,3.76.82,1.76.9,3.73.23,5.55-.69,1.88-2.08,3.29-3.77,4.08.79,4.21.47,8.6-2.63,11.83-2.43,2.53-5.76,2.95-9.27,2.25-.25-.05-.5-.11-.76-.17h0s1.31,11.16,1.31,11.16c.74,6.26-3.74,11.93-10,12.66-6.26.74-11.92-3.74-12.66-10-.08-.65-.09-1.37-.06-2l1.22-20.75c-1.12.77-2.5,1.2-3.97,1.11-3.51-.2-6.19-3.21-5.98-6.72.17-2.85,2.19-5.16,4.82-5.81-.01-.06-.03-.12-.04-.17,0-.03-.01-.05-.02-.08-.07-.26-.14-.49-.2-.69,0-.03-.02-.05-.02-.08-.03-.1-.06-.19-.09-.28-.01-.03-.02-.07-.03-.1-.01-.04-.03-.09-.04-.13-.01-.03-.02-.06-.03-.09-.02-.06-.04-.12-.06-.18-.01-.03-.02-.07-.03-.1-.02-.06-.04-.13-.06-.2-.01-.04-.02-.07-.03-.11-.03-.1-.06-.21-.09-.34,0,0,0-.01,0-.02-.03-.11-.06-.24-.09-.37-.01-.05-.02-.1-.03-.14-.02-.1-.04-.21-.07-.32-.01-.06-.02-.12-.04-.18-.02-.12-.05-.24-.07-.37-.01-.07-.02-.13-.04-.2-.03-.19-.07-.39-.1-.61,0-.01,0-.02,0-.03-.09-.58-.14-1.15-.15-1.71-.02-1.01.11-1.98.35-2.9-.1.05-.21.08-.33.08-.08,0-.15-.01-.23-.03-.17-.05-.3-.17-.39-.31-4.81-.05-10.03.9-14.01,3.39-3.77,2.36-6.25,7.52-9.03,11-1.35,1.68-2.83,3.3-4.47,4.7-.06.96-.1,1.93-.1,2.91,0,25.68,20.82,46.5,46.5,46.5s46.5-20.82,46.5-46.5S72.18,0,46.5,0Z" fill="#2563ff"/><path d="M70.32,36.17c.57-1.56.5-3.26-.2-4.77-.7-1.51-1.96-2.66-3.52-3.23-.7-.26-1.43-.38-2.15-.38-.55,0-1.1.08-1.64.23.15.29.29.57.43.86,1.63-.03,3.32.36,5.02,1.36.21.12.28.38.16.59-.12.21-.38.28-.59.16-1.42-.82-2.82-1.2-4.17-1.24.51,1.07.97,2.15,1.41,3.21.54.09,1.11.23,1.71.47.5.2,1.02.45,1.56.77.27.16.54.34.82.53,0,0-.21.26-.6.61-.24.21-.54.45-.9.7-.34.22-.73.45-1.17.64.32.94.6,1.92.83,2.91,1.35-.69,2.46-1.87,3.02-3.4Z" fill="#2563ff"/><path d="M53.82,41.57c.14.05.27.1.41.15.07-.13.19-.22.34-.24h.04s1.49,0,1.49,0c.65,0,1.12-.6.99-1.22v-.05s-1.32-4.78-1.32-4.78c-.07.38-.17.75-.3,1.13-.48,1.31-1.31,2.38-2.34,3.19l.2,1.69c.17.05.33.09.5.15Z" fill="#963716"/><path d="M28.79,31.59c-.03-.11-.06-.24-.09-.37.03.13.06.25.09.37Z" fill="#963716"/><path d="M32.07,34.05s-.02,0-.02,0c.02,0,.03,0,.05,0,0,0-.02,0-.03,0Z" fill="#963716"/><path d="M29.28,33.22s-.02-.05-.02-.08c0,.03.02.05.02.08Z" fill="#963716"/><path d="M50.09,29.03c.62.12,1.24.29,1.83.52.37.15.7.3.99.46l.11.06c.12.07.21.12.26.16.2.13.25.4.12.6s-.4.25-.6.12l-.07-.04c-.06-.03-.13-.08-.24-.14-.26-.14-.56-.28-.89-.41-.2-.08-.4-.14-.6-.2.72,1.05,1.2,2.25,1.4,3.55.56.27,1.14.6,1.74,1.02,0,0-.52.64-1.46,1.27l.3,2.53c.65-.63,1.18-1.41,1.51-2.32,1.18-3.23-.49-6.82-3.73-8-.69-.25-1.41-.38-2.12-.38.53.35,1.01.76,1.44,1.21Z" fill="#963716"/><path d="M28.97,32.26c-.02-.06-.04-.13-.06-.2.02.07.04.14.06.2Z" fill="#963716"/><path d="M29.13,32.76s-.03-.09-.04-.13c.01.04.03.09.04.13Z" fill="#963716"/><path d="M29.51,33.99s-.01-.05-.02-.08c0,.03.01.05.02.08Z" fill="#963716"/><path d="M28.88,31.95c-.03-.1-.06-.21-.09-.34.03.12.06.23.09.34Z" fill="#963716"/><path d="M63.23,28.88c-.14-.29-.29-.57-.43-.86-.34.09-.67.2-.99.35-.58.27-1.09.64-1.56,1.06.96-.34,1.96-.54,2.98-.56Z" fill="#963716"/><path d="M29.06,32.53c-.02-.06-.04-.12-.06-.18.02.06.04.12.06.18Z" fill="#963716"/><path d="M61.94,40.85c-3.27-1.19-5.17-4.5-4.71-7.81-.27-.08-.72-.11-1.23.22.05.04.09.09.11.16v.04s1.8,6.52,1.8,6.52c.32,1.17-.54,2.33-1.74,2.37h-.07s-.44,0-.44,0c.92.52,1.6,1.25,2.02,2.6.14.45-.11.93-.57,1.08-.45.14-.93-.11-1.08-.57-.47-1.51-1.29-1.76-2.5-2.16l.17,1.46c.33.13.72.18,1.17.12.24-.03.45.14.48.38s-.14.45-.38.48c-.43.05-.8.01-1.16-.07l1.03,8.79h0s0,.06,0,.06c.25.06.51.12.76.17,3.51.7,6.84.29,9.27-2.25,3.1-3.23,3.42-7.62,2.63-11.83-.96.44-2,.69-3.08.69-.83,0-1.67-.14-2.5-.44Z" fill="#963716"/><path d="M28.67,31.08c-.02-.1-.04-.21-.07-.32.02.11.04.22.07.32Z" fill="#963716"/><path d="M28.56,24.76c-.24.92-.37,1.89-.35,2.9-.02-1.01.11-1.98.35-2.9,0,0,0,0,0,0Z" fill="#963716"/><path d="M28.47,30.01c-.03-.19-.07-.39-.1-.61.03.22.07.42.1.61Z" fill="#963716"/><path d="M33.7,18.41c5.58-3.01,12.81-3.79,18.77-1.24,0,0,.02,0,.02.01,0,0,.02,0,.02.01.7.3,1.36.65,2,1.05-.63-.4-1.3-.75-2-1.05-.02,0-.03-.01-.05-.02-5.96-2.54-13.19-1.77-18.77,1.24-.38.21-.74.43-1.08.67h0c.34-.24.7-.46,1.08-.67Z" fill="#963716"/><path d="M66.37,36.7c-.8.34-1.75.57-2.84.53h0c-1.47-.05-3.18-.6-5.06-2.06,0,0,1.83-2.1,4.88-2.31h0c.2-.01.41-.02.62-.02.35,0,.71.04,1.08.11-.44-1.06-.9-2.14-1.41-3.21-1.18-.03-2.33.18-3.41.61-.34.13-.64.27-.89.41l-.13.08c-.08.05-.13.08-.17.1,0,0-.02,0-.02.01-.17.3-.33.61-.45.94-1.18,3.23.49,6.82,3.73,8,1.7.62,3.5.45,5-.32-.23-.99-.51-1.97-.83-2.91-.03.01-.06.03-.1.04Z" fill="#963716"/><path d="M47.47,26.89c1.21-.2,2.46-.08,3.65.35,2.34.85,3.97,2.78,4.55,5.03.66-.34,1.29-.34,1.77-.22.05-.17.1-.34.16-.51.67-1.82,2.01-3.28,3.77-4.09.3-.14.61-.25.92-.35-1.96-3.55-4.44-6.8-7.78-8.86-1.62,3.33-4.15,6.29-7.05,8.65Z" fill="#963716"/><path d="M28.57,30.58c-.02-.12-.05-.24-.07-.37.02.13.05.25.07.37Z" fill="#963716"/><path d="M48.13,52.87c-.31-.37.12-.89.55-.67,1.81.93,3.39,1.5,4.5,1.83-8.16-2.67-16.51-10.02-16.75-10.24-.07.11-.14.22-.22.32.1-.07.25-.03.28.11.22,1.1.41,4.02-2.08,6.43l.29-5.07s0,0-.01,0l-1.22,20.75c-.03.64-.02,1.35.06,2,.74,6.26,6.4,10.73,12.66,10,6.26-.74,10.73-6.4,10-12.66l-1.31-11.15.78,7.16-7.51-8.8Z" fill="#963716"/><path d="M35.67,44.75c-.08.09-.17.17-.26.25.08-.08.17-.16.26-.25Z" fill="#963716"/><path d="M52.64,36.02c-.24.16-.51.32-.8.47s-.61.29-.96.4c-.69.23-1.47.37-2.34.34-1.47-.05-3.18-.6-5.06-2.06,0,0,1.83-2.1,4.88-2.31,1.18-.08,2.54.12,4.04.84-.2-1.3-.68-2.51-1.4-3.55-2.17-.69-4.56-.57-6.98.84-.21.12-.47.05-.59-.16-.03-.05-.04-.1-.05-.15-.25.39-.47.8-.63,1.24-1.18,3.23.49,6.82,3.73,8,2.33.85,4.84.22,6.51-1.4l-.3-2.53s-.03.02-.04.03Z" fill="#963716"/><path d="M45.98,28.4c-.88.41-1.61,1.01-2.2,1.74,2.16-1.2,4.3-1.48,6.3-1.11-.44-.45-.92-.86-1.44-1.21,0,0-.02,0-.03,0-.9,0-1.79.2-2.63.58Z" fill="#963716"/><path d="M41.78,31.56c.16-.44.37-.86.6-1.26-.88.49-1.78.95-2.7,1.36.03.08.06.16.09.24l1.99-.27s.01-.05.02-.07Z" fill="#963716"/><path d="M49.91,43.51c-.38.28-.92.19-1.2-.19-.28-.38-.19-.92.19-1.2,1.27-.92,2.77-1.14,4.41-.69l-.2-1.69c-1.28,1-2.86,1.58-4.51,1.58-.83,0-1.67-.14-2.5-.44-3.42-1.25-5.33-4.79-4.63-8.25l-1.39.19c.99,2.88,1.37,4.81,1.37,4.81.08.24.13.48.13.73,0,.86-.53,1.68-1.38,2.01-1.04.4-2.21-.05-2.71-1.05l-.23-.44c.14.59.2,1.2.16,1.83-.07,1.14-.43,2.19-1.01,3.08.25.22,8.59,7.57,16.75,10.24,1.04.31,1.67.42,1.67.42l-1.03-8.79c-.62-.14-1.14-.43-1.55-.89-.33-.36-.53-.73-.62-.99-.08-.22.04-.47.26-.55.21-.07.44.03.53.22l.03.08s.04.09.08.16c.09.17.21.34.35.49.23.25.5.44.81.56l-.17-1.46c-.09-.03-.19-.06-.29-.1-1.33-.47-2.42-.35-3.34.31Z" fill="#963716"/><polygon points="54.86 54.52 54.86 54.51 54.86 54.51 54.86 54.52" fill="#21211d"/><rect x="54.86" y="54.45" width="0" height=".06" transform="translate(-5.95 6.74) rotate(-6.67)" fill="#21211d"/><path d="M53.18,54.03c-1.11-.33-2.69-.9-4.5-1.83-.43-.22-.86.3-.55.67l7.51,8.8-.78-7.16h0c-.56-.14-1.12-.3-1.68-.49Z" fill="#21211d"/><path d="M54.86,54.51v-.06s-.64-.11-1.68-.42c.56.18,1.12.35,1.68.48Z" fill="#21211d"/><path d="M35.67,44.75c-.09.09-.17.18-.26.25-.22.21-.46.4-.72.58l-.29,5.07c2.5-2.4,2.3-5.33,2.08-6.43-.03-.14-.18-.18-.28-.11-.17.22-.34.44-.54.64Z" fill="#21211d"/><path d="M28.21,27.66c0,.56.06,1.13.15,1.71,0,.01,0,.02,0,.03,0-.01,0-.02,0-.03-.09-.58-.14-1.15-.15-1.71Z" fill="#e8e1e1"/><path d="M29,32.36s-.02-.07-.03-.1c.01.03.02.07.03.1Z" fill="#e8e1e1"/><path d="M29.49,33.92c-.07-.26-.14-.49-.2-.69.07.21.13.43.2.69Z" fill="#e8e1e1"/><path d="M28.5,30.21c-.01-.07-.02-.13-.04-.2.01.07.02.13.04.2Z" fill="#e8e1e1"/><path d="M28.91,32.06s-.02-.07-.03-.11c.01.04.02.07.03.11Z" fill="#e8e1e1"/><path d="M29.09,32.63s-.02-.06-.03-.09c.01.03.02.06.03.09Z" fill="#e8e1e1"/><path d="M28.61,30.76c-.01-.06-.02-.12-.04-.18.01.06.02.12.04.18Z" fill="#e8e1e1"/><path d="M29.51,33.99c.01.05.03.12.04.17,0,0,0,0,0,0-.01-.06-.03-.12-.04-.17Z" fill="#e8e1e1"/><path d="M28.7,31.22s-.02-.1-.03-.14c.01.05.02.1.03.14Z" fill="#e8e1e1"/><path d="M28.79,31.61s0-.01,0-.02c0,0,0,.01,0,.02Z" fill="#e8e1e1"/><path d="M29.17,32.86c.03.09.06.19.09.28-.04-.13-.09-.26-.13-.39.01.03.02.07.03.1Z" fill="#e8e1e1"/><path d="M32.09,34.06c1.21.19,2.3.73,3.17,1.5l.06-1.08c.02-.36.07-.7.13-1.05l-4.11.55s.06,0,.09,0c.2.01.4.04.6.07,0,0,.02,0,.02,0,0,0,.02,0,.03,0Z" fill="#e8e1e1"/><path d="M52.5,17.18s-.02,0-.02-.01c-5.96-2.54-13.19-1.77-18.77,1.24-.38.21-.74.43-1.08.67.01.25-.08.5-.3.66-.08.05-.14.11-.22.17l-2.62,4.67c-.21-.01-.44-.01-.65-.02-.07.09-.17.16-.27.21-.24.92-.37,1.89-.35,2.9,0,.56.06,1.13.15,1.71,0,.01,0,.02,0,.03.03.22.07.42.1.61.01.07.02.13.04.2.02.13.05.25.07.37.01.06.02.12.04.18.02.11.04.22.07.32.01.05.02.1.03.14.03.13.06.25.09.37,0,0,0,.01,0,.02.03.12.06.23.09.34.01.04.02.07.03.11.02.07.04.14.06.2.01.03.02.07.03.1.02.06.04.12.06.18.01.03.02.06.03.09.01.04.03.09.04.13.04.13.09.26.13.39,0,.03.02.05.02.08.07.21.13.43.2.69,0,.03.01.05.02.08.01.06.03.11.04.17.12-.03.25-.05.37-.07-.14-.07-.24-.19-.26-.36-.04-.26.15-.5.41-.54l5.64-.76c1.14-3.69,4.68-6.27,8.71-6.03.91.05,1.77.25,2.58.57.16-.04.31-.07.47-.09,2.89-2.36,5.43-5.32,7.05-8.65-.63-.4-1.3-.75-2-1.05,0,0-.02,0-.02-.01Z" fill="#e8e1e1"/><path d="M35.27,35.56c.98.86,1.7,2.02,2,3.32l.23.44c.5.99,1.67,1.45,2.71,1.05.86-.33,1.38-1.15,1.38-2.01,0-.24-.04-.49-.13-.73,0,0-.38-1.93-1.37-4.81l-4.63.62c-.06.34-.11.69-.13,1.05l-.06,1.08Z" fill="#e8e1e1"/><path d="M39.68,31.66c.92-.41,1.82-.87,2.7-1.36.74-1.23,1.83-2.22,3.17-2.84.47-.22.95-.38,1.45-.49-.81-.31-1.67-.51-2.58-.57-4.03-.24-7.56,2.34-8.71,6.03l4.05-.54c-.03-.08-.06-.16-.09-.24Z" fill="#e8e1e1"/><path d="M33.48,41.1s-.08.04-.13.04c-.05,0-.11-.01-.16-.03l-2-.84-.57,1.48c-.06.16-.22.26-.38.26-.05,0-.1,0-.15-.03-.21-.08-.32-.32-.24-.53l.58-1.51-2.24-.94c-.21-.09-.31-.33-.22-.54.09-.21.33-.31.54-.22l3.93,1.65c-.59-.73-1.14-1.5-1.59-2.3l-.07-.13c-.36-.64-.66-1.31-.88-1.97-.11-.32-.2-.64-.27-.97,0-.03-.01-.06-.02-.09h0s0,0,0,0c-.02-.1-.04-.19-.07-.28-2.64.65-4.66,2.96-4.82,5.81-.2,3.51,2.48,6.52,5.98,6.72,1.47.09,2.84-.34,3.97-1.11l.18-3.12c-.47-.43-.93-.89-1.38-1.37Z" fill="#963716"/><path d="M32.09,34.06s-.03,0-.05,0c-.81.16-1.62.29-2.43.39h0s.01.06.02.09c.07.32.16.65.27.97.22.67.52,1.33.88,1.97l.07.13c.45.8,1,1.57,1.59,2.3l1.07.45c.21.09.31.33.22.54-.05.11-.14.18-.25.21.45.48.91.94,1.38,1.37l.4-6.77c-1.06-.9-2.45-1.41-3.16-1.63Z" fill="#963716"/><path d="M34.69,45.56s.32-.19.72-.55c.09-.08.17-.17.26-.25.16-.17.33-.37.48-.59.01-.02.04-.03.06-.04.08-.1.15-.21.22-.32,0,0-.01-.01-.01-.01-.51-.4-1.04-.84-1.55-1.32l-.18,3.12s0,0,.01,0v-.02Z" fill="#963716"/><path d="M37.27,38.89l-.83-1.58c-.23-.65-.67-1.17-1.18-1.61l-.4,6.77c.52.47,1.04.91,1.55,1.32,0,0,0,0,.01.01.58-.89.94-1.94,1.01-3.08.04-.63-.02-1.24-.16-1.83Z" fill="#963716"/><path d="M35.67,44.75c.19-.2.37-.41.54-.64-.02.01-.04.02-.06.04-.15.22-.32.42-.48.59Z" fill="#963716"/><path d="M34.69,45.56v.02c.25-.17.49-.37.72-.58-.39.36-.72.55-.72.55Z" fill="#963716"/><path d="M29.62,34.44c-.02-.1-.04-.19-.06-.28,0,0,0,0,0,0,.02.09.04.18.07.28,0,0,0,0,0,0Z" fill="#963716"/><path d="M32.09,34.06c.71.23,2.11.73,3.16,1.63v-.13c-.87-.77-1.95-1.31-3.16-1.5Z" fill="#963716"/><path d="M32.05,34.06c-.2-.03-.4-.05-.6-.07-.03,0-.06,0-.09,0l-1.16.16c-.1.01-.19-.01-.27-.05-.12.02-.25.04-.37.07.02.09.04.18.06.28.81-.1,1.62-.23,2.43-.39Z" fill="#963716"/><path d="M35.27,35.56v.13c.5.44.94.96,1.17,1.61l.83,1.58c-.31-1.31-1.02-2.46-2-3.32Z" fill="#963716"/><path d="M28.52,38.26c-.21-.09-.45.01-.54.22-.09.21.01.45.22.54l2.24.94.14-.37c.08-.21.32-.32.53-.24.21.08.32.32.24.53l-.15.39,2,.84c.05.02.11.03.16.03.04,0,.08-.02.13-.04-.36-.39-.71-.79-1.04-1.2l-3.93-1.65Z" fill="#21211d"/><path d="M33.73,40.89c.09-.21-.01-.45-.22-.54l-1.07-.45c.33.41.68.81,1.04,1.2.11-.04.2-.1.25-.21Z" fill="#21211d"/><path d="M29.87,41.46c-.08.21.03.45.24.53.05.02.1.03.15.03.16,0,.32-.1.38-.26l.57-1.48-.76-.32-.58,1.51Z" fill="#21211d"/><path d="M31.11,39.35c-.21-.08-.45.03-.53.24l-.14.37.76.32.15-.39c.08-.21-.03-.45-.24-.53Z" fill="#21211d"/><path d="M4.57,38.89c2.79-3.47,5.26-8.64,9.03-11,3.98-2.49,9.19-3.44,14.01-3.39-.13-.18-.18-.42-.11-.65.04-.13,1.05-3.29,3.93-5.36.04-.03.08-.03.11-.05-4.2-4.93-11.47-7.05-17.65-5.09C5.97,21.16.83,31.77.1,43.59c1.64-1.4,3.11-3.01,4.47-4.7Z" fill="#e8e1e1"/><path d="M28.96,24.31c-.03.09-.07.17-.13.24.22.01.44,0,.65.02l2.62-4.67c-2.29,1.76-3.13,4.38-3.14,4.41Z" fill="#e8e1e1"/><path d="M27.61,24.5c.09.14.22.25.39.31.08.02.15.03.23.03.12,0,.23-.03.33-.08.02-.07.04-.15.06-.22-.33-.01-.67-.03-1.01-.04Z" fill="#edc829"/><path d="M32.62,19.08c0-.14-.04-.28-.13-.41-.22-.31-.62-.39-.95-.23.25.29.48.59.7.9.12-.09.25-.18.38-.26Z" fill="#edc829"/><path d="M32.24,19.34c.12-.09.25-.18.38-.26h0c-.13.09-.26.17-.38.26h0Z" fill="#edc829"/><path d="M28.61,24.54h0c-.02.07-.04.15-.06.22,0,0,0,0,0,0,.02-.07.04-.15.06-.22Z" fill="#edc829"/><path d="M28.56,24.76c.11-.05.2-.12.27-.21-.07,0-.14,0-.22,0-.02.07-.04.15-.06.22Z" fill="#edc829"/><path d="M32.1,19.9c.07-.06.14-.11.22-.17.22-.16.32-.41.3-.66-.13.09-.26.17-.38.26.03.04.07.08.1.13l-.24.43Z" fill="#edc829"/><path d="M27.5,23.86c-.07.23-.02.46.11.65.34,0,.67.02,1.01.04.59-2.05,1.82-3.84,3.63-5.2-.22-.31-.45-.61-.7-.9-.04.02-.08.03-.11.05-2.88,2.07-3.88,5.23-3.93,5.36Z" fill="#edc829"/><path d="M32.24,19.34h0c-1.81,1.36-3.04,3.15-3.63,5.2h0c.59-2.05,1.82-3.84,3.63-5.2Z" fill="#edc829"/><path d="M28.61,24.54c.07,0,.14,0,.22,0,.05-.07.1-.15.13-.24,0-.03.86-2.64,3.14-4.41l.24-.43s-.07-.09-.1-.13c-1.81,1.36-3.04,3.15-3.63,5.2Z" fill="#edc829"/><path d="M66.47,36.66c.44-.19.83-.41,1.17-.64-.34.22-.73.45-1.17.64h0Z" fill="#fff"/><path d="M66.77,33.42c-.6-.23-1.16-.38-1.71-.47h0c.54.09,1.11.23,1.71.47Z" fill="#fff"/><path d="M68.54,35.33c-.24.21-.54.45-.9.7.36-.24.66-.49.9-.7Z" fill="#fff"/><path d="M66.77,33.42c.5.2,1.02.45,1.56.77-.54-.32-1.05-.57-1.56-.77Z" fill="#fff"/><path d="M63.98,32.85c.35,0,.71.04,1.08.11h0c-.37-.06-.73-.1-1.08-.11Z" fill="#fff"/><path d="M66.37,36.7s.06-.03.1-.04h0s-.06.03-.1.04Z" fill="#fff"/><path d="M63.36,32.87c-3.05.2-4.88,2.31-4.88,2.31,1.88,1.46,3.59,2.01,5.06,2.06-.49-.59-.78-1.33-.82-2.15-.03-.82.2-1.59.64-2.22Z" fill="#fff"/><path d="M63.54,37.23c1.08.04,2.04-.19,2.84-.53-.8.34-1.75.57-2.84.53h0Z" fill="#fff"/><path d="M63.98,32.85c-.21,0-.42,0-.62.02h0c.2-.01.41-.02.62-.02Z" fill="#21211d"/><path d="M65.86,34.97c.21.55.41,1.12.61,1.69.44-.19.83-.41,1.17-.64.36-.24.66-.49.9-.7.39-.35.6-.61.6-.61-.28-.19-.55-.37-.82-.53-.54-.32-1.05-.57-1.56-.77-.6-.23-1.16-.38-1.71-.47.28.68.55,1.35.8,2.01Z" fill="#21211d"/><path d="M65.86,34.97c-.26-.66-.52-1.33-.8-2.01-.37-.06-.73-.1-1.08-.11-.21,0-.42,0-.62.02h0c-.44.63-.67,1.4-.64,2.22.03.82.33,1.56.82,2.15h0c1.08.04,2.04-.19,2.84-.53.03-.01.06-.03.1-.04-.19-.58-.39-1.15-.61-1.69Z" fill="#21211d"/><path d="M55.76,35.43l1.31,4.78v.05c.15.63-.33,1.23-.97,1.22h-1.49s-.04,0-.04,0c-.15.01-.28.11-.34.24.53.19,1.01.39,1.43.63h.44s.07,0,.07,0c1.2-.04,2.06-1.19,1.74-2.37l-1.79-6.52v-.04c-.04-.06-.08-.11-.13-.16-.04.03-.09.06-.13.09.07.68.04,1.38-.1,2.07Z" fill="#21211d"/><path d="M67.82,30.98c.21.12.47.05.59-.16.12-.21.05-.47-.16-.59-1.7-.99-3.4-1.39-5.02-1.36.14.29.28.58.42.86,1.36.04,2.76.41,4.17,1.24Z" fill="#21211d"/><path d="M59.21,30.84l.13-.08c.26-.14.56-.28.89-.41,1.08-.43,2.23-.64,3.41-.61-.14-.29-.27-.58-.42-.86-1.03.02-2.02.22-2.98.56-.49.44-.91.94-1.23,1.51,0,0,.02,0,.02-.01.03-.02.09-.06.17-.1Z" fill="#21211d"/><path d="M48.36,32.87c-3.05.2-4.88,2.31-4.88,2.31,1.88,1.46,3.59,2.01,5.06,2.06-.49-.59-.78-1.33-.82-2.15-.03-.82.2-1.59.64-2.22Z" fill="#fff"/><path d="M51.83,36.49c-.29.15-.61.29-.96.4.34-.11.66-.25.96-.4Z" fill="#fff"/><path d="M52.64,36.02c-.24.16-.51.32-.8.47.29-.15.56-.31.8-.47Z" fill="#fff"/><path d="M52.68,35.99c.94-.63,1.46-1.27,1.46-1.27-.6-.42-1.18-.75-1.74-1.02.01.1.04.19.05.29l.24,2Z" fill="#21211d"/><path d="M48.36,32.87c-.44.63-.67,1.4-.64,2.22.03.82.33,1.56.82,2.15.87.03,1.65-.11,2.34-.34.34-.11.66-.25.96-.4.29-.15.56-.31.8-.47.02-.01.03-.02.04-.03l-.24-2c-.01-.1-.03-.19-.05-.29-1.5-.71-2.86-.92-4.04-.84Z" fill="#21211d"/><path d="M51.6,30.35c.34.13.64.27.89.41.1.05.18.1.24.14l.07.04c.2.13.47.08.6-.12s.08-.47-.12-.6c-.05-.04-.14-.09-.26-.16l-.11-.06c-.29-.16-.62-.31-.99-.46-.59-.23-1.21-.41-1.83-.52.34.35.64.72.91,1.12.2.06.41.13.6.2Z" fill="#21211d"/><path d="M44.02,30.98c2.42-1.41,4.81-1.52,6.98-.84-.27-.4-.58-.77-.91-1.12-2-.37-4.14-.09-6.3,1.11-.14.17-.28.35-.41.54,0,.05.02.1.05.15.12.21.38.28.59.16Z" fill="#21211d"/><path d="M54.98,45.73c.24-.03.4-.24.38-.48s-.24-.41-.48-.38c-.45.05-.83,0-1.17-.12l.11.91c.36.08.74.12,1.16.07Z" fill="#21211d"/><path d="M52.55,43.7c-.04-.07-.06-.13-.08-.16l-.03-.08c-.09-.2-.32-.3-.53-.22-.22.08-.34.33-.26.55.09.26.29.62.62.99.41.45.94.75,1.55.89l-.11-.91c-.31-.12-.58-.31-.81-.56-.14-.16-.26-.32-.35-.49Z" fill="#21211d"/><path d="M54.18,41.91c0-.07.02-.13.05-.19-.14-.05-.27-.1-.41-.15-.17-.06-.34-.1-.5-.15l.22,1.87c1.2.41,2.03.65,2.5,2.16.14.45.62.71,1.08.57.45-.14.71-.62.57-1.08-.42-1.35-1.1-2.08-2.02-2.6h-1.05c-.24,0-.43-.2-.43-.44Z" fill="#963716"/><path d="M54.18,41.91c0-.07.02-.13.05-.19-.14-.05-.27-.1-.41-.15-.17-.06-.34-.1-.5-.15l.22,1.87c1.2.41,2.03.65,2.5,2.16.14.45.62.71,1.08.57.45-.14.71-.62.57-1.08-.42-1.35-1.1-2.08-2.02-2.6h-1.05c-.24,0-.43-.2-.43-.44Z" fill="#e8e1e1" isolation="isolate" opacity="0"/><path d="M48.91,42.11c-.38.28-.47.82-.19,1.2.28.38.82.47,1.2.19.92-.67,2.01-.78,3.34-.31.1.03.19.07.29.1l-.22-1.87c-1.64-.45-3.14-.23-4.41.69Z" fill="#963716"/><path d="M48.91,42.11c-.38.28-.47.82-.19,1.2.28.38.82.47,1.2.19.92-.67,2.01-.78,3.34-.31.1.03.19.07.29.1l-.22-1.87c-1.64-.45-3.14-.23-4.41.69Z" fill="#e8e1e1" isolation="isolate" opacity="0"/><path d="M54.18,41.91c0,.24.19.43.43.43h1.05c-.42-.24-.9-.43-1.43-.62-.03.06-.05.12-.05.19Z" fill="#21211d"/><path d="M54.18,41.91c0,.24.19.43.43.43h1.05c-.42-.24-.9-.43-1.43-.62-.03.06-.05.12-.05.19Z" fill="#e8e1e1" isolation="isolate" opacity="0"/><path d="M64.44,27.79c.72,0,1.45.13,2.15.38,1.57.57,2.82,1.72,3.52,3.23.7,1.51.78,3.2.2,4.77-.56,1.53-1.67,2.71-3.02,3.4.08.34.15.69.22,1.03,1.69-.78,3.08-2.2,3.77-4.08.67-1.82.59-3.8-.23-5.55-.82-1.76-2.28-3.1-4.1-3.76-1.51-.55-3.13-.58-4.65-.11.17.31.34.61.5.93.54-.15,1.09-.23,1.64-.23Z" fill="#ce8d23"/><path d="M57.6,31.54c-.06.17-.11.34-.16.51.26.07.49.17.63.27.24.16.3.48.14.71-.16.23-.48.29-.71.14-.03-.02-.13-.07-.27-.12-.46,3.31,1.44,6.62,4.71,7.81.82.3,1.67.44,2.5.44,1.07,0,2.12-.25,3.08-.69-.06-.35-.14-.69-.22-1.03-1.5.77-3.3.94-5,.32-3.24-1.18-4.91-4.77-3.73-8,.12-.33.28-.64.45-.94-.19.11-.45.06-.57-.13-.13-.2-.08-.47.12-.6l.05-.04c.07-.05.18-.11.32-.18.29-.16.62-.31.99-.46.11-.04.22-.07.33-.11.46-.42.97-.79,1.56-1.06.32-.15.65-.26.99-.35-.16-.31-.33-.62-.5-.93-.31.1-.62.21-.92.35-1.76.82-3.1,2.27-3.77,4.09Z" fill="#ce8d23"/><path d="M60.25,29.44c-.11.04-.22.07-.33.11-.37.15-.7.3-.99.46-.14.07-.24.14-.32.18l-.05.04c-.2.13-.25.4-.12.6.13.19.38.24.57.13.33-.57.75-1.07,1.23-1.51Z" fill="#ce8d23"/><path d="M48.64,27.82c.72,0,1.43.13,2.12.38,3.24,1.18,4.91,4.77,3.73,8-.33.91-.86,1.69-1.51,2.32l.14,1.22c1.02-.8,1.86-1.88,2.34-3.19.14-.37.23-.75.3-1.13l-.48-1.74c-.02-.07-.01-.15,0-.22-.08-.03-.16-.08-.22-.15-.18-.22-.15-.54.07-.72.18-.14.35-.25.53-.34-.58-2.24-2.21-4.17-4.55-5.03-1.19-.43-2.44-.54-3.65-.35-.08.06-.15.13-.22.19.49.21.96.46,1.4.75Z" fill="#ce8d23"/><path d="M41.75,31.64l.29-.04c.26-.04.5.15.54.41.03.24-.12.46-.34.52-.02,0-.05.01-.07.01l-.68.09c-.69,3.45,1.21,7,4.63,8.25.82.3,1.67.44,2.5.44,1.65,0,3.23-.58,4.51-1.58l-.14-1.22c-1.67,1.62-4.18,2.25-6.51,1.4-3.24-1.18-4.91-4.77-3.73-8,.16-.44.38-.85.63-1.24-.03-.17.05-.35.21-.44.07-.04.13-.06.2-.1.59-.73,1.33-1.33,2.2-1.74.84-.39,1.73-.58,2.63-.58,0,0,.02,0,.03,0-.44-.29-.91-.54-1.4-.75,0,0-.01.01-.02.02-1.52,1.21-3.15,2.28-4.85,3.22-.24.39-.44.81-.6,1.26,0,.02-.01.05-.02.07Z" fill="#ce8d23"/><path d="M47.47,26.89c-.16.03-.32.05-.47.09.08.03.17.06.25.1.08-.06.15-.13.22-.19Z" fill="#ce8d23"/><path d="M42.38,30.31c1.7-.94,3.33-2,4.85-3.22,0,0,.01-.01.02-.02-.08-.03-.17-.07-.25-.1-.49.11-.98.27-1.45.49-1.34.62-2.43,1.6-3.17,2.84Z" fill="#ce8d23"/><path d="M55.86,33.36s-.04.03-.07.04c-.1.08-.21.12-.32.12-.06,0-.12-.02-.18-.04-.02.07-.02.14,0,.22l.48,1.74c.13-.69.16-1.39.1-2.07Z" fill="#ce8d23"/><path d="M43.59,30.24c-.16.09-.23.27-.21.44.12-.19.26-.36.41-.54-.07.04-.13.06-.2.1Z" fill="#ce8d23"/><path d="M41.75,31.64l-1.99.27c.11.31.22.62.33.92l1.39-.19c.07-.33.15-.67.27-1Z" fill="#ce8d23"/><path d="M31.35,33.99l4.11-.55c.06-.34.15-.67.25-.99l-5.64.76c-.26.04-.44.28-.41.54.02.16.13.29.26.36.46-.09.94-.12,1.43-.1Z" fill="#ce8d23"/><path d="M40.09,32.82c-.1-.3-.21-.6-.33-.92l-4.05.54c-.1.32-.18.65-.25.99l4.63-.62Z" fill="#ce8d23"/><path d="M31.35,33.99c-.49-.02-.97.02-1.43.1.08.04.17.07.27.05l1.16-.16Z" fill="#ce8d23"/><path d="M42.24,32.53c.22-.06.37-.28.34-.52-.04-.26-.28-.44-.54-.41l-.29.04c-.12.33-.2.66-.27,1l.68-.09s.05,0,.07-.01Z" fill="#ce8d23"/><path d="M55.99,33.27c.52-.33.96-.3,1.23-.22.05-.33.12-.67.22-1-.48-.12-1.11-.12-1.77.22.08.3.13.61.17.91.06.02.11.05.15.09Z" fill="#ce8d23"/><path d="M55.86,33.36s.09-.06.13-.09c-.04-.04-.09-.07-.15-.09,0,.06.01.12.02.18Z" fill="#ce8d23"/><path d="M57.5,33.16c.23.16.55.09.71-.14.16-.23.1-.55-.14-.71-.15-.1-.37-.2-.63-.27-.1.33-.17.67-.22,1,.15.04.25.1.27.12Z" fill="#ce8d23"/><path d="M55.07,33.33c.06.07.14.12.22.15.04-.15.14-.27.3-.31.09-.02.17-.01.25.01-.04-.31-.09-.61-.17-.91-.18.09-.35.2-.53.34-.22.18-.25.5-.07.72Z" fill="#ce8d23"/><path d="M55.79,33.4s.04-.03.07-.04c0-.06-.01-.12-.02-.18-.08-.03-.17-.04-.25-.01-.16.04-.26.17-.3.31.06.02.12.04.18.04.11,0,.23-.04.32-.12Z" fill="#ce8d23"/></svg>