<?xml version="1.0" encoding="UTF-8"?><svg xmlns="http://www.w3.org/2000/svg" width="93" height="93" xmlns:xlink="http://www.w3.org/1999/xlink" viewBox="0 0 93 93"><defs><mask id="mask" x="59.6" y="28.46" width="10.53" height="2.26" maskUnits="userSpaceOnUse"><g id="mask0155a6809-a8a5-4202-9ce0-19c76577a033"><path id="Clip_4" d="M59.6,28.46h10.53v2.26h-10.53v-2.26Z" fill="#fff" fill-rule="evenodd"/></g></mask><mask id="mask-1" x="43.96" y="28.46" width="10.53" height="2.26" maskUnits="userSpaceOnUse"><g id="mask1155a6809-a8a5-4202-9ce0-19c76577a033"><path id="Clip_7" d="M43.96,28.46h10.53v2.26h-10.53v-2.26Z" fill="#fff" fill-rule="evenodd"/></g></mask></defs><g id="Ebene_1"><circle cx="46.5" cy="46.5" r="46.5" fill="#2563ff"/></g><g id="Ebene_2"><g id="Master_Characters_Avatar"><g id="Hairstyle"><g id="Hairstyle_Big_Bun"><g id="Group_24"><path id="Fill_6" d="M53.75,33.55l3.88,33.02c.77,6.52-3.9,12.43-10.42,13.2-6.52.77-12.43-3.9-13.2-10.42-.08-.68-.1-1.42-.06-2.09l1.95-33.19c.29-4.94,4.53-8.71,9.47-8.42,4.4.26,7.88,3.66,8.37,7.9" fill="#ffddba" fill-rule="evenodd"/><path id="Fill_3" d="M66.64,52.8c-2.53,2.63-5.98,3.07-9.64,2.34-9.32-1.87-19.97-11.33-19.97-11.33-2.11-1.66-4.36-3.92-5.78-6.43l-.07-.13c-.37-.67-.69-1.36-.92-2.05-.11-.33-.2-.67-.28-1,0-.03-.01-.06-.02-.09-.44-1.98-.77-1.86-1.31-5.28-.76-4.81,1.25-9.07,5.55-11.39,5.8-3.13,13.32-3.94,19.51-1.29.02,0,.03.01.05.02.72.31,1.42.68,2.08,1.09,5.99,3.7,9.35,11.09,11.79,17.4,2.22,5.73,3.71,13.23-1.02,18.16" fill="#ffddba" fill-rule="evenodd"/><path id="Fill_40" d="M41.39,27.54c-7.93,11.32-10.7,8.53-10.7,8.53l-.07-.15c-.11-.26-.21-.52-.3-.78-.11-.33-.21-.67-.28-1,0-.04-.01-.07-.02-.1-.44-1.98-.77-1.86-1.31-5.28-.02-.16-.05-.32-.07-.48-.05-.45-.08-.89-.09-1.33l4.24-2.33s11.69-1.52,8.58,2.92" fill="#edc829" fill-rule="evenodd"/><path id="Fill_1" d="M29.07,44.75c-2.1,0-3.82,1.71-3.82,3.82s1.71,3.82,3.82,3.82,3.82-1.71,3.82-3.82-1.71-3.82-3.82-3.82M29.07,53.66c-2.81,0-5.09-2.29-5.09-5.09s2.28-5.09,5.09-5.09,5.09,2.28,5.09,5.09-2.28,5.09-5.09,5.09" fill="#d5962f" fill-rule="evenodd"/><path id="Fill_8" d="M56.33,54.9s-2.76-.46-6.42-2.34c-.45-.23-.89.31-.57.7l7.53,6.58-.54-4.94Z" fill="#21211d" fill-rule="evenodd"/><path id="Fill_10" d="M35.25,45.65s.88-.52,1.51-1.45c.1-.14.32-.1.35.07.23,1.15.43,4.18-2.17,6.68l.3-5.3Z" fill="#21211d" fill-rule="evenodd"/><path id="Fill_16" d="M33.86,41.06c-.05,0-.11-.01-.16-.03l-5.19-2.18c-.22-.09-.32-.34-.23-.56.09-.22.34-.32.56-.23l5.2,2.18c.22.09.32.34.23.56-.07.16-.23.26-.39.26" fill="#21211d" fill-rule="evenodd"/><path id="Fill_18" d="M30.63,41.97c-.05,0-.1,0-.15-.03-.22-.08-.33-.33-.25-.55l.75-1.95c.08-.22.33-.33.55-.25.22.08.33.33.25.55l-.75,1.95c-.07.17-.23.27-.4.27" fill="#21211d" fill-rule="evenodd"/><path id="Fill_22" d="M29.07,53.66c-2.81,0-5.09-2.28-5.09-5.09s2.28-5.09,5.09-5.09c.48,0,.96.07,1.43.2.34.1.53.45.43.79-.1.34-.45.53-.79.43-.35-.1-.71-.15-1.07-.15-2.1,0-3.82,1.71-3.82,3.82s1.71,3.82,3.82,3.82,3.82-1.71,3.82-3.82c0-.35.29-.64.64-.64s.64.29.64.64c0,2.81-2.28,5.09-5.09,5.09" fill="#d5962f" fill-rule="evenodd"/><path id="Fill_14" d="M38.1,40.62c-.21,3.65-3.34,6.43-6.99,6.22-3.65-.21-6.43-3.34-6.22-6.99.21-3.65,3.34-6.43,6.99-6.22,3.65.21,6.43,3.34,6.22,6.99" fill="#ffddba" fill-rule="evenodd"/></g><path id="Fill_11" d="M32.61,33.62c.85.27,3.48,1.38,4.28,3.64l1.1,2.1c.52,1.03,1.74,1.51,2.82,1.09.89-.34,1.44-1.2,1.44-2.1,0-.25-.04-.51-.13-.76l-4.02-11.25-5.49,7.27Z" fill="#edc829" fill-rule="evenodd"/><g id="Group_53"><g id="Group_31"><path id="Fill_1-2" d="M8.42,19.51c2.87-3.83,5.68-6.53,7.74-8.3.64-.55,2.83-2.39,5.99-4.33,2.07-1.27,3.11-1.91,3.89-2,4.07-.45,10.07,6.23,10.22,13.12.16,7.16-5.98,15.29-14.57,15.28-6.67-.01-12.75-4.94-14.35-11.94" fill="#edc829" fill-rule="evenodd"/><path id="Fill_3-2" d="M32.19,25.51l-3.64-22.62c-.07-.43.22-.84.66-.91.43-.07.84.22.91.66,0,.01,0,.03,0,.04l2.58,22.77c.02.14-.09.27-.23.29-.14.02-.26-.08-.28-.22" fill="#d5962f" fill-rule="evenodd"/><path id="Stroke_5_Stroke_" d="M31.92,2.95c.04.43-.27.82-.71.86l-2.1.21c-.43.04-.82-.27-.86-.71-.04-.43.27-.82.71-.86l2.1-.21c.43-.04.82.27.86.71Z" fill="#d5962f" fill-rule="evenodd"/><path id="Fill_7" d="M30.42,24.23l7.54-21.64c.14-.41.59-.63,1.01-.49.41.14.63.59.49,1.01,0,.01,0,.02-.01.03l-8.54,21.26c-.05.13-.2.2-.34.14-.13-.05-.19-.2-.15-.33" fill="#d5962f" fill-rule="evenodd"/><path id="Stroke_9_Stroke_" d="M37.94,2.58c.17-.4.63-.59,1.03-.42l1.95.81c.4.17.59.63.42,1.03-.17.4-.63.59-1.03.42l-1.95-.81c-.4-.17-.59-.63-.42-1.03Z" fill="#d5962f" fill-rule="evenodd"/><path id="Fill_17" d="M35.31,45.6s.88-.52,1.51-1.45c.1-.14.32-.1.35.07.23,1.15.43,4.18-2.17,6.68l.3-5.3Z" fill="#21211d" fill-rule="evenodd"/><path id="Fill_19" d="M63.99,26.36l-3.37.18-1.29-1.97v2.05l-2.16.12-2.36-3.66.29,3.77-26.44,1.44c-.56-4.61,1.46-8.66,5.62-10.91,5.8-3.13,13.32-3.94,19.51-1.29.02,0,.04.01.05.02.73.31,1.42.68,2.08,1.09,3.45,2.14,6.03,5.5,8.07,9.17" fill="#edc829" fill-rule="evenodd"/></g><g id="Group_52"><path id="Stroke_42_Stroke_" d="M29.78,45.34c-2.11,0-3.82,1.71-3.82,3.82s1.71,3.82,3.82,3.82,3.82-1.71,3.82-3.82-1.71-3.82-3.82-3.82ZM24.68,49.15c0-2.81,2.28-5.09,5.09-5.09s5.09,2.28,5.09,5.09-2.28,5.09-5.09,5.09-5.09-2.28-5.09-5.09Z" fill="#d5962f" fill-rule="evenodd"/><path id="Stroke_46_Stroke_" d="M28.76,38.66c.09-.22.34-.32.56-.23l5.19,2.18c.22.09.32.34.23.56-.09.22-.34.32-.56.23l-5.19-2.18c-.22-.09-.32-.34-.23-.56Z" fill="#21211d" fill-rule="evenodd"/><path id="Stroke_48_Stroke_" d="M32.02,39.57c.22.08.33.33.25.55l-.75,1.95c-.08.22-.33.33-.55.25-.22-.08-.33-.33-.25-.55l.75-1.95c.08-.22.33-.33.55-.25Z" fill="#21211d" fill-rule="evenodd"/><path id="Stroke_50_Stroke_" d="M29.78,45.34c-2.11,0-3.82,1.71-3.82,3.82s1.71,3.82,3.82,3.82,3.82-1.71,3.82-3.82c0-.35.29-.64.64-.64s.64.29.64.64c0,2.81-2.28,5.09-5.09,5.09s-5.09-2.28-5.09-5.09,2.28-5.09,5.09-5.09c.49,0,.97.07,1.43.2.34.1.53.45.43.79-.1.34-.45.53-.79.43s-.7-.15-1.07-.15Z" fill="#d5962f" fill-rule="evenodd"/></g></g></g></g><g id="Expression"><g id="Expression_Starstruck"><g id="Group_17"><path id="Fill_1-3" d="M57.37,42.51h-1.56c-.25,0-.45-.21-.45-.46,0-.25.19-.46.45-.45h1.55s0,0,0,0c.33,0,.63-.15.83-.41.2-.26.27-.6.18-.92l-1.86-6.8c-.07-.24.07-.49.31-.55.24-.07.49.08.55.31l1.86,6.8c.16.59.04,1.21-.33,1.7-.37.49-.94.77-1.55.77" fill="#21211d" fill-rule="evenodd"/><g id="Group_5"><g mask="url(#mask)"><path id="Fill_3-3" d="M69.67,30.73c-.08,0-.15-.02-.23-.06-4.88-2.84-8.98-.16-9.15-.04-.21.14-.48.08-.62-.12s-.08-.48.12-.62c.19-.13,4.73-3.12,10.1.01.21.12.29.4.16.61-.08.14-.23.22-.39.22" fill="#21211d" fill-rule="evenodd"/></g></g><g id="Group_8"><g mask="url(#mask-1)"><path id="Fill_6-2" d="M44.41,30.73c-.15,0-.31-.08-.39-.22-.12-.21-.05-.49.16-.61,5.38-3.13,9.91-.14,10.1-.01.21.14.26.42.12.62-.14.21-.42.26-.62.12-.17-.12-4.27-2.8-9.15.04-.07.04-.15.06-.23.06" fill="#21211d" fill-rule="evenodd"/></g></g><path id="Fill_9" d="M55.92,44.48v1.15c0,.23-.05.46-.15.66-.24.53-.78.89-1.4.89-.85,0-1.54-.69-1.54-1.55v-1.15c0-.36.29-.65.65-.65h1.79c.36,0,.65.29.65.65" fill="#21211d" fill-rule="evenodd"/><path id="Fill_11-2" d="M55.77,46.29c-.24.53-.78.89-1.4.89-.85,0-1.54-.69-1.54-1.55v-.24c.28-.11.59-.18.91-.18.84,0,1.59.42,2.03,1.07" fill="#f74bad" fill-rule="evenodd"/><path id="Fill_13" d="M53.18,34.25c-.05-.16-.19-.28-.36-.29l-2.29-.21-.91-2.13c-.07-.16-.22-.26-.39-.26s-.32.1-.39.26l-.91,2.13-2.3.21c-.17.02-.31.13-.36.29-.05.16,0,.34.12.45l1.73,1.52-.51,2.26c-.04.17.03.34.16.44.07.05.16.08.25.08.07,0,.15-.02.22-.06l1.98-1.18,1.98,1.18c.14.09.33.08.46-.02.14-.1.2-.27.16-.44l-.51-2.26,1.73-1.52c.13-.11.18-.29.12-.45" fill="#ffc107" fill-rule="evenodd"/><path id="Fill_15" d="M69.1,34.25c-.05-.16-.19-.28-.36-.29l-2.29-.21-.91-2.13c-.07-.16-.22-.26-.39-.26s-.32.1-.39.26l-.91,2.13-2.3.21c-.17.02-.31.13-.36.29-.05.16,0,.34.12.45l1.73,1.52-.51,2.26c-.04.17.03.34.16.44.07.05.16.08.25.08.08,0,.15-.02.22-.06l1.98-1.18,1.98,1.18c.14.09.33.08.46-.02.14-.1.2-.27.16-.44l-.51-2.26,1.73-1.52c.13-.11.18-.29.12-.45" fill="#ffc107" fill-rule="evenodd"/></g></g></g><g id="Facial_Hair"><g id="Facial_Hair_None"><path id="Path_5_Copy" d="M49.88,42.27c1.46-1.06,3.2-1.24,5.12-.56,1.98.69,3.33,1.3,4.02,3.52.15.47-.12.97-.59,1.12-.47.15-.97-.12-1.12-.59-.53-1.7-1.48-1.86-2.9-2.36-1.39-.49-2.52-.37-3.48.33-.4.29-.96.2-1.25-.2-.29-.4-.2-.96.2-1.25Z" fill="#edc829" isolation="isolate" opacity="0"/></g></g><g id="Accesories"><g id="Accesories_Dark_Round_Glasses_1"><ellipse id="Oval" cx="49.52" cy="33.85" rx="6.86" ry="6.84" fill="#20201d"/><ellipse id="Oval_Copy" cx="66.23" cy="33.85" rx="6.86" ry="6.84" fill="#20201d"/><g id="Group"><path id="Fill_3-4" d="M66.07,27.34c-.94,0-1.87.2-2.74.61-1.58.73-2.78,2.03-3.38,3.66-1.23,3.37.51,7.11,3.88,8.34,3.38,1.23,7.13-.51,8.36-3.87.6-1.63.52-3.4-.21-4.97-.73-1.57-2.04-2.77-3.67-3.37-.73-.27-1.49-.4-2.24-.4h0ZM66.06,41.42c-.86,0-1.74-.15-2.6-.46-3.93-1.43-5.96-5.79-4.52-9.71.7-1.9,2.09-3.41,3.93-4.27,1.84-.85,3.9-.94,5.81-.24,1.9.69,3.42,2.09,4.28,3.92.85,1.83.94,3.89.24,5.79-1.12,3.07-4.04,4.97-7.14,4.97h0Z" fill="#e73417" fill-rule="evenodd"/><path id="Fill_5" d="M49.58,27.37c-.94,0-1.87.2-2.74.61-1.58.73-2.78,2.03-3.38,3.66-1.23,3.37.51,7.11,3.88,8.34s7.13-.51,8.36-3.87c1.23-3.37-.51-7.11-3.88-8.34-.73-.27-1.49-.4-2.24-.4M49.57,41.45c-.86,0-1.74-.15-2.6-.46-3.93-1.43-5.96-5.79-4.52-9.71.7-1.9,2.09-3.41,3.93-4.27,1.84-.85,3.9-.94,5.81-.24,3.93,1.43,5.96,5.79,4.52,9.71-1.12,3.06-4.04,4.97-7.14,4.97" fill="#e73417" fill-rule="evenodd"/><path id="Fill_7-2" d="M42.93,32.28s-.05.01-.07.01l-12.48,1.67c-.27.04-.52-.15-.56-.43-.04-.27.16-.52.43-.56l12.48-1.67c.27-.04.52.15.56.43.03.25-.12.48-.36.54" fill="#e73417" fill-rule="evenodd"/><path id="Fill_16-2" d="M56.72,33.31c-.16,0-.31-.07-.42-.2-.19-.23-.15-.57.08-.75,1.26-1.03,2.55-.65,3.06-.31.25.17.31.5.14.74-.17.24-.5.31-.74.14-.09-.06-.85-.5-1.78.25-.1.08-.22.12-.34.12" fill="#e73417" fill-rule="evenodd"/></g></g></g></g></g></svg>