<?xml version="1.0" encoding="UTF-8"?><svg id="Ebene_2" xmlns="http://www.w3.org/2000/svg" width="93" height="93" viewBox="0 0 93 93"><path d="M46.5,0c-7,0-13.64,1.56-19.59,4.33,2.51,1.82,3.6,5.87,2.76,10.83.27-.25.68-.25.94,0,.2.19.26.48.17.72.68-.59,1.45-1.12,2.31-1.59,6.29-3.4,14.44-4.27,21.17-1.4.02,0,.04.01.06.02,5.79,2.5,9.58,8,12.35,13.74,1.27.14,2.66.55,4.11,1.38.24.14.32.44.18.68-.14.24-.44.32-.68.18-1.08-.62-2.12-.97-3.1-1.15.58,1.26,1.12,2.53,1.61,3.77.75.28,1.54.67,2.38,1.21,0,0-.49.65-1.4,1.34,2.16,6.05,3.31,13.56-1.51,18.59-2.74,2.86-6.49,3.33-10.45,2.53-.37-.07-.73-.16-1.1-.25l.23,2.1,1.22,10.38c.82,6.99-4.18,13.33-11.17,14.15-6.99.82-13.33-4.18-14.15-11.17-.09-.73-.1-1.53-.07-2.24l1.04-17.6h0l.27-5.53c-1.09.72-2.38,1.15-3.76,1.18,1.17,4.5,2.98,13.31-.73,13.31-3.96,0-1.97-8.96-.74-13.42-3.52-.64-6.08-3.81-5.87-7.47.19-3.22,2.47-5.82,5.44-6.55,0-.04-.02-.09-.03-.12,0-.03-.02-.07-.02-.1-.04-.16-.08-.31-.12-.44,0,0,0,0,0,0-.04-.14-.08-.27-.12-.4,0-.01,0-.03-.01-.04-.04-.12-.08-.24-.12-.36-.04-.13-.09-.26-.13-.4-.01-.04-.03-.09-.04-.13-.02-.05-.03-.11-.05-.16-.02-.06-.04-.12-.05-.18-.01-.05-.03-.1-.04-.15-.03-.11-.06-.23-.1-.36-.01-.04-.02-.09-.03-.13-.02-.1-.05-.2-.07-.31-.01-.06-.03-.13-.04-.2-.02-.1-.04-.21-.07-.32-.01-.07-.03-.15-.04-.23-.02-.13-.05-.26-.08-.41-.01-.08-.03-.15-.04-.23-.04-.22-.08-.45-.12-.7,0-.01,0-.02,0-.03-.09-.59-.14-1.17-.16-1.75-.13.18-.33.3-.56.3-.02,0-.05,0-.07,0-.38-.04-.66-.38-.62-.76.03-.26.06-.51.1-.76-8.39,4.16-16.3,5.65-19.08,2.55-.48-.53-.81-1.21-1.01-2C2.06,30.84,0,38.43,0,46.5c0,25.68,20.82,46.5,46.5,46.5s46.5-20.82,46.5-46.5S72.18,0,46.5,0Z" fill="#2563ff"/><path d="M27.42,28.57c-.02-.1-.04-.21-.07-.32.02.11.05.22.07.32Z" fill="#de8857"/><path d="M27.76,29.9c-.02-.06-.04-.12-.05-.18.02.06.04.13.05.18Z" fill="#de8857"/><path d="M27.19,27.38c-.04-.22-.08-.45-.12-.7.04.25.08.48.12.7Z" fill="#de8857"/><path d="M27.54,29.08c-.02-.1-.05-.2-.07-.31.02.11.05.21.07.31Z" fill="#de8857"/><path d="M27.31,28.02c-.02-.13-.05-.26-.08-.41.03.14.05.28.08.41Z" fill="#de8857"/><path d="M28.24,31.4s0,0,0,0c0,0,0,0,0,0Z" fill="#de8857"/><path d="M27.66,29.57c-.03-.11-.06-.23-.1-.36.03.13.06.25.1.36Z" fill="#de8857"/><path d="M33.1,14.3c6.29-3.4,14.44-4.27,21.17-1.4,0,0,.02,0,.03.01,0,0,.02,0,.03.01-.29,2.39-1.4,6.92-5.56,11.64,1.4.7,2.6,1.73,3.5,2.99.7.19,1.43.47,2.18.86.25.13.34.43.22.67-.13.25-.43.34-.67.22-.31-.16-.62-.3-.93-.42.48.97.81,2.03.94,3.15l.1.86c.47.23.95.49,1.45.81,0,0-.42.57-1.22,1.2l.63,5.35c.25.06.51.14.76.23.2.07.39.14.57.21.05-.22.24-.38.47-.38h1.61c.33,0,.64-.16.84-.43.2-.27.26-.6.17-.92l-1.98-7.04c-.07-.27.08-.54.35-.62.26-.07.54.08.62.35l1.98,7.04c.18.62.05,1.28-.34,1.8-.39.52-.99.82-1.63.82h-.69c1.07.59,1.86,1.4,2.34,2.95.16.51-.13,1.04-.63,1.2-.51.16-1.04-.13-1.2-.63-.46-1.48-1.22-1.87-2.3-2.25.03.08.05.16.05.25v1.19c0,.24-.05.48-.15.68-.07.15-.16.28-.27.4l1.16,9.86s.02,0,.02,0h0c.37.1.74.18,1.1.26,3.96.79,7.71.32,10.45-2.53,4.83-5.03,3.67-12.55,1.51-18.59-1.02.78-2.57,1.6-4.56,1.61h0c-1.59,0-3.46-.52-5.56-2.02,0,0,1.9-2.35,5.18-2.7h0c.22-.02.44-.04.67-.04.99-.02,2.08.15,3.28.6-.5-1.24-1.04-2.51-1.61-3.77-3.58-.67-6.23,1.07-6.37,1.17-.09.06-.18.09-.28.09-.16,0-.32-.08-.41-.22-.16-.23-.1-.54.13-.69.15-.1,2.77-1.85,6.42-1.44-2.77-5.74-6.55-11.24-12.35-13.74-.02,0-.04-.01-.06-.02-6.72-2.87-14.87-1.99-21.17,1.4-.85.46-1.62.99-2.31,1.59,0,0,0,0,0,0,.68-.59,1.45-1.12,2.31-1.59Z" fill="#de8857"/><path d="M28.12,31s0-.03-.01-.04c0,.01,0,.03.01.04Z" fill="#de8857"/><path d="M28.38,31.94s-.02-.07-.02-.1c0,.03.02.06.02.1Z" fill="#de8857"/><path d="M27.85,30.2s-.03-.09-.04-.13c.01.04.03.09.04.13Z" fill="#de8857"/><path d="M49.13,53.16c-.35-.42.13-1.01.61-.76,3.7,1.9,6.56,2.47,6.92,2.53-9.69-2.49-20.22-11.77-20.5-12.01-.07.11-.15.22-.23.33.08.02.14.07.16.16.24,1.24.52,4.44-2.29,7.15l-1.04,17.6c-.04.71-.02,1.51.07,2.24.82,6.99,7.16,11.99,14.15,11.17,6.99-.82,11.99-7.16,11.17-14.15l-1.22-10.38.66,6.05-8.47-9.93Z" fill="#de8857"/><path d="M35.19,33.93s-.01,0-.01,0c.06.06.12.12.17.18-.05-.06-.1-.12-.16-.18Z" fill="#de8857"/><path d="M44.32,28.67c1.04-.65,4.07-2.19,7.94-1.12-.9-1.26-2.1-2.29-3.5-2.99-1.21,1.37-2.66,2.76-4.43,4.11Z" fill="#de8857"/><path d="M44.53,29.73c-.09.07-.2.1-.3.1-.15,0-.3-.07-.4-.2-.15-.2-.12-.47.05-.64-1.01.75-2.1,1.49-3.32,2.21.98,2.93,1.36,4.86,1.36,4.86.09.27.14.54.14.81,0,.96-.59,1.88-1.54,2.25-1.16.45-2.47-.06-3.02-1.17l-.44-.84c.21.74.3,1.53.26,2.34-.07,1.28-.49,2.46-1.14,3.47.28.25,10.81,9.53,20.5,12.01.01,0,.02,0,.02,0l-1.16-9.86c-.09.1-.2.2-.31.27-.25.16-.55.26-.87.26-.78,0-1.42-.55-1.57-1.28-.02-.1-.03-.21-.03-.32h0v-1.19c0-.37.3-.68.68-.68h1.19c-1.27-.34-2.33-.17-3.25.5-.43.31-1.03.21-1.34-.22-.31-.43-.21-1.03.22-1.34,1.37-.99,2.97-1.26,4.73-.83l-.63-5.35c-1.01.81-2.63,1.74-4.74,1.75h0c-1.59,0-3.46-.52-5.56-2.02,0,0,1.9-2.35,5.19-2.7.22-.02.44-.04.67-.04,1.23-.03,2.64.25,4.2,1l-.1-.86c-.13-1.12-.45-2.18-.94-3.15-4.77-1.9-8.49.83-8.53.86Z" fill="#de8857"/><path d="M56.93,57.04l-.23-2.1s-.01,0-.02,0l.25,2.1Z" fill="#21211d"/><path d="M56.69,54.94h0s.01,0,.02,0h0s-.01,0-.02,0Z" fill="#21211d"/><path d="M56.66,54.93c-.36-.07-3.22-.63-6.92-2.53-.48-.25-.96.34-.61.76l8.47,9.93-.66-6.05-.25-2.1s-.02,0-.02,0Z" fill="#21211d"/><path d="M56.69,54.94h0s0,0-.02,0c0,0,.02,0,.02,0Z" fill="#21211d"/><path d="M34.08,45.02l-.27,5.53h0l.33-5.58s-.04.03-.06.04Z" fill="#21211d"/><path d="M36.1,43.41c-.02-.09-.08-.15-.16-.16-.5.68-1.11,1.27-1.8,1.74l-.33,5.58c2.81-2.71,2.54-5.91,2.29-7.15Z" fill="#21211d"/><path d="M25.76,23.68c.76-5.18,3.74-8.36,3.87-8.5.01-.01.02-.01.04-.02.83-4.96-.25-9-2.76-10.83C17.88,8.53,10.43,15.53,5.67,24.23c.2.79.53,1.47,1.01,2,2.78,3.11,10.69,1.62,19.08-2.55Z" fill="#21211d"/><path d="M27.46,28.77c-.01-.06-.03-.13-.04-.2.01.07.03.14.04.2Z" fill="#21211d"/><path d="M27.23,27.61c-.01-.08-.03-.15-.04-.23.01.08.03.16.04.23Z" fill="#21211d"/><path d="M27.81,30.07c-.02-.05-.03-.11-.05-.16.02.06.03.11.05.16Z" fill="#21211d"/><path d="M27.98,30.6c.04.12.08.24.12.36-.08-.26-.17-.5-.25-.76.04.14.09.27.13.4Z" fill="#21211d"/><path d="M28.24,31.4c-.04-.14-.08-.27-.12-.4.04.13.08.26.12.4Z" fill="#21211d"/><path d="M27.35,28.25c-.01-.07-.03-.15-.04-.23.02.08.03.15.04.23Z" fill="#21211d"/><path d="M26.91,24.9h0c.02.57.07,1.16.16,1.75,0,.01,0,.02,0,.03,0-.01,0-.02,0-.03-.09-.59-.14-1.17-.16-1.75Z" fill="#21211d"/><path d="M28.36,31.84c-.04-.16-.08-.31-.12-.44.04.14.08.28.12.44Z" fill="#21211d"/><path d="M27.71,29.72s-.03-.1-.04-.15c.01.05.03.1.04.15Z" fill="#21211d"/><path d="M27.57,29.21s-.02-.09-.03-.13c.01.04.02.09.03.13Z" fill="#21211d"/><path d="M28.38,31.94s.02.08.03.12c0,0,0,0,0,0-.01-.04-.02-.08-.03-.12Z" fill="#21211d"/><path d="M30.55,31.87c1.63.09,3.1.74,4.26,1.73l.06-1.02c.31-5.3,4.86-9.34,10.15-9.02,1.34.08,2.6.44,3.73,1.01,4.16-4.73,5.28-9.25,5.56-11.64,0,0-.02,0-.03-.01,0,0-.02,0-.03-.01-6.72-2.87-14.87-1.99-21.17,1.4-.85.46-1.62.99-2.31,1.59-.03.09-.08.18-.15.25-.02.02-1.07,1.15-2.04,3.11-.28.78-.59,1.58-.95,2.38-.28.9-.5,1.88-.61,2.96-.01.12-.06.23-.13.32.02.57.07,1.16.16,1.75,0,.01,0,.02,0,.03.04.25.08.48.12.7.01.08.03.16.04.23.03.14.05.28.08.41.02.08.03.15.04.23.02.11.05.22.07.32.01.07.03.14.04.2.02.11.05.21.07.31.01.04.02.09.03.13.03.13.06.25.1.36.01.05.03.1.04.15.02.06.04.13.05.18.02.06.03.11.05.16.01.04.03.09.04.13.08.26.17.5.25.76,0,.01,0,.03.01.04.04.13.08.26.12.4,0,0,0,0,0,0,.04.14.08.28.12.44,0,.03.02.06.02.1.01.04.02.08.03.12.68-.17,1.4-.24,2.14-.2Z" fill="#21211d"/><path d="M34.87,32.57l-.06,1.02c.13.11.25.22.37.34,0,0,.01,0,.01,0,.05.06.11.12.16.18.79.84,1.38,1.87,1.7,3l.44.84c.55,1.11,1.86,1.62,3.02,1.17.96-.37,1.54-1.28,1.54-2.25,0-.27-.05-.55-.14-.81,0,0-.38-1.93-1.36-4.86,1.22-.72,2.31-1.46,3.32-2.21.02-.02.03-.04.05-.06.03-.02.17-.12.39-.26,1.77-1.36,3.23-2.74,4.43-4.11-1.13-.57-2.39-.93-3.73-1.01-5.29-.31-9.84,3.73-10.15,9.02Z" fill="#21211d"/><path d="M28.6,19.24c-.34.69-.68,1.49-.95,2.38.37-.81.68-1.6.95-2.38Z" fill="#21211d"/><path d="M34.14,44.87l.21-3.5c-.51-.47-1.01-.97-1.5-1.49-.05.02-.09.04-.14.04-.06,0-.12-.01-.18-.04l-2.25-.94-.64,1.67c-.07.18-.25.3-.43.3-.05,0-.11,0-.16-.03-.24-.09-.36-.36-.27-.6l.65-1.7-2.53-1.06c-.24-.1-.35-.37-.25-.6.1-.24.37-.35.6-.25l4.43,1.86c-.67-.83-1.28-1.7-1.79-2.6,0,0,0,0,0,0l-.08-.14c-.41-.72-.74-1.47-1-2.23-.12-.36-.22-.72-.3-1.09-.03-.15-.07-.28-.1-.41-2.97.73-5.25,3.33-5.44,6.55-.21,3.66,2.36,6.83,5.87,7.47.12-.42.23-.8.32-1.13-.68-.18-1.19-.8-1.19-1.54,0-.89.72-1.61,1.61-1.61s1.61.72,1.61,1.61c0,.75-.52,1.38-1.21,1.55.1.36.21.77.33,1.24,1.38-.03,2.67-.46,3.76-1.18v-.11s.03-.02.07-.04Z" fill="#de8857"/><path d="M29.89,35.94c.51.9,1.12,1.77,1.79,2.6l1.2.5c.23.1.35.37.25.6-.05.13-.16.2-.28.24.49.52.99,1.02,1.5,1.49l.43-7.28c-1.52.64-3.13,1.26-4.89,1.84Z" fill="#de8857"/><path d="M34.35,41.37l-.21,3.5c.22-.14.99-.68,1.58-1.54.05-.08.14-.1.22-.09.08-.11.15-.22.23-.33,0,0-.01-.01-.01-.01-.6-.47-1.2-.98-1.8-1.54Z" fill="#de8857"/><path d="M37.05,37.11l-.74-1.41c-.21-.61-.56-1.13-.96-1.59-.06-.06-.11-.12-.17-.18-.13.06-.27.11-.4.16l-.43,7.28c.6.55,1.21,1.07,1.8,1.54,0,0,0,0,.01.01.65-1.01,1.06-2.19,1.14-3.47.05-.81-.05-1.6-.26-2.34Z" fill="#de8857"/><path d="M34.14,44.87s-.06.04-.06.04v.11s.04-.03.06-.04v-.11Z" fill="#de8857"/><path d="M35.72,43.33c-.59.86-1.36,1.4-1.58,1.54v.11c.69-.47,1.3-1.06,1.8-1.74-.08-.02-.16.01-.22.09Z" fill="#de8857"/><path d="M28.81,33.57c.25.75.59,1.5,1,2.23l.08.14s0,0,0,0c0,0,0,0,0,0l-.08-.14c-.41-.72-.74-1.47-1-2.23-.12-.36-.22-.72-.3-1.09-.03-.15-.06-.28-.1-.41,0,0,0,0,0,0,.03.13.06.26.1.41.08.36.18.73.3,1.09Z" fill="#de8857"/><path d="M34.81,33.59c-1.15-.99-2.62-1.63-4.26-1.73-.74-.04-1.46.03-2.14.2.03.13.06.27.1.41.08.36.18.73.3,1.09.25.75.59,1.5,1,2.23l.08.14s0,0,0,0c1.76-.58,3.38-1.2,4.89-1.84l.03-.5Z" fill="#de8857"/><path d="M35.18,33.93c-.12-.12-.24-.23-.37-.34l-.03.5c.13-.05.27-.11.4-.16Z" fill="#de8857"/><path d="M37.05,37.11c-.32-1.14-.91-2.16-1.7-3,.4.46.74.98.96,1.59l.74,1.41Z" fill="#de8857"/><path d="M27.25,36.68c-.23-.1-.51.01-.6.25-.1.24.01.51.25.6l2.53,1.06.16-.42c.09-.24.36-.36.6-.27.24.09.36.36.27.6l-.17.45,2.25.94c.06.02.12.04.18.04.05,0,.1-.03.14-.04-.41-.43-.79-.89-1.17-1.35l-4.43-1.86Z" fill="#21211d"/><path d="M33.13,39.64c.1-.24-.01-.51-.25-.6l-1.2-.5c.37.46.76.92,1.17,1.35.12-.04.23-.11.28-.24Z" fill="#21211d"/><path d="M28.77,40.29c-.09.24.03.5.27.6.05.02.11.03.16.03.19,0,.36-.11.43-.3l.64-1.67-.85-.36-.65,1.7Z" fill="#21211d"/><path d="M30.18,37.9c-.24-.09-.51.03-.6.27l-.16.42.85.36.17-.45c.09-.24-.03-.51-.27-.6Z" fill="#21211d"/><path d="M28.85,46.09c-1.24,4.47-3.22,13.42.74,13.42,3.71,0,1.9-8.8.73-13.31-.2,0-.39,0-.59,0-.3-.02-.59-.06-.88-.11Z" fill="#edc829"/><path d="M29.58,45.02c-.14,0-.28-.03-.41-.06-.1.33-.21.71-.32,1.13.29.05.58.09.88.11.2.01.39,0,.59,0-.12-.46-.23-.88-.33-1.24-.13.03-.26.05-.39.05Z" fill="#edc829"/><path d="M29.98,44.96c.7-.18,1.21-.8,1.21-1.55,0-.89-.72-1.61-1.61-1.61s-1.61.72-1.61,1.61c0,.74.51,1.36,1.19,1.54.25-.83.41-1.34.41-1.34,0,0,.16.51.39,1.35Z" fill="#de8857"/><path d="M29.98,44.96c-.23-.83-.39-1.35-.39-1.35,0,0-.17.51-.41,1.34.13.04.27.06.41.06.14,0,.27-.02.39-.05Z" fill="#de8857"/><path d="M30.79,15.88c.08-.25.03-.53-.17-.72-.27-.25-.68-.25-.94,0-.14.83-.34,1.69-.59,2.56.49-.66,1.06-1.28,1.7-1.84Z" fill="#f98adf"/><path d="M26.9,24.72c0-.46.02-.92.06-1.37.01-.13.02-.26.04-.39-.02.04-.04.08-.06.12-.39.21-.78.4-1.18.59-.04.25-.07.5-.1.76-.04.38.24.72.62.76.02,0,.05,0,.07,0,.23,0,.43-.12.56-.3,0-.06,0-.12,0-.18Z" fill="#f98adf"/><path d="M26.9,24.72c0-.46.02-.92.06-1.37-.04.45-.07.91-.06,1.37Z" fill="#f98adf"/><path d="M29.09,17.72s0,0,0,0c.49-.66,1.06-1.28,1.7-1.84,0,0,0,0,0,0-.65.56-1.21,1.18-1.7,1.84Z" fill="#f98adf"/><path d="M25.76,23.68c.39-.19.78-.39,1.18-.59.02-.04.04-.08.06-.12.04-.33.09-.66.16-.98.33-1.56.98-2.99,1.92-4.26.25-.88.45-1.73.59-2.56-.01,0-.02.01-.04.02-.13.14-3.11,3.32-3.87,8.5Z" fill="#f98adf"/><path d="M29.09,17.72c-.94,1.27-1.59,2.7-1.92,4.26.33-1.56.98-2.99,1.92-4.26,0,0,0,0,0,0Z" fill="#f98adf"/><path d="M27,22.96h0c-.02.13-.02.26-.04.39.01-.13.02-.26.04-.39Z" fill="#f98adf"/><path d="M26.9,24.72c0,.06,0,.12,0,.18h0c0-.06,0-.12,0-.18Z" fill="#f98adf"/><path d="M26.96,23.35c-.04.45-.07.91-.06,1.37,0,.06,0,.12,0,.18.07-.09.12-.2.13-.32.11-1.07.33-2.06.61-2.96-.2.44-.42.89-.65,1.34-.02.13-.02.26-.04.39Z" fill="#f98adf"/><path d="M30.64,16.14c.07-.08.12-.16.15-.25-.65.56-1.21,1.18-1.7,1.84-.14.5-.31,1.01-.49,1.52.97-1.95,2.01-3.08,2.04-3.11Z" fill="#f98adf"/><path d="M27.16,21.98c-.07.32-.12.65-.16.98h0c.04-.33.09-.66.16-.98Z" fill="#f98adf"/><path d="M27.65,21.62c.28-.89.61-1.69.95-2.38.18-.51.34-1.02.49-1.52-.94,1.27-1.59,2.7-1.92,4.26-.07.32-.12.65-.16.98.23-.45.45-.9.65-1.34Z" fill="#f98adf"/><path d="M49.22,31.92c.22-.02.44-.04.67-.04-.23,0-.45.02-.67.04-3.29.35-5.19,2.7-5.19,2.7,2.09,1.5,3.97,2.02,5.56,2.02h0c-.55-.62-.9-1.4-.97-2.29-.07-.89.16-1.73.6-2.43Z" fill="#fff"/><path d="M55.55,33.68s-.42.57-1.22,1.2h0c.79-.64,1.22-1.2,1.22-1.2-.5-.32-.98-.58-1.45-.81h0c.47.23.95.49,1.45.81Z" fill="#21211d"/><path d="M49.59,36.63h0c2.11,0,3.72-.93,4.74-1.75h0c-1.01.81-2.63,1.74-4.74,1.75Z" fill="#21211d"/><path d="M49.89,31.87c1.23-.03,2.64.25,4.2,1h0c-1.56-.75-2.97-1.03-4.2-1Z" fill="#21211d"/><path d="M55.55,33.68c-.5-.32-.98-.58-1.45-.81l.24,2.01c.79-.64,1.22-1.2,1.22-1.2Z" fill="#21211d"/><path d="M54.09,32.87c-1.56-.75-2.97-1.03-4.2-1-.23,0-.45.02-.67.04-.44.7-.67,1.54-.6,2.43.07.89.42,1.67.97,2.29,2.11,0,3.72-.93,4.74-1.75l-.24-2.01Z" fill="#21211d"/><path d="M71.17,32.73s-.49.65-1.4,1.34h0c.9-.69,1.4-1.34,1.4-1.34-.83-.54-1.62-.93-2.38-1.21h0c.75.28,1.54.67,2.38,1.21Z" fill="#fff"/><path d="M65.51,30.92c.99-.02,2.08.15,3.28.6h0c-1.19-.45-2.29-.62-3.28-.6Z" fill="#fff"/><path d="M65.21,35.68h0c1.99,0,3.54-.83,4.56-1.61h0c-1.02.78-2.57,1.6-4.56,1.61Z" fill="#fff"/><path d="M64.84,30.96c-3.29.35-5.18,2.7-5.18,2.7,2.09,1.5,3.97,2.02,5.56,2.02-.55-.62-.9-1.4-.97-2.29-.07-.89.16-1.73.6-2.43Z" fill="#fff"/><path d="M65.51,30.92c-.23,0-.45.02-.67.04h0c.22-.02.44-.04.67-.04Z" fill="#21211d"/><path d="M69.77,34.07c.9-.69,1.4-1.34,1.4-1.34-.83-.54-1.62-.93-2.38-1.21.2.49.39.97.57,1.45.14.36.28.73.41,1.1Z" fill="#21211d"/><path d="M69.36,32.97c-.18-.48-.37-.96-.57-1.45-1.19-.45-2.29-.62-3.28-.6-.23,0-.45.02-.67.04h0c-.44.7-.67,1.54-.6,2.43.07.89.42,1.67.97,2.29h0c1.99,0,3.54-.83,4.56-1.61-.13-.37-.27-.74-.41-1.1Z" fill="#21211d"/><path d="M58.38,41.28c.65,0,1.24-.3,1.63-.82.39-.52.51-1.17.34-1.8l-1.98-7.04c-.07-.27-.35-.42-.62-.35-.27.07-.42.35-.35.62l1.98,7.04c.09.32.03.66-.17.92-.2.27-.51.42-.84.42h-1.61c-.23,0-.42.17-.47.39.51.19.97.39,1.39.62h.69Z" fill="#21211d"/><path d="M53.98,29.29c.25.13.55.03.67-.22.13-.25.03-.55-.22-.67-.75-.39-1.48-.66-2.18-.86.3.42.57.86.8,1.32.3.12.61.26.93.42Z" fill="#21211d"/><path d="M44.32,28.67c-.14.11-.3.21-.44.32-.17.17-.2.44-.05.64.1.13.25.2.4.2.1,0,.21-.03.3-.1.04-.03,3.76-2.76,8.53-.86-.23-.46-.5-.9-.8-1.32-3.87-1.06-6.9.48-7.94,1.12Z" fill="#21211d"/><path d="M43.92,28.93s-.03.04-.05.06c.14-.11.3-.21.44-.32-.22.14-.36.24-.39.26Z" fill="#21211d"/><path d="M70.28,28.9c.24.14.54.05.68-.18.14-.24.05-.54-.18-.68-1.45-.83-2.84-1.24-4.11-1.38.18.36.35.73.51,1.1.98.18,2.02.53,3.1,1.15Z" fill="#21211d"/><path d="M60.25,28.09c-.23.16-.29.47-.13.69.1.14.25.22.41.22.1,0,.19-.03.28-.09.14-.09,2.78-1.83,6.37-1.17-.17-.37-.34-.73-.51-1.1-3.64-.41-6.27,1.34-6.42,1.44Z" fill="#21211d"/><path d="M55.43,44.27c.13.12.26.26.36.41-.07.15-.16.28-.27.4h0c.11-.12.2-.25.27-.39.1-.21.15-.44.15-.68v-1.19c0-.09-.02-.17-.05-.25-.22-.08-.45-.16-.69-.24l.23,1.96Z" fill="#21211d"/><path d="M52.74,44c0,.11.01.22.03.32-.02-.1-.03-.21-.03-.32h0Z" fill="#21211d"/><path d="M55.43,44.27l-.23-1.96s-.07-.02-.11-.04c-.16-.06-.33-.1-.48-.15h-1.19c-.37,0-.68.3-.68.68v.95c.29-.12.61-.18.94-.18.68,0,1.29.27,1.75.7Z" fill="#21211d"/><path d="M55.22,45.35c.12-.08.22-.17.31-.27h0c-.09.1-.2.2-.31.27Z" fill="#21211d"/><path d="M52.77,44.32c.15.73.8,1.28,1.57,1.28.32,0,.62-.09.87-.26-.25.16-.55.26-.87.26-.78,0-1.42-.55-1.57-1.28Z" fill="#f74bad"/><path d="M55.79,44.68c-.1-.15-.23-.29-.36-.41l.09.81c.11-.12.2-.25.27-.4Z" fill="#f74bad"/><path d="M55.43,44.27c-.46-.43-1.07-.7-1.75-.7-.33,0-.65.07-.94.18v.25c0,.11.01.22.03.32.15.73.8,1.28,1.57,1.28.32,0,.62-.09.87-.26.12-.08.22-.17.31-.27l-.09-.81Z" fill="#f74bad"/><path d="M55.27,42.13c.28,0,.52.18.63.42,1.08.38,1.85.77,2.3,2.25.16.51.69.79,1.2.63.51-.16.79-.69.63-1.2-.48-1.55-1.27-2.36-2.34-2.95h-.92s0,0,0,0c-.27,0-.5-.22-.5-.5,0-.04.01-.08.02-.12-.19-.07-.37-.14-.57-.21-.26-.09-.51-.17-.76-.23l.22,1.89h.09Z" fill="#de8857"/><path d="M55.27,42.13c.28,0,.52.18.63.42,1.08.38,1.85.77,2.3,2.25.16.51.69.79,1.2.63.51-.16.79-.69.63-1.2-.48-1.55-1.27-2.36-2.34-2.95h-.92s0,0,0,0c-.27,0-.5-.22-.5-.5,0-.04.01-.08.02-.12-.19-.07-.37-.14-.57-.21-.26-.09-.51-.17-.76-.23l.22,1.89h.09Z" fill="#21211d" isolation="isolate" opacity="0"/><path d="M50.23,41.07c-.43.31-.53.91-.22,1.34.31.43.91.53,1.34.22.92-.66,1.98-.83,3.25-.5h.58l-.22-1.89c-1.76-.43-3.36-.16-4.73.83Z" fill="#de8857"/><path d="M50.23,41.07c-.43.31-.53.91-.22,1.34.31.43.91.53,1.34.22.92-.66,1.98-.83,3.25-.5h.58l-.22-1.89c-1.76-.43-3.36-.16-4.73.83Z" fill="#21211d" isolation="isolate" opacity="0"/><path d="M56.77,41.29h.92c-.42-.23-.89-.43-1.39-.62,0,.04-.02.08-.02.12,0,.28.22.5.5.5Z" fill="#21211d"/><path d="M56.77,41.29h.92c-.42-.23-.89-.43-1.39-.62,0,.04-.02.08-.02.12,0,.28.22.5.5.5Z" fill="#21211d" isolation="isolate" opacity="0"/><path d="M55.27,42.13h-.09l.02.19c.25.08.47.16.69.24-.1-.25-.34-.42-.63-.42Z" fill="#21211d"/><path d="M55.27,42.13h-.09l.02.19c.25.08.47.16.69.24-.1-.25-.34-.42-.63-.42Z" fill="#21211d" isolation="isolate" opacity="0"/><path d="M55.2,42.31l-.02-.19h-.58c.16.04.32.09.48.15.04.01.07.03.11.04Z" fill="#21211d"/><path d="M55.2,42.31l-.02-.19h-.58c.16.04.32.09.48.15.04.01.07.03.11.04Z" fill="#21211d" isolation="isolate" opacity="0"/></svg>